<svg xmlns="http://www.w3.org/2000/svg" xmlns:xlink="http://www.w3.org/1999/xlink" xmlns:inkscape="http://www.inkscape.org/namespaces/inkscape" version="1.1" width="262.5" height="94.97046" viewBox="0 0 262.5 94.97046">
<defs>
<clipPath id="clip_0">
<path transform="matrix(1,0,0,-1,-197,779.7573)" d="M197 684.78689H459.5V779.7573H197Z" clip-rule="evenodd"/>
</clipPath>
<clipPath id="clip_1">
<path transform="matrix(1,0,0,-1,-197,779.7573)" d="M0 0H612V803.25H0Z"/>
</clipPath>
<clipPath id="clip_2">
<path transform="matrix(1,0,0,-1,-197,779.7573)" d="M0 0H612V803.25H0Z"/>
</clipPath>
<clipPath id="clip_3">
<path transform="matrix(1,0,0,-1,-197,779.7573)" d="M0 0H612V803.25H0Z"/>
</clipPath>
<clipPath id="clip_4">
<path transform="matrix(1,0,0,-1,-197,779.7573)" d="M0 0H612V803.25H0Z"/>
</clipPath>
<clipPath id="clip_5">
<path transform="matrix(1,0,0,-1,-197,779.7573)" d="M200.107 731.6983C199.7284 731.4739 199.2395 731.599 199.0152 731.9776 198.7908 732.3562 198.9159 732.845 199.2945 733.0694 224.3997 747.9462 249.7083 747.9462 275.0997 733.0714 275.4795 732.8489 275.607 732.3608 275.3845 731.981 275.162 731.6013 274.6739 731.4738 274.2941 731.6962 249.4013 746.2789 224.7124 746.2789 200.107 731.6983"/>
</clipPath>
<clipPath id="clip_6">
<path transform="matrix(1,0,0,-1,-197,779.7573)" d="M0 0H612V803.25H0Z"/>
</clipPath>
<clipPath id="clip_7">
<path transform="matrix(1,0,0,-1,-197,779.7573)" d="M0 0H612V803.25H0Z"/>
</clipPath>
<clipPath id="clip_8">
<path transform="matrix(1,0,0,-1,-197,779.7573)" d="M0 0H612V803.25H0Z"/>
</clipPath>
<clipPath id="clip_9">
<path transform="matrix(1,0,0,-1,-197,779.7573)" d="M0 0H612V803.25H0Z"/>
</clipPath>
</defs>
<g clip-path="url(#clip_0)">
<g clip-path="url(#clip_1)">
<g clip-path="url(#clip_2)">
<text xml:space="preserve" transform="matrix(.8471761 0 -0 .8471761 -181.0625 -23.492676)" font-size="12" font-family="HelveticaNeue"><tspan y="15.39398" x="0"> </tspan></text>
<text fill-opacity="0" xml:space="preserve" transform="matrix(.8471761 0 -0 .8471761 -181.0625 -23.492676)" font-size="61" font-family=".SFUI"><tspan y="118.1247" x="227.5583">7</tspan></text>
<text xml:space="preserve" transform="matrix(14.40199 0 -0 14.40199 108.36609 50.6239)" font-size="1" font-family="cmr10"><tspan y="-.906" x="0">d</tspan></text>
<text xml:space="preserve" transform="matrix(14.40199 0 -0 14.40199 116.36719 50.6239)" font-size="1" font-family="cmr10"><tspan y="-.906" x="0">e</tspan></text>
<text xml:space="preserve" transform="matrix(14.40199 0 -0 14.40199 122.7681 50.6239)" font-size="1" font-family="cmr10"><tspan y="-.906" x="0">v</tspan></text>
<text xml:space="preserve" transform="matrix(14.40199 0 -0 14.40199 129.96909 50.6239)" font-size="1" font-family="cmr10"><tspan y="-.906" x="0">e</tspan></text>
<text xml:space="preserve" transform="matrix(14.40199 0 -0 14.40199 136.37 50.6239)" font-size="1" font-family="cmr10"><tspan y="-.906" x="0">l</tspan></text>
<text xml:space="preserve" transform="matrix(14.40199 0 -0 14.40199 140.3706 50.6239)" font-size="1" font-family="cmr10"><tspan y="-.906" x="0">o</tspan></text>
<text xml:space="preserve" transform="matrix(14.40199 0 -0 14.40199 147.5716 50.6239)" font-size="1" font-family="cmr10"><tspan y="-.906" x="0">p</tspan></text>
<g clip-path="url(#clip_3)">
<path transform="matrix(1,0,0,-1,-197,779.7573)" d="M370.4426 689.4221C370.1985 689.0559 369.7037 688.9569 369.3375 689.2011 368.9713 689.4452 368.8724 689.94 369.1165 690.3061L425.8095 775.3456C426.0536 775.7117 426.5483 775.8107 426.9145 775.5666 427.2807 775.3224 427.3797 774.8277 427.1355 774.4615ZM425.7165 774.6515C425.5774 775.0691 425.803 775.5203 426.2205 775.6595 426.638 775.7987 427.0893 775.573 427.2285 775.1555L455.575 690.1161C455.7141 689.6986 455.4885 689.2473 455.071 689.1081 454.6535 688.969 454.2022 689.1946 454.063 689.6121ZM369.7796 689.0672C369.3395 689.0672 368.9827 689.424 368.9827 689.8641 368.9827 690.3042 369.3395 690.661 369.7796 690.661H454.819C455.2591 690.661 455.6159 690.3042 455.6159 689.8641 455.6159 689.424 455.2591 689.0672 454.819 689.0672Z"/>
<path transform="matrix(1,0,0,-1,-197,779.7573)" d="M275.494 732.3838C275.494 718.2286 267.8355 705.862 256.4358 699.2021 250.755 695.8832 244.1453 693.9811 237.0913 693.9811 222.9361 693.9811 210.5695 701.6396 203.9095 713.0393 200.5907 718.7201 198.6886 725.3298 198.6886 732.3838 198.6886 746.539 206.347 758.9056 217.7468 765.5656 223.4276 768.8844 230.0373 770.7865 237.0913 770.7865 251.2465 770.7865 263.6131 763.1281 270.273 751.7283 273.5919 746.0475 275.494 739.4378 275.494 732.3838M273.9002 732.3838C273.9002 739.1445 272.0778 745.4796 268.8969 750.9243 262.5132 761.8513 250.6596 769.1928 237.0913 769.1928 230.3306 769.1928 223.9955 767.3704 218.5508 764.1895 207.6238 757.8057 200.2823 745.9522 200.2823 732.3838 200.2823 725.6231 202.1048 719.288 205.2857 713.8433 211.6694 702.9163 223.5229 695.5749 237.0913 695.5749 243.852 695.5749 250.1871 697.3973 255.6318 700.5782 266.5588 706.9619 273.9002 718.8155 273.9002 732.3838M199.2679 731.7147C198.8984 731.9538 198.7926 732.4471 199.0317 732.8167 199.2707 733.1862 199.7641 733.2919 200.1336 733.0529 224.8689 717.0508 249.5288 717.0508 274.2641 733.0529 274.6336 733.2919 275.1269 733.1862 275.366 732.8167 275.6051 732.4471 275.4993 731.9538 275.1298 731.7147 249.8676 715.3719 224.53 715.3719 199.2679 731.7147" fill="#969696"/>
</g>
<g clip-path="url(#clip_4)">
<path transform="matrix(1,0,0,-1,-197,779.7573)" d="M437.1233 734.474C435.9529 735.6444 435.9529 737.5421 437.1233 738.7125 438.2938 739.883 440.1914 739.883 441.3619 738.7125 442.5323 737.5421 442.5323 735.6444 441.3619 734.474 440.1914 733.3035 438.2938 733.3035 437.1233 734.474M430.5545 752.8602C430.4189 753.0147 430.3574 753.2206 430.3862 753.4241L430.5165 753.7603C430.6324 753.9341 430.8144 754.0528 431.0202 754.0888 431.4089 754.157 431.6841 754.0445 431.9382 753.9345 431.9875 753.9131 432.0346 753.8869 432.0788 753.8563L432.449 753.5664 433.06 753.0035 433.4649 752.6764 434.0345 752.3087 434.5251 752.0151 434.7372 751.8325 434.8239 751.774 434.8756 751.7355C434.887 751.7277 434.7372 751.8038 434.7892 751.7818 434.8325 751.7635 434.4871 751.834 434.5845 751.8287 434.662 751.8244 434.2072 751.7422 434.3076 751.7826 434.3838 751.8133 434.0473 751.5992 434.1033 751.6519 434.1845 751.7285 433.9299 751.3862 433.9544 751.4419 433.977 751.4932 433.9127 751.3085 433.9181 751.3322 433.9354 751.4066 433.905 751.1789 433.9045 751.2035L433.8918 751.3121C433.8835 751.5101 433.8747 751.821 433.9403 752.2067 434.0289 752.6426 434.1904 753.0898 434.4243 753.5888L434.867 754.4065 435.0195 754.6726 435.6692 755.5009C435.8852 755.7861 436.2915 755.8422 436.5767 755.6262 436.8019 755.4558 436.8906 755.1591 436.7961 754.893L436.4515 753.9864 436.2358 753.6039 435.8525 752.9048 435.4437 751.8891 435.3061 751.2253C435.3013 751.2021 435.3721 751.0696 435.1239 750.7566 435.0177 750.6253 434.7604 750.4484 434.4669 750.4916 434.0576 750.5519 434.0188 750.748 433.9817 750.8012L433.9292 750.8814 433.8349 751.0523 433.8514 751.0059 433.4167 751.291 432.7915 751.5725 432.2029 751.892 431.5555 752.3185 431.3193 752.431C431.2693 752.4505 431.2213 752.475 431.176 752.504L431.0439 752.5782C431.0218 752.588 431.1371 752.5699 431.0805 752.5752 430.8725 752.5948 430.6815 752.6987 430.5545 752.8602M444.4272 712.1064C444.2986 711.8112 443.9552 711.6761 443.66 711.8047 443.496 711.8761 443.3738 712.0189 443.3287 712.192L443.2952 712.6539 443.3518 713.1156C443.3801 713.2781 443.4606 713.4269 443.5811 713.5394L443.6792 713.6374 443.5012 713.2724 443.6261 714.0004 443.9489 715.1605 444.2286 716.0119 444.4861 716.7596 444.6296 717.2943 444.7029 717.6031C444.7191 717.6778 444.7454 717.7501 444.781 717.8178L444.9237 718.0655 445.1439 718.2885C445.2709 718.3767 445.4696 718.5391 445.8558 718.3583 445.9184 718.329 445.9761 718.2903 446.0269 718.2435 446.287 718.0038 446.2826 717.9116 446.3523 717.6213 446.3702 717.5468 446.3779 717.4703 446.3752 717.3937L446.3342 716.9673 446.2023 716.2756 445.9776 715.4616 445.6183 714.5847 445.1425 713.522 444.7396 712.8204 444.8386 713.2142 444.8505 713.0721C444.8693 712.9083 444.8341 712.7428 444.7503 712.6009L444.4896 712.2012ZM445.9916 717.2383C445.7057 717.0091 445.2882 717.0551 445.059 717.3409 444.8713 717.575 444.8641 717.9059 445.0413 718.148 445.2888 718.4858 445.7425 718.4578 445.9295 718.3863L446.3207 718.1414C446.4818 718.0742 446.5663 717.9302 446.6463 717.8637L447.0801 717.5972 448.0155 717.1743 448.5742 716.9794C448.6288 716.9619 448.6819 716.94 448.733 716.9139L449.1844 716.6924 449.2893 716.6639C449.6113 716.5534 449.8545 716.286 449.9341 715.955 449.9611 715.8431 450.0396 715.806 449.9367 715.438 449.9247 715.395 449.9092 715.3531 449.8905 715.3126 449.737 714.9811 449.6671 715.0068 449.5808 714.9391 449.313 714.729 448.9563 714.6702 448.6352 714.7835L448.4216 714.8585 447.9607 714.9738C447.9056 714.9899 447.852 715.0105 447.8003 715.0353L447.1751 715.3528C446.7758 715.587 446.3765 715.8311 446.0282 716.1638L445.4682 716.8874 445.2879 717.2528 445.3527 717.1672C445.3268 717.182 445.6377 717.0951 445.5328 717.1091 445.4759 717.1168 445.828 717.1382 445.7455 717.1193 445.6608 717.0999 446.0634 717.2959 445.9916 717.2383M449.1946 714.8402C448.7432 714.8145 448.3564 715.1595 448.3307 715.6109 448.3049 716.0623 448.65 716.4491 449.1014 716.4748 449.3294 716.4878 449.5525 716.4049 449.7168 716.2462 449.8463 716.1211 450.0184 715.9972 450.0658 715.6351 450.1096 715.3009 449.9014 714.9852 449.5769 714.8939Z" fill="#dc267f"/>
<path transform="matrix(1,0,0,-1,-197,779.7573)" d="M410.18 687.7448C409.0096 688.9153 409.0096 690.8129 410.18 691.9834 411.3504 693.1538 413.2481 693.1538 414.4185 691.9834 415.589 690.8129 415.589 688.9153 414.4185 687.7448 413.2481 686.5744 411.3504 686.5744 410.18 687.7448M394.6191 693.1277C394.9225 693.0697 395.1215 692.7767 395.0635 692.4733 395.0434 692.3678 394.9933 692.2704 394.9192 692.1926 394.7527 692.0177 394.5852 691.9953 394.4758 691.9809L394.6743 692.0431 394.545 691.9878C394.2728 691.8908 393.9692 691.9854 393.8003 692.2198L393.6957 692.3852 394.0178 692.1126 394.0402 692.1075C394.0221 692.1106 394.2262 692.1134 394.1584 692.1055 393.8516 692.0696 393.5737 692.2893 393.5379 692.5961 393.502 692.9029 393.7216 693.1807 394.0284 693.2166L394.2307 693.2098 394.365 693.176 393.9442 693.146 394.0973 693.2069C394.3675 693.3092 394.6729 693.2206 394.8464 692.9895L394.8688 692.9606 394.7125 693.098C394.7207 693.093 394.5193 693.1467 394.6191 693.1277M393.1926 692.6546C393.2093 693.1398 393.6161 693.5196 394.1013 693.503 394.2945 693.4964 394.4801 693.4262 394.6295 693.3034 394.6922 693.2519 394.5752 693.3424 394.6045 693.3257L395.3108 692.9143 395.9605 692.4524 396.8312 691.6577C396.8847 691.6094 396.9335 691.5561 396.9768 691.4985L397.3543 691.0204C397.4184 690.946 397.4712 690.8625 397.5109 690.7727L397.5752 690.6309 397.402 690.8803 397.6605 690.6974 397.7497 690.6788C397.8703 690.6402 397.8779 690.8337 398.1962 690.401 398.2503 690.3276 398.2873 690.243 398.3045 690.1534 398.3987 689.6656 398.1978 689.6524 398.1265 689.5764L397.951 689.4318C397.7151 689.297 397.475 689.2413 397.1933 689.2623 397.0327 689.2616 396.7454 689.2851 396.4186 689.4199L396.7152 689.3532 396.4399 689.3829C396.3428 689.3985 396.2486 689.4283 396.1603 689.4714L395.4554 689.8855C395.3953 689.9254 395.3392 689.971 395.2878 690.0216L394.5524 690.7618 394.0063 691.3155 393.5826 691.7641C393.445 691.9199 393.1709 692.0207 393.1926 692.6546M398.2836 690.1536C398.3371 689.8426 398.1283 689.5472 397.8173 689.4937 397.5063 689.4403 397.2108 689.6491 397.1574 689.9601 397.1568 689.9639 397.1561 689.9676 397.1556 689.9714 397.1401 690.074 397.2945 689.6735 397.2539 689.7298 397.1887 689.8203 397.438 689.5681 397.4055 689.588 397.3299 689.6344 397.4663 689.5556 397.4114 689.5793L397.8576 689.576 397.7791 689.537 397.3335 689.0866 396.997 688.3258 396.841 688.0182 396.7364 687.8047C396.7016 687.7312 396.6589 687.6617 396.6091 687.5974L396.329 687.2216 396.3097 687.1616C396.1075 686.7606 395.6774 686.5275 395.231 686.577L394.9251 686.654C394.8838 686.6713 394.8438 686.6914 394.8053 686.7142L394.5404 686.9378C394.2447 687.2759 394.1903 687.7621 394.4039 688.1571L394.5287 688.3808 394.7024 688.7782C394.7379 688.8517 394.7812 688.921 394.8316 688.9851L395.015 689.2127 395.2075 689.439C395.6133 689.8237 395.9508 690.0929 396.3032 690.2894 396.6005 690.536 396.992 690.7984 397.5098 690.7536 397.7275 690.7227 398.0003 690.7482 398.1705 690.3096L397.8595 690.6293 397.9267 690.6019C397.9896 690.5733 398.2133 690.5631 398.2836 690.1536M394.3911 687.369C394.3383 687.8481 394.6838 688.2794 395.1629 688.3322 395.6421 688.3851 396.0733 688.0396 396.1262 687.5604 396.1628 687.229 396.0073 686.9056 395.7256 686.7273L395.5251 686.6141C395.1402 686.4283 394.6776 686.5898 394.4919 686.9747 394.4777 687.0041 394.4654 687.0344 394.455 687.0653ZM433.4232 692.4338C433.4758 692.6682 433.7085 692.8155 433.943 692.7629 434.1774 692.7102 434.3247 692.4775 434.272 692.2431L434.2033 692.056C434.09 691.8441 433.8265 691.764 433.6146 691.8773 433.4027 691.9905 433.3227 692.254 433.4359 692.4659ZM433.4116 692.7685C433.7262 692.9687 434.1435 692.876 434.3437 692.5614 434.4796 692.3478 434.4846 692.0761 434.3566 691.8576L434.2178 691.6725 433.5153 691.1309 432.9515 690.6919 432.1571 690.0504 431.266 689.4106 431.1574 689.3249C431.1865 689.3825 431.2151 689.536 431.2075 689.4707 431.199 689.397 431.109 689.8376 431.1551 689.7495L431.0585 689.8864C431.1146 689.8258 430.898 690.0041 430.926 689.9894L431.0322 689.9605 431.5239 689.8049 432.2135 689.5254 433.1002 689.099 433.3615 688.9521 433.5628 688.8481 433.8115 688.7094C433.8691 688.6769 433.9232 688.6385 433.973 688.5949L434.3561 688.2423 434.466 688.1627 434.6518 688.0014C435.003 687.676 435.0238 687.1276 434.6985 686.7765 434.3935 686.4474 433.8878 686.4054 433.5328 686.6797L433.4119 686.7678 433.2579 686.8706 432.9475 687.0045C432.8872 687.0317 432.8299 687.0652 432.7766 687.1042L432.5782 687.248 432.3529 687.4191 432.1625 687.5546 431.4217 688.1338 430.9055 688.47 430.4544 688.7539C430.3723 688.8017 430.1122 688.8269 429.9844 689.2868L430.05 689.1331C429.8851 689.4108 429.9542 689.7296 430.0063 689.8671 430.0589 690.0862 430.2117 690.2478 430.3582 690.4051L431.175 691.1734 431.9862 691.8726 432.6504 692.3746 433.3839 692.7572ZM434.0972 686.5759C433.7243 686.6259 433.4625 686.9687 433.5124 687.3417 433.5624 687.7146 433.9052 687.9764 434.2782 687.9264 434.5846 687.8854 434.8249 687.6432 434.8636 687.3364L434.8569 687.0325C434.7994 686.7353 434.525 686.5309 434.2239 686.5608Z" fill="#ffb000"/>
<path transform="matrix(1,0,0,-1,-197,779.7573)" d="M383.3445 711.2712C382.1741 712.4417 382.1741 714.3393 383.3445 715.5098 384.515 716.6802 386.4126 716.6802 387.5831 715.5098 388.7535 714.3393 388.7535 712.4417 387.5831 711.2712 386.4126 710.1008 384.515 710.1008 383.3445 711.2712M403.6818 744.2038C403.4869 744.1889 403.3035 744.2979 403.2237 744.4764L403.2294 744.465C403.2227 744.4779 403.3935 744.2687 403.3084 744.3569 403.1107 744.5618 403.1165 744.8882 403.3214 745.0859 403.5263 745.2836 403.8527 745.2778 404.0505 745.0729 404.2482 744.868 404.2424 744.5416 404.0375 744.3439 403.8713 744.1836 403.6189 744.1532 403.4195 744.2696 403.3446 744.3133 403.5842 744.2081 403.5546 744.2152 403.4764 744.2338 403.6996 744.2052 403.6818 744.2038M404.0347 745.432C404.1382 745.3858 404.2288 745.3148 404.2982 745.2252L404.4767 744.9185C404.5382 744.7742 404.5552 744.6149 404.5253 744.4609L404.4633 743.7695 404.407 743.2443 404.3435 742.1867 404.2923 741.6221 404.2487 741.3199 404.2442 741.2929C404.2431 741.2748 404.1959 741.5509 404.2235 741.4558L403.7944 741.9085C403.8762 741.8799 403.4544 741.9405 403.5377 741.9449 403.6141 741.949 403.3025 741.8914 403.3495 741.9079 403.4291 741.9357 403.2089 741.8396 403.2252 741.8496L403.414 741.9754C403.8691 742.188 404.293 742.2906 404.8029 742.4114L405.6884 742.5806 406.7591 742.6733C406.8992 742.6838 407.0399 742.6652 407.1726 742.6189L407.5241 742.4963 407.3189 742.5429 407.9759 742.4503C408.3807 742.3712 408.6448 741.9788 408.5656 741.574 408.5129 741.3043 408.3165 741.0854 408.0541 741.0039L407.4391 740.842 407.6357 740.917 407.2998 740.7424C407.1747 740.6785 407.0377 740.6412 406.8975 740.6326L405.9431 740.5666 405.0846 740.5374 403.9239 740.4541C403.6989 740.4562 403.5614 740.4477 403.3376 740.5524 403.2128 740.6107 403.0238 740.7165 402.9236 740.9969 402.816 741.2978 402.9908 741.6322 403.0423 741.6955L402.9142 741.0853C402.7828 741.5617 402.9288 741.6283 402.9415 741.7575L402.9837 742.2769 403.0292 743.3471 403.0251 743.8323 402.9749 744.5236C402.9576 744.6795 402.9873 744.8369 403.0603 744.9757 403.0946 745.041 403.0333 744.9219 403.0668 745.004L403.2016 745.2311C403.3016 745.3502 403.5445 745.6504 404.0347 745.432M374.9553 702.4008C374.7042 702.5761 374.6429 702.9218 374.8182 703.1728 374.8709 703.2483 374.9416 703.3094 375.0238 703.3508L374.8936 703.2275 375.3494 703.5536 375.8645 703.6574C375.9183 703.6654 375.9726 703.6687 376.027 703.6673L376.7801 703.6912 377.6765 703.7833 378.3234 703.8686 378.4488 703.8952C378.5716 703.9166 378.6973 703.915 378.8196 703.8907L379.3778 703.706 379.1578 703.7781 379.5555 703.6697C379.755 703.582 380.1239 703.1728 380.0402 702.7928L379.7904 703.4778C380.1401 703.2095 380.0863 702.8836 380.0662 702.7474L380.0034 702.4979 379.8876 702.1765 379.9204 702.3371 379.9172 701.6896 379.9426 700.3961 379.9732 700.0741 380.0147 699.8105C380.0389 699.6762 380.0354 699.5384 380.0043 699.4056L379.953 699.1551 379.965 699.3493 380.003 698.8969C380.0174 698.7909 380.0105 698.6832 379.9826 698.5799L379.9125 698.3612C379.7911 698.0579 379.4705 697.8843 379.15 697.9483 378.962 697.9859 378.8345 698.0676 378.725 698.1508 378.6399 698.2154 378.5686 698.2964 378.5153 698.389L378.2417 699.0226 378.3239 698.8463 378.1398 699.1776C378.0776 699.2991 378.041 699.4319 378.0322 699.568L378.0166 699.947 378.008 700.2849C378.0129 700.8774 378.0724 701.399 378.1694 701.849 378.2932 702.2532 378.4067 702.5535 378.5914 702.8193L378.5136 702.6751 378.688 703.0524 378.7476 703.1535C378.7519 703.1623 378.703 703.0075 378.7172 703.0654 378.7251 703.0977 378.6998 702.8677 378.7004 702.9285 378.7009 702.993 378.7816 702.5972 378.7454 702.6884L379.3359 702.2609C379.2343 702.267 379.6071 702.3014 379.5602 702.2872 379.4899 702.2658 379.6421 702.3192 379.6399 702.3181L379.3265 702.1665 379.5267 702.2827 379.1447 702.0324C379.0379 701.968 378.9202 701.9239 378.7974 701.9023L378.6863 701.8799 378.0412 701.6954 376.8124 701.648 375.7843 701.7914C375.7314 701.8039 375.6796 701.8209 375.6296 701.8423L375.1025 702.1559C374.8839 702.3795 374.8058 702.6001 374.8004 702.6168 374.7622 702.819 374.9996 702.3698 374.9553 702.4008" fill="#19b091"/>
<path transform="matrix(1,0,0,-1,-197,779.7573)" d="M424.3532 772.7843C423.1828 773.9547 423.1828 775.8524 424.3532 777.0228 425.5237 778.1932 427.4213 778.1932 428.5918 777.0228 429.7622 775.8524 429.7622 773.9547 428.5918 772.7843 427.4213 771.6138 425.5237 771.6138 424.3532 772.7843" fill="#648fff"/>
<path transform="matrix(1,0,0,-1,-197,779.7573)" d="M367.6603 687.7448C366.4898 688.9153 366.4898 690.8129 367.6603 691.9834 368.8307 693.1538 370.7284 693.1538 371.8988 691.9834 373.0693 690.8129 373.0693 688.9153 371.8988 687.7448 370.7284 686.5744 368.8307 686.5744 367.6603 687.7448" fill="#648fff"/>
<path transform="matrix(1,0,0,-1,-197,779.7573)" d="M452.6997 687.7448C451.5293 688.9153 451.5293 690.8129 452.6997 691.9834 453.8701 693.1538 455.7678 693.1538 456.9383 691.9834 458.1087 690.8129 458.1087 688.9153 456.9383 687.7448 455.7678 686.5744 453.8701 686.5744 452.6997 687.7448" fill="#648fff"/>
</g>
<g clip-path="url(#clip_5)">
<g clip-path="url(#clip_6)">
<path transform="matrix(1,0,0,-1,-197,779.7573)" d="M200.107 731.6983C200.9637 732.2059 201.8205 732.6959 202.6773 733.1682L201.908 734.564C201.0366 734.0837 200.1654 733.5855 199.2945 733.0694ZM203.9792 733.8721C204.8581 734.3381 205.737 734.7855 206.6161 735.2142L205.9173 736.6467C205.0222 736.21 204.1272 735.7545 203.2326 735.2802ZM207.9517 735.8514C208.8524 736.2713 209.7531 736.6718 210.6538 737.0527L210.0331 738.5206C209.1145 738.1322 208.1962 737.7239 207.2782 737.2958ZM212.0205 737.6156C212.9416 737.9849 213.8628 738.3338 214.7841 738.6622L214.2488 740.1634C213.3081 739.828 212.3676 739.4718 211.4275 739.0949ZM216.1803 739.1444C217.12 739.4584 218.0598 739.7512 218.9997 740.0228L218.5573 741.5539C217.5963 741.2762 216.6356 740.9769 215.6752 740.656ZM220.4214 740.4174C221.3773 740.6719 222.3333 740.9044 223.2895 741.115L222.9467 742.6714C221.968 742.4559 220.9896 742.2179 220.0115 741.9576ZM224.7339 741.4164C225.7026 741.6074 226.6714 741.7759 227.6404 741.9219L227.403 743.4979C226.4102 743.3483 225.4178 743.1757 224.4256 742.9801ZM229.1013 742.125C230.0788 742.2495 231.0566 742.3512 232.0345 742.4299L231.9066 744.0185C230.9041 743.9378 229.9019 743.8336 228.8999 743.706ZM233.5055 742.5312C234.4876 742.5873 235.4699 742.6203 236.4524 742.6303L236.4362 744.2239C235.4288 744.2137 234.4216 744.1798 233.4147 744.1223ZM237.9268 742.628C238.9087 742.6149 239.891 742.5789 240.8734 742.5198L240.9691 744.1107C239.9618 744.1712 238.9548 744.2082 237.9479 744.2216ZM242.3442 742.4142C243.3216 742.3326 244.2992 742.2283 245.277 742.1012L245.4825 743.6816C244.4804 743.8119 243.4785 743.9188 242.4768 744.0024ZM246.7376 741.8944C247.7059 741.7461 248.6746 741.5755 249.6435 741.3826L249.9547 742.9457C248.9626 743.1432 247.9706 743.3179 246.9788 743.4698ZM251.0869 741.0788C252.0424 740.8668 252.9982 740.6331 253.9543 740.3777L254.3657 741.9174C253.3877 742.1787 252.4098 742.4178 251.4321 742.6347ZM255.3767 739.9817C256.3164 739.7097 257.2563 739.4166 258.1966 739.1026L258.7014 740.6143C257.7408 740.9351 256.7804 741.2345 255.82 741.5126ZM259.5933 738.6209C260.5147 738.2929 261.4364 737.9449 262.3584 737.5767L262.9494 739.0569C262.0087 739.4325 261.0681 739.7876 260.1276 740.1224ZM263.7263 737.0159C264.6278 736.6365 265.5296 736.238 266.4317 735.8202L267.1014 737.2664C266.1823 737.6921 265.2633 738.0982 264.3444 738.4849ZM267.7688 735.187C268.6494 734.7608 269.5303 734.3162 270.4116 733.8533L271.1527 735.2642C270.2561 735.7352 269.3596 736.1877 268.4631 736.6216ZM271.7165 733.1545C272.5754 732.6858 273.4346 732.1997 274.2941 731.6962L275.0997 733.0714C274.2264 733.583 273.3531 734.0771 272.4799 734.5536Z" fill="#969696"/>
</g>
</g>
<g clip-path="url(#clip_7)">
<path transform="matrix(1,0,0,-1,-197,779.7573)" d="M234.3491 758.4602C233.1786 759.6306 233.1786 761.5283 234.3491 762.6987 235.5195 763.8691 237.4172 763.8691 238.5876 762.6987 239.7581 761.5283 239.7581 759.6306 238.5876 758.4602 237.4172 757.2897 235.5195 757.2897 234.3491 758.4602" fill="#648fff"/>
<path transform="matrix(1,0,0,-1,-197,779.7573)" d="M206.2188 739.7747C205.0483 740.9451 205.0483 742.8428 206.2188 744.0132 207.3892 745.1836 209.2869 745.1836 210.4573 744.0132 211.6278 742.8428 211.6278 740.9451 210.4573 739.7747 209.2869 738.6042 207.3892 738.6042 206.2188 739.7747" fill="#19b091"/>
<path transform="matrix(1,0,0,-1,-197,779.7573)" d="M235.0796 704.5923C233.9091 705.7628 233.9091 707.6604 235.0796 708.8309 236.25 710.0013 238.1477 710.0013 239.3181 708.8309 240.4885 707.6604 240.4885 705.7628 239.3181 704.5923 238.1477 703.4219 236.25 703.4219 235.0796 704.5923" fill="#ffb000"/>
<path transform="matrix(1,0,0,-1,-197,779.7573)" d="M258.123 727.2843C256.9525 728.4548 256.9525 730.3524 258.123 731.5229 259.2934 732.6933 261.1911 732.6933 262.3615 731.5229 263.532 730.3524 263.532 728.4548 262.3615 727.2843 261.1911 726.1139 259.2934 726.1139 258.123 727.2843" fill="#dc267f"/>
</g>
<g clip-path="url(#clip_8)">
<path transform="matrix(1,0,0,-1,-197,779.7573)" d="M209.163 742.0038C208.904 741.6479 208.4056 741.5693 208.0498 741.8283 207.6939 742.0872 207.6153 742.5856 207.8742 742.9415 207.9217 743.0067 207.8207 742.856 207.8239 742.862L207.8588 742.935 207.9562 743.1437 208.0896 743.4209 208.1716 743.5759 208.2836 743.7896 208.408 743.9726 208.5648 744.1942C208.79 744.4973 209.0575 744.8315 209.4343 745.1277L210.1137 745.5708 210.4638 745.7405 210.7455 745.8602 210.9416 745.9574 211.1735 746.0859 211.4059 746.2035 211.6132 746.2951 211.8128 746.37 211.9632 746.4195 212.0753 746.451 212.294 746.5056 212.8504 746.6377 213.7264 746.8609 214.0841 746.9615 214.2477 747.0101 214.9698 747.2607 216.0814 747.5703 216.6924 747.7108 216.8376 747.7625C217.0104 747.8431 217.2802 748.0737 217.7263 748.2865 218.2388 748.531 218.7554 748.6402 219.1383 748.7762 219.5215 748.9123 219.8422 749.1153 220.26 749.351L221.5842 750.0444 221.9762 750.3071 222.0963 750.441 222.1826 750.5476 222.394 750.8729 222.6969 751.2768 222.8974 751.5159 223.1196 751.7697 223.323 751.9708 223.34 751.9878 223.4181 752.0672 223.5151 752.1722 223.7503 752.4253 223.8856 752.5836 224.0479 752.757 224.2222 752.9611 224.3246 753.0906 224.4209 753.2294 224.6506 753.6642 224.835 753.9976 225.0378 754.3032 225.2074 754.5428 225.3621 754.783 225.6048 755.1512 225.8004 755.4087 225.9463 755.5849 226.1072 755.7592 226.3138 755.9814 226.4516 756.125 226.6932 756.4033 226.8195 756.5376 226.9863 756.7157 227.6136 757.3333 227.8743 757.5873 228.1045 757.8151 228.1747 757.9001 228.4037 758.1738 228.9497 758.7122 229.2159 758.9287 229.5292 759.1743 229.6589 759.2671 229.8658 759.4087 230.3172 759.6559 230.52 759.7572 230.6783 759.8395 230.8278 759.9322 230.9326 760.0073 231.2342 760.2083 231.4173 760.3234 231.7376 760.4937 231.9802 760.6006 232.1263 760.6678 232.5848 760.8296 232.8103 760.8948 233.0612 760.9421 233.4292 761.0034 233.655 761.028 233.7812 761.0459 233.9419 761.0849 234.117 761.1369 234.3095 761.206C234.6044 761.31 234.9539 761.3839 235.3431 761.3832 235.7832 761.3824 236.1393 761.0249 236.1385 760.5848 236.1377 760.1447 235.7802 759.7886 235.3401 759.7894L234.8399 759.7031 234.6476 759.6341 234.3487 759.5439 234.0688 759.4783 233.8102 759.4419 233.7014 759.4331 233.3165 759.3689 233.1993 759.3492 233.0513 759.3057 232.7567 759.204 232.6018 759.1331 232.4427 759.0644 232.2332 758.9544 232.104 758.8729 231.8757 758.7225 231.685 758.5886 231.4609 758.4511 231.251 758.341 231.0356 758.2332 230.7117 758.0579 230.5841 757.9695 230.4683 757.8866 230.2016 757.6763 229.9937 757.508 229.6083 757.1303 229.3967 756.877 229.2774 756.7361 228.9946 756.4537 228.7142 756.1806 228.1424 755.6186 227.9802 755.4454 227.8777 755.337 227.662 755.0882 227.4821 754.8973 227.2646 754.6635 227.1468 754.5367 227.0473 754.416 226.9084 754.2343 226.7103 753.9331 226.5137 753.6297 226.3486 753.3966 226.2001 753.1751 226.0722 752.9438 225.7555 752.3582 225.623 752.1664 225.4633 751.9612 225.2305 751.6886 225.0971 751.5481 224.9313 751.3551 224.6925 751.098 224.5609 750.9563 224.4662 750.8601 224.4106 750.8059 224.2793 750.6764 224.1 750.4701 223.9324 750.2701 223.7222 749.9921 223.4595 749.5938 223.3339 749.4369 223.0525 749.1316 222.3402 748.6414 221.0431 747.9628C220.6639 747.7489 220.2423 747.4771 219.6719 747.2744L218.4125 746.8481C218.1841 746.7391 217.9366 746.5164 217.5109 746.318L217.1263 746.1773 216.4545 746.0208 215.4747 745.749 214.7245 745.4893 214.5368 745.4334 214.136 745.3206 213.2217 745.0878 212.6682 744.9564 212.4687 744.9065 212.4581 744.9045 212.3409 744.8663 212.2058 744.8156 212.1007 744.7692 211.9427 744.6901 211.6672 744.5384 211.4059 744.4097 211.1076 744.2826 210.8777 744.1721 210.4193 743.8748C210.2074 743.7082 210.0377 743.5043 209.8443 743.2439L209.7056 743.0473 209.6683 743.0003 209.5683 742.8082 209.5108 742.6996 209.3989 742.4665 209.3012 742.2571ZM235.8059 758.7753C235.6836 759.1981 235.9271 759.64 236.3498 759.7623 236.7726 759.8846 237.2145 759.6411 237.3368 759.2184L237.5863 758.5616 237.7352 758.1316 237.8003 757.9354 237.8572 757.6912 237.9137 757.4672 237.973 757.1162 238.0007 756.9993 238.059 756.5418 238.0793 755.937 238.0777 755.1937C238.036 754.5456 237.8295 754.0289 237.6773 753.6226L237.3155 752.8563 236.7715 751.9467 236.375 751.4654 236.2131 751.2864 236.0823 751.1302 235.9478 750.9848 235.8916 750.9096 235.685 750.6344C235.4252 750.2632 235.2168 749.7689 234.9058 749.1687 234.6208 748.6186 234.273 748.1875 234.0006 747.7771L233.4316 746.7715 232.6511 745.124C232.4912 744.7029 232.3756 744.1756 232.2422 743.595L231.9806 742.3473 231.8241 740.799 231.8162 739.5579 231.8716 738.406 232.1034 737.1582 232.2331 736.651 232.3631 736.175 232.5058 735.4033 232.6456 734.7549C232.7263 734.4668 232.8858 734.1816 233.0835 733.7644L233.5257 732.7057 233.7837 732.0571 234.3201 730.8949 234.8885 729.3673 235.3041 728.2693 235.4577 727.7565 235.6241 727.1012 235.8206 726.5518 236.1831 725.6286 236.3697 725.1113 236.7326 724.0336 237.2402 722.291 237.5583 720.9127 237.7431 719.758 238.0221 717.9019 238.1399 716.7762 238.157 716.3361 238.1655 716.0327 238.1741 714.7533V713.6488L238.1648 712.8982 238.1219 712.3186 238.1031 711.934 238.0339 711.1888 238.0346 710.7899 238.043 710.1333 238.0431 709.8195 238.0422 709.5432 238.0135 709.217 237.9304 708.5203 237.7245 707.3277C237.6489 706.8941 237.2362 706.6039 236.8026 706.6795 236.369 706.7551 236.0788 707.1678 236.1544 707.6014L236.35 708.7261 236.4286 709.3846 236.4502 709.6191 236.4493 709.8195V710.1206L236.4411 710.7606 236.4418 711.261 236.512 712.0257 236.5322 712.4315 236.573 712.9773 236.5804 713.6488V714.757L236.5723 715.9916 236.564 716.2864 236.5477 716.7079 236.4536 717.6192 236.1693 719.5067 235.9859 720.6526 235.7073 721.855 235.2111 723.5591 234.8712 724.5686 234.6897 725.0721 234.3495 725.9389 234.0887 726.6737 233.9205 727.336 233.7953 727.756 233.3855 728.8372 232.8663 730.2418 232.3096 731.4512 232.0433 732.1203 231.6434 733.0818C231.4712 733.4449 231.2525 733.8195 231.1109 734.325L230.9383 735.1154 230.8133 735.8035 230.698 736.2227 230.5488 736.8072 230.2898 738.2113 230.2225 739.5523 230.2314 740.8585 230.4095 742.6147 230.6889 743.952C230.8207 744.5254 230.9435 745.1163 231.1611 745.6897 231.3851 746.2798 231.6875 746.8662 232.0148 747.5014L232.6727 748.6584C232.9878 749.1331 233.2939 749.5219 233.4907 749.9019 233.7699 750.4407 233.9946 750.9985 234.3791 751.5481L234.6465 751.9045 234.8025 752.0931 234.8632 752.1568 235.0277 752.3518 235.1838 752.5242 235.4734 752.8712 235.9109 753.6095 236.1849 754.1818C236.3371 754.5881 236.4634 754.9256 236.4872 755.296L236.4856 755.9415 236.4724 756.3907 236.4248 756.7613 236.38 757.0666C236.3774 757.1497 236.3867 756.9947 236.3843 757.0071L236.3668 757.0838 236.3006 757.3493 236.2738 757.4774 236.2162 757.6493 236.0974 757.9932ZM237.9004 759.738C237.6063 759.4106 237.1024 759.3836 236.775 759.6777 236.4476 759.9718 236.4206 760.4756 236.7147 760.803 236.9337 761.0468 237.1944 761.1666 237.4271 761.2264 237.6752 761.2901 237.8791 761.2752 238.0241 761.2697L238.5337 761.27 239.7315 761.2017 240.4951 761.0342C240.8276 760.9224 241.0699 760.7668 241.2552 760.657L242.4022 760.0905C242.7233 759.9233 243.0417 759.7255 243.3217 759.4598 243.7533 759.0501 243.9433 758.6391 244.1326 758.393L245.0117 757.4342 245.4081 756.9362 245.9325 756.0715C246.2344 755.5441 246.5338 755.1213 246.7647 754.5857L247.0807 753.6906 247.2499 753.1742 247.3982 752.7855C247.5496 752.4239 247.7845 752.1044 248.0548 751.6672L248.4954 750.8636 248.8383 750.1124 249.2056 749.3554 249.7442 748.276 250.3379 747.1447C250.618 746.6933 250.9736 746.3125 251.3372 745.8416 251.6483 745.4387 251.8805 745.0241 252.0817 744.6534 252.3709 744.1206 252.5989 743.7688 252.9328 743.4706L253.8147 742.862 254.5009 742.5058C254.9614 742.2428 255.2298 741.9278 255.4836 741.7236 255.6869 741.5601 256.0016 741.394 256.3818 741.223L257 740.9623C257.568 740.7129 257.9829 740.4019 258.3276 740.1172L259.1724 739.5258 259.8615 738.9905 260.3433 738.5297 260.7597 738.1133 260.9479 737.8926 261.1018 737.7046 261.1886 737.6025 261.7507 736.9188 262.4681 735.8111 262.9289 735.1077 263.0542 734.8621 263.2446 734.3675 263.3091 734.1626 263.3546 733.9257 263.3794 733.771 263.4116 733.5422 263.4326 733.151C263.4362 732.9766 263.4774 732.7095 263.4237 732.3561L263.2771 731.8592 263.1541 731.5805 263.0515 731.4023 262.922 731.2027 262.7516 730.9402 262.5681 730.7262 262.1979 730.4393C261.8159 730.2207 261.329 730.3532 261.1105 730.7351 260.8919 731.1171 261.0243 731.604 261.4063 731.8226L261.4207 731.8324 261.4659 731.8819 261.5913 732.0797 261.6905 732.2315 261.7495 732.3334 261.7995 732.4565 261.848 732.5953 261.8392 733.1181 261.8267 733.3753 261.8032 733.535 261.7778 733.6939 261.7674 733.7587 261.726 733.8838 261.604 734.201 261.5509 734.3069 261.1138 734.9711 260.4815 735.9548 259.973 736.5718 259.8645 736.6999 259.7171 736.8801 259.593 737.0276 259.2176 737.4015 258.8181 737.7857 258.2635 738.2166 257.3126 738.8884C257.0108 739.1377 256.7541 739.3296 256.3591 739.5031L255.728 739.7695C255.2983 739.9628 254.8685 740.173 254.4846 740.4818L253.7106 741.1218 253.0415 741.4684C252.6179 741.7034 252.2224 741.9682 251.8711 742.282 251.3447 742.7521 251.0021 743.3014 250.6809 743.8932L250.0757 744.8676C249.7662 745.2685 249.3571 745.7026 248.9837 746.3043L248.3114 747.5781 247.7792 748.6445 247.3879 749.4518 247.0672 750.1562 246.6992 750.8291C246.4669 751.2048 246.1635 751.6077 245.928 752.1703L245.7472 752.6433 245.5651 753.1976 245.3011 753.9548 244.5493 755.2798 244.1089 756.013 243.8194 756.3767 242.8692 757.4215C242.5624 757.8205 242.4178 758.1203 242.2245 758.3038L241.666 758.677 240.4428 759.2859 239.9871 759.5235 239.5404 759.6195 238.4906 759.6768 237.963 759.6771 237.8236 759.6827C237.8158 759.6807 237.9452 759.7879 237.9004 759.738M298.9134 731.7862C298.5833 731.7862 298.3157 732.0537 298.3157 732.3838 298.3157 732.7139 298.5833 732.9815 298.9134 732.9815H350.6132C350.9432 732.9815 351.2108 732.7139 351.2108 732.3838 351.2108 732.0537 350.9432 731.7862 350.6132 731.7862ZM350.6132 736.5119 360.1078 732.3838 350.6132 728.2557Z"/>
</g>
<g clip-path="url(#clip_9)">
<path transform="matrix(1,0,0,-1,-197,779.7573)" d="M234.3491 758.4602C233.1786 759.6306 233.1786 761.5283 234.3491 762.6987 235.5195 763.8691 237.4172 763.8691 238.5876 762.6987 239.7581 761.5283 239.7581 759.6306 238.5876 758.4602 237.4172 757.2897 235.5195 757.2897 234.3491 758.4602" fill="#648fff"/>
<path transform="matrix(1,0,0,-1,-197,779.7573)" d="M206.2188 739.7747C205.0483 740.9451 205.0483 742.8428 206.2188 744.0132 207.3892 745.1836 209.2869 745.1836 210.4573 744.0132 211.6278 742.8428 211.6278 740.9451 210.4573 739.7747 209.2869 738.6042 207.3892 738.6042 206.2188 739.7747" fill="#19b091"/>
<path transform="matrix(1,0,0,-1,-197,779.7573)" d="M235.0796 704.5923C233.9091 705.7628 233.9091 707.6604 235.0796 708.8309 236.25 710.0013 238.1477 710.0013 239.3181 708.8309 240.4885 707.6604 240.4885 705.7628 239.3181 704.5923 238.1477 703.4219 236.25 703.4219 235.0796 704.5923" fill="#ffb000"/>
<path transform="matrix(1,0,0,-1,-197,779.7573)" d="M258.123 727.2843C256.9525 728.4548 256.9525 730.3524 258.123 731.5229 259.2934 732.6933 261.1911 732.6933 262.3615 731.5229 263.532 730.3524 263.532 728.4548 262.3615 727.2843 261.1911 726.1139 259.2934 726.1139 258.123 727.2843" fill="#dc267f"/>
</g>
</g>
</g>
</g>
</svg>
