<svg xmlns="http://www.w3.org/2000/svg" xmlns:xlink="http://www.w3.org/1999/xlink" xmlns:inkscape="http://www.inkscape.org/namespaces/inkscape" version="1.1" width="425" height="84.473728" viewBox="0 0 425 84.473728">
<defs>
<clipPath id="clip_0">
<path transform="matrix(1,0,0,-1,-91,455.85813)" d="M91 371.3844H516V455.85813H91Z" clip-rule="evenodd"/>
</clipPath>
<clipPath id="clip_1">
<path transform="matrix(1,0,0,-1,-91,455.85813)" d="M0 0H612V803.25H0Z"/>
</clipPath>
<clipPath id="clip_2">
<path transform="matrix(1,0,0,-1,-91,455.85813)" d="M0 0H612V803.25H0Z"/>
</clipPath>
<clipPath id="clip_3">
<path transform="matrix(1,0,0,-1,-91,455.85813)" d="M447.979 410.8463H507.7926V400.5119H447.979ZM506.4432 401.9182 503.4391 403.8464 503.3315 403.8779H477.2515 449.2132L453.4432 409.7999H498.7585L504.2716 406.2613ZM506.8378 401.1915C507.0082 401.0821 507.2142 401.2671 507.1236 401.4482L504.6035 406.4885 504.5329 406.567 498.9246 410.1668 498.817 410.1983H453.3407L453.1786 410.1149 448.664 403.7945C448.5698 403.6626 448.6641 403.4795 448.8261 403.4795H477.2515 503.2731Z"/>
</clipPath>
<clipPath id="clip_4">
<path transform="matrix(1,0,0,-1,-91,455.85813)" d="M0 0H612V803.25H0Z"/>
</clipPath>
<clipPath id="clip_5">
<path transform="matrix(1,0,0,-1,-91,455.85813)" d="M0 0H612V803.25H0Z"/>
</clipPath>
<clipPath id="clip_6">
<path transform="matrix(1,0,0,-1,-91,455.85813)" d="M447.979 410.8463H507.7926V400.5119H447.979ZM506.6231 401.5583H481.4937 458.9116L449.1617 403.8058 453.4256 409.7752 468.9476 406.2052 504.3022 406.2002ZM506.9454 401.1599C507.0935 401.1599 507.1899 401.3157 507.1236 401.4482L504.6035 406.4885C504.5697 406.556 504.5008 406.5986 504.4253 406.5986H468.9922L453.3854 410.1933C453.3069 410.2113 453.2254 410.1804 453.1786 410.1149L448.664 403.7945C448.5814 403.6789 448.643 403.5164 448.7815 403.4845L458.867 401.165 481.4937 401.1599Z"/>
</clipPath>
<clipPath id="clip_7">
<path transform="matrix(1,0,0,-1,-91,455.85813)" d="M0 0H612V803.25H0Z"/>
</clipPath>
<clipPath id="clip_8">
<path transform="matrix(1,0,0,-1,-91,455.85813)" d="M0 0H612V803.25H0Z"/>
</clipPath>
<clipPath id="clip_9">
<path transform="matrix(1,0,0,-1,-91,455.85813)" d="M115.9573 414.403H162.0794V374.2331H115.9573ZM160.8871 413.3566 139.0183 375.4787 117.1495 413.3566ZM161.4047 413.4562C161.4814 413.589 161.3855 413.755 161.2322 413.755H116.8045C116.6511 413.755 116.5553 413.589 116.632 413.4562L138.8458 374.9807C138.9225 374.8479 139.1142 374.8479 139.1909 374.9807Z"/>
</clipPath>
<clipPath id="clip_10">
<path transform="matrix(1,0,0,-1,-91,455.85813)" d="M0 0H612V803.25H0Z"/>
</clipPath>
<clipPath id="clip_11">
<path transform="matrix(1,0,0,-1,-91,455.85813)" d="M0 0H612V803.25H0Z"/>
</clipPath>
<clipPath id="clip_12">
<path transform="matrix(1,0,0,-1,-91,455.85813)" d="M283.893 442.6797H356.4535V391.379H283.893ZM355.2192 392.4254H285.1273L320.1732 441.4897ZM355.6063 392.0269C355.7684 392.0269 355.8626 392.2101 355.7684 392.3419L320.3353 441.9483C320.2559 442.0595 320.0906 442.0595 320.0111 441.9483L284.578 392.3419C284.4839 392.2101 284.5781 392.0269 284.7401 392.0269Z"/>
</clipPath>
<clipPath id="clip_13">
<path transform="matrix(1,0,0,-1,-91,455.85813)" d="M0 0H612V803.25H0Z"/>
</clipPath>
<clipPath id="clip_14">
<path transform="matrix(1,0,0,-1,-91,455.85813)" d="M0 0H612V803.25H0Z"/>
</clipPath>
<clipPath id="clip_15">
<path transform="matrix(1,0,0,-1,-91,455.85813)" d="M0 0H612V803.25H0Z"/>
</clipPath>
<clipPath id="clip_16">
<path transform="matrix(1,0,0,-1,-91,455.85813)" d="M440.8239 391.8698C440.6271 391.7714 440.3878 391.8511 440.2894 392.048 440.191 392.2448 440.2707 392.4841 440.4676 392.5825L497.1605 420.929C497.3573 421.0274 497.5966 420.9476 497.6951 420.7508 497.7935 420.554 497.7137 420.3147 497.5169 420.2163Z"/>
</clipPath>
<clipPath id="clip_17">
<path transform="matrix(1,0,0,-1,-91,455.85813)" d="M0 0H612V803.25H0Z"/>
</clipPath>
<clipPath id="clip_18">
<path transform="matrix(1,0,0,-1,-91,455.85813)" d="M0 0H612V803.25H0Z"/>
</clipPath>
<clipPath id="clip_19">
<path transform="matrix(1,0,0,-1,-91,455.85813)" d="M506.9454 401.7575C507.1655 401.7575 507.3439 401.5792 507.3439 401.3591 507.3439 401.1391 507.1655 400.9607 506.9454 400.9607H458.9116C458.6916 400.9607 458.5132 401.1391 458.5132 401.3591 458.5132 401.5792 458.6916 401.7575 458.9116 401.7575Z"/>
</clipPath>
<clipPath id="clip_20">
<path transform="matrix(1,0,0,-1,-91,455.85813)" d="M0 0H612V803.25H0Z"/>
</clipPath>
<clipPath id="clip_21">
<path transform="matrix(1,0,0,-1,-91,455.85813)" d="M504.4253 406.7978C504.6454 406.7978 504.8237 406.6194 504.8237 406.3994 504.8237 406.1793 504.6454 406.001 504.4253 406.001H468.9922C468.7722 406.001 468.5938 406.1793 468.5938 406.3994 468.5938 406.6194 468.7722 406.7978 468.9922 406.7978Z"/>
</clipPath>
<clipPath id="clip_22">
<path transform="matrix(1,0,0,-1,-91,455.85813)" d="M0 0H612V803.25H0Z"/>
</clipPath>
<clipPath id="clip_23">
<path transform="matrix(1,0,0,-1,-91,455.85813)" d="M469.0815 406.7877C469.296 406.7384 469.4298 406.5245 469.3805 406.3101 469.3312 406.0956 469.1174 405.9618 468.9029 406.0111L453.2514 409.6108C453.037 409.6601 452.9031 409.874 452.9524 410.0884 453.0017 410.3029 453.2156 410.4367 453.43 410.3874Z"/>
</clipPath>
<clipPath id="clip_24">
<path transform="matrix(1,0,0,-1,-91,455.85813)" d="M0 0H612V803.25H0Z"/>
</clipPath>
<clipPath id="clip_25">
<path transform="matrix(1,0,0,-1,-91,455.85813)" d="M459.001 401.7474C459.2154 401.6981 459.3493 401.4843 459.2999 401.2698 459.2506 401.0554 459.0368 400.9215 458.8223 400.9708L448.7368 403.2904C448.5224 403.3397 448.3885 403.5536 448.4378 403.768 448.4872 403.9825 448.701 404.1163 448.9154 404.067Z"/>
</clipPath>
<clipPath id="clip_26">
<path transform="matrix(1,0,0,-1,-91,455.85813)" d="M0 0H612V803.25H0Z"/>
</clipPath>
<clipPath id="clip_27">
<path transform="matrix(1,0,0,-1,-91,455.85813)" d="M0 0H612V803.25H0Z"/>
</clipPath>
<clipPath id="clip_28">
<path transform="matrix(1,0,0,-1,-91,455.85813)" d="M0 0H612V803.25H0Z"/>
</clipPath>
<clipPath id="clip_29">
<path transform="matrix(1,0,0,-1,-91,455.85813)" d="M0 0H612V803.25H0Z"/>
</clipPath>
<clipPath id="clip_30">
<path transform="matrix(1,0,0,-1,-91,455.85813)" d="M0 0H612V803.25H0Z"/>
</clipPath>
<clipPath id="clip_31">
<path transform="matrix(1,0,0,-1,-91,455.85813)" d="M0 0H612V803.25H0Z"/>
</clipPath>
<clipPath id="clip_32">
<path transform="matrix(1,0,0,-1,-91,455.85813)" d="M0 0H612V803.25H0Z"/>
</clipPath>
<clipPath id="clip_33">
<path transform="matrix(1,0,0,-1,-91,455.85813)" d="M0 0H612V803.25H0Z"/>
</clipPath>
<clipPath id="clip_34">
<path transform="matrix(1,0,0,-1,-91,455.85813)" d="M355.6524 392.6219C355.871 392.5965 356.0275 392.3986 356.0021 392.1801 355.9766 391.9615 355.7788 391.8049 355.5602 391.8304L298.0851 398.5259C297.8665 398.5514 297.7099 398.7492 297.7354 398.9678 297.7609 399.1863 297.9587 399.3429 298.1773 399.3174Z"/>
</clipPath>
<clipPath id="clip_35">
<path transform="matrix(1,0,0,-1,-91,455.85813)" d="M0 0H612V803.25H0Z"/>
</clipPath>
<clipPath id="clip_36">
<path transform="matrix(1,0,0,-1,-91,455.85813)" d="M351.574 400.7362C351.7937 400.723 351.9611 400.5343 351.9479 400.3146 351.9347 400.095 351.7459 399.9276 351.5263 399.9408L306.3645 402.6526C306.1449 402.6658 305.9775 402.8545 305.9907 403.0742 306.0039 403.2938 306.1926 403.4612 306.4123 403.448Z"/>
</clipPath>
<clipPath id="clip_37">
<path transform="matrix(1,0,0,-1,-91,455.85813)" d="M0 0H612V803.25H0Z"/>
</clipPath>
<clipPath id="clip_38">
<path transform="matrix(1,0,0,-1,-91,455.85813)" d="M0 0H612V803.25H0Z"/>
</clipPath>
<clipPath id="clip_39">
<path transform="matrix(1,0,0,-1,-91,455.85813)" d="M284.9183 391.8698C284.7215 391.7714 284.4822 391.8511 284.3838 392.048 284.2854 392.2448 284.3651 392.4841 284.562 392.5825L341.2549 420.929C341.4517 421.0274 341.6911 420.9476 341.7895 420.7508 341.8879 420.554 341.8081 420.3147 341.6113 420.2163Z"/>
</clipPath>
<clipPath id="clip_40">
<path transform="matrix(1,0,0,-1,-91,455.85813)" d="M0 0H612V803.25H0Z"/>
</clipPath>
<clipPath id="clip_41">
<path transform="matrix(1,0,0,-1,-91,455.85813)" d="M0 0H612V803.25H0Z"/>
</clipPath>
<clipPath id="clip_42">
<path transform="matrix(1,0,0,-1,-91,455.85813)" d="M0 0H612V803.25H0Z"/>
</clipPath>
<clipPath id="clip_43">
<path transform="matrix(1,0,0,-1,-91,455.85813)" d="M0 0H612V803.25H0Z"/>
</clipPath>
<clipPath id="clip_44">
<path transform="matrix(1,0,0,-1,-91,455.85813)" d="M296.5737 408.7528C296.3874 408.8699 296.3314 409.1159 296.4485 409.3022 296.5657 409.4885 296.8117 409.5445 296.9979 409.4273L306.6005 403.3876C306.7868 403.2704 306.8428 403.0244 306.7257 402.8382 306.6085 402.6519 306.3625 402.5959 306.1763 402.713Z"/>
</clipPath>
<clipPath id="clip_45">
<path transform="matrix(1,0,0,-1,-91,455.85813)" d="M0 0H612V803.25H0Z"/>
</clipPath>
<clipPath id="clip_46">
<path transform="matrix(1,0,0,-1,-91,455.85813)" d="M293.3829 404.53C293.25 404.7054 293.2845 404.9553 293.4599 405.0882 293.6353 405.2211 293.8852 405.1866 294.0181 405.0112L298.4488 399.1623C298.5816 398.9868 298.5472 398.7369 298.3718 398.6041 298.1963 398.4712 297.9464 398.5057 297.8136 398.6811Z"/>
</clipPath>
<clipPath id="clip_47">
<path transform="matrix(1,0,0,-1,-91,455.85813)" d="M0 0H612V803.25H0Z"/>
</clipPath>
<clipPath id="clip_48">
<path transform="matrix(1,0,0,-1,-91,455.85813)" d="M0 0H612V803.25H0Z"/>
</clipPath>
</defs>
<g>
<g clip-path="url(#clip_0)">
<g clip-path="url(#clip_1)">
<g clip-path="url(#clip_2)">
<g clip-path="url(#clip_3)">
<g clip-path="url(#clip_4)">
<g style="mix-blend-mode:darken">
<path transform="matrix(1,0,0,-1,-91,455.85813)" d="M506.9454 401.3591 503.3315 403.6787H477.2515 448.8261L453.3407 409.9991H498.817L504.4253 406.3994Z" fill="#515c5d" fill-opacity=".42"/>
</g>
</g>
</g>
<g clip-path="url(#clip_5)">
<g style="mix-blend-mode:darken">
<path transform="matrix(1,0,0,-1,-91,455.85813)" d="M506.4432 401.9182 504.2716 406.2613 498.7585 409.7999H453.4432L449.2132 403.8779H477.2515 503.3315L503.4391 403.8464ZM506.8378 401.1915 503.2731 403.4795H477.2515 448.8261C448.6641 403.4795 448.5698 403.6626 448.664 403.7945L453.1786 410.1149 453.3407 410.1983H498.817L498.9246 410.1668 504.5329 406.567 504.6035 406.4885 507.1236 401.4482C507.2142 401.2671 507.0082 401.0821 506.8378 401.1915" fill="#515c5d" fill-opacity=".42"/>
</g>
</g>
<g clip-path="url(#clip_6)">
<g clip-path="url(#clip_7)">
<g style="mix-blend-mode:darken">
<path transform="matrix(1,0,0,-1,-91,455.85813)" d="M506.9454 401.3591H481.4937 458.9116L448.8261 403.6787 453.3407 409.9991 468.9922 406.3994H504.4253Z" fill="#515c5d" fill-opacity=".42"/>
</g>
</g>
</g>
<g clip-path="url(#clip_8)">
<g style="mix-blend-mode:darken">
<path transform="matrix(1,0,0,-1,-91,455.85813)" d="M506.6231 401.5583 504.3022 406.2002 468.9476 406.2052 453.4256 409.7752 449.1617 403.8058 458.9116 401.5583H481.4937ZM506.9454 401.1599H481.4937L458.867 401.165 448.7815 403.4845C448.643 403.5164 448.5814 403.6789 448.664 403.7945L453.1786 410.1149C453.2254 410.1804 453.3069 410.2113 453.3854 410.1933L468.9922 406.5986H504.4253C504.5008 406.5986 504.5697 406.556 504.6035 406.4885L507.1236 401.4482C507.1899 401.3157 507.0935 401.1599 506.9454 401.1599" fill="#515c5d" fill-opacity=".42"/>
</g>
</g>
<g clip-path="url(#clip_9)">
<g clip-path="url(#clip_10)">
<g style="mix-blend-mode:darken">
<path transform="matrix(1,0,0,-1,-91,455.85813)" d="M161.2322 413.5558 139.0183 375.0803 116.8045 413.5558Z" fill="#c7c3bd" fill-opacity=".42"/>
</g>
</g>
</g>
<g clip-path="url(#clip_11)">
<g style="mix-blend-mode:darken">
<path transform="matrix(1,0,0,-1,-91,455.85813)" d="M160.8871 413.3566H117.1495L139.0183 375.4787ZM161.4047 413.4562 139.1909 374.9807C139.1142 374.8479 138.9225 374.8479 138.8458 374.9807L116.632 413.4562C116.5553 413.589 116.6511 413.755 116.8045 413.755H161.2322C161.3855 413.755 161.4814 413.589 161.4047 413.4562" fill-opacity=".42"/>
</g>
</g>
<g clip-path="url(#clip_12)">
<g clip-path="url(#clip_13)">
<g style="mix-blend-mode:darken">
<path transform="matrix(1,0,0,-1,-91,455.85813)" d="M355.6063 392.2262H284.7401L320.1732 441.8325Z" fill="#c7c3bd" fill-opacity=".42"/>
</g>
</g>
</g>
<g clip-path="url(#clip_14)">
<g style="mix-blend-mode:darken">
<path transform="matrix(1,0,0,-1,-91,455.85813)" d="M355.2192 392.4254 320.1732 441.4897 285.1273 392.4254ZM355.6063 392.0269H284.7401C284.5781 392.0269 284.4839 392.2101 284.578 392.3419L320.0111 441.9483C320.0906 442.0595 320.2559 442.0595 320.3353 441.9483L355.7684 392.3419C355.8626 392.2101 355.7684 392.0269 355.6063 392.0269" fill-opacity=".42"/>
</g>
</g>
<g clip-path="url(#clip_15)">
<path transform="matrix(1,0,0,-1,-91,455.85813)" d="M511.8361 392.4577C511.964 392.2787 511.9226 392.0298 511.7435 391.9019 511.5644 391.774 511.3156 391.8155 511.1877 391.9946L475.7546 441.6009C475.6267 441.78 475.6682 442.0288 475.8472 442.1567 476.0263 442.2846 476.2752 442.2431 476.4031 442.0641ZM511.5119 392.6246C511.732 392.6246 511.9104 392.4462 511.9104 392.2262 511.9104 392.0061 511.732 391.8277 511.5119 391.8277H440.6457C440.4257 391.8277 440.2473 392.0061 440.2473 392.2262 440.2473 392.4462 440.4257 392.6246 440.6457 392.6246ZM440.97 391.9946C440.8421 391.8155 440.5932 391.774 440.4142 391.9019 440.2351 392.0298 440.1936 392.2787 440.3215 392.4577L475.7546 442.0641C475.8825 442.2431 476.1314 442.2846 476.3104 442.1567 476.4895 442.0288 476.531 441.78 476.4031 441.6009ZM475.7971 441.5507C475.6415 441.7063 475.6415 441.9586 475.7971 442.1142 475.9527 442.2698 476.205 442.2698 476.3606 442.1142L497.6204 420.8544C497.776 420.6988 497.776 420.4465 497.6204 420.2909 497.4648 420.1353 497.2125 420.1353 497.0569 420.2909ZM496.9823 420.3944C496.8839 420.5913 496.9637 420.8306 497.1605 420.929 497.3573 421.0274 497.5966 420.9476 497.6951 420.7508L511.8683 392.4043C511.9667 392.2075 511.8869 391.9682 511.6901 391.8698 511.4933 391.7714 511.254 391.8511 511.1555 392.048ZM441.9792 393.097C441.9792 392.931 441.8446 392.7964 441.6786 392.7964 441.5126 392.7964 441.3781 392.931 441.3781 393.097 441.3781 393.263 441.5126 393.3975 441.6786 393.3975 441.8446 393.3975 441.9792 393.263 441.9792 393.097"/>
</g>
<g clip-path="url(#clip_16)">
<g clip-path="url(#clip_17)">
<path transform="matrix(1,0,0,-1,-91,455.85813)" d="M440.8239 391.8698 442.19 392.5528 441.8337 393.2656 440.4676 392.5825ZM442.8731 392.8944 444.2392 393.5774 443.8828 394.2901 442.5167 393.6071ZM444.9222 393.9189 446.2883 394.602 445.9319 395.3147 444.5658 394.6317ZM446.9714 394.9435 448.3375 395.6265 447.9811 396.3393 446.615 395.6562ZM449.0205 395.9681 450.3866 396.6511 450.0302 397.3639 448.6641 396.6808ZM451.0696 396.9926 452.4357 397.6757 452.0794 398.3884 450.7133 397.7054ZM453.1188 398.0172 454.4849 398.7003 454.1285 399.413 452.7624 398.73ZM455.1679 399.0418 456.534 399.7248 456.1776 400.4376 454.8116 399.7545ZM457.2171 400.0664 458.5832 400.7494 458.2268 401.4621 456.8607 400.7791ZM459.2662 401.0909 460.6323 401.774 460.2759 402.4867 458.9098 401.8037ZM461.3154 402.1155 462.6814 402.7985 462.3251 403.5113 460.959 402.8282ZM463.3645 403.1401 464.7306 403.8231 464.3742 404.5359 463.0081 403.8528ZM465.4136 404.1646 466.7797 404.8477 466.4234 405.5604 465.0573 404.8774ZM467.4628 405.1892 468.8289 405.8723 468.4725 406.585 467.1064 405.902ZM469.5119 406.2138 470.878 406.8968 470.5216 407.6096 469.1556 406.9265ZM471.5611 407.2384 472.9272 407.9214 472.5708 408.6341 471.2047 407.9511ZM473.6102 408.2629 474.9763 408.946 474.6199 409.6587 473.2538 408.9757ZM475.6594 409.2875 477.0254 409.9705 476.6691 410.6833 475.303 410.0002ZM477.7085 410.3121 479.0746 410.9951 478.7182 411.7079 477.3521 411.0248ZM479.7576 411.3366 481.1237 412.0197 480.7674 412.7324 479.4013 412.0494ZM481.8068 412.3612 483.1729 413.0443 482.8165 413.757 481.4504 413.074ZM483.8559 413.3858 485.222 414.0688 484.8656 414.7816 483.4995 414.0985ZM485.9051 414.4104 487.2712 415.0934 486.9148 415.8061 485.5487 415.1231ZM487.9542 415.4349 489.3203 416.118 488.9639 416.8307 487.5978 416.1477ZM490.0033 416.4595 491.3694 417.1425 491.0131 417.8553 489.647 417.1722ZM492.0525 417.4841 493.4186 418.1671 493.0622 418.8799 491.6961 418.1968ZM494.1016 418.5086 495.4677 419.1917 495.1114 419.9044 493.7453 419.2214ZM496.1508 419.5332 497.5169 420.2163 497.1605 420.929 495.7944 420.246Z"/>
</g>
</g>
<g clip-path="url(#clip_18)">
<path transform="matrix(1,0,0,-1,-91,455.85813)" d="M495.2194 418.4534C494.049 419.6238 494.049 421.5215 495.2194 422.6919 496.3899 423.8623 498.2875 423.8623 499.458 422.6919 500.6284 421.5215 500.6284 419.6238 499.458 418.4534 498.2875 417.2829 496.3899 417.2829 495.2194 418.4534" fill="#648fff"/>
<path transform="matrix(1,0,0,-1,-91,455.85813)" d="M509.3926 390.1069C508.2222 391.2773 508.2222 393.175 509.3926 394.3454 510.5631 395.5159 512.4608 395.5159 513.6312 394.3454 514.8016 393.175 514.8016 391.2773 513.6312 390.1069 512.4608 388.9364 510.5631 388.9364 509.3926 390.1069M509.3926 390.1069C508.2222 391.2773 508.2222 393.175 509.3926 394.3454 510.5631 395.5159 512.4608 395.5159 513.6312 394.3454 514.8016 393.175 514.8016 391.2773 513.6312 390.1069 512.4608 388.9364 510.5631 388.9364 509.3926 390.1069" fill="#dc267f"/>
<path transform="matrix(1,0,0,-1,-91,455.85813)" d="M438.5265 390.1069C437.356 391.2773 437.356 393.175 438.5265 394.3454 439.6969 395.5159 441.5946 395.5159 442.765 394.3454 443.9355 393.175 443.9355 391.2773 442.765 390.1069 441.5946 388.9364 439.6969 388.9364 438.5265 390.1069" fill="#19b091"/>
<path transform="matrix(1,0,0,-1,-91,455.85813)" d="M473.9596 439.7132C472.7891 440.8837 472.7891 442.7813 473.9596 443.9518 475.13 445.1222 477.0277 445.1222 478.1981 443.9518 479.3685 442.7813 479.3685 440.8837 478.1981 439.7132 477.0277 438.5428 475.13 438.5428 473.9596 439.7132" fill="#ffb000"/>
<path transform="matrix(1,0,0,-1,-91,455.85813)" d="M503.3315 404.0771C503.5516 404.0771 503.73 403.8987 503.73 403.6787 503.73 403.4586 503.5516 403.2803 503.3315 403.2803H448.8261C448.6061 403.2803 448.4277 403.4586 448.4277 403.6787 448.4277 403.8987 448.6061 404.0771 448.8261 404.0771ZM498.817 410.3976C499.037 410.3976 499.2154 410.2192 499.2154 409.9991 499.2154 409.7791 499.037 409.6007 498.817 409.6007H453.3407C453.1207 409.6007 452.9423 409.7791 452.9423 409.9991 452.9423 410.2192 453.1207 410.3976 453.3407 410.3976ZM504.6405 406.7347C504.8257 406.6158 504.8795 406.3694 504.7606 406.1842 504.6418 405.999 504.3953 405.9452 504.2101 406.0641L498.6017 409.6638C498.4165 409.7827 498.3628 410.0291 498.4816 410.2143 498.6005 410.3995 498.847 410.4533 499.0322 410.3344ZM507.1607 401.6944C507.3459 401.5756 507.3996 401.3291 507.2808 401.1439 507.1619 400.9587 506.9154 400.9049 506.7302 401.0238L503.1163 403.3434C502.9311 403.4623 502.8774 403.7087 502.9962 403.8939 503.1151 404.0791 503.3616 404.1329 503.5468 404.014Z"/>
</g>
<g clip-path="url(#clip_19)">
<g clip-path="url(#clip_20)">
<path transform="matrix(1,0,0,-1,-91,455.85813)" d="M506.9454 401.7575H506.9446C506.7246 401.7575 506.5462 401.5792 506.5462 401.3591 506.5462 401.1391 506.7246 400.9607 506.9446 400.9607H506.9454C507.1655 400.9607 507.3439 401.1391 507.3439 401.3591 507.3439 401.5792 507.1655 401.7575 506.9454 401.7575M505.3443 401.7575H505.3435C505.1235 401.7575 504.9451 401.5792 504.9451 401.3591 504.9451 401.1391 505.1235 400.9607 505.3435 400.9607H505.3443C505.5644 400.9607 505.7428 401.1391 505.7428 401.3591 505.7428 401.5792 505.5644 401.7575 505.3443 401.7575M503.7432 401.7575H503.7424C503.5224 401.7575 503.344 401.5792 503.344 401.3591 503.344 401.1391 503.5224 400.9607 503.7424 400.9607H503.7432C503.9633 400.9607 504.1417 401.1391 504.1417 401.3591 504.1417 401.5792 503.9633 401.7575 503.7432 401.7575M502.1421 401.7575H502.1413C501.9213 401.7575 501.7429 401.5792 501.7429 401.3591 501.7429 401.1391 501.9213 400.9607 502.1413 400.9607H502.1421C502.3622 400.9607 502.5406 401.1391 502.5406 401.3591 502.5406 401.5792 502.3622 401.7575 502.1421 401.7575M500.541 401.7575H500.5402C500.3202 401.7575 500.1418 401.5792 500.1418 401.3591 500.1418 401.1391 500.3202 400.9607 500.5402 400.9607H500.541C500.7611 400.9607 500.9395 401.1391 500.9395 401.3591 500.9395 401.5792 500.7611 401.7575 500.541 401.7575M498.9399 401.7575H498.9391C498.7191 401.7575 498.5407 401.5792 498.5407 401.3591 498.5407 401.1391 498.7191 400.9607 498.9391 400.9607H498.9399C499.16 400.9607 499.3384 401.1391 499.3384 401.3591 499.3384 401.5792 499.16 401.7575 498.9399 401.7575M497.3388 401.7575H497.338C497.118 401.7575 496.9396 401.5792 496.9396 401.3591 496.9396 401.1391 497.118 400.9607 497.338 400.9607H497.3388C497.5589 400.9607 497.7373 401.1391 497.7373 401.3591 497.7373 401.5792 497.5589 401.7575 497.3388 401.7575M495.7377 401.7575H495.7369C495.5169 401.7575 495.3385 401.5792 495.3385 401.3591 495.3385 401.1391 495.5169 400.9607 495.7369 400.9607H495.7377C495.9578 400.9607 496.1362 401.1391 496.1362 401.3591 496.1362 401.5792 495.9578 401.7575 495.7377 401.7575M494.1366 401.7575H494.1358C493.9158 401.7575 493.7374 401.5792 493.7374 401.3591 493.7374 401.1391 493.9158 400.9607 494.1358 400.9607H494.1366C494.3567 400.9607 494.5351 401.1391 494.5351 401.3591 494.5351 401.5792 494.3567 401.7575 494.1366 401.7575M492.5355 401.7575H492.5347C492.3147 401.7575 492.1363 401.5792 492.1363 401.3591 492.1363 401.1391 492.3147 400.9607 492.5347 400.9607H492.5355C492.7556 400.9607 492.934 401.1391 492.934 401.3591 492.934 401.5792 492.7556 401.7575 492.5355 401.7575M490.9344 401.7575H490.9336C490.7136 401.7575 490.5352 401.5792 490.5352 401.3591 490.5352 401.1391 490.7136 400.9607 490.9336 400.9607H490.9344C491.1545 400.9607 491.3329 401.1391 491.3329 401.3591 491.3329 401.5792 491.1545 401.7575 490.9344 401.7575M489.3333 401.7575H489.3325C489.1125 401.7575 488.9341 401.5792 488.9341 401.3591 488.9341 401.1391 489.1125 400.9607 489.3325 400.9607H489.3333C489.5534 400.9607 489.7318 401.1391 489.7318 401.3591 489.7318 401.5792 489.5534 401.7575 489.3333 401.7575M487.7322 401.7575H487.7314C487.5114 401.7575 487.333 401.5792 487.333 401.3591 487.333 401.1391 487.5114 400.9607 487.7314 400.9607H487.7322C487.9523 400.9607 488.1307 401.1391 488.1307 401.3591 488.1307 401.5792 487.9523 401.7575 487.7322 401.7575M486.1311 401.7575H486.1303C485.9103 401.7575 485.7319 401.5792 485.7319 401.3591 485.7319 401.1391 485.9103 400.9607 486.1303 400.9607H486.1311C486.3512 400.9607 486.5296 401.1391 486.5296 401.3591 486.5296 401.5792 486.3512 401.7575 486.1311 401.7575M484.53 401.7575H484.5292C484.3092 401.7575 484.1308 401.5792 484.1308 401.3591 484.1308 401.1391 484.3092 400.9607 484.5292 400.9607H484.53C484.7501 400.9607 484.9285 401.1391 484.9285 401.3591 484.9285 401.5792 484.7501 401.7575 484.53 401.7575M482.9289 401.7575H482.9281C482.7081 401.7575 482.5297 401.5792 482.5297 401.3591 482.5297 401.1391 482.7081 400.9607 482.9281 400.9607H482.9289C483.149 400.9607 483.3274 401.1391 483.3274 401.3591 483.3274 401.5792 483.149 401.7575 482.9289 401.7575M481.3278 401.7575H481.327C481.107 401.7575 480.9286 401.5792 480.9286 401.3591 480.9286 401.1391 481.107 400.9607 481.327 400.9607H481.3278C481.5479 400.9607 481.7263 401.1391 481.7263 401.3591 481.7263 401.5792 481.5479 401.7575 481.3278 401.7575M479.7267 401.7575H479.7259C479.5059 401.7575 479.3275 401.5792 479.3275 401.3591 479.3275 401.1391 479.5059 400.9607 479.7259 400.9607H479.7267C479.9468 400.9607 480.1252 401.1391 480.1252 401.3591 480.1252 401.5792 479.9468 401.7575 479.7267 401.7575M478.1256 401.7575H478.1248C477.9048 401.7575 477.7264 401.5792 477.7264 401.3591 477.7264 401.1391 477.9048 400.9607 478.1248 400.9607H478.1256C478.3457 400.9607 478.5241 401.1391 478.5241 401.3591 478.5241 401.5792 478.3457 401.7575 478.1256 401.7575M476.5245 401.7575H476.5237C476.3037 401.7575 476.1253 401.5792 476.1253 401.3591 476.1253 401.1391 476.3037 400.9607 476.5237 400.9607H476.5245C476.7446 400.9607 476.923 401.1391 476.923 401.3591 476.923 401.5792 476.7446 401.7575 476.5245 401.7575M474.9234 401.7575H474.9226C474.7026 401.7575 474.5242 401.5792 474.5242 401.3591 474.5242 401.1391 474.7026 400.9607 474.9226 400.9607H474.9234C475.1435 400.9607 475.3219 401.1391 475.3219 401.3591 475.3219 401.5792 475.1435 401.7575 474.9234 401.7575M473.3223 401.7575H473.3215C473.1015 401.7575 472.9231 401.5792 472.9231 401.3591 472.9231 401.1391 473.1015 400.9607 473.3215 400.9607H473.3223C473.5424 400.9607 473.7208 401.1391 473.7208 401.3591 473.7208 401.5792 473.5424 401.7575 473.3223 401.7575M471.7212 401.7575H471.7204C471.5004 401.7575 471.322 401.5792 471.322 401.3591 471.322 401.1391 471.5004 400.9607 471.7204 400.9607H471.7212C471.9413 400.9607 472.1197 401.1391 472.1197 401.3591 472.1197 401.5792 471.9413 401.7575 471.7212 401.7575M470.1201 401.7575H470.1193C469.8993 401.7575 469.7209 401.5792 469.7209 401.3591 469.7209 401.1391 469.8993 400.9607 470.1193 400.9607H470.1201C470.3402 400.9607 470.5186 401.1391 470.5186 401.3591 470.5186 401.5792 470.3402 401.7575 470.1201 401.7575M468.519 401.7575H468.5182C468.2982 401.7575 468.1198 401.5792 468.1198 401.3591 468.1198 401.1391 468.2982 400.9607 468.5182 400.9607H468.519C468.7391 400.9607 468.9175 401.1391 468.9175 401.3591 468.9175 401.5792 468.7391 401.7575 468.519 401.7575M466.9179 401.7575H466.9171C466.6971 401.7575 466.5187 401.5792 466.5187 401.3591 466.5187 401.1391 466.6971 400.9607 466.9171 400.9607H466.9179C467.138 400.9607 467.3164 401.1391 467.3164 401.3591 467.3164 401.5792 467.138 401.7575 466.9179 401.7575M465.3168 401.7575H465.316C465.096 401.7575 464.9176 401.5792 464.9176 401.3591 464.9176 401.1391 465.096 400.9607 465.316 400.9607H465.3168C465.5369 400.9607 465.7153 401.1391 465.7153 401.3591 465.7153 401.5792 465.5369 401.7575 465.3168 401.7575M463.7157 401.7575H463.7149C463.4949 401.7575 463.3165 401.5792 463.3165 401.3591 463.3165 401.1391 463.4949 400.9607 463.7149 400.9607H463.7157C463.9358 400.9607 464.1142 401.1391 464.1142 401.3591 464.1142 401.5792 463.9358 401.7575 463.7157 401.7575M462.1146 401.7575H462.1138C461.8938 401.7575 461.7154 401.5792 461.7154 401.3591 461.7154 401.1391 461.8938 400.9607 462.1138 400.9607H462.1146C462.3347 400.9607 462.5131 401.1391 462.5131 401.3591 462.5131 401.5792 462.3347 401.7575 462.1146 401.7575M460.5135 401.7575H460.5127C460.2927 401.7575 460.1143 401.5792 460.1143 401.3591 460.1143 401.1391 460.2927 400.9607 460.5127 400.9607H460.5135C460.7336 400.9607 460.912 401.1391 460.912 401.3591 460.912 401.5792 460.7336 401.7575 460.5135 401.7575M458.9124 401.7575H458.9116C458.6916 401.7575 458.5132 401.5792 458.5132 401.3591 458.5132 401.1391 458.6916 400.9607 458.9116 400.9607H458.9124C459.1325 400.9607 459.3109 401.1391 459.3109 401.3591 459.3109 401.5792 459.1325 401.7575 458.9124 401.7575"/>
</g>
</g>
<g clip-path="url(#clip_21)">
<g clip-path="url(#clip_22)">
<path transform="matrix(1,0,0,-1,-91,455.85813)" d="M504.4253 406.7978H504.4245C504.2044 406.7978 504.0261 406.6194 504.0261 406.3994 504.0261 406.1793 504.2044 406.001 504.4245 406.001H504.4253C504.6454 406.001 504.8237 406.1793 504.8237 406.3994 504.8237 406.6194 504.6454 406.7978 504.4253 406.7978M502.8147 406.7978H502.8139C502.5939 406.7978 502.4155 406.6194 502.4155 406.3994 502.4155 406.1793 502.5939 406.001 502.8139 406.001H502.8147C503.0348 406.001 503.2132 406.1793 503.2132 406.3994 503.2132 406.6194 503.0348 406.7978 502.8147 406.7978M501.2042 406.7978H501.2034C500.9833 406.7978 500.8049 406.6194 500.8049 406.3994 500.8049 406.1793 500.9833 406.001 501.2034 406.001H501.2042C501.4242 406.001 501.6026 406.1793 501.6026 406.3994 501.6026 406.6194 501.4242 406.7978 501.2042 406.7978M499.5936 406.7978H499.5928C499.3728 406.7978 499.1944 406.6194 499.1944 406.3994 499.1944 406.1793 499.3728 406.001 499.5928 406.001H499.5936C499.8137 406.001 499.9921 406.1793 499.9921 406.3994 499.9921 406.6194 499.8137 406.7978 499.5936 406.7978M497.9831 406.7978H497.9823C497.7622 406.7978 497.5838 406.6194 497.5838 406.3994 497.5838 406.1793 497.7622 406.001 497.9823 406.001H497.9831C498.2031 406.001 498.3815 406.1793 498.3815 406.3994 498.3815 406.6194 498.2031 406.7978 497.9831 406.7978M496.3725 406.7978H496.3717C496.1517 406.7978 495.9733 406.6194 495.9733 406.3994 495.9733 406.1793 496.1517 406.001 496.3717 406.001H496.3725C496.5926 406.001 496.7709 406.1793 496.7709 406.3994 496.7709 406.6194 496.5926 406.7978 496.3725 406.7978M494.762 406.7978H494.7611C494.5411 406.7978 494.3627 406.6194 494.3627 406.3994 494.3627 406.1793 494.5411 406.001 494.7611 406.001H494.762C494.982 406.001 495.1604 406.1793 495.1604 406.3994 495.1604 406.6194 494.982 406.7978 494.762 406.7978M493.1514 406.7978H493.1506C492.9305 406.7978 492.7522 406.6194 492.7522 406.3994 492.7522 406.1793 492.9305 406.001 493.1506 406.001H493.1514C493.3714 406.001 493.5498 406.1793 493.5498 406.3994 493.5498 406.6194 493.3714 406.7978 493.1514 406.7978M491.5408 406.7978H491.54C491.32 406.7978 491.1416 406.6194 491.1416 406.3994 491.1416 406.1793 491.32 406.001 491.54 406.001H491.5408C491.7609 406.001 491.9393 406.1793 491.9393 406.3994 491.9393 406.6194 491.7609 406.7978 491.5408 406.7978M489.9303 406.7978H489.9295C489.7094 406.7978 489.531 406.6194 489.531 406.3994 489.531 406.1793 489.7094 406.001 489.9295 406.001H489.9303C490.1503 406.001 490.3287 406.1793 490.3287 406.3994 490.3287 406.6194 490.1503 406.7978 489.9303 406.7978M488.3197 406.7978H488.3189C488.0989 406.7978 487.9205 406.6194 487.9205 406.3994 487.9205 406.1793 488.0989 406.001 488.3189 406.001H488.3197C488.5398 406.001 488.7182 406.1793 488.7182 406.3994 488.7182 406.6194 488.5398 406.7978 488.3197 406.7978M486.7092 406.7978H486.7084C486.4883 406.7978 486.3099 406.6194 486.3099 406.3994 486.3099 406.1793 486.4883 406.001 486.7084 406.001H486.7092C486.9292 406.001 487.1076 406.1793 487.1076 406.3994 487.1076 406.6194 486.9292 406.7978 486.7092 406.7978M485.0986 406.7978H485.0978C484.8777 406.7978 484.6994 406.6194 484.6994 406.3994 484.6994 406.1793 484.8777 406.001 485.0978 406.001H485.0986C485.3187 406.001 485.497 406.1793 485.497 406.3994 485.497 406.6194 485.3187 406.7978 485.0986 406.7978M483.488 406.7978H483.4872C483.2672 406.7978 483.0888 406.6194 483.0888 406.3994 483.0888 406.1793 483.2672 406.001 483.4872 406.001H483.488C483.7081 406.001 483.8865 406.1793 483.8865 406.3994 483.8865 406.6194 483.7081 406.7978 483.488 406.7978M481.8775 406.7978H481.8767C481.6566 406.7978 481.4782 406.6194 481.4782 406.3994 481.4782 406.1793 481.6566 406.001 481.8767 406.001H481.8775C482.0975 406.001 482.2759 406.1793 482.2759 406.3994 482.2759 406.6194 482.0975 406.7978 481.8775 406.7978M480.2669 406.7978H480.2661C480.0461 406.7978 479.8677 406.6194 479.8677 406.3994 479.8677 406.1793 480.0461 406.001 480.2661 406.001H480.2669C480.487 406.001 480.6654 406.1793 480.6654 406.3994 480.6654 406.6194 480.487 406.7978 480.2669 406.7978M478.6564 406.7978H478.6556C478.4355 406.7978 478.2571 406.6194 478.2571 406.3994 478.2571 406.1793 478.4355 406.001 478.6556 406.001H478.6564C478.8764 406.001 479.0548 406.1793 479.0548 406.3994 479.0548 406.6194 478.8764 406.7978 478.6564 406.7978M477.0458 406.7978H477.045C476.825 406.7978 476.6466 406.6194 476.6466 406.3994 476.6466 406.1793 476.825 406.001 477.045 406.001H477.0458C477.2659 406.001 477.4442 406.1793 477.4442 406.3994 477.4442 406.6194 477.2659 406.7978 477.0458 406.7978M475.4353 406.7978H475.4344C475.2144 406.7978 475.036 406.6194 475.036 406.3994 475.036 406.1793 475.2144 406.001 475.4344 406.001H475.4353C475.6553 406.001 475.8337 406.1793 475.8337 406.3994 475.8337 406.6194 475.6553 406.7978 475.4353 406.7978M473.8247 406.7978H473.8239C473.6038 406.7978 473.4255 406.6194 473.4255 406.3994 473.4255 406.1793 473.6038 406.001 473.8239 406.001H473.8247C474.0447 406.001 474.2231 406.1793 474.2231 406.3994 474.2231 406.6194 474.0447 406.7978 473.8247 406.7978M472.2141 406.7978H472.2133C471.9933 406.7978 471.8149 406.6194 471.8149 406.3994 471.8149 406.1793 471.9933 406.001 472.2133 406.001H472.2141C472.4342 406.001 472.6126 406.1793 472.6126 406.3994 472.6126 406.6194 472.4342 406.7978 472.2141 406.7978M470.6036 406.7978H470.6028C470.3827 406.7978 470.2043 406.6194 470.2043 406.3994 470.2043 406.1793 470.3827 406.001 470.6028 406.001H470.6036C470.8236 406.001 471.002 406.1793 471.002 406.3994 471.002 406.6194 470.8236 406.7978 470.6036 406.7978M468.993 406.7978H468.9922C468.7722 406.7978 468.5938 406.6194 468.5938 406.3994 468.5938 406.1793 468.7722 406.001 468.9922 406.001H468.993C469.2131 406.001 469.3915 406.1793 469.3915 406.3994 469.3915 406.6194 469.2131 406.7978 468.993 406.7978"/>
</g>
</g>
<g clip-path="url(#clip_23)">
<g clip-path="url(#clip_24)">
<path transform="matrix(1,0,0,-1,-91,455.85813)" d="M469.0815 406.7877 469.0807 406.7879C468.8663 406.8372 468.6525 406.7033 468.6031 406.4889 468.5538 406.2744 468.6877 406.0606 468.9021 406.0113L468.9029 406.0111C469.1174 405.9618 469.3312 406.0956 469.3805 406.3101 469.4298 406.5245 469.296 406.7384 469.0815 406.7877M467.5164 407.1476 467.5157 407.1478C467.3012 407.1971 467.0874 407.0633 467.0381 406.8488 466.9887 406.6344 467.1226 406.4205 467.3371 406.3712L467.3378 406.371C467.5523 406.3217 467.7661 406.4556 467.8154 406.67 467.8648 406.8845 467.7309 407.0983 467.5164 407.1476M465.9514 407.5076 465.9506 407.5078C465.7361 407.5571 465.5223 407.4232 465.473 407.2088 465.4237 406.9943 465.5575 406.7805 465.772 406.7312L465.7728 406.731C465.9872 406.6817 466.201 406.8155 466.2504 407.03 466.2997 407.2444 466.1658 407.4583 465.9514 407.5076M464.3863 407.8676 464.3855 407.8677C464.1711 407.9171 463.9572 407.7832 463.9079 407.5687 463.8586 407.3543 463.9925 407.1405 464.2069 407.0911L464.2077 407.091C464.4221 407.0416 464.636 407.1755 464.6853 407.3899 464.7346 407.6044 464.6008 407.8182 464.3863 407.8676M462.8212 408.2275 462.8204 408.2277C462.606 408.277 462.3922 408.1431 462.3428 407.9287 462.2935 407.7142 462.4274 407.5004 462.6418 407.4511L462.6426 407.4509C462.8571 407.4016 463.0709 407.5355 463.1202 407.7499 463.1695 407.9644 463.0357 408.1782 462.8212 408.2275M461.2562 408.5875 461.2554 408.5876C461.0409 408.637 460.8271 408.5031 460.7778 408.2886 460.7284 408.0742 460.8623 407.8604 461.0768 407.811L461.0775 407.8109C461.292 407.7615 461.5058 407.8954 461.5552 408.1099 461.6045 408.3243 461.4706 408.5381 461.2562 408.5875M459.6911 408.9474 459.6903 408.9476C459.4759 408.9969 459.262 408.8631 459.2127 408.6486 459.1634 408.4342 459.2972 408.2203 459.5117 408.171L459.5125 408.1708C459.7269 408.1215 459.9408 408.2554 459.9901 408.4698 460.0394 408.6843 459.9055 408.8981 459.6911 408.9474M458.126 409.3074 458.1252 409.3076C457.9108 409.3569 457.697 409.223 457.6476 409.0086 457.5983 408.7941 457.7322 408.5803 457.9466 408.531L457.9474 408.5308C458.1619 408.4814 458.3757 408.6153 458.425 408.8298 458.4743 409.0442 458.3405 409.258 458.126 409.3074M456.5609 409.6673 456.5602 409.6675C456.3457 409.7168 456.1319 409.583 456.0826 409.3685 456.0332 409.1541 456.1671 408.9402 456.3816 408.8909L456.3823 408.8907C456.5968 408.8414 456.8106 408.9753 456.8599 409.1897 456.9093 409.4042 456.7754 409.618 456.5609 409.6673M454.9959 410.0273 454.9951 410.0275C454.7806 410.0768 454.5668 409.9429 454.5175 409.7285 454.4682 409.514 454.602 409.3002 454.8165 409.2509L454.8173 409.2507C455.0317 409.2014 455.2455 409.3352 455.2949 409.5497 455.3442 409.7641 455.2103 409.978 454.9959 410.0273M453.4308 410.3872 453.43 410.3874C453.2156 410.4367 453.0017 410.3029 452.9524 410.0884 452.9031 409.874 453.037 409.6601 453.2514 409.6108L453.2522 409.6106C453.4666 409.5613 453.6805 409.6952 453.7298 409.9096 453.7791 410.1241 453.6453 410.3379 453.4308 410.3872"/>
</g>
</g>
<g clip-path="url(#clip_25)">
<g clip-path="url(#clip_26)">
<path transform="matrix(1,0,0,-1,-91,455.85813)" d="M459.001 401.7474 459.0001 401.7476C458.7857 401.7969 458.5718 401.6631 458.5225 401.4486 458.4732 401.2342 458.607 401.0203 458.8215 400.971L458.8223 400.9708C459.0368 400.9215 459.2506 401.0554 459.2999 401.2698 459.3493 401.4843 459.2154 401.6981 459.001 401.7474M457.3202 402.134 457.3193 402.1342C457.1049 402.1835 456.891 402.0496 456.8417 401.8352 456.7924 401.6207 456.9263 401.4069 457.1407 401.3576L457.1416 401.3574C457.356 401.3081 457.5698 401.4419 457.6192 401.6564 457.6685 401.8708 457.5346 402.0847 457.3202 402.134M455.6394 402.5205 455.6386 402.5207C455.4241 402.5701 455.2103 402.4362 455.1609 402.2217 455.1116 402.0073 455.2455 401.7935 455.4599 401.7441L455.4608 401.7439C455.6752 401.6946 455.8891 401.8285 455.9384 402.0429 455.9877 402.2574 455.8538 402.4712 455.6394 402.5205M453.9586 402.9071 453.9578 402.9073C453.7433 402.9566 453.5295 402.8228 453.4802 402.6083 453.4308 402.3939 453.5647 402.18 453.7792 402.1307L453.78 402.1305C453.9945 402.0812 454.2083 402.215 454.2576 402.4295 454.3069 402.644 454.1731 402.8578 453.9586 402.9071M452.2778 403.2937 452.277 403.2939C452.0625 403.3432 451.8487 403.2093 451.7994 402.9949 451.7501 402.7804 451.8839 402.5666 452.0984 402.5173L452.0992 402.5171C452.3137 402.4678 452.5275 402.6016 452.5768 402.8161 452.6262 403.0305 452.4923 403.2444 452.2778 403.2937M450.5971 403.6802 450.5962 403.6804C450.3818 403.7298 450.1679 403.5959 450.1186 403.3814 450.0693 403.167 450.2032 402.9532 450.4176 402.9038L450.4184 402.9036C450.6329 402.8543 450.8467 402.9882 450.896 403.2026 450.9454 403.4171 450.8115 403.6309 450.5971 403.6802M448.9163 404.0668 448.9154 404.067C448.701 404.1163 448.4872 403.9825 448.4378 403.768 448.3885 403.5536 448.5224 403.3397 448.7368 403.2904L448.7377 403.2902C448.9521 403.2409 449.1659 403.3747 449.2153 403.5892 449.2646 403.8037 449.1307 404.0175 448.9163 404.0668"/>
</g>
</g>
<g clip-path="url(#clip_27)">
<path transform="matrix(1,0,0,-1,-91,455.85813)" d="M95.04787 374.8163C94.90207 374.5638 94.57917 374.4772 94.32664 374.623 94.07412 374.7688 93.9876 375.0917 94.13339 375.3443L138.5611 452.2953C138.7069 452.5478 139.0298 452.6344 139.2823 452.4886 139.5348 452.3428 139.6214 452.0199 139.4756 451.7673ZM138.5611 451.7673C138.4153 452.0199 138.5018 452.3428 138.7543 452.4886 139.0069 452.6344 139.3298 452.5478 139.4756 452.2953L183.9033 375.3443C184.0491 375.0917 183.9626 374.7688 183.71 374.623 183.4575 374.4772 183.1346 374.5638 182.9888 374.8163ZM94.59063 374.5523C94.29904 374.5523 94.06266 374.7887 94.06266 375.0803 94.06266 375.3719 94.29904 375.6082 94.59063 375.6082H183.446C183.7376 375.6082 183.974 375.3719 183.974 375.0803 183.974 374.7887 183.7376 374.5523 183.446 374.5523Z"/>
</g>
<g clip-path="url(#clip_28)">
<path transform="matrix(1,0,0,-1,-91,455.85813)" d="M139.1092 401.2507C139.3964 401.2005 139.5886 400.927 139.5384 400.6398 139.4882 400.3525 139.2147 400.1603 138.9275 400.2105L112.0229 404.9112C111.7357 404.9613 111.5435 405.2349 111.5937 405.5221 111.6439 405.8094 111.9174 406.0015 112.2046 405.9513ZM115.4004 412.1517C114.6249 412.9272 114.6249 414.1845 115.4004 414.9599 116.1758 415.7354 117.4331 415.7354 118.2086 414.9599 118.9841 414.1845 118.9841 412.9272 118.2086 412.1517 117.4331 411.3762 116.1758 411.3762 115.4004 412.1517M157.2289 421.0984C157.5193 421.072 157.7333 420.8151 157.7068 420.5247 157.6804 420.2344 157.4235 420.0204 157.1331 420.0468L122.6224 423.1898C122.332 423.2163 122.118 423.4731 122.1444 423.7635 122.1709 424.0539 122.4277 424.2678 122.7181 424.2414Z" fill="#19b091"/>
<path transform="matrix(1,0,0,-1,-91,455.85813)" d="M137.6142 450.6272C136.8387 451.4027 136.8387 452.66 137.6142 453.4355 138.3897 454.2109 139.647 454.2109 140.4225 453.4355 141.1979 452.66 141.1979 451.4027 140.4225 450.6272 139.647 449.8517 138.3897 449.8517 137.6142 450.6272" fill="#648fff"/>
<path transform="matrix(1,0,0,-1,-91,455.85813)" d="M182.0419 373.6761C181.2664 374.4516 181.2664 375.7089 182.0419 376.4844 182.8174 377.2599 184.0747 377.2599 184.8502 376.4844 185.6257 375.7089 185.6257 374.4516 184.8502 373.6761 184.0747 372.9007 182.8174 372.9007 182.0419 373.6761" fill="#648fff"/>
<path transform="matrix(1,0,0,-1,-91,455.85813)" d="M93.1865 373.6761C92.41102 374.4516 92.41102 375.7089 93.1865 376.4844 93.96198 377.2599 95.21928 377.2599 95.99476 376.4844 96.77024 375.7089 96.77024 374.4516 95.99476 373.6761 95.21928 372.9007 93.96198 372.9007 93.1865 373.6761" fill="#648fff"/>
</g>
<g clip-path="url(#clip_29)">
<path transform="matrix(1,0,0,-1,-91,455.85813)" d="M139.5463 375.0803C139.5463 374.7887 139.3099 374.5523 139.0183 374.5523 138.7267 374.5523 138.4904 374.7887 138.4904 375.0803V400.7306C138.4904 401.0222 138.7267 401.2586 139.0183 401.2586 139.3099 401.2586 139.5463 401.0222 139.5463 400.7306ZM137.6142 373.6761C136.8387 374.4516 136.8387 375.7089 137.6142 376.4844 138.3897 377.2599 139.647 377.2599 140.4225 376.4844 141.1979 375.7089 141.1979 374.4516 140.4225 373.6761 139.647 372.9007 138.3897 372.9007 137.6142 373.6761" fill="#ffb000"/>
</g>
<g clip-path="url(#clip_30)">
<path transform="matrix(1,0,0,-1,-91,455.85813)" d="M139.1988 401.2268C139.4729 401.1271 139.6142 400.8242 139.5145 400.5501 139.4148 400.2761 139.1119 400.1348 138.8378 400.2345L114.3603 409.1389C114.0863 409.2386 113.945 409.5415 114.0447 409.8155 114.1444 410.0896 114.4473 410.2309 114.7213 410.1312ZM159.8281 412.1517C159.0526 412.9272 159.0526 414.1845 159.8281 414.9599 160.6035 415.7354 161.8608 415.7354 162.6363 414.9599 163.4118 414.1845 163.4118 412.9272 162.6363 412.1517 161.8608 411.3762 160.6035 411.3762 159.8281 412.1517M159.8281 412.1517C159.0526 412.9272 159.0526 414.1845 159.8281 414.9599 160.6035 415.7354 161.8608 415.7354 162.6363 414.9599 163.4118 414.1845 163.4118 412.9272 162.6363 412.1517 161.8608 411.3762 160.6035 411.3762 159.8281 412.1517" fill="#dc267f"/>
</g>
<g clip-path="url(#clip_31)">
<path transform="matrix(1,0,0,-1,-91,455.85813)" d="M137.6142 399.3265C136.8387 400.102 136.8387 401.3593 137.6142 402.1348 138.3897 402.9102 139.647 402.9102 140.4225 402.1348 141.1979 401.3593 141.1979 400.102 140.4225 399.3265 139.647 398.551 138.3897 398.551 137.6142 399.3265M137.6142 399.3265C136.8387 400.102 136.8387 401.3593 137.6142 402.1348 138.3897 402.9102 139.647 402.9102 140.4225 402.1348 141.1979 401.3593 141.1979 400.102 140.4225 399.3265 139.647 398.551 138.3897 398.551 137.6142 399.3265"/>
<path transform="matrix(1,0,0,-1,-91,455.85813)" d="M165.0885 407.5228C165.3775 407.4835 165.5798 407.2174 165.5405 406.9285 165.5013 406.6396 165.2352 406.4372 164.9462 406.4765L116.7333 413.0326C116.4444 413.0719 116.242 413.338 116.2813 413.6269 116.3206 413.9159 116.5867 414.1182 116.8756 414.079Z" fill="#19b091"/>
</g>
<g clip-path="url(#clip_32)">
<path transform="matrix(1,0,0,-1,-91,455.85813)" d="M161.286 414.081C161.5761 414.0513 161.7872 413.792 161.7574 413.5019 161.7277 413.2119 161.4684 413.0008 161.1783 413.0306L119.234 417.3318C118.9439 417.3616 118.7328 417.6208 118.7626 417.9109 118.7923 418.201 119.0516 418.412 119.3417 418.3823Z" fill="#dc267f"/>
</g>
<g clip-path="url(#clip_33)">
<path transform="matrix(1,0,0,-1,-91,455.85813)" d="M116.4594 413.3566C116.3494 413.5472 116.4147 413.7908 116.6053 413.9009 116.7958 414.0109 117.0395 413.9456 117.1495 413.755L139.3634 375.2795C139.4734 375.0889 139.4081 374.8452 139.2176 374.7352 139.027 374.6252 138.7833 374.6905 138.6733 374.8811ZM139.3634 374.8811C139.2534 374.6905 139.0097 374.6252 138.8191 374.7352 138.6285 374.8452 138.5633 375.0889 138.6733 375.2795L160.8871 413.755C160.9972 413.9456 161.2408 414.0109 161.4314 413.9009 161.622 413.7908 161.6873 413.5472 161.5772 413.3566ZM161.2322 413.9542C161.4522 413.9542 161.6306 413.7759 161.6306 413.5558 161.6306 413.3357 161.4522 413.1574 161.2322 413.1574H116.8045C116.5844 413.1574 116.406 413.3357 116.406 413.5558 116.406 413.7759 116.5844 413.9542 116.8045 413.9542ZM199.4632 413.1574C199.2432 413.1574 199.0648 413.3357 199.0648 413.5558 199.0648 413.7759 199.2432 413.9542 199.4632 413.9542H247.9707C248.1908 413.9542 248.3692 413.7759 248.3692 413.5558 248.3692 413.3357 248.1908 413.1574 247.9707 413.1574ZM247.9707 417.1147 256.1562 413.5558 247.9707 409.9969Z"/>
</g>
<g clip-path="url(#clip_34)">
<g clip-path="url(#clip_35)">
<path transform="matrix(1,0,0,-1,-91,455.85813)" d="M355.6524 392.6219 355.6516 392.622C355.4331 392.6475 355.2352 392.4909 355.2098 392.2724 355.1843 392.0538 355.3409 391.856 355.5594 391.8305L355.5602 391.8304C355.7788 391.8049 355.9766 391.9615 356.0021 392.1801 356.0275 392.3986 355.871 392.5965 355.6524 392.6219M354.0559 392.8079 354.0551 392.808C353.8365 392.8335 353.6387 392.6769 353.6133 392.4583 353.5878 392.2398 353.7443 392.0419 353.9629 392.0165L353.9637 392.0164C354.1823 391.9909 354.3801 392.1475 354.4056 392.366 354.431 392.5846 354.2745 392.7824 354.0559 392.8079M352.4594 392.9939 352.4586 392.994C352.24 393.0194 352.0422 392.8629 352.0167 392.6443 351.9913 392.4257 352.1478 392.2279 352.3664 392.2025L352.3672 392.2024C352.5858 392.1769 352.7836 392.3334 352.8091 392.552 352.8345 392.7706 352.678 392.9684 352.4594 392.9939M350.8629 393.1799 350.8621 393.18C350.6435 393.2054 350.4457 393.0489 350.4202 392.8303 350.3948 392.6117 350.5513 392.4139 350.7699 392.3884L350.7707 392.3883C350.9893 392.3629 351.1871 392.5194 351.2126 392.738 351.238 392.9566 351.0815 393.1544 350.8629 393.1799M349.2664 393.3659H349.2656C349.047 393.3914 348.8492 393.2349 348.8237 393.0163 348.7983 392.7977 348.9548 392.5999 349.1734 392.5744L349.1742 392.5743C349.3928 392.5489 349.5906 392.7054 349.616 392.924 349.6415 393.1426 349.485 393.3404 349.2664 393.3659M347.6699 393.5518 347.6691 393.5519C347.4505 393.5774 347.2527 393.4208 347.2272 393.2023 347.2018 392.9837 347.3583 392.7859 347.5769 392.7604L347.5777 392.7603C347.7962 392.7349 347.9941 392.8914 348.0195 393.11 348.045 393.3285 347.8885 393.5264 347.6699 393.5518M346.0734 393.7378 346.0726 393.7379C345.854 393.7634 345.6562 393.6068 345.6307 393.3883 345.6052 393.1697 345.7618 392.9719 345.9804 392.9464L345.9812 392.9463C346.1997 392.9208 346.3976 393.0774 346.423 393.296 346.4485 393.5145 346.2919 393.7124 346.0734 393.7378M344.4769 393.9238 344.4761 393.9239C344.2575 393.9494 344.0597 393.7928 344.0342 393.5742 344.0087 393.3557 344.1653 393.1578 344.3839 393.1324L344.3847 393.1323C344.6032 393.1068 344.8011 393.2634 344.8265 393.4819 344.852 393.7005 344.6954 393.8983 344.4769 393.9238M342.8803 394.1098 342.8796 394.1099C342.661 394.1353 342.4631 393.9788 342.4377 393.7602 342.4122 393.5417 342.5688 393.3438 342.7873 393.3184L342.7881 393.3183C343.0067 393.2928 343.2045 393.4493 343.23 393.6679 343.2555 393.8865 343.0989 394.0843 342.8803 394.1098M341.2838 394.2958 341.283 394.2959C341.0645 394.3213 340.8666 394.1648 340.8412 393.9462 340.8157 393.7276 340.9723 393.5298 341.1908 393.5043L341.1916 393.5042C341.4102 393.4788 341.608 393.6353 341.6335 393.8539 341.659 394.0725 341.5024 394.2703 341.2838 394.2958M339.6873 394.4818H339.6865C339.468 394.5073 339.2701 394.3508 339.2447 394.1322 339.2192 393.9136 339.3758 393.7158 339.5943 393.6903L339.5951 393.6902C339.8137 393.6648 340.0115 393.8213 340.037 394.0399 340.0624 394.2585 339.9059 394.4563 339.6873 394.4818M338.0908 394.6677 338.09 394.6678C337.8714 394.6933 337.6736 394.5367 337.6482 394.3182 337.6227 394.0996 337.7792 393.9018 337.9978 393.8763L337.9986 393.8762C338.2172 393.8508 338.415 394.0073 338.4405 394.2259 338.4659 394.4444 338.3094 394.6423 338.0908 394.6677M336.4943 394.8537 336.4935 394.8538C336.2749 394.8793 336.0771 394.7227 336.0516 394.5042 336.0262 394.2856 336.1827 394.0878 336.4013 394.0623L336.4021 394.0622C336.6207 394.0367 336.8185 394.1933 336.844 394.4119 336.8694 394.6304 336.7129 394.8283 336.4943 394.8537M334.8978 395.0397 334.897 395.0398C334.6784 395.0653 334.4806 394.9087 334.4551 394.6901 334.4297 394.4716 334.5862 394.2737 334.8048 394.2483L334.8056 394.2482C335.0242 394.2227 335.222 394.3793 335.2475 394.5978 335.2729 394.8164 335.1164 395.0142 334.8978 395.0397M333.3013 395.2257 333.3005 395.2258C333.0819 395.2512 332.8841 395.0947 332.8586 394.8761 332.8332 394.6576 332.9897 394.4597 333.2083 394.4343L333.2091 394.4342C333.4277 394.4087 333.6255 394.5653 333.6509 394.7838 333.6764 395.0024 333.5199 395.2002 333.3013 395.2257M331.7048 395.4117 331.704 395.4118C331.4854 395.4372 331.2876 395.2807 331.2621 395.0621 331.2367 394.8435 331.3932 394.6457 331.6118 394.6202H331.6126C331.8311 394.5947 332.029 394.7512 332.0544 394.9698 332.0799 395.1884 331.9234 395.3862 331.7048 395.4117M330.1083 395.5977 330.1075 395.5978C329.8889 395.6232 329.6911 395.4667 329.6656 395.2481 329.6401 395.0295 329.7967 394.8317 330.0153 394.8062L330.0161 394.8061C330.2346 394.7807 330.4325 394.9372 330.4579 395.1558 330.4834 395.3744 330.3268 395.5722 330.1083 395.5977M328.5118 395.7836 328.511 395.7837C328.2924 395.8092 328.0946 395.6526 328.0691 395.4341 328.0436 395.2155 328.2002 395.0177 328.4188 394.9922L328.4196 394.9921C328.6381 394.9667 328.836 395.1232 328.8614 395.3418 328.8869 395.5603 328.7303 395.7582 328.5118 395.7836M326.9152 395.9696 326.9144 395.9697C326.6959 395.9952 326.498 395.8386 326.4726 395.6201 326.4471 395.4015 326.6037 395.2037 326.8222 395.1782L326.823 395.1781C327.0416 395.1526 327.2394 395.3092 327.2649 395.5278 327.2904 395.7463 327.1338 395.9442 326.9152 395.9696M325.3187 396.1556 325.3179 396.1557C325.0994 396.1812 324.9015 396.0246 324.8761 395.806 324.8506 395.5875 325.0072 395.3896 325.2257 395.3642L325.2265 395.3641C325.4451 395.3386 325.6429 395.4952 325.6684 395.7137 325.6939 395.9323 325.5373 396.1301 325.3187 396.1556M323.7222 396.3416 323.7214 396.3417C323.5029 396.3671 323.305 396.2106 323.2796 395.992 323.2541 395.7735 323.4106 395.5756 323.6292 395.5502L323.63 395.5501C323.8486 395.5246 324.0464 395.6812 324.0719 395.8997 324.0973 396.1183 323.9408 396.3161 323.7222 396.3416M322.1257 396.5276 322.1249 396.5277C321.9063 396.5531 321.7085 396.3966 321.6831 396.178 321.6576 395.9594 321.8141 395.7616 322.0327 395.7361H322.0335C322.2521 395.7106 322.4499 395.8671 322.4754 396.0857 322.5008 396.3043 322.3443 396.5021 322.1257 396.5276M320.5292 396.7136 320.5284 396.7137C320.3098 396.7391 320.112 396.5826 320.0865 396.364 320.0611 396.1454 320.2176 395.9476 320.4362 395.9221L320.437 395.922C320.6556 395.8966 320.8534 396.0531 320.8789 396.2717 320.9043 396.4903 320.7478 396.6881 320.5292 396.7136M318.9327 396.8995 318.9319 396.8996C318.7133 396.9251 318.5155 396.7686 318.49 396.55 318.4646 396.3314 318.6211 396.1336 318.8397 396.1081L318.8405 396.108C319.0591 396.0826 319.2569 396.2391 319.2824 396.4577 319.3078 396.6763 319.1513 396.8741 318.9327 396.8995M317.3362 397.0855 317.3354 397.0856C317.1168 397.1111 316.919 396.9545 316.8935 396.736 316.8681 396.5174 317.0246 396.3196 317.2432 396.2941L317.244 396.294C317.4626 396.2685 317.6604 396.4251 317.6858 396.6437 317.7113 396.8622 317.5548 397.0601 317.3362 397.0855M315.7397 397.2715 315.7389 397.2716C315.5203 397.2971 315.3225 397.1405 315.297 396.9219 315.2716 396.7034 315.4281 396.5055 315.6467 396.4801L315.6475 396.48C315.866 396.4545 316.0639 396.6111 316.0893 396.8296 316.1148 397.0482 315.9582 397.246 315.7397 397.2715M314.1432 397.4575 314.1424 397.4576C313.9238 397.4831 313.726 397.3265 313.7005 397.1079 313.675 396.8894 313.8316 396.6915 314.0502 396.6661L314.051 396.666C314.2695 396.6405 314.4674 396.7971 314.4928 397.0156 314.5183 397.2342 314.3617 397.432 314.1432 397.4575M312.5467 397.6435 312.5459 397.6436C312.3273 397.669 312.1295 397.5125 312.104 397.2939 312.0785 397.0753 312.2351 396.8775 312.4537 396.852H312.4544C312.673 396.8265 312.8709 396.983 312.8963 397.2016 312.9218 397.4202 312.7652 397.618 312.5467 397.6435M310.9501 397.8295 310.9493 397.8296C310.7308 397.855 310.5329 397.6985 310.5075 397.4799 310.482 397.2613 310.6386 397.0635 310.8571 397.038L310.8579 397.0379C311.0765 397.0125 311.2743 397.169 311.2998 397.3876 311.3253 397.6062 311.1687 397.804 310.9501 397.8295M309.3536 398.0154 309.3528 398.0155C309.1343 398.041 308.9364 397.8845 308.911 397.6659 308.8855 397.4473 309.0421 397.2495 309.2606 397.224L309.2614 397.2239C309.48 397.1985 309.6778 397.355 309.7033 397.5736 309.7288 397.7922 309.5722 397.99 309.3536 398.0154M307.7571 398.2014 307.7563 398.2015C307.5378 398.227 307.3399 398.0704 307.3145 397.8519 307.289 397.6333 307.4455 397.4355 307.6641 397.41L307.6649 397.4099C307.8835 397.3844 308.0813 397.541 308.1068 397.7596 308.1322 397.9781 307.9757 398.176 307.7571 398.2014M306.1606 398.3874 306.1598 398.3875C305.9412 398.413 305.7434 398.2564 305.718 398.0378 305.6925 397.8193 305.849 397.6214 306.0676 397.596L306.0684 397.5959C306.287 397.5704 306.4848 397.727 306.5103 397.9455 306.5357 398.1641 306.3792 398.362 306.1606 398.3874M304.5641 398.5734 304.5633 398.5735C304.3447 398.599 304.1469 398.4424 304.1214 398.2238 304.096 398.0053 304.2525 397.8074 304.4711 397.782L304.4719 397.7819C304.6905 397.7564 304.8883 397.913 304.9138 398.1315 304.9392 398.3501 304.7827 398.5479 304.5641 398.5734M302.9676 398.7594 302.9668 398.7595C302.7482 398.7849 302.5504 398.6284 302.5249 398.4098 302.4995 398.1912 302.656 397.9934 302.8746 397.968L302.8754 397.9679C303.094 397.9424 303.2918 398.0989 303.3173 398.3175 303.3427 398.5361 303.1862 398.7339 302.9676 398.7594M301.3711 398.9454 301.3703 398.9455C301.1517 398.9709 300.9539 398.8144 300.9284 398.5958 300.903 398.3772 301.0595 398.1794 301.2781 398.1539L301.2789 398.1538C301.4975 398.1284 301.6953 398.2849 301.7207 398.5035 301.7462 398.7221 301.5897 398.9199 301.3711 398.9454M299.7746 399.1313 299.7738 399.1314C299.5552 399.1569 299.3574 399.0004 299.3319 398.7818 299.3065 398.5632 299.463 398.3654 299.6816 398.3399L299.6824 398.3398C299.9009 398.3144 300.0988 398.4709 300.1242 398.6895 300.1497 398.9081 299.9931 399.1059 299.7746 399.1313M298.1781 399.3173 298.1773 399.3174C297.9587 399.3429 297.7609 399.1863 297.7354 398.9678 297.7099 398.7492 297.8665 398.5514 298.0851 398.5259L298.0859 398.5258C298.3044 398.5003 298.5023 398.6569 298.5277 398.8755 298.5532 399.094 298.3966 399.2919 298.1781 399.3173" fill="#dc267f"/>
</g>
</g>
<g clip-path="url(#clip_36)">
<g clip-path="url(#clip_37)">
<path transform="matrix(1,0,0,-1,-91,455.85813)" d="M351.574 400.7362 351.5732 400.7363C351.3536 400.7495 351.1648 400.5821 351.1516 400.3624 351.1384 400.1428 351.3058 399.954 351.5255 399.9408H351.5263C351.7459 399.9276 351.9347 400.095 351.9479 400.3146 351.9611 400.5343 351.7937 400.723 351.574 400.7362M349.9611 400.8331H349.9603C349.7407 400.8463 349.5519 400.679 349.5387 400.4593 349.5255 400.2396 349.6929 400.0509 349.9126 400.0377L349.9134 400.0376C350.133 400.0245 350.3218 400.1918 350.335 400.4115 350.3482 400.6311 350.1808 400.8199 349.9611 400.8331M348.3482 400.9299 348.3474 400.93C348.1278 400.9432 347.939 400.7758 347.9258 400.5561 347.9126 400.3365 348.08 400.1477 348.2997 400.1345H348.3005C348.5201 400.1213 348.7089 400.2887 348.7221 400.5083 348.7353 400.728 348.5679 400.9167 348.3482 400.9299M346.7354 401.0268H346.7345C346.5149 401.04 346.3261 400.8726 346.3129 400.653 346.2998 400.4333 346.4671 400.2446 346.6868 400.2314L346.6876 400.2313C346.9072 400.2181 347.096 400.3855 347.1092 400.6052 347.1224 400.8248 346.955 401.0136 346.7354 401.0268M345.1225 401.1236 345.1217 401.1237C344.902 401.1369 344.7132 400.9695 344.7001 400.7498 344.6869 400.5302 344.8542 400.3414 345.0739 400.3282H345.0747C345.2944 400.315 345.4831 400.4824 345.4963 400.702 345.5095 400.9217 345.3421 401.1104 345.1225 401.1236M343.5096 401.2205H343.5088C343.2891 401.2337 343.1004 401.0663 343.0872 400.8467 343.074 400.627 343.2414 400.4383 343.461 400.4251L343.4618 400.425C343.6815 400.4118 343.8702 400.5792 343.8834 400.7989 343.8966 401.0185 343.7292 401.2073 343.5096 401.2205M341.8967 401.3173 341.8959 401.3174C341.6762 401.3306 341.4875 401.1632 341.4743 400.9435 341.4611 400.7239 341.6285 400.5351 341.8481 400.5219H341.8489C342.0686 400.5087 342.2573 400.6761 342.2705 400.8957 342.2837 401.1154 342.1163 401.3041 341.8967 401.3173M340.2838 401.4142H340.283C340.0633 401.4274 339.8746 401.26 339.8614 401.0404 339.8482 400.8207 340.0156 400.632 340.2352 400.6188L340.236 400.6187C340.4557 400.6055 340.6444 400.7729 340.6576 400.9926 340.6708 401.2122 340.5035 401.401 340.2838 401.4142M338.6709 401.511 338.6701 401.5111C338.4504 401.5243 338.2617 401.3569 338.2485 401.1372 338.2353 400.9176 338.4027 400.7288 338.6223 400.7156H338.6231C338.8428 400.7024 339.0316 400.8698 339.0447 401.0894 339.0579 401.3091 338.8906 401.4978 338.6709 401.511M337.058 401.6079H337.0572C336.8376 401.6211 336.6488 401.4537 336.6356 401.2341 336.6224 401.0144 336.7898 400.8257 337.0094 400.8125L337.0103 400.8124C337.2299 400.7992 337.4187 400.9666 337.4319 401.1863 337.445 401.4059 337.2777 401.5947 337.058 401.6079M335.4451 401.7047 335.4443 401.7048C335.2247 401.7179 335.0359 401.5506 335.0227 401.3309 335.0095 401.1113 335.1769 400.9225 335.3966 400.9093H335.3974C335.617 400.8961 335.8058 401.0635 335.819 401.2831 335.8322 401.5028 335.6648 401.6915 335.4451 401.7047M333.8322 401.8016H333.8314C333.6118 401.8148 333.423 401.6474 333.4098 401.4278 333.3966 401.2081 333.564 401.0194 333.7837 401.0062L333.7845 401.0061C334.0041 400.9929 334.1929 401.1603 334.2061 401.38 334.2193 401.5996 334.0519 401.7884 333.8322 401.8016M332.2193 401.8984 332.2185 401.8985C331.9989 401.9116 331.8101 401.7443 331.7969 401.5246 331.7837 401.305 331.9511 401.1162 332.1708 401.103H332.1716C332.3912 401.0898 332.58 401.2571 332.5932 401.4768 332.6064 401.6965 332.439 401.8852 332.2193 401.8984M330.6065 401.9953H330.6056C330.386 402.0085 330.1972 401.8411 330.184 401.6215 330.1709 401.4018 330.3382 401.213 330.5579 401.1999L330.5587 401.1998C330.7783 401.1866 330.9671 401.354 330.9803 401.5737 330.9935 401.7933 330.8261 401.9821 330.6065 401.9953M328.9936 402.0921H328.9928C328.7731 402.1053 328.5843 401.938 328.5712 401.7183 328.558 401.4987 328.7253 401.3099 328.945 401.2967H328.9458C329.1655 401.2835 329.3542 401.4508 329.3674 401.6705 329.3806 401.8902 329.2132 402.0789 328.9936 402.0921M327.3807 402.1889 327.3799 402.189C327.1602 402.2022 326.9715 402.0348 326.9583 401.8152 326.9451 401.5955 327.1124 401.4067 327.3321 401.3936L327.3329 401.3935C327.5526 401.3803 327.7413 401.5477 327.7545 401.7673 327.7677 401.987 327.6003 402.1758 327.3807 402.1889M325.7678 402.2858H325.767C325.5473 402.299 325.3586 402.1317 325.3454 401.912 325.3322 401.6923 325.4996 401.5036 325.7192 401.4904H325.72C325.9397 401.4772 326.1284 401.6445 326.1416 401.8642 326.1548 402.0838 325.9874 402.2726 325.7678 402.2858M324.1549 402.3826 324.1541 402.3827C323.9344 402.3959 323.7457 402.2285 323.7325 402.0089 323.7193 401.7892 323.8867 401.6004 324.1063 401.5872H324.1071C324.3268 401.574 324.5155 401.7414 324.5287 401.961 324.5419 402.1807 324.3745 402.3695 324.1549 402.3826M322.542 402.4795H322.5412C322.3215 402.4927 322.1328 402.3254 322.1196 402.1057 322.1064 401.886 322.2738 401.6973 322.4934 401.6841L322.4942 401.684C322.7139 401.6709 322.9027 401.8382 322.9158 402.0579 322.929 402.2775 322.7617 402.4663 322.542 402.4795M320.9291 402.5763 320.9283 402.5764C320.7087 402.5896 320.5199 402.4222 320.5067 402.2025 320.4935 401.9829 320.6609 401.7941 320.8805 401.7809H320.8814C321.101 401.7677 321.2898 401.9351 321.303 402.1547 321.3161 402.3744 321.1488 402.5631 320.9291 402.5763M319.3162 402.6732H319.3154C319.0958 402.6864 318.907 402.519 318.8938 402.2994 318.8806 402.0797 319.048 401.891 319.2677 401.8778L319.2685 401.8777C319.4881 401.8646 319.6769 402.0319 319.6901 402.2516 319.7033 402.4712 319.5359 402.66 319.3162 402.6732M317.7033 402.77 317.7025 402.7701C317.4829 402.7833 317.2941 402.6159 317.2809 402.3962 317.2677 402.1766 317.4351 401.9878 317.6548 401.9746H317.6556C317.8752 401.9614 318.064 402.1288 318.0772 402.3484 318.0904 402.5681 317.923 402.7568 317.7033 402.77M316.0904 402.8669H316.0896C315.87 402.8801 315.6812 402.7127 315.668 402.4931 315.6548 402.2734 315.8222 402.0847 316.0419 402.0715L316.0427 402.0714C316.2623 402.0582 316.4511 402.2256 316.4643 402.4453 316.4775 402.6649 316.3101 402.8537 316.0904 402.8669M314.4776 402.9637 314.4767 402.9638C314.2571 402.977 314.0683 402.8096 314.0551 402.5899 314.042 402.3703 314.2093 402.1815 314.429 402.1683H314.4298C314.6494 402.1551 314.8382 402.3225 314.8514 402.5421 314.8646 402.7618 314.6972 402.9505 314.4776 402.9637M312.8647 403.0606H312.8639C312.6442 403.0738 312.4554 402.9064 312.4423 402.6868 312.4291 402.4671 312.5964 402.2784 312.8161 402.2652L312.8169 402.2651C313.0366 402.2519 313.2253 402.4193 313.2385 402.639 313.2517 402.8586 313.0843 403.0474 312.8647 403.0606M311.2518 403.1574 311.251 403.1575C311.0313 403.1707 310.8426 403.0033 310.8294 402.7836 310.8162 402.564 310.9835 402.3752 311.2032 402.362H311.204C311.4237 402.3488 311.6124 402.5162 311.6256 402.7358 311.6388 402.9555 311.4714 403.1442 311.2518 403.1574M309.6389 403.2543H309.6381C309.4184 403.2675 309.2297 403.1001 309.2165 402.8805 309.2033 402.6608 309.3707 402.4721 309.5903 402.4589L309.5911 402.4588C309.8108 402.4456 309.9995 402.613 310.0127 402.8327 310.0259 403.0523 309.8585 403.2411 309.6389 403.2543M308.026 403.3511 308.0252 403.3512C307.8055 403.3644 307.6168 403.197 307.6036 402.9773 307.5904 402.7577 307.7578 402.5689 307.9774 402.5557H307.9782C308.1979 402.5425 308.3866 402.7099 308.3998 402.9295 308.413 403.1492 308.2456 403.3379 308.026 403.3511M306.4131 403.448H306.4123C306.1926 403.4612 306.0039 403.2938 305.9907 403.0742 305.9775 402.8545 306.1449 402.6658 306.3645 402.6526L306.3653 402.6525C306.585 402.6393 306.7738 402.8067 306.7869 403.0264 306.8001 403.246 306.6328 403.4348 306.4131 403.448" fill="#19b091"/>
</g>
</g>
<g clip-path="url(#clip_38)">
<path transform="matrix(1,0,0,-1,-91,455.85813)" d="M355.9305 392.4577C356.0584 392.2787 356.017 392.0298 355.8379 391.9019 355.6589 391.774 355.41 391.8155 355.2821 391.9946L319.849 441.6009C319.7211 441.78 319.7626 442.0288 319.9416 442.1567 320.1207 442.2846 320.3696 442.2431 320.4975 442.0641ZM355.6063 392.6246C355.8264 392.6246 356.0048 392.4462 356.0048 392.2262 356.0048 392.0061 355.8264 391.8277 355.6063 391.8277H284.7401C284.5201 391.8277 284.3417 392.0061 284.3417 392.2262 284.3417 392.4462 284.5201 392.6246 284.7401 392.6246ZM285.0644 391.9946C284.9365 391.8155 284.6876 391.774 284.5086 391.9019 284.3295 392.0298 284.288 392.2787 284.4159 392.4577L319.849 442.0641C319.9769 442.2431 320.2258 442.2846 320.4048 442.1567 320.5839 442.0288 320.6254 441.78 320.4975 441.6009ZM319.8915 441.5507C319.7359 441.7063 319.7359 441.9586 319.8915 442.1142 320.0471 442.2698 320.2994 442.2698 320.455 442.1142L341.7148 420.8544C341.8704 420.6988 341.8704 420.4465 341.7148 420.2909 341.5592 420.1353 341.307 420.1353 341.1514 420.2909ZM341.0767 420.3944C340.9783 420.5913 341.0581 420.8306 341.2549 420.929 341.4517 421.0274 341.6911 420.9476 341.7895 420.7508L355.9627 392.4043C356.0611 392.2075 355.9813 391.9682 355.7845 391.8698 355.5877 391.7714 355.3484 391.8511 355.25 392.048ZM286.0736 393.0962C286.0736 392.9302 285.939 392.7956 285.773 392.7956 285.607 392.7956 285.4725 392.9302 285.4725 393.0962 285.4725 393.2621 285.607 393.3967 285.773 393.3967 285.939 393.3967 286.0736 393.2621 286.0736 393.0962"/>
</g>
<g clip-path="url(#clip_39)">
<g clip-path="url(#clip_40)">
<path transform="matrix(1,0,0,-1,-91,455.85813)" d="M284.9183 391.8698 286.2844 392.5528 285.9281 393.2656 284.562 392.5825ZM286.9675 392.8944 288.3336 393.5774 287.9772 394.2901 286.6111 393.6071ZM289.0166 393.9189 290.3827 394.602 290.0263 395.3147 288.6602 394.6317ZM291.0658 394.9435 292.4319 395.6265 292.0755 396.3393 290.7094 395.6562ZM293.1149 395.9681 294.481 396.6511 294.1246 397.3639 292.7585 396.6808ZM295.164 396.9926 296.5301 397.6757 296.1738 398.3884 294.8077 397.7054ZM297.2132 398.0172 298.5793 398.7003 298.2229 399.413 296.8568 398.73ZM299.2623 399.0418 300.6284 399.7248 300.2721 400.4376 298.906 399.7545ZM301.3115 400.0664 302.6776 400.7494 302.3212 401.4621 300.9551 400.7791ZM303.3606 401.0909 304.7267 401.774 304.3703 402.4867 303.0042 401.8037ZM305.4098 402.1155 306.7759 402.7985 306.4195 403.5113 305.0534 402.8282ZM307.4589 403.1401 308.825 403.8231 308.4686 404.5359 307.1025 403.8528ZM309.508 404.1646 310.8741 404.8477 310.5178 405.5604 309.1517 404.8774ZM311.5572 405.1892 312.9233 405.8723 312.5669 406.585 311.2008 405.902ZM313.6063 406.2138 314.9724 406.8968 314.6161 407.6096 313.25 406.9265ZM315.6555 407.2384 317.0216 407.9214 316.6652 408.6341 315.2991 407.9511ZM317.7046 408.2629 319.0707 408.946 318.7143 409.6587 317.3482 408.9757ZM319.7538 409.2875 321.1199 409.9705 320.7635 410.6833 319.3974 410.0002ZM321.8029 410.3121 323.169 410.9951 322.8126 411.7079 321.4465 411.0248ZM323.852 411.3366 325.2181 412.0197 324.8618 412.7324 323.4957 412.0494ZM325.9012 412.3612 327.2673 413.0443 326.9109 413.757 325.5448 413.074ZM327.9503 413.3858 329.3164 414.0688 328.96 414.7816 327.594 414.0985ZM329.9995 414.4104 331.3656 415.0934 331.0092 415.8061 329.6431 415.1231ZM332.0486 415.4349 333.4147 416.118 333.0583 416.8307 331.6922 416.1477ZM334.0978 416.4595 335.4638 417.1425 335.1075 417.8553 333.7414 417.1722ZM336.1469 417.4841 337.513 418.1671 337.1566 418.8799 335.7905 418.1968ZM338.196 418.5086 339.5621 419.1917 339.2058 419.9044 337.8397 419.2214ZM340.2452 419.5332 341.6113 420.2163 341.2549 420.929 339.8888 420.246Z"/>
</g>
</g>
<g clip-path="url(#clip_41)">
<path transform="matrix(1,0,0,-1,-91,455.85813)" d="M339.3138 418.4534C338.1434 419.6238 338.1434 421.5215 339.3138 422.6919 340.4843 423.8623 342.3819 423.8623 343.5524 422.6919 344.7228 421.5215 344.7228 419.6238 343.5524 418.4534 342.3819 417.2829 340.4843 417.2829 339.3138 418.4534" fill="#648fff"/>
<path transform="matrix(1,0,0,-1,-91,455.85813)" d="M353.4871 390.1069C352.3166 391.2773 352.3166 393.175 353.4871 394.3454 354.6575 395.5159 356.5552 395.5159 357.7256 394.3454 358.896 393.175 358.896 391.2773 357.7256 390.1069 356.5552 388.9364 354.6575 388.9364 353.4871 390.1069M353.4871 390.1069C352.3166 391.2773 352.3166 393.175 353.4871 394.3454 354.6575 395.5159 356.5552 395.5159 357.7256 394.3454 358.896 393.175 358.896 391.2773 357.7256 390.1069 356.5552 388.9364 354.6575 388.9364 353.4871 390.1069" fill="#dc267f"/>
<path transform="matrix(1,0,0,-1,-91,455.85813)" d="M282.6209 390.1069C281.4504 391.2773 281.4504 393.175 282.6209 394.3454 283.7913 395.5159 285.689 395.5159 286.8594 394.3454 288.0299 393.175 288.0299 391.2773 286.8594 390.1069 285.689 388.9364 283.7913 388.9364 282.6209 390.1069" fill="#19b091"/>
<path transform="matrix(1,0,0,-1,-91,455.85813)" d="M318.054 439.7132C316.8835 440.8837 316.8835 442.7813 318.054 443.9518 319.2244 445.1222 321.1221 445.1222 322.2925 443.9518 323.463 442.7813 323.463 440.8837 322.2925 439.7132 321.1221 438.5428 319.2244 438.5428 318.054 439.7132" fill="#ffb000"/>
<path transform="matrix(1,0,0,-1,-91,455.85813)" d="M318.054 409.4641C316.8835 410.6345 316.8835 412.5322 318.054 413.7026 319.2244 414.8731 321.1221 414.8731 322.2925 413.7026 323.463 412.5322 323.463 410.6345 322.2925 409.4641 321.1221 408.2937 319.2244 408.2937 318.054 409.4641M318.054 409.4641C316.8835 410.6345 316.8835 412.5322 318.054 413.7026 319.2244 414.8731 321.1221 414.8731 322.2925 413.7026 323.463 412.5322 323.463 410.6345 322.2925 409.4641 321.1221 408.2937 319.2244 408.2937 318.054 409.4641"/>
</g>
<g clip-path="url(#clip_42)">
<path transform="matrix(1,0,0,-1,-91,455.85813)" d="M293.7998 404.3847C293.5867 404.3299 293.3695 404.4582 293.3146 404.6713 293.2598 404.8844 293.3881 405.1016 293.6012 405.1565L320.0739 411.9692C320.287 412.0241 320.5043 411.8958 320.5591 411.6827 320.6139 411.4696 320.4856 411.2524 320.2725 411.1975Z" fill="#dc267f"/>
</g>
<g clip-path="url(#clip_43)">
<path transform="matrix(1,0,0,-1,-91,455.85813)" d="M320.131 411.9796C320.3498 412.0029 320.5461 411.8444 320.5694 411.6256 320.5928 411.4068 320.4343 411.2105 320.2155 411.1872L296.828 408.6939C296.6092 408.6705 296.4129 408.829 296.3896 409.0478 296.3663 409.2666 296.5247 409.4629 296.7436 409.4863Z" fill="#19b091"/>
</g>
<g clip-path="url(#clip_44)">
<g clip-path="url(#clip_45)">
<path transform="matrix(1,0,0,-1,-91,455.85813)" d="M296.5737 408.7528 296.5743 408.7524C296.7606 408.6352 297.0066 408.6912 297.1237 408.8775 297.2409 409.0638 297.1849 409.3097 296.9986 409.4269L296.9979 409.4273C296.8117 409.5445 296.5657 409.4885 296.4485 409.3022 296.3314 409.1159 296.3874 408.8699 296.5737 408.7528M297.9454 407.89 297.946 407.8896C298.1323 407.7724 298.3783 407.8285 298.4955 408.0147 298.6126 408.201 298.5566 408.447 298.3703 408.5641L298.3696 408.5646C298.1834 408.6817 297.9374 408.6257 297.8202 408.4394 297.7031 408.2532 297.7591 408.0072 297.9454 407.89M299.3171 407.0273 299.3178 407.0268C299.504 406.9097 299.75 406.9657 299.8672 407.152 299.9843 407.3382 299.9283 407.5842 299.742 407.7014L299.7413 407.7018C299.5551 407.819 299.3091 407.7629 299.1919 407.5767 299.0748 407.3904 299.1308 407.1444 299.3171 407.0273M300.6888 406.1645 300.6895 406.1641C300.8757 406.0469 301.1217 406.1029 301.2389 406.2892 301.356 406.4755 301.3 406.7215 301.1137 406.8386L301.113 406.839C300.9268 406.9562 300.6808 406.9002 300.5636 406.7139 300.4465 406.5276 300.5025 406.2817 300.6888 406.1645M302.0605 405.3017 302.0612 405.3013C302.2474 405.1841 302.4934 405.2402 302.6106 405.4264 302.7277 405.6127 302.6717 405.8587 302.4854 405.9758L302.4847 405.9763C302.2985 406.0934 302.0525 406.0374 301.9353 405.8511 301.8182 405.6649 301.8742 405.4189 302.0605 405.3017M303.4322 404.439 303.4329 404.4385C303.6191 404.3214 303.8651 404.3774 303.9823 404.5637 304.0994 404.75 304.0434 404.9959 303.8571 405.1131L303.8565 405.1135C303.6702 405.2307 303.4242 405.1746 303.307 404.9884 303.1899 404.8021 303.2459 404.5561 303.4322 404.439M304.8039 403.5762 304.8046 403.5758C304.9908 403.4586 305.2368 403.5146 305.354 403.7009 305.4711 403.8872 305.4151 404.1332 305.2288 404.2503L305.2282 404.2508C305.0419 404.3679 304.7959 404.3119 304.6788 404.1256 304.5616 403.9393 304.6176 403.6934 304.8039 403.5762M306.1756 402.7134 306.1763 402.713C306.3625 402.5959 306.6085 402.6519 306.7257 402.8382 306.8428 403.0244 306.7868 403.2704 306.6005 403.3876L306.5999 403.388C306.4136 403.5052 306.1676 403.4491 306.0505 403.2629 305.9333 403.0766 305.9893 402.8306 306.1756 402.7134" fill="#19b091"/>
</g>
</g>
<g clip-path="url(#clip_46)">
<g clip-path="url(#clip_47)">
<path transform="matrix(1,0,0,-1,-91,455.85813)" d="M293.3829 404.53 293.3833 404.5294C293.5162 404.354 293.7661 404.3196 293.9415 404.4524 294.1169 404.5853 294.1514 404.8352 294.0185 405.0106L294.0181 405.0112C293.8852 405.1866 293.6353 405.2211 293.4599 405.0882 293.2845 404.9553 293.25 404.7054 293.3829 404.53M294.2689 403.3604 294.2694 403.3598C294.4022 403.1844 294.6521 403.1499 294.8276 403.2828 295.003 403.4156 295.0374 403.6655 294.9046 403.8409L294.9041 403.8415C294.7712 404.0169 294.5213 404.0514 294.3459 403.9185 294.1705 403.7857 294.136 403.5358 294.2689 403.3604M295.155 402.1907 295.1554 402.1901C295.2883 402.0147 295.5382 401.9802 295.7136 402.1131 295.889 402.246 295.9235 402.4959 295.7906 402.6713L295.7902 402.6719C295.6573 402.8473 295.4074 402.8817 295.232 402.7489 295.0566 402.616 295.0221 402.3661 295.155 402.1907M296.041 401.021 296.0415 401.0204C296.1743 400.845 296.4242 400.8105 296.5997 400.9434 296.7751 401.0763 296.8095 401.3262 296.6767 401.5016L296.6762 401.5022C296.5433 401.6776 296.2934 401.7121 296.118 401.5792 295.9426 401.4463 295.9081 401.1964 296.041 401.021M296.9271 399.8513 296.9275 399.8507C297.0604 399.6753 297.3103 399.6409 297.4857 399.7737 297.6611 399.9066 297.6956 400.1565 297.5627 400.3319L297.5623 400.3325C297.4294 400.5079 297.1795 400.5424 297.0041 400.4095 296.8287 400.2766 296.7942 400.0267 296.9271 399.8513M297.8131 398.6817 297.8136 398.6811C297.9464 398.5057 298.1963 398.4712 298.3718 398.6041 298.5472 398.7369 298.5816 398.9868 298.4488 399.1623L298.4483 399.1628C298.3154 399.3382 298.0655 399.3727 297.8901 399.2398 297.7147 399.107 297.6802 398.8571 297.8131 398.6817" fill="#dc267f"/>
</g>
</g>
<g clip-path="url(#clip_48)">
<path transform="matrix(1,0,0,-1,-91,455.85813)" d="M284.7781 391.8295C284.559 391.8086 284.3645 391.9692 284.3435 392.1882 284.3226 392.4073 284.4832 392.6018 284.7022 392.6228L351.0369 398.9669C351.2559 398.9879 351.4505 398.8273 351.4714 398.6082 351.4924 398.3892 351.3318 398.1946 351.1127 398.1737ZM351.1654 400.442C351.2225 400.6545 351.4411 400.7804 351.6536 400.7233 351.8661 400.6662 351.992 400.4476 351.9349 400.2351L351.4596 398.4668C351.4025 398.2543 351.1839 398.1284 350.9714 398.1855 350.7589 398.2426 350.6329 398.4612 350.69 398.6737Z" fill="#19b091"/>
<path transform="matrix(1,0,0,-1,-91,455.85813)" d="M293.7998 404.3847C293.5867 404.3299 293.3695 404.4582 293.3146 404.6713 293.2598 404.8844 293.3881 405.1016 293.6012 405.1565L320.0739 411.9692C320.287 412.0241 320.5043 411.8958 320.5591 411.6827 320.6139 411.4696 320.4856 411.2524 320.2725 411.1975Z" fill="#dc267f"/>
<path transform="matrix(1,0,0,-1,-91,455.85813)" d="M397.9572 452.0313C397.9572 452.2514 398.1356 452.4298 398.3557 452.4298 398.5757 452.4298 398.7541 452.2514 398.7541 452.0313V375.0803C398.7541 374.8602 398.5757 374.6818 398.3557 374.6818 398.1356 374.6818 397.9572 374.8602 397.9572 375.0803Z"/>
</g>
</g>
</g>
</g>
</g>
</svg>
