
<svg xmlns="http://www.w3.org/2000/svg" xmlns:xlink="http://www.w3.org/1999/xlink" xmlns:inkscape="http://www.inkscape.org/namespaces/inkscape" version="1.1" width="670.5" height="116.486209" viewBox="0 0 670.5 116.486209">
<defs>
<clipPath id="clip_0">
<path transform="matrix(1,0,0,-1,-32.5,590.93008)" d="M32.5 474.44386H703V590.93008H32.5Z" clip-rule="evenodd"/>
</clipPath>
<clipPath id="clip_1">
<path transform="matrix(1,0,0,-1,-32.5,590.93008)" d="M0 0H792V603.4286H0Z"/>
</clipPath>
<clipPath id="clip_2">
<path transform="matrix(1,0,0,-1,-32.5,590.93008)" d="M0 0H792V603.4286H0Z"/>
</clipPath>
<clipPath id="clip_3">
<path transform="matrix(1,0,0,-1,-32.5,590.93008)" d="M0 0H792V603.4286H0Z"/>
</clipPath>
<clipPath id="clip_4">
<path transform="matrix(1,0,0,-1,-32.5,590.93008)" d="M437.734 589.2553C437.734 589.6893 438.0858 590.041 438.5197 590.041 438.9536 590.041 439.3054 589.6893 439.3054 589.2553V475.8694C439.3054 475.4355 438.9536 475.0837 438.5197 475.0837 438.0858 475.0837 437.734 475.4355 437.734 475.8694Z"/>
</clipPath>
<clipPath id="clip_5">
<path transform="matrix(1,0,0,-1,-32.5,590.93008)" d="M0 0H792V603.4286H0Z"/>
</clipPath>
<clipPath id="clip_6">
<path transform="matrix(1,0,0,-1,-32.5,590.93008)" d="M296.0016 589.2553C296.0016 589.6893 296.3534 590.041 296.7873 590.041 297.2213 590.041 297.5731 589.6893 297.5731 589.2553V475.8694C297.5731 475.4355 297.2213 475.0837 296.7873 475.0837 296.3534 475.0837 296.0016 475.4355 296.0016 475.8694Z"/>
</clipPath>
<clipPath id="clip_7">
<path transform="matrix(1,0,0,-1,-32.5,590.93008)" d="M0 0H792V603.4286H0Z"/>
</clipPath>
<clipPath id="clip_8">
<path transform="matrix(1,0,0,-1,-32.5,590.93008)" d="M154.2693 589.3262C154.2693 589.7602 154.621 590.1119 155.055 590.1119 155.4889 590.1119 155.8407 589.7602 155.8407 589.3262V475.9403C155.8407 475.5064 155.4889 475.1546 155.055 475.1546 154.621 475.1546 154.2693 475.5064 154.2693 475.9403Z"/>
</clipPath>
<clipPath id="clip_9">
<path transform="matrix(1,0,0,-1,-32.5,590.93008)" d="M0 0H792V603.4286H0Z"/>
</clipPath>
<clipPath id="clip_10">
<path transform="matrix(1,0,0,-1,-32.5,590.93008)" d="M0 0H792V603.4286H0Z"/>
</clipPath>
</defs>
<g clip-path="url(#clip_0)">
<g clip-path="url(#clip_1)">
<g clip-path="url(#clip_2)">
<text xml:space="preserve" transform="matrix(.8353109 0 -0 .8353109 -11.875 -12.498535)" font-size="12" font-family="HelveticaNeue"><tspan y="15.63162" x="0"> </tspan></text>
<g clip-path="url(#clip_3)">
<path transform="matrix(1,0,0,-1,-32.5,590.93008)" d="M59.42001 575.1894C59.20304 575.1894 59.02716 575.3653 59.02716 575.5823 59.02716 575.7992 59.20304 575.9751 59.42001 575.9751H109.0951C109.312 575.9751 109.4879 575.7992 109.4879 575.5823 109.4879 575.3653 109.312 575.1894 109.0951 575.1894ZM108.7549 575.3858C108.6464 575.5737 108.7107 575.814 108.8986 575.9225 109.0865 576.031 109.3268 575.9666 109.4353 575.7787L134.2728 532.7588C134.3813 532.5709 134.3169 532.3307 134.129 532.2222 133.9411 532.1137 133.7009 532.1781 133.5924 532.366ZM133.5924 532.7588C133.7009 532.9467 133.9411 533.0111 134.129 532.9026 134.3169 532.7941 134.3813 532.5539 134.2728 532.366L109.4353 489.3461C109.3268 489.1582 109.0865 489.0938 108.8986 489.2023 108.7107 489.3108 108.6464 489.5511 108.7549 489.739ZM59.42001 489.1497C59.20304 489.1497 59.02716 489.3256 59.02716 489.5425 59.02716 489.7595 59.20304 489.9354 59.42001 489.9354H109.0951C109.312 489.9354 109.4879 489.7595 109.4879 489.5425 109.4879 489.3256 109.312 489.1497 109.0951 489.1497ZM34.24226 532.366C34.13377 532.5539 34.19815 532.7941 34.38605 532.9026 34.57395 533.0111 34.81422 532.9467 34.92271 532.7588L59.76024 489.739C59.86872 489.5511 59.80434 489.3108 59.61644 489.2023 59.42854 489.0938 59.18827 489.1582 59.07979 489.3461ZM201.0149 575.1894C200.7979 575.1894 200.622 575.3653 200.622 575.5823 200.622 575.7992 200.7979 575.9751 201.0149 575.9751H250.69C250.9069 575.9751 251.0828 575.7992 251.0828 575.5823 251.0828 575.3653 250.9069 575.1894 250.69 575.1894ZM250.3497 575.3858C250.2413 575.5737 250.3056 575.814 250.4935 575.9225 250.6814 576.031 250.9217 575.9666 251.0302 575.7787L275.8677 532.7588C275.9762 532.5709 275.9118 532.3307 275.7239 532.2222 275.536 532.1137 275.2958 532.1781 275.1873 532.366ZM275.1873 532.7588C275.2958 532.9467 275.536 533.0111 275.7239 532.9026 275.9118 532.7941 275.9762 532.5539 275.8677 532.366L251.0302 489.3461C250.9217 489.1582 250.6814 489.0938 250.4935 489.2023 250.3056 489.3108 250.2413 489.5511 250.3497 489.739ZM201.0149 489.1497C200.7979 489.1497 200.622 489.3256 200.622 489.5425 200.622 489.7595 200.7979 489.9354 201.0149 489.9354H250.69C250.9069 489.9354 251.0828 489.7595 251.0828 489.5425 251.0828 489.3256 250.9069 489.1497 250.69 489.1497ZM176.5176 532.366C176.4091 532.1781 176.1688 532.1137 175.9809 532.2222 175.793 532.3307 175.7287 532.5709 175.8371 532.7588L200.6747 575.7787C200.7832 575.9666 201.0234 576.031 201.2113 575.9225 201.3992 575.814 201.4636 575.5737 201.3551 575.3858ZM175.8371 532.366C175.7287 532.5539 175.793 532.7941 175.9809 532.9026 176.1688 533.0111 176.4091 532.9467 176.5176 532.7588L201.3551 489.739C201.4636 489.5511 201.3992 489.3108 201.2113 489.2023 201.0234 489.0938 200.7832 489.1582 200.6747 489.3461ZM342.7473 575.1894C342.5303 575.1894 342.3544 575.3653 342.3544 575.5823 342.3544 575.7992 342.5303 575.9751 342.7473 575.9751H392.4223C392.6393 575.9751 392.8152 575.7992 392.8152 575.5823 392.8152 575.3653 392.6393 575.1894 392.4223 575.1894ZM392.0821 575.3858C391.9736 575.5737 392.038 575.814 392.2259 575.9225 392.4138 576.031 392.6541 575.9666 392.7625 575.7787L417.6001 532.7588C417.7086 532.5709 417.6442 532.3307 417.4563 532.2222 417.2684 532.1137 417.0281 532.1781 416.9196 532.366ZM416.9196 532.7588C417.0281 532.9467 417.2684 533.0111 417.4563 532.9026 417.6442 532.7941 417.7086 532.5539 417.6001 532.366L392.7625 489.3461C392.6541 489.1582 392.4138 489.0938 392.2259 489.2023 392.038 489.3108 391.9736 489.5511 392.0821 489.739ZM342.7473 489.1497C342.5303 489.1497 342.3544 489.3256 342.3544 489.5425 342.3544 489.7595 342.5303 489.9354 342.7473 489.9354H392.4223C392.6393 489.9354 392.8152 489.7595 392.8152 489.5425 392.8152 489.3256 392.6393 489.1497 392.4223 489.1497ZM318.25 532.366C318.1415 532.1781 317.9012 532.1137 317.7133 532.2222 317.5254 532.3307 317.461 532.5709 317.5695 532.7588L342.407 575.7787C342.5155 575.9666 342.7558 576.031 342.9437 575.9225 343.1316 575.814 343.196 575.5737 343.0875 575.3858ZM317.5695 532.366C317.461 532.5539 317.5254 532.7941 317.7133 532.9026 317.9012 533.0111 318.1415 532.9467 318.25 532.7588L343.0875 489.739C343.196 489.5511 343.1316 489.3108 342.9437 489.2023 342.7558 489.0938 342.5155 489.1582 342.407 489.3461ZM484.3421 575.1894C484.1252 575.1894 483.9493 575.3653 483.9493 575.5823 483.9493 575.7992 484.1252 575.9751 484.3421 575.9751H534.0172C534.2342 575.9751 534.4101 575.7992 534.4101 575.5823 534.4101 575.3653 534.2342 575.1894 534.0172 575.1894ZM533.677 575.3858C533.5685 575.5737 533.6329 575.814 533.8208 575.9225 534.0087 576.031 534.2489 575.9666 534.3574 575.7787L559.195 532.7588C559.3034 532.5709 559.2391 532.3307 559.0512 532.2222 558.8633 532.1137 558.623 532.1781 558.5145 532.366ZM558.5145 532.7588C558.623 532.9467 558.8633 533.0111 559.0512 532.9026 559.2391 532.7941 559.3034 532.5539 559.195 532.366L534.3574 489.3461C534.2489 489.1582 534.0087 489.0938 533.8208 489.2023 533.6329 489.3108 533.5685 489.5511 533.677 489.739ZM484.3421 489.1497C484.1252 489.1497 483.9493 489.3256 483.9493 489.5425 483.9493 489.7595 484.1252 489.9354 484.3421 489.9354H534.0172C534.2342 489.9354 534.4101 489.7595 534.4101 489.5425 534.4101 489.3256 534.2342 489.1497 534.0172 489.1497ZM459.8448 532.366C459.7364 532.1781 459.4961 532.1137 459.3082 532.2222 459.1203 532.3307 459.0559 532.5709 459.1644 532.7588L484.0019 575.7787C484.1104 575.9666 484.3507 576.031 484.5386 575.9225 484.7265 575.814 484.7909 575.5737 484.6824 575.3858ZM459.1644 532.366C459.0559 532.5539 459.1203 532.7941 459.3082 532.9026 459.4961 533.0111 459.7364 532.9467 459.8448 532.7588L484.6824 489.739C484.7909 489.5511 484.7265 489.3108 484.5386 489.2023 484.3507 489.0938 484.1104 489.1582 484.0019 489.3461ZM59.42001 575.1894C59.20304 575.1894 59.02716 575.3653 59.02716 575.5823 59.02716 575.7992 59.20304 575.9751 59.42001 575.9751H109.0951C109.312 575.9751 109.4879 575.7992 109.4879 575.5823 109.4879 575.3653 109.312 575.1894 109.0951 575.1894ZM84.6504 572.8139C84.6504 572.5969 84.47451 572.421 84.25754 572.421 84.04058 572.421 83.86469 572.5969 83.86469 572.8139V578.3506C83.86469 578.5676 84.04058 578.7435 84.25754 578.7435 84.47451 578.7435 84.6504 578.5676 84.6504 578.3506ZM108.7549 575.3858C108.6464 575.5737 108.7107 575.814 108.8986 575.9225 109.0865 576.031 109.3268 575.9666 109.4353 575.7787L134.2728 532.7588C134.3813 532.5709 134.3169 532.3307 134.129 532.2222 133.9411 532.1137 133.7009 532.1781 133.5924 532.366ZM119.3128 552.3479C119.1249 552.2394 118.8846 552.3038 118.7761 552.4917 118.6676 552.6796 118.732 552.9199 118.9199 553.0284L123.7149 555.7967C123.9028 555.9052 124.1431 555.8408 124.2516 555.6529 124.36 555.465 124.2957 555.2248 124.1078 555.1163ZM133.5924 532.7588C133.7009 532.9467 133.9411 533.0111 134.129 532.9026 134.3169 532.7941 134.3813 532.5539 134.2728 532.366L109.4353 489.3461C109.3268 489.1582 109.0865 489.0938 108.8986 489.2023 108.7107 489.3108 108.6464 489.5511 108.7549 489.739ZM119.4921 513.0875C119.3042 513.1959 119.2398 513.4362 119.3483 513.6241 119.4568 513.812 119.697 513.8764 119.8849 513.7679L124.6799 510.9995C124.8678 510.891 124.9322 510.6508 124.8237 510.4629 124.7152 510.275 124.475 510.2106 124.2871 510.3191ZM123.5356 509.0175C123.7235 508.909 123.7879 508.6687 123.6794 508.4808 123.5709 508.2929 123.3306 508.2285 123.1427 508.337L118.3477 511.1054C118.1598 511.2139 118.0955 511.4542 118.2039 511.6421 118.3124 511.83 118.5527 511.8943 118.7406 511.7858ZM118.3477 511.1054C118.1598 511.2139 118.0955 511.4542 118.2039 511.6421 118.3124 511.83 118.5527 511.8943 118.7406 511.7858L123.5356 509.0175C123.7235 508.909 123.7879 508.6687 123.6794 508.4808 123.5709 508.2929 123.3306 508.2285 123.1427 508.337ZM109.0951 489.9354C109.312 489.9354 109.4879 489.7595 109.4879 489.5425 109.4879 489.3256 109.312 489.1497 109.0951 489.1497H59.42001C59.20304 489.1497 59.02716 489.3256 59.02716 489.5425 59.02716 489.7595 59.20304 489.9354 59.42001 489.9354ZM85.00903 492.3109C85.00903 492.5279 85.18492 492.7038 85.40189 492.7038 85.61886 492.7038 85.79474 492.5279 85.79474 492.3109V486.7741C85.79474 486.5572 85.61886 486.3813 85.40189 486.3813 85.18492 486.3813 85.00903 486.5572 85.00903 486.7741ZM83.50606 486.7741C83.50606 486.5572 83.33017 486.3813 83.1132 486.3813 82.89623 486.3813 82.72034 486.5572 82.72034 486.7741V492.3109C82.72034 492.5279 82.89623 492.7038 83.1132 492.7038 83.33017 492.7038 83.50606 492.5279 83.50606 492.3109ZM82.72034 492.3109C82.72034 492.5279 82.89623 492.7038 83.1132 492.7038 83.33017 492.7038 83.50606 492.5279 83.50606 492.3109V486.7741C83.50606 486.5572 83.33017 486.3813 83.1132 486.3813 82.89623 486.3813 82.72034 486.5572 82.72034 486.7741ZM43.55406 511.236C43.36667 511.1267 43.1261 511.1899 43.01674 511.3773 42.90737 511.5647 42.97063 511.8053 43.15802 511.9146L47.93999 514.7054C48.12738 514.8148 48.36795 514.7516 48.47731 514.5642 48.58667 514.3768 48.52342 514.1362 48.33603 514.0268ZM49.0936 512.7288C49.28099 512.8381 49.52156 512.7749 49.63092 512.5875 49.74029 512.4001 49.67703 512.1595 49.48964 512.0502L44.70767 509.2593C44.52028 509.15 44.27971 509.2132 44.17035 509.4006 44.06099 509.588 44.12424 509.8286 44.31163 509.9379ZM50.24722 510.7521C50.43461 510.8615 50.67517 510.7982 50.78454 510.6108 50.8939 510.4234 50.83065 510.1829 50.64326 510.0735L45.86128 507.2827C45.67389 507.1733 45.43333 507.2366 45.32396 507.4239 45.2146 507.6113 45.27785 507.8519 45.46524 507.9613ZM45.35044 556.9816C45.16254 557.09 45.09816 557.3303 45.20665 557.5182 45.31513 557.7061 45.5554 557.7705 45.7433 557.662L50.53829 554.8936C50.72619 554.7851 50.79057 554.5449 50.68209 554.357 50.57361 554.1691 50.33334 554.1047 50.14544 554.2132ZM49.39395 552.9115C49.58185 552.8031 49.64623 552.5628 49.53775 552.3749 49.42926 552.187 49.18899 552.1226 49.00109 552.2311L44.2061 554.9995C44.0182 555.108 43.95382 555.3482 44.0623 555.5361 44.17079 555.724 44.41106 555.7884 44.59896 555.6799ZM48.24961 550.9295C48.43751 550.821 48.50189 550.5807 48.3934 550.3928 48.28492 550.2049 48.04465 550.1406 47.85675 550.249L43.06176 553.0174C42.87386 553.1259 42.80948 553.3662 42.91796 553.5541 43.02645 553.742 43.26671 553.8064 43.45462 553.6979ZM59.07979 575.7787C59.18827 575.9666 59.42854 576.031 59.61644 575.9225 59.80434 575.814 59.86872 575.5737 59.76024 575.3858L34.92271 532.366C34.81422 532.1781 34.57395 532.1137 34.38605 532.2222 34.19815 532.3307 34.13377 532.5709 34.24226 532.7588ZM201.0149 575.1894C200.7979 575.1894 200.622 575.3653 200.622 575.5823 200.622 575.7992 200.7979 575.9751 201.0149 575.9751H250.69C250.9069 575.9751 251.0828 575.7992 251.0828 575.5823 251.0828 575.3653 250.9069 575.1894 250.69 575.1894ZM226.2453 572.8139C226.2453 572.5969 226.0694 572.421 225.8524 572.421 225.6355 572.421 225.4596 572.5969 225.4596 572.8139V578.3506C225.4596 578.5676 225.6355 578.7435 225.8524 578.7435 226.0694 578.7435 226.2453 578.5676 226.2453 578.3506ZM201.0149 489.1497C200.7979 489.1497 200.622 489.3256 200.622 489.5425 200.622 489.7595 200.7979 489.9354 201.0149 489.9354H250.69C250.9069 489.9354 251.0828 489.7595 251.0828 489.5425 251.0828 489.3256 250.9069 489.1497 250.69 489.1497ZM226.2453 486.7741C226.2453 486.5572 226.0694 486.3813 225.8524 486.3813 225.6355 486.3813 225.4596 486.5572 225.4596 486.7741V492.3109C225.4596 492.5279 225.6355 492.7038 225.8524 492.7038 226.0694 492.7038 226.2453 492.5279 226.2453 492.3109ZM250.3497 575.3858C250.2413 575.5737 250.3056 575.814 250.4935 575.9225 250.6814 576.031 250.9217 575.9666 251.0302 575.7787L275.8677 532.7588C275.9762 532.5709 275.9118 532.3307 275.7239 532.2222 275.536 532.1137 275.2958 532.1781 275.1873 532.366ZM260.3355 553.3389C260.1476 553.2304 259.9073 553.2948 259.7988 553.4827 259.6904 553.6706 259.7547 553.9109 259.9426 554.0194L264.7376 556.7878C264.9255 556.8963 265.1658 556.8319 265.2743 556.644 265.3828 556.4561 265.3184 556.2158 265.1305 556.1073ZM265.882 554.8057C266.0699 554.9142 266.3101 554.8498 266.4186 554.6619 266.5271 554.474 266.4627 554.2338 266.2748 554.1253L261.4798 551.3569C261.2919 551.2484 261.0517 551.3128 260.9432 551.5007 260.8347 551.6886 260.8991 551.9288 261.087 552.0373ZM261.4798 551.3569C261.2919 551.2484 261.0517 551.3128 260.9432 551.5007 260.8347 551.6886 260.8991 551.9288 261.087 552.0373L265.882 554.8057C266.0699 554.9142 266.3101 554.8498 266.4186 554.6619 266.5271 554.474 266.4627 554.2338 266.2748 554.1253ZM275.1873 532.7588C275.2958 532.9467 275.536 533.0111 275.7239 532.9026 275.9118 532.7941 275.9762 532.5539 275.8677 532.366L251.0302 489.3461C250.9217 489.1582 250.6814 489.0938 250.4935 489.2023 250.3056 489.3108 250.2413 489.5511 250.3497 489.739ZM261.087 513.0875C260.8991 513.1959 260.8347 513.4362 260.9432 513.6241 261.0517 513.812 261.2919 513.8764 261.4798 513.7679L266.2748 510.9995C266.4627 510.891 266.5271 510.6508 266.4186 510.4629 266.3101 510.275 266.0699 510.2106 265.882 510.3191ZM265.1305 509.0175C265.3184 508.909 265.3828 508.6687 265.2743 508.4808 265.1658 508.2929 264.9255 508.2285 264.7376 508.337L259.9426 511.1054C259.7547 511.2139 259.6904 511.4542 259.7988 511.6421 259.9073 511.83 260.1476 511.8943 260.3355 511.7858ZM259.9426 511.1054C259.7547 511.2139 259.6904 511.4542 259.7988 511.6421 259.9073 511.83 260.1476 511.8943 260.3355 511.7858L265.1305 509.0175C265.3184 508.909 265.3828 508.6687 265.2743 508.4808 265.1658 508.2929 264.9255 508.2285 264.7376 508.337ZM185.2507 511.3101C185.0628 511.2016 184.8226 511.266 184.7141 511.4539 184.6056 511.6418 184.67 511.8821 184.8579 511.9905L189.6529 514.7589C189.8408 514.8674 190.081 514.803 190.1895 514.6151 190.298 514.4272 190.2336 514.187 190.0457 514.0785ZM190.7972 512.7769C190.9851 512.8854 191.2254 512.821 191.3339 512.6331 191.4423 512.4452 191.378 512.2049 191.1901 512.0964L186.3951 509.328C186.2072 509.2196 185.9669 509.2839 185.8584 509.4718 185.7499 509.6597 185.8143 509.9 186.0022 510.0085ZM191.9415 510.7948C192.1294 510.9033 192.3697 510.8389 192.4782 510.651 192.5867 510.4631 192.5223 510.2229 192.3344 510.1144L187.5394 507.346C187.3515 507.2375 187.1112 507.3019 187.0028 507.4898 186.8943 507.6777 186.9587 507.9179 187.1466 508.0264ZM175.8371 532.366C175.7287 532.5539 175.793 532.7941 175.9809 532.9026 176.1688 533.0111 176.4091 532.9467 176.5176 532.7588L201.3551 489.739C201.4636 489.5511 201.3992 489.3108 201.2113 489.2023 201.0234 489.0938 200.7832 489.1582 200.6747 489.3461ZM187.0644 557.1603C186.877 557.2696 186.8137 557.5102 186.923 557.6976 187.0323 557.885 187.2729 557.9483 187.4603 557.839L192.2429 555.0493C192.4303 554.9399 192.4936 554.6994 192.3843 554.512 192.275 554.3246 192.0344 554.2613 191.847 554.3706ZM191.0897 553.0723C191.2771 552.963 191.3405 552.7225 191.2311 552.535 191.1218 552.3476 190.8813 552.2843 190.6938 552.3936L185.9112 555.1833C185.7238 555.2927 185.6605 555.5332 185.7698 555.7206 185.8791 555.908 186.1197 555.9714 186.3071 555.862ZM189.9366 551.0954C190.124 550.9861 190.1873 550.7455 190.078 550.5581 189.9687 550.3707 189.7281 550.3074 189.5407 550.4167L184.7581 553.2064C184.5707 553.3157 184.5073 553.5563 184.6167 553.7437 184.726 553.9311 184.9665 553.9944 185.154 553.8851ZM200.6756 575.7802C200.7849 575.9676 201.0254 576.0309 201.2128 575.9216 201.4003 575.8123 201.4636 575.5717 201.3542 575.3843L176.3254 532.4755C176.2161 532.2881 175.9755 532.2247 175.7881 532.3341 175.6007 532.4434 175.5374 532.6839 175.6467 532.8714ZM342.7473 575.1894C342.5303 575.1894 342.3544 575.3653 342.3544 575.5823 342.3544 575.7992 342.5303 575.9751 342.7473 575.9751H392.4223C392.6393 575.9751 392.8152 575.7992 392.8152 575.5823 392.8152 575.3653 392.6393 575.1894 392.4223 575.1894ZM367.9776 572.8139C367.9776 572.5969 367.8018 572.421 367.5848 572.421 367.3678 572.421 367.1919 572.5969 367.1919 572.8139V578.3506C367.1919 578.5676 367.3678 578.7435 367.5848 578.7435 367.8018 578.7435 367.9776 578.5676 367.9776 578.3506ZM392.0821 575.3858C391.9736 575.5737 392.038 575.814 392.2259 575.9225 392.4138 576.031 392.6541 575.9666 392.7625 575.7787L417.6001 532.7588C417.7086 532.5709 417.6442 532.3307 417.4563 532.2222 417.2684 532.1137 417.0281 532.1781 416.9196 532.366ZM402.64 552.3479C402.4521 552.2394 402.2119 552.3038 402.1034 552.4917 401.9949 552.6796 402.0593 552.9199 402.2472 553.0284L407.0422 555.7967C407.2301 555.9052 407.4703 555.8408 407.5788 555.6529 407.6873 555.465 407.6229 555.2248 407.435 555.1163ZM416.9196 532.7588C417.0281 532.9467 417.2684 533.0111 417.4563 532.9026 417.6442 532.7941 417.7086 532.5539 417.6001 532.366L392.7625 489.3461C392.6541 489.1582 392.4138 489.0938 392.2259 489.2023 392.038 489.3108 391.9736 489.5511 392.0821 489.739ZM402.8193 513.0875C402.6314 513.1959 402.5671 513.4362 402.6755 513.6241 402.784 513.812 403.0243 513.8764 403.2122 513.7679L408.0072 510.9995C408.1951 510.891 408.2595 510.6508 408.151 510.4629 408.0425 510.275 407.8022 510.2106 407.6143 510.3191ZM406.8628 509.0175C407.0507 508.909 407.1151 508.6687 407.0066 508.4808 406.8982 508.2929 406.6579 508.2285 406.47 508.337L401.675 511.1054C401.4871 511.2139 401.4227 511.4542 401.5312 511.6421 401.6397 511.83 401.8799 511.8943 402.0678 511.7858ZM401.675 511.1054C401.4871 511.2139 401.4227 511.4542 401.5312 511.6421 401.6397 511.83 401.8799 511.8943 402.0678 511.7858L406.8628 509.0175C407.0507 508.909 407.1151 508.6687 407.0066 508.4808 406.8982 508.2929 406.6579 508.2285 406.47 508.337ZM365.689 486.7741C365.689 486.5572 365.5131 486.3813 365.2961 486.3813 365.0791 486.3813 364.9032 486.5572 364.9032 486.7741V492.3109C364.9032 492.5279 365.0791 492.7038 365.2961 492.7038 365.5131 492.7038 365.689 492.5279 365.689 492.3109ZM367.1919 492.3109C367.1919 492.5279 367.3678 492.7038 367.5848 492.7038 367.8018 492.7038 367.9776 492.5279 367.9776 492.3109V486.7741C367.9776 486.5572 367.8018 486.3813 367.5848 486.3813 367.3678 486.3813 367.1919 486.5572 367.1919 486.7741ZM369.4806 492.3109C369.4806 492.5279 369.6565 492.7038 369.8735 492.7038 370.0904 492.7038 370.2663 492.5279 370.2663 492.3109V486.7741C370.2663 486.5572 370.0904 486.3813 369.8735 486.3813 369.6565 486.3813 369.4806 486.5572 369.4806 486.7741ZM342.7473 489.1497C342.5303 489.1497 342.3544 489.3256 342.3544 489.5425 342.3544 489.7595 342.5303 489.9354 342.7473 489.9354H392.4223C392.6393 489.9354 392.8152 489.7595 392.8152 489.5425 392.8152 489.3256 392.6393 489.1497 392.4223 489.1497ZM317.5695 532.366C317.461 532.5539 317.5254 532.7941 317.7133 532.9026 317.9012 533.0111 318.1415 532.9467 318.25 532.7588L343.0875 489.739C343.196 489.5511 343.1316 489.3108 342.9437 489.2023 342.7558 489.0938 342.5155 489.1582 342.407 489.3461ZM327.5553 510.3191C327.3674 510.2106 327.1271 510.275 327.0186 510.4629 326.9101 510.6508 326.9745 510.891 327.1624 510.9995L331.9574 513.7679C332.1453 513.8764 332.3856 513.812 332.494 513.6241 332.6025 513.4362 332.5381 513.1959 332.3502 513.0875ZM333.1017 511.7858C333.2896 511.8943 333.5299 511.83 333.6384 511.6421 333.7469 511.4542 333.6825 511.2139 333.4946 511.1054L328.6996 508.337C328.5117 508.2285 328.2714 508.2929 328.1629 508.4808 328.0545 508.6687 328.1188 508.909 328.3067 509.0175ZM328.6996 508.337C328.5117 508.2285 328.2714 508.2929 328.1629 508.4808 328.0545 508.6687 328.1188 508.909 328.3067 509.0175L333.1017 511.7858C333.2896 511.8943 333.5299 511.83 333.6384 511.6421 333.7469 511.4542 333.6825 511.2139 333.4946 511.1054ZM328.8263 557.1379C328.6388 557.2469 328.5751 557.4874 328.6841 557.675 328.7931 557.8626 329.0335 557.9263 329.2211 557.8172L334.0082 555.0352C334.1958 554.9262 334.2595 554.6857 334.1505 554.4981 334.0415 554.3106 333.801 554.2469 333.6134 554.3559ZM332.8583 553.0564C333.0458 552.9474 333.1095 552.7069 333.0005 552.5194 332.8915 552.3318 332.651 552.2681 332.4635 552.3771L327.6764 555.1591C327.4888 555.2681 327.4251 555.5086 327.5341 555.6962 327.6431 555.8838 327.8836 555.9475 328.0712 555.8384ZM331.7083 551.0776C331.8959 550.9686 331.9596 550.7282 331.8505 550.5406 331.7415 550.353 331.5011 550.2893 331.3135 550.3983L326.5264 553.1803C326.3388 553.2893 326.2751 553.5298 326.3841 553.7174 326.4931 553.905 326.7336 553.9687 326.9212 553.8597ZM342.4076 575.7797C342.5166 575.9672 342.7571 576.0309 342.9447 575.9219 343.1322 575.8129 343.1959 575.5725 343.0869 575.3849L318.127 532.4359C318.018 532.2483 317.7776 532.1846 317.59 532.2936 317.4024 532.4026 317.3387 532.6431 317.4477 532.8307Z"/>
</g>
<g clip-path="url(#clip_4)">
<g clip-path="url(#clip_5)">
<path transform="matrix(1,0,0,-1,-32.5,590.93008)" d="M437.734 589.2553V586.1909H439.3054V589.2553ZM437.734 584.6586V581.5941H439.3054V584.6586ZM437.734 580.0619V576.9974H439.3054V580.0619ZM437.734 575.4652V572.4007H439.3054V575.4652ZM437.734 570.8684V567.804H439.3054V570.8684ZM437.734 566.2717V563.2072H439.3054V566.2717ZM437.734 561.675V558.6105H439.3054V561.675ZM437.734 557.0783V554.0138H439.3054V557.0783ZM437.734 552.4815V549.4171H439.3054V552.4815ZM437.734 547.8848V544.8203H439.3054V547.8848ZM437.734 543.2881V540.2236H439.3054V543.2881ZM437.734 538.6914V535.6269H439.3054V538.6914ZM437.734 534.0946V531.0301H439.3054V534.0946ZM437.734 529.4979V526.4334H439.3054V529.4979ZM437.734 524.9012V521.8367H439.3054V524.9012ZM437.734 520.3045V517.24H439.3054V520.3045ZM437.734 515.7077V512.6432H439.3054V515.7077ZM437.734 511.111V508.0465H439.3054V511.111ZM437.734 506.5143V503.4498H439.3054V506.5143ZM437.734 501.9176V498.8531H439.3054V501.9176ZM437.734 497.3208V494.2563H439.3054V497.3208ZM437.734 492.7241V489.6596H439.3054V492.7241ZM437.734 488.1274V485.0629H439.3054V488.1274ZM437.734 483.5307V480.4662H439.3054V483.5307ZM437.734 478.9339V475.8694H439.3054V478.9339Z" fill="#c7c3bd"/>
</g>
</g>
<g clip-path="url(#clip_6)">
<g clip-path="url(#clip_7)">
<path transform="matrix(1,0,0,-1,-32.5,590.93008)" d="M296.0016 589.2553V586.1909H297.5731V589.2553ZM296.0016 584.6586V581.5941H297.5731V584.6586ZM296.0016 580.0619V576.9974H297.5731V580.0619ZM296.0016 575.4652V572.4007H297.5731V575.4652ZM296.0016 570.8684V567.804H297.5731V570.8684ZM296.0016 566.2717V563.2072H297.5731V566.2717ZM296.0016 561.675V558.6105H297.5731V561.675ZM296.0016 557.0783V554.0138H297.5731V557.0783ZM296.0016 552.4815V549.4171H297.5731V552.4815ZM296.0016 547.8848V544.8203H297.5731V547.8848ZM296.0016 543.2881V540.2236H297.5731V543.2881ZM296.0016 538.6914V535.6269H297.5731V538.6914ZM296.0016 534.0946V531.0301H297.5731V534.0946ZM296.0016 529.4979V526.4334H297.5731V529.4979ZM296.0016 524.9012V521.8367H297.5731V524.9012ZM296.0016 520.3045V517.24H297.5731V520.3045ZM296.0016 515.7077V512.6432H297.5731V515.7077ZM296.0016 511.111V508.0465H297.5731V511.111ZM296.0016 506.5143V503.4498H297.5731V506.5143ZM296.0016 501.9176V498.8531H297.5731V501.9176ZM296.0016 497.3208V494.2563H297.5731V497.3208ZM296.0016 492.7241V489.6596H297.5731V492.7241ZM296.0016 488.1274V485.0629H297.5731V488.1274ZM296.0016 483.5307V480.4662H297.5731V483.5307ZM296.0016 478.9339V475.8694H297.5731V478.9339Z" fill="#c7c3bd"/>
</g>
</g>
<g clip-path="url(#clip_8)">
<g clip-path="url(#clip_9)">
<path transform="matrix(1,0,0,-1,-32.5,590.93008)" d="M154.2693 589.3262V586.2617H155.8407V589.3262ZM154.2693 584.7295V581.665H155.8407V584.7295ZM154.2693 580.1328V577.0683H155.8407V580.1328ZM154.2693 575.536V572.4716H155.8407V575.536ZM154.2693 570.9393V567.8748H155.8407V570.9393ZM154.2693 566.3426V563.2781H155.8407V566.3426ZM154.2693 561.7459V558.6814H155.8407V561.7459ZM154.2693 557.1491V554.0847H155.8407V557.1491ZM154.2693 552.5524V549.4879H155.8407V552.5524ZM154.2693 547.9557V544.8912H155.8407V547.9557ZM154.2693 543.359V540.2945H155.8407V543.359ZM154.2693 538.7622V535.6978H155.8407V538.7622ZM154.2693 534.1655V531.101H155.8407V534.1655ZM154.2693 529.5688V526.5043H155.8407V529.5688ZM154.2693 524.9721V521.9076H155.8407V524.9721ZM154.2693 520.3753V517.3109H155.8407V520.3753ZM154.2693 515.7786V512.7141H155.8407V515.7786ZM154.2693 511.1819V508.1174H155.8407V511.1819ZM154.2693 506.5852V503.5207H155.8407V506.5852ZM154.2693 501.9884V498.924H155.8407V501.9884ZM154.2693 497.3917V494.3272H155.8407V497.3917ZM154.2693 492.795V489.7305H155.8407V492.795ZM154.2693 488.1983V485.1338H155.8407V488.1983ZM154.2693 483.6015V480.5371H155.8407V483.6015ZM154.2693 479.0048V475.9403H155.8407V479.0048Z" fill="#c7c3bd"/>
</g>
</g>
<g clip-path="url(#clip_10)">
<path transform="matrix(1,0,0,-1,-32.5,590.93008)" d="M484.3421 575.1894C484.1252 575.1894 483.9493 575.3653 483.9493 575.5823 483.9493 575.7992 484.1252 575.9751 484.3421 575.9751H534.0172C534.2342 575.9751 534.4101 575.7992 534.4101 575.5823 534.4101 575.3653 534.2342 575.1894 534.0172 575.1894ZM509.5725 572.8139C509.5725 572.5969 509.3966 572.421 509.1797 572.421 508.9627 572.421 508.7868 572.5969 508.7868 572.8139V578.3506C508.7868 578.5676 508.9627 578.7435 509.1797 578.7435 509.3966 578.7435 509.5725 578.5676 509.5725 578.3506ZM484.3421 489.1497C484.1252 489.1497 483.9493 489.3256 483.9493 489.5425 483.9493 489.7595 484.1252 489.9354 484.3421 489.9354H534.0172C534.2342 489.9354 534.4101 489.7595 534.4101 489.5425 534.4101 489.3256 534.2342 489.1497 534.0172 489.1497ZM509.5725 486.7741C509.5725 486.5572 509.3966 486.3813 509.1797 486.3813 508.9627 486.3813 508.7868 486.5572 508.7868 486.7741V492.3109C508.7868 492.5279 508.9627 492.7038 509.1797 492.7038 509.3966 492.7038 509.5725 492.5279 509.5725 492.3109ZM558.5145 532.7588C558.623 532.9467 558.8633 533.0111 559.0512 532.9026 559.2391 532.7941 559.3034 532.5539 559.195 532.366L534.3574 489.3461C534.2489 489.1582 534.0087 489.0938 533.8208 489.2023 533.6329 489.3108 533.5685 489.5511 533.677 489.739ZM544.4142 513.0875C544.2263 513.1959 544.1619 513.4362 544.2704 513.6241 544.3789 513.812 544.6192 513.8764 544.8071 513.7679L549.6021 510.9995C549.79 510.891 549.8544 510.6508 549.7459 510.4629 549.6374 510.275 549.3971 510.2106 549.2092 510.3191ZM548.4577 509.0175C548.6456 508.909 548.71 508.6687 548.6015 508.4808 548.493 508.2929 548.2528 508.2285 548.0649 508.337L543.2699 511.1054C543.082 511.2139 543.0176 511.4542 543.1261 511.6421 543.2346 511.83 543.4748 511.8943 543.6627 511.7858ZM543.2699 511.1054C543.082 511.2139 543.0176 511.4542 543.1261 511.6421 543.2346 511.83 543.4748 511.8943 543.6627 511.7858L548.4577 509.0175C548.6456 508.909 548.71 508.6687 548.6015 508.4808 548.493 508.2929 548.2528 508.2285 548.0649 508.337ZM484.0019 575.7787C484.1104 575.9666 484.3507 576.031 484.5386 575.9225 484.7265 575.814 484.7909 575.5737 484.6824 575.3858L459.8448 532.366C459.7364 532.1781 459.4961 532.1137 459.3082 532.2222 459.1203 532.3307 459.0559 532.5709 459.1644 532.7588ZM469.9016 556.1073C469.7137 556.2158 469.6493 556.4561 469.7578 556.644 469.8663 556.8319 470.1066 556.8963 470.2945 556.7878L475.0895 554.0194C475.2774 553.9109 475.3418 553.6706 475.2333 553.4827 475.1248 553.2948 474.8845 553.2304 474.6966 553.3389ZM473.9451 552.0373C474.133 551.9288 474.1974 551.6886 474.0889 551.5007 473.9804 551.3128 473.7402 551.2484 473.5523 551.3569L468.7573 554.1253C468.5694 554.2338 468.505 554.474 468.6135 554.6619 468.722 554.8498 468.9622 554.9142 469.1501 554.8057ZM468.7573 554.1253C468.5694 554.2338 468.505 554.474 468.6135 554.6619 468.722 554.8498 468.9622 554.9142 469.1501 554.8057L473.9451 552.0373C474.133 551.9288 474.1974 551.6886 474.0889 551.5007 473.9804 551.3128 473.7402 551.2484 473.5523 551.3569ZM468.5026 511.2781C468.3144 511.1703 468.0743 511.2355 467.9665 511.4238 467.8587 511.6121 467.9239 511.8521 468.1122 511.9599L472.917 514.7113C473.1052 514.8191 473.3453 514.7539 473.4531 514.5656 473.5609 514.3773 473.4957 514.1373 473.3074 514.0295ZM474.0543 512.7252C474.2426 512.833 474.4826 512.7678 474.5904 512.5795 474.6982 512.3912 474.633 512.1512 474.4447 512.0434L469.64 509.292C469.4517 509.1842 469.2116 509.2494 469.1038 509.4377 468.996 509.626 469.0612 509.866 469.2495 509.9738ZM475.1916 510.7391C475.3799 510.8469 475.6199 510.7817 475.7277 510.5934 475.8355 510.4051 475.7703 510.1651 475.582 510.0573L470.7773 507.3059C470.589 507.1981 470.3489 507.2633 470.2411 507.4516 470.1333 507.6399 470.1985 507.8799 470.3868 507.9877ZM459.1637 532.3672C459.0559 532.5555 459.1211 532.7955 459.3094 532.9033 459.4977 533.0111 459.7377 532.9459 459.8455 532.7576L484.5305 489.65C484.6383 489.4618 484.5731 489.2217 484.3848 489.1139 484.1965 489.0061 483.9565 489.0713 483.8487 489.2596ZM543.0152 554.298C542.8269 554.1901 542.5869 554.2554 542.4791 554.4437 542.3713 554.6319 542.4365 554.872 542.6248 554.9798L547.4296 557.7312C547.6178 557.839 547.8579 557.7738 547.9657 557.5855 548.0735 557.3972 548.0083 557.1572 547.82 557.0493ZM548.5669 555.7451C548.7552 555.8529 548.9952 555.7877 549.103 555.5994 549.2108 555.4111 549.1456 555.1711 548.9573 555.0632L544.1525 552.3119C543.9643 552.204 543.7242 552.2693 543.6164 552.4576 543.5086 552.6458 543.5738 552.8859 543.7621 552.9937ZM549.7042 553.759C549.8925 553.8668 550.1325 553.8016 550.2403 553.6133 550.3481 553.425 550.2829 553.185 550.0946 553.0771L545.2899 550.3258C545.1016 550.2179 544.8615 550.2832 544.7537 550.4715 544.6459 550.6597 544.7111 550.8998 544.8994 551.0076ZM533.6763 575.387C533.5685 575.5753 533.6337 575.8154 533.822 575.9232 534.0103 576.031 534.2503 575.9658 534.3581 575.7775L559.0431 532.6699C559.1509 532.4816 559.0857 532.2416 558.8974 532.1338 558.7091 532.0259 558.4691 532.0912 558.3613 532.2795ZM626.3495 575.1894C626.1325 575.1894 625.9566 575.3653 625.9566 575.5823 625.9566 575.7992 626.1325 575.9751 626.3495 575.9751H676.0245C676.2415 575.9751 676.4174 575.7992 676.4174 575.5823 676.4174 575.3653 676.2415 575.1894 676.0245 575.1894ZM700.5227 532.7603C700.632 532.9477 700.8725 533.0111 701.0599 532.9018 701.2474 532.7925 701.3107 532.5519 701.2014 532.3645L676.1797 489.4515C676.0705 489.264 675.8299 489.2007 675.6425 489.31 675.4551 489.4193 675.3917 489.6598 675.501 489.8473ZM701.2023 532.7588C701.3108 532.5709 701.2464 532.3307 701.0585 532.2222 700.8706 532.1137 700.6303 532.1781 700.5218 532.366L675.6843 575.3858C675.5758 575.5737 675.6402 575.814 675.8281 575.9225 676.016 576.031 676.2563 575.9666 676.3647 575.7787ZM626.3495 489.1497C626.1325 489.1497 625.9566 489.3256 625.9566 489.5425 625.9566 489.7595 626.1325 489.9354 626.3495 489.9354H676.0245C676.2415 489.9354 676.4174 489.7595 676.4174 489.5425 676.4174 489.3256 676.2415 489.1497 676.0245 489.1497ZM601.8521 532.366C601.7437 532.1781 601.5034 532.1137 601.3155 532.2222 601.1276 532.3307 601.0632 532.5709 601.1717 532.7588L626.0092 575.7787C626.1177 575.9666 626.358 576.031 626.5459 575.9225 626.7338 575.814 626.7982 575.5737 626.6897 575.3858ZM601.1717 532.366C601.0632 532.5539 601.1276 532.7941 601.3155 532.9026 601.5034 533.0111 601.7437 532.9467 601.8521 532.7588L626.6897 489.739C626.7982 489.5511 626.7338 489.3108 626.5459 489.2023 626.358 489.0938 626.1177 489.1582 626.0092 489.3461ZM626.3495 575.1894C626.1325 575.1894 625.9566 575.3653 625.9566 575.5823 625.9566 575.7992 626.1325 575.9751 626.3495 575.9751H676.0245C676.2415 575.9751 676.4174 575.7992 676.4174 575.5823 676.4174 575.3653 676.2415 575.1894 676.0245 575.1894ZM651.5798 572.8139C651.5798 572.5969 651.404 572.421 651.187 572.421 650.97 572.421 650.7941 572.5969 650.7941 572.8139V578.3506C650.7941 578.5676 650.97 578.7435 651.187 578.7435 651.404 578.7435 651.5798 578.5676 651.5798 578.3506ZM626.3495 489.1497C626.1325 489.1497 625.9566 489.3256 625.9566 489.5425 625.9566 489.7595 626.1325 489.9354 626.3495 489.9354H676.0245C676.2415 489.9354 676.4174 489.7595 676.4174 489.5425 676.4174 489.3256 676.2415 489.1497 676.0245 489.1497ZM651.5798 486.7741C651.5798 486.5572 651.404 486.3813 651.187 486.3813 650.97 486.3813 650.7941 486.5572 650.7941 486.7741V492.3109C650.7941 492.5279 650.97 492.7038 651.187 492.7038 651.404 492.7038 651.5798 492.5279 651.5798 492.3109ZM701.2023 532.7588C701.3108 532.5709 701.2464 532.3307 701.0585 532.2222 700.8706 532.1137 700.6303 532.1781 700.5218 532.366L675.6843 575.3858C675.5758 575.5737 675.6402 575.814 675.8281 575.9225 676.016 576.031 676.2563 575.9666 676.3647 575.7787ZM691.2165 554.8057C691.4044 554.9142 691.6447 554.8498 691.7532 554.6619 691.8617 554.474 691.7973 554.2338 691.6094 554.1253L686.8144 551.3569C686.6265 551.2484 686.3862 551.3128 686.2777 551.5007 686.1692 551.6886 686.2336 551.9288 686.4215 552.0373ZM685.67 553.3389C685.4821 553.2304 685.2419 553.2948 685.1334 553.4827 685.0249 553.6706 685.0893 553.9109 685.2772 554.0194L690.0722 556.7878C690.2601 556.8963 690.5003 556.8319 690.6088 556.644 690.7173 556.4561 690.6529 556.2158 690.465 556.1073ZM690.0722 556.7878C690.2601 556.8963 690.5003 556.8319 690.6088 556.644 690.7173 556.4561 690.6529 556.2158 690.465 556.1073L685.67 553.3389C685.4821 553.2304 685.2419 553.2948 685.1334 553.4827 685.0249 553.6706 685.0893 553.9109 685.2772 554.0194ZM626.0092 575.7787C626.1177 575.9666 626.358 576.031 626.5459 575.9225 626.7338 575.814 626.7982 575.5737 626.6897 575.3858L601.8521 532.366C601.7437 532.1781 601.5034 532.1137 601.3155 532.2222 601.1276 532.3307 601.0632 532.5709 601.1717 532.7588ZM611.9089 556.1073C611.721 556.2158 611.6567 556.4561 611.7651 556.644 611.8736 556.8319 612.1139 556.8963 612.3018 556.7878L617.0968 554.0194C617.2847 553.9109 617.3491 553.6706 617.2406 553.4827 617.1321 553.2948 616.8918 553.2304 616.7039 553.3389ZM615.9524 552.0373C616.1403 551.9288 616.2047 551.6886 616.0962 551.5007 615.9878 551.3128 615.7475 551.2484 615.5596 551.3569L610.7646 554.1253C610.5767 554.2338 610.5123 554.474 610.6208 554.6619 610.7293 554.8498 610.9695 554.9142 611.1574 554.8057ZM610.7646 554.1253C610.5767 554.2338 610.5123 554.474 610.6208 554.6619 610.7293 554.8498 610.9695 554.9142 611.1574 554.8057L615.9524 552.0373C616.1403 551.9288 616.2047 551.6886 616.0962 551.5007 615.9878 551.3128 615.7475 551.2484 615.5596 551.3569ZM610.5099 511.2781C610.3217 511.1703 610.0816 511.2355 609.9738 511.4238 609.866 511.6121 609.9312 511.8521 610.1195 511.9599L614.9243 514.7113C615.1126 514.8191 615.3526 514.7539 615.4604 514.5656 615.5682 514.3773 615.503 514.1373 615.3147 514.0295ZM616.0616 512.7252C616.2499 512.833 616.4899 512.7678 616.5977 512.5795 616.7055 512.3912 616.6403 512.1512 616.452 512.0434L611.6473 509.292C611.459 509.1842 611.2189 509.2494 611.1111 509.4377 611.0033 509.626 611.0685 509.866 611.2568 509.9738ZM617.1989 510.7391C617.3872 510.8469 617.6272 510.7817 617.735 510.5934 617.8429 510.4051 617.7776 510.1651 617.5893 510.0573L612.7846 507.3059C612.5963 507.1981 612.3562 507.2633 612.2484 507.4516 612.1406 507.6399 612.2058 507.8799 612.3941 507.9877ZM601.171 532.3672C601.0632 532.5555 601.1284 532.7955 601.3167 532.9033 601.505 533.0111 601.745 532.9459 601.8528 532.7576L626.5378 489.65C626.6457 489.4618 626.5804 489.2217 626.3921 489.1139 626.2039 489.0061 625.9638 489.0713 625.856 489.2596ZM686.8494 514.1876C686.6624 514.2976 686.5999 514.5383 686.7098 514.7254 686.8198 514.9124 687.0606 514.9749 687.2476 514.865L692.0208 512.0591C692.2078 511.9492 692.2703 511.7084 692.1604 511.5214 692.0504 511.3343 691.8097 511.2718 691.6226 511.3818ZM690.861 510.0861C691.048 509.9761 691.1105 509.7354 691.0005 509.5483 690.8906 509.3613 690.6498 509.2988 690.4628 509.4087L685.6896 512.2146C685.5026 512.3245 685.4401 512.5653 685.55 512.7523 685.66 512.9394 685.9007 513.0019 686.0878 512.8919ZM689.7011 508.113C689.8882 508.0031 689.9507 507.7623 689.8407 507.5753 689.7308 507.3882 689.49 507.3257 689.303 507.4357L684.5298 510.2415C684.3427 510.3515 684.2802 510.5922 684.3902 510.7793 684.5002 510.9663 684.7409 511.0288 684.928 510.9189ZM700.5234 532.7615C700.6333 532.9485 700.8741 533.011 701.0611 532.9011 701.2482 532.7911 701.3107 532.5504 701.2007 532.3633L676.0272 489.5392C675.9172 489.3521 675.6765 489.2896 675.4894 489.3996 675.3024 489.5095 675.2399 489.7503 675.3498 489.9374Z"/>
</g>
</g>
</g>
</g>
</svg>
