<svg xmlns="http://www.w3.org/2000/svg" xmlns:xlink="http://www.w3.org/1999/xlink" xmlns:inkscape="http://www.inkscape.org/namespaces/inkscape" version="1.1" width="447.5" height="160.45008" viewBox="0 0 447.5 160.45008">
<defs>
<clipPath id="clip_54">
<path transform="matrix(1,0,0,-1,-66,763.26248)" d="M66 602.8124H513.5V763.26248H66Z" clip-rule="evenodd"/>
</clipPath>
<clipPath id="clip_55">
<path transform="matrix(1,0,0,-1,-66,763.26248)" d="M0 0H612V803.25H0Z"/>
</clipPath>
<clipPath id="clip_56">
<path transform="matrix(1,0,0,-1,-66,763.26248)" d="M0 0H612V803.25H0Z"/>
</clipPath>
<clipPath id="clip_57">
<path transform="matrix(1,0,0,-1,-66,763.26248)" d="M0 0H612V803.25H0Z"/>
</clipPath>
<clipPath id="clip_58">
<path transform="matrix(1,0,0,-1,-66,763.26248)" d="M0 0H612V803.25H0Z"/>
</clipPath>
<clipPath id="clip_59">
<path transform="matrix(1,0,0,-1,-66,763.26248)" d="M408.4697 658.2088C408.8394 657.97 408.9455 657.4767 408.7067 657.107 408.4679 656.7373 407.9746 656.6313 407.6049 656.8701 401.6696 660.7045 398.3492 664.5923 397.7099 668.5847 397.6403 669.0192 397.9362 669.4279 398.3708 669.4975 398.8053 669.5671 399.214 669.2712 399.2836 668.8367 399.8369 665.3815 402.8769 661.8219 408.4697 658.2088"/>
</clipPath>
<clipPath id="clip_60">
<path transform="matrix(1,0,0,-1,-66,763.26248)" d="M0 0H612V803.25H0Z"/>
</clipPath>
<clipPath id="clip_61">
<path transform="matrix(1,0,0,-1,-66,763.26248)" d="M0 0H612V803.25H0Z"/>
</clipPath>
<clipPath id="clip_62">
<path transform="matrix(1,0,0,-1,-66,763.26248)" d="M405.5791 703.3075C405.3602 702.9257 404.8732 702.7937 404.4914 703.0126 404.1097 703.2316 403.9777 703.7186 404.1966 704.1004 408.9096 712.3184 416.0884 716.0207 425.5999 715.1412 426.0381 715.1006 426.3605 714.7125 426.32 714.2743 426.2795 713.8361 425.8914 713.5137 425.4531 713.5542 416.5612 714.3764 409.9809 710.9828 405.5791 703.3075"/>
</clipPath>
<clipPath id="clip_63">
<path transform="matrix(1,0,0,-1,-66,763.26248)" d="M0 0H612V803.25H0Z"/>
</clipPath>
<clipPath id="clip_64">
<path transform="matrix(1,0,0,-1,-66,763.26248)" d="M0 0H612V803.25H0Z"/>
</clipPath>
<clipPath id="clip_65">
<path transform="matrix(1,0,0,-1,-66,763.26248)" d="M461.3532 690.2888C461.0837 690.6368 461.1473 691.1373 461.4952 691.4068 461.8432 691.6763 462.3437 691.6127 462.6132 691.2647 466.9477 685.6682 466.2338 679.956 460.5674 674.4249 460.2525 674.1175 459.748 674.1236 459.4405 674.4385 459.1331 674.7534 459.1392 675.258 459.4541 675.5654 464.5661 680.5554 465.1671 685.3643 461.3532 690.2888"/>
</clipPath>
<clipPath id="clip_66">
<path transform="matrix(1,0,0,-1,-66,763.26248)" d="M0 0H612V803.25H0Z"/>
</clipPath>
<clipPath id="clip_67">
<path transform="matrix(1,0,0,-1,-66,763.26248)" d="M0 0H612V803.25H0Z"/>
</clipPath>
<clipPath id="clip_68">
<path transform="matrix(1,0,0,-1,-66,763.26248)" d="M0 0H612V803.25H0Z"/>
</clipPath>
<clipPath id="clip_69">
<path transform="matrix(1,0,0,-1,-66,763.26248)" d="M123.1281 648.2499C123.5572 648.1519 123.8255 647.7246 123.7275 647.2956 123.6295 646.8665 123.2022 646.5982 122.7731 646.6962 115.008 648.4705 110.2617 653.3438 108.6359 661.2079 108.5469 661.6389 108.824 662.0605 109.255 662.1496 109.686 662.2387 110.1076 661.9615 110.1967 661.5305 111.6965 654.2757 115.973 649.8848 123.1281 648.2499"/>
</clipPath>
<clipPath id="clip_70">
<path transform="matrix(1,0,0,-1,-66,763.26248)" d="M0 0H612V803.25H0Z"/>
</clipPath>
<clipPath id="clip_71">
<path transform="matrix(1,0,0,-1,-66,763.26248)" d="M0 0H612V803.25H0Z"/>
</clipPath>
<clipPath id="clip_72">
<path transform="matrix(1,0,0,-1,-66,763.26248)" d="M121.2113 713.5546C121.0427 713.148 120.5765 712.9551 120.17 713.1237 119.7634 713.2922 119.5705 713.7584 119.7391 714.165 122.4375 720.6732 127.3976 724.0944 134.4957 724.3462 134.9356 724.3618 135.3048 724.0179 135.3204 723.578 135.336 723.1382 134.9921 722.769 134.5522 722.7534 128.0759 722.5237 123.6701 719.4849 121.2113 713.5546"/>
</clipPath>
<clipPath id="clip_73">
<path transform="matrix(1,0,0,-1,-66,763.26248)" d="M0 0H612V803.25H0Z"/>
</clipPath>
<clipPath id="clip_74">
<path transform="matrix(1,0,0,-1,-66,763.26248)" d="M0 0H612V803.25H0Z"/>
</clipPath>
<clipPath id="clip_75">
<path transform="matrix(1,0,0,-1,-66,763.26248)" d="M190.3787 700.5619C190.1119 700.9119 190.1794 701.4119 190.5294 701.6787 190.8794 701.9455 191.3795 701.878 191.6462 701.528 195.8117 696.063 196.2658 690.202 192.9994 684.0933 192.7918 683.7052 192.309 683.5588 191.9209 683.7663 191.5328 683.9738 191.3864 684.4567 191.5939 684.8448 194.567 690.4048 194.1649 695.5944 190.3787 700.5619"/>
</clipPath>
<clipPath id="clip_76">
<path transform="matrix(1,0,0,-1,-66,763.26248)" d="M0 0H612V803.25H0Z"/>
</clipPath>
<clipPath id="clip_77">
<path transform="matrix(1,0,0,-1,-66,763.26248)" d="M107.1985 753.304C107.4666 752.955 107.4011 752.4547 107.0521 752.1866 106.7031 751.9184 106.2028 751.984 105.9347 752.333L99.85617 760.2448C99.58804 760.5938 99.6536 761.0941 100.0026 761.3622 100.3516 761.6303 100.8519 761.5648 101.12 761.2158Z"/>
</clipPath>
<clipPath id="clip_78">
<path transform="matrix(1,0,0,-1,-66,763.26248)" d="M0 0H612V803.25H0Z"/>
</clipPath>
<clipPath id="clip_79">
<path transform="matrix(1,0,0,-1,-66,763.26248)" d="M74.95902 612.6053C75.27022 612.9165 75.77477 612.9165 76.08597 612.6053 76.39717 612.2941 76.39717 611.7895 76.08597 611.4783L69.14267 604.535C68.83147 604.2238 68.32692 604.2238 68.01572 604.535 67.70452 604.8462 67.70452 605.3508 68.01572 605.662Z"/>
</clipPath>
<clipPath id="clip_80">
<path transform="matrix(1,0,0,-1,-66,763.26248)" d="M0 0H612V803.25H0Z"/>
</clipPath>
<clipPath id="clip_81">
<path transform="matrix(1,0,0,-1,-66,763.26248)" d="M251.7563 706.1789C252.1855 706.2763 252.6124 706.0074 252.7098 705.5782 252.8072 705.149 252.5382 704.7221 252.109 704.6247L241.4264 702.2005C240.9972 702.1031 240.5703 702.3721 240.4729 702.8013 240.3755 703.2305 240.6445 703.6574 241.0737 703.7548Z"/>
</clipPath>
<clipPath id="clip_82">
<path transform="matrix(1,0,0,-1,-66,763.26248)" d="M0 0H612V803.25H0Z"/>
</clipPath>
</defs>
<g clip-path="url(#clip_54)">
<g clip-path="url(#clip_55)">
<g clip-path="url(#clip_56)">
<g clip-path="url(#clip_57)">
<path transform="matrix(1,0,0,-1,-66,763.26248)" d="M358.3346 739.411C357.9491 739.6233 357.8087 740.1079 358.0211 740.4934 358.2334 740.8789 358.718 741.0193 359.1035 740.807 428.7238 702.4611 427.656 670.6377 355.8594 646.5888 355.4421 646.449 354.9905 646.674 354.8507 647.0913 354.7109 647.5086 354.9359 647.9602 355.3532 648.1 425.7782 671.6895 426.7856 701.7091 358.3346 739.411M425.6978 760.9168C425.8007 761.3446 426.2311 761.608 426.659 761.505 427.0869 761.4021 427.3502 760.9717 427.2473 760.5438 412.6967 700.0905 440.2853 679.3488 510.8331 697.9241 511.2587 698.0362 511.6945 697.782 511.8066 697.3564 511.9187 696.9308 511.6645 696.4949 511.2389 696.3829 439.6228 677.5263 410.8357 699.1691 425.6978 760.9168M384.686 618.6859C384.5137 618.2809 384.0457 618.0924 383.6408 618.2647 383.2358 618.437 383.0472 618.905 383.2196 619.31 409.2093 680.3809 450.0003 692.7411 505.0779 656.2311 505.4448 655.9879 505.545 655.4935 505.3019 655.1266 505.0587 654.7598 504.5642 654.6596 504.1974 654.9027 449.9519 690.861 410.2864 678.8419 384.686 618.6859"/>
</g>
<g clip-path="url(#clip_58)">
<path transform="matrix(1,0,0,-1,-66,763.26248)" d="M408.8206 657.6861C408.9016 657.2535 408.6166 656.8372 408.184 656.7562 407.7514 656.6752 407.3351 656.9602 407.2541 657.3928 406.3631 662.1515 403.3617 665.6659 398.1719 667.983 397.77 668.1624 397.5897 668.6337 397.7691 669.0355 397.9486 669.4374 398.4198 669.6177 398.8217 669.4383 404.4698 666.9166 407.8288 662.9835 408.8206 657.6861" fill="#efb9b4"/>
</g>
<g clip-path="url(#clip_59)">
<g clip-path="url(#clip_60)">
<path transform="matrix(1,0,0,-1,-66,763.26248)" d="M408.4697 658.2088C407.6796 658.7192 406.9398 659.229 406.2502 659.7382L405.3035 658.4561C406.0204 657.9267 406.7875 657.3981 407.6049 656.8701ZM405.1857 660.5555C404.4503 661.1435 403.7827 661.7301 403.1827 662.3153L402.07 661.1742C402.7085 660.5516 403.4153 659.9305 404.1903 659.3107ZM402.2651 663.2668C401.64 663.9594 401.1108 664.6487 400.6772 665.3342L399.3303 664.4823C399.814 663.7175 400.3981 662.9566 401.0821 662.1989ZM400.0525 666.4533C399.6656 667.2531 399.4101 668.0471 399.2836 668.8367L397.7099 668.5847C397.8615 667.638 398.1648 666.6958 398.6177 665.7594Z" fill="#efb9b4"/>
</g>
</g>
<g clip-path="url(#clip_61)">
<path transform="matrix(1,0,0,-1,-66,763.26248)" d="M404.7673 702.9162C404.3322 702.9828 404.0336 703.3895 404.1002 703.8245 404.1668 704.2596 404.5734 704.5582 405.0085 704.4916 415.0582 702.9528 421.5696 706.3108 424.7831 714.6347 424.9416 715.0452 425.4029 715.2496 425.8135 715.0911 426.2241 714.9326 426.4284 714.4712 426.2699 714.0607 422.7744 705.0065 415.5267 701.2687 404.7673 702.9162" fill="#5fcc87"/>
</g>
<g clip-path="url(#clip_62)">
<g clip-path="url(#clip_63)">
<path transform="matrix(1,0,0,-1,-66,763.26248)" d="M405.5791 703.3075C406.0626 704.1505 406.5723 704.9415 407.108 705.6807L405.8176 706.616C405.2481 705.8303 404.7078 704.9917 404.1966 704.1004ZM407.967 706.7941C408.5754 707.5346 409.2143 708.2146 409.8838 708.8344L408.801 710.0039C408.0779 709.3343 407.3894 708.6016 406.7356 707.8059ZM410.9419 709.7439C411.6762 710.3285 412.4443 710.8474 413.2465 711.301L412.4621 712.6883C411.5866 712.1933 410.7489 711.6274 409.9493 710.9908ZM414.4834 711.936C415.3183 712.3231 416.1878 712.6455 417.0924 712.9033L416.6556 714.436C415.6714 714.1556 414.7238 713.8042 413.8131 713.3819ZM418.4484 713.2359C419.3415 713.4208 420.2668 713.5473 421.2243 713.6152L421.1116 715.2049C420.0842 715.1321 419.0887 714.996 418.1254 714.7966ZM422.6305 713.6726C423.5437 713.6832 424.4846 713.6437 425.4531 713.5542L425.5999 715.1412C424.5772 715.2357 423.5812 715.2775 422.612 715.2662Z" fill="#5fcc87"/>
</g>
</g>
<g clip-path="url(#clip_64)">
<path transform="matrix(1,0,0,-1,-66,763.26248)" d="M461.4014 691.3214C461.7022 691.6427 462.2065 691.6593 462.5278 691.3585 462.8491 691.0578 462.8657 690.5535 462.5649 690.2322 457.8835 685.2313 457.2774 680.3819 460.6676 675.4463 460.9168 675.0836 460.8247 674.5875 460.462 674.3383 460.0992 674.0891 459.6031 674.1812 459.3539 674.544 455.5205 680.1248 456.2293 685.7964 461.4014 691.3214" fill="#7ba0ca"/>
</g>
<g clip-path="url(#clip_65)">
<g clip-path="url(#clip_66)">
<path transform="matrix(1,0,0,-1,-66,763.26248)" d="M461.3532 690.2888C461.875 689.6151 462.3132 688.9444 462.6684 688.2769L464.0753 689.0256C463.6764 689.7752 463.1889 690.5214 462.6132 691.2647ZM463.1695 687.2031C463.472 686.4486 463.668 685.6982 463.7586 684.9505L465.3408 685.1424C465.2331 686.0301 465.002 686.9151 464.6488 687.7961ZM463.8152 683.7963C463.7975 683.0371 463.6714 682.2764 463.4358 681.5123L464.9588 681.0428C465.2371 681.9455 465.3874 682.8516 465.4085 683.7592ZM463.0217 680.4117C462.7164 679.7238 462.3225 679.0323 461.8393 678.3374L463.1478 677.4276C463.6872 678.2032 464.1309 678.9824 464.4784 679.7651ZM461.11 677.3692C460.6238 676.7698 460.0719 676.1684 459.4541 675.5654L460.5674 674.4249C461.2282 675.0699 461.8217 675.7167 462.3478 676.3653Z" fill="#7ba0ca"/>
</g>
</g>
<g clip-path="url(#clip_67)">
<path transform="matrix(1,0,0,-1,-66,763.26248)" d="M105.8998 752.3822C105.6588 752.7504 105.762 753.2443 106.1303 753.4853 106.4985 753.7263 106.9924 753.6231 107.2334 753.2548 133.8416 712.5926 123.4111 665.293 76.12091 611.5156 75.83028 611.1851 75.32677 611.1528 74.99627 611.4434 74.66578 611.734 74.63346 612.2375 74.92408 612.568 121.7888 665.8616 132.0544 712.4132 105.8998 752.3822M105.9173 752.3566C105.6622 752.7152 105.7461 753.2127 106.1047 753.4678 106.4633 753.7229 106.9608 753.639 107.2159 753.2804 138.0638 709.9169 182.6481 693.418 241.1112 703.7623 241.5446 703.839 241.958 703.5499 242.0347 703.1165 242.1114 702.6831 241.8222 702.2696 241.3889 702.193 182.3395 691.7449 137.1348 708.4733 105.9173 752.3566M76.04202 611.4376C75.70831 611.1506 75.20518 611.1886 74.91826 611.5223 74.63133 611.856 74.66926 612.3591 75.00297 612.646 121.2567 652.4148 176.5722 682.7627 240.943 703.6901 241.3615 703.8262 241.8111 703.5972 241.9472 703.1787 242.0833 702.7602 241.8543 702.3106 241.4357 702.1745 177.2605 681.3106 122.1313 651.0649 76.04202 611.4376M181.3715 680.339C181.4315 680.4576 181.5394 680.5448 181.668 680.5786 182.0464 680.6779 182.0096 680.5432 182.0562 680.5151L182.3371 680.2748C182.3851 680.225 182.4229 680.1663 182.4485 680.102 182.5195 679.9242 182.6225 679.6884 182.6423 679.4143 182.6591 679.1813 182.4837 678.9787 182.2506 678.9619 182.0863 678.95 181.93 679.0347 181.8501 679.1788L181.5751 679.5216C181.5285 679.5675 181.4906 679.6215 181.4635 679.6811L181.383 679.8607 181.3447 679.9662C181.331 680.0129 181.1997 679.9993 181.3715 680.339"/>
</g>
<g clip-path="url(#clip_68)">
<path transform="matrix(1,0,0,-1,-66,763.26248)" d="M123.7227 647.6706C123.8317 647.2442 123.5745 646.8101 123.1482 646.7011 122.7218 646.592 122.2877 646.8492 122.1786 647.2756 120.5724 653.5539 116.253 657.9887 109.1397 660.6219 108.727 660.7747 108.5162 661.2331 108.669 661.6459 108.8218 662.0586 109.2802 662.2693 109.693 662.1165 117.2771 659.3091 121.9806 654.4798 123.7227 647.6706" fill="#efb9b4"/>
</g>
<g clip-path="url(#clip_69)">
<g clip-path="url(#clip_70)">
<path transform="matrix(1,0,0,-1,-66,763.26248)" d="M123.1281 648.2499C122.1669 648.4696 121.258 648.739 120.4015 649.058L119.8453 647.5644C120.7687 647.2205 121.7447 646.9312 122.7731 646.6962ZM119.0959 649.6012C118.2207 650.0062 117.4075 650.4702 116.6557 650.9932L115.7455 649.685C116.5744 649.1083 117.4682 648.5983 118.4266 648.1548ZM115.5459 651.8459C114.8332 652.4497 114.1852 653.1174 113.6014 653.8494L112.3554 652.8557C113.0037 652.0428 113.7239 651.3007 114.5156 650.6299ZM112.7811 654.9844C112.2803 655.7503 111.8383 656.5766 111.4552 657.464L109.992 656.8322C110.4108 655.8622 110.8959 654.9554 111.4472 654.1122ZM110.9442 658.784C110.6458 659.6483 110.3965 660.5638 110.1967 661.5305L108.6359 661.2079C108.8494 660.1754 109.1166 659.194 109.4377 658.2639Z" fill="#efb9b4"/>
</g>
</g>
<g clip-path="url(#clip_71)">
<path transform="matrix(1,0,0,-1,-66,763.26248)" d="M120.4558 713.0631C120.0159 713.0738 119.6679 713.4392 119.6786 713.8791 119.6892 714.3191 120.0546 714.6671 120.4945 714.6564 127.8692 714.4773 132.2111 717.4721 133.7501 723.7398 133.855 724.1672 134.2866 724.4286 134.714 724.3237 135.1414 724.2187 135.4028 723.7872 135.2979 723.3598 133.5722 716.3318 128.5483 712.8666 120.4558 713.0631" fill="#5fcc87"/>
</g>
<g clip-path="url(#clip_72)">
<g clip-path="url(#clip_73)">
<path transform="matrix(1,0,0,-1,-66,763.26248)" d="M121.2113 713.5546C121.542 714.3522 121.9078 715.0969 122.3087 715.7891L120.9295 716.5878C120.4929 715.8338 120.0961 715.0262 119.7391 714.165ZM122.9685 716.8352C123.4457 717.5301 123.9645 718.1627 124.5251 718.7336L123.3878 719.8501C122.7615 719.2123 122.1838 718.5079 121.6547 717.7375ZM125.4216 719.5643C126.0457 720.0894 126.7152 720.5495 127.4308 720.9449L126.6599 722.3398C125.8538 721.8944 125.0988 721.3755 124.3955 720.7838ZM128.5281 721.485C129.2611 721.8042 130.0379 722.064 130.8588 722.2642L130.4812 723.8125C129.5728 723.591 128.7095 723.3023 127.8918 722.9462ZM132.072 722.5113C132.8616 722.642 133.6883 722.7228 134.5522 722.7534L134.4957 724.3462C133.5647 724.3131 132.67 724.2257 131.8117 724.0837Z" fill="#5fcc87"/>
</g>
</g>
<g clip-path="url(#clip_74)">
<path transform="matrix(1,0,0,-1,-66,763.26248)" d="M190.3334 701.462C190.5638 701.837 191.0545 701.9543 191.4295 701.724 191.8045 701.4936 191.9218 701.0029 191.6915 700.6279 187.9355 694.5122 188.3315 689.3999 192.8498 685.0426 193.1666 684.7371 193.1757 684.2327 192.8702 683.9159 192.5647 683.5991 192.0603 683.5899 191.7435 683.8954 186.6617 688.7961 186.2017 694.7345 190.3334 701.462" fill="#7ba0ca"/>
</g>
<g clip-path="url(#clip_75)">
<g clip-path="url(#clip_76)">
<path transform="matrix(1,0,0,-1,-66,763.26248)" d="M190.3787 700.5619C190.888 699.8936 191.3357 699.2217 191.722 698.546L193.1056 699.3371C192.6839 700.0747 192.1973 700.805 191.6462 701.528ZM192.2794 697.4797C192.6305 696.7387 192.9089 695.9931 193.115 695.2427L194.6519 695.6648C194.4209 696.5058 194.11 697.3383 193.7196 698.1621ZM193.3754 694.0829C193.5119 693.3015 193.5716 692.5137 193.5544 691.7188L195.1477 691.6843C195.1672 692.5826 195.0997 693.4738 194.9454 694.3572ZM193.4723 690.5321C193.3824 689.7597 193.2212 688.9795 192.9883 688.1912L194.5167 687.7396C194.7751 688.6142 194.9548 689.4838 195.0553 690.348ZM192.603 687.0499C192.3269 686.3217 191.9906 685.5867 191.5939 684.8448L192.9994 684.0933C193.4277 684.8944 193.7924 685.6915 194.0932 686.4848Z" fill="#7ba0ca"/>
</g>
</g>
<g clip-path="url(#clip_77)">
<g clip-path="url(#clip_78)">
<path transform="matrix(1,0,0,-1,-66,763.26248)" d="M107.1985 753.304 107.1975 753.3053C106.9294 753.6543 106.4291 753.7198 106.0801 753.4517 105.7311 753.1836 105.6656 752.6833 105.9337 752.3343L105.9347 752.333C106.2028 751.984 106.7031 751.9184 107.0521 752.1866 107.4011 752.4547 107.4666 752.955 107.1985 753.304M105.1727 755.9408 105.1717 755.9421C104.9035 756.2911 104.4033 756.3567 104.0543 756.0885 103.7053 755.8204 103.6397 755.3201 103.9078 754.9711L103.9089 754.9698C104.177 754.6208 104.6773 754.5553 105.0263 754.8234 105.3753 755.0915 105.4408 755.5918 105.1727 755.9408M103.1468 758.5776 103.1458 758.579C102.8777 758.9279 102.3774 758.9935 102.0284 758.7254 101.6794 758.4572 101.6139 757.957 101.882 757.608L101.883 757.6067C102.1511 757.2577 102.6514 757.1921 103.0004 757.4602 103.3494 757.7284 103.415 758.2286 103.1468 758.5776M101.121 761.2145 101.12 761.2158C100.8519 761.5648 100.3516 761.6303 100.0026 761.3622 99.6536 761.0941 99.58804 760.5938 99.85617 760.2448L99.85718 760.2435C100.1253 759.8945 100.6256 759.8289 100.9746 760.0971 101.3236 760.3652 101.3891 760.8655 101.121 761.2145"/>
</g>
</g>
<g clip-path="url(#clip_79)">
<g clip-path="url(#clip_80)">
<path transform="matrix(1,0,0,-1,-66,763.26248)" d="M74.95902 612.6053 74.95786 612.6041C74.64667 612.2929 74.64667 611.7884 74.95786 611.4772 75.26906 611.166 75.77362 611.166 76.08482 611.4772L76.08597 611.4783C76.39717 611.7895 76.39717 612.2941 76.08597 612.6053 75.77477 612.9165 75.27022 612.9165 74.95902 612.6053M72.64497 610.2912 72.64382 610.2901C72.33262 609.9789 72.33262 609.4743 72.64382 609.1631 72.95502 608.8519 73.45957 608.8519 73.77077 609.1631L73.77192 609.1643C74.08312 609.4755 74.08312 609.98 73.77192 610.2912 73.46073 610.6024 72.95617 610.6024 72.64497 610.2912M70.33092 607.9772 70.32977 607.976C70.01857 607.6648 70.01857 607.1603 70.32977 606.8491 70.64097 606.5379 71.14552 606.5379 71.45672 606.8491L71.45788 606.8502C71.76908 607.1614 71.76908 607.666 71.45788 607.9772 71.14668 608.2884 70.64212 608.2884 70.33092 607.9772M68.01688 605.6631 68.01572 605.662C67.70452 605.3508 67.70452 604.8462 68.01572 604.535 68.32692 604.2238 68.83147 604.2238 69.14267 604.535L69.14383 604.5362C69.45503 604.8474 69.45503 605.3519 69.14383 605.6631 68.83263 605.9743 68.32808 605.9743 68.01688 605.6631"/>
</g>
</g>
<g clip-path="url(#clip_81)">
<g clip-path="url(#clip_82)">
<path transform="matrix(1,0,0,-1,-66,763.26248)" d="M251.7563 706.1789 251.7546 706.1785C251.3254 706.0811 251.0564 705.6543 251.1538 705.2251 251.2512 704.7959 251.6781 704.5269 252.1073 704.6243L252.109 704.6247C252.5382 704.7221 252.8072 705.149 252.7098 705.5782 252.6124 706.0074 252.1855 706.2763 251.7563 706.1789M248.196 705.371 248.1943 705.3706C247.7651 705.2732 247.4961 704.8463 247.5935 704.4171 247.6909 703.988 248.1178 703.719 248.547 703.8164L248.5487 703.8168C248.9779 703.9142 249.2469 704.3411 249.1495 704.7702 249.0521 705.1994 248.6252 705.4684 248.196 705.371M244.6358 704.5631 244.634 704.5627C244.2048 704.4653 243.9358 704.0384 244.0332 703.6092 244.1306 703.18 244.5575 702.9111 244.9867 703.0084L244.9885 703.0089C245.4176 703.1062 245.6866 703.5331 245.5892 703.9623 245.4918 704.3915 245.0649 704.6605 244.6358 704.5631M241.0755 703.7552 241.0737 703.7548C240.6445 703.6574 240.3755 703.2305 240.4729 702.8013 240.5703 702.3721 240.9972 702.1031 241.4264 702.2005L241.4282 702.2009C241.8574 702.2983 242.1263 702.7252 242.0289 703.1544 241.9315 703.5836 241.5047 703.8526 241.0755 703.7552"/>
</g>
</g>
</g>
</g>
</g>
</svg>
