<svg xmlns="http://www.w3.org/2000/svg" xmlns:xlink="http://www.w3.org/1999/xlink" xmlns:inkscape="http://www.inkscape.org/namespaces/inkscape" version="1.1" width="409" height="254.92063" viewBox="0 0 409 254.92063">
<defs>
<clipPath id="clip_9">
<path transform="matrix(1,0,0,-1,-34,742.7688)" d="M34 487.84819H443V742.7688H34Z" clip-rule="evenodd"/>
</clipPath>
<clipPath id="clip_10">
<path transform="matrix(1,0,0,-1,-34,742.7688)" d="M0 0H612V803.25H0Z"/>
</clipPath>
<clipPath id="clip_11">
<path transform="matrix(1,0,0,-1,-34,742.7688)" d="M0 0H612V803.25H0Z"/>
</clipPath>
<clipPath id="clip_12">
<path transform="matrix(1,0,0,-1,-34,742.7688)" d="M0 0H612V803.25H0Z"/>
</clipPath>
<clipPath id="clip_13">
<path transform="matrix(1,0,0,-1,-34,742.7688)" d="M0 0H612V803.25H0Z"/>
</clipPath>
<clipPath id="clip_14">
<path transform="matrix(1,0,0,-1,-34,742.7688)" d="M0 0H612V803.25H0Z"/>
</clipPath>
<clipPath id="clip_15">
<path transform="matrix(1,0,0,-1,-34,742.7688)" d="M91.55822 492.2361C91.53929 491.7964 91.16751 491.4553 90.72781 491.4742 90.28812 491.4931 89.94702 491.8649 89.96594 492.3046L99.69194 718.2449C99.71087 718.6845 100.0827 719.0256 100.5223 719.0067 100.962 718.9878 101.3031 718.616 101.2842 718.1763Z"/>
</clipPath>
<clipPath id="clip_16">
<path transform="matrix(1,0,0,-1,-34,742.7688)" d="M0 0H612V803.25H0Z"/>
</clipPath>
<clipPath id="clip_17">
<path transform="matrix(1,0,0,-1,-34,742.7688)" d="M43.03915 632.9192C42.89998 633.3367 43.12562 633.788 43.54314 633.9272 43.96066 634.0663 44.41194 633.8407 44.55112 633.4232L91.51806 492.5223C91.65724 492.1048 91.43159 491.6535 91.01408 491.5143 90.59656 491.3752 90.14527 491.6008 90.0061 492.0183Z"/>
</clipPath>
<clipPath id="clip_18">
<path transform="matrix(1,0,0,-1,-34,742.7688)" d="M0 0H612V803.25H0Z"/>
</clipPath>
<clipPath id="clip_19">
<path transform="matrix(1,0,0,-1,-34,742.7688)" d="M0 0H612V803.25H0Z"/>
</clipPath>
<clipPath id="clip_20">
<path transform="matrix(1,0,0,-1,-34,742.7688)" d="M0 0H612V803.25H0Z"/>
</clipPath>
<clipPath id="clip_21">
<path transform="matrix(1,0,0,-1,-34,742.7688)" d="M0 0H612V803.25H0Z"/>
</clipPath>
<clipPath id="clip_22">
<path transform="matrix(1,0,0,-1,-34,742.7688)" d="M0 0H612V803.25H0Z"/>
</clipPath>
<clipPath id="clip_23">
<path transform="matrix(1,0,0,-1,-34,742.7688)" d="M0 0H612V803.25H0Z"/>
</clipPath>
<clipPath id="clip_24">
<path transform="matrix(1,0,0,-1,-34,742.7688)" d="M0 0H612V803.25H0Z"/>
</clipPath>
<clipPath id="clip_25">
<path transform="matrix(1,0,0,-1,-34,742.7688)" d="M0 0H612V803.25H0Z"/>
</clipPath>
<clipPath id="clip_26">
<path transform="matrix(1,0,0,-1,-34,742.7688)" d="M0 0H612V803.25H0Z"/>
</clipPath>
<clipPath id="clip_27">
<path transform="matrix(1,0,0,-1,-34,742.7688)" d="M0 0H612V803.25H0Z"/>
</clipPath>
<clipPath id="clip_28">
<path transform="matrix(1,0,0,-1,-34,742.7688)" d="M0 0H612V803.25H0Z"/>
</clipPath>
</defs>
<g clip-path="url(#clip_9)">
<g clip-path="url(#clip_10)">
<g clip-path="url(#clip_11)">
<text xml:space="preserve" transform="matrix(11.86047 0 -0 11.86047 119.7139 80.831607)" font-size="1" font-family="cmr10"><tspan y="-.906" x="0">n</tspan></text>
<text xml:space="preserve" transform="matrix(11.86047 0 -0 11.86047 126.3031 80.831607)" font-size="1" font-family="cmr10"><tspan y="-.906" x="0">o</tspan></text>
<text xml:space="preserve" transform="matrix(11.86047 0 -0 11.86047 132.2333 80.831607)" font-size="1" font-family="cmr10"><tspan y="-.906" x="0">r</tspan></text>
<text xml:space="preserve" transform="matrix(11.86047 0 -0 11.86047 136.8787 80.831607)" font-size="1" font-family="cmr10"><tspan y="-.906" x="0">m</tspan></text>
<text xml:space="preserve" transform="matrix(11.86047 0 -0 11.86047 146.7625 80.831607)" font-size="1" font-family="cmr10"><tspan y="-.906" x="0">a</tspan></text>
<text xml:space="preserve" transform="matrix(11.86047 0 -0 11.86047 152.6927 80.831607)" font-size="1" font-family="cmr10"><tspan y="-.906" x="0">l</tspan></text>
<text xml:space="preserve" transform="matrix(11.86047 0 -0 11.86047 155.9873 80.831607)" font-size="1" font-family="cmr10"><tspan y="-.906" x="0">i</tspan></text>
<text xml:space="preserve" transform="matrix(11.86047 0 -0 11.86047 159.2819 80.831607)" font-size="1" font-family="cmr10"><tspan y="-.906" x="0">z</tspan></text>
<text xml:space="preserve" transform="matrix(11.86047 0 -0 11.86047 164.5532 80.831607)" font-size="1" font-family="cmr10"><tspan y="-.906" x="0">e</tspan></text>
<text fill="#969696" xml:space="preserve" transform="matrix(11.86047 0 -0 11.86047 278.2082 134.88459)" font-size="1" font-family="cmr10"><tspan y="-.906" x="0">0</tspan></text>
<text fill="#969696" xml:space="preserve" transform="matrix(11.01329 0 -0 11.01329 362.2758 134.3161)" font-size="1" font-family="cmr10"><tspan y="-.906" x="0">1</tspan></text>
<g clip-path="url(#clip_12)">
<path transform="matrix(1,0,0,-1,-34,742.7688)" d="M99.82504 718.6526C100.0692 719.0188 100.5639 719.1177 100.9301 718.8736 101.2963 718.6295 101.3952 718.1347 101.1511 717.7686L44.45817 632.7291C44.21405 632.363 43.71929 632.264 43.35311 632.5081 42.98692 632.7523 42.88797 633.247 43.13209 633.6132Z"/>
</g>
<g clip-path="url(#clip_13)">
<path transform="matrix(1,0,0,-1,-34,742.7688)" d="M99.7321 717.9586C99.59292 718.3761 99.81857 718.8274 100.2361 718.9666 100.6536 719.1057 101.1049 718.8801 101.2441 718.4626L129.5905 633.4232C129.7297 633.0056 129.5041 632.5544 129.0865 632.4152 128.669 632.276 128.2177 632.5017 128.0786 632.9192ZM43.79513 632.3743C43.35503 632.3743 42.99826 632.7311 42.99826 633.1712 42.99826 633.6113 43.35503 633.968 43.79513 633.968H128.8345C129.2747 633.968 129.6314 633.6113 129.6314 633.1712 129.6314 632.7311 129.2747 632.3743 128.8345 632.3743Z" fill="#c7c3bd"/>
</g>
<g clip-path="url(#clip_14)">
<path transform="matrix(1,0,0,-1,-34,742.7688)" d="M108.3473 686.1558C107.1769 687.3263 107.1769 689.2239 108.3473 690.3944 109.5177 691.5648 111.4154 691.5648 112.5858 690.3944 113.7563 689.2239 113.7563 687.3263 112.5858 686.1558 111.4154 684.9854 109.5177 684.9854 108.3473 686.1558" fill="#dc267f"/>
<path transform="matrix(1,0,0,-1,-34,742.7688)" d="M94.70813 631.0519C93.53769 632.2223 93.53769 634.12 94.70813 635.2904 95.87858 636.4609 97.77624 636.4609 98.94668 635.2904 100.1171 634.12 100.1171 632.2223 98.94668 631.0519 97.77624 629.8815 95.87858 629.8815 94.70813 631.0519" fill="#ffb000"/>
<path transform="matrix(1,0,0,-1,-34,742.7688)" d="M82.68455 692.5649C81.51411 693.7354 81.51411 695.633 82.68455 696.8035 83.85499 697.9739 85.75266 697.9739 86.9231 696.8035 88.09354 695.633 88.09354 693.7354 86.9231 692.5649 85.75266 691.3945 83.85499 691.3945 82.68455 692.5649" fill="#19b091"/>
<path transform="matrix(1,0,0,-1,-34,742.7688)" d="M98.36881 716.0913C97.19836 717.2618 97.19836 719.1594 98.36881 720.3299 99.53925 721.5003 101.4369 721.5003 102.6074 720.3299 103.7778 719.1594 103.7778 717.2618 102.6074 716.0913 101.4369 714.9209 99.53925 714.9209 98.36881 716.0913" fill="#648fff"/>
<path transform="matrix(1,0,0,-1,-34,742.7688)" d="M126.7153 631.0519C125.5448 632.2223 125.5448 634.12 126.7153 635.2904 127.8857 636.4609 129.7834 636.4609 130.9538 635.2904 132.1243 634.12 132.1243 632.2223 130.9538 631.0519 129.7834 629.8815 127.8857 629.8815 126.7153 631.0519" fill="#648fff"/>
</g>
<g clip-path="url(#clip_15)">
<g clip-path="url(#clip_16)">
<path transform="matrix(1,0,0,-1,-34,742.7688)" d="M91.55822 492.2361 91.55829 492.2376C91.57722 492.6773 91.23612 493.0491 90.79642 493.0681 90.35673 493.087 89.98494 492.7459 89.96601 492.3062L89.96594 492.3046C89.94702 491.8649 90.28812 491.4931 90.72781 491.4742 91.16751 491.4553 91.53929 491.7964 91.55822 492.2361M91.69521 495.4183 91.69527 495.4199C91.7142 495.8596 91.3731 496.2314 90.93341 496.2503 90.49371 496.2692 90.12193 495.9281 90.103 495.4884L90.10293 495.4868C90.084 495.0471 90.4251 494.6753 90.8648 494.6564 91.30449 494.6375 91.67628 494.9786 91.69521 495.4183M91.83219 498.6005 91.83226 498.6021C91.85119 499.0418 91.51009 499.4136 91.07039 499.4325 90.6307 499.4514 90.25891 499.1103 90.23998 498.6707L90.23991 498.6691C90.22099 498.2294 90.56209 497.8576 91.00178 497.8387 91.44148 497.8197 91.81326 498.1608 91.83219 498.6005M91.96917 501.7828 91.96924 501.7843C91.98817 502.224 91.64707 502.5958 91.20738 502.6148 90.76768 502.6337 90.3959 502.2926 90.37697 501.8529L90.3769 501.8513C90.35797 501.4116 90.69907 501.0398 91.13877 501.0209 91.57846 501.002 91.95025 501.3431 91.96917 501.7828M92.10616 504.965 92.10623 504.9666C92.12516 505.4063 91.78406 505.7781 91.34436 505.797 90.90467 505.8159 90.53288 505.4748 90.51395 505.0351L90.51388 505.0335C90.49496 504.5938 90.83606 504.2221 91.27575 504.2031 91.71545 504.1842 92.08723 504.5253 92.10616 504.965M92.24314 508.1472 92.24321 508.1488C92.26214 508.5885 91.92104 508.9603 91.48135 508.9792 91.04165 508.9982 90.66987 508.6571 90.65094 508.2174L90.65087 508.2158C90.63194 507.7761 90.97304 507.4043 91.41274 507.3854 91.85243 507.3664 92.22422 507.7075 92.24314 508.1472M92.38013 511.3295 92.3802 511.3311C92.39913 511.7707 92.05803 512.1425 91.61833 512.1615 91.17864 512.1804 90.80685 511.8393 90.78792 511.3996L90.78785 511.398C90.76893 510.9583 91.11003 510.5865 91.54972 510.5676 91.98942 510.5487 92.3612 510.8898 92.38013 511.3295M92.51711 514.5117 92.51718 514.5133C92.53611 514.953 92.19501 515.3248 91.75532 515.3437 91.31562 515.3626 90.94383 515.0215 90.92491 514.5818L90.92484 514.5802C90.90591 514.1405 91.24701 513.7688 91.68671 513.7498 92.1264 513.7309 92.49819 514.072 92.51711 514.5117M92.6541 517.6939 92.65417 517.6955C92.6731 518.1352 92.332 518.507 91.8923 518.5259 91.45261 518.5449 91.08082 518.2038 91.06189 517.7641L91.06182 517.7625C91.0429 517.3228 91.384 516.951 91.82369 516.9321 92.26339 516.9131 92.63517 517.2542 92.6541 517.6939M92.79108 520.8762 92.79115 520.8778C92.81008 521.3174 92.46898 521.6892 92.02929 521.7082 91.58959 521.7271 91.2178 521.386 91.19888 520.9463L91.19881 520.9447C91.17988 520.505 91.52098 520.1332 91.96068 520.1143 92.40037 520.0954 92.77216 520.4365 92.79108 520.8762M92.92807 524.0584 92.92814 524.06C92.94707 524.4997 92.60597 524.8715 92.16627 524.8904 91.72658 524.9093 91.35479 524.5682 91.33586 524.1285L91.33579 524.1269C91.31687 523.6872 91.65797 523.3155 92.09766 523.2965 92.53735 523.2776 92.90914 523.6187 92.92807 524.0584M93.06505 527.2406 93.06512 527.2422C93.08405 527.6819 92.74295 528.0537 92.30326 528.0726 91.86356 528.0916 91.49177 527.7505 91.47285 527.3108L91.47278 527.3092C91.45385 526.8695 91.79495 526.4977 92.23465 526.4788 92.67434 526.4598 93.04613 526.8009 93.06505 527.2406M93.20204 530.4229 93.20211 530.4245C93.22103 530.8642 92.87994 531.2359 92.44024 531.2549 92.00055 531.2738 91.62876 530.9327 91.60983 530.493L91.60976 530.4914C91.59084 530.0517 91.93194 529.6799 92.37163 529.661 92.81132 529.6421 93.18311 529.9832 93.20204 530.4229M93.33902 533.6051 93.33909 533.6067C93.35802 534.0464 93.01692 534.4182 92.57723 534.4371 92.13753 534.456 91.76574 534.1149 91.74682 533.6752L91.74675 533.6736C91.72782 533.234 92.06892 532.8622 92.50861 532.8432 92.94831 532.8243 93.3201 533.1654 93.33902 533.6051M93.47601 536.7873 93.47608 536.7889C93.495 537.2286 93.15391 537.6004 92.71421 537.6193 92.27452 537.6383 91.90273 537.2972 91.8838 536.8575L91.88373 536.8559C91.86481 536.4162 92.20591 536.0444 92.6456 536.0255 93.08529 536.0065 93.45708 536.3476 93.47601 536.7873M93.61299 539.9696 93.61306 539.9712C93.63199 540.4109 93.29089 540.7826 92.8512 540.8016 92.4115 540.8205 92.03971 540.4794 92.02079 540.0397L92.02072 540.0381C92.00179 539.5984 92.34289 539.2266 92.78258 539.2077 93.22228 539.1888 93.59407 539.5299 93.61299 539.9696M93.74998 543.1518 93.75005 543.1534C93.76897 543.5931 93.42788 543.9649 92.98818 543.9838 92.54849 544.0027 92.1767 543.6616 92.15777 543.2219L92.1577 543.2204C92.13878 542.7807 92.47987 542.4089 92.91957 542.3899 93.35926 542.371 93.73105 542.7121 93.74998 543.1518M93.88696 546.334 93.88703 546.3356C93.90596 546.7753 93.56486 547.1471 93.12517 547.166 92.68547 547.185 92.31368 546.8439 92.29476 546.4042L92.29469 546.4026C92.27576 545.9629 92.61686 545.5911 93.05655 545.5722 93.49625 545.5532 93.86804 545.8943 93.88696 546.334M94.02395 549.5163 94.02402 549.5179C94.04294 549.9576 93.70184 550.3293 93.26215 550.3483 92.82246 550.3672 92.45067 550.0261 92.43174 549.5864L92.43167 549.5848C92.41275 549.1451 92.75384 548.7733 93.19354 548.7544 93.63323 548.7355 94.00502 549.0766 94.02395 549.5163M94.16093 552.6985 94.161 552.7001C94.17993 553.1398 93.83883 553.5116 93.39913 553.5305 92.95944 553.5494 92.58765 553.2083 92.56873 552.7686L92.56866 552.7671C92.54973 552.3274 92.89083 551.9556 93.33052 551.9366 93.77022 551.9177 94.14201 552.2588 94.16093 552.6985M94.29792 555.8807 94.29799 555.8823C94.31691 556.322 93.97581 556.6938 93.53612 556.7127 93.09643 556.7317 92.72464 556.3906 92.70571 555.9509L92.70564 555.9493C92.68672 555.5096 93.02781 555.1378 93.46751 555.1189 93.9072 555.1 94.27899 555.4411 94.29792 555.8807M94.4349 559.063 94.43497 559.0646C94.4539 559.5043 94.1128 559.8761 93.6731 559.895 93.23341 559.9139 92.86162 559.5728 92.8427 559.1331L92.84263 559.1315C92.8237 558.6918 93.1648 558.32 93.60449 558.3011 94.04419 558.2822 94.41598 558.6233 94.4349 559.063M94.57189 562.2452 94.57196 562.2468C94.59088 562.6865 94.24978 563.0583 93.81009 563.0772 93.37039 563.0961 92.99861 562.755 92.97968 562.3153L92.97961 562.3138C92.96068 561.8741 93.30178 561.5023 93.74148 561.4834 94.18117 561.4644 94.55296 561.8055 94.57189 562.2452M94.70887 565.4275 94.70894 565.429C94.72787 565.8687 94.38677 566.2405 93.94707 566.2595 93.50738 566.2784 93.13559 565.9373 93.11667 565.4976L93.1166 565.496C93.09767 565.0563 93.43877 564.6845 93.87846 564.6656 94.31816 564.6467 94.68995 564.9878 94.70887 565.4275M94.84586 568.6097 94.84593 568.6113C94.86485 569.051 94.52375 569.4228 94.08406 569.4417 93.64436 569.4606 93.27258 569.1195 93.25365 568.6798L93.25358 568.6782C93.23465 568.2385 93.57575 567.8667 94.01545 567.8478 94.45514 567.8289 94.82693 568.17 94.84586 568.6097M94.98284 571.7919 94.98291 571.7935C95.00184 572.2332 94.66074 572.605 94.22104 572.6239 93.78135 572.6428 93.40956 572.3017 93.39064 571.8621L93.39057 571.8605C93.37164 571.4208 93.71274 571.049 94.15243 571.0301 94.59213 571.0111 94.96391 571.3522 94.98284 571.7919M95.11983 574.9742 95.1199 574.9757C95.13882 575.4154 94.79772 575.7872 94.35803 575.8062 93.91833 575.8251 93.54655 575.484 93.52762 575.0443L93.52755 575.0427C93.50862 574.603 93.84972 574.2312 94.28942 574.2123 94.72911 574.1934 95.1009 574.5345 95.11983 574.9742M95.25681 578.1564 95.25688 578.158C95.27581 578.5977 94.93471 578.9695 94.49501 578.9884 94.05532 579.0073 93.68353 578.6662 93.66461 578.2265L93.66454 578.2249C93.64561 577.7852 93.98671 577.4135 94.4264 577.3945 94.8661 577.3756 95.23788 577.7167 95.25681 578.1564M95.3938 581.3386 95.39387 581.3402C95.41279 581.7799 95.07169 582.1517 94.632 582.1706 94.1923 582.1896 93.82052 581.8485 93.80159 581.4088L93.80152 581.4072C93.78259 580.9675 94.12369 580.5957 94.56339 580.5768 95.00308 580.5578 95.37487 580.8989 95.3938 581.3386M95.53078 584.5209 95.53085 584.5225C95.54978 584.9621 95.20868 585.3339 94.76898 585.3529 94.32929 585.3718 93.9575 585.0307 93.93858 584.591L93.93851 584.5894C93.91958 584.1497 94.26068 583.7779 94.70037 583.759 95.14007 583.7401 95.51185 584.0812 95.53078 584.5209M95.66777 587.7031 95.66784 587.7047C95.68676 588.1444 95.34566 588.5162 94.90597 588.5351 94.46627 588.554 94.09449 588.2129 94.07556 587.7732L94.07549 587.7716C94.05656 587.3319 94.39766 586.9602 94.83736 586.9412 95.27705 586.9223 95.64884 587.2634 95.66777 587.7031M95.80475 590.8853 95.80482 590.8869C95.82375 591.3266 95.48265 591.6984 95.04295 591.7173 94.60326 591.7363 94.23147 591.3952 94.21254 590.9555L94.21248 590.9539C94.19355 590.5142 94.53465 590.1424 94.97434 590.1235 95.41404 590.1045 95.78582 590.4456 95.80475 590.8853M95.94174 594.0676 95.94181 594.0692C95.96073 594.5089 95.61963 594.8806 95.17994 594.8996 94.74024 594.9185 94.36846 594.5774 94.34953 594.1377L94.34946 594.1361C94.33053 593.6964 94.67163 593.3246 95.11133 593.3057 95.55102 593.2868 95.92281 593.6279 95.94174 594.0676M96.07872 597.2498 96.07879 597.2514C96.09772 597.6911 95.75662 598.0629 95.31692 598.0818 94.87723 598.1007 94.50544 597.7596 94.48651 597.3199L94.48645 597.3183C94.46752 596.8786 94.80862 596.5069 95.24831 596.4879 95.68801 596.469 96.05979 596.8101 96.07872 597.2498M96.21571 600.432 96.21577 600.4336C96.2347 600.8733 95.8936 601.2451 95.45391 601.264 95.01421 601.283 94.64243 600.9419 94.6235 600.5022L94.62343 600.5006C94.6045 600.0609 94.9456 599.6891 95.3853 599.6702 95.82499 599.6512 96.19678 599.9923 96.21571 600.432M96.35269 603.6143 96.35276 603.6159C96.37169 604.0556 96.03059 604.4273 95.59089 604.4463 95.1512 604.4652 94.77941 604.1241 94.76048 603.6844L94.76042 603.6828C94.74149 603.2431 95.08259 602.8713 95.52228 602.8524 95.96198 602.8335 96.33376 603.1746 96.35269 603.6143M96.48968 606.7965 96.48974 606.7981C96.50867 607.2378 96.16757 607.6096 95.72788 607.6285 95.28818 607.6474 94.9164 607.3063 94.89747 606.8666L94.8974 606.865C94.87847 606.4254 95.21957 606.0536 95.65927 606.0346 96.09896 606.0157 96.47075 606.3568 96.48968 606.7965M96.62666 609.9787 96.62673 609.9803C96.64566 610.42 96.30456 610.7918 95.86486 610.8107 95.42517 610.8297 95.05338 610.4886 95.03445 610.0489L95.03439 610.0473C95.01546 609.6076 95.35656 609.2358 95.79625 609.2169 96.23595 609.1979 96.60773 609.539 96.62666 609.9787M96.76365 613.161 96.76371 613.1626C96.78264 613.6023 96.44154 613.974 96.00185 613.993 95.56215 614.0119 95.19037 613.6708 95.17144 613.2311L95.17137 613.2295C95.15244 612.7898 95.49354 612.418 95.93324 612.3991 96.37293 612.3802 96.74472 612.7213 96.76365 613.161M96.90063 616.3432 96.9007 616.3448C96.91963 616.7845 96.57853 617.1563 96.13883 617.1752 95.69914 617.1941 95.32735 616.853 95.30842 616.4133L95.30836 616.4118C95.28943 615.9721 95.63053 615.6003 96.07022 615.5813 96.50992 615.5624 96.8817 615.9035 96.90063 616.3432M97.03762 619.5254 97.03768 619.527C97.05661 619.9667 96.71551 620.3385 96.27582 620.3574 95.83612 620.3764 95.46434 620.0353 95.44541 619.5956L95.44534 619.594C95.42641 619.1543 95.76751 618.7825 96.20721 618.7636 96.6469 618.7446 97.01869 619.0857 97.03762 619.5254M97.1746 622.7077 97.17467 622.7093C97.1936 623.149 96.8525 623.5208 96.4128 623.5397 95.97311 623.5586 95.60132 623.2175 95.58239 622.7778L95.58233 622.7762C95.5634 622.3365 95.9045 621.9647 96.34419 621.9458 96.78389 621.9269 97.15567 622.268 97.1746 622.7077M97.31159 625.8899 97.31165 625.8915C97.33058 626.3312 96.98948 626.703 96.54979 626.7219 96.11009 626.7408 95.73831 626.3997 95.71938 625.96L95.71931 625.9585C95.70038 625.5188 96.04148 625.147 96.48118 625.128 96.92087 625.1091 97.29266 625.4502 97.31159 625.8899M97.44857 629.0721 97.44864 629.0737C97.46757 629.5134 97.12647 629.8852 96.68677 629.9041 96.24708 629.9231 95.87529 629.582 95.85636 629.1423L95.85629 629.1407C95.83737 628.701 96.17847 628.3292 96.61816 628.3103 97.05786 628.2914 97.42964 628.6325 97.44857 629.0721M97.58556 632.2544 97.58562 632.256C97.60455 632.6957 97.26345 633.0675 96.82376 633.0864 96.38406 633.1053 96.01228 632.7642 95.99335 632.3245L95.99328 632.3229C95.97435 631.8832 96.31545 631.5114 96.75515 631.4925 97.19484 631.4736 97.56663 631.8147 97.58556 632.2544M97.72254 635.4366 97.72261 635.4382C97.74154 635.8779 97.40044 636.2497 96.96074 636.2686 96.52105 636.2875 96.14926 635.9464 96.13033 635.5068L96.13026 635.5052C96.11134 635.0655 96.45244 634.6937 96.89213 634.6748 97.33183 634.6558 97.70361 634.9969 97.72254 635.4366M97.85953 638.6189 97.85959 638.6204C97.87852 639.0601 97.53742 639.4319 97.09773 639.4509 96.65803 639.4698 96.28625 639.1287 96.26732 638.689L96.26725 638.6874C96.24832 638.2477 96.58942 637.8759 97.02912 637.857 97.46881 637.8381 97.8406 638.1792 97.85953 638.6189M97.99651 641.8011 97.99658 641.8027C98.01551 642.2424 97.67441 642.6142 97.23471 642.6331 96.79502 642.652 96.42323 642.3109 96.4043 641.8712L96.40423 641.8696C96.38531 641.4299 96.72641 641.0581 97.1661 641.0392 97.6058 641.0203 97.97758 641.3614 97.99651 641.8011M98.13349 644.9833 98.13356 644.9849C98.15249 645.4246 97.81139 645.7964 97.3717 645.8153 96.932 645.8342 96.56022 645.4931 96.54129 645.0535L96.54122 645.0519C96.52229 644.6122 96.86339 644.2404 97.30309 644.2215 97.74278 644.2025 98.11457 644.5436 98.13349 644.9833M98.27048 648.1656 98.27055 648.1671C98.28948 648.6068 97.94838 648.9786 97.50868 648.9976 97.06899 649.0165 96.6972 648.6754 96.67827 648.2357L96.6782 648.2341C96.65928 647.7944 97.00038 647.4226 97.44007 647.4037 97.87977 647.3848 98.25155 647.7259 98.27048 648.1656M98.40746 651.3478 98.40753 651.3494C98.42646 651.7891 98.08536 652.1609 97.64567 652.1798 97.20597 652.1987 96.83419 651.8576 96.81526 651.4179L96.81519 651.4163C96.79626 650.9766 97.13736 650.6049 97.57706 650.5859 98.01675 650.567 98.38854 650.9081 98.40746 651.3478M98.54445 654.53 98.54452 654.5316C98.56345 654.9713 98.22235 655.3431 97.78265 655.362 97.34296 655.381 96.97117 655.0399 96.95224 654.6002L96.95217 654.5986C96.93325 654.1589 97.27435 653.7871 97.71404 653.7682 98.15374 653.7492 98.52552 654.0903 98.54445 654.53M98.68143 657.7123 98.6815 657.7139C98.70043 658.1535 98.35933 658.5253 97.91964 658.5443 97.47994 658.5632 97.10815 658.2221 97.08923 657.7824L97.08916 657.7808C97.07023 657.3411 97.41133 656.9693 97.85103 656.9504 98.29072 656.9315 98.66251 657.2726 98.68143 657.7123M98.81842 660.8945 98.81849 660.8961C98.83742 661.3358 98.49632 661.7076 98.05662 661.7265 97.61693 661.7454 97.24514 661.4043 97.22621 660.9646L97.22614 660.963C97.20722 660.5233 97.54832 660.1516 97.98801 660.1326 98.42771 660.1137 98.79949 660.4548 98.81842 660.8945M98.9554 664.0767 98.95547 664.0783C98.9744 664.518 98.6333 664.8898 98.19361 664.9087 97.75391 664.9277 97.38212 664.5866 97.3632 664.1469L97.36313 664.1453C97.3442 663.7056 97.6853 663.3338 98.125 663.3149 98.56469 663.2959 98.93648 663.637 98.9554 664.0767M99.09239 667.259 99.09246 667.2606C99.11138 667.7003 98.77029 668.072 98.33059 668.091 97.8909 668.1099 97.51911 667.7688 97.50018 667.3291L97.50011 667.3275C97.48119 666.8878 97.82229 666.516 98.26198 666.4971 98.70167 666.4782 99.07346 666.8193 99.09239 667.259M99.22937 670.4412 99.22944 670.4428C99.24837 670.8825 98.90727 671.2543 98.46758 671.2732 98.02788 671.2921 97.65609 670.951 97.63717 670.5113L97.6371 670.5097C97.61817 670.07 97.95927 669.6983 98.39897 669.6793 98.83866 669.6604 99.21045 670.0015 99.22937 670.4412M99.36636 673.6234 99.36643 673.625C99.38535 674.0647 99.04426 674.4365 98.60456 674.4554 98.16487 674.4744 97.79308 674.1333 97.77415 673.6936L97.77408 673.692C97.75516 673.2523 98.09626 672.8805 98.53595 672.8616 98.97564 672.8426 99.34743 673.1837 99.36636 673.6234M99.50334 676.8057 99.50341 676.8073C99.52234 677.247 99.18124 677.6187 98.74155 677.6377 98.30185 677.6566 97.93006 677.3155 97.91114 676.8758L97.91107 676.8742C97.89214 676.4345 98.23324 676.0627 98.67293 676.0438 99.11263 676.0249 99.48442 676.366 99.50334 676.8057M99.64033 679.9879 99.6404 679.9895C99.65932 680.4292 99.31823 680.801 98.87853 680.8199 98.43884 680.8388 98.06705 680.4977 98.04812 680.058L98.04805 680.0564C98.02913 679.6168 98.37023 679.245 98.80992 679.226 99.24961 679.2071 99.6214 679.5482 99.64033 679.9879M99.77731 683.1701 99.77738 683.1717C99.79631 683.6114 99.45521 683.9832 99.01552 684.0021 98.57582 684.0211 98.20403 683.68 98.18511 683.2403L98.18504 683.2387C98.16611 682.799 98.50721 682.4272 98.9469 682.4083 99.3866 682.3893 99.75839 682.7304 99.77731 683.1701M99.9143 686.3524 99.91437 686.354C99.93329 686.7937 99.59219 687.1654 99.1525 687.1844 98.71281 687.2033 98.34102 686.8622 98.32209 686.4225L98.32202 686.4209C98.3031 685.9812 98.64419 685.6094 99.08389 685.5905 99.52358 685.5716 99.89537 685.9127 99.9143 686.3524M100.0513 689.5346 100.0514 689.5362C100.0703 689.9759 99.72918 690.3477 99.28949 690.3666 98.84979 690.3855 98.478 690.0444 98.45908 689.6047L98.45901 689.6032C98.44008 689.1635 98.78118 688.7917 99.22087 688.7727 99.66057 688.7538 100.0324 689.0949 100.0513 689.5346M100.1883 692.7168V692.7184C100.2073 693.1581 99.86616 693.5299 99.42647 693.5488 98.98678 693.5678 98.61499 693.2267 98.59606 692.787L98.59599 692.7854C98.57707 692.3457 98.91816 691.9739 99.35786 691.955 99.79755 691.9361 100.1693 692.2771 100.1883 692.7168M100.3253 695.8991V695.9007C100.3442 696.3404 100.0031 696.7122 99.56345 696.7311 99.12376 696.75 98.75197 696.4089 98.73305 695.9692L98.73298 695.9676C98.71405 695.5279 99.05515 695.1561 99.49484 695.1372 99.93454 695.1183 100.3063 695.4594 100.3253 695.8991M100.4622 699.0813 100.4623 699.0829C100.4812 699.5226 100.1401 699.8944 99.70044 699.9133 99.26075 699.9322 98.88896 699.5911 98.87003 699.1514L98.86996 699.1499C98.85104 698.7102 99.19213 698.3384 99.63183 698.3194 100.0715 698.3005 100.4433 698.6416 100.4622 699.0813M100.5992 702.2635 100.5993 702.2651C100.6182 702.7048 100.2771 703.0766 99.83742 703.0955 99.39773 703.1145 99.02594 702.7734 99.00702 702.3337L99.00695 702.3321C98.98802 701.8924 99.32912 701.5206 99.76881 701.5017 100.2085 701.4828 100.5803 701.8239 100.5992 702.2635M100.7362 705.4458 100.7363 705.4474C100.7552 705.8871 100.4141 706.2589 99.97441 706.2778 99.53471 706.2967 99.16293 705.9556 99.144 705.5159L99.14393 705.5143C99.125 705.0746 99.4661 704.7028 99.9058 704.6839 100.3455 704.665 100.7173 705.0061 100.7362 705.4458M100.8732 708.628 100.8733 708.6296C100.8922 709.0693 100.5511 709.4411 100.1114 709.46 99.6717 709.4789 99.29991 709.1378 99.28099 708.6982L99.28092 708.6966C99.26199 708.2569 99.60309 707.8851 100.0428 707.8662 100.4825 707.8472 100.8543 708.1883 100.8732 708.628M101.0102 711.8103V711.8118C101.0292 712.2515 100.6881 712.6233 100.2484 712.6423 99.80868 712.6612 99.4369 712.3201 99.41797 711.8804L99.4179 711.8788C99.39897 711.4391 99.74007 711.0673 100.1798 711.0484 100.6195 711.0295 100.9913 711.3706 101.0102 711.8103M101.1472 714.9925V714.9941C101.1662 715.4338 100.8251 715.8056 100.3854 715.8245 99.94567 715.8434 99.57388 715.5023 99.55496 715.0626L99.55489 715.061C99.53596 714.6213 99.87706 714.2495 100.3168 714.2306 100.7564 714.2117 101.1282 714.5528 101.1472 714.9925M101.2841 718.1747 101.2842 718.1763C101.3031 718.616 100.962 718.9878 100.5223 719.0067 100.0827 719.0256 99.71087 718.6845 99.69194 718.2449L99.69187 718.2433C99.67294 717.8036 100.014 717.4318 100.4537 717.4129 100.8934 717.3939 101.2652 717.735 101.2841 718.1747" fill="#c7c3bd"/>
</g>
</g>
<g clip-path="url(#clip_17)">
<g clip-path="url(#clip_18)">
<path transform="matrix(1,0,0,-1,-34,742.7688)" d="M43.03915 632.9192 43.03965 632.9177C43.17882 632.5002 43.63011 632.2745 44.04763 632.4137 44.46514 632.5529 44.69079 633.0041 44.55162 633.4217L44.55112 633.4232C44.41194 633.8407 43.96066 634.0663 43.54314 633.9272 43.12562 633.788 42.89998 633.3367 43.03915 632.9192M44.03844 629.9213 44.03894 629.9198C44.17811 629.5023 44.6294 629.2767 45.04691 629.4158 45.46443 629.555 45.69007 630.0063 45.5509 630.4238L45.5504 630.4253C45.41123 630.8428 44.95994 631.0685 44.54243 630.9293 44.12491 630.7901 43.89927 630.3388 44.03844 629.9213M45.03772 626.9235 45.03822 626.922C45.1774 626.5044 45.62868 626.2788 46.0462 626.418 46.46372 626.5571 46.68936 627.0084 46.55019 627.4259L46.54969 627.4274C46.41052 627.845 45.95923 628.0706 45.54171 627.9314 45.12419 627.7923 44.89855 627.341 45.03772 626.9235M46.03701 623.9256 46.03751 623.9241C46.17668 623.5066 46.62797 623.2809 47.04549 623.4201 47.463 623.5593 47.68865 624.0106 47.54947 624.4281L47.54897 624.4296C47.4098 624.8471 46.95852 625.0727 46.541 624.9336 46.12348 624.7944 45.89784 624.3431 46.03701 623.9256M47.0363 620.9277 47.0368 620.9262C47.17597 620.5087 47.62725 620.2831 48.04477 620.4223 48.46229 620.5614 48.68793 621.0127 48.54876 621.4302L48.54826 621.4317C48.40909 621.8492 47.9578 622.0749 47.54028 621.9357 47.12277 621.7965 46.89712 621.3453 47.0363 620.9277M48.03558 617.9299 48.03608 617.9284C48.17525 617.5109 48.62654 617.2852 49.04406 617.4244 49.46158 617.5636 49.68722 618.0149 49.54805 618.4324L49.54755 618.4339C49.40837 618.8514 48.95709 619.077 48.53957 618.9379 48.12205 618.7987 47.89641 618.3474 48.03558 617.9299M49.03487 614.932 49.03537 614.9305C49.17454 614.513 49.62583 614.2874 50.04334 614.4265 50.46086 614.5657 50.6865 615.017 50.54733 615.4345L50.54683 615.436C50.40766 615.8535 49.95637 616.0792 49.53886 615.94 49.12134 615.8008 48.8957 615.3495 49.03487 614.932M50.03416 611.9342 50.03465 611.9327C50.17383 611.5151 50.62511 611.2895 51.04263 611.4287 51.46015 611.5679 51.68579 612.0191 51.54662 612.4367L51.54612 612.4382C51.40695 612.8557 50.95566 613.0813 50.53814 612.9421 50.12063 612.803 49.89498 612.3517 50.03416 611.9342M51.03344 608.9363 51.03394 608.9348C51.17311 608.5173 51.6244 608.2916 52.04192 608.4308 52.45943 608.57 52.68508 609.0213 52.5459 609.4388L52.54541 609.4403C52.40623 609.8578 51.95495 610.0835 51.53743 609.9443 51.11991 609.8051 50.89427 609.3538 51.03344 608.9363M52.03273 605.9384 52.03323 605.9369C52.1724 605.5194 52.62369 605.2938 53.0412 605.433 53.45872 605.5721 53.68436 606.0234 53.54519 606.4409L53.54469 606.4424C53.40552 606.86 52.95423 607.0856 52.53672 606.9464 52.1192 606.8073 51.89355 606.356 52.03273 605.9384M53.03201 602.9406 53.03251 602.9391C53.17169 602.5216 53.62297 602.2959 54.04049 602.4351 54.45801 602.5743 54.68365 603.0256 54.54448 603.4431L54.54398 603.4446C54.40481 603.8621 53.95352 604.0877 53.536 603.9486 53.11848 603.8094 52.89284 603.3581 53.03201 602.9406M54.0313 599.9427 54.0318 599.9412C54.17097 599.5237 54.62226 599.2981 55.03978 599.4372 55.45729 599.5764 55.68294 600.0277 55.54376 600.4452L55.54326 600.4467C55.40409 600.8642 54.95281 601.0899 54.53529 600.9507 54.11777 600.8115 53.89213 600.3602 54.0313 599.9427M55.03059 596.9449 55.03109 596.9434C55.17026 596.5259 55.62154 596.3002 56.03906 596.4394 56.45658 596.5786 56.68222 597.0298 56.54305 597.4474L56.54255 597.4489C56.40338 597.8664 55.95209 598.092 55.53457 597.9528 55.11706 597.8137 54.89141 597.3624 55.03059 596.9449M56.02987 593.947 56.03037 593.9455C56.16954 593.528 56.62083 593.3024 57.03835 593.4415 57.45586 593.5807 57.68151 594.032 57.54234 594.4495L57.54184 594.451C57.40266 594.8685 56.95138 595.0942 56.53386 594.955 56.11634 594.8158 55.8907 594.3645 56.02987 593.947M57.02916 590.9492 57.02966 590.9477C57.16883 590.5301 57.62012 590.3045 58.03763 590.4437 58.45515 590.5828 58.68079 591.0341 58.54162 591.4516L58.54112 591.4531C58.40195 591.8707 57.95066 592.0963 57.53315 591.9571 57.11563 591.818 56.88999 591.3667 57.02916 590.9492M58.02844 587.9513 58.02894 587.9498C58.16812 587.5323 58.6194 587.3066 59.03692 587.4458 59.45444 587.585 59.68008 588.0363 59.54091 588.4538L59.54041 588.4553C59.40124 588.8728 58.94995 589.0984 58.53243 588.9593 58.11491 588.8201 57.88927 588.3688 58.02844 587.9513M59.02773 584.9534 59.02823 584.9519C59.1674 584.5344 59.61869 584.3088 60.03621 584.448 60.45372 584.5871 60.67937 585.0384 60.54019 585.4559L60.53969 585.4574C60.40052 585.8749 59.94924 586.1006 59.53172 585.9614 59.1142 585.8222 58.88856 585.371 59.02773 584.9534M60.02702 581.9556 60.02752 581.9541C60.16669 581.5366 60.61797 581.3109 61.03549 581.4501 61.45301 581.5893 61.67865 582.0406 61.53948 582.4581L61.53898 582.4596C61.39981 582.8771 60.94852 583.1027 60.531 582.9636 60.11349 582.8244 59.88784 582.3731 60.02702 581.9556M61.0263 578.9577 61.0268 578.9562C61.16597 578.5387 61.61726 578.3131 62.03478 578.4522 62.4523 578.5914 62.67794 579.0427 62.53877 579.4602L62.53827 579.4617C62.39909 579.8792 61.94781 580.1049 61.53029 579.9657 61.11277 579.8265 60.88713 579.3752 61.0263 578.9577M62.02559 575.9599 62.02609 575.9584C62.16526 575.5408 62.61655 575.3152 63.03406 575.4544 63.45158 575.5935 63.67722 576.0448 63.53805 576.4624L63.53755 576.4639C63.39838 576.8814 62.94709 577.107 62.52958 576.9678 62.11206 576.8287 61.88642 576.3774 62.02559 575.9599M63.02488 572.962 63.02537 572.9605C63.16455 572.543 63.61583 572.3173 64.03335 572.4565 64.45087 572.5957 64.67651 573.047 64.53734 573.4645L64.53684 573.466C64.39767 573.8835 63.94638 574.1092 63.52886 573.97 63.11135 573.8308 62.8857 573.3795 63.02488 572.962M64.02416 569.9641 64.02466 569.9626C64.16383 569.5451 64.61512 569.3195 65.03264 569.4587 65.45015 569.5978 65.6758 570.0491 65.53662 570.4666L65.53613 570.4681C65.39695 570.8857 64.94567 571.1113 64.52815 570.9721 64.11063 570.8329 63.88499 570.3817 64.02416 569.9641M65.02345 566.9663 65.02395 566.9648C65.16312 566.5473 65.61441 566.3216 66.03192 566.4608 66.44944 566.6 66.67508 567.0513 66.53591 567.4688L66.53541 567.4703C66.39624 567.8878 65.94495 568.1134 65.52744 567.9743 65.10992 567.8351 64.88427 567.3838 65.02345 566.9663M66.02273 563.9684 66.02323 563.9669C66.16241 563.5494 66.61369 563.3238 67.03121 563.4629 67.44873 563.6021 67.67437 564.0534 67.5352 564.4709L67.5347 564.4724C67.39553 564.8899 66.94424 565.1156 66.52672 564.9764 66.1092 564.8372 65.88356 564.3859 66.02273 563.9684M67.02202 560.9706 67.02252 560.9691C67.16169 560.5516 67.61298 560.3259 68.0305 560.4651 68.44801 560.6043 68.67366 561.0555 68.53448 561.4731L68.53398 561.4746C68.39481 561.8921 67.94352 562.1177 67.52601 561.9785 67.10849 561.8394 66.88285 561.3881 67.02202 560.9706M68.02131 557.9727 68.02181 557.9712C68.16098 557.5537 68.61226 557.3281 69.02978 557.4672 69.4473 557.6064 69.67294 558.0577 69.53377 558.4752L69.53327 558.4767C69.3941 558.8942 68.94281 559.1199 68.52529 558.9807 68.10778 558.8415 67.88213 558.3902 68.02131 557.9727M69.02059 554.9749 69.02109 554.9734C69.16026 554.5558 69.61155 554.3302 70.02907 554.4694 70.44658 554.6085 70.67223 555.0598 70.53306 555.4773L70.53256 555.4788C70.39338 555.8964 69.9421 556.122 69.52458 555.9828 69.10706 555.8437 68.88142 555.3924 69.02059 554.9749M70.01988 551.977 70.02038 551.9755C70.15955 551.558 70.61084 551.3323 71.02835 551.4715 71.44587 551.6107 71.67151 552.062 71.53234 552.4795L71.53184 552.481C71.39267 552.8985 70.94138 553.1241 70.52387 552.985 70.10635 552.8458 69.88071 552.3945 70.01988 551.977M71.01916 548.9791 71.01966 548.9776C71.15884 548.5601 71.61012 548.3345 72.02764 548.4737 72.44516 548.6128 72.6708 549.0641 72.53163 549.4816L72.53113 549.4831C72.39196 549.9006 71.94067 550.1263 71.52315 549.9871 71.10563 549.8479 70.87999 549.3967 71.01916 548.9791M72.01845 545.9813 72.01895 545.9798C72.15812 545.5623 72.60941 545.3366 73.02693 545.4758 73.44444 545.615 73.67009 546.0663 73.53091 546.4838L73.53041 546.4853C73.39124 546.9028 72.93996 547.1284 72.52244 546.9893 72.10492 546.8501 71.87928 546.3988 72.01845 545.9813M73.01774 542.9834 73.01824 542.9819C73.15741 542.5644 73.60869 542.3388 74.02621 542.4779 74.44373 542.6171 74.66937 543.0684 74.5302 543.4859L74.5297 543.4874C74.39053 543.9049 73.93924 544.1306 73.52172 543.9914 73.10421 543.8522 72.87856 543.4009 73.01774 542.9834M74.01702 539.9856 74.01752 539.9841C74.15669 539.5665 74.60798 539.3409 75.0255 539.4801 75.44302 539.6192 75.66866 540.0705 75.52949 540.4881L75.52899 540.4895C75.38981 540.9071 74.93853 541.1327 74.52101 540.9935 74.10349 540.8544 73.87785 540.4031 74.01702 539.9856M75.01631 536.9877 75.01681 536.9862C75.15598 536.5687 75.60727 536.343 76.02478 536.4822 76.4423 536.6214 76.66794 537.0727 76.52877 537.4902L76.52827 537.4917C76.3891 537.9092 75.93781 538.1349 75.5203 537.9957 75.10278 537.8565 74.87714 537.4052 75.01631 536.9877M76.0156 533.9898 76.01609 533.9883C76.15527 533.5708 76.60655 533.3452 77.02407 533.4844 77.44159 533.6235 77.66723 534.0748 77.52806 534.4923L77.52756 534.4938C77.38839 534.9114 76.9371 535.137 76.51958 534.9978 76.10207 534.8586 75.87642 534.4074 76.0156 533.9898M77.01488 530.992 77.01538 530.9905C77.15455 530.573 77.60584 530.3473 78.02336 530.4865 78.44087 530.6257 78.66652 531.077 78.52734 531.4945L78.52685 531.496C78.38767 531.9135 77.93639 532.1391 77.51887 532 77.10135 531.8608 76.87571 531.4095 77.01488 530.992M78.01417 527.9941 78.01467 527.9926C78.15384 527.5751 78.60513 527.3495 79.02264 527.4886 79.44016 527.6278 79.6658 528.0791 79.52663 528.4966L79.52613 528.4981C79.38696 528.9156 78.93567 529.1413 78.51816 529.0021 78.10064 528.8629 77.87499 528.4116 78.01417 527.9941M79.01345 524.9963 79.01395 524.9948C79.15313 524.5773 79.60441 524.3516 80.02193 524.4908 80.43945 524.63 80.66509 525.0812 80.52592 525.4988L80.52542 525.5003C80.38625 525.9178 79.93496 526.1434 79.51744 526.0042 79.09992 525.8651 78.87428 525.4138 79.01345 524.9963M80.01274 521.9984 80.01324 521.9969C80.15241 521.5794 80.6037 521.3538 81.02122 521.4929 81.43873 521.6321 81.66438 522.0834 81.5252 522.5009L81.5247 522.5024C81.38553 522.9199 80.93424 523.1456 80.51673 523.0064 80.09921 522.8672 79.87357 522.4159 80.01274 521.9984M81.01203 519.0006 81.01253 518.9991C81.1517 518.5815 81.60298 518.3559 82.0205 518.4951 82.43802 518.6342 82.66366 519.0855 82.52449 519.503L82.52399 519.5045C82.38482 519.9221 81.93353 520.1477 81.51601 520.0085 81.0985 519.8694 80.87285 519.4181 81.01203 519.0006M82.01131 516.0027 82.01181 516.0012C82.15098 515.5837 82.60227 515.358 83.01979 515.4972 83.4373 515.6364 83.66295 516.0877 83.52378 516.5052L83.52328 516.5067C83.3841 516.9242 82.93282 517.1498 82.5153 517.0107 82.09778 516.8715 81.87214 516.4202 82.01131 516.0027M83.0106 513.0048 83.0111 513.0033C83.15027 512.5858 83.60156 512.3602 84.01907 512.4993 84.43659 512.6385 84.66223 513.0898 84.52306 513.5073L84.52256 513.5088C84.38339 513.9263 83.9321 514.152 83.51459 514.0128 83.09707 513.8736 82.87143 513.4224 83.0106 513.0048M84.00988 510.007 84.01038 510.0055C84.14956 509.588 84.60084 509.3623 85.01836 509.5015 85.43588 509.6407 85.66152 510.0919 85.52235 510.5095L85.52185 510.511C85.38268 510.9285 84.93139 511.1541 84.51387 511.015 84.09635 510.8758 83.87071 510.4245 84.00988 510.007M85.00917 507.0091 85.00967 507.0076C85.14884 506.5901 85.60013 506.3645 86.01765 506.5036 86.43516 506.6428 86.66081 507.0941 86.52163 507.5116L86.52113 507.5131C86.38196 507.9306 85.93068 508.1563 85.51316 508.0171 85.09564 507.8779 84.87 507.4266 85.00917 507.0091M86.00846 504.0113 86.00896 504.0098C86.14813 503.5922 86.59941 503.3666 87.01693 503.5058 87.43445 503.6449 87.66009 504.0962 87.52092 504.5138L87.52042 504.5152C87.38125 504.9328 86.92996 505.1584 86.51244 505.0192 86.09493 504.8801 85.86928 504.4288 86.00846 504.0113M87.00774 501.0134 87.00824 501.0119C87.14741 500.5944 87.5987 500.3687 88.01622 500.5079 88.43374 500.6471 88.65938 501.0984 88.52021 501.5159L88.51971 501.5174C88.38053 501.9349 87.92925 502.1606 87.51173 502.0214 87.09421 501.8822 86.86857 501.4309 87.00774 501.0134M88.00703 498.0155 88.00753 498.014C88.1467 497.5965 88.59799 497.3709 89.0155 497.5101 89.43302 497.6492 89.65866 498.1005 89.51949 498.518L89.51899 498.5195C89.37982 498.937 88.92853 499.1627 88.51102 499.0235 88.0935 498.8843 87.86786 498.4331 88.00703 498.0155M89.00631 495.0177 89.00681 495.0162C89.14599 494.5987 89.59727 494.373 90.01479 494.5122 90.43231 494.6514 90.65795 495.1027 90.51878 495.5202L90.51828 495.5217C90.37911 495.9392 89.92782 496.1648 89.5103 496.0257 89.09279 495.8865 88.86714 495.4352 89.00631 495.0177M90.0056 492.0198 90.0061 492.0183C90.14527 491.6008 90.59656 491.3752 91.01408 491.5143 91.43159 491.6535 91.65724 492.1048 91.51806 492.5223L91.51757 492.5238C91.37839 492.9413 90.92711 493.167 90.50959 493.0278 90.09207 492.8886 89.86643 492.4373 90.0056 492.0198" fill="#c7c3bd"/>
</g>
</g>
<g clip-path="url(#clip_19)">
<path transform="matrix(1,0,0,-1,-34,742.7688)" d="M58.06151 581.895C56.89107 583.0654 56.89107 584.9631 58.06151 586.1335 59.23195 587.3039 61.12961 587.3039 62.30006 586.1335 63.4705 584.9631 63.4705 583.0654 62.30006 581.895 61.12961 580.7245 59.23195 580.7245 58.06151 581.895M345.6833 643.8434C344.5163 645.0104 344.5163 646.9024 345.6833 648.0694 346.8503 649.2364 348.7423 649.2364 349.9093 648.0694 351.0763 646.9024 351.0763 645.0104 349.9093 643.8434 348.7423 642.6764 346.8503 642.6764 345.6833 643.8434" fill="#dc267f"/>
</g>
<g clip-path="url(#clip_20)">
<path transform="matrix(1,0,0,-1,-34,742.7688)" d="M99.72489 718.4398C99.85149 718.8613 100.2958 719.1004 100.7173 718.9738 101.1388 718.8472 101.3779 718.4029 101.2513 717.9814L39.34708 511.8818C39.22048 511.4603 38.77615 511.2212 38.35465 511.3478 37.93315 511.4744 37.69409 511.9187 37.82069 512.3402ZM42.999 633.2054C43.01792 633.6451 43.38971 633.9862 43.82941 633.9673 44.2691 633.9484 44.6102 633.5766 44.59127 633.1369L39.38002 512.0767C39.3611 511.637 38.98931 511.2959 38.54961 511.3149 38.10992 511.3338 37.76882 511.7056 37.78775 512.1453Z"/>
</g>
<g clip-path="url(#clip_21)">
<path transform="matrix(1,0,0,-1,-34,742.7688)" d="M36.46461 509.9917C35.29417 511.1622 35.29417 513.0598 36.46461 514.2303 37.63506 515.4007 39.53272 515.4007 40.70316 514.2303 41.8736 513.0598 41.8736 511.1622 40.70316 509.9917 39.53272 508.8213 37.63506 508.8213 36.46461 509.9917M88.64281 490.151C87.47237 491.3215 87.47237 493.2192 88.64281 494.3896 89.81325 495.56 91.71091 495.56 92.88136 494.3896 94.0518 493.2192 94.0518 491.3215 92.88136 490.151 91.71091 488.9806 89.81325 488.9806 88.64281 490.151" fill="#648fff"/>
<path transform="matrix(1,0,0,-1,-34,742.7688)" d="M40.71116 586.1065C40.10056 586.7171 40.10056 587.707 40.71116 588.3176 41.32175 588.9282 42.31173 588.9282 42.92233 588.3176 43.53293 587.707 43.53293 586.7171 42.92233 586.1065 42.31173 585.4959 41.32175 585.4959 40.71116 586.1065M39.69747 585.0928C38.52703 586.2632 38.52703 588.1609 39.69747 589.3313 40.86791 590.5018 42.76557 590.5018 43.93602 589.3313 45.10646 588.1609 45.10646 586.2632 43.93602 585.0928 42.76557 583.9223 40.86791 583.9223 39.69747 585.0928" fill="#ffb000"/>
<path transform="matrix(1,0,0,-1,-34,742.7688)" d="M98.36881 716.0913C97.19836 717.2618 97.19836 719.1594 98.36881 720.3299 99.53925 721.5003 101.4369 721.5003 102.6074 720.3299 103.7778 719.1594 103.7778 717.2618 102.6074 716.0913 101.4369 714.9209 99.53925 714.9209 98.36881 716.0913" fill="#648fff"/>
<path transform="matrix(1,0,0,-1,-34,742.7688)" d="M41.67586 631.0519C40.50542 632.2223 40.50542 634.12 41.67586 635.2904 42.8463 636.4609 44.74396 636.4609 45.91441 635.2904 47.08485 634.12 47.08485 632.2223 45.91441 631.0519 44.74396 629.8815 42.8463 629.8815 41.67586 631.0519" fill="#648fff"/>
<path transform="matrix(1,0,0,-1,-34,742.7688)" d="M58.06151 581.895C56.89107 583.0654 56.89107 584.9631 58.06151 586.1335 59.23195 587.3039 61.12961 587.3039 62.30006 586.1335 63.4705 584.9631 63.4705 583.0654 62.30006 581.895 61.12961 580.7245 59.23195 580.7245 58.06151 581.895" fill="#dc267f"/>
<path transform="matrix(1,0,0,-1,-34,742.7688)" d="M94.70813 631.0519C93.53769 632.2223 93.53769 634.12 94.70813 635.2904 95.87858 636.4609 97.77624 636.4609 98.94668 635.2904 100.1171 634.12 100.1171 632.2223 98.94668 631.0519 97.77624 629.8815 95.87858 629.8815 94.70813 631.0519" fill="#ffb000"/>
</g>
<g clip-path="url(#clip_22)">
<path transform="matrix(1,0,0,-1,-34,742.7688)" d="M100.7698 717.9288C100.6142 717.7732 100.3619 717.7732 100.2063 717.9288 100.0507 718.0844 100.0507 718.3367 100.2063 718.4923L117.1692 735.4552C117.3248 735.6108 117.5771 735.6108 117.7327 735.4552 117.8883 735.2996 117.8883 735.0473 117.7327 734.8917ZM114.9345 737.69 123.239 740.9615 119.9675 732.657ZM185.1393 661.9721C185.3903 662.1865 185.7676 662.1568 185.9819 661.9058 186.1963 661.6548 186.1666 661.2776 185.9157 661.0632 181.0767 656.9299 176.0298 656.9299 170.9763 661.0546 170.7206 661.2634 170.6825 661.6398 170.8913 661.8956 171.1 662.1513 171.4765 662.1894 171.7322 661.9806 176.3422 658.2178 180.7441 658.2178 185.1393 661.9721M157.5692 661.0632C157.3182 660.8488 156.941 660.8785 156.7266 661.1295 156.5122 661.3804 156.5419 661.7577 156.7929 661.9721 161.6318 666.1054 166.6787 666.1054 171.7322 661.9806 171.9879 661.7719 172.026 661.3954 171.8173 661.1397 171.6085 660.884 171.2321 660.8459 170.9763 661.0546 166.3663 664.8175 161.9644 664.8175 157.5692 661.0632M185.9739 661.1203C185.7544 660.8737 185.3767 660.8518 185.1301 661.0712 184.8836 661.2907 184.8616 661.6685 185.0811 661.915 187.3964 664.516 190.2159 664.997 193.3653 663.3358 193.6572 663.1818 193.7691 662.8203 193.6151 662.5284 193.4611 662.2364 193.0996 662.1246 192.8076 662.2786 190.1402 663.6855 187.9203 663.3068 185.9739 661.1203M188.1913 663.1268C187.9579 663.3602 187.9579 663.7386 188.1913 663.972 188.4247 664.2054 188.8031 664.2054 189.0365 663.972 189.2699 663.7386 189.2699 663.3602 189.0365 663.1268 188.8031 662.8934 188.4247 662.8934 188.1913 663.1268M188.1721 667.6775 197.6667 663.5494 188.1721 659.4213ZM253.4505 669.1366C253.0741 669.3648 252.954 669.8548 253.1821 670.2312 253.4103 670.6075 253.9003 670.7276 254.2767 670.4995L314.7279 633.8526C315.1042 633.6245 315.2244 633.1344 314.9962 632.7581 314.7681 632.3817 314.278 632.2616 313.9017 632.4897Z"/>
</g>
<g clip-path="url(#clip_23)">
<path transform="matrix(1,0,0,-1,-34,742.7688)" d="M268.4745 657.5666C267.3075 658.7336 267.3075 660.6256 268.4745 661.7926 269.6415 662.9596 271.5336 662.9596 272.7006 661.7926 273.8676 660.6256 273.8676 658.7336 272.7006 657.5666 271.5336 656.3996 269.6415 656.3996 268.4745 657.5666" fill="#19b091"/>
<path transform="matrix(1,0,0,-1,-34,742.7688)" d="M251.7506 667.705C250.5836 668.872 250.5836 670.7641 251.7506 671.9311 252.9175 673.0981 254.8096 673.0981 255.9766 671.9311 257.1436 670.7641 257.1436 668.872 255.9766 667.705 254.8096 666.538 252.9175 666.538 251.7506 667.705" fill="#648fff"/>
</g>
<g clip-path="url(#clip_24)">
<path transform="matrix(1,0,0,-1,-34,742.7688)" d="M253.6674 669.0457C253.2408 669.1541 252.9829 669.5877 253.0912 670.0143 253.1996 670.4408 253.6332 670.6988 254.0598 670.5904L398.3222 633.9435C398.7488 633.8352 399.0067 633.4015 398.8984 632.975 398.79 632.5484 398.3564 632.2905 397.9298 632.3988Z"/>
</g>
<g clip-path="url(#clip_25)">
<path transform="matrix(1,0,0,-1,-34,742.7688)" d="M228.0472 632.3743C227.6071 632.3743 227.2503 632.7311 227.2503 633.1712 227.2503 633.6113 227.6071 633.968 228.0472 633.968H440.6457C441.0858 633.968 441.4426 633.6113 441.4426 633.1712 441.4426 632.7311 441.0858 632.3743 440.6457 632.3743Z" fill="#969696"/>
<path transform="matrix(1,0,0,-1,-34,742.7688)" d="M251.7506 667.705C250.5836 668.872 250.5836 670.7641 251.7506 671.9311 252.9175 673.0981 254.8096 673.0981 255.9766 671.9311 257.1436 670.7641 257.1436 668.872 255.9766 667.705 254.8096 666.538 252.9175 666.538 251.7506 667.705" fill="#648fff"/>
<path transform="matrix(1,0,0,-1,-34,742.7688)" d="M345.6833 643.8434C344.5163 645.0104 344.5163 646.9024 345.6833 648.0694 346.8503 649.2364 348.7423 649.2364 349.9093 648.0694 351.0763 646.9024 351.0763 645.0104 349.9093 643.8434 348.7423 642.6764 346.8503 642.6764 345.6833 643.8434" fill="#dc267f"/>
</g>
<g clip-path="url(#clip_26)">
<path transform="matrix(1,0,0,-1,-34,742.7688)" d="M344.0198 631.0581C342.8528 632.2251 342.8528 634.1172 344.0198 635.2842 345.1867 636.4512 347.0788 636.4512 348.2458 635.2842 349.4128 634.1172 349.4128 632.2251 348.2458 631.0581 347.0788 629.8911 345.1867 629.8911 344.0198 631.0581M344.0198 631.0581C342.8528 632.2251 342.8528 634.1172 344.0198 635.2842 345.1867 636.4512 347.0788 636.4512 348.2458 635.2842 349.4128 634.1172 349.4128 632.2251 348.2458 631.0581 347.0788 629.8911 345.1867 629.8911 344.0198 631.0581" fill="#ffb000"/>
<path transform="matrix(1,0,0,-1,-34,742.7688)" d="M254.1329 670.1117C254.2951 669.9629 254.3059 669.7108 254.1572 669.5487 254.0084 669.3866 253.7564 669.3757 253.5942 669.5245L235.9175 685.7421C235.7554 685.8909 235.7445 686.1429 235.8933 686.3051 236.0421 686.4672 236.2941 686.4781 236.4563 686.3293ZM233.7809 683.4133 230.1553 691.5695 238.5928 688.6582Z"/>
</g>
<g clip-path="url(#clip_27)">
<path transform="matrix(1,0,0,-1,-34,742.7688)" d="M314.3148 632.3743C313.8747 632.3743 313.5179 632.7311 313.5179 633.1712 313.5179 633.6113 313.8747 633.968 314.3148 633.968H398.126C398.5661 633.968 398.9229 633.6113 398.9229 633.1712 398.9229 632.7311 398.5661 632.3743 398.126 632.3743Z"/>
</g>
<g clip-path="url(#clip_28)">
<path transform="matrix(1,0,0,-1,-34,742.7688)" d="M396.013 631.0581C394.846 632.2251 394.846 634.1172 396.013 635.2842 397.18 636.4512 399.0721 636.4512 400.2391 635.2842 401.4061 634.1172 401.4061 632.2251 400.2391 631.0581 399.0721 629.8911 397.18 629.8911 396.013 631.0581M312.2018 631.0581C311.0348 632.2251 311.0348 634.1172 312.2018 635.2842 313.3688 636.4512 315.2608 636.4512 316.4278 635.2842 317.5948 634.1172 317.5948 632.2251 316.4278 631.0581 315.2608 629.8911 313.3688 629.8911 312.2018 631.0581" fill="#648fff"/>
</g>
</g>
</g>
</g>
</svg>
