<svg xmlns="http://www.w3.org/2000/svg" xmlns:xlink="http://www.w3.org/1999/xlink" xmlns:inkscape="http://www.inkscape.org/namespaces/inkscape" version="1.1" width="450.5" height="270.4158" viewBox="0 0 450.5 270.4158">
<defs>
<clipPath id="clip_0">
<path transform="matrix(1,0,0,-1,-63.5,742.7688)" d="M63.5 472.353H514V742.7688H63.5Z" clip-rule="evenodd"/>
</clipPath>
<clipPath id="clip_1">
<path transform="matrix(1,0,0,-1,-63.5,742.7688)" d="M0 0H612V803.25H0Z"/>
</clipPath>
<clipPath id="clip_2">
<path transform="matrix(1,0,0,-1,-63.5,742.7688)" d="M0 0H612V803.25H0Z"/>
</clipPath>
<clipPath id="clip_3">
<path transform="matrix(1,0,0,-1,-63.5,742.7688)" d="M0 0H612V803.25H0Z"/>
</clipPath>
<clipPath id="clip_4">
<path transform="matrix(1,0,0,-1,-63.5,742.7688)" d="M0 0H612V803.25H0Z"/>
</clipPath>
<clipPath id="clip_5">
<path transform="matrix(1,0,0,-1,-63.5,742.7688)" d="M0 0H612V803.25H0Z"/>
</clipPath>
<clipPath id="clip_6">
<path transform="matrix(1,0,0,-1,-63.5,742.7688)" d="M162.4244 492.2361C162.4055 491.7964 162.0337 491.4553 161.594 491.4742 161.1543 491.4931 160.8132 491.8649 160.8321 492.3046L170.5581 718.2449C170.577 718.6845 170.9488 719.0256 171.3885 719.0067 171.8282 718.9878 172.1693 718.616 172.1504 718.1763Z"/>
</clipPath>
<clipPath id="clip_7">
<path transform="matrix(1,0,0,-1,-63.5,742.7688)" d="M0 0H612V803.25H0Z"/>
</clipPath>
<clipPath id="clip_8">
<path transform="matrix(1,0,0,-1,-63.5,742.7688)" d="M113.9053 632.9192C113.7662 633.3367 113.9918 633.788 114.4093 633.9272 114.8268 634.0663 115.2781 633.8407 115.4173 633.4232L162.3842 492.5223C162.5234 492.1048 162.2978 491.6535 161.8803 491.5143 161.4627 491.3752 161.0115 491.6008 160.8723 492.0183Z"/>
</clipPath>
<clipPath id="clip_9">
<path transform="matrix(1,0,0,-1,-63.5,742.7688)" d="M0 0H612V803.25H0Z"/>
</clipPath>
<clipPath id="clip_10">
<path transform="matrix(1,0,0,-1,-63.5,742.7688)" d="M0 0H612V803.25H0Z"/>
</clipPath>
<clipPath id="clip_11">
<path transform="matrix(1,0,0,-1,-63.5,742.7688)" d="M0 0H612V803.25H0Z"/>
</clipPath>
<clipPath id="clip_12">
<path transform="matrix(1,0,0,-1,-63.5,742.7688)" d="M0 0H612V803.25H0Z"/>
</clipPath>
<clipPath id="clip_13">
<path transform="matrix(1,0,0,-1,-63.5,742.7688)" d="M0 0H612V803.25H0Z"/>
</clipPath>
<clipPath id="clip_14">
<path transform="matrix(1,0,0,-1,-63.5,742.7688)" d="M0 0H612V803.25H0Z"/>
</clipPath>
<clipPath id="clip_15">
<path transform="matrix(1,0,0,-1,-63.5,742.7688)" d="M0 0H612V803.25H0Z"/>
</clipPath>
<clipPath id="clip_16">
<path transform="matrix(1,0,0,-1,-63.5,742.7688)" d="M0 0H612V803.25H0Z"/>
</clipPath>
<clipPath id="clip_17">
<path transform="matrix(1,0,0,-1,-63.5,742.7688)" d="M0 0H612V803.25H0Z"/>
</clipPath>
</defs>
<g clip-path="url(#clip_0)">
<g clip-path="url(#clip_1)">
<g clip-path="url(#clip_2)">
<text xml:space="preserve" transform="matrix(11.86047 0 -0 11.86047 161.0801 80.831607)" font-size="1" font-family="cmr10"><tspan y="-.906" x="0">n</tspan></text>
<text xml:space="preserve" transform="matrix(11.86047 0 -0 11.86047 167.6693 80.831607)" font-size="1" font-family="cmr10"><tspan y="-.906" x="0">o</tspan></text>
<text xml:space="preserve" transform="matrix(11.86047 0 -0 11.86047 173.5995 80.831607)" font-size="1" font-family="cmr10"><tspan y="-.906" x="0">r</tspan></text>
<text xml:space="preserve" transform="matrix(11.86047 0 -0 11.86047 178.2449 80.831607)" font-size="1" font-family="cmr10"><tspan y="-.906" x="0">m</tspan></text>
<text xml:space="preserve" transform="matrix(11.86047 0 -0 11.86047 188.1286 80.831607)" font-size="1" font-family="cmr10"><tspan y="-.906" x="0">a</tspan></text>
<text xml:space="preserve" transform="matrix(11.86047 0 -0 11.86047 194.0589 80.831607)" font-size="1" font-family="cmr10"><tspan y="-.906" x="0">l</tspan></text>
<text xml:space="preserve" transform="matrix(11.86047 0 -0 11.86047 197.35349 80.831607)" font-size="1" font-family="cmr10"><tspan y="-.906" x="0">i</tspan></text>
<text xml:space="preserve" transform="matrix(11.86047 0 -0 11.86047 200.6481 80.831607)" font-size="1" font-family="cmr10"><tspan y="-.906" x="0">z</tspan></text>
<text xml:space="preserve" transform="matrix(11.86047 0 -0 11.86047 205.9194 80.831607)" font-size="1" font-family="cmr10"><tspan y="-.906" x="0">e</tspan></text>
<text fill="#969696" xml:space="preserve" transform="matrix(11.86047 0 -0 11.86047 319.5744 134.88459)" font-size="1" font-family="cmr10"><tspan y="-.906" x="0">0</tspan></text>
<text fill="#969696" xml:space="preserve" transform="matrix(11.01329 0 -0 11.01329 403.642 134.3161)" font-size="1" font-family="cmr10"><tspan y="-.906" x="0">1</tspan></text>
<text xml:space="preserve" transform="matrix(12.70764 0 -0 12.70764 99.8004 32.779603)" font-size="1" font-family="cmmi10" font-style="italic"><tspan y="-.906" x="0">z</tspan></text>
<text xml:space="preserve" transform="matrix(11.86047 0 -0 11.86047 74.5497 276.5869)" font-size="1" font-family="Times New Roman, serif" font-style="italic"><tspan y="-.906" x="0">ρ</tspan></text>
<text xml:space="preserve" transform="matrix(8.302325 0 -0 8.302325 80.68179 274.8079)" font-size="1" font-family="cmmi10" font-style="italic"><tspan y="-.906" x="0">b</tspan></text>
<text xml:space="preserve" transform="matrix(11.86047 0 -0 11.86047 86.2216 276.5869)" font-size="1" font-family="cmr10"><tspan y="-.906" x="0">(</tspan></text>
<text xml:space="preserve" transform="matrix(11.86047 0 -0 11.86047 90.834 276.5869)" font-size="1" font-family="cmr10"><tspan y="-.906" x="0">1</tspan></text>
<text xml:space="preserve" transform="matrix(11.86047 0 -0 11.86047 99.399997 276.5869)" font-size="1" font-family="cmsy10" font-style="italic"><tspan y="-.906" x="0">−</tspan></text>
<text xml:space="preserve" transform="matrix(11.86047 0 -0 11.86047 111.2605 276.5869)" font-size="1" font-family="cmmi10" font-style="italic"><tspan y="-.906" x="0">z</tspan></text>
<text xml:space="preserve" transform="matrix(11.86047 0 -0 11.86047 117.297809 276.5869)" font-size="1" font-family="cmr10"><tspan y="-.906" x="0">)</tspan></text>
<text xml:space="preserve" transform="matrix(11.86047 0 -0 11.86047 1.0710831 254.276)" font-size="1" font-family="Times New Roman, serif" font-style="italic"><tspan y="-.906" x="0">ρ</tspan></text>
<text xml:space="preserve" transform="matrix(8.302325 0 -0 8.302325 7.2031176 252.49689)" font-size="1" font-family="cmmi10" font-style="italic"><tspan y="-.906" x="0">a</tspan></text>
<text xml:space="preserve" transform="matrix(11.86047 0 -0 11.86047 13.5683979 254.276)" font-size="1" font-family="cmr10"><tspan y="-.906" x="0">(</tspan></text>
<text xml:space="preserve" transform="matrix(11.86047 0 -0 11.86047 18.180809 254.276)" font-size="1" font-family="Times New Roman, serif" font-style="italic"><tspan y="-.906" x="0">ρ</tspan></text>
<text xml:space="preserve" transform="matrix(8.302325 0 -0 8.302325 24.31285 252.49689)" font-size="1" font-family="cmmi10" font-style="italic"><tspan y="-.906" x="0">b</tspan></text>
<text xml:space="preserve" transform="matrix(11.86047 0 -0 11.86047 27.875939 254.276)" font-size="1" font-family="cmr10"><tspan y="-.906" x="0">(</tspan></text>
<text xml:space="preserve" transform="matrix(11.86047 0 -0 11.86047 32.48835 254.276)" font-size="1" font-family="cmr10"><tspan y="-.906" x="0">1</tspan></text>
<text xml:space="preserve" transform="matrix(11.86047 0 -0 11.86047 41.0543 254.276)" font-size="1" font-family="cmsy10" font-style="italic"><tspan y="-.906" x="0">−</tspan></text>
<text xml:space="preserve" transform="matrix(11.86047 0 -0 11.86047 52.914804 254.276)" font-size="1" font-family="cmmi10" font-style="italic"><tspan y="-.906" x="0">z</tspan></text>
<text xml:space="preserve" transform="matrix(11.86047 0 -0 11.86047 58.952104 254.276)" font-size="1" font-family="cmr10"><tspan y="-.906" x="0">)</tspan></text>
<text xml:space="preserve" transform="matrix(11.86047 0 -0 11.86047 63.5645 254.276)" font-size="1" font-family="cmr10"><tspan y="-.906" x="0">)</tspan></text>
<text xml:space="preserve" transform="matrix(11.86047 0 -0 11.86047 70.81261 254.276)" font-size="1" font-family="cmsy10" font-style="italic"><tspan y="-.906" x="0">−</tspan></text>
<text xml:space="preserve" transform="matrix(11.86047 0 -0 11.86047 82.673099 254.276)" font-size="1" font-family="cmmi10" font-style="italic"><tspan y="-.906" x="0">z</tspan></text>
<g clip-path="url(#clip_3)">
<path transform="matrix(1,0,0,-1,-63.5,742.7688)" d="M170.6912 718.6526C170.9353 719.0188 171.4301 719.1177 171.7963 718.8736 172.1625 718.6295 172.2614 718.1347 172.0173 717.7686L115.3244 632.7291C115.0802 632.363 114.5855 632.264 114.2193 632.5081 113.8531 632.7523 113.7541 633.247 113.9983 633.6132Z"/>
</g>
<g clip-path="url(#clip_4)">
<path transform="matrix(1,0,0,-1,-63.5,742.7688)" d="M170.5983 717.9586C170.4591 718.3761 170.6847 718.8274 171.1023 718.9666 171.5198 719.1057 171.9711 718.8801 172.1102 718.4626L200.4567 633.4232C200.5959 633.0056 200.3702 632.5544 199.9527 632.4152 199.5352 632.276 199.0839 632.5017 198.9447 632.9192ZM114.6613 632.3743C114.2212 632.3743 113.8644 632.7311 113.8644 633.1712 113.8644 633.6113 114.2212 633.968 114.6613 633.968H199.7007C200.1408 633.968 200.4976 633.6113 200.4976 633.1712 200.4976 632.7311 200.1408 632.3743 199.7007 632.3743Z" fill="#c7c3bd"/>
</g>
<g clip-path="url(#clip_5)">
<path transform="matrix(1,0,0,-1,-63.5,742.7688)" d="M179.2135 686.1558C178.043 687.3263 178.043 689.2239 179.2135 690.3944 180.3839 691.5648 182.2816 691.5648 183.452 690.3944 184.6225 689.2239 184.6225 687.3263 183.452 686.1558 182.2816 684.9854 180.3839 684.9854 179.2135 686.1558" fill="#dc267f"/>
<path transform="matrix(1,0,0,-1,-63.5,742.7688)" d="M165.5743 631.0519C164.4039 632.2223 164.4039 634.12 165.5743 635.2904 166.7448 636.4609 168.6424 636.4609 169.8129 635.2904 170.9833 634.12 170.9833 632.2223 169.8129 631.0519 168.6424 629.8815 166.7448 629.8815 165.5743 631.0519" fill="#ffb000"/>
<path transform="matrix(1,0,0,-1,-63.5,742.7688)" d="M153.5507 692.5649C152.3803 693.7354 152.3803 695.633 153.5507 696.8035 154.7212 697.9739 156.6188 697.9739 157.7893 696.8035 158.9597 695.633 158.9597 693.7354 157.7893 692.5649 156.6188 691.3945 154.7212 691.3945 153.5507 692.5649" fill="#19b091"/>
<path transform="matrix(1,0,0,-1,-63.5,742.7688)" d="M169.235 716.0913C168.0645 717.2618 168.0645 719.1594 169.235 720.3299 170.4054 721.5003 172.3031 721.5003 173.4735 720.3299 174.644 719.1594 174.644 717.2618 173.4735 716.0913 172.3031 714.9209 170.4054 714.9209 169.235 716.0913" fill="#648fff"/>
<path transform="matrix(1,0,0,-1,-63.5,742.7688)" d="M197.5815 631.0519C196.411 632.2223 196.411 634.12 197.5815 635.2904 198.7519 636.4609 200.6496 636.4609 201.82 635.2904 202.9904 634.12 202.9904 632.2223 201.82 631.0519 200.6496 629.8815 198.7519 629.8815 197.5815 631.0519" fill="#648fff"/>
</g>
<g clip-path="url(#clip_6)">
<g clip-path="url(#clip_7)">
<path transform="matrix(1,0,0,-1,-63.5,742.7688)" d="M162.4244 492.2361 162.4245 492.2376C162.4434 492.6773 162.1023 493.0491 161.6626 493.0681 161.2229 493.087 160.8511 492.7459 160.8322 492.3062L160.8321 492.3046C160.8132 491.8649 161.1543 491.4931 161.594 491.4742 162.0337 491.4553 162.4055 491.7964 162.4244 492.2361M162.5614 495.4183 162.5615 495.4199C162.5804 495.8596 162.2393 496.2314 161.7996 496.2503 161.3599 496.2692 160.9881 495.9281 160.9692 495.4884L160.9691 495.4868C160.9502 495.0471 161.2913 494.6753 161.731 494.6564 162.1707 494.6375 162.5425 494.9786 162.5614 495.4183M162.6984 498.6005V498.6021C162.7174 499.0418 162.3763 499.4136 161.9366 499.4325 161.4969 499.4514 161.1251 499.1103 161.1062 498.6707L161.1061 498.6691C161.0872 498.2294 161.4283 497.8576 161.868 497.8387 162.3077 497.8197 162.6794 498.1608 162.6984 498.6005M162.8354 501.7828V501.7843C162.8544 502.224 162.5133 502.5958 162.0736 502.6148 161.6339 502.6337 161.2621 502.2926 161.2431 501.8529V501.8513C161.2242 501.4116 161.5653 501.0398 162.0049 501.0209 162.4446 501.002 162.8164 501.3431 162.8354 501.7828M162.9723 504.965 162.9724 504.9666C162.9913 505.4063 162.6502 505.7781 162.2105 505.797 161.7708 505.8159 161.3991 505.4748 161.3801 505.0351V505.0335C161.3611 504.5938 161.7022 504.2221 162.1419 504.2031 162.5816 504.1842 162.9534 504.5253 162.9723 504.965M163.1093 508.1472 163.1094 508.1488C163.1283 508.5885 162.7872 508.9603 162.3475 508.9792 161.9078 508.9982 161.536 508.6571 161.5171 508.2174L161.517 508.2158C161.4981 507.7761 161.8392 507.4043 162.2789 507.3854 162.7186 507.3664 163.0904 507.7075 163.1093 508.1472M163.2463 511.3295 163.2464 511.3311C163.2653 511.7707 162.9242 512.1425 162.4845 512.1615 162.0448 512.1804 161.673 511.8393 161.6541 511.3996L161.654 511.398C161.6351 510.9583 161.9762 510.5865 162.4159 510.5676 162.8556 510.5487 163.2274 510.8898 163.2463 511.3295M163.3833 514.5117 163.3834 514.5133C163.4023 514.953 163.0612 515.3248 162.6215 515.3437 162.1818 515.3626 161.81 515.0215 161.7911 514.5818L161.791 514.5802C161.7721 514.1405 162.1132 513.7688 162.5529 513.7498 162.9926 513.7309 163.3644 514.072 163.3833 514.5117M163.5203 517.6939V517.6955C163.5393 518.1352 163.1982 518.507 162.7585 518.5259 162.3188 518.5449 161.947 518.2038 161.9281 517.7641L161.928 517.7625C161.9091 517.3228 162.2502 516.951 162.6899 516.9321 163.1296 516.9131 163.5014 517.2542 163.5203 517.6939M163.6573 520.8762V520.8778C163.6763 521.3174 163.3352 521.6892 162.8955 521.7082 162.4558 521.7271 162.084 521.386 162.0651 520.9463L162.065 520.9447C162.0461 520.505 162.3872 520.1332 162.8269 520.1143 163.2666 520.0954 163.6383 520.4365 163.6573 520.8762M163.7942 524.0584 163.7943 524.06C163.8132 524.4997 163.4721 524.8715 163.0325 524.8904 162.5928 524.9093 162.221 524.5682 162.202 524.1285V524.1269C162.183 523.6872 162.5241 523.3155 162.9638 523.2965 163.4035 523.2776 163.7753 523.6187 163.7942 524.0584M163.9312 527.2406 163.9313 527.2422C163.9502 527.6819 163.6091 528.0537 163.1694 528.0726 162.7297 528.0916 162.358 527.7505 162.339 527.3108V527.3092C162.32 526.8695 162.6611 526.4977 163.1008 526.4788 163.5405 526.4598 163.9123 526.8009 163.9312 527.2406M164.0682 530.4229 164.0683 530.4245C164.0872 530.8642 163.7461 531.2359 163.3064 531.2549 162.8667 531.2738 162.4949 530.9327 162.476 530.493L162.4759 530.4914C162.457 530.0517 162.7981 529.6799 163.2378 529.661 163.6775 529.6421 164.0493 529.9832 164.0682 530.4229M164.2052 533.6051 164.2053 533.6067C164.2242 534.0464 163.8831 534.4182 163.4434 534.4371 163.0037 534.456 162.6319 534.1149 162.613 533.6752L162.6129 533.6736C162.594 533.234 162.9351 532.8622 163.3748 532.8432 163.8145 532.8243 164.1863 533.1654 164.2052 533.6051M164.3422 536.7873 164.3423 536.7889C164.3612 537.2286 164.0201 537.6004 163.5804 537.6193 163.1407 537.6383 162.7689 537.2972 162.75 536.8575L162.7499 536.8559C162.731 536.4162 163.0721 536.0444 163.5118 536.0255 163.9515 536.0065 164.3233 536.3476 164.3422 536.7873M164.4792 539.9696V539.9712C164.4982 540.4109 164.1571 540.7826 163.7174 540.8016 163.2777 540.8205 162.9059 540.4794 162.887 540.0397L162.8869 540.0381C162.868 539.5984 163.2091 539.2266 163.6488 539.2077 164.0885 539.1888 164.4602 539.5299 164.4792 539.9696M164.6162 543.1518V543.1534C164.6352 543.5931 164.2941 543.9649 163.8544 543.9838 163.4147 544.0027 163.0429 543.6616 163.024 543.2219L163.0239 543.2204C163.005 542.7807 163.3461 542.4089 163.7857 542.3899 164.2254 542.371 164.5972 542.7121 164.6162 543.1518M164.7531 546.334 164.7532 546.3356C164.7721 546.7753 164.431 547.1471 163.9913 547.166 163.5517 547.185 163.1799 546.8439 163.1609 546.4042V546.4026C163.1419 545.9629 163.483 545.5911 163.9227 545.5722 164.3624 545.5532 164.7342 545.8943 164.7531 546.334M164.8901 549.5163 164.8902 549.5179C164.9091 549.9576 164.568 550.3293 164.1283 550.3483 163.6886 550.3672 163.3168 550.0261 163.2979 549.5864V549.5848C163.2789 549.1451 163.62 548.7733 164.0597 548.7544 164.4994 548.7355 164.8712 549.0766 164.8901 549.5163M165.0271 552.6985 165.0272 552.7001C165.0461 553.1398 164.705 553.5116 164.2653 553.5305 163.8256 553.5494 163.4538 553.2083 163.4349 552.7686L163.4348 552.7671C163.4159 552.3274 163.757 551.9556 164.1967 551.9366 164.6364 551.9177 165.0082 552.2588 165.0271 552.6985M165.1641 555.8807 165.1642 555.8823C165.1831 556.322 164.842 556.6938 164.4023 556.7127 163.9626 556.7317 163.5908 556.3906 163.5719 555.9509L163.5718 555.9493C163.5529 555.5096 163.894 555.1378 164.3337 555.1189 164.7734 555.1 165.1452 555.4411 165.1641 555.8807M165.3011 559.063 165.3012 559.0646C165.3201 559.5043 164.979 559.8761 164.5393 559.895 164.0996 559.9139 163.7278 559.5728 163.7089 559.1331L163.7088 559.1315C163.6899 558.6918 164.031 558.32 164.4707 558.3011 164.9104 558.2822 165.2822 558.6233 165.3011 559.063M165.4381 562.2452V562.2468C165.4571 562.6865 165.116 563.0583 164.6763 563.0772 164.2366 563.0961 163.8648 562.755 163.8459 562.3153L163.8458 562.3138C163.8269 561.8741 164.168 561.5023 164.6077 561.4834 165.0474 561.4644 165.4191 561.8055 165.4381 562.2452M165.5751 565.4275V565.429C165.594 565.8687 165.2529 566.2405 164.8133 566.2595 164.3736 566.2784 164.0018 565.9373 163.9828 565.4976V565.496C163.9638 565.0563 164.3049 564.6845 164.7446 564.6656 165.1843 564.6467 165.5561 564.9878 165.5751 565.4275M165.712 568.6097 165.7121 568.6113C165.731 569.051 165.3899 569.4228 164.9502 569.4417 164.5105 569.4606 164.1388 569.1195 164.1198 568.6798V568.6782C164.1008 568.2385 164.4419 567.8667 164.8816 567.8478 165.3213 567.8289 165.6931 568.17 165.712 568.6097M165.849 571.7919 165.8491 571.7935C165.868 572.2332 165.5269 572.605 165.0872 572.6239 164.6475 572.6428 164.2757 572.3017 164.2568 571.8621L164.2567 571.8605C164.2378 571.4208 164.5789 571.049 165.0186 571.0301 165.4583 571.0111 165.8301 571.3522 165.849 571.7919M165.986 574.9742 165.9861 574.9757C166.005 575.4154 165.6639 575.7872 165.2242 575.8062 164.7845 575.8251 164.4127 575.484 164.3938 575.0443L164.3937 575.0427C164.3748 574.603 164.7159 574.2312 165.1556 574.2123 165.5953 574.1934 165.9671 574.5345 165.986 574.9742M166.123 578.1564 166.1231 578.158C166.142 578.5977 165.8009 578.9695 165.3612 578.9884 164.9215 579.0073 164.5497 578.6662 164.5308 578.2265L164.5307 578.2249C164.5118 577.7852 164.8529 577.4135 165.2926 577.3945 165.7323 577.3756 166.1041 577.7167 166.123 578.1564M166.26 581.3386V581.3402C166.279 581.7799 165.9379 582.1517 165.4982 582.1706 165.0585 582.1896 164.6867 581.8485 164.6678 581.4088L164.6677 581.4072C164.6488 580.9675 164.9899 580.5957 165.4296 580.5768 165.8693 580.5578 166.241 580.8989 166.26 581.3386M166.397 584.5209V584.5225C166.416 584.9621 166.0749 585.3339 165.6352 585.3529 165.1955 585.3718 164.8237 585.0307 164.8048 584.591L164.8047 584.5894C164.7858 584.1497 165.1269 583.7779 165.5666 583.759 166.0062 583.7401 166.378 584.0812 166.397 584.5209M166.5339 587.7031 166.534 587.7047C166.5529 588.1444 166.2118 588.5162 165.7721 588.5351 165.3325 588.554 164.9607 588.2129 164.9417 587.7732V587.7716C164.9227 587.3319 165.2638 586.9602 165.7035 586.9412 166.1432 586.9223 166.515 587.2634 166.5339 587.7031M166.6709 590.8853 166.671 590.8869C166.6899 591.3266 166.3488 591.6984 165.9091 591.7173 165.4694 591.7363 165.0977 591.3952 165.0787 590.9555V590.9539C165.0597 590.5142 165.4008 590.1424 165.8405 590.1235 166.2802 590.1045 166.652 590.4456 166.6709 590.8853M166.8079 594.0676 166.808 594.0692C166.8269 594.5089 166.4858 594.8806 166.0461 594.8996 165.6064 594.9185 165.2346 594.5774 165.2157 594.1377L165.2156 594.1361C165.1967 593.6964 165.5378 593.3246 165.9775 593.3057 166.4172 593.2868 166.789 593.6279 166.8079 594.0676M166.9449 597.2498 166.945 597.2514C166.9639 597.6911 166.6228 598.0629 166.1831 598.0818 165.7434 598.1007 165.3716 597.7596 165.3527 597.3199L165.3526 597.3183C165.3337 596.8786 165.6748 596.5069 166.1145 596.4879 166.5542 596.469 166.926 596.8101 166.9449 597.2498M167.0819 600.432 167.082 600.4336C167.1009 600.8733 166.7598 601.2451 166.3201 601.264 165.8804 601.283 165.5086 600.9419 165.4897 600.5022L165.4896 600.5006C165.4707 600.0609 165.8118 599.6891 166.2515 599.6702 166.6912 599.6512 167.063 599.9923 167.0819 600.432M167.2189 603.6143V603.6159C167.2379 604.0556 166.8968 604.4273 166.4571 604.4463 166.0174 604.4652 165.6456 604.1241 165.6267 603.6844L165.6266 603.6828C165.6077 603.2431 165.9488 602.8713 166.3885 602.8524 166.8282 602.8335 167.1999 603.1746 167.2189 603.6143M167.3559 606.7965V606.7981C167.3749 607.2378 167.0338 607.6096 166.5941 607.6285 166.1544 607.6474 165.7826 607.3063 165.7636 606.8666V606.865C165.7447 606.4254 166.0858 606.0536 166.5254 606.0346 166.9651 606.0157 167.3369 606.3568 167.3559 606.7965M167.4928 609.9787 167.4929 609.9803C167.5118 610.42 167.1707 610.7918 166.731 610.8107 166.2913 610.8297 165.9196 610.4886 165.9006 610.0489V610.0473C165.8816 609.6076 166.2227 609.2358 166.6624 609.2169 167.1021 609.1979 167.4739 609.539 167.4928 609.9787M167.6298 613.161 167.6299 613.1626C167.6488 613.6023 167.3077 613.974 166.868 613.993 166.4283 614.0119 166.0565 613.6708 166.0376 613.2311V613.2295C166.0186 612.7898 166.3597 612.418 166.7994 612.3991 167.2391 612.3802 167.6109 612.7213 167.6298 613.161M167.7668 616.3432 167.7669 616.3448C167.7858 616.7845 167.4447 617.1563 167.005 617.1752 166.5653 617.1941 166.1935 616.853 166.1746 616.4133L166.1745 616.4118C166.1556 615.9721 166.4967 615.6003 166.9364 615.5813 167.3761 615.5624 167.7479 615.9035 167.7668 616.3432M167.9038 619.5254 167.9039 619.527C167.9228 619.9667 167.5817 620.3385 167.142 620.3574 166.7023 620.3764 166.3305 620.0353 166.3116 619.5956L166.3115 619.594C166.2926 619.1543 166.6337 618.7825 167.0734 618.7636 167.5131 618.7446 167.8849 619.0857 167.9038 619.5254M168.0408 622.7077V622.7093C168.0598 623.149 167.7187 623.5208 167.279 623.5397 166.8393 623.5586 166.4675 623.2175 166.4486 622.7778L166.4485 622.7762C166.4296 622.3365 166.7707 621.9647 167.2104 621.9458 167.6501 621.9269 168.0219 622.268 168.0408 622.7077M168.1778 625.8899V625.8915C168.1968 626.3312 167.8557 626.703 167.416 626.7219 166.9763 626.7408 166.6045 626.3997 166.5856 625.96L166.5855 625.9585C166.5666 625.5188 166.9077 625.147 167.3474 625.128 167.7871 625.1091 168.1588 625.4502 168.1778 625.8899M168.3148 629.0721V629.0737C168.3337 629.5134 167.9926 629.8852 167.553 629.9041 167.1133 629.9231 166.7415 629.582 166.7225 629.1423V629.1407C166.7035 628.701 167.0446 628.3292 167.4843 628.3103 167.924 628.2914 168.2958 628.6325 168.3148 629.0721M168.4517 632.2544 168.4518 632.256C168.4707 632.6957 168.1296 633.0675 167.6899 633.0864 167.2502 633.1053 166.8785 632.7642 166.8595 632.3245V632.3229C166.8405 631.8832 167.1816 631.5114 167.6213 631.4925 168.061 631.4736 168.4328 631.8147 168.4517 632.2544M168.5887 635.4366 168.5888 635.4382C168.6077 635.8779 168.2666 636.2497 167.8269 636.2686 167.3872 636.2875 167.0154 635.9464 166.9965 635.5068L166.9964 635.5052C166.9775 635.0655 167.3186 634.6937 167.7583 634.6748 168.198 634.6558 168.5698 634.9969 168.5887 635.4366M168.7257 638.6189 168.7258 638.6204C168.7447 639.0601 168.4036 639.4319 167.9639 639.4509 167.5242 639.4698 167.1524 639.1287 167.1335 638.689L167.1334 638.6874C167.1145 638.2477 167.4556 637.8759 167.8953 637.857 168.335 637.8381 168.7068 638.1792 168.7257 638.6189M168.8627 641.8011 168.8628 641.8027C168.8817 642.2424 168.5406 642.6142 168.1009 642.6331 167.6612 642.652 167.2894 642.3109 167.2705 641.8712L167.2704 641.8696C167.2515 641.4299 167.5926 641.0581 168.0323 641.0392 168.472 641.0203 168.8438 641.3614 168.8627 641.8011M168.9997 644.9833V644.9849C169.0187 645.4246 168.6776 645.7964 168.2379 645.8153 167.7982 645.8342 167.4264 645.4931 167.4075 645.0535L167.4074 645.0519C167.3885 644.6122 167.7296 644.2404 168.1693 644.2215 168.609 644.2025 168.9807 644.5436 168.9997 644.9833M169.1367 648.1656V648.1671C169.1557 648.6068 168.8146 648.9786 168.3749 648.9976 167.9352 649.0165 167.5634 648.6754 167.5445 648.2357L167.5444 648.2341C167.5255 647.7944 167.8666 647.4226 168.3063 647.4037 168.7459 647.3848 169.1177 647.7259 169.1367 648.1656M169.2736 651.3478 169.2737 651.3494C169.2926 651.7891 168.9515 652.1609 168.5118 652.1798 168.0722 652.1987 167.7004 651.8576 167.6814 651.4179V651.4163C167.6624 650.9766 168.0035 650.6049 168.4432 650.5859 168.8829 650.567 169.2547 650.9081 169.2736 651.3478M169.4106 654.53 169.4107 654.5316C169.4296 654.9713 169.0885 655.3431 168.6488 655.362 168.2091 655.381 167.8373 655.0399 167.8184 654.6002V654.5986C167.7994 654.1589 168.1405 653.7871 168.5802 653.7682 169.0199 653.7492 169.3917 654.0903 169.4106 654.53M169.5476 657.7123 169.5477 657.7139C169.5666 658.1535 169.2255 658.5253 168.7858 658.5443 168.3461 658.5632 167.9743 658.2221 167.9554 657.7824L167.9553 657.7808C167.9364 657.3411 168.2775 656.9693 168.7172 656.9504 169.1569 656.9315 169.5287 657.2726 169.5476 657.7123M169.6846 660.8945 169.6847 660.8961C169.7036 661.3358 169.3625 661.7076 168.9228 661.7265 168.4831 661.7454 168.1113 661.4043 168.0924 660.9646L168.0923 660.963C168.0734 660.5233 168.4145 660.1516 168.8542 660.1326 169.2939 660.1137 169.6657 660.4548 169.6846 660.8945M169.8216 664.0767 169.8217 664.0783C169.8406 664.518 169.4995 664.8898 169.0598 664.9087 168.6201 664.9277 168.2483 664.5866 168.2294 664.1469L168.2293 664.1453C168.2104 663.7056 168.5515 663.3338 168.9912 663.3149 169.4309 663.2959 169.8027 663.637 169.8216 664.0767M169.9586 667.259V667.2606C169.9776 667.7003 169.6365 668.072 169.1968 668.091 168.7571 668.1099 168.3853 667.7688 168.3664 667.3291L168.3663 667.3275C168.3474 666.8878 168.6885 666.516 169.1282 666.4971 169.5679 666.4782 169.9396 666.8193 169.9586 667.259M170.0956 670.4412V670.4428C170.1145 670.8825 169.7735 671.2543 169.3338 671.2732 168.8941 671.2921 168.5223 670.951 168.5033 670.5113V670.5097C168.4844 670.07 168.8255 669.6983 169.2651 669.6793 169.7048 669.6604 170.0766 670.0015 170.0956 670.4412M170.2325 673.6234 170.2326 673.625C170.2515 674.0647 169.9104 674.4365 169.4707 674.4554 169.031 674.4744 168.6593 674.1333 168.6403 673.6936V673.692C168.6213 673.2523 168.9624 672.8805 169.4021 672.8616 169.8418 672.8426 170.2136 673.1837 170.2325 673.6234M170.3695 676.8057 170.3696 676.8073C170.3885 677.247 170.0474 677.6187 169.6077 677.6377 169.168 677.6566 168.7962 677.3155 168.7773 676.8758L168.7772 676.8742C168.7583 676.4345 169.0994 676.0627 169.5391 676.0438 169.9788 676.0249 170.3506 676.366 170.3695 676.8057M170.5065 679.9879 170.5066 679.9895C170.5255 680.4292 170.1844 680.801 169.7447 680.8199 169.305 680.8388 168.9332 680.4977 168.9143 680.058L168.9142 680.0564C168.8953 679.6168 169.2364 679.245 169.6761 679.226 170.1158 679.2071 170.4876 679.5482 170.5065 679.9879M170.6435 683.1701 170.6436 683.1717C170.6625 683.6114 170.3214 683.9832 169.8817 684.0021 169.442 684.0211 169.0702 683.68 169.0513 683.2403L169.0512 683.2387C169.0323 682.799 169.3734 682.4272 169.8131 682.4083 170.2528 682.3893 170.6246 682.7304 170.6435 683.1701M170.7805 686.3524V686.354C170.7995 686.7937 170.4584 687.1654 170.0187 687.1844 169.579 687.2033 169.2072 686.8622 169.1883 686.4225L169.1882 686.4209C169.1693 685.9812 169.5104 685.6094 169.9501 685.5905 170.3898 685.5716 170.7616 685.9127 170.7805 686.3524M170.9175 689.5346V689.5362C170.9365 689.9759 170.5954 690.3477 170.1557 690.3666 169.716 690.3855 169.3442 690.0444 169.3253 689.6047L169.3252 689.6032C169.3063 689.1635 169.6474 688.7917 170.0871 688.7727 170.5267 688.7538 170.8985 689.0949 170.9175 689.5346M171.0544 692.7168 171.0545 692.7184C171.0734 693.1581 170.7323 693.5299 170.2927 693.5488 169.853 693.5678 169.4812 693.2267 169.4622 692.787V692.7854C169.4432 692.3457 169.7843 691.9739 170.224 691.955 170.6637 691.9361 171.0355 692.2771 171.0544 692.7168M171.1914 695.8991 171.1915 695.9007C171.2104 696.3404 170.8693 696.7122 170.4296 696.7311 169.9899 696.75 169.6182 696.4089 169.5992 695.9692V695.9676C169.5802 695.5279 169.9213 695.1561 170.361 695.1372 170.8007 695.1183 171.1725 695.4594 171.1914 695.8991M171.3284 699.0813 171.3285 699.0829C171.3474 699.5226 171.0063 699.8944 170.5666 699.9133 170.1269 699.9322 169.7551 699.5911 169.7362 699.1514L169.7361 699.1499C169.7172 698.7102 170.0583 698.3384 170.498 698.3194 170.9377 698.3005 171.3095 698.6416 171.3284 699.0813M171.4654 702.2635 171.4655 702.2651C171.4844 702.7048 171.1433 703.0766 170.7036 703.0955 170.2639 703.1145 169.8921 702.7734 169.8732 702.3337L169.8731 702.3321C169.8542 701.8924 170.1953 701.5206 170.635 701.5017 171.0747 701.4828 171.4465 701.8239 171.4654 702.2635M171.6024 705.4458 171.6025 705.4474C171.6214 705.8871 171.2803 706.2589 170.8406 706.2778 170.4009 706.2967 170.0291 705.9556 170.0102 705.5159L170.0101 705.5143C169.9912 705.0746 170.3323 704.7028 170.772 704.6839 171.2117 704.665 171.5835 705.0061 171.6024 705.4458M171.7394 708.628V708.6296C171.7584 709.0693 171.4173 709.4411 170.9776 709.46 170.5379 709.4789 170.1661 709.1378 170.1472 708.6982L170.1471 708.6966C170.1282 708.2569 170.4693 707.8851 170.909 707.8662 171.3487 707.8472 171.7204 708.1883 171.7394 708.628M171.8764 711.8103V711.8118C171.8954 712.2515 171.5543 712.6233 171.1146 712.6423 170.6749 712.6612 170.3031 712.3201 170.2842 711.8804L170.2841 711.8788C170.2652 711.4391 170.6063 711.0673 171.0459 711.0484 171.4856 711.0295 171.8574 711.3706 171.8764 711.8103M172.0133 714.9925 172.0134 714.9941C172.0323 715.4338 171.6912 715.8056 171.2515 715.8245 170.8118 715.8434 170.4401 715.5023 170.4211 715.0626V715.061C170.4021 714.6213 170.7432 714.2495 171.1829 714.2306 171.6226 714.2117 171.9944 714.5528 172.0133 714.9925M172.1503 718.1747 172.1504 718.1763C172.1693 718.616 171.8282 718.9878 171.3885 719.0067 170.9488 719.0256 170.577 718.6845 170.5581 718.2449V718.2433C170.5391 717.8036 170.8802 717.4318 171.3199 717.4129 171.7596 717.3939 172.1314 717.735 172.1503 718.1747" fill="#c7c3bd"/>
</g>
</g>
<g clip-path="url(#clip_8)">
<g clip-path="url(#clip_9)">
<path transform="matrix(1,0,0,-1,-63.5,742.7688)" d="M113.9053 632.9192 113.9058 632.9177C114.045 632.5002 114.4963 632.2745 114.9138 632.4137 115.3313 632.5529 115.557 633.0041 115.4178 633.4217L115.4173 633.4232C115.2781 633.8407 114.8268 634.0663 114.4093 633.9272 113.9918 633.788 113.7662 633.3367 113.9053 632.9192M114.9046 629.9213 114.9051 629.9198C115.0443 629.5023 115.4956 629.2767 115.9131 629.4158 116.3306 629.555 116.5563 630.0063 116.4171 630.4238L116.4166 630.4253C116.2774 630.8428 115.8261 631.0685 115.4086 630.9293 114.9911 630.7901 114.7654 630.3388 114.9046 629.9213M115.9039 626.9235 115.9044 626.922C116.0436 626.5044 116.4949 626.2788 116.9124 626.418 117.3299 626.5571 117.5555 627.0084 117.4164 627.4259L117.4159 627.4274C117.2767 627.845 116.8254 628.0706 116.4079 627.9314 115.9904 627.7923 115.7647 627.341 115.9039 626.9235M116.9032 623.9256 116.9037 623.9241C117.0429 623.5066 117.4941 623.2809 117.9117 623.4201 118.3292 623.5593 118.5548 624.0106 118.4157 624.4281L118.4152 624.4296C118.276 624.8471 117.8247 625.0727 117.4072 624.9336 116.9897 624.7944 116.764 624.3431 116.9032 623.9256M117.9025 620.9277 117.903 620.9262C118.0421 620.5087 118.4934 620.2831 118.911 620.4223 119.3285 620.5614 119.5541 621.0127 119.4149 621.4302L119.4144 621.4317C119.2753 621.8492 118.824 622.0749 118.4065 621.9357 117.9889 621.7965 117.7633 621.3453 117.9025 620.9277M118.9018 617.9299 118.9023 617.9284C119.0414 617.5109 119.4927 617.2852 119.9102 617.4244 120.3278 617.5636 120.5534 618.0149 120.4142 618.4324L120.4137 618.4339C120.2746 618.8514 119.8233 619.077 119.4058 618.9379 118.9882 618.7987 118.7626 618.3474 118.9018 617.9299M119.901 614.932 119.9015 614.9305C120.0407 614.513 120.492 614.2874 120.9095 614.4265 121.327 614.5657 121.5527 615.017 121.4135 615.4345L121.413 615.436C121.2738 615.8535 120.8226 616.0792 120.405 615.94 119.9875 615.8008 119.7619 615.3495 119.901 614.932M120.9003 611.9342 120.9008 611.9327C121.04 611.5151 121.4913 611.2895 121.9088 611.4287 122.3263 611.5679 122.552 612.0191 122.4128 612.4367L122.4123 612.4382C122.2731 612.8557 121.8218 613.0813 121.4043 612.9421 120.9868 612.803 120.7612 612.3517 120.9003 611.9342M121.8996 608.9363 121.9001 608.9348C122.0393 608.5173 122.4906 608.2916 122.9081 608.4308 123.3256 608.57 123.5513 609.0213 123.4121 609.4388L123.4116 609.4403C123.2724 609.8578 122.8211 610.0835 122.4036 609.9443 121.9861 609.8051 121.7604 609.3538 121.8996 608.9363M122.8989 605.9384 122.8994 605.9369C123.0386 605.5194 123.4899 605.2938 123.9074 605.433 124.3249 605.5721 124.5505 606.0234 124.4114 606.4409L124.4109 606.4424C124.2717 606.86 123.8204 607.0856 123.4029 606.9464 122.9854 606.8073 122.7597 606.356 122.8989 605.9384M123.8982 602.9406 123.8987 602.9391C124.0379 602.5216 124.4892 602.2959 124.9067 602.4351 125.3242 602.5743 125.5498 603.0256 125.4107 603.4431L125.4102 603.4446C125.271 603.8621 124.8197 604.0877 124.4022 603.9486 123.9847 603.8094 123.759 603.3581 123.8982 602.9406M124.8975 599.9427 124.898 599.9412C125.0372 599.5237 125.4884 599.2981 125.906 599.4372 126.3235 599.5764 126.5491 600.0277 126.4099 600.4452L126.4094 600.4467C126.2703 600.8642 125.819 601.0899 125.4015 600.9507 124.984 600.8115 124.7583 600.3602 124.8975 599.9427M125.8968 596.9449 125.8973 596.9434C126.0364 596.5259 126.4877 596.3002 126.9052 596.4394 127.3228 596.5786 127.5484 597.0298 127.4092 597.4474L127.4087 597.4489C127.2696 597.8664 126.8183 598.092 126.4008 597.9528 125.9832 597.8137 125.7576 597.3624 125.8968 596.9449M126.8961 593.947 126.8966 593.9455C127.0357 593.528 127.487 593.3024 127.9045 593.4415 128.322 593.5807 128.5477 594.032 128.4085 594.4495L128.408 594.451C128.2688 594.8685 127.8176 595.0942 127.4 594.955 126.9825 594.8158 126.7569 594.3645 126.8961 593.947M127.8953 590.9492 127.8958 590.9477C128.035 590.5301 128.4863 590.3045 128.9038 590.4437 129.3213 590.5828 129.547 591.0341 129.4078 591.4516L129.4073 591.4531C129.2681 591.8707 128.8168 592.0963 128.3993 591.9571 127.9818 591.818 127.7562 591.3667 127.8953 590.9492M128.8946 587.9513 128.8951 587.9498C129.0343 587.5323 129.4856 587.3066 129.9031 587.4458 130.3206 587.585 130.5463 588.0363 130.4071 588.4538L130.4066 588.4553C130.2674 588.8728 129.8161 589.0984 129.3986 588.9593 128.9811 588.8201 128.7555 588.3688 128.8946 587.9513M129.8939 584.9534 129.8944 584.9519C130.0336 584.5344 130.4849 584.3088 130.9024 584.448 131.3199 584.5871 131.5455 585.0384 131.4064 585.4559L131.4059 585.4574C131.2667 585.8749 130.8154 586.1006 130.3979 585.9614 129.9804 585.8222 129.7547 585.371 129.8939 584.9534M130.8932 581.9556 130.8937 581.9541C131.0329 581.5366 131.4842 581.3109 131.9017 581.4501 132.3192 581.5893 132.5448 582.0406 132.4057 582.4581L132.4052 582.4596C132.266 582.8771 131.8147 583.1027 131.3972 582.9636 130.9797 582.8244 130.754 582.3731 130.8932 581.9556M131.8925 578.9577 131.893 578.9562C132.0322 578.5387 132.4834 578.3131 132.901 578.4522 133.3185 578.5914 133.5441 579.0427 133.4049 579.4602L133.4044 579.4617C133.2653 579.8792 132.814 580.1049 132.3965 579.9657 131.979 579.8265 131.7533 579.3752 131.8925 578.9577M132.8918 575.9599 132.8923 575.9584C133.0314 575.5408 133.4827 575.3152 133.9002 575.4544 134.3178 575.5935 134.5434 576.0448 134.4042 576.4624L134.4037 576.4639C134.2646 576.8814 133.8133 577.107 133.3958 576.9678 132.9782 576.8287 132.7526 576.3774 132.8918 575.9599M133.8911 572.962 133.8916 572.9605C134.0307 572.543 134.482 572.3173 134.8995 572.4565 135.317 572.5957 135.5427 573.047 135.4035 573.4645L135.403 573.466C135.2638 573.8835 134.8126 574.1092 134.395 573.97 133.9775 573.8308 133.7519 573.3795 133.8911 572.962M134.8903 569.9641 134.8908 569.9626C135.03 569.5451 135.4813 569.3195 135.8988 569.4587 136.3163 569.5978 136.542 570.0491 136.4028 570.4666L136.4023 570.4681C136.2631 570.8857 135.8118 571.1113 135.3943 570.9721 134.9768 570.8329 134.7512 570.3817 134.8903 569.9641M135.8896 566.9663 135.8901 566.9648C136.0293 566.5473 136.4806 566.3216 136.8981 566.4608 137.3156 566.6 137.5413 567.0513 137.4021 567.4688L137.4016 567.4703C137.2624 567.8878 136.8111 568.1134 136.3936 567.9743 135.9761 567.8351 135.7505 567.3838 135.8896 566.9663M136.8889 563.9684 136.8894 563.9669C137.0286 563.5494 137.4799 563.3238 137.8974 563.4629 138.3149 563.6021 138.5405 564.0534 138.4014 564.4709L138.4009 564.4724C138.2617 564.8899 137.8104 565.1156 137.3929 564.9764 136.9754 564.8372 136.7497 564.3859 136.8889 563.9684M137.8882 560.9706 137.8887 560.9691C138.0279 560.5516 138.4792 560.3259 138.8967 560.4651 139.3142 560.6043 139.5398 561.0555 139.4007 561.4731L139.4002 561.4746C139.261 561.8921 138.8097 562.1177 138.3922 561.9785 137.9747 561.8394 137.749 561.3881 137.8882 560.9706M138.8875 557.9727 138.888 557.9712C139.0272 557.5537 139.4784 557.3281 139.896 557.4672 140.3135 557.6064 140.5391 558.0577 140.3999 558.4752L140.3994 558.4767C140.2603 558.8942 139.809 559.1199 139.3915 558.9807 138.974 558.8415 138.7483 558.3902 138.8875 557.9727M139.8868 554.9749 139.8873 554.9734C140.0264 554.5558 140.4777 554.3302 140.8952 554.4694 141.3128 554.6085 141.5384 555.0598 141.3992 555.4773L141.3987 555.4788C141.2596 555.8964 140.8083 556.122 140.3908 555.9828 139.9732 555.8437 139.7476 555.3924 139.8868 554.9749M140.8861 551.977 140.8866 551.9755C141.0257 551.558 141.477 551.3323 141.8945 551.4715 142.3121 551.6107 142.5377 552.062 142.3985 552.4795L142.398 552.481C142.2588 552.8985 141.8076 553.1241 141.39 552.985 140.9725 552.8458 140.7469 552.3945 140.8861 551.977M141.8853 548.9791 141.8858 548.9776C142.025 548.5601 142.4763 548.3345 142.8938 548.4737 143.3113 548.6128 143.537 549.0641 143.3978 549.4816L143.3973 549.4831C143.2581 549.9006 142.8068 550.1263 142.3893 549.9871 141.9718 549.8479 141.7462 549.3967 141.8853 548.9791M142.8846 545.9813 142.8851 545.9798C143.0243 545.5623 143.4756 545.3366 143.8931 545.4758 144.3106 545.615 144.5363 546.0663 144.3971 546.4838L144.3966 546.4853C144.2574 546.9028 143.8061 547.1284 143.3886 546.9893 142.9711 546.8501 142.7455 546.3988 142.8846 545.9813M143.8839 542.9834 143.8844 542.9819C144.0236 542.5644 144.4749 542.3388 144.8924 542.4779 145.3099 542.6171 145.5356 543.0684 145.3964 543.4859L145.3959 543.4874C145.2567 543.9049 144.8054 544.1306 144.3879 543.9914 143.9704 543.8522 143.7447 543.4009 143.8839 542.9834M144.8832 539.9856 144.8837 539.9841C145.0229 539.5665 145.4742 539.3409 145.8917 539.4801 146.3092 539.6192 146.5348 540.0705 146.3957 540.4881L146.3952 540.4895C146.256 540.9071 145.8047 541.1327 145.3872 540.9935 144.9697 540.8544 144.744 540.4031 144.8832 539.9856M145.8825 536.9877 145.883 536.9862C146.0222 536.5687 146.4734 536.343 146.891 536.4822 147.3085 536.6214 147.5341 537.0727 147.395 537.4902L147.3945 537.4917C147.2553 537.9092 146.804 538.1349 146.3865 537.9957 145.969 537.8565 145.7433 537.4052 145.8825 536.9877M146.8818 533.9898 146.8823 533.9883C147.0214 533.5708 147.4727 533.3452 147.8903 533.4844 148.3078 533.6235 148.5334 534.0748 148.3942 534.4923L148.3937 534.4938C148.2546 534.9114 147.8033 535.137 147.3858 534.9978 146.9682 534.8586 146.7426 534.4074 146.8818 533.9898M147.8811 530.992 147.8816 530.9905C148.0207 530.573 148.472 530.3473 148.8895 530.4865 149.3071 530.6257 149.5327 531.077 149.3935 531.4945L149.393 531.496C149.2539 531.9135 148.8026 532.1391 148.385 532 147.9675 531.8608 147.7419 531.4095 147.8811 530.992M148.8803 527.9941 148.8808 527.9926C149.02 527.5751 149.4713 527.3495 149.8888 527.4886 150.3063 527.6278 150.532 528.0791 150.3928 528.4966L150.3923 528.4981C150.2531 528.9156 149.8019 529.1413 149.3843 529.0021 148.9668 528.8629 148.7412 528.4116 148.8803 527.9941M149.8796 524.9963 149.8801 524.9948C150.0193 524.5773 150.4706 524.3516 150.8881 524.4908 151.3056 524.63 151.5313 525.0812 151.3921 525.4988L151.3916 525.5003C151.2524 525.9178 150.8011 526.1434 150.3836 526.0042 149.9661 525.8651 149.7405 525.4138 149.8796 524.9963M150.8789 521.9984 150.8794 521.9969C151.0186 521.5794 151.4699 521.3538 151.8874 521.4929 152.3049 521.6321 152.5306 522.0834 152.3914 522.5009L152.3909 522.5024C152.2517 522.9199 151.8004 523.1456 151.3829 523.0064 150.9654 522.8672 150.7397 522.4159 150.8789 521.9984M151.8782 519.0006 151.8787 518.9991C152.0179 518.5815 152.4692 518.3559 152.8867 518.4951 153.3042 518.6342 153.5298 519.0855 153.3907 519.503L153.3902 519.5045C153.251 519.9221 152.7997 520.1477 152.3822 520.0085 151.9647 519.8694 151.739 519.4181 151.8782 519.0006M152.8775 516.0027 152.878 516.0012C153.0172 515.5837 153.4684 515.358 153.886 515.4972 154.3035 515.6364 154.5291 516.0877 154.39 516.5052L154.3895 516.5067C154.2503 516.9242 153.799 517.1498 153.3815 517.0107 152.964 516.8715 152.7383 516.4202 152.8775 516.0027M153.8768 513.0048 153.8773 513.0033C154.0164 512.5858 154.4677 512.3602 154.8853 512.4993 155.3028 512.6385 155.5284 513.0898 155.3892 513.5073L155.3887 513.5088C155.2496 513.9263 154.7983 514.152 154.3808 514.0128 153.9632 513.8736 153.7376 513.4224 153.8768 513.0048M154.8761 510.007 154.8766 510.0055C155.0157 509.588 155.467 509.3623 155.8845 509.5015 156.3021 509.6407 156.5277 510.0919 156.3885 510.5095L156.388 510.511C156.2489 510.9285 155.7976 511.1541 155.3801 511.015 154.9625 510.8758 154.7369 510.4245 154.8761 510.007M155.8754 507.0091 155.8758 507.0076C156.015 506.5901 156.4663 506.3645 156.8838 506.5036 157.3013 506.6428 157.527 507.0941 157.3878 507.5116L157.3873 507.5131C157.2481 507.9306 156.7969 508.1563 156.3793 508.0171 155.9618 507.8779 155.7362 507.4266 155.8754 507.0091M156.8746 504.0113 156.8751 504.0098C157.0143 503.5922 157.4656 503.3666 157.8831 503.5058 158.3006 503.6449 158.5263 504.0962 158.3871 504.5138L158.3866 504.5152C158.2474 504.9328 157.7961 505.1584 157.3786 505.0192 156.9611 504.8801 156.7355 504.4288 156.8746 504.0113M157.8739 501.0134 157.8744 501.0119C158.0136 500.5944 158.4649 500.3687 158.8824 500.5079 159.2999 500.6471 159.5256 501.0984 159.3864 501.5159L159.3859 501.5174C159.2467 501.9349 158.7954 502.1606 158.3779 502.0214 157.9604 501.8822 157.7348 501.4309 157.8739 501.0134M158.8732 498.0155 158.8737 498.014C159.0129 497.5965 159.4642 497.3709 159.8817 497.5101 160.2992 497.6492 160.5248 498.1005 160.3857 498.518L160.3852 498.5195C160.246 498.937 159.7947 499.1627 159.3772 499.0235 158.9597 498.8843 158.734 498.4331 158.8732 498.0155M159.8725 495.0177 159.873 495.0162C160.0122 494.5987 160.4635 494.373 160.881 494.5122 161.2985 494.6514 161.5241 495.1027 161.385 495.5202L161.3845 495.5217C161.2453 495.9392 160.794 496.1648 160.3765 496.0257 159.959 495.8865 159.7333 495.4352 159.8725 495.0177M160.8718 492.0198 160.8723 492.0183C161.0115 491.6008 161.4627 491.3752 161.8803 491.5143 162.2978 491.6535 162.5234 492.1048 162.3842 492.5223L162.3837 492.5238C162.2446 492.9413 161.7933 493.167 161.3758 493.0278 160.9583 492.8886 160.7326 492.4373 160.8718 492.0198" fill="#c7c3bd"/>
</g>
</g>
<g clip-path="url(#clip_10)">
<path transform="matrix(1,0,0,-1,-63.5,742.7688)" d="M128.9277 581.895C127.7572 583.0654 127.7572 584.9631 128.9277 586.1335 130.0981 587.3039 131.9958 587.3039 133.1662 586.1335 134.3367 584.9631 134.3367 583.0654 133.1662 581.895 131.9958 580.7245 130.0981 580.7245 128.9277 581.895M416.5495 643.8434C415.3825 645.0104 415.3825 646.9024 416.5495 648.0694 417.7164 649.2364 419.6085 649.2364 420.7755 648.0694 421.9425 646.9024 421.9425 645.0104 420.7755 643.8434 419.6085 642.6764 417.7164 642.6764 416.5495 643.8434" fill="#dc267f"/>
<path transform="matrix(1,0,0,-1,-63.5,742.7688)" d="M159.509 490.151C158.3385 491.3215 158.3385 493.2192 159.509 494.3896 160.6794 495.56 162.5771 495.56 163.7475 494.3896 164.918 493.2192 164.918 491.3215 163.7475 490.151 162.5771 488.9806 160.6794 488.9806 159.509 490.151" fill="#648fff"/>
</g>
<g clip-path="url(#clip_11)">
<path transform="matrix(1,0,0,-1,-63.5,742.7688)" d="M170.5911 718.4398C170.7177 718.8613 171.162 719.1004 171.5835 718.9738 172.005 718.8472 172.2441 718.4029 172.1175 717.9814L110.2133 511.8818C110.0867 511.4603 109.6423 511.2212 109.2208 511.3478 108.7993 511.4744 108.5603 511.9187 108.6869 512.3402ZM113.8652 633.2054C113.8841 633.6451 114.2559 633.9862 114.6956 633.9673 115.1353 633.9484 115.4764 633.5766 115.4575 633.1369L110.2462 512.0767C110.2273 511.637 109.8555 511.2959 109.4158 511.3149 108.9761 511.3338 108.635 511.7056 108.6539 512.1453ZM324.3167 669.1366C323.9403 669.3648 323.8202 669.8548 324.0483 670.2312 324.2765 670.6075 324.7665 670.7276 325.1429 670.4995L385.5941 633.8526C385.9704 633.6245 386.0906 633.1344 385.8624 632.7581 385.6343 632.3817 385.1442 632.2616 384.7679 632.4897Z"/>
</g>
<g clip-path="url(#clip_12)">
<path transform="matrix(1,0,0,-1,-63.5,742.7688)" d="M111.5773 586.1065C110.9667 586.7171 110.9667 587.707 111.5773 588.3176 112.1879 588.9282 113.1779 588.9282 113.7885 588.3176 114.3991 587.707 114.3991 586.7171 113.7885 586.1065 113.1779 585.4959 112.1879 585.4959 111.5773 586.1065M110.5636 585.0928C109.3932 586.2632 109.3932 588.1609 110.5636 589.3313 111.7341 590.5018 113.6318 590.5018 114.8022 589.3313 115.9726 588.1609 115.9726 586.2632 114.8022 585.0928 113.6318 583.9223 111.7341 583.9223 110.5636 585.0928" fill="#ffb000"/>
<path transform="matrix(1,0,0,-1,-63.5,742.7688)" d="M169.235 716.0913C168.0645 717.2618 168.0645 719.1594 169.235 720.3299 170.4054 721.5003 172.3031 721.5003 173.4735 720.3299 174.644 719.1594 174.644 717.2618 173.4735 716.0913 172.3031 714.9209 170.4054 714.9209 169.235 716.0913M112.542 631.0519C111.3716 632.2223 111.3716 634.12 112.542 635.2904 113.7125 636.4609 115.6101 636.4609 116.7806 635.2904 117.951 634.12 117.951 632.2223 116.7806 631.0519 115.6101 629.8815 113.7125 629.8815 112.542 631.0519M322.6167 667.705C321.4497 668.872 321.4497 670.7641 322.6167 671.9311 323.7837 673.0981 325.6758 673.0981 326.8428 671.9311 328.0098 670.7641 328.0098 668.872 326.8428 667.705 325.6758 666.538 323.7837 666.538 322.6167 667.705" fill="#648fff"/>
<path transform="matrix(1,0,0,-1,-63.5,742.7688)" d="M128.9277 581.895C127.7572 583.0654 127.7572 584.9631 128.9277 586.1335 130.0981 587.3039 131.9958 587.3039 133.1662 586.1335 134.3367 584.9631 134.3367 583.0654 133.1662 581.895 131.9958 580.7245 130.0981 580.7245 128.9277 581.895" fill="#dc267f"/>
<path transform="matrix(1,0,0,-1,-63.5,742.7688)" d="M339.3407 657.5666C338.1737 658.7336 338.1737 660.6256 339.3407 661.7926 340.5077 662.9596 342.3998 662.9596 343.5668 661.7926 344.7338 660.6256 344.7338 658.7336 343.5668 657.5666 342.3998 656.3996 340.5077 656.3996 339.3407 657.5666" fill="#19b091"/>
</g>
<g clip-path="url(#clip_13)">
<path transform="matrix(1,0,0,-1,-63.5,742.7688)" d="M165.5743 631.0519C164.4039 632.2223 164.4039 634.12 165.5743 635.2904 166.7448 636.4609 168.6424 636.4609 169.8129 635.2904 170.9833 634.12 170.9833 632.2223 169.8129 631.0519 168.6424 629.8815 166.7448 629.8815 165.5743 631.0519" fill="#ffb000"/>
<path transform="matrix(1,0,0,-1,-63.5,742.7688)" d="M171.636 717.9288C171.4804 717.7732 171.2281 717.7732 171.0725 717.9288 170.9169 718.0844 170.9169 718.3367 171.0725 718.4923L188.0354 735.4552C188.191 735.6108 188.4433 735.6108 188.5989 735.4552 188.7545 735.2996 188.7545 735.0473 188.5989 734.8917ZM185.8006 737.69 194.1051 740.9615 190.8337 732.657ZM256.0055 661.9721C256.2565 662.1865 256.6337 662.1568 256.8481 661.9058 257.0625 661.6548 257.0328 661.2776 256.7818 661.0632 251.9429 656.9299 246.896 656.9299 241.8425 661.0546 241.5868 661.2634 241.5487 661.6398 241.7574 661.8956 241.9662 662.1513 242.3426 662.1894 242.5984 661.9806 247.2084 658.2178 251.6103 658.2178 256.0055 661.9721M228.4354 661.0632C228.1844 660.8488 227.8071 660.8785 227.5928 661.1295 227.3784 661.3804 227.408 661.7577 227.659 661.9721 232.498 666.1054 237.5449 666.1054 242.5984 661.9806 242.8541 661.7719 242.8922 661.3954 242.6834 661.1397 242.4747 660.884 242.0982 660.8459 241.8425 661.0546 237.2325 664.8175 232.8306 664.8175 228.4354 661.0632M256.8401 661.1203C256.6206 660.8737 256.2428 660.8518 255.9963 661.0712 255.7497 661.2907 255.7278 661.6685 255.9473 661.915 258.2626 664.516 261.0821 664.997 264.2314 663.3358 264.5234 663.1818 264.6352 662.8203 264.4812 662.5284 264.3272 662.2364 263.9657 662.1246 263.6738 662.2786 261.0064 663.6855 258.7865 663.3068 256.8401 661.1203M259.0575 663.1268C258.8241 663.3602 258.8241 663.7386 259.0575 663.972 259.2909 664.2054 259.6693 664.2054 259.9027 663.972 260.1361 663.7386 260.1361 663.3602 259.9027 663.1268 259.6693 662.8934 259.2909 662.8934 259.0575 663.1268M259.0382 667.6775 268.5328 663.5494 259.0382 659.4213Z"/>
<path transform="matrix(1,0,0,-1,-63.5,742.7688)" d="M324.5336 669.0457C324.107 669.1541 323.8491 669.5877 323.9574 670.0143 324.0658 670.4408 324.4994 670.6988 324.926 670.5904L469.1884 633.9435C469.615 633.8352 469.8729 633.4015 469.7646 632.975 469.6562 632.5484 469.2226 632.2905 468.796 632.3988Z"/>
</g>
<g clip-path="url(#clip_14)">
<path transform="matrix(1,0,0,-1,-63.5,742.7688)" d="M298.9134 632.3743C298.4733 632.3743 298.1165 632.7311 298.1165 633.1712 298.1165 633.6113 298.4733 633.968 298.9134 633.968H511.5119C511.952 633.968 512.3088 633.6113 512.3088 633.1712 512.3088 632.7311 511.952 632.3743 511.5119 632.3743Z" fill="#969696"/>
<path transform="matrix(1,0,0,-1,-63.5,742.7688)" d="M322.6167 667.705C321.4497 668.872 321.4497 670.7641 322.6167 671.9311 323.7837 673.0981 325.6758 673.0981 326.8428 671.9311 328.0098 670.7641 328.0098 668.872 326.8428 667.705 325.6758 666.538 323.7837 666.538 322.6167 667.705" fill="#648fff"/>
<path transform="matrix(1,0,0,-1,-63.5,742.7688)" d="M416.5495 643.8434C415.3825 645.0104 415.3825 646.9024 416.5495 648.0694 417.7164 649.2364 419.6085 649.2364 420.7755 648.0694 421.9425 646.9024 421.9425 645.0104 420.7755 643.8434 419.6085 642.6764 417.7164 642.6764 416.5495 643.8434" fill="#dc267f"/>
</g>
<g clip-path="url(#clip_15)">
<path transform="matrix(1,0,0,-1,-63.5,742.7688)" d="M414.8859 631.0581C413.7189 632.2251 413.7189 634.1172 414.8859 635.2842 416.0529 636.4512 417.945 636.4512 419.112 635.2842 420.279 634.1172 420.279 632.2251 419.112 631.0581 417.945 629.8911 416.0529 629.8911 414.8859 631.0581M414.8859 631.0581C413.7189 632.2251 413.7189 634.1172 414.8859 635.2842 416.0529 636.4512 417.945 636.4512 419.112 635.2842 420.279 634.1172 420.279 632.2251 419.112 631.0581 417.945 629.8911 416.0529 629.8911 414.8859 631.0581" fill="#ffb000"/>
<path transform="matrix(1,0,0,-1,-63.5,742.7688)" d="M324.9991 670.1117C325.1613 669.9629 325.1721 669.7108 325.0234 669.5487 324.8746 669.3866 324.6226 669.3757 324.4604 669.5245L306.7837 685.7421C306.6216 685.8909 306.6107 686.1429 306.7595 686.3051 306.9082 686.4672 307.1603 686.4781 307.3224 686.3293ZM304.6471 683.4133 301.0215 691.5695 309.459 688.6582Z"/>
</g>
<g clip-path="url(#clip_16)">
<path transform="matrix(1,0,0,-1,-63.5,742.7688)" d="M385.181 632.3743C384.7409 632.3743 384.3841 632.7311 384.3841 633.1712 384.3841 633.6113 384.7409 633.968 385.181 633.968H468.9922C469.4323 633.968 469.7891 633.6113 469.7891 633.1712 469.7891 632.7311 469.4323 632.3743 468.9922 632.3743Z"/>
</g>
<g clip-path="url(#clip_17)">
<path transform="matrix(1,0,0,-1,-63.5,742.7688)" d="M466.8792 631.0581C465.7122 632.2251 465.7122 634.1172 466.8792 635.2842 468.0462 636.4512 469.9383 636.4512 471.1052 635.2842 472.2722 634.1172 472.2722 632.2251 471.1052 631.0581 469.9383 629.8911 468.0462 629.8911 466.8792 631.0581M383.0679 631.0581C381.9009 632.2251 381.9009 634.1172 383.0679 635.2842 384.2349 636.4512 386.127 636.4512 387.294 635.2842 388.461 634.1172 388.461 632.2251 387.294 631.0581 386.127 629.8911 384.2349 629.8911 383.0679 631.0581M107.3308 509.9917C106.1604 511.1622 106.1604 513.0598 107.3308 514.2303 108.5012 515.4007 110.3989 515.4007 111.5693 514.2303 112.7398 513.0598 112.7398 511.1622 111.5693 509.9917 110.3989 508.8213 108.5012 508.8213 107.3308 509.9917" fill="#648fff"/>
</g>
</g>
</g>
</g>
</svg>
