<svg xmlns="http://www.w3.org/2000/svg" xmlns:xlink="http://www.w3.org/1999/xlink" xmlns:inkscape="http://www.inkscape.org/namespaces/inkscape" version="1.1" width="520.5" height="308.90388" viewBox="0 0 520.5 308.90388">
<defs>
<clipPath id="clip_34">
<path transform="matrix(1,0,0,-1,-27,713.278)" d="M27 404.37416H547.5V713.278H27Z" clip-rule="evenodd"/>
</clipPath>
<clipPath id="clip_35">
<path transform="matrix(1,0,0,-1,-27,713.278)" d="M0 0H612V803.25H0Z"/>
</clipPath>
<clipPath id="clip_36">
<path transform="matrix(1,0,0,-1,-27,713.278)" d="M0 0H612V803.25H0Z"/>
</clipPath>
<clipPath id="clip_37">
<path transform="matrix(1,0,0,-1,-27,713.278)" d="M0 0H612V803.25H0Z"/>
</clipPath>
<clipPath id="clip_38">
<path transform="matrix(1,0,0,-1,-27,713.278)" d="M0 0H612V803.25H0Z"/>
</clipPath>
<clipPath id="clip_39">
<path transform="matrix(1,0,0,-1,-27,713.278)" d="M408.0444 456.6791C408.4735 456.581 408.7418 456.1537 408.6438 455.7247 408.5457 455.2956 408.1185 455.0273 407.6894 455.1253 399.4422 457.0098 394.4043 462.1824 392.6776 470.535 392.5885 470.966 392.8657 471.3876 393.2967 471.4767 393.7277 471.5658 394.1493 471.2886 394.2384 470.8577 395.8391 463.1143 400.4072 458.4241 408.0444 456.6791"/>
</clipPath>
<clipPath id="clip_40">
<path transform="matrix(1,0,0,-1,-27,713.278)" d="M0 0H612V803.25H0Z"/>
</clipPath>
<clipPath id="clip_41">
<path transform="matrix(1,0,0,-1,-27,713.278)" d="M0 0H612V803.25H0Z"/>
</clipPath>
<clipPath id="clip_42">
<path transform="matrix(1,0,0,-1,-27,713.278)" d="M405.9676 526.2737C405.7991 525.8672 405.3328 525.6742 404.9263 525.8428 404.5198 526.0113 404.3268 526.4776 404.4954 526.8841 407.3604 533.7942 412.6231 537.4241 420.1599 537.6914 420.5997 537.707 420.9689 537.3631 420.9845 536.9233 421.0001 536.4835 420.6562 536.1143 420.2164 536.0987 413.3014 535.8534 408.593 532.6059 405.9676 526.2737"/>
</clipPath>
<clipPath id="clip_43">
<path transform="matrix(1,0,0,-1,-27,713.278)" d="M0 0H612V803.25H0Z"/>
</clipPath>
<clipPath id="clip_44">
<path transform="matrix(1,0,0,-1,-27,713.278)" d="M0 0H612V803.25H0Z"/>
</clipPath>
<clipPath id="clip_45">
<path transform="matrix(1,0,0,-1,-27,713.278)" d="M479.6932 512.4529C479.4264 512.8029 479.4939 513.3029 479.8439 513.5697 480.1939 513.8365 480.694 513.769 480.9607 513.419 485.3831 507.6169 485.8649 501.3988 482.3968 494.9131 482.1893 494.525 481.7065 494.3786 481.3184 494.5862 480.9303 494.7937 480.7839 495.2765 480.9914 495.6646 484.1661 501.6017 483.7363 507.1483 479.6932 512.4529"/>
</clipPath>
<clipPath id="clip_46">
<path transform="matrix(1,0,0,-1,-27,713.278)" d="M0 0H612V803.25H0Z"/>
</clipPath>
<clipPath id="clip_47">
<path transform="matrix(1,0,0,-1,-27,713.278)" d="M391.056 568.5406C391.3242 568.1916 391.2586 567.6914 390.9096 567.4232 390.5606 567.1551 390.0603 567.2207 389.7922 567.5697L383.3209 575.9927C383.0528 576.3417 383.1183 576.842 383.4673 577.1101 383.8163 577.3783 384.3166 577.3127 384.5847 576.9637Z"/>
</clipPath>
<clipPath id="clip_48">
<path transform="matrix(1,0,0,-1,-27,713.278)" d="M0 0H612V803.25H0Z"/>
</clipPath>
<clipPath id="clip_49">
<path transform="matrix(1,0,0,-1,-27,713.278)" d="M356.8104 418.7448C357.1216 419.056 357.6262 419.056 357.9374 418.7448 358.2486 418.4336 358.2486 417.9291 357.9374 417.6179L350.5454 410.2259C350.2342 409.9147 349.7297 409.9147 349.4185 410.2259 349.1073 410.5371 349.1073 411.0416 349.4185 411.3528Z"/>
</clipPath>
<clipPath id="clip_50">
<path transform="matrix(1,0,0,-1,-27,713.278)" d="M0 0H612V803.25H0Z"/>
</clipPath>
<clipPath id="clip_51">
<path transform="matrix(1,0,0,-1,-27,713.278)" d="M545.0076 518.3515C545.4368 518.4489 545.8636 518.1799 545.961 517.7507 546.0584 517.3215 545.7894 516.8946 545.3603 516.7972L533.9873 514.2164C533.5581 514.119 533.1312 514.388 533.0338 514.8172 532.9364 515.2464 533.2054 515.6733 533.6346 515.7707Z"/>
</clipPath>
<clipPath id="clip_52">
<path transform="matrix(1,0,0,-1,-27,713.278)" d="M0 0H612V803.25H0Z"/>
</clipPath>
<clipPath id="clip_53">
<path transform="matrix(1,0,0,-1,-27,713.278)" d="M0 0H612V803.25H0Z"/>
</clipPath>
</defs>
<g clip-path="url(#clip_34)">
<g clip-path="url(#clip_35)">
<g clip-path="url(#clip_36)">

<text xml:space="preserve" transform="matrix(13.55482 0 -0 13.55482 10.19123 320.9382)" font-size="1" font-family="cmr10"><tspan y="-.906" x="0">-1</tspan></text>
<text xml:space="preserve" transform="matrix(13.55482 0 -0 13.55482 126.6839 320.9382)" font-size="1" font-family="cmr10"><tspan y="-.906" x="0">0</tspan></text>
<text xml:space="preserve" transform="matrix(13.55482 0 -0 13.55482 240.1807 320.9382)" font-size="1" font-family="cmr10"><tspan y="-.906" x="0">1</tspan></text>
<text xml:space="preserve" transform="matrix(12.70764 0 -0 12.70764 71.39821 261.3611)" font-size="1" font-family="cmmi10" font-style="italic"><tspan y="-.906" x="0">S</tspan></text>
<text xml:space="preserve" transform="matrix(8.895349 0 -0 8.895349 79.1905 259.45503)" font-size="1" font-family="cmr10"><tspan y="-.906" x="0">2</tspan></text>
<text xml:space="preserve" transform="matrix(12.70764 0 -0 12.70764 176.7745 261.2232)" font-size="1" font-family="cmmi10" font-style="italic"><tspan y="-.906" x="0">S</tspan></text>
<text xml:space="preserve" transform="matrix(8.895349 0 -0 8.895349 184.5668 259.3171)" font-size="1" font-family="cmr10"><tspan y="-.906" x="0">1</tspan></text>
<text xml:space="preserve" transform="matrix(12.70764 0 -0 12.70764 247.8099 239.24591)" font-size="1" font-family="cmmi10" font-style="italic"><tspan y="-.906" x="0">S</tspan></text>
<text xml:space="preserve" transform="matrix(8.895349 0 -0 8.895349 255.6022 237.33982)" font-size="1" font-family="cmr10"><tspan y="-.906" x="0">4</tspan></text>
<text xml:space="preserve" transform="matrix(12.70764 0 -0 12.70764 1.8310204 239.8085)" font-size="1" font-family="cmmi10" font-style="italic"><tspan y="-.906" x="0">S</tspan></text>
<text xml:space="preserve" transform="matrix(8.895349 0 -0 8.895349 9.62328 237.90232)" font-size="1" font-family="cmr10"><tspan y="-.906" x="0">3</tspan></text>
<g clip-path="url(#clip_37)">
<path transform="matrix(1,0,0,-1,-27,713.278)" d="M148.3153 711.4361C148.3491 711.548 148.4671 711.6114 148.579 711.5777 148.6908 711.5439 148.7542 711.4259 148.7205 711.314L148.7055 711.2769C148.652 711.173 148.5244 711.1322 148.4206 711.1857 148.3167 711.2392 148.2759 711.3668 148.3294 711.4707ZM148.7273 711.3991C148.7413 711.2831 148.6585 711.1777 148.5425 711.1638 148.4265 711.1498 148.3212 711.2326 148.3072 711.3486 148.2936 711.4618 148.3072 711.3897 148.307 711.3971L148.3161 711.3505 148.3592 711.2799C148.3304 711.3102 148.5394 711.2129 148.4893 711.2172 148.3729 711.2273 148.2866 711.3298 148.2967 711.4462 148.3067 711.5626 148.4092 711.6489 148.5257 711.6388 148.6354 711.6293 148.7004 711.534 148.7161 711.4884L148.7298 711.3836 148.7285 711.3626ZM44.59235 420.7691C44.59083 420.329 44.23283 419.9735 43.79274 419.975 43.35264 419.9765 42.99709 420.3345 42.99861 420.7746 43.10754 452.4404 68.81263 478.0624 100.4881 478.0624 132.1635 478.0624 157.8686 452.4404 157.9775 420.7746 157.9791 420.3345 157.6235 419.9765 157.1834 419.975 156.7433 419.9735 156.3853 420.329 156.3838 420.7691 156.2779 451.557 131.2854 476.4687 100.4881 476.4687 69.69077 476.4687 44.69826 451.557 44.59235 420.7691M157.9759 420.7691C157.9744 420.329 157.6164 419.9735 157.1763 419.975 156.7362 419.9765 156.3807 420.3345 156.3822 420.7746 156.4911 452.4404 182.1962 478.0624 213.8716 478.0624 245.5471 478.0624 271.2522 452.4404 271.3611 420.7746 271.3626 420.3345 271.0071 419.9765 270.567 419.975 270.1269 419.9735 269.7689 420.329 269.7674 420.7691 269.6615 451.557 244.669 476.4687 213.8716 476.4687 183.0743 476.4687 158.0818 451.557 157.9759 420.7691M29.6219 419.7758C29.1818 419.7758 28.82502 420.1325 28.82502 420.5726 28.82502 421.0127 29.1818 421.3695 29.6219 421.3695H284.7401C285.1802 421.3695 285.537 421.0127 285.537 420.5726 285.537 420.1325 285.1802 419.7758 284.7401 419.7758ZM42.99826 576.4782C42.99826 576.9183 43.35503 577.2751 43.79513 577.2751 44.23524 577.2751 44.59201 576.9183 44.59201 576.4782V420.5726C44.59201 420.1325 44.23524 419.7758 43.79513 419.7758 43.35503 419.7758 42.99826 420.1325 42.99826 420.5726ZM269.77 576.4782C269.77 576.9183 270.1268 577.2751 270.5669 577.2751 271.007 577.2751 271.3638 576.9183 271.3638 576.4782V420.5726C271.3638 420.1325 271.007 419.7758 270.5669 419.7758 270.1268 419.7758 269.77 420.1325 269.77 420.5726ZM91.71991 484.9068C91.40871 485.218 91.40871 485.7225 91.71991 486.0337 92.03111 486.3449 92.53567 486.3449 92.84687 486.0337L101.0516 477.829C101.3628 477.5178 101.3628 477.0133 101.0516 476.7021 100.7404 476.3909 100.2358 476.3909 99.9246 476.7021ZM99.9246 477.829C100.2358 478.1402 100.7404 478.1402 101.0516 477.829 101.3628 477.5178 101.3628 477.0133 101.0516 476.7021L92.84687 468.4974C92.53567 468.1862 92.03111 468.1862 91.71991 468.4974 91.40871 468.8086 91.40871 469.3132 91.71991 469.6244ZM222.6421 469.6244C222.9533 469.3132 222.9533 468.8086 222.6421 468.4974 222.3309 468.1862 221.8264 468.1862 221.5152 468.4974L213.3105 476.7021C212.9993 477.0133 212.9993 477.5178 213.3105 477.829 213.6217 478.1402 214.1262 478.1402 214.4374 477.829ZM214.4374 476.7021C214.1262 476.3909 213.6217 476.3909 213.3105 476.7021 212.9993 477.0133 212.9993 477.5178 213.3105 477.829L221.5152 486.0337C221.8264 486.3449 222.3309 486.3449 222.6421 486.0337 222.9533 485.7225 222.9533 485.218 222.6421 484.9068ZM36.15392 496.8439C35.84272 496.5327 35.33817 496.5327 35.02697 496.8439 34.71577 497.1551 34.71577 497.6596 35.02697 497.9708L43.23166 506.1755C43.54286 506.4867 44.04741 506.4867 44.35861 506.1755 44.66981 505.8643 44.66981 505.3598 44.35861 505.0486ZM43.23166 505.0486C42.92046 505.3598 42.92046 505.8643 43.23166 506.1755 43.54286 506.4867 44.04741 506.4867 44.35861 506.1755L52.5633 497.9708C52.8745 497.6596 52.8745 497.1551 52.5633 496.8439 52.2521 496.5327 51.74755 496.5327 51.43635 496.8439ZM36.15392 500.9462C35.84272 500.635 35.33817 500.635 35.02697 500.9462 34.71577 501.2574 34.71577 501.762 35.02697 502.0732L43.23166 510.2779C43.54286 510.5891 44.04741 510.5891 44.35861 510.2779 44.66981 509.9667 44.66981 509.4621 44.35861 509.1509ZM43.23166 509.1509C42.92046 509.4621 42.92046 509.9667 43.23166 510.2779 43.54286 510.5891 44.04741 510.5891 44.35861 510.2779L52.5633 502.0732C52.8745 501.762 52.8745 501.2574 52.5633 500.9462 52.2521 500.635 51.74755 500.635 51.43635 500.9462ZM269.77 576.4782C269.77 576.9183 270.1268 577.2751 270.5669 577.2751 271.007 577.2751 271.3638 576.9183 271.3638 576.4782V420.5726C271.3638 420.1325 271.007 419.7758 270.5669 419.7758 270.1268 419.7758 269.77 420.1325 269.77 420.5726ZM262.9257 496.8439C262.6145 496.5327 262.1099 496.5327 261.7987 496.8439 261.4875 497.1551 261.4875 497.6596 261.7987 497.9708L270.0034 506.1755C270.3146 506.4867 270.8192 506.4867 271.1304 506.1755 271.4416 505.8643 271.4416 505.3598 271.1304 505.0486ZM270.0034 505.0486C269.6922 505.3598 269.6922 505.8643 270.0034 506.1755 270.3146 506.4867 270.8192 506.4867 271.1304 506.1755L279.3351 497.9708C279.6463 497.6596 279.6463 497.1551 279.3351 496.8439 279.0239 496.5327 278.5193 496.5327 278.2081 496.8439ZM262.9257 500.9462C262.6145 500.635 262.1099 500.635 261.7987 500.9462 261.4875 501.2574 261.4875 501.762 261.7987 502.0732L270.0034 510.2779C270.3146 510.5891 270.8192 510.5891 271.1304 510.2779 271.4416 509.9667 271.4416 509.4621 271.1304 509.1509ZM270.0034 509.1509C269.6922 509.4621 269.6922 509.9667 270.0034 510.2779 270.3146 510.5891 270.8192 510.5891 271.1304 510.2779L279.3351 502.0732C279.6463 501.762 279.6463 501.2574 279.3351 500.9462 279.0239 500.635 278.5193 500.635 278.2081 500.9462ZM389.7573 567.6188C389.5163 567.9871 389.6195 568.481 389.9878 568.722 390.3561 568.9629 390.8499 568.8597 391.0909 568.4915 419.4039 525.224 408.3047 474.8921 357.9723 417.6551 357.6817 417.3246 357.1782 417.2923 356.8477 417.5829 356.5172 417.8736 356.4849 418.3771 356.7755 418.7076 406.6824 475.4606 417.6167 525.0446 389.7573 567.6188M389.7748 567.5932C389.5197 567.9518 389.6036 568.4494 389.9622 568.7045 390.3208 568.9596 390.8183 568.8757 391.0735 568.5171 423.9267 522.3345 471.4121 504.7621 533.6721 515.7782 534.1055 515.8549 534.5189 515.5658 534.5956 515.1324 534.6723 514.699 534.3832 514.2855 533.9498 514.2089 471.1035 503.089 422.9977 520.891 389.7748 567.5932M357.8934 417.5771C357.5597 417.2902 357.0566 417.3281 356.7697 417.6618 356.4828 417.9955 356.5207 418.4987 356.8544 418.7856 406.0918 461.1196 464.9757 493.4254 533.5 515.7031 533.9185 515.8392 534.3681 515.6102 534.5042 515.1917 534.6402 514.7731 534.4113 514.3235 533.9927 514.1875 465.664 491.9733 406.9664 459.7697 357.8934 417.5771M470.0868 490.8721C470.1468 490.9952 470.2582 491.0855 470.391 491.1188 470.7813 491.2166 470.7363 491.0773 470.7824 491.0483L471.0703 490.7945C471.1143 490.7477 471.1495 490.6933 471.1743 490.634 471.2533 490.4446 471.3639 490.1958 471.3882 489.9108 471.408 489.678 471.2353 489.4731 471.0025 489.4533 470.8339 489.439 470.673 489.5264 470.5933 489.6756L470.3014 490.0483C470.2572 490.0924 470.2211 490.1439 470.1946 490.2005L470.1073 490.3894 470.0667 490.4958C470.0521 490.5422 469.9157 490.521 470.0868 490.8721"/>
</g>
<g clip-path="url(#clip_38)">
<path transform="matrix(1,0,0,-1,-27,713.278)" d="M143.5067 457.6053C143.1701 457.3218 142.6674 457.3648 142.3839 457.7015 142.1004 458.0381 142.1434 458.5408 142.4801 458.8243 152.2255 467.0322 162.1078 467.0322 171.8532 458.8243 172.1898 458.5408 172.2329 458.0381 171.9494 457.7015 171.6659 457.3648 171.1632 457.3218 170.8265 457.6053 161.6743 465.3135 152.6589 465.3135 143.5067 457.6053" fill="#efb9b4"/>
<path transform="matrix(1,0,0,-1,-27,713.278)" d="M44.07778 463.3865C43.63768 463.3861 43.28065 463.7427 43.28033 464.1828 43.28 464.6229 43.63652 464.9799 44.07662 464.9802 49.00853 464.9838 53.9126 462.9204 58.77604 458.8243 59.11266 458.5408 59.15571 458.0381 58.8722 457.7015 58.58869 457.3648 58.08598 457.3218 57.74936 457.6053 53.1558 461.4741 48.60287 463.3898 44.07778 463.3865" fill="#7ba0ca"/>
<path transform="matrix(1,0,0,-1,-27,713.278)" d="M256.6988 457.7533C256.3622 457.4698 255.8595 457.5128 255.576 457.8494 255.2924 458.1861 255.3355 458.6888 255.6721 458.9723 260.4879 463.0283 265.3434 465.0912 270.2268 465.1277 270.6669 465.131 271.0263 464.7769 271.0296 464.3368 271.0329 463.8967 270.6788 463.5373 270.2387 463.534 265.7572 463.5005 261.2479 461.5846 256.6988 457.7533" fill="#7ba0ca"/>
<path transform="matrix(1,0,0,-1,-27,713.278)" d="M43.60186 561.5319C43.1749 561.6386 42.91531 562.0713 43.02205 562.4983 43.12879 562.9252 43.56144 563.1848 43.9884 563.0781 119.4521 544.2121 194.9099 544.2121 270.3736 563.0781 270.8006 563.1848 271.2333 562.9252 271.34 562.4983 271.4467 562.0713 271.1871 561.6386 270.7602 561.5319 195.0427 542.6025 119.3193 542.6025 43.60186 561.5319" fill="#5fcc87"/>
<path transform="matrix(1,0,0,-1,-27,713.278)" d="M408.6389 456.0997C408.748 455.6733 408.4908 455.2393 408.0644 455.1302 407.6381 455.0211 407.204 455.2783 407.0949 455.7047 405.3805 462.4059 400.7696 467.14 393.1814 469.949 392.7686 470.1018 392.5579 470.5602 392.7107 470.973 392.8635 471.3857 393.3219 471.5964 393.7346 471.4436 401.7936 468.4604 406.7887 463.3318 408.6389 456.0997" fill="#efb9b4"/>
</g>
<g clip-path="url(#clip_39)">
<g clip-path="url(#clip_40)">
<path transform="matrix(1,0,0,-1,-27,713.278)" d="M408.0444 456.6791C407.2049 456.8709 406.4028 457.0983 405.638 457.3612L405.1199 455.8541C405.939 455.5725 406.7955 455.3296 407.6894 455.1253ZM404.4731 457.8011C403.689 458.125 402.9483 458.4903 402.2509 458.8969L401.4482 457.52C402.2089 457.0766 403.0144 456.6793 403.8645 456.3281ZM401.2083 459.5575C400.5243 460.0278 399.8872 460.5436 399.2966 461.1051L398.1985 459.95C398.8501 459.3305 399.5525 458.7619 400.3052 458.2442ZM398.4404 461.9873C397.8976 462.5936 397.4006 463.2459 396.9491 463.9446L395.6105 463.0797C396.1069 462.3114 396.6544 461.5929 397.253 460.9243ZM396.3176 465.0063C395.9305 465.7145 395.5845 466.4652 395.2797 467.2585L393.792 466.6868C394.1219 465.8281 394.4976 465.0131 394.9191 464.2419ZM394.8678 468.4347C394.6227 469.2059 394.4129 470.0135 394.2384 470.8577L392.6776 470.535C392.8631 469.6376 393.0868 468.7766 393.3488 467.9521Z" fill="#efb9b4"/>
</g>
</g>
<g clip-path="url(#clip_41)">
<path transform="matrix(1,0,0,-1,-27,713.278)" d="M405.2122 525.7823C404.7722 525.7929 404.4242 526.1583 404.4349 526.5982 404.4455 527.0382 404.8109 527.3862 405.2508 527.3755 413.1253 527.1843 417.7698 530.3878 419.4142 537.0851 419.5192 537.5125 419.9508 537.7739 420.3782 537.669 420.8056 537.564 421.067 537.1325 420.962 536.705 419.1309 529.2475 413.8044 525.5736 405.2122 525.7823" fill="#5fcc87"/>
</g>
<g clip-path="url(#clip_42)">
<g clip-path="url(#clip_43)">
<path transform="matrix(1,0,0,-1,-27,713.278)" d="M405.9676 526.2737C406.3205 527.1249 406.711 527.9198 407.1389 528.6587L405.7597 529.4574C405.2961 528.6567 404.8747 527.7989 404.4954 526.8841ZM407.8434 529.7757C408.3532 530.5179 408.9074 531.1937 409.5063 531.8037L408.3691 532.9203C407.7044 532.2433 407.0913 531.4957 406.5297 530.678ZM410.4644 532.6914C411.1314 533.2526 411.8469 533.7443 412.6117 534.1669L411.8408 535.5619C410.9855 535.0892 410.1845 534.5388 409.4383 533.9109ZM413.7842 534.7441C414.5674 535.0851 415.3971 535.3626 416.2739 535.5764L415.8963 537.1248C414.9321 536.8896 414.0158 536.5832 413.148 536.2053ZM417.5693 535.8403C418.4121 535.9798 419.2944 536.066 420.2164 536.0987L420.1599 537.6914C419.1708 537.6564 418.2205 537.5635 417.309 537.4126Z" fill="#5fcc87"/>
</g>
</g>
<g clip-path="url(#clip_44)">
<path transform="matrix(1,0,0,-1,-27,713.278)" d="M479.6479 513.353C479.8783 513.728 480.369 513.8453 480.744 513.615 481.119 513.3846 481.2363 512.8939 481.006 512.5189 476.9951 505.9882 477.4188 500.5189 482.2473 495.8625 482.5641 495.557 482.5732 495.0525 482.2677 494.7357 481.9622 494.4189 481.4577 494.4098 481.1409 494.7153 475.749 499.9151 475.2613 506.2105 479.6479 513.353" fill="#7ba0ca"/>
</g>
<g clip-path="url(#clip_45)">
<g clip-path="url(#clip_46)">
<path transform="matrix(1,0,0,-1,-27,713.278)" d="M479.6932 512.4529C480.2368 511.7397 480.7147 511.0224 481.1271 510.3011L482.5107 511.0922C482.0628 511.8755 481.5461 512.651 480.9607 513.419ZM481.7223 509.1623C482.0974 508.3708 482.3948 507.5742 482.6151 506.7724L484.1519 507.1945C483.9068 508.0869 483.5769 508.9704 483.1625 509.8448ZM482.8933 505.5329C483.0393 504.6977 483.103 503.8557 483.0846 503.006L484.678 502.9715C484.6986 503.9246 484.627 504.87 484.4633 505.8072ZM482.9969 501.7378C482.9008 500.9125 482.7286 500.079 482.4798 499.237L484.0083 498.7854C484.2826 499.7137 484.4732 500.6366 484.5799 501.5537ZM482.0685 498.0182C481.7737 497.2409 481.4148 496.4564 480.9914 495.6646L482.3968 494.9131C482.8519 495.7641 483.2392 496.6107 483.5587 497.4531Z" fill="#7ba0ca"/>
</g>
</g>
<g clip-path="url(#clip_47)">
<g clip-path="url(#clip_48)">
<path transform="matrix(1,0,0,-1,-27,713.278)" d="M391.056 568.5406 391.055 568.542C390.7868 568.891 390.2866 568.9566 389.9376 568.6885 389.5886 568.4203 389.523 567.9201 389.7911 567.5711L389.7922 567.5697C390.0603 567.2207 390.5606 567.1551 390.9096 567.4232 391.2586 567.6914 391.3242 568.1916 391.056 568.5406M388.8993 571.3479 388.8982 571.3493C388.6301 571.6983 388.1298 571.7638 387.7808 571.4957 387.4318 571.2276 387.3663 570.7273 387.6344 570.3783L387.6355 570.3769C387.9036 570.0279 388.4039 569.9623 388.7529 570.2305 389.1019 570.4986 389.1674 570.9989 388.8993 571.3479M386.7425 574.1551 386.7415 574.1565C386.4733 574.5055 385.9731 574.571 385.6241 574.3029 385.2751 574.0348 385.2095 573.5345 385.4776 573.1855L385.4787 573.1841C385.7468 572.8351 386.2471 572.7696 386.5961 573.0377 386.9451 573.3058 387.0107 573.8061 386.7425 574.1551M384.5858 576.9623 384.5847 576.9637C384.3166 577.3127 383.8163 577.3783 383.4673 577.1101 383.1183 576.842 383.0528 576.3417 383.3209 575.9927L383.322 575.9913C383.5901 575.6423 384.0904 575.5768 384.4394 575.8449 384.7884 576.113 384.8539 576.6133 384.5858 576.9623"/>
</g>
</g>
<g clip-path="url(#clip_49)">
<g clip-path="url(#clip_50)">
<path transform="matrix(1,0,0,-1,-27,713.278)" d="M356.8104 418.7448 356.8092 418.7436C356.498 418.4324 356.498 417.9278 356.8092 417.6166 357.1204 417.3054 357.625 417.3054 357.9362 417.6166L357.9374 417.6179C358.2486 417.9291 358.2486 418.4336 357.9374 418.7448 357.6262 419.056 357.1216 419.056 356.8104 418.7448M354.3469 416.2812 354.3456 416.28C354.0344 415.9688 354.0344 415.4642 354.3456 415.153 354.6568 414.8418 355.1614 414.8418 355.4726 415.153L355.4738 415.1543C355.785 415.4655 355.785 415.97 355.4738 416.2812 355.1626 416.5924 354.6581 416.5924 354.3469 416.2812M351.8833 413.8176 351.882 413.8164C351.5708 413.5052 351.5708 413.0007 351.882 412.6895 352.1932 412.3783 352.6978 412.3783 353.009 412.6895L353.0102 412.6907C353.3214 413.0019 353.3214 413.5064 353.0102 413.8176 352.699 414.1288 352.1945 414.1288 351.8833 413.8176M349.4197 411.3541 349.4185 411.3528C349.1073 411.0416 349.1073 410.5371 349.4185 410.2259 349.7297 409.9147 350.2342 409.9147 350.5454 410.2259L350.5466 410.2271C350.8578 410.5383 350.8578 411.0429 350.5466 411.3541 350.2354 411.6653 349.7309 411.6653 349.4197 411.3541"/>
</g>
</g>
<g clip-path="url(#clip_51)">
<g clip-path="url(#clip_52)">
<path transform="matrix(1,0,0,-1,-27,713.278)" d="M545.0076 518.3515 545.0061 518.3512C544.5769 518.2538 544.308 517.8269 544.4054 517.3977 544.5028 516.9685 544.9296 516.6995 545.3588 516.7969L545.3603 516.7972C545.7894 516.8946 546.0584 517.3215 545.961 517.7507 545.8636 518.1799 545.4368 518.4489 545.0076 518.3515M542.1647 517.7064 542.1633 517.706C541.7341 517.6086 541.4651 517.1818 541.5625 516.7526 541.6599 516.3234 542.0868 516.0544 542.5159 516.1518L542.5174 516.1521C542.9466 516.2495 543.2155 516.6764 543.1181 517.1056 543.0207 517.5348 542.5939 517.8037 542.1647 517.7064M539.3218 517.0612 539.3204 517.0609C538.8912 516.9635 538.6222 516.5366 538.7196 516.1074 538.817 515.6783 539.2439 515.4093 539.6731 515.5067L539.6745 515.507C540.1037 515.6044 540.3726 516.0313 540.2753 516.4605 540.1779 516.8897 539.751 517.1586 539.3218 517.0612M536.4789 516.4161 536.4775 516.4158C536.0483 516.3184 535.7793 515.8915 535.8767 515.4623 535.9741 515.0331 536.401 514.7642 536.8302 514.8615L536.8316 514.8619C537.2608 514.9593 537.5298 515.3861 537.4324 515.8153 537.335 516.2445 536.9081 516.5135 536.4789 516.4161M533.636 515.771 533.6346 515.7707C533.2054 515.6733 532.9364 515.2464 533.0338 514.8172 533.1312 514.388 533.5581 514.119 533.9873 514.2164L533.9887 514.2167C534.4179 514.3141 534.6869 514.741 534.5895 515.1702 534.4921 515.5994 534.0652 515.8684 533.636 515.771"/>
</g>
</g>
<g clip-path="url(#clip_53)">
<path transform="matrix(1,0,0,-1,-27,713.278)" d="M307.3372 499.5979C307.026 499.2867 306.5214 499.2867 306.2102 499.5979 305.899 499.9091 305.899 500.4136 306.2102 500.7248 312.8389 507.3535 319.6609 507.3535 326.2895 500.7248 326.6007 500.4136 326.6007 499.9091 326.2895 499.5979 325.9783 499.2867 325.4738 499.2867 325.1626 499.5979 319.1563 505.6041 313.3434 505.6041 307.3372 499.5979M325.1626 499.5979C324.8514 499.9091 324.8514 500.4136 325.1626 500.7248 325.4738 501.036 325.9783 501.036 326.2895 500.7248 332.2958 494.7186 338.1087 494.7186 344.1149 500.7248 344.4261 501.036 344.9307 501.036 345.2419 500.7248 345.5531 500.4136 345.5531 499.9091 345.2419 499.5979 338.6132 492.9692 331.7912 492.9692 325.1626 499.5979M345.2253 499.5817C344.9051 499.2797 344.4008 499.2944 344.0988 499.6145 343.7968 499.9346 343.8114 500.4389 344.1315 500.741 346.0522 502.5531 347.9742 503.4319 349.8884 503.3171 350.3277 503.2908 350.6625 502.9133 350.6361 502.474 350.6098 502.0347 350.2323 501.6999 349.793 501.7263 348.3717 501.8114 346.8522 501.1167 345.2253 499.5817M353.566 501.8997C353.2548 502.2109 353.2548 502.7155 353.566 503.0267 353.8772 503.3379 354.3818 503.3379 354.693 503.0267 355.0042 502.7155 355.0042 502.2109 354.693 501.8997 354.3818 501.5885 353.8772 501.5885 353.566 501.8997M348.3428 507.1605 359.1466 502.4632 348.3428 497.7659Z"/>
</g>
</g>
</g>
</g>
</svg>
