<svg xmlns="http://www.w3.org/2000/svg" xmlns:xlink="http://www.w3.org/1999/xlink" xmlns:inkscape="http://www.inkscape.org/namespaces/inkscape" version="1.1" width="487.5" height="259.41926" viewBox="0 0 487.5 259.41926">
<defs>
<clipPath id="clip_140">
<path transform="matrix(1,0,0,-1,-119,762.26278)" d="M119 502.8435H606.5V762.26278H119Z" clip-rule="evenodd"/>
</clipPath>
<clipPath id="clip_141">
<path transform="matrix(1,0,0,-1,-119,762.26278)" d="M0 0H612V803.25H0Z"/>
</clipPath>
<clipPath id="clip_142">
<path transform="matrix(1,0,0,-1,-119,762.26278)" d="M0 0H612V803.25H0Z"/>
</clipPath>
<clipPath id="clip_143">
<path transform="matrix(1,0,0,-1,-119,762.26278)" d="M0 0H612V803.25H0Z"/>
</clipPath>
<clipPath id="clip_144">
<path transform="matrix(1,0,0,-1,-119,762.26278)" d="M0 0H612V803.25H0Z"/>
</clipPath>
<clipPath id="clip_145">
<path transform="matrix(1,0,0,-1,-119,762.26278)" d="M176.5976 520.5825C176.5787 520.1428 176.2069 519.8017 175.7672 519.8207 175.3275 519.8396 174.9864 520.2114 175.0054 520.6511L184.7314 746.5913C184.7503 747.031 185.1221 747.3721 185.5618 747.3532 186.0015 747.3343 186.3426 746.9625 186.3236 746.5228Z"/>
</clipPath>
<clipPath id="clip_146">
<path transform="matrix(1,0,0,-1,-119,762.26278)" d="M0 0H612V803.25H0Z"/>
</clipPath>
<clipPath id="clip_147">
<path transform="matrix(1,0,0,-1,-119,762.26278)" d="M0 0H612V803.25H0Z"/>
</clipPath>
<clipPath id="clip_148">
<path transform="matrix(1,0,0,-1,-119,762.26278)" d="M128.0786 661.2656C127.9394 661.6832 128.165 662.1344 128.5826 662.2736 129.0001 662.4128 129.4514 662.1872 129.5905 661.7696L176.5575 520.8688C176.6967 520.4513 176.471 520 176.0535 519.8608 175.636 519.7216 175.1847 519.9473 175.0455 520.3648Z"/>
</clipPath>
<clipPath id="clip_149">
<path transform="matrix(1,0,0,-1,-119,762.26278)" d="M0 0H612V803.25H0Z"/>
</clipPath>
<clipPath id="clip_150">
<path transform="matrix(1,0,0,-1,-119,762.26278)" d="M0 0H612V803.25H0Z"/>
</clipPath>
<clipPath id="clip_151">
<path transform="matrix(1,0,0,-1,-119,762.26278)" d="M0 0H612V803.25H0Z"/>
</clipPath>
<clipPath id="clip_152">
<path transform="matrix(1,0,0,-1,-119,762.26278)" d="M0 0H612V803.25H0Z"/>
</clipPath>
<clipPath id="clip_153">
<path transform="matrix(1,0,0,-1,-119,762.26278)" d="M0 0H612V803.25H0Z"/>
</clipPath>
<clipPath id="clip_154">
<path transform="matrix(1,0,0,-1,-119,762.26278)" d="M0 0H612V803.25H0Z"/>
</clipPath>
<clipPath id="clip_155">
<path transform="matrix(1,0,0,-1,-119,762.26278)" d="M0 0H612V803.25H0Z"/>
</clipPath>
<clipPath id="clip_156">
<path transform="matrix(1,0,0,-1,-119,762.26278)" d="M0 0H612V803.25H0Z"/>
</clipPath>
<clipPath id="clip_157">
<path transform="matrix(1,0,0,-1,-119,762.26278)" d="M0 0H612V803.25H0Z"/>
</clipPath>
<clipPath id="clip_158">
<path transform="matrix(1,0,0,-1,-119,762.26278)" d="M0 0H612V803.25H0Z"/>
</clipPath>
<clipPath id="clip_159">
<path transform="matrix(1,0,0,-1,-119,762.26278)" d="M0 0H612V803.25H0Z"/>
</clipPath>
</defs>
<g clip-path="url(#clip_140)">
<g clip-path="url(#clip_141)">
<g clip-path="url(#clip_142)">
<text fill-opacity="0" xml:space="preserve" transform="matrix(.8471761 0 -0 .8471761 -103.0625 -40.987245)" font-size="18" font-family=".SFUI"><tspan y="106.5165" x="272.22 278.30403 288.456 294.504 303.95399 309.858">rotate</tspan></text>
<text fill-opacity="0" xml:space="preserve" transform="matrix(.8471761 0 -0 .8471761 -103.0625 -40.987245)" font-size="30" font-family=".SFUI"><tspan y="202.2575" x="524.9226 545.9436 563.7846">OTT</tspan></text>
<text fill-opacity="0" xml:space="preserve" transform="matrix(.8471761 0 -0 .8471761 -103.0625 -40.987245)" font-size="17" font-family=".SFUI"><tspan y="188.4616" x="666.9539">R</tspan></text>
<text fill-opacity="0" xml:space="preserve" transform="matrix(.8471761 0 -0 .8471761 -103.0625 -40.987245)" font-size="16" font-family=".SFUI"><tspan y="243.0681" x="528.0218 537.0458 546.18179 552.11776 565.73379 574.2458 577.9738 581.60586 589.68588">normalize</tspan></text>
<text fill-opacity="0" xml:space="preserve" transform="matrix(.8471761 0 -0 .8471761 -103.0625 -40.987245)" font-size="14" font-family=".SFUI"><tspan y="355.5466" x="479.1526">0</tspan></text>
<text fill-opacity="0" xml:space="preserve" transform="matrix(.8471761 0 -0 .8471761 -103.0625 -40.987245)" font-size="16" font-family=".SFUI"><tspan y="357.2946" x="581.971">1</tspan></text>
<g clip-path="url(#clip_143)">
<path transform="matrix(1,0,0,-1,-119,762.26278)" d="M129.4976 661.0756C129.2535 660.7094 128.7587 660.6105 128.3925 660.8546 128.0263 661.0987 127.9274 661.5935 128.1715 661.9597L184.8645 746.9991C185.1086 747.3653 185.6033 747.4642 185.9695 747.2201 186.3357 746.976 186.4347 746.4812 186.1905 746.115ZM184.7715 746.3051C184.6323 746.7226 184.858 747.1739 185.2755 747.313 185.693 747.4522 186.1443 747.2266 186.2835 746.8091L214.6299 661.7696C214.7691 661.3521 214.5435 660.9008 214.126 660.7617 213.7084 660.6225 213.2572 660.8481 213.118 661.2656ZM128.8346 660.7208C128.3944 660.7208 128.0377 661.0775 128.0377 661.5176 128.0377 661.9577 128.3944 662.3145 128.8346 662.3145H213.874C214.3141 662.3145 214.6708 661.9577 214.6708 661.5176 214.6708 661.0775 214.3141 660.7208 213.874 660.7208Z" fill="#969696"/>
</g>
<g clip-path="url(#clip_144)">
<path transform="matrix(1,0,0,-1,-119,762.26278)" d="M193.3867 714.5023C192.2163 715.6727 192.2163 717.5704 193.3867 718.7408 194.5572 719.9113 196.4548 719.9113 197.6253 718.7408 198.7957 717.5704 198.7957 715.6727 197.6253 714.5023 196.4548 713.3319 194.5572 713.3319 193.3867 714.5023" fill="#dc267f"/>
<path transform="matrix(1,0,0,-1,-119,762.26278)" d="M179.7476 659.3984C178.5771 660.5688 178.5771 662.4665 179.7476 663.6369 180.918 664.8074 182.8157 664.8074 183.9861 663.6369 185.1565 662.4665 185.1565 660.5688 183.9861 659.3984 182.8157 658.2279 180.918 658.2279 179.7476 659.3984" fill="#ffb000"/>
<path transform="matrix(1,0,0,-1,-119,762.26278)" d="M142.3995 682.9247C141.2291 684.0952 141.2291 685.9929 142.3995 687.1633 143.57 688.3337 145.4676 688.3337 146.6381 687.1633 147.8085 685.9929 147.8085 684.0952 146.6381 682.9247 145.4676 681.7543 143.57 681.7543 142.3995 682.9247" fill="#19b091"/>
<path transform="matrix(1,0,0,-1,-119,762.26278)" d="M183.4082 744.4378C182.2378 745.6082 182.2378 747.5059 183.4082 748.6763 184.5787 749.8468 186.4763 749.8468 187.6468 748.6763 188.8172 747.5059 188.8172 745.6082 187.6468 744.4378 186.4763 743.2673 184.5787 743.2673 183.4082 744.4378" fill="#648fff"/>
<path transform="matrix(1,0,0,-1,-119,762.26278)" d="M126.7153 659.3984C125.5448 660.5688 125.5448 662.4665 126.7153 663.6369 127.8857 664.8074 129.7834 664.8074 130.9538 663.6369 132.1243 662.4665 132.1243 660.5688 130.9538 659.3984 129.7834 658.2279 127.8857 658.2279 126.7153 659.3984" fill="#648fff"/>
<path transform="matrix(1,0,0,-1,-119,762.26278)" d="M211.7547 659.3984C210.5843 660.5688 210.5843 662.4665 211.7547 663.6369 212.9251 664.8074 214.8228 664.8074 215.9932 663.6369 217.1637 662.4665 217.1637 660.5688 215.9932 659.3984 214.8228 658.2279 212.9251 658.2279 211.7547 659.3984" fill="#648fff"/>
</g>
<g clip-path="url(#clip_145)">
<g clip-path="url(#clip_146)">
<path transform="matrix(1,0,0,-1,-119,762.26278)" d="M176.5976 520.5825 176.7337 523.7425 175.1414 523.8111 175.0054 520.6511ZM176.8017 525.3225 176.9377 528.4825 175.3454 528.5511 175.2094 525.3911ZM177.0057 530.0625 177.1417 533.2225 175.5495 533.2911 175.4134 530.1311ZM177.2098 534.8025 177.3458 537.9625 175.7535 538.0311 175.6175 534.8711ZM177.4138 539.5425 177.5498 542.7025 175.9576 542.7711 175.8215 539.6111ZM177.6178 544.2826 177.7539 547.4426 176.1616 547.5111 176.0256 544.3511ZM177.8219 549.0226 177.9579 552.1826 176.3656 552.2511 176.2296 549.0911ZM178.0259 553.7626 178.162 556.9226 176.5697 556.9911 176.4337 553.8311ZM178.23 558.5026 178.366 561.6626 176.7737 561.7311 176.6377 558.5711ZM178.434 563.2426 178.57 566.4026 176.9778 566.4711 176.8417 563.3111ZM178.6381 567.9826 178.7741 571.1426 177.1818 571.2111 177.0458 568.0511ZM178.8421 572.7226 178.9781 575.8826 177.3858 575.9511 177.2498 572.7911ZM179.0461 577.4626 179.1822 580.6226 177.5899 580.6911 177.4539 577.5311ZM179.2502 582.2026 179.3862 585.3626 177.7939 585.4311 177.6579 582.2711ZM179.4542 586.9426 179.5903 590.1026 177.998 590.1711 177.8619 587.0111ZM179.6583 591.6826 179.7943 594.8426 178.202 594.9112 178.066 591.7511ZM179.8623 596.4226 179.9983 599.5826 178.4061 599.6512 178.27 596.4912ZM180.0663 601.1626 180.2024 604.3226 178.6101 604.3912 178.4741 601.2312ZM180.2704 605.9026 180.4064 609.0626 178.8141 609.1312 178.6781 605.9712ZM180.4744 610.6426 180.6105 613.8026 179.0182 613.8712 178.8822 610.7112ZM180.6785 615.3826 180.8145 618.5426 179.2222 618.6112 179.0862 615.4512ZM180.8825 620.1226 181.0185 623.2826 179.4263 623.3512 179.2902 620.1912ZM181.0866 624.8626 181.2226 628.0226 179.6303 628.0912 179.4943 624.9312ZM181.2906 629.6026 181.4266 632.7627 179.8344 632.8312 179.6983 629.6712ZM181.4946 634.3427 181.6307 637.5027 180.0384 637.5712 179.9024 634.4112ZM181.6987 639.0827 181.8347 642.2427 180.2424 642.3112 180.1064 639.1512ZM181.9027 643.8227 182.0388 646.9827 180.4465 647.0512 180.3104 643.8912ZM182.1068 648.5627 182.2428 651.7227 180.6505 651.7912 180.5145 648.6312ZM182.3108 653.3027 182.4468 656.4627 180.8546 656.5312 180.7185 653.3712ZM182.5149 658.0427 182.6509 661.2027 181.0586 661.2712 180.9226 658.1112ZM182.7189 662.7827 182.8549 665.9427 181.2626 666.0112 181.1266 662.8512ZM182.9229 667.5227 183.059 670.6827 181.4667 670.7512 181.3307 667.5912ZM183.127 672.2627 183.263 675.4227 181.6707 675.4912 181.5347 672.3312ZM183.331 677.0027 183.467 680.1627 181.8748 680.2313 181.7387 677.0712ZM183.5351 681.7427 183.6711 684.9027 182.0788 684.9713 181.9428 681.8113ZM183.7391 686.4827 183.8751 689.6427 182.2829 689.7113 182.1468 686.5513ZM183.9431 691.2227 184.0792 694.3827 182.4869 694.4513 182.3509 691.2913ZM184.1472 695.9627 184.2832 699.1227 182.6909 699.1913 182.5549 696.0313ZM184.3512 700.7027 184.4873 703.8627 182.895 703.9313 182.759 700.7713ZM184.5553 705.4427 184.6913 708.6027 183.099 708.6713 182.963 705.5113ZM184.7593 710.1827 184.8953 713.3427 183.3031 713.4113 183.167 710.2513ZM184.9634 714.9227 185.0994 718.0828 183.5071 718.1513 183.3711 714.9913ZM185.1674 719.6628 185.3034 722.8228 183.7111 722.8913 183.5751 719.7313ZM185.3714 724.4028 185.5075 727.5628 183.9152 727.6313 183.7792 724.4713ZM185.5755 729.1428 185.7115 732.3028 184.1192 732.3713 183.9832 729.2113ZM185.7795 733.8828 185.9155 737.0428 184.3233 737.1113 184.1872 733.9513ZM185.9836 738.6228 186.1196 741.7828 184.5273 741.8513 184.3913 738.6913ZM186.1876 743.3628 186.3236 746.5228 184.7314 746.5913 184.5953 743.4313Z" fill="#969696"/>
</g>
</g>
<g clip-path="url(#clip_147)">
<path transform="matrix(1,0,0,-1,-119,762.26278)" d="M246.2893 697.894C246.2559 697.6627 246.0413 697.5023 245.81 697.5357 245.6936 697.5525 245.5895 697.6169 245.5226 697.7136 245.3823 697.9163 245.0886 698.3226 245.1123 698.9706 245.2428 699.6708 245.5745 700.2445 246.0346 700.8553 246.5687 701.5467 247.2768 702.2593 248.1308 702.8897 249.0408 703.5541 250.0932 704.0027 251.1089 704.315 252.3489 704.6804 253.5906 704.7661 254.7169 704.4555 255.678 704.1536 256.3059 703.4919 256.9334 702.9086L259.7528 700.4227C260.344 699.929 260.9674 699.4779 261.6074 699.076 262.4367 698.5833 263.2527 698.1557 264.218 697.9249 265.4423 697.7127 267.0286 697.8283 269.1694 698.0809 271.074 698.2516 272.9766 698.816 274.455 699.7225 274.7644 699.9122 275.1689 699.8152 275.3587 699.5058 275.5484 699.1965 275.4513 698.7919 275.142 698.6022 273.4428 697.5729 271.3634 696.9777 269.2986 696.8033 267.0861 696.6793 265.3829 696.6898 263.9979 697.0818 262.9292 697.3116 262.0083 697.7692 261.1256 698.2658 260.4304 698.6335 259.7366 699.0622 259.0719 699.5402L256.0405 701.8715C255.3683 702.4051 254.8111 702.8282 254.3422 702.9293 253.5325 703.1362 252.5926 703.0741 251.5892 702.7619 250.6863 702.4939 249.7841 702.1095 249.0693 701.5982 248.3237 701.0731 247.6934 700.4666 247.2374 699.9102 246.8207 699.4146 246.5734 698.9971 246.4974 698.7425 246.3251 698.3654 246.3306 698.1801 246.2893 697.894M273.3255 702.7874C273.207 703.0834 273.3509 703.4194 273.6469 703.5379 273.8327 703.6123 274.0437 703.5852 274.2046 703.4663L274.6061 703.2858C274.7016 703.2564 274.7903 703.2085 274.8672 703.1447L275.2594 702.8735 276.3127 702.5337C277.7769 701.9855 279.5462 701.1906 280.8985 700.6545L282.1201 700.1219C282.3251 700.0163 282.4464 700.0157 282.7076 699.7291 282.7869 699.6422 282.9055 699.5081 282.9511 699.2336 282.988 699.0112 282.918 698.6994 282.7649 698.5049 282.3708 698.0042 282.2348 698.1677 282.1645 698.1535L282.4754 698.2809C282.0126 697.9787 281.5917 697.9157 280.9585 697.6528L279.5686 696.9448 277.269 695.7028 274.5987 694.3719C274.1019 694.1105 273.4873 694.3014 273.226 694.7983 272.9965 695.2344 273.1131 695.7723 273.5024 696.0745 274.1732 696.595 275.0531 697.1903 276.0108 697.791L278.5561 699.0137 280.3164 699.5944C281.0593 699.805 281.6437 699.8788 281.8609 699.91L281.54 699.7985C281.5697 699.8157 281.3007 699.589 281.3798 699.671 281.4176 699.7103 281.2107 699.4272 281.2543 699.5033 281.2972 699.5782 281.1292 699.0814 281.1492 699.2054 281.1685 699.3253 281.2111 698.6843 281.1733 698.8146 281.1382 698.9357 281.3868 698.4366 281.3272 698.5131 281.2738 698.5816 281.5174 698.3299 281.4748 698.3639 281.4011 698.4225 281.658 698.2516 281.6271 698.2669 281.5437 698.3079 281.6809 698.2434 281.6329 698.2594L281.3999 698.339 280.1475 698.859 275.7215 701.0888 274.5706 701.717 274.1121 701.8567C274.0182 701.8929 273.9325 701.9474 273.86 702.0171 273.6196 702.248 273.4349 702.5141 273.3255 702.7874"/>
</g>
<g clip-path="url(#clip_148)">
<g clip-path="url(#clip_149)">
<path transform="matrix(1,0,0,-1,-119,762.26278)" d="M128.0786 661.2656 129.0673 658.2993 130.5793 658.8033 129.5905 661.7696ZM129.5617 656.8161 130.5505 653.8498 132.0625 654.3538 131.0737 657.3201ZM131.0449 652.3666 132.0337 649.4003 133.5456 649.9043 132.5569 652.8706ZM132.5281 647.9171 133.5168 644.9508 135.0288 645.4548 134.04 648.4211ZM134.0112 643.4676 135 640.5013 136.512 641.0053 135.5232 643.9716ZM135.4944 639.0181 136.4832 636.0518 137.9951 636.5558 137.0064 639.5221ZM136.9776 634.5686 137.9663 631.6023 139.4783 632.1063 138.4895 635.0726ZM138.4607 630.1191 139.4495 627.1528 140.9615 627.6568 139.9727 630.6231ZM139.9439 625.6696 140.9327 622.7033 142.4446 623.2073 141.4559 626.1736ZM141.4271 621.2201 142.4158 618.2538 143.9278 618.7578 142.939 621.7241ZM142.9102 616.7706 143.899 613.8043 145.411 614.3083 144.4222 617.2746ZM144.3934 612.3211 145.3822 609.3548 146.8941 609.8588 145.9054 612.8251ZM145.8766 607.8716 146.8653 604.9053 148.3773 605.4093 147.3885 608.3756ZM147.3597 603.4221 148.3485 600.4558 149.8605 600.9598 148.8717 603.9261ZM148.8429 598.9726 149.8317 596.0063 151.3436 596.5103 150.3549 599.4766ZM150.3261 594.5231 151.3148 591.5568 152.8268 592.0608 151.838 595.0271ZM151.8092 590.0736 152.798 587.1073 154.31 587.6113 153.3212 590.5776ZM153.2924 585.6241 154.2812 582.6578 155.7931 583.1618 154.8044 586.1281ZM154.7756 581.1746 155.7643 578.2083 157.2763 578.7123 156.2875 581.6786ZM156.2587 576.7251 157.2475 573.7588 158.7595 574.2628 157.7707 577.2291ZM157.7419 572.2756 158.7307 569.3093 160.2426 569.8133 159.2539 572.7796ZM159.2251 567.8261 160.2138 564.8598 161.7258 565.3638 160.737 568.3301ZM160.7082 563.3766 161.697 560.4103 163.209 560.9143 162.2202 563.8806ZM162.1914 558.9271 163.1802 555.9608 164.6921 556.4648 163.7034 559.4311ZM163.6746 554.4776 164.6633 551.5113 166.1753 552.0153 165.1865 554.9816ZM165.1577 550.0281 166.1465 547.0618 167.6585 547.5658 166.6697 550.5321ZM166.6409 545.5786 167.6297 542.6123 169.1416 543.1163 168.1529 546.0826ZM168.1241 541.1291 169.1128 538.1628 170.6248 538.6668 169.636 541.6331ZM169.6072 536.6796 170.596 533.7133 172.108 534.2173 171.1192 537.1836ZM171.0904 532.2301 172.0792 529.2638 173.5911 529.7678 172.6024 532.7341ZM172.5736 527.7806 173.5623 524.8143 175.0743 525.3183 174.0855 528.2846ZM174.0567 523.3311 175.0455 520.3648 176.5575 520.8688 175.5687 523.8351Z" fill="#969696"/>
</g>
</g>
<g clip-path="url(#clip_150)">
<path transform="matrix(1,0,0,-1,-119,762.26278)" d="M143.1009 610.2414C141.9305 611.4119 141.9305 613.3095 143.1009 614.48 144.2714 615.6504 146.169 615.6504 147.3395 614.48 148.5099 613.3095 148.5099 611.4119 147.3395 610.2414 146.169 609.071 144.2714 609.071 143.1009 610.2414M472.8645 679.4913C471.6269 680.7289 471.6269 682.7355 472.8645 683.9731 474.1021 685.2107 476.1087 685.2107 477.3463 683.9731 478.5839 682.7355 478.5839 680.7289 477.3463 679.4913 476.1087 678.2537 474.1021 678.2537 472.8645 679.4913" fill="#dc267f"/>
</g>
<g clip-path="url(#clip_151)">
<path transform="matrix(1,0,0,-1,-119,762.26278)" d="M184.7643 746.7863C184.8909 747.2078 185.3352 747.4468 185.7567 747.3202 186.1782 747.1936 186.4173 746.7493 186.2907 746.3278L124.3865 540.2282C124.2599 539.8067 123.8156 539.5677 123.3941 539.6943 122.9726 539.8209 122.7335 540.2652 122.8601 540.6867ZM128.0384 661.5519C128.0573 661.9916 128.4291 662.3327 128.8688 662.3138 129.3085 662.2949 129.6496 661.9231 129.6307 661.4834L124.4194 540.4232C124.4005 539.9835 124.0287 539.6424 123.589 539.6613 123.1493 539.6803 122.8082 540.052 122.8272 540.4917ZM424.3575 662.9074C424.7555 662.6661 424.8825 662.148 424.6413 661.75 424.4 661.3521 423.8819 661.2251 423.4839 661.4663L331.0695 717.49C330.6715 717.7313 330.5445 718.2494 330.7857 718.6474 331.027 719.0453 331.5451 719.1724 331.9431 718.9311Z"/>
</g>
<g clip-path="url(#clip_152)">
<path transform="matrix(1,0,0,-1,-119,762.26278)" d="M121.504 538.3382C120.3336 539.5086 120.3336 541.4063 121.504 542.5767 122.6745 543.7472 124.5721 543.7472 125.7426 542.5767 126.913 541.4063 126.913 539.5086 125.7426 538.3382 124.5721 537.1677 122.6745 537.1677 121.504 538.3382M173.6822 518.4975C172.5118 519.668 172.5118 521.5656 173.6822 522.7361 174.8527 523.9065 176.7503 523.9065 177.9208 522.7361 179.0912 521.5656 179.0912 519.668 177.9208 518.4975 176.7503 517.3271 174.8527 517.3271 173.6822 518.4975" fill="#648fff"/>
<path transform="matrix(1,0,0,-1,-119,762.26278)" d="M125.7506 614.4529C125.14 615.0635 125.14 616.0535 125.7506 616.6641 126.3612 617.2747 127.3511 617.2747 127.9617 616.6641 128.5723 616.0535 128.5723 615.0635 127.9617 614.4529 127.3511 613.8423 126.3612 613.8423 125.7506 614.4529M124.7369 613.4392C123.5664 614.6097 123.5664 616.5073 124.7369 617.6778 125.9073 618.8482 127.805 618.8482 128.9754 617.6778 130.1459 616.5073 130.1459 614.6097 128.9754 613.4392 127.805 612.2688 125.9073 612.2688 124.7369 613.4392" fill="#ffb000"/>
<path transform="matrix(1,0,0,-1,-119,762.26278)" d="M396.1131 675.4451C394.8755 676.6827 394.8755 678.6892 396.1131 679.9269 397.3508 681.1645 399.3573 681.1645 400.5949 679.9269 401.8325 678.6892 401.8325 676.6827 400.5949 675.4451 399.3573 674.2075 397.3508 674.2075 396.1131 675.4451" fill="#19b091"/>
<path transform="matrix(1,0,0,-1,-119,762.26278)" d="M329.2654 715.8112C328.0278 717.0488 328.0278 719.0554 329.2654 720.293 330.503 721.5306 332.5096 721.5306 333.7472 720.293 334.9848 719.0554 334.9848 717.0488 333.7472 715.8112 332.5096 714.5736 330.503 714.5736 329.2654 715.8112" fill="#648fff"/>
<path transform="matrix(1,0,0,-1,-119,762.26278)" d="M421.6798 659.946C420.4422 661.1836 420.4422 663.1901 421.6798 664.4277 422.9175 665.6653 424.924 665.6653 426.1616 664.4277 427.3992 663.1901 427.3992 661.1836 426.1616 659.946 424.924 658.7083 422.9175 658.7083 421.6798 659.946" fill="#648fff"/>
</g>
<g clip-path="url(#clip_153)">
<path transform="matrix(1,0,0,-1,-119,762.26278)" d="M331.2988 717.3939C330.8478 717.5085 330.575 717.967 330.6896 718.418 330.8042 718.8691 331.2627 719.1418 331.7137 719.0273L552.2542 663.0035C552.7052 662.8889 552.978 662.4304 552.8634 661.9794 552.7488 661.5284 552.2903 661.2556 551.8393 661.3702ZM334.6537 661.3442C334.1883 661.3442 333.8111 661.7215 333.8111 662.1868 333.8111 662.6522 334.1883 663.0294 334.6537 663.0294H603.9452C604.4105 663.0294 604.7878 662.6522 604.7878 662.1868 604.7878 661.7215 604.4105 661.3442 603.9452 661.3442ZM448.7009 621.5115C448.4695 621.5446 448.3089 621.7591 448.3421 621.9904 448.3588 622.1069 448.4232 622.2112 448.52 622.2782 448.7222 622.4182 449.1288 622.713 449.7777 622.6887 450.4771 622.5585 451.051 622.2266 451.662 621.766 452.3529 621.2325 453.0653 620.5244 453.6962 619.6703 454.3603 618.7602 454.8088 617.7078 455.1214 616.6927 455.4865 615.452 455.5722 614.2108 455.2622 613.0845 454.9595 612.1233 454.2985 611.4956 453.7154 610.868L451.2286 608.0482C450.7352 607.4575 450.2846 606.8338 449.8818 606.1935 449.3893 605.3642 448.962 604.5487 448.731 603.5832 448.5192 602.3586 448.6348 600.7727 448.8874 598.6321 449.0582 596.7272 449.6226 594.824 450.5286 593.3456 450.7183 593.0362 450.6212 592.6316 450.3118 592.442 450.0023 592.2523 449.5978 592.3495 449.4081 592.6589 448.3794 594.3581 447.7842 596.4379 447.6099 598.5029 447.4857 600.7152 447.4964 602.418 447.8879 603.8031 448.1178 604.8721 448.5752 605.7925 449.0718 606.6756 449.4401 607.3707 449.8681 608.0645 450.3462 608.7292L452.6782 611.7607C453.2115 612.433 453.6344 612.99 453.736 613.4594 453.9424 614.2688 453.8803 615.2085 453.5684 616.2123 453.3001 617.1145 452.9155 618.0172 452.4047 618.7318 451.8792 619.4776 451.2728 620.1078 450.7167 620.5633 450.2207 620.9806 449.8036 621.2277 449.5492 621.3035 449.1712 621.4763 448.9872 621.4704 448.7009 621.5115M453.5942 594.4759C453.8904 594.594 454.2262 594.4496 454.3443 594.1534 454.4184 593.9676 454.391 593.7568 454.272 593.596L454.0923 593.1955C454.0629 593.0995 454.0147 593.0103 453.9506 592.9331L453.6793 592.5409 453.3403 591.489C452.7919 590.024 451.9969 588.2545 451.4608 586.9027L450.9277 585.6801C450.8229 585.4766 450.8223 585.3557 450.5369 585.0945 450.4503 585.0153 450.3168 584.8965 450.0423 584.8502 449.8198 584.8127 449.5066 584.8823 449.3113 585.036 448.8089 585.4316 448.9742 585.5666 448.9601 585.6365L449.0874 585.3255C448.7859 585.7877 448.7218 586.2094 448.459 586.843L447.7512 588.2327 446.5094 590.5322 445.1782 593.2021C444.9167 593.6988 445.1073 594.3135 445.604 594.575 446.0401 594.8047 446.5781 594.6884 446.8804 594.2991 447.4018 593.6277 447.9967 592.7475 448.5974 591.7906L449.82 589.2453 450.4008 587.4849C450.611 586.742 450.6851 586.158 450.7166 585.9408L450.605 586.2609C450.6223 586.2313 450.3953 586.5004 450.4775 586.4212 450.5168 586.3833 450.233 586.5906 450.3093 586.5469 450.3845 586.504 449.8856 586.6717 450.0101 586.652 450.1306 586.6328 449.4873 586.5882 449.6179 586.6266 449.7392 586.6623 449.2404 586.4114 449.3165 586.4713 449.3848 586.5249 449.1346 586.2809 449.1683 586.3235 449.2264 586.397 449.0573 586.1411 449.0723 586.1719 449.1128 586.2544 449.0494 586.1192 449.0655 586.1675L449.1453 586.4012 449.6654 587.6538 451.8952 592.0798 452.5238 593.2314 452.6632 593.6892C452.6992 593.7825 452.7534 593.8678 452.8226 593.94 453.0534 594.1809 453.3198 594.3666 453.5942 594.4759M246.2329 722.1801C246.3356 722.2363 246.4531 722.26 246.5696 722.248 247.085 722.1948 246.9097 722.1021 246.9613 722.0567L247.122 721.903 247.5508 721.3657 248.3092 720.1937 248.7432 719.1503 249.3829 717.8123C249.4687 717.5949 249.3619 717.3492 249.1445 717.2634 248.9426 717.1838 248.7133 717.2698 248.6135 717.4625L247.8706 718.6995 247.2507 719.37 246.4252 720.5164 246.0655 721.1177 245.9442 721.4555 245.9233 721.6575C245.926 721.7534 245.7751 721.9297 246.2329 722.1801M249.3075 717.5845C249.5904 717.4924 249.7452 717.1884 249.6531 716.9055 249.5893 716.7095 249.4194 716.5671 249.2153 716.5386 249.0016 716.5087 248.5324 716.4933 248.0855 716.8002 247.9386 716.863 247.6621 717.0682 247.419 717.3851 247.1589 717.7595 246.9235 718.1913 246.7191 718.7052 246.3264 719.7127 246.1676 720.8392 246.1351 721.7556 246.1243 722.5503 246.4656 723.2607 246.99 723.6561 247.3204 723.8894 247.6709 723.9842 247.9776 724.0054 248.317 724.0165 248.578 723.9713 248.8226 723.9142L249.5175 723.7197 249.855 723.6167C249.9584 723.5858 250.0567 723.54 250.1468 723.4808L251.0488 722.972C251.451 722.7878 251.6277 722.3124 251.4435 721.9102 251.32 721.6406 251.0576 721.4612 250.7615 721.4441L249.5188 721.4329C249.4125 721.4345 249.307 721.4512 249.2055 721.4826L248.8519 721.5941 248.3241 721.7413 248.0929 721.7774 248.0766 721.7826C248.0453 721.7757 248.2367 721.8532 248.1942 721.829 248.1095 721.7828 248.2041 721.9033 248.1901 721.7155 248.122 721.0099 248.1735 720.0144 248.3748 719.2504L248.7467 718.1781 248.9882 717.716C249.0603 717.6495 249.1235 717.6444 249.3075 717.5845M255.9283 722.6205C256.1451 722.4227 256.1604 722.0866 255.9626 721.8698 255.7956 721.6869 255.5244 721.6436 255.3088 721.7654L254.9056 721.9871 254.679 722.1163 254.8529 722.0782 254.6619 722.0833C254.65 722.0819 254.8417 722.199 254.7729 722.1435 254.6186 722.04 254.837 722.2343 254.821 722.2089L254.7484 721.7035 254.7248 720.7821C254.7376 720.1546 254.8794 719.4928 255.1197 719.0222 255.2569 718.7113 255.5111 718.465 255.826 718.2934 256.0004 718.1986 256.2175 718.1531 256.4561 718.1713 256.6995 718.1962 256.9782 718.2982 257.2232 718.4761 257.3679 718.5938 257.5441 718.9317 257.7001 719.3298 257.8949 719.9137 257.961 720.5419 257.8632 720.9912 257.813 721.1524 257.6835 721.3309 257.5346 721.4666L257.3137 721.5995 257.0081 721.6765 256.718 721.6713 256.6039 721.6492 256.5165 721.6219C256.1719 721.481 255.7774 721.5466 255.4968 721.7913L255.313 721.9821 256.0164 721.6561 255.9821 721.6528C255.977 721.6518 256.1115 721.7062 256.0609 721.6815 255.7125 721.5118 255.2924 721.6566 255.1226 722.005 255.0822 722.088 255.0585 722.1781 255.053 722.2702 255.031 722.6344 255.2215 722.8929 255.3991 723.0644L255.1603 722.3368C255.1176 722.5874 255.168 722.7317 255.2197 722.8725 255.348 723.2221 255.6624 723.4694 256.0324 723.5116L256.3533 723.5303 256.6909 723.5113 257.372 723.3643 258.0614 723.022C258.2969 722.8484 258.4944 722.6462 258.6484 722.4055 258.8664 722.0669 259.0456 721.6409 259.0773 721.1627 259.1817 720.4549 259.0203 719.6603 258.7238 718.9233 258.5783 718.4994 258.3951 717.9719 257.9467 717.5747 257.6078 717.2402 257.1616 716.9847 256.6797 716.8559 256.2428 716.7257 255.732 716.7028 255.2285 716.8513 254.6227 717.0263 253.9631 717.3872 253.5013 718.0567 253.0038 718.878 252.7684 719.7704 252.6934 720.612 252.6766 721.1478 252.7224 721.5732 252.7863 721.9328 252.9587 722.6768 253.2457 723.4758 254.1054 723.6229 254.8094 723.665 255.0981 723.3734 255.3077 723.1982L255.1575 723.2916 255.5602 723.036ZM262.3634 727.2278C262.6299 727.3042 262.9079 727.1501 262.9843 726.8836 263.0392 726.6921 262.9757 726.4863 262.8225 726.359 262.7308 726.2828 262.6455 726.1777 262.5191 725.8706 262.3519 725.5379 262.19 725.1229 262.0358 724.5892 261.8819 723.9937 261.7437 723.2639 261.6574 722.5234 261.5368 721.6114 261.5116 720.7079 261.6165 719.9598 261.6727 719.5106 261.7967 719.1155 261.9396 718.8199 262.0123 718.6788 262.0826 718.6234 262.1858 718.5745 262.5504 718.3384 263.2533 718.2848 264.0722 718.244 264.4256 718.2264 264.6978 717.9256 264.6802 717.5723 264.6649 717.2651 264.4334 717.0121 264.1288 716.9696 263.3529 716.8615 262.4653 716.6032 261.4969 716.9845 260.9745 717.28 260.6314 717.6666 260.4322 718.1365 260.2272 718.5877 260.0687 719.1455 260.0036 719.7615 259.9161 720.7221 259.996 721.7428 260.1716 722.7405 260.3279 723.5539 260.5346 724.3292 260.7717 724.9962 260.9584 725.5727 261.1644 726.0547 261.3821 726.4306 261.6941 726.8865 262.05 727.1379 262.3634 727.2278M261.2682 722.5978C261.2682 722.0406 260.8165 721.5889 260.2593 721.5889 259.702 721.5889 259.2503 722.0406 259.2503 722.5978 259.2503 723.1551 259.702 723.6068 260.2593 723.6068 260.8165 723.6068 261.2682 723.1551 261.2682 722.5978M261.2105 722.4989C261.1531 722.0464 260.7398 721.7262 260.2874 721.7837 259.8349 721.8411 259.5147 722.2544 259.5722 722.7068 259.6296 723.1593 260.0429 723.4795 260.4953 723.422 260.8761 723.3737 261.1733 723.0694 261.2127 722.6876L261.207 722.7316 259.8694 723.2369 260.2709 723.4677C260.3235 723.4895 260.3781 723.5065 260.4338 723.5185L260.8271 723.5838 261.2676 723.6289 262.3729 723.5953 262.9142 723.5706C263.0369 723.5647 263.1578 723.539 263.2722 723.4943L263.7653 723.3016 263.5626 723.356 265.1666 723.1025C265.6323 723.0264 265.948 722.5873 265.8719 722.1217 265.8042 721.7074 265.4456 721.4038 265.0259 721.4052L263.4016 721.4212 263.6161 721.4425 263.1055 721.333C262.9823 721.3057 262.8553 721.2991 262.7299 721.3136L262.2002 721.3746 261.24 721.4818 260.715 721.5965 260.3699 721.69C260.3099 721.7073 260.2517 721.7306 260.1963 721.7594L259.8694 721.9687 261.2033 722.4527ZM271.7624 722.4191C271.7862 722.1674 271.6014 721.9442 271.3497 721.9204 271.2315 721.9093 271.1135 721.9445 271.0207 722.0188L270.8099 722.0904C270.7434 722.0956 270.678 722.1103 270.6157 722.1341 270.4235 722.2073 270.0605 722.2301 269.634 722.1855 269.0397 722.1653 268.5828 721.9979 268.3805 721.6901 268.2745 721.529 268.1933 721.2921 268.1985 720.8665 268.1934 720.3854 268.2656 719.8324 268.4415 719.3883 268.6176 718.9393 269.0474 718.5465 269.4464 718.3579 269.6548 718.2605 269.8198 718.2475 269.975 718.2916 270.1252 718.3322 270.353 718.4908 270.5757 718.7752 270.8438 719.127 271.0708 719.7313 271.2363 720.3241 271.3572 720.7466 271.4126 721.1522 271.4452 721.4856L271.4432 721.837 271.5858 721.5538C271.5504 721.5948 271.8382 721.3735 271.7548 721.4188 271.711 721.4426 271.9888 721.3413 271.9205 721.3567 271.8492 721.3727 272.3273 721.3805 272.2024 721.3546 271.8355 721.2783 271.4762 721.514 271.4 721.881 271.3238 722.2479 271.5595 722.6072 271.9264 722.6834 272.2934 722.7596 272.6526 722.5239 272.7288 722.157 272.7726 721.9462 272.7138 721.7271 272.5703 721.5666 272.4993 721.4873 272.6571 721.6899 272.6491 721.6756L272.6579 721.6922 272.724 722.0013 272.6743 721.3587C272.6628 721.0191 272.6203 720.5309 272.491 719.9971 272.3231 719.3233 272.098 718.5823 271.6568 717.9656 271.3499 717.5241 270.9536 717.1204 270.4064 716.9293 269.8896 716.7557 269.3324 716.8045 268.8465 717.0066 268.1245 717.2996 267.3837 717.8844 266.9862 718.7759 266.68 719.4677 266.5685 720.1961 266.5471 720.8283 266.5395 721.5243 266.6934 722.1289 267.004 722.598 267.6232 723.5273 268.6845 723.7957 269.5301 723.8153 270.1626 723.7849 270.7458 723.6938 271.2408 723.3783 271.2969 723.3426 271.3477 723.299 271.3915 723.2489 271.6051 723.0047 271.7355 722.7046 271.7624 722.4191M272.5041 722.5826C272.6152 722.4866 272.695 722.3595 272.733 722.2177 272.8392 721.8216 272.7584 721.9372 272.7582 721.8764L272.7692 721.6569C272.781 721.2696 272.9992 720.519 273.355 719.856 273.3805 719.8085 273.4027 719.7592 273.4212 719.7086L273.6413 719.2021 273.7362 719.0732 273.8671 718.9138C273.9435 718.8301 274.0066 718.7353 274.0545 718.6327L274.2703 718.3158C274.3406 718.2587 274.4012 718.1907 274.4499 718.1143L274.5078 718.064C274.7618 717.9339 274.8622 717.6226 274.7321 717.3686 274.7057 717.317 274.6707 717.2702 274.6287 717.2301 274.4685 717.0775 274.2601 716.9393 274 716.8539 273.9131 716.8254 273.8223 716.8112 273.7309 716.8117 273.2805 716.8143 272.8371 716.9777 272.4569 717.2125 272.3571 717.274 272.2678 717.3509 272.192 717.4403L271.9288 717.7849 271.7028 718.1451 271.3243 718.8028C271.2998 718.8516 271.2789 718.9021 271.2617 718.9539 270.9353 719.9346 270.7404 720.915 270.9787 721.7963 271.0769 722.0747 271.1711 722.2565 271.3158 722.4215L271.6203 722.6665C271.7723 722.7461 272.0178 723.0025 272.5041 722.5826M278.2665 727.8246C278.6456 727.8921 279.0077 727.6395 279.0751 727.2604 279.0915 727.1683 279.0892 727.074 279.0684 726.9829L278.599 725.518 278.101 724.0578C277.7869 723.2055 277.4947 722.4033 277.3549 721.72 277.2262 721.1301 277.2564 720.5685 277.3566 720.0553 277.4293 719.6744 277.5496 719.3795 277.6833 719.1839L277.962 718.9098C278.257 718.7025 278.7395 718.6412 279.5243 719.2382 279.7222 719.3887 280.0046 719.3503 280.1552 719.1524 280.2843 718.9827 280.2766 718.7457 280.1368 718.5847 279.3392 717.6663 278.3684 717.1411 277.3595 717.4179 276.8936 717.606 276.5774 717.861 276.326 718.1688 275.989 718.5873 275.7597 719.0979 275.6156 719.664 275.442 720.354 275.3503 721.177 275.5053 722.0697 275.6727 722.9659 275.9874 723.844 276.2791 724.6727L276.9137 726.1734 277.4843 727.1737C277.6505 727.4205 277.6117 727.7081 278.2665 727.8246M276.416 722.812C276.4366 722.4793 276.242 722.1708 275.9328 722.0462 275.8986 722.0324 276.2112 722.2236 276.1077 722.1454 275.7634 721.8854 275.2736 721.9537 275.0136 722.2979 274.7535 722.6422 274.8218 723.1321 275.1661 723.3921 275.5103 723.6521 276.0002 723.5838 276.2602 723.2396 276.4302 723.0145 276.4657 722.7153 276.353 722.4567 276.3125 722.3637 276.4187 722.7272 276.4116 722.6705 276.4049 722.6161 276.4135 722.8528 276.416 722.812M275.0288 722.2291C274.9343 722.3302 274.8664 722.4531 274.8311 722.5868 274.673 723.1859 274.9248 723.2647 275.0193 723.375L275.2532 723.5756C275.5666 723.7503 275.7781 723.7823 276.0235 723.8231L276.3343 723.8909 276.863 723.9375 277.3877 723.9428 279.1481 723.7102 279.7038 723.6284C279.8546 723.6045 279.9988 723.5497 280.1274 723.4675L280.5939 723.1613C280.9979 722.8885 281.1041 722.3398 280.8313 721.9358 280.7026 721.7454 280.5049 721.6127 280.28 721.5658L279.7854 721.456C279.6399 721.4216 279.489 721.417 279.3417 721.4425L278.8018 721.5302 277.3326 721.6462 276.7793 721.718 276.3617 721.7849 275.9448 721.8837 275.5464 721.9521C275.419 721.9858 275.4517 721.7765 275.0288 722.2291M280.8023 721.6609C280.824 721.9663 281.0892 722.1964 281.3946 722.1747 281.5098 722.1665 281.6195 722.1226 281.7085 722.0491 281.7785 721.9913 281.66 722.0778 281.731 722.0589 281.804 722.0395 281.8729 722.0073 281.9346 721.9637L282.4429 721.781C282.7583 721.8055 283.3368 721.8694 283.9059 721.9862 284.4297 722.041 284.8662 722.1357 285.2281 722.2561 285.6601 722.368 285.9393 722.5379 286.0802 722.6643L286.2336 722.7879C286.2362 722.7905 286.147 722.593 286.1758 722.6793 286.179 722.7154 286.2276 722.2302 286.1914 722.3049 286.1663 722.3569 286.277 722.1902 286.2601 722.2066L286.1574 722.2384C285.8774 722.2791 285.21 722.2019 284.5869 721.9881 284.0233 721.7578 283.5111 721.3784 283.2257 720.9537 283.0128 720.6442 282.9239 720.2043 282.9646 719.7375 282.9968 719.3359 283.1258 718.949 283.3068 718.6848 283.4356 718.4883 283.6466 718.3356 283.9876 718.2286 284.2616 718.1409 284.597 718.091 284.9696 718.0832 285.0244 718.082 285.079 718.0762 285.1328 718.0659L285.9164 717.9752C286.38 717.9526 286.7374 717.5585 286.7148 717.0949 286.6967 716.7226 286.4354 716.4067 286.073 716.3191L285.0584 716.1383C285.0027 716.132 284.9466 716.1305 284.8907 716.1339 284.3674 716.1653 283.8544 716.2547 283.3739 716.4326 282.7307 716.6736 282.13 717.0957 281.7719 717.7234 281.4325 718.3497 281.3003 719.0269 281.3138 719.6828 281.3347 720.4528 281.5607 721.2387 282.0863 721.8337 282.6734 722.4841 283.4566 722.8799 284.2573 723.0865 285.0019 723.3232 285.7803 723.4276 286.4167 723.3011L286.8636 723.2055C287.0441 723.1349 287.3147 722.9842 287.4003 722.6247 287.5268 722.2912 287.3561 721.9531 287.2076 721.7158 286.8628 721.2683 286.3946 720.9253 285.7731 720.6974 285.222 720.5392 284.6747 720.4444 284.11 720.413 283.347 720.4475 282.6906 720.5398 282.1549 720.7113L281.3713 720.8418C281.3012 720.8646 281.2356 720.8995 281.1774 720.9449 280.9888 721.092 280.7761 721.2919 280.8023 721.6609M426.8856 520.4667C427.262 520.2386 427.3821 519.7485 427.1539 519.3722 426.9258 518.9958 426.4358 518.8757 426.0594 519.1038L364.2791 556.5564C363.9028 556.7846 363.7827 557.2746 364.0108 557.651 364.239 558.0273 364.729 558.1475 365.1053 557.9193Z"/>
</g>
<g clip-path="url(#clip_154)">
<path transform="matrix(1,0,0,-1,-119,762.26278)" d="M549.8058 659.946C548.5682 661.1836 548.5682 663.1901 549.8058 664.4277 551.0434 665.6653 553.05 665.6653 554.2876 664.4277 555.5252 663.1901 555.5252 661.1836 554.2876 659.946 553.05 658.7083 551.0434 658.7083 549.8058 659.946" fill="#648fff"/>
<path transform="matrix(1,0,0,-1,-119,762.26278)" d="M471.3933 661.0178C470.7476 661.6635 470.7476 662.7102 471.3933 663.3559 472.0389 664.0015 473.0857 664.0015 473.7313 663.3559 474.377 662.7102 474.377 661.6635 473.7313 661.0178 473.0857 660.3722 472.0389 660.3722 471.3933 661.0178M470.3214 659.946C469.0838 661.1836 469.0838 663.1901 470.3214 664.4277 471.559 665.6653 473.5656 665.6653 474.8032 664.4277 476.0408 663.1901 476.0408 661.1836 474.8032 659.946 473.5656 658.7083 471.559 658.7083 470.3214 659.946" fill="#ffb000"/>
<path transform="matrix(1,0,0,-1,-119,762.26278)" d="M407.2678 528.0336C406.1008 529.2006 406.1008 531.0927 407.2678 532.2597 408.4348 533.4267 410.3269 533.4267 411.4939 532.2597 412.6609 531.0927 412.6609 529.2006 411.4939 528.0336 410.3269 526.8666 408.4348 526.8666 407.2678 528.0336" fill="#19b091"/>
<path transform="matrix(1,0,0,-1,-119,762.26278)" d="M363.1942 555.7398C362.3668 556.5672 362.3668 557.9086 363.1942 558.7359 364.0215 559.5633 365.363 559.5633 366.1903 558.7359 367.0177 557.9086 367.0177 556.5672 366.1903 555.7398 365.363 554.9124 364.0215 554.9124 363.1942 555.7398" fill="#648fff"/>
<path transform="matrix(1,0,0,-1,-119,762.26278)" d="M424.9744 518.2872C424.1471 519.1146 424.1471 520.456 424.9744 521.2833 425.8018 522.1107 427.1432 522.1107 427.9706 521.2833 428.7979 520.456 428.7979 519.1146 427.9706 518.2872 427.1432 517.4599 425.8018 517.4599 424.9744 518.2872" fill="#648fff"/>
<path transform="matrix(1,0,0,-1,-119,762.26278)" d="M459.1921 531.3535C458.3647 532.1809 458.3647 533.5223 459.1921 534.3497 460.0194 535.177 461.3608 535.177 462.1882 534.3497 463.0155 533.5223 463.0155 532.1809 462.1882 531.3535 461.3608 530.5262 460.0194 530.5262 459.1921 531.3535" fill="#dc267f"/>
</g>
<g clip-path="url(#clip_155)">
<path transform="matrix(1,0,0,-1,-119,762.26278)" d="M364.496 556.4655C364.0695 556.5739 363.8115 557.0075 363.9199 557.4341 364.0283 557.8606 364.4619 558.1186 364.8884 558.0102L512.3226 520.5576C512.7491 520.4493 513.0071 520.0156 512.8987 519.5891 512.7904 519.1625 512.3567 518.9046 511.9302 519.0129ZM426.4725 518.9884C426.0324 518.9884 425.6756 519.3452 425.6756 519.7853 425.6756 520.2254 426.0324 520.5822 426.4725 520.5822H512.1264C512.5665 520.5822 512.9232 520.2254 512.9232 519.7853 512.9232 519.3452 512.5665 518.9884 512.1264 518.9884ZM185.8839 745.8443C185.4902 745.6475 185.0116 745.807 184.8147 746.2007 184.6179 746.5943 184.7775 747.073 185.1711 747.2698L203.8523 756.6104C204.2459 756.8072 204.7246 756.6477 204.9214 756.254 205.1182 755.8604 204.9587 755.3817 204.565 755.1849ZM202.1101 760.1001 213.874 760.7303 206.3115 751.6973ZM332.2467 718.6215C332.4737 718.2126 332.3262 717.6971 331.9172 717.4701 331.5083 717.2432 330.9928 717.3907 330.7658 717.7996L319.8249 737.5132C319.598 737.9221 319.7455 738.4376 320.1545 738.6646 320.5634 738.8916 321.0789 738.744 321.3059 738.3351ZM316.3324 735.5772 315.1623 747.6596 324.7965 740.2747ZM508.8937 508.8378C508.7135 509.0744 508.7592 509.4123 508.9958 509.5925 509.2324 509.7727 509.5703 509.727 509.7505 509.4904L509.7412 509.4997C509.9855 509.3301 510.0461 508.9946 509.8765 508.7503 509.7069 508.506 509.3714 508.4454 509.127 508.615ZM508.9105 509.2188C508.9226 509.2536 508.9376 509.2872 508.9554 509.3194L509.0981 509.5081C509.229 509.6536 509.4067 509.7487 509.6005 509.7767L509.7081 509.8193 510.8501 510.6921 512.3174 511.8909 513.3658 512.6789C513.3648 512.6855 513.1647 512.6757 513.648 513.0085 513.9728 513.2321 514.4173 513.1501 514.641 512.8253 514.7099 512.7252 514.7521 512.6092 514.7636 512.4882 514.7987 512.1206 514.7016 511.9248 514.4919 511.6128 514.3573 511.3387 514.0798 510.9442 513.7325 510.5258L512.1624 509.1474C511.5649 508.7029 511.0779 508.2735 510.3805 508.097 509.9648 508.0339 509.657 508.0702 509.4007 508.176 509.2162 508.2523 509.065 508.392 508.9745 508.57 508.8831 508.7499 508.7953 508.8895 508.9105 509.2188M513.4029 513.0359C513.7633 513.3837 514.3375 513.3735 514.6854 513.013 514.8795 512.8118 514.97 512.5324 514.9307 512.2557L514.8663 511.8431 514.8975 511.0275 515.1456 509.4944 515.3229 507.5016 515.2923 505.7284C515.2139 505.1332 515.2041 504.7615 514.8633 504.4455 514.6584 504.2555 514.3382 504.2676 514.1482 504.4725 514.1396 504.4818 514.1313 504.4914 514.1234 504.5014 513.8936 504.7901 513.8549 505.096 513.7353 505.5893L513.4585 507.2739 513.2026 509.1701 512.9075 510.7914C512.8656 511.2691 512.8444 511.6721 512.9226 512.0861 513.0345 512.5218 513.1356 512.778 513.4029 513.0359"/>
</g>
<g clip-path="url(#clip_156)">
<path transform="matrix(1,0,0,-1,-119,762.26278)" d="M510.6283 518.2872C509.8009 519.1146 509.8009 520.456 510.6283 521.2833 511.4557 522.1107 512.7971 522.1107 513.6244 521.2833 514.4518 520.456 514.4518 519.1146 513.6244 518.2872 512.7971 517.4599 511.4557 517.4599 510.6283 518.2872" fill="#648fff"/>
<path transform="matrix(1,0,0,-1,-119,762.26278)" d="M458.2085 519.0038C457.7769 519.4354 457.7769 520.1352 458.2085 520.5668 458.6401 520.9984 459.3399 520.9984 459.7715 520.5668 460.2032 520.1352 460.2032 519.4354 459.7715 519.0038 459.3399 518.5721 458.6401 518.5721 458.2085 519.0038M456.877 517.6722C455.71 518.8392 455.71 520.7313 456.877 521.8983 458.044 523.0653 459.9361 523.0653 461.1031 521.8983 462.2701 520.7313 462.2701 518.8392 461.1031 517.6722 459.9361 516.5052 458.044 516.5052 456.877 517.6722" fill="#ffb000"/>
<path transform="matrix(1,0,0,-1,-119,762.26278)" d="M362.4514 554.997C361.2137 556.2346 361.2137 558.2412 362.4514 559.4788 363.689 560.7164 365.6955 560.7164 366.9331 559.4788 368.1707 558.2412 368.1707 556.2346 366.9331 554.997 365.6955 553.7594 363.689 553.7594 362.4514 554.997" fill="#648fff"/>
<path transform="matrix(1,0,0,-1,-119,762.26278)" d="M424.2316 517.5444C422.994 518.782 422.994 520.7886 424.2316 522.0262 425.4692 523.2638 427.4758 523.2638 428.7134 522.0262 429.951 520.7886 429.951 518.782 428.7134 517.5444 427.4758 516.3068 425.4692 516.3068 424.2316 517.5444" fill="#648fff"/>
<path transform="matrix(1,0,0,-1,-119,762.26278)" d="M458.5771 530.7386C457.4101 531.9056 457.4101 533.7976 458.5771 534.9646 459.7441 536.1316 461.6362 536.1316 462.8032 534.9646 463.9702 533.7976 463.9702 531.9056 462.8032 530.7386 461.6362 529.5716 459.7441 529.5716 458.5771 530.7386M472.8645 679.4913C471.6269 680.7289 471.6269 682.7355 472.8645 683.9731 474.1021 685.2107 476.1087 685.2107 477.3463 683.9731 478.5839 682.7355 478.5839 680.7289 477.3463 679.4913 476.1087 678.2537 474.1021 678.2537 472.8645 679.4913" fill="#dc267f"/>
<path transform="matrix(1,0,0,-1,-119,762.26278)" d="M421.6798 659.946C420.4422 661.1836 420.4422 663.1901 421.6798 664.4277 422.9175 665.6653 424.924 665.6653 426.1616 664.4277 427.3992 663.1901 427.3992 661.1836 426.1616 659.946 424.924 658.7083 422.9175 658.7083 421.6798 659.946" fill="#648fff"/>
<path transform="matrix(1,0,0,-1,-119,762.26278)" d="M329.2654 715.9697C328.0278 717.2073 328.0278 719.2139 329.2654 720.4515 330.503 721.6891 332.5096 721.6891 333.7472 720.4515 334.9848 719.2139 334.9848 717.2073 333.7472 715.9697 332.5096 714.7321 330.503 714.7321 329.2654 715.9697" fill="#648fff"/>
<path transform="matrix(1,0,0,-1,-119,762.26278)" d="M183.4082 744.4378C182.2378 745.6082 182.2378 747.5059 183.4082 748.6763 184.5787 749.8468 186.4763 749.8468 187.6468 748.6763 188.8172 747.5059 188.8172 745.6082 187.6468 744.4378 186.4763 743.2673 184.5787 743.2673 183.4082 744.4378" fill="#648fff"/>
</g>
<g clip-path="url(#clip_157)">
<path transform="matrix(1,0,0,-1,-119,762.26278)" d="M509.8855 517.5444C508.6479 518.782 508.6479 520.7886 509.8855 522.0262 511.1231 523.2638 513.1297 523.2638 514.3673 522.0262 515.6049 520.7886 515.6049 518.782 514.3673 517.5444 513.1297 516.3068 511.1231 516.3068 509.8855 517.5444M549.8058 659.946C548.5682 661.1836 548.5682 663.1901 549.8058 664.4277 551.0434 665.6653 553.05 665.6653 554.2876 664.4277 555.5252 663.1901 555.5252 661.1836 554.2876 659.946 553.05 658.7083 551.0434 658.7083 549.8058 659.946" fill="#648fff"/>
<path transform="matrix(1,0,0,-1,-119,762.26278)" d="M365.4327 557.6488C365.6597 557.2399 365.5121 556.7244 365.1032 556.4974 364.6942 556.2704 364.1787 556.418 363.9518 556.8269L353.0109 576.5405C352.7839 576.9494 352.9315 577.4649 353.3404 577.6919 353.7494 577.9189 354.2649 577.7713 354.4919 577.3624ZM349.5184 574.6045 348.3483 586.6869 357.9824 579.3019ZM425.9841 511.476C425.8203 511.2659 425.5171 511.2284 425.307 511.3922 425.2821 511.4116 425.2592 511.4334 425.2385 511.4573 425.1691 511.5377 425.3675 511.3563 425.3546 511.363L424.8043 511.4631 424.5779 511.4691 424.371 511.2858 424.0188 510.8116C423.839 510.4027 423.7757 509.9424 423.7724 509.3077 423.7845 508.6859 423.8774 507.9664 424.0349 507.5015L424.2418 507.0327C424.3785 506.9171 424.9758 506.7779 425.4907 506.8957 426.0187 507.0041 426.5543 507.2661 426.8207 507.5557 427.0571 507.8185 427.1852 508.2366 427.2146 508.7306L427.153 509.3256 427.0096 509.5216 426.8881 509.6568 426.7811 509.7083 426.5027 509.8002 426.0908 509.9371 425.8358 510.0101C425.7545 510.0307 425.6756 510.0602 425.6007 510.098L425.3289 510.2199 425.3564 510.2034C424.7607 510.281 424.3407 510.8268 424.4183 511.4225 424.4898 511.9717 424.9627 512.3795 425.5165 512.3695L425.9228 512.3267 426.3862 512.2451C426.4718 512.2247 426.5547 512.1946 426.6334 512.1552L426.9526 511.9861 427.4248 511.6869 427.8711 511.309 428.2353 510.8726 428.4798 510.4369C428.5592 510.2685 428.6744 510.034 428.73 509.7244 428.8263 509.3436 428.8049 508.9478 428.7727 508.6101 428.7349 507.9273 428.5464 507.1324 427.9827 506.5019 427.4215 505.8597 426.6236 505.4982 425.8523 505.3205 424.9177 505.125 423.9271 505.2051 423.2186 505.8358 422.8208 506.1996 422.6856 506.6507 422.5748 507.0537 422.3905 507.7774 422.3482 508.5944 422.3849 509.3452 422.4023 510.066 422.5048 510.7594 422.8205 511.4277 422.8947 511.6374 423.0225 511.9403 423.2542 512.2298 423.4877 512.4704 423.7232 512.7314 424.1652 512.8318 424.5812 512.8956 424.8412 512.7981 425.0025 512.7518L425.692 512.4202 425.9577 512.1722C426.0441 512.0573 426.2361 511.7992 425.9841 511.476M467.4367 606.2891C467.7132 606.2093 467.8726 605.9204 467.7928 605.6439 467.7449 605.4782 467.6182 605.3469 467.4543 605.2933 467.1291 605.1868 467.0161 605.3 466.9432 605.3221 466.9551 605.3172 467.0609 605.3175 467.0025 605.3149 466.9666 605.3133 467.2579 605.3948 467.1781 605.3586 467.0927 605.3199 467.4819 605.6708 467.4221 605.5744 467.451 605.6138 467.5163 605.9161 467.5151 605.8752 467.5133 605.8126 467.5093 605.9643 467.51 605.9606L467.5793 605.7109 467.8316 605.0475 468.3283 603.8218 468.5742 602.9808 468.8018 601.6837 468.8518 601.3118C468.8615 601.2089 468.9289 601.154 468.7969 600.8522 468.6513 600.5193 468.2634 600.3674 467.9305 600.513 467.7298 600.6008 467.5859 600.7827 467.5468 600.9983L467.5246 601.0923 467.4378 601.423 467.0513 602.545 466.8275 603.2779 466.348 604.447C466.2293 604.7923 466.1015 605.0744 466.0849 605.4647L466.1651 606.0018C466.2269 606.1843 466.4214 606.5786 466.905 606.5562 467.38 606.634 467.4053 606.3481 467.4825 606.2785L467.5159 606.2565C467.5233 606.2513 467.3549 606.3127 467.4367 606.2891M468.6023 600.4678C468.5407 600.4276 468.4738 600.3963 468.4036 600.3746 467.8594 600.2069 467.8616 600.392 467.7663 600.4435 467.5162 600.5786 467.443 600.7056 467.3577 600.8232L467.0084 601.6243 466.885 603.023C466.8937 603.4126 466.8891 603.8456 466.9681 604.3223 467.048 604.7463 467.191 605.0861 467.3346 605.3729 467.5577 605.8685 467.9187 606.349 468.4222 606.6721 468.8441 606.9238 469.2152 606.9644 469.4897 606.9884 469.8856 607.0058 470.3001 607.0011 470.729 606.829 471.1646 606.6455 471.3589 606.3693 471.4962 606.1983 471.6721 605.9967 471.8593 605.7338 472.0112 605.4272L472.3687 604.7986C472.5491 604.3499 472.5441 603.933 472.5374 603.5741L472.4362 602.3738 472.3945 602.0951C472.3766 601.9839 472.3366 601.8774 472.2768 601.7819L472.05 601.4118C471.8722 601.0932 471.4697 600.979 471.1511 601.1569 470.9946 601.2442 470.8803 601.3913 470.8344 601.5646L470.7317 602.1013C470.7147 602.2121 470.7201 602.3252 470.7475 602.4339L470.8032 602.6667 470.9574 603.6493 470.9315 604.252 470.689 604.7529 470.3577 605.0959 470.265 605.1795 469.7692 605.1389 469.5028 605.0751C469.3546 604.976 469.2098 604.8067 469.0974 604.5486L468.9718 604.059 468.9557 603.0597 468.9902 602.0338 469.0121 601.3686 468.9693 601.0283 468.9214 600.869C468.894 600.7982 469.0255 600.7437 468.6023 600.4678M476.4319 605.219C476.5679 605.0289 476.5241 604.7646 476.334 604.6286 476.1746 604.5146 475.9577 604.5249 475.8099 604.6536L475.6434 604.81 475.8257 604.7032 475.6595 604.7564 475.3846 604.8704 475.0456 604.9919 474.7698 605.0361 474.641 605.0192 474.6248 605.0231C474.5854 604.9998 474.7873 605.1985 474.7535 605.1473 474.6848 605.0488 474.7883 605.2277 474.7829 605.201L474.7629 604.9771 474.7991 604.1789C474.868 603.793 474.9881 603.3958 475.1787 603.0482L475.6273 602.2427C475.6734 602.1818 475.7122 602.1157 475.7431 602.0458L475.815 601.9026 475.6767 602.0845 475.8575 601.9717 476.0684 601.9668C476.1126 601.9625 476 601.9584 476.0555 601.9626 476.1959 601.9642 476.0012 601.9394 476.0056 601.9424L476.1031 602.0426C476.3155 602.3017 476.4997 602.5214 476.6097 602.7674L476.7859 603.4804 476.8661 604.2616C476.8696 604.5485 476.8262 604.8051 476.766 604.9772L476.6617 605.1347C476.6481 605.1445 476.8966 605.076 476.8335 605.0754 476.7388 605.079 476.9641 605.1227 476.9372 605.1069L476.9588 605.1242C476.8489 604.9707 476.6734 604.8777 476.4847 604.8729L476.5455 604.882C476.2946 604.8107 476.0304 604.9402 475.9332 605.1822L475.8867 605.3224C475.8389 605.505 475.8794 605.6994 475.9963 605.8477L476.3653 606.1539C476.5254 606.2327 476.7121 606.273 476.9028 606.2486 477.1256 606.208 477.3024 606.1061 477.4308 605.9727 477.5873 605.8184 477.7314 605.5935 477.8132 605.3129 477.909 604.9996 477.9517 604.629 477.935 604.2244L477.8447 603.3131 477.691 602.3774C477.596 601.9498 477.395 601.5866 477.2679 601.3202 477.0968 600.9826 476.8432 600.5839 476.2828 600.4563L475.9628 600.4364C475.9367 600.4375 476.1086 600.4628 476.0343 600.447 475.6219 600.3071 475.0354 600.4053 474.5666 600.6966L474.7743 600.6018 474.3748 600.7689C474.3071 600.8045 474.2439 600.8479 474.1862 600.8981 473.8574 601.1844 473.5637 601.5356 473.3075 601.9312 472.9355 602.6442 472.7744 603.267 472.6954 603.8176 472.627 604.3799 472.6786 604.8421 472.7399 605.1873 472.8254 605.5949 472.9285 606.0415 473.376 606.401 473.7914 606.7165 474.2256 606.7236 474.4997 606.6943L475.1385 606.5148 475.5977 606.284 476.0639 605.9008 476.3235 605.4758 476.3946 605.1907 476.3195 605.3835ZM478.4073 605.0433C478.4367 605.2965 478.6657 605.4779 478.9189 605.4485 479.0387 605.4346 479.1484 605.3743 479.2243 605.2805L479.3419 605.1823C479.3835 605.1482 479.4201 605.1083 479.4504 605.0639L479.6552 604.7679 480.1964 604.04 480.9425 602.6943C481.1007 602.3359 481.1705 602.0377 481.2007 601.8251L481.2342 601.6132C481.2354 601.5533 481.2513 601.3874 481.055 601.2304 480.857 601.0719 480.568 601.1041 480.4095 601.3021 480.2727 601.4732 480.2757 601.717 480.4167 601.8847 480.4909 601.9729 480.3094 601.6035 480.3161 601.656 480.322 601.7029 480.316 601.5548 480.3145 601.5694L480.2954 601.6164 479.9986 602.1689 479.2274 603.3382 478.6973 604.1183 478.4893 604.4574C478.4623 604.5038 478.4421 604.5538 478.4292 604.606ZM481.1622 601.954C481.362 601.725 481.3383 601.3775 481.1093 601.1777 480.9803 601.0651 480.8062 601.0191 480.6384 601.0531 480.2713 601.1274 480.2457 601.2755 480.1545 601.3729L480.4517 601.2011 479.9386 601.442C479.8883 601.4767 479.8422 601.5171 479.8013 601.5624 479.5725 601.8158 479.3503 602.142 479.1388 602.5399 478.9168 603.0363 478.7357 603.5366 478.6166 604.0771L478.5232 604.8092C478.5065 605.0544 478.4623 605.3492 478.5915 605.7691 478.7459 606.2834 479.2253 606.6556 479.6289 606.78 480.3435 606.9557 480.7571 606.7659 481.1444 606.6444L482.1648 606.1498 482.4107 606.0465 483.0448 605.6915 483.1988 605.6374C483.3789 605.5721 483.5318 605.4479 483.6327 605.285L483.7423 605.1024C483.8983 604.8272 483.8361 604.4799 483.5943 604.2759L483.3185 604.0893C483.155 603.9995 482.9665 603.9658 482.782 603.9934L482.4388 604.0576 481.8349 604.1519 481.383 604.293 480.5997 604.4792 480.1119 604.6157 480.0769 604.6219C480.0636 604.6225 480.2546 604.6477 480.1913 604.634 480.0896 604.616 480.4375 604.769 480.3445 604.7088 480.246 604.6451 480.6509 605.1146 480.5974 604.9994 480.5689 604.9371 480.6271 605.0895 480.6236 605.0617L480.6126 604.8472 480.6402 604.4316 480.8845 603.2533 481.1322 602.328C481.1508 602.27 481.1625 602.2101 481.1672 602.1493L481.1781 601.7303 481.1072 602.0633ZM485.2397 605.8162C485.1906 605.5262 484.9156 605.3308 484.6255 605.3799 484.4313 605.4127 484.271 605.5502 484.2089 605.7371 484.2011 605.7567 484.3042 605.6263 484.2667 605.6664 484.246 605.6885 484.4174 605.55 484.3665 605.5831 484.3393 605.6007 484.5248 605.5091 484.4763 605.5275 484.4245 605.5471 484.86 605.4989 484.7244 605.4903 484.3929 605.4692 484.1072 605.7208 484.0861 606.0523 484.065 606.3837 484.3166 606.6695 484.6481 606.6906 484.9795 606.7117 485.2653 606.4601 485.2863 606.1286 485.2983 605.9412 485.222 605.7591 485.0801 605.6361 485.0006 605.5671 485.2125 605.7986 485.1944 605.7695 485.1375 605.6784 485.2578 605.9145 485.2536 605.8994ZM483.9294 606.0921C483.9394 606.5055 484.2827 606.8324 484.696 606.8223 485.0957 606.8126 485.4172 606.4906 485.4262 606.0909L485.445 605.8357 485.6727 605.0372 485.8632 603.6457 485.9791 602.782 486.0624 602.0069 486.0953 601.5869 486.0934 601.4151C486.089 601.3528 486.1897 601.3094 485.9427 601.0269 485.7346 600.7889 485.3729 600.7646 485.1349 600.9727 485.051 601.046 484.9903 601.1423 484.9603 601.2497L484.8465 601.8366 484.6862 602.5461 484.4684 603.369 484.119 604.5816 483.9447 605.7201ZM485.8618 600.9404C485.7547 600.8607 485.6238 600.8196 485.4904 600.8238 485.0617 600.8372 485.1142 600.9648 485.0626 601.0162 484.925 601.1534 484.8676 601.2745 484.8048 601.4269L484.6563 602.1736 484.5907 602.7969C484.5776 603.0922 484.5295 603.4608 484.5643 603.9018 484.6016 604.3544 484.729 604.8015 484.9379 605.2202 485.1177 605.5659 485.3431 605.8726 485.6213 606.1329 485.9924 606.4537 486.3631 606.5827 486.661 606.6645 487.1236 606.7708 487.57 606.7805 487.9928 606.644 488.5902 606.4158 488.9001 605.9663 489.0549 605.5512 489.1994 605.2012 489.2 604.8579 489.1943 604.5619L489.1925 603.767 489.0954 602.6391 489.0533 602.2952 489.0414 602.2076C489.0393 602.1941 489.2515 602.3338 488.9036 601.8812 488.6862 601.5984 488.2872 601.5817 488.097 601.6541 487.9241 601.7199 487.844 601.8115 487.79 601.8796 487.4748 602.2682 487.5797 602.4397 487.5728 602.6686L487.6027 603.4483 487.85 604.5953C488.0845 605.1656 488.3867 605.6406 488.8039 606.0054 489.1113 606.3392 489.5544 606.5187 489.9222 606.6201 490.1817 606.6994 490.4947 606.7415 490.8206 606.6871 491.2683 606.6124 491.6517 606.362 491.9351 606.0545L492.3105 605.5203C492.4698 605.0761 492.524 604.7615 492.542 604.439 492.5638 604.0047 492.5051 603.5875 492.419 603.1597L492.2456 602.4357 491.9818 601.6171C491.8882 601.3782 491.6185 601.2604 491.3796 601.3541 491.2031 601.4233 491.0863 601.5928 491.0845 601.7823L491.1121 602.6516 491.1457 603.2864 491.0362 604.1636 490.8264 604.6203 490.633 604.9632 490.4667 605.1079 490.2788 605.1038C490.1053 605.0641 489.9272 604.9816 489.8369 604.8926 489.7189 604.7453 489.5738 604.4419 489.4926 604.1237L489.2693 603.2195 489.043 602.2242 489.0449 602.2404C489.0443 602.2345 489.0485 602.353 489.0481 602.3007 489.0478 602.2714 488.9929 602.5991 489.0224 602.4935 489.0523 602.3868 488.7403 602.8968 488.8317 602.81 488.916 602.7301 488.4762 602.9955 488.5639 602.9679 488.7208 602.9184 488.0989 602.9561 488.1898 602.979 488.3362 603.016 487.8733 602.8007 487.9225 602.8423 487.989 602.8986 487.796 602.6959 487.8133 602.7216L487.788 602.6788 487.8628 602.901 488.0311 603.8782 488.029 604.5258 487.8893 604.9395C487.8029 605.0544 487.715 605.093 487.6785 605.0962L487.1988 605.0284 486.8357 604.8511 486.4785 604.4077C486.343 604.1734 486.2611 603.9391 486.2271 603.712L486.1866 602.8269 486.1463 602.2246 486.1295 601.6972 486.1171 601.4682 486.1017 601.3394C486.0902 601.2776 486.2164 601.2046 485.8618 600.9404M497.942 603.971C497.7611 603.823 497.4945 603.8497 497.3465 604.0305 497.3414 604.0368 497.3364 604.0432 497.3317 604.0498L497.2124 604.2552C497.1384 604.3738 497.112 604.516 497.1385 604.6533L497.1416 604.6736 497.2067 604.3566C497.1752 604.413 497.2582 604.2976 497.233 604.3132L497.1702 604.3221 497.0806 604.3436C496.9917 604.367 496.9078 604.4064 496.833 604.46L496.5293 604.6358 496.1988 604.7109 495.7787 604.7059 495.6198 604.5827 495.5284 604.3844 495.4866 603.8855C495.5151 603.5112 495.6219 603.02 495.8023 602.5923L496.1855 601.8754C496.3425 601.65 496.4985 601.5838 496.5579 601.5765 496.58 601.5738 496.5162 601.5629 496.562 601.5945L496.992 602.3173 497.3545 603.042 497.6856 603.7164 497.764 603.9384 497.9536 604.217C498.1974 604.4495 498.5834 604.4402 498.8159 604.1965 499.0483 603.9527 499.0391 603.5666 498.7953 603.3342 498.7608 603.3013 498.7226 603.2726 498.6815 603.2487 498.6256 603.2161 498.8036 603.3477 498.7853 603.3288L498.8102 603.3575 498.6629 603.1513 498.3902 602.5553 498.0646 601.8165C497.8859 601.4024 497.72 600.9695 497.3513 600.6204 497.1953 600.4453 496.9143 600.2524 496.565 600.2059 496.0169 600.1292 495.418 600.3681 494.9564 600.8413 494.6892 601.127 494.4343 601.4689 494.234 601.8815 493.9518 602.5497 493.8132 603.1924 493.7708 603.764 493.7377 604.1625 493.7753 604.5214 493.8479 604.8168 493.9067 605.0537 493.9966 605.2878 494.1379 605.5036 494.5215 606.0081 495.0439 606.2777 495.5721 606.3164 495.9015 606.3466 496.1953 606.3002 496.428 606.2578L497.0532 606.0975C497.3863 605.9618 497.6094 605.7769 497.7593 605.6504 497.8312 605.5897 497.8912 605.5161 497.936 605.4333L497.9862 605.3429 498.1483 605.027C498.1912 604.9273 498.24 604.7268 498.1998 604.5172L498.1621 604.8377 498.2037 604.7342C498.2507 604.6022 498.246 604.4574 498.1905 604.3288 498.1351 604.2007 498.0819 604.0855 497.942 603.971M497.9793 604.3641C498.0786 604.4392 498.195 604.4886 498.318 604.508 498.868 604.5948 498.9225 604.3638 499.0164 604.2719 499.2578 604.0358 499.2794 603.8926 499.3305 603.7967L499.7193 602.8897 499.8183 602.6648 499.8855 602.5417C499.9468 602.4405 499.9924 602.3306 500.0205 602.2157L500.1004 601.9732 499.9791 602.1854 500.025 602.1291C500.4243 601.7078 500.4064 601.0425 499.985 600.6432 499.5799 600.2593 498.9455 600.259 498.5399 600.6424L498.3113 600.8894 498.4804 600.7245 497.9972 601.1966C497.9217 601.2876 497.8605 601.3897 497.8157 601.4992L497.7021 601.8138 497.6132 602.1424C497.543 602.631 497.506 603.0307 497.5367 603.4226L497.6672 603.9169C497.7092 604.0222 497.5531 604.0423 497.9793 604.3641M499.3018 600.4519C498.8424 600.507 498.5146 600.924 498.5696 601.3834 498.6247 601.8428 499.0417 602.1706 499.5011 602.1155 499.7967 602.0801 500.0513 601.8905 500.1699 601.6175L500.1783 601.5933C500.4242 601.3227 500.4042 600.904 500.1336 600.6581 500.0878 600.6165 500.0363 600.5814 499.9807 600.5541 499.775 600.4528 499.5301 600.4245 499.3018 600.4519M502.9943 610.5307C503.3338 610.5591 503.632 610.3069 503.6604 609.9674 503.6713 609.8378 503.6409 609.708 503.5735 609.5967 503.5433 609.5466 503.63 609.7338 503.6234 609.7101L503.6173 609.6048 503.2886 608.2193 502.7843 606.4283 502.5976 605.8367C502.3361 604.994 502.0891 604.1979 502.011 603.6682L501.9698 603.3069 502.0099 602.8476 502.2618 602.489C502.3865 602.389 502.5897 602.3312 502.8548 602.3585 503.3796 602.3546 503.8599 602.3689 504.4335 602.4897 504.7638 602.5593 505.0879 602.348 505.1574 602.0178 505.2179 601.7306 505.0658 601.441 504.795 601.3279 504.1554 601.0608 503.5888 600.9107 503.1382 600.7931 502.465 600.6964 501.8107 600.7819 501.2732 601.1861 500.9247 601.4604 500.6876 601.8077 500.5299 602.1786 500.3557 602.6249 500.3664 603.0348 500.4059 603.4426L500.4547 603.9056C500.585 604.6446 500.8698 605.4625 501.1494 606.3053L501.3364 606.8736 501.8982 608.6 502.2452 609.865C502.3908 610.1754 502.5689 610.4951 502.9943 610.5307"/>
</g>
<g clip-path="url(#clip_158)">
<path transform="matrix(1,0,0,-1,-119,762.26278)" d="M362.4514 554.997C361.2137 556.2346 361.2137 558.2412 362.4514 559.4788 363.689 560.7164 365.6955 560.7164 366.9331 559.4788 368.1707 558.2412 368.1707 556.2346 366.9331 554.997 365.6955 553.7594 363.689 553.7594 362.4514 554.997" fill="#648fff"/>
<path transform="matrix(1,0,0,-1,-119,762.26278)" d="M508.0913 608.373C508.0913 607.8835 507.6945 607.4867 507.2049 607.4867 506.7154 607.4867 506.3186 607.8835 506.3186 608.373 506.3186 608.8625 506.7154 609.2594 507.2049 609.2594 507.6945 609.2594 508.0913 608.8625 508.0913 608.373M508.1216 609.3395C508.5923 609.1522 508.8221 608.6188 508.6348 608.1481 508.4475 607.6774 507.9141 607.4476 507.4434 607.6349 507.4116 607.6476 507.3805 607.662 507.3503 607.6781L507.1765 607.7605C507.0919 607.7919 507.0124 607.8359 506.9409 607.891L506.7737 608.036C506.7451 608.0633 506.8704 607.9705 506.8018 608.0181 506.8145 608.0059 507.195 607.8784 507.1044 607.8938 506.9659 607.9174 507.6233 607.986 507.5089 607.9386 507.399 607.8932 507.7952 608.1512 507.7443 608.0983L507.8393 609.0175 507.8979 608.9257C508.2031 608.543 508.1403 607.9853 507.7576 607.6801 507.3749 607.3748 506.8172 607.4377 506.512 607.8204 506.3316 608.0465 506.273 608.3464 506.3548 608.6239 506.4106 608.8127 506.3869 609.1444 506.9726 609.3333L506.4543 608.5625C506.4451 608.685 506.4063 609.0111 506.7746 609.2907 507.0825 609.5794 507.3367 609.4926 507.4196 609.4991 507.5106 609.5062 507.6022 609.4994 507.6911 609.4789ZM507.1262 605.7284C507.3101 605.6539 507.4525 605.5031 507.5162 605.3153L507.5639 605.0278 507.5782 604.5099 507.5449 603.6279 507.5239 603.2527 507.5017 602.8698 507.4797 602.4863 507.3479 601.6639 507.3321 601.4244C507.3215 601.281 507.2761 601.1424 507.1999 601.0204L507.0176 600.7567 507.1554 601.041 507.0785 600.7511 507.035 600.6226C507.0159 600.5738 507.1256 600.5578 506.8135 600.3141 506.695 600.2215 506.5477 600.1736 506.3974 600.1787 505.76 600.2002 505.8622 600.4747 505.8156 600.5681 505.6956 600.8084 505.6996 600.9584 505.6815 601.1468L505.7766 600.8469 505.629 601.1571C505.5749 601.2903 505.5542 601.4348 505.5685 601.5778L505.6023 601.9033 505.624 602.5771 505.6931 603.0623 505.7524 603.4422 505.81 603.8063 505.9616 604.6553 506.1633 605.3078 506.3611 605.574C506.4657 605.6717 506.6324 605.9282 507.1262 605.7284M509.4918 605.3409C509.4918 604.9655 509.1874 604.6611 508.812 604.6611 508.4365 604.6611 508.1322 604.9655 508.1322 605.3409 508.1322 605.7163 508.4365 606.0207 508.812 606.0207 509.1874 606.0207 509.4918 605.7163 509.4918 605.3409M509.1319 604.7411C508.8007 604.5644 508.3889 604.6897 508.2122 605.0209 508.0355 605.3522 508.1607 605.764 508.492 605.9407 508.5492 605.9712 508.6104 605.9934 508.6739 606.0065L509.019 606.0334 508.7523 605.9827C508.983 606.0781 509.2089 606.0998 509.4577 606.109L510.445 605.9348 510.7667 605.8435 511.0554 605.7564C511.1293 605.7334 511.1998 605.7005 511.2649 605.6586L511.7526 605.3045C511.9697 605.1913 512.243 604.9409 512.3227 604.5692 512.3802 604.0468 512.079 603.8217 511.9068 603.7174 511.8154 603.6006 511.6108 603.4972 511.4089 603.3762L511.0078 603.0158 510.4771 602.4069 510.1102 601.7773 510.0704 601.6161C510.0709 601.6258 509.8104 601.941 509.871 601.9144L510.2665 601.9028 511.1898 601.9648 511.7475 602.002 511.9986 602.0225C512.1091 602.0321 512.2205 602.0226 512.3279 601.9944L512.5749 601.9317 512.375 601.9578 513.2922 601.9501C513.4511 601.9487 513.6064 601.9021 513.7398 601.8158L513.9635 601.6579 513.7483 601.7696 513.9952 601.685C514.2973 601.5665 514.446 601.2255 514.3275 600.9234 514.2749 600.7894 514.1748 600.6793 514.0464 600.6141L513.8111 600.5062 514.0237 600.648 513.8117 600.4613C513.6876 600.3608 513.5373 600.2979 513.3787 600.28L512.4452 600.1817 512.6353 600.2211 512.378 600.1376C512.2723 600.1037 512.1616 600.0882 512.0507 600.0918L511.7687 600.1027 511.2652 600.112 510.1262 600.2079C509.7739 600.2789 509.4021 600.3357 509.0507 600.6596 508.7358 600.9402 508.6571 601.4343 508.7212 601.7275 508.744 601.8952 508.8195 602.1221 508.9547 602.3404 509.1738 602.6572 509.4235 602.9076 509.6817 603.1397L510.4334 603.7453 510.9752 604.1029 511.262 604.373C511.2124 604.2668 511.229 604.1007 511.2146 604.1687 511.1987 604.2441 511.4011 603.9158 511.3469 603.9581L511.1029 604.0665 510.7494 604.0789C510.6721 604.0835 510.5958 604.0985 510.5225 604.1235L510.2608 604.21 509.9979 604.2929 509.287 604.5382 508.7613 604.7418 509.0392 604.6954 509.0063 604.6928C508.9971 604.691 509.2281 604.7924 509.1319 604.7411M514.6787 603.5384C514.4038 603.7514 514.3536 604.1469 514.5665 604.4218 514.6374 604.5133 514.7321 604.5835 514.8402 604.6247L515.295 604.7065 516.2819 604.7137 517.0261 604.7525 517.331 604.7998C517.4288 604.8247 517.2386 604.6874 517.2715 604.728L517.259 604.6917 517.2641 604.576 517.2822 604.5288 516.9737 604.4857 516.3463 604.289C516.0308 604.1502 515.7593 603.9729 515.5952 603.7912L515.4754 603.6058C515.4048 603.4343 515.3725 603.2497 515.4058 603.0688L515.574 602.7614C515.6836 602.6243 515.9953 602.4357 516.3758 602.3155L517.0754 602.199 517.7634 602.2216C517.827 602.23 517.8912 602.2317 517.9551 602.2267L518.1995 602.2148 518.715 602.3031 518.9944 602.3675C519.1458 602.405 519.3046 602.3992 519.4528 602.3508L519.6969 602.269C520.0368 602.1492 520.2153 601.7765 520.0955 601.4366 520.0816 601.3972 520.064 601.3593 520.0428 601.3233L519.8397 601.0349C519.7386 600.9107 519.6039 600.8184 519.4517 600.7689L519.1022 600.6631 518.3479 600.4855 518.1223 600.4156C518.0587 600.3986 517.9935 600.3885 517.9277 600.3853L516.8799 600.4408C516.5133 600.505 516.144 600.5986 515.7848 600.7588 515.2338 601.0029 514.6782 601.3478 514.3373 601.9164 514.1601 602.2001 514.0444 602.5196 513.9988 602.8395 513.8989 603.2892 513.9781 603.7627 514.1176 604.143L514.4532 604.7448C514.7611 605.1627 515.1771 605.4723 515.5832 605.6998 515.9943 605.8968 516.3521 605.9868 516.6771 606.0195 517.0615 606.0153 517.3228 605.9561 517.5462 605.8632 517.7504 605.7729 517.9418 605.6475 518.0898 605.4663 518.1733 605.4082 518.3319 605.2255 518.4136 604.9637 518.544 604.7844 518.5429 604.4283 518.4972 604.1692 518.4872 603.9816 518.3309 603.6281 518.0391 603.4139 517.7915 603.2669 517.5631 603.1684 517.2815 603.121L516.2582 603.1365 515.1782 603.2891Z"/>
<path transform="matrix(1,0,0,-1,-119,762.26278)" d="M427.0289 657.057C426.8472 657.204 426.8191 657.4704 426.9661 657.6521 427.0632 657.7721 427.218 657.8297 427.3699 657.8024L427.8584 657.6362C427.9211 657.6068 427.9772 657.565 428.0233 657.5133L428.2191 657.2902 428.5188 657.0727 429.0122 656.6936 429.4835 656.4945 430.4866 656.3754 431.234 656.3644 432.3847 656.3642 433.0525 656.3712 434.0962 656.3646 435.0299 656.3517 436.3799 656.3602 437.4558 656.3776 439.2457 656.3896 440.1934 656.4536 442.024 656.6023 443.1635 656.6563 444.1644 656.7525 445.6289 656.9169 446.5491 657.038 447.8426 657.2854 448.7124 657.434 449.9748 657.6084 451.1788 657.795 452.1952 657.9423 453.6204 658.0816 455.1547 658.2203 456.8003 658.3437 458.623 658.4398 459.2761 658.4674 461.0029 658.5454 462.6545 658.5827 464.25 658.6029 466.1386 658.6134 466.8322 658.6185 468.7261 658.5499 470.4639 658.4349 471.7537 658.3214 474.2099 658.0703 475.0112 657.9385 477.0059 657.6125 477.9059 657.4026 478.9714 657.0709 480.1798 656.7113C480.7797 656.5415 481.3018 656.3098 481.7335 656.1181L482.4898 655.677 483.2433 655.2689 484.0256 654.8548C484.4515 654.616 484.7997 654.3691 485.0729 654.1279 485.479 653.7496 485.6399 653.3461 485.7082 653.1986L485.7216 653.181C485.7222 653.1801 485.5617 653.3128 485.6428 653.2534L484.8741 653.2413C484.9054 653.2657 484.7395 653.1017 484.7748 653.1446 484.9993 653.4169 485.4019 653.4557 485.6742 653.2312 485.9465 653.0068 485.9853 652.6042 485.7609 652.3319 485.5365 652.0596 485.1338 652.0207 484.8615 652.2452 484.684 652.3915 484.5989 652.6218 484.6385 652.8484L484.6311 652.7904 485.0451 652.1412C484.695 652.2708 484.6662 652.4152 484.5663 652.5699 484.4328 652.7546 484.3698 652.8889 484.1715 653.0441L483.3391 653.5871 482.6028 653.9676 481.7313 654.4409 481.1492 654.7643C480.7185 654.9489 480.2598 655.143 479.7855 655.2717L478.5056 655.6538 477.4494 655.9772 476.7742 656.1369 474.7249 656.4631 474.0104 656.5865 471.6139 656.8447 470.3223 656.9628 468.65 657.079 466.8431 657.128 466.1349 657.1331 464.2548 657.1436 462.6703 657.1405 461.0429 657.1345 459.3055 657.0952 458.6896 657.0733 456.8829 656.9873 455.307 656.8775 453.7183 656.7347 452.3489 656.6184 451.3644 656.4888 450.1333 656.3265 448.8818 656.175 448.1472 656.0666 446.6907 655.8238 445.7534 655.7401 444.2773 655.6012 443.2221 655.5097 442.0843 655.4479 440.2931 655.2973 439.2789 655.2236 437.46 655.2356 436.3739 655.2531 435.0191 655.2615 434.1008 655.2487 433.0656 655.242 432.3838 655.249 431.1965 655.3164 430.3924 655.4015C429.9843 655.4439 429.5781 655.4901 429.2106 655.6089L428.5534 655.8911 427.9453 656.3331 427.5854 656.6429 427.4314 656.7053C427.3681 656.7336 427.3113 656.7745 427.2644 656.8255ZM485.0216 652.1363C484.9203 652.1804 484.8316 652.2491 484.7637 652.3363 484.4969 652.6788 484.6359 652.5913 484.6166 652.659L484.5355 652.8853 484.4839 653.4095C484.5726 654.0552 484.9207 654.7306 485.5712 654.9961 486.0825 655.23 486.6181 655.2193 487.2066 655.2546L488.4157 655.3497 489.4712 655.472 490.0679 655.5117 491.2439 655.5664 491.9901 655.5954 493.0741 655.6331 493.9214 655.6739 495.2788 655.6991 496.0265 655.7043 497.0622 655.6751 497.6037 655.6699 498.8073 655.6419 500.0368 655.633 500.826 655.6142 501.3967 655.5994 502.6304 655.5344 503.4331 655.5038 504.4603 655.4593 505.058 655.4368 506.3333 655.3898 507.1561 655.3567 508.1533 655.3192 508.7994 655.2889 509.5713 655.2477 510.4354 655.2138 511.2971 655.1677 512.2075 655.1107 513.3289 655.0491 514.4863 655.0403 515.5425 655.0111 516.1251 654.985 516.7968 654.942 517.8119 654.8909 519.0945 654.8643 519.6979 654.8771 520.7873 654.8514 521.7451 654.8176 522.4643 654.7922 523.4338 654.713 523.8872 654.6813 525.1436 654.6572 525.9053 654.6209 527.1805 654.5604 527.794 654.4892 529.0943 654.3979 530.0039 654.374 531.4887 654.2655 533.4828 654.1718 534.2639 654.1097 535.3796 653.9591 537.3026 653.8258 538.8973 653.7209 540.6468 653.6498C541.4158 653.6586 541.8744 653.7237 542.326 653.8604L544.0823 654.2706 544.9778 654.5439 545.2693 654.6629 545.4288 654.7455 545.5952 654.8423 545.8137 654.9663 546.0485 655.092 546.1517 655.166 546.3685 655.3041 546.4004 655.3299C546.5031 655.4066 546.6193 655.4634 546.7429 655.4973L546.9968 655.5717 546.816 655.4929 546.8943 655.539C547.324 655.7911 547.8768 655.6471 548.1289 655.2173 548.3352 654.8656 548.2799 654.4193 547.9941 654.1285L547.9122 654.0458 548.0492 654.2177 547.8478 653.9146C547.7733 653.8102 547.68 653.7207 547.5725 653.6508L547.4707 653.5853 547.2875 653.4629 547.0019 653.3072 546.8249 653.2037 546.5015 653.0569 546.1934 652.9484 545.9319 652.8667 545.517 652.748 544.485 652.5002 542.8424 652.1227C542.2008 651.9423 541.5254 651.8695 540.647 651.8711L538.7427 651.9375 537.2231 651.9989 535.1461 652.1193 534.093 652.2462 533.3796 652.3024 531.3299 652.4191 529.9625 652.5201 529.0155 652.5391 527.5876 652.6367 527.0307 652.7055 525.8061 652.7816 525.095 652.818 523.774 652.8651 523.2908 652.8985 522.3818 652.9595 521.6508 653.0059 520.6961 653.0669 519.6844 653.1343 519.0592 653.147 517.7546 653.1647 516.6938 653.2083 516.0231 653.2605 515.4593 653.3008 514.4399 653.3638 513.2367 653.4284 512.0949 653.5049 511.2019 653.5634 510.3585 653.612 509.474 653.666 508.7091 653.7191 508.0719 653.7603 507.0624 653.841 506.2539 653.8995 504.987 653.9701 504.3721 654.0142 503.3667 654.0848 502.5497 654.1269 501.34 654.1991 500.7617 654.2294 500.0127 654.2593 498.7969 654.2504 497.6157 654.2227 497.0474 654.217 496.0472 654.1883 495.2841 654.1933 493.9805 654.169 493.1457 654.1212 492.0706 654.0433 491.3207 654.0008 490.1833 653.9176 489.6606 653.8634 488.575 653.7282 487.2904 653.6576 486.1938 653.5341C486.1427 653.5078 486.1788 653.5684 486.1653 653.368L486.0988 653.0105 485.9441 652.5395 485.8535 652.3768 485.6602 652.1924C485.5518 652.122 485.4002 651.9715 485.0216 652.1363M481.6812 648.5289C481.8404 648.7001 482.1081 648.7098 482.2793 648.5506 482.3718 648.4646 482.4211 648.3416 482.4135 648.2154 482.3882 647.7949 482.151 647.5308 481.9542 647.0451 481.8268 646.7233 481.6977 646.3532 481.627 645.9242 481.5603 645.5443 481.5493 645.0843 481.5795 644.6246 481.6044 644.1794 481.6842 643.7784 481.804 643.486 481.8884 643.2467 481.9931 643.0892 482.1188 642.9629L482.1964 642.8931 482.4624 642.6668 482.4912 642.6676 482.6374 642.622C482.8775 642.5639 483.0793 642.4016 483.1875 642.1795L483.2137 642.1341 482.9179 642.3781 483.4849 642.2292C483.7265 642.1925 483.8926 641.967 483.8559 641.7255 483.8323 641.5695 483.7273 641.4379 483.5805 641.3801L482.7933 641.1489 483.1289 641.3255 482.9945 641.1987C482.8147 641.0381 482.5739 640.9638 482.3349 640.9951L482.016 641.0557 481.7071 641.1545 481.1937 641.3621 480.8164 641.666C480.505 641.9859 480.2482 642.383 480.0919 642.8488 479.9246 643.4525 479.8873 644.0334 479.916 644.6112 479.9496 645.1774 480.0275 645.7469 480.1979 646.2719 480.3894 646.8417 480.6478 647.2846 480.8821 647.6237 481.2442 648.1549 481.5974 648.4388 481.6812 648.5289M479.5695 643.7568C479.3329 643.5033 478.9355 643.4896 478.682 643.7262 478.478 643.9166 478.4241 644.2188 478.5498 644.468 478.6459 644.6586 478.8425 644.8693 479.0636 644.9844 479.1206 645.0141 479.1815 645.0355 479.2445 645.048L480.2385 645.1321 479.9617 645.0529 480.2208 645.1964 480.6749 645.3329 481.0408 645.3987 481.3738 645.4518C481.4833 645.4683 481.595 645.4622 481.7021 645.4339L482.3153 645.2636C482.6404 645.1681 482.8265 644.8271 482.731 644.502 482.676 644.3149 482.5352 644.165 482.3518 644.0984L481.7784 643.8891C481.6727 643.8496 481.56 643.8327 481.4474 643.8393L481.1357 643.8552 480.8292 643.8673 480.4853 643.8972 480.0829 644.0037 480.3705 643.9896 479.7101 643.7967C479.655 643.7653 479.5957 643.7419 479.534 643.7271ZM484.8623 646.097C485.1482 646.141 485.4157 645.9449 485.4597 645.6589 485.4885 645.4715 485.4138 645.283 485.2642 645.1663L485.1153 645.0296 485.0464 644.8562C484.9803 644.5799 484.9611 644.2743 485.0424 643.9729L485.3099 643.2864 485.5804 642.8602 485.7706 642.7244 486.0061 642.8614C486.1085 642.976 486.2504 643.2668 486.3545 643.5841 486.4335 643.8465 486.4503 644.1594 486.4335 644.4496L486.3857 644.8129 486.2469 644.9583 486.2438 644.9705C486.1891 644.985 486.3611 644.9879 486.3183 644.9782 486.2454 644.9618 486.1706 644.9565 486.0962 644.9625 486.0186 644.9688 486.375 645.1294 486.3262 645.0652 486.2736 644.9961 486.2092 644.9369 486.1359 644.8904 486.0923 644.8627 486.2158 644.9752 486.2098 644.9635 486.0484 644.6483 485.662 644.5236 485.3468 644.685 485.1592 644.781 485.0308 644.963 485.0033 645.1718L485.0357 645.7004C485.0588 645.7857 485.0972 645.8661 485.1489 645.9378 485.389 646.2704 485.8003 646.4587 486.1957 646.4373 486.2676 646.4334 486.3386 646.419 486.4064 646.3945L486.8664 646.1032 487.1568 645.648 487.2764 644.9233 487.3312 644.4872C487.3327 644.1168 487.2971 643.7086 487.1552 643.3103 487.0333 642.9384 486.8683 642.5498 486.5865 642.2478 486.4677 642.0762 486.2824 641.8887 486.0337 641.7673 485.6769 641.5738 485.1973 641.6146 484.8382 641.779 484.5048 641.9554 484.2799 642.1832 484.0879 642.4121 483.8263 642.776 483.624 643.1463 483.5169 643.5774 483.4082 644.2744 483.5153 644.8282 483.7011 645.2502 483.9035 645.6226 484.1684 645.8387 484.4135 645.9535ZM489.2456 645.0433C489.236 644.9593 489.203 644.8797 489.1502 644.8136 488.8875 644.4844 488.8256 644.6369 488.7693 644.6351L488.6552 644.6377C488.4263 644.6504 488.2338 644.8136 488.1837 645.0372L488.1953 644.9996 488.6609 644.7425 488.6472 644.7421C488.6257 644.7327 488.8042 644.8972 488.7611 644.8389 488.72 644.7834 488.6697 644.7354 488.6124 644.697 488.5227 644.6368 488.767 644.8874 488.7531 644.8565L488.7489 644.5646 488.7551 644.1094C488.7815 643.8066 489.0396 643.3456 489.2842 643.0983L489.4516 642.9219 489.4877 642.9233 489.7601 643.3328C489.9061 643.5906 489.9918 643.9572 490.031 644.3142L489.9608 644.751 489.8749 644.9354 489.9502 644.8725 489.9421 644.8767 489.8914 644.8887C489.8379 644.8782 489.7836 644.8727 489.7291 644.8722L489.7919 644.8865 489.8858 644.9357C489.584 644.6971 489.1649 644.6733 488.8379 644.8762 488.7662 644.9208 489.0424 644.793 489.0044 644.8028L489.5637 644.8662C489.326 644.5564 488.8817 644.5024 488.5743 644.7431 488.3602 644.9108 488.2613 645.1865 488.32 645.452L488.5355 645.9834 488.4246 645.44 488.407 645.6183C488.3931 645.9933 488.6101 646.3386 488.9539 646.4889L489.2621 646.5875 489.8229 646.6214C489.877 646.6152 489.9305 646.6039 489.9825 646.5877L490.486 646.3269 490.7314 646.0668 490.9653 645.5912C491.0423 645.4485 491.0947 645.1776 491.0824 644.9032L490.8994 644.1289C490.852 643.7729 490.7379 643.304 490.4838 642.8942 490.3449 642.6594 490.1877 642.4066 489.9429 642.2143 489.8019 642.0407 489.482 641.8975 489.1942 641.8978 488.9479 641.9006 488.7097 641.9828 488.4996 642.1127 487.9588 642.5637 487.507 643.1471 487.386 643.9009L487.3912 644.5759C487.4386 644.9918 487.4106 645.5879 488.1182 645.78 488.1858 645.7984 488.256 645.8048 488.3258 645.7991 488.6655 645.7711 488.8177 645.6113 488.9349 645.4784L488.4106 645.5865 488.4404 645.5998C488.6392 645.707 488.8847 645.6714 489.0448 645.512L489.1454 645.3947C489.1793 645.3472 489.2865 645.4023 489.2456 645.0433M497.3044 648.1876C497.6049 648.3962 498.0176 648.3216 498.2261 648.021 498.2648 647.9652 498.2947 647.9038 498.3148 647.8389 498.4396 647.4347 498.2961 647.3491 498.2526 647.2572L498.1244 647.0224 497.8385 646.5957 497.4234 645.7076 497.1147 644.7365C497.01 644.3156 496.9555 643.877 496.9493 643.5095L496.9601 642.9309 497.0619 642.7362 497.4727 642.5814 498.0494 642.5577 498.7923 642.5972C499.0442 642.6358 499.2798 642.4628 499.3183 642.2108 499.3453 642.0348 499.2686 641.859 499.1213 641.7591L498.3626 641.3339 497.4204 641.1425C496.9956 641.1312 496.5859 641.1916 496.2031 641.3954 495.7964 641.6289 495.4692 642.0203 495.3225 642.4923 495.2178 642.8687 495.2099 643.2102 495.2205 643.5509 495.2635 644.0943 495.3629 644.6391 495.5302 645.1827L495.9535 646.3332 496.6005 647.4254 496.9364 647.8635ZM501.0948 645.2107C501.3143 644.992 501.3151 644.6369 501.0964 644.4173 500.9593 644.2796 500.7605 644.2227 500.5713 644.2669L500.5079 644.2872 500.6859 644.3292C500.5827 644.2881 500.9442 644.5674 500.9032 644.5054 500.8647 644.4472 500.9719 644.6938 500.9644 644.6534 500.9542 644.5981 500.9378 644.5442 500.9155 644.4925 500.8798 644.4097 500.951 644.6363 500.9506 644.6274L501.0266 644.1702 501.1635 643.411 501.2787 643.0641C501.3268 642.9844 501.3621 642.8976 501.3833 642.8069L501.4243 642.6813 501.3388 642.827C501.3721 642.7824 501.1641 642.9577 501.2096 642.9352 501.2523 642.9141 501.1036 642.9636 501.1191 642.9624L501.1704 643.031C501.3122 643.1983 501.5013 643.7736 501.587 644.2944 501.6045 644.5849 501.5518 644.8544 501.5199 644.9093 501.5321 644.8859 501.7448 644.7905 501.7067 644.7877L501.5889 644.7456 501.3936 644.5825C501.2022 644.3272 500.8401 644.2754 500.5848 644.4668 500.3829 644.6182 500.3026 644.8831 500.3865 645.1212L500.6536 645.5956C500.6874 645.6368 500.7263 645.6736 500.7693 645.7051 501.0691 645.9245 501.4412 646.0302 501.808 645.9376 502.152 645.806 502.3682 645.5563 502.4381 645.2879 502.5744 644.9714 502.5458 644.5722 502.4823 644.153 502.4531 643.5832 502.3643 642.892 502.0018 642.3403 501.8728 642.0933 501.6535 641.8478 501.3522 641.7063 501.1445 641.5992 500.7918 641.5193 500.4267 641.6802L500.5888 641.6296 500.041 641.8554C499.9608 641.9063 499.8894 641.9698 499.8294 642.0434 499.6446 642.27 499.4954 642.5421 499.3984 642.8542 499.2992 643.3679 499.3115 643.7173 499.307 643.9853 499.317 644.3769 499.1626 644.8641 499.7264 645.358 499.7677 645.3941 499.8128 645.4257 499.861 645.452 500.1542 645.6126 500.5781 645.6012 500.8381 645.3985L500.6899 645.4842C500.8851 645.4048 500.9992 645.3059 501.0948 645.2107M502.4479 644.9629C502.5886 645.1846 502.8824 645.2502 503.1041 645.1095 503.2111 645.0416 503.2865 644.9339 503.3137 644.8101L503.3472 644.7227C503.3752 644.6688 503.3945 644.6108 503.4043 644.5509L503.5917 643.9551 503.7291 643.2462 503.7544 643.1287C503.8118 642.8785 503.7251 642.6171 503.5296 642.4508L503.4575 642.3936 503.7041 642.7866 503.6482 642.5814C503.6433 642.5635 503.6512 642.7399 503.6547 642.6852L503.164 643.1806C503.2877 643.1717 502.7851 643.0648 502.8526 643.1056 502.909 643.1397 502.7407 643.0156 502.7567 643.0313 502.8379 643.1109 502.6931 642.9533 502.6955 642.9575L502.6991 642.9662 502.8388 643.9036 503.071 644.7618C503.2437 645.2294 503.3889 645.6376 503.8548 645.9309 504.4245 646.2318 504.9664 645.9621 505.2317 645.702 505.4905 645.4484 505.6626 645.1367 505.7866 644.7882 505.9364 644.441 506 644.033 506.0323 643.6284L506.0496 643.1913C505.9724 642.6964 505.8921 642.3679 505.7613 642.0861 505.6227 641.7878 505.2685 641.6582 504.9702 641.7967 504.7768 641.8865 504.6462 642.0728 504.6276 642.2851L504.53 643.0526 504.5184 643.5446 504.4169 644.309 504.2254 644.5954C504.2164 644.6029 504.4006 644.5432 504.3181 644.5611 504.2236 644.5818 504.7995 644.7059 504.6891 644.6334 504.564 644.5618 504.6947 644.6499 504.6567 644.592L504.4893 644.2512 504.205 643.5493C504.0431 643.1235 504.011 642.7418 503.668 642.3738L503.4116 642.1705C503.338 642.1348 503.2426 642.0835 503.0519 642.1154 502.9455 642.1333 502.7827 642.187 502.6712 642.3743 502.5536 642.5719 502.6191 642.8225 502.6514 642.8877L502.8266 642.2152C502.5382 642.4127 502.545 642.6033 502.5414 642.6104L502.8963 642.307 502.7352 642.3815C502.5138 642.5116 502.3832 642.754 502.3965 643.0104L502.4056 643.1733 502.3679 643.6606C502.3325 643.8899 502.2615 644.1463 502.265 644.4647 502.2657 644.5257 502.2761 644.5862 502.2959 644.6439ZM508.7964 644.7751C508.8978 644.5645 508.8094 644.3116 508.5988 644.2102 508.4593 644.143 508.2942 644.1574 508.1684 644.2478L507.9559 644.3726 508.2548 644.3161 508.0184 644.3099C507.7817 644.3257 507.5738 644.4727 507.48 644.6906L507.4434 644.7655 507.6074 644.5788 507.2768 644.8213C507.2554 644.8333 507.5608 644.7791 507.4627 644.7785 507.3581 644.7778 507.8574 644.9598 507.7762 644.893 507.6193 644.7908 507.8443 644.9814 507.8236 644.952L507.7994 644.7689 507.7859 644.1379 507.8639 643.5518 508.0432 643.2541 508.1251 643.168C508.2482 643.1297 507.7921 643.052 507.8422 643.0959 507.9281 643.163 507.8003 643.0452 507.8104 643.0585L507.9104 643.2581C508.0344 643.4507 508.0777 643.6988 508.4741 643.9015 508.7716 644.0093 509.0848 643.9795 509.2737 643.8055L509.1098 643.907C509.692 643.685 509.5431 643.3661 509.5983 643.1098L509.8488 642.5385 510.2037 641.6891 510.6023 640.4805 510.7663 639.4272C510.7924 639.0668 510.8199 638.6954 510.7505 638.2811 510.6904 637.921 510.5949 637.5349 510.4258 637.173 510.2954 636.8906 510.1135 636.6466 509.9123 636.4461 509.6879 636.2251 509.4244 636.1043 509.1853 636.0194 508.9268 635.8518 508.5036 635.6308 507.9394 635.6308 507.4726 635.6323 506.9971 635.7813 506.5496 636.0259 506.0956 636.3245 505.7812 636.6444 505.5211 636.9352 505.142 637.4235 504.911 637.8847 504.9075 638.428 504.8901 638.7253 505.0633 639.1236 505.3049 639.3416 505.5347 639.549 505.7697 639.6334 505.9844 639.6939 506.2679 639.7922 506.6109 639.8461 506.9812 639.8952L508.1927 640.0135 508.5739 640.071 509.0301 640.1368 509.4634 640.2085C509.5803 640.2301 509.7001 640.2316 509.8175 640.2131L510.2199 640.1603C510.7179 640.1068 511.0783 639.6597 511.0247 639.1617 510.9931 638.8673 510.8198 638.6069 510.5605 638.4641L510.1221 638.2342C510.0189 638.1828 509.9079 638.1487 509.7937 638.1334L509.2914 638.0753 508.7924 638.0397 508.3133 638.0255 507.1605 637.9713 506.3883 637.9174 506.4359 637.9397C506.3911 637.9102 506.6626 638.2182 506.6068 638.1238 506.5496 638.0271 506.6936 638.5095 506.6927 638.424L506.9008 638.102 507.4984 637.3927C507.7669 637.1212 507.9864 636.9683 508.1792 636.8923 508.3982 636.8053 508.6597 636.8021 508.9846 636.8463L509.3098 637.054 509.659 637.5342C509.7815 637.7954 509.864 638.1126 509.9159 638.4212 509.9662 638.7216 509.9478 639.0123 509.9222 639.3662L509.7838 640.2653 509.4185 641.3735 509.0331 642.1894 508.7045 642.8704 508.6276 643.0486C508.6242 643.0541 508.6974 642.983 508.6627 643.0127 508.6429 643.0297 508.8018 642.9352 508.757 642.9546 508.7097 642.9751 509.0089 642.9209 508.9387 642.9195L509.1204 642.957C509.04 642.9243 509.307 643.1116 509.2792 643.0759L509.3178 643.1415 509.2747 643.0229 509.2059 642.7451C509.1477 642.5826 509.1457 642.3442 508.8442 642.0365 508.5266 641.7597 508.0731 641.6544 507.712 641.7732 507.3529 641.9098 507.1024 642.1419 506.9052 642.4313 506.7809 642.6083 506.6092 642.8673 506.5234 643.2193L506.3963 644.0207 506.4291 644.945C506.4852 645.3328 506.5254 645.7624 507.0411 646.0218 507.5127 646.1787 507.8573 645.9937 508.0306 645.8248L508.3898 645.4233 508.1962 645.5704 508.2879 645.5304C508.5095 645.445 508.6645 645.2427 508.6893 645.0065L508.6945 644.7985 508.6135 645.0866Z" fill="#c7c3bd"/>
</g>
<g clip-path="url(#clip_159)">
<path transform="matrix(1,0,0,-1,-119,762.26278)" d="M427.0422 652.7133C427.0422 651.9529 426.4258 651.3364 425.6654 651.3364 424.905 651.3364 424.2885 651.9529 424.2885 652.7133 424.2885 653.4737 424.905 654.0901 425.6654 654.0901 426.4258 654.0901 427.0422 653.4737 427.0422 652.7133M426.0907 650.9534C425.9864 650.7253 425.7169 650.6249 425.4889 650.7292 425.3876 650.7755 425.3069 650.8573 425.2621 650.9592L425.1148 651.3475 425.0869 651.4059C425.0818 651.4133 425.2388 651.2841 425.1776 651.324 425.1009 651.3741 425.0334 651.4371 424.9781 651.5102 424.9434 651.5561 425.1063 651.3971 425.0788 651.4149L424.9522 651.4209 424.582 651.4768C424.3151 651.5017 424.0327 651.468 423.8292 651.3695 423.4912 651.1591 423.1812 650.7343 423.0084 650.1262 422.8309 649.5593 422.7715 648.6832 422.8129 647.9204 422.9007 646.7737 423.5409 646.1881 424.4975 646.0508 425.4111 645.8377 426.2089 646.0426 426.7812 646.5042 427.1092 646.8183 427.394 647.1317 427.5331 647.4445L427.5725 647.9352 427.5453 648.2997C427.4896 648.4754 427.1126 649.0171 426.6393 649.6313L426.2373 650.1202 425.8241 650.6222 425.4596 651.045 425.1403 651.4111 425.0324 651.5115C425.1277 651.452 425.3217 651.3778 425.2494 651.4008 424.5245 651.6305 424.1231 652.4044 424.3529 653.1292 424.5826 653.8541 425.3565 654.2555 426.0813 654.0258 426.1978 653.9888 426.3089 653.9366 426.4115 653.8704L426.7001 653.6491 427.1051 653.2563 427.5109 652.7575 427.9116 652.1185 428.2587 651.4819 428.58 650.8192C428.9296 650.1225 429.3526 649.3839 429.3528 648.5116 429.3738 648.2116 429.3054 647.9736 429.2982 647.9063 429.2697 647.5013 429.1513 647.0885 428.9538 646.7343 428.6869 646.1544 428.2255 645.7085 427.8015 645.3191 427.0132 644.4662 425.6902 643.9173 424.2444 644.0815 422.4325 644.4502 421.123 645.9812 421.0796 647.8533 421.0389 648.7466 421.0872 649.7541 421.3703 650.6251 421.7084 651.5768 422.324 652.3459 423.1379 652.7609 423.5751 653.0445 424.1322 653.1552 424.6245 653.173L425.1279 653.1537C425.6336 653.0265 426.1346 652.8325 426.3516 652.2794 426.3851 652.1939 426.4036 652.1032 426.4061 652.0113 426.4222 651.4296 426.1958 651.1834 426.0907 650.9534M425.0998 653.891C425.7301 654.1375 426.4409 653.8263 426.6874 653.1959 426.9338 652.5656 426.6226 651.8548 425.9923 651.6083 425.6101 651.4589 425.1786 651.5106 424.8426 651.7462 424.794 651.7802 425.1347 651.6032 425.046 651.6377 424.9655 651.6691 425.4366 651.5633 425.3304 651.572 425.1422 651.5876 425.995 651.7456 425.855 651.6736 425.7548 651.622 426.1209 651.884 426.0733 651.8343 426.008 651.7661 426.1726 651.9751 426.1662 651.9614L426.1494 651.9031C426.024 651.3882 425.505 651.0723 424.9901 651.1977 424.61 651.2901 424.3241 651.6041 424.2675 651.9912 424.2294 652.2518 424.2018 652.4676 424.2346 652.7488 424.2705 653.0568 424.5279 653.6674 425.0998 653.891M581.2617 654.9537C581.444 655.2033 581.7941 655.2578 582.0437 655.0755 582.1776 654.9777 582.2613 654.8255 582.2721 654.6601L582.2852 654.5121C582.2957 654.4192 582.2851 654.325 582.2543 654.2367L582.0965 653.5447 582.0943 653.7038 582.3179 652.3357 582.4146 651.2687 582.5163 649.6585 582.5986 648.7323 582.4726 647.7839C582.4177 647.5543 582.4578 647.3145 582.0638 647.0908 581.8292 646.9577 581.5317 647.0283 581.3819 647.2525 581.1696 647.5704 581.125 647.9129 580.9828 648.4545L580.8893 649.5414 580.743 651.1158 580.7226 652.2003C580.7917 652.8829 580.8876 653.3786 581.0048 653.7753L580.9818 653.6177 581.0473 654.5416C581.062 654.6329 581.0968 654.7199 581.1491 654.7962ZM582.7845 655.3022C582.8795 655.359 582.9891 655.3867 583.0997 655.382 583.5414 655.3631 583.5378 655.1733 583.5981 655.0819 583.7599 654.8367 583.7818 654.6336 583.8343 654.3696L584.0452 652.201 584.3084 649.4572 584.3173 648.5448 584.3654 648.4132C584.5296 648.1565 584.4547 647.8152 584.1979 647.651 583.999 647.5237 583.7411 647.5372 583.5565 647.6844 583.2923 647.8951 583.2475 648.1051 583.1631 648.345L582.8263 649.0699C582.6086 650.0251 582.4558 651.046 582.3481 652.0067L582.3234 654.2653 582.4591 654.8419C582.5044 654.9705 582.361 655.0488 582.7845 655.3022M582.0817 654.6444C581.9968 654.3628 581.6998 654.2034 581.4182 654.2883 581.2213 654.3476 581.0762 654.5151 581.0454 654.7184 580.9707 655.2118 581.0125 655.9451 581.5734 656.5762 581.8669 656.8797 582.2323 657.1727 582.7118 657.4064 583.3175 657.6543 583.8922 657.7463 584.4292 657.7998 585.0434 657.8159 585.5786 657.77 586.0754 657.6003 586.1266 657.5828 586.1761 657.5605 586.2231 657.5336L586.6895 657.1888C587.195 656.8641 587.5003 656.2574 587.6114 655.6884 587.7443 655.2536 587.7656 654.7511 587.7236 654.2773 587.6829 653.4282 587.2711 652.6778 586.7833 652.1775 586.6399 651.9416 586.401 651.6795 586.1281 651.4563L585.7583 651.2004 585.686 651.1499C585.6731 651.1319 585.7441 651.4384 585.7391 651.3312 585.7218 651.1725 585.6861 651.5687 585.707 651.513 585.7382 651.4298 585.6633 651.5875 585.7042 651.5473 585.8742 651.3802 586.38 651.0613 586.9746 650.6912L587.4489 650.3972 588.2088 649.8543 589.0744 649.1554 589.6674 648.4964C589.8255 648.2891 589.7856 647.9928 589.5782 647.8347 589.5168 647.7879 589.4448 647.7568 589.3686 647.7443 589.0857 647.6977 588.778 647.745 588.4419 647.8177L587.3047 648.291 586.4713 648.7675 585.9338 649.1475C585.5054 649.4585 585.0887 649.7504 584.7396 650.0769 584.3919 650.402 583.9067 650.8926 584.147 651.6246 584.3665 652.1574 584.7335 652.3594 585.0884 652.4769L585.5309 652.5783C585.7735 652.646 585.9747 652.7302 586.1849 652.8787 586.4554 653.1758 586.7559 653.7493 586.7786 654.3373 586.7776 654.7012 586.721 655.0799 586.5969 655.3879 586.4522 655.6592 586.2374 655.8566 585.9487 655.9529L585.8253 655.9364C585.77 655.9347 585.7146 655.9384 585.6599 655.9474 585.4122 655.9882 585.0589 655.9791 584.6697 655.9183 584.1659 655.8757 583.7389 655.8026 583.4523 655.6938 583.0924 655.5837 582.8497 655.457 582.6428 655.3244 582.2435 655.0912 582.1821 654.9771 582.0817 654.6444"/>
</g>
</g>
</g>
</g>
</svg>
