<svg xmlns="http://www.w3.org/2000/svg" xmlns:xlink="http://www.w3.org/1999/xlink" xmlns:inkscape="http://www.inkscape.org/namespaces/inkscape" version="1.1" width="325.5" height="106.46692" viewBox="0 0 325.5 106.46692">
<defs>
<clipPath id="clip_10">
<path transform="matrix(1,0,0,-1,-223.5,777.2581)" d="M223.5 670.7912H549V777.2581H223.5Z" clip-rule="evenodd"/>
</clipPath>
<clipPath id="clip_11">
<path transform="matrix(1,0,0,-1,-223.5,777.2581)" d="M0 0H612V803.25H0Z"/>
</clipPath>
<clipPath id="clip_12">
<path transform="matrix(1,0,0,-1,-223.5,777.2581)" d="M0 0H612V803.25H0Z"/>
</clipPath>
<clipPath id="clip_13">
<path transform="matrix(1,0,0,-1,-223.5,777.2581)" d="M0 0H612V803.25H0Z"/>
</clipPath>
<clipPath id="clip_14">
<path transform="matrix(1,0,0,-1,-223.5,777.2581)" d="M0 0H612V803.25H0Z"/>
</clipPath>
<clipPath id="clip_15">
<path transform="matrix(1,0,0,-1,-223.5,777.2581)" d="M0 0H612V803.25H0Z"/>
</clipPath>
<clipPath id="clip_16">
<path transform="matrix(1,0,0,-1,-223.5,777.2581)" d="M0 0H612V803.25H0Z"/>
</clipPath>
</defs>
<g clip-path="url(#clip_10)">
<g clip-path="url(#clip_11)">
<g clip-path="url(#clip_12)">
<text fill-opacity="0" xml:space="preserve" transform="matrix(.8471761 0 -0 .8471761 -207.5625 -25.991883)" font-size="14" font-family=".SFUI"><tspan y="68.56009" x="354.5023 359.47929 367.32627 375.00529 383.13227 388.10926 396.55827">records</tspan></text>
<text fill-opacity="0" xml:space="preserve" transform="matrix(.8471761 0 -0 .8471761 -207.5625 -25.991883)" font-size="17" font-family=".SFUI"><tspan y="70.87552" x="404.2936 410.0379 419.6072">the</tspan></text>
<text fill-opacity="0" xml:space="preserve" transform="matrix(.8471761 0 -0 .8471761 -207.5625 -25.991883)" font-size="16" font-family=".SFUI"><tspan y="71.3931" x="432.6107 441.1259 449.92909 455.43629 464.46348 472.97868">actual</tspan></text>
<text fill-opacity="0" xml:space="preserve" transform="matrix(.8471761 0 -0 .8471761 -207.5625 -25.991883)" font-size="15" font-family=".SFUI"><tspan y="71.2515" x="481.8348 490.4628 495.9408 499.40879 507.7518 516.27487 521.49789 529.5409 534.7639 538.23196 546.8599">orientation</tspan></text>
<text fill-opacity="0" xml:space="preserve" transform="matrix(.8471761 0 -0 .8471761 -207.5625 -25.991883)" font-size="24" font-family=".SFUI"><tspan y="81.68216" x="564.6634 577.73379">of</tspan></text>
<g clip-path="url(#clip_13)">
<path transform="matrix(1,0,0,-1,-223.5,777.2581)" d="M228.7102 675.2488C228.4661 674.8827 227.9714 674.7837 227.6052 675.0278 227.239 675.272 227.14 675.7667 227.3842 676.1329L284.0771 761.1723C284.3212 761.5385 284.816 761.6375 285.1822 761.3933 285.5484 761.1492 285.6473 760.6545 285.4032 760.2883ZM283.9842 760.4783C283.845 760.8958 284.0706 761.3471 284.4882 761.4863 284.9057 761.6254 285.357 761.3998 285.4961 760.9823L313.8426 675.9429C313.9818 675.5254 313.7561 675.0741 313.3386 674.9349 312.9211 674.7957 312.4698 675.0214 312.3306 675.4389ZM228.0472 674.894C227.6071 674.894 227.2503 675.2508 227.2503 675.6909 227.2503 676.131 227.6071 676.4878 228.0472 676.4878H313.0866C313.5267 676.4878 313.8835 676.131 313.8835 675.6909 313.8835 675.2508 313.5267 674.894 313.0866 674.894Z"/>
</g>
<g clip-path="url(#clip_14)">
<path transform="matrix(1,0,0,-1,-223.5,777.2581)" d="M295.391 720.3007C294.2205 721.4712 294.2205 723.3688 295.391 724.5393 296.5614 725.7097 298.4591 725.7097 299.6295 724.5393 300.8 723.3688 300.8 721.4712 299.6295 720.3007 298.4591 719.1303 296.5614 719.1303 295.391 720.3007" fill="#dc267f"/>
<path transform="matrix(1,0,0,-1,-223.5,777.2581)" d="M268.4476 673.5716C267.2772 674.742 267.2772 676.6397 268.4476 677.8101 269.6181 678.9806 271.5157 678.9806 272.6862 677.8101 273.8566 676.6397 273.8566 674.742 272.6862 673.5716 271.5157 672.4012 269.6181 672.4012 268.4476 673.5716" fill="#ffb000"/>
<path transform="matrix(1,0,0,-1,-223.5,777.2581)" d="M241.6122 697.098C240.4417 698.2684 240.4417 700.1661 241.6122 701.3365 242.7826 702.507 244.6803 702.507 245.8507 701.3365 247.0212 700.1661 247.0212 698.2684 245.8507 697.098 244.6803 695.9275 242.7826 695.9275 241.6122 697.098" fill="#19b091"/>
<path transform="matrix(1,0,0,-1,-223.5,777.2581)" d="M282.6209 758.611C281.4504 759.7815 281.4504 761.6791 282.6209 762.8496 283.7913 764.02 285.689 764.02 286.8594 762.8496 288.0299 761.6791 288.0299 759.7815 286.8594 758.611 285.689 757.4406 283.7913 757.4406 282.6209 758.611" fill="#648fff"/>
<path transform="matrix(1,0,0,-1,-223.5,777.2581)" d="M225.9279 673.5716C224.7575 674.742 224.7575 676.6397 225.9279 677.8101 227.0984 678.9806 228.996 678.9806 230.1665 677.8101 231.3369 676.6397 231.3369 674.742 230.1665 673.5716 228.996 672.4012 227.0984 672.4012 225.9279 673.5716" fill="#648fff"/>
<path transform="matrix(1,0,0,-1,-223.5,777.2581)" d="M310.9673 673.5716C309.7969 674.742 309.7969 676.6397 310.9673 677.8101 312.1378 678.9806 314.0354 678.9806 315.2059 677.8101 316.3763 676.6397 316.3763 674.742 315.2059 673.5716 314.0354 672.4012 312.1378 672.4012 310.9673 673.5716" fill="#648fff"/>
</g>
<g clip-path="url(#clip_15)">
<path transform="matrix(1,0,0,-1,-223.5,777.2581)" d="M285.0965 760.0175C284.7029 759.8207 284.2242 759.9803 284.0274 760.3739 283.8306 760.7676 283.9901 761.2462 284.3838 761.443L312.7302 775.6163C313.1239 775.8131 313.6025 775.6535 313.7994 775.2599 313.9962 774.8663 313.8366 774.3876 313.443 774.1908ZM307.164 773.8346C306.7239 773.8346 306.3671 774.1914 306.3671 774.6315 306.3671 775.0716 306.7239 775.4284 307.164 775.4284H313.0866C313.5267 775.4284 313.8835 775.0716 313.8835 774.6315 313.8835 774.1914 313.5267 773.8346 313.0866 773.8346ZM312.3925 775.2949C312.6086 775.6782 313.0946 775.8138 313.478 775.5977 313.8613 775.3816 313.9969 774.8956 313.7808 774.5122L311.1695 769.8804C310.9534 769.497 310.4674 769.3614 310.084 769.5776 309.7006 769.7937 309.5651 770.2797 309.7812 770.6631ZM305.178 762.9076C305.3704 763.1949 305.7593 763.2718 306.0465 763.0794 306.2472 762.9449 306.3527 762.707 306.3175 762.468L306.3095 761.8306 306.3609 760.7884C306.4278 760.3365 306.614 759.7607 306.8803 759.1302 307.082 758.6018 307.3435 758.0671 307.6577 757.5169 307.9962 756.8855 308.3473 756.2802 308.7367 755.784L309.1891 755.3625C309.6323 755.0465 309.9234 754.7068 310.1818 754.4911L311.1425 753.5715C311.5422 753.2527 312.0352 752.9835 312.6565 752.8019 313.25 752.6226 313.8303 752.5311 314.2439 752.5345L314.6779 752.5402C315.7676 752.4407 316.606 752.3312 317.2003 752.1926 317.2801 752.1739 317.3557 752.1402 317.4229 752.0932L317.623 751.9319C317.8325 751.7321 317.8403 751.4004 317.6405 751.1909 317.6176 751.1669 317.5925 751.1452 317.5656 751.126L317.3616 751.0003C317.2896 750.9611 317.2108 750.9361 317.1295 750.9265L314.768 750.708 314.2409 750.711C313.5877 750.7138 312.8645 750.8471 312.1343 751.0755 311.2901 751.3481 310.5896 751.7561 310.0261 752.2385 309.5994 752.5945 309.3133 752.9587 309.062 753.1776L308.1884 754.0067C307.9368 754.1983 307.6782 754.4454 307.4335 754.7506 306.9358 755.3306 306.5153 756.0019 306.1407 756.6345 305.7856 757.2722 305.4914 757.8875 305.269 758.4955 305.0173 759.2666 304.847 759.9823 304.8236 760.6587 304.7997 761.1619 304.856 761.5847 304.8844 761.8729 304.9317 762.3263 305.003 762.6464 305.178 762.9076M306.8223 762.8112C306.8223 762.0544 306.2087 761.4409 305.4519 761.4409 304.6951 761.4409 304.0816 762.0544 304.0816 762.8112 304.0816 763.568 304.6951 764.1815 305.4519 764.1815 306.2087 764.1815 306.8223 763.568 306.8223 762.8112M305.5046 757.6308C305.3394 757.3861 305.007 757.3217 304.7623 757.487 304.6742 757.5465 304.6059 757.6308 304.566 757.7293L304.4714 757.971C304.3971 758.1739 304.4318 758.4007 304.5634 758.5721L304.5986 758.6204 304.5015 758.3857 304.5199 758.4875 304.5415 758.5934 304.7815 758.0275 304.5044 758.2961C304.4414 758.3839 304.3992 758.4847 304.3809 758.5911L304.335 759.444 304.3624 760.6252 304.3713 761.7831 304.3155 762.2654C304.315 762.2673 304.4044 762.0979 304.3561 762.179 304.0056 762.7673 304.1983 763.5283 304.7866 763.8787 305.3748 764.2292 306.1358 764.0365 306.4863 763.4482 306.6978 763.0933 306.7186 762.6563 306.5417 762.2828 306.5032 762.2015 306.6219 762.5106 306.61 762.4668 306.5913 762.398 306.6348 762.5905 306.6333 762.5785L306.6093 762.3338 306.5318 761.6553 306.3481 760.4384 306.0518 759.2077 305.7406 758.4345C305.6986 758.3351 305.6346 758.2466 305.5535 758.1755L305.3024 758.0025 305.5954 758.5429 305.6051 758.4743 305.6181 758.4048 305.5128 758.6364 305.5443 758.5971C305.6844 758.4326 305.7307 758.2079 305.6668 758.0014ZM304.5159 761.8104C303.9632 762.3273 303.9342 763.1945 304.4511 763.7472 304.9681 764.3 305.8353 764.3289 306.388 763.812 306.4354 763.7676 306.4797 763.7199 306.5204 763.6692L306.6914 763.4467 306.7809 763.3749 307.3039 762.8983 307.7156 762.5951 308.237 762.2435 309.4766 761.3961C309.5485 761.3525 309.6149 761.3004 309.6742 761.2408L309.9253 760.9967 309.7834 761.1057 310.4556 760.7158C310.8249 760.5159 310.9621 760.0545 310.7622 759.6852 310.6055 759.3958 310.2804 759.2401 309.9567 759.2994L309.1086 759.4772 309.2859 759.4539 308.8877 759.4696C308.8037 759.4737 308.7204 759.488 308.6398 759.5121L307.1207 760.0334 306.3678 760.416 305.781 760.7636 305.0847 761.2275 304.5878 761.7228 304.4904 761.8323C304.4621 761.865 304.5892 761.7418 304.5159 761.8104M319.8484 753.7215C320.1152 753.576 320.2136 753.2417 320.0681 752.9749 320.0137 752.8751 319.9297 752.7946 319.8277 752.7445 319.7832 752.7226 320.0777 753.0497 320.0191 752.9376 319.9601 752.8244 320.0619 753.2553 320.0691 753.2106 320.0783 753.0433 320.0679 753.1777 320.0895 753.1257L320.2247 752.8624 320.7007 752.2507 321.3102 751.4506C321.695 750.8682 321.9435 750.3029 322.1052 749.8467 322.2213 749.4966 322.2206 749.2058 322.1856 748.9955 322.1891 748.884 322.0165 748.5054 321.6741 748.4897 321.3702 748.4759 321.2771 748.6214 321.1963 748.7111L321.0119 749.0018 321.1572 748.8363 320.8683 749.0777 320.3549 749.781 319.8628 750.6269C319.7009 750.9514 319.5229 751.356 319.3809 751.8599L319.149 753.262C319.0665 753.8751 318.9716 754.4439 319.2049 755.1318 319.4681 755.8321 320.1037 756.0751 320.4058 756.1509 320.4632 756.1653 320.5216 756.1755 320.5806 756.1815L321.419 756.1852 322.6998 755.9664C322.7623 755.9532 322.8235 755.9349 322.883 755.9117L324.4763 755.2766 325.2692 754.7239C325.5254 754.5058 325.5563 754.1213 325.3382 753.8651 325.2365 753.7456 325.0926 753.67 324.9366 753.654L324.2098 753.582 322.4477 753.6421C322.3839 753.6426 322.3202 753.6482 322.2574 753.659L321.2115 753.7901 320.909 753.7665C320.8508 753.7565 320.792 753.7507 320.733 753.7493 320.7072 753.7466 321.0307 753.8593 320.9294 753.8111 320.8193 753.7586 321.3647 754.2449 321.2716 754.107 321.2154 754.0283 321.2854 754.1372 321.2794 754.1208L321.1876 753.3396 321.2612 752.2432 321.4239 751.1609 321.6304 750.312 321.7799 749.5999 321.8308 749.2548 321.7467 749.4586 321.7862 749.4057C321.8079 749.3911 321.656 749.4471 321.7103 749.4342 321.7556 749.4234 321.4142 749.3998 321.5044 749.4267 321.5753 749.4479 321.2467 749.2346 321.3016 749.2968 321.3817 749.3875 321.1906 749.0002 321.1955 749.0554 321.1998 749.104 321.1995 748.9702 321.198 748.9774L321.0353 749.315C320.7994 749.6902 320.5044 750.1376 320.1676 750.5021L319.4931 751.3029C319.2795 751.6485 319.0972 751.9373 318.971 752.2654 318.8429 752.5671 318.6898 752.85 318.8204 753.2912 319.0465 753.8001 319.6452 753.8322 319.8484 753.7215M326.1729 751.2142C325.7945 751.2089 325.4835 751.5114 325.4782 751.8898 325.4729 752.2683 325.7754 752.5793 326.1538 752.5846L326.6424 752.5265 326.4825 752.5221 327.0253 752.6236 327.6979 752.8673 328.3756 753.2256 328.4586 753.3072C328.5122 753.3633 328.5729 753.4121 328.6391 753.4526L329.0145 753.772C329.0717 753.8374 329.1399 753.8922 329.2162 753.9339L329.3515 754.0091 329.1118 753.7704 329.1333 753.5474 328.8909 753.6254 329.194 753.6653 329.036 753.5854C328.9714 753.5527 328.901 753.5329 328.8289 753.5271L328.5199 753.4746C328.3742 753.4246 328.1439 753.2651 327.8987 753.0229L327.8548 752.9186C327.8264 752.872 327.7938 752.8281 327.7575 752.7873L327.2273 752.0655C327.0217 751.7557 326.9175 751.4604 326.8729 751.1638L326.8484 750.5944 327.0672 750.0925 327.5258 749.6039 327.5987 749.5781C327.6686 749.5505 327.7352 749.5153 327.7975 749.4733L328.391 749.2301 329.01 748.9724C329.292 748.8563 329.4265 748.5335 329.3104 748.2515 329.267 748.146 329.192 748.0565 329.0956 747.9954L328.4997 747.6854C327.9735 747.5595 327.5469 747.513 327.0731 747.5783 326.9985 747.5886 326.9252 747.6069 326.8546 747.633L326.3919 747.8503C326.0281 748.0273 325.6246 748.3208 325.2867 748.709 324.9691 749.1106 324.6856 749.5591 324.5706 750.1451 324.4924 750.7298 324.5616 751.1941 324.6602 751.5986 324.8205 752.1926 325.0883 752.7668 325.5096 753.2648 325.8889 753.6531 326.2414 753.9266 326.5942 754.1521 326.6403 754.1816 326.6888 754.2068 326.7394 754.2274L327.0911 754.3562C327.3852 754.5371 327.8613 754.7183 328.353 754.7041L328.9246 754.6232C328.9947 754.605 329.0605 754.5733 329.1185 754.5299L329.2834 754.3949 328.9984 754.5067C329.2357 754.5011 329.4671 754.4746 329.697 754.3688 329.9708 754.2654 330.3282 753.8515 330.2573 753.3794L330.2136 753.7149 330.3019 753.3858C330.3137 753.2998 330.3101 753.2124 330.2915 753.1276 330.2201 752.8029 330.0695 752.4691 329.8321 752.1487 329.786 752.0865 329.7321 752.0305 329.6717 751.9821L329.3367 751.7485C329.0693 751.5659 328.7311 751.3908 328.375 751.2578 327.9996 751.1429 327.6429 751.0435 327.2424 751.0379L326.3634 751.1944 326.5201 751.1616 326.2032 751.2034C326.1343 751.2149 326.2551 751.2153 326.1729 751.2142M334.3859 753.6155C334.7164 753.5722 334.9493 753.2692 334.906 752.9387 334.8642 752.6191 334.5787 752.3887 334.2574 752.4155L333.7201 752.4056C333.5358 752.3831 333.4074 752.3005 333.2853 752.1209 333.2552 752.0218 333.2236 751.6939 333.2488 751.3581 333.2263 750.9049 333.2421 750.6388 333.3491 750.3782L333.6968 749.6888 333.8313 749.5487C333.8703 749.5121 333.9054 749.4715 333.9359 749.4276 334.0579 749.2522 334.2067 749.1127 334.393 749.0262 334.6721 748.8965 334.7932 748.5651 334.6636 748.286 334.5712 748.0872 334.3708 747.961 334.1516 747.9635 333.7149 747.9687 333.2866 748.1091 332.9154 748.3284 332.8693 748.3556 332.8262 748.3876 332.7867 748.4238L332.4898 748.7351C332.2276 749.0187 332.0071 749.3683 331.8439 749.7227 331.601 750.3572 331.6046 750.9176 331.6499 751.3769 331.7874 751.9717 331.9769 752.4858 332.349 752.8764 332.544 753.2024 332.9878 753.5483 333.5335 753.6292ZM338.1463 753.1039C338.5019 753.0127 338.7162 752.6506 338.6251 752.295 338.5438 751.9779 338.2438 751.7672 337.9179 751.7984 337.904 751.7998 337.9636 751.8338 337.9129 751.7602 337.8513 751.671 337.7704 751.5967 337.6763 751.5429L337.6421 751.5178 337.8223 751.766 337.7328 751.3021 337.7717 750.6068 337.8536 749.552C337.9059 749.0885 338.0706 748.7595 338.1685 748.6665 338.1822 748.6551 338.0828 748.7221 338.0885 748.7211L338.2132 748.7247C338.4899 748.7335 338.6381 748.7505 338.7839 748.8283 339.0746 748.9926 339.4812 749.5436 339.811 750.1977 340.0057 750.6776 340.0759 751.153 340.0523 751.5248L340.0344 751.7552 339.9297 751.8087C339.8385 751.8991 339.9342 751.8211 339.8988 751.8294L339.6879 751.8473 339.5385 751.8413 339.4157 751.8094 339.1925 751.7419 338.9159 751.6532 338.7308 751.5698 338.598 751.48C338.4703 751.3868 338.3212 751.3272 338.1644 751.3067L337.821 751.2234C337.466 751.0935 337.0729 751.2759 336.9429 751.6309 336.8923 751.7692 336.8876 751.9202 336.9296 752.0614L337.2448 752.7426C337.3291 752.8766 337.4457 752.9872 337.584 753.0642L337.948 753.2416 338.2843 753.3779 338.6727 753.4882 339.1736 753.5229 339.6305 753.4531 339.9971 753.3331C340.3116 753.1827 340.7677 752.9442 340.9007 752.4205L340.8904 751.736 340.9282 751.5839C340.9494 751.0513 340.8415 750.4559 340.5777 749.8405 340.3322 749.1095 340.0232 748.3653 339.4431 747.8657 339.1405 747.5921 338.786 747.4546 338.5325 747.3676 338.1164 747.2724 337.6543 747.2406 337.2344 747.5484 336.701 747.9092 336.3915 748.5398 336.2361 749.2329L336.1377 750.4835C336.1616 750.9116 336.2072 751.2542 336.3058 751.5777 336.3852 751.8636 336.4975 752.1559 336.6888 752.4114L336.5674 752.1299 336.6246 752.376C336.6554 752.48 336.7092 752.5758 336.7821 752.6562 337.1164 753.0251 337.6644 753.2274 338.1463 753.1039M340.8902 752.4606C341.0901 752.7149 341.4584 752.759 341.7127 752.5591 341.8618 752.4419 341.9449 752.2598 341.9358 752.0703L341.9728 751.8917 342.2705 751.2762 342.7064 750.6832 343.3439 749.5732C343.3676 749.5197 343.3845 749.4633 343.3942 749.4056 343.4144 749.2864 343.4242 749.1409 343.3538 748.9617 343.2383 748.6679 342.6061 748.4896 342.4042 748.601L342.1899 748.7789 342.4708 748.6058C342.1249 748.6977 341.9379 748.8869 341.7168 749.0635 341.2075 749.3423 340.6316 749.8163 340.2772 750.5491 340.2447 750.6162 340.2195 750.6866 340.2019 750.759 340.0753 751.2809 340.1955 752.0518 340.7392 752.5126L341.0665 752.7398 341.425 752.8967 341.7737 752.9933 342.1184 753.0534C342.1897 753.0631 342.2617 753.0662 342.3335 753.0628L342.9947 753.007 343.2611 752.9972C343.4421 752.9873 343.618 752.9334 343.7735 752.8402L344.0253 752.6919 343.7496 752.7983 344.821 752.5772C344.8925 752.5636 344.9617 752.54 345.0266 752.5071L345.3325 752.3559C345.6355 752.2101 345.7631 751.8464 345.6173 751.5434 345.554 751.4117 345.4455 751.3072 345.3116 751.249L344.9769 751.106C344.9098 751.0777 344.839 751.059 344.7667 751.0506L343.6626 750.927 343.947 751.0074 343.7042 750.8905C343.5428 750.8087 343.3639 750.7675 343.183 750.7703L342.8768 750.7722 342.4903 750.7183C342.4193 750.7054 342.3473 750.6989 342.2752 750.6991L342.0948 750.6943 341.9778 750.6823 341.9435 750.6756 342.0037 750.7035C341.974 750.6838 342.2763 751.0506 342.2374 750.9583 342.201 750.8722 342.269 751.1154 342.2697 751.1083 342.2769 751.0341 342.2762 750.9593 342.2675 750.8853 342.2624 750.8409 342.4036 750.3087 342.658 749.9089L342.9413 749.6307 342.6268 749.7309C342.6592 749.7304 342.4442 749.6994 342.4981 749.7141 342.548 749.7277 342.2577 749.5815 342.3227 749.629 342.3821 749.6725 342.1068 749.3455 342.1537 749.4334 342.1956 749.512 342.0806 749.0771 342.0833 749.1681 342.0857 749.2461 342.1263 748.9168 342.1103 748.9689 342.0844 749.0528 342.1965 748.7941 342.1799 748.8196 342.14 748.8807 342.2211 748.7667 342.2067 748.7806 342.1646 748.8213 342.1278 748.8671 342.097 748.9169L341.4837 749.8041 341.0476 750.6704C340.9122 750.942 340.7589 751.2345 340.7048 751.5962 340.6744 751.9352 340.6813 752.1948 340.8902 752.4606M348.2232 756.1979C348.1507 755.8873 347.8401 755.6943 347.5294 755.7668 347.4046 755.796 347.293 755.8658 347.2122 755.9654 347.2026 755.9773 347.3637 755.849 347.3018 755.8887 347.267 755.911 347.5531 755.7973 347.4693 755.8178 347.4245 755.8288 347.7149 755.8041 347.6422 755.801 347.6042 755.7993 347.823 755.8333 347.7731 755.8204 347.721 755.8071 348.0485 755.9587 347.9659 755.9052 347.6599 755.7066 347.2509 755.7937 347.0523 756.0997 346.8537 756.4057 346.9408 756.8148 347.2468 757.0134 347.5528 757.2119 347.9619 757.1248 348.1605 756.8188 348.2984 756.6063 348.3026 756.3336 348.1713 756.117 348.1168 756.0271 348.2369 756.2632 348.2304 756.2438 348.2012 756.1566 348.2378 756.2605 348.2232 756.1979M347.8877 757.095C347.9983 757.0398 348.0925 756.9567 348.1612 756.8539L348.2238 756.7385C348.3806 756.3756 348.2135 755.9543 347.8506 755.7975 347.6932 755.7295 347.5166 755.7203 347.353 755.7715 347.2673 755.7983 347.6276 755.7397 347.5675 755.7393 347.467 755.7387 347.8654 755.806 347.8049 755.7831 347.7189 755.7506 348.0261 755.921 347.9861 755.8878 347.9484 755.8566 348.0822 755.9889 348.065 755.9674L348.193 756.5403 348.2599 756.2245 348.3906 755.5074 348.6136 754.3398 348.9811 752.559 349.317 751.1267 349.4249 750.7563 349.5134 750.4579C349.5187 750.4427 349.4752 750.5368 349.4985 750.4891 349.513 750.4594 349.2965 750.7732 349.3816 750.6696 349.4054 750.6406 349.2428 750.8104 349.2852 750.7715 349.3529 750.7093 348.7944 751.0339 348.9556 750.9736 349.0396 750.9421 348.5597 751.0427 348.6661 751.0357 348.7735 751.0287 348.2403 750.978 348.3435 751.0049 348.8884 751.1473 349.4456 750.821 349.588 750.2761 349.6724 749.9532 349.5934 749.6094 349.3766 749.3557 349.0534 748.9776 348.3455 748.9887 348.0989 749.124 347.4662 749.4713 347.6335 749.6127 347.5805 749.7341L347.436 750.122 347.2991 750.6061 346.9797 752.1666 346.7153 754.0363 346.661 755.3737 346.8241 756.2985 346.9661 756.7119 346.9319 756.1263C346.93 756.1299 347.0791 755.9175 347.0057 756.0101 346.7601 756.32 346.8123 756.7702 347.1222 757.0157 347.257 757.1226 347.4258 757.1773 347.5977 757.1698ZM349.4308 750.6056C349.749 750.154 349.6409 749.5298 349.1892 749.2116 348.7376 748.8933 348.1134 749.0014 347.7952 749.4531 347.4769 749.9048 347.585 750.5289 348.0367 750.8471 348.321 751.0474 348.6888 751.0858 349.0083 750.9484 349.1277 750.897 348.6661 751.0304 348.737 751.0218 348.8662 751.006 348.3617 750.9975 348.4383 751.0121 348.5732 751.0378 348.0816 750.8657 348.149 750.9048 348.2591 750.9688 347.8927 750.6749 347.9359 750.7269 347.996 750.7993 347.82 750.5128 347.8349 750.555L347.8179 750.48 347.779 750.5536C347.7396 750.578 347.4238 750.7801 347.0681 750.9093L346.7075 750.9014 346.428 750.8776 346.6954 750.9948 346.6782 750.9839C346.6291 750.9199 346.5732 750.8615 346.5114 750.8097 346.4643 750.7702 346.5592 750.8716 346.5532 750.8509L346.5472 750.7229 346.6235 750.4098C346.6942 750.3103 346.8707 750.1601 347.225 750.0571 347.5034 749.9573 347.9032 749.9121 348.3823 749.9243 348.5493 749.9286 348.7155 749.9012 348.8723 749.8436L349.1523 749.7517 348.8702 749.7973C349.3278 749.7815 349.8104 749.8217 350.2448 749.8881L350.9716 750.121C351.3115 750.2558 351.6963 750.0894 351.831 749.7495 351.9295 749.501 351.8689 749.2176 351.6773 749.0311 351.4339 748.7943 351.1254 748.5782 350.7704 748.3761 350.3741 748.0984 349.8305 747.8125 349.2326 747.5877L349.485 747.7207 349.1025 747.4711C348.96 747.3846 348.8023 747.3258 348.6379 747.2978 348.014 747.1916 347.3174 747.1029 346.5412 747.2572 345.6351 747.5054 344.8259 747.8977 344.2768 748.7 343.8723 749.3869 343.7432 750.0551 343.817 750.6811 344.042 751.6776 344.6133 752.4831 345.5184 752.7234 345.5963 752.7441 345.6762 752.7562 345.7568 752.7594L346.4426 752.6776 346.1526 752.7111 346.8106 752.6531 347.7178 752.2464C348.1209 752.1005 348.6111 751.8185 348.9659 751.3899 349.1039 751.2934 349.2981 751.0643 349.4256 750.7862L349.5661 750.3554 349.5855 750.2543 349.5773 750.2904 349.5527 750.3709 349.5202 750.4506C349.5367 750.4149 349.3769 750.682 349.4308 750.6056M355.4828 752.4462C355.5852 752.0665 355.3603 751.6757 354.9806 751.5733 354.7137 751.5014 354.4293 751.5903 354.251 751.8016L353.9527 752.2003C353.8352 752.357 353.7814 752.5524 353.8021 752.7471L353.8075 752.8485 353.9658 752.4118 353.8456 752.5454 353.6392 752.743 353.8404 752.6394 353.7433 752.6684C353.6444 752.6517 353.5434 752.6509 353.4442 752.6661 353.3353 752.6827 353.9067 752.8236 353.8057 752.7536 353.7096 752.6871 353.9757 752.9786 353.9601 752.9378 353.8916 752.7884 353.9511 752.9305 353.9506 752.9277L353.9554 752.4513 354.0066 751.5319 354.1013 751.2421C354.13 751.1689 354.1507 751.0928 354.1628 751.0151L354.2953 750.4179C354.3661 750.258 354.5408 750.0041 354.6423 749.6057 354.6957 749.5037 354.7822 749.1323 354.5915 748.7831L354.6765 749.037C354.6077 748.5697 354.277 748.3459 354.0397 748.2159L354.4115 748.6312 354.2636 748.3634C354.202 748.2743 354.1256 748.1963 354.0377 748.1329L353.786 747.9752C353.7378 747.9487 353.6874 747.9262 353.6355 747.9078L353.3707 747.8256 353.1185 747.761 352.87 747.7056 352.6127 747.6565 352.3665 747.614 352.0279 747.583C351.7928 747.5652 351.5576 747.6153 351.3502 747.7274L350.9577 747.955 351.3583 747.8084 351.1692 747.8349C350.6293 747.91 350.2526 748.4087 350.3278 748.9486 350.3876 749.3782 350.721 749.7185 351.1493 749.787L351.3691 749.8184 350.9675 749.6766 351.3729 749.9008C351.5823 750.0084 351.8183 750.0537 352.0527 750.031L352.2725 750.0108 352.5871 749.9624 352.7968 749.9313 352.9977 749.9055 353.1688 749.8904 353.3149 749.8846C353.3705 749.8836 353.426 749.8781 353.4807 749.868L353.6126 749.8464C353.7199 749.8315 353.8238 749.7983 353.92 749.7483L354.0479 749.6794 353.4992 749.7755 353.5301 749.7803 353.4645 749.7462C353.4983 749.7677 353.2999 749.5883 353.3435 749.6397L353.2089 749.4079C353.2509 749.5233 353.2004 749.0355 353.1856 749.1036 353.1728 749.1626 353.2106 749.029 353.2053 749.0386L352.6672 749.6657 352.205 750.2488C352.1612 750.3141 352.1246 750.3841 352.096 750.4575L351.8954 751.1156C351.7917 751.5181 351.7493 751.9454 351.7288 752.3307 351.737 752.7966 351.6624 753.2932 352.0597 753.904 352.5539 754.5314 353.4301 754.7454 354.0288 754.4264 354.1171 754.3793 354.1974 754.3184 354.2665 754.246L354.6941 753.6439 354.5592 753.8259 354.9195 753.3836 355.0562 753.1232 354.7202 753.4441 354.8669 753.382C355.0483 753.3075 355.1947 753.1671 355.2766 752.989ZM366.968 755.3977C366.7838 755.1768 366.4553 755.147 366.2344 755.3312 366.1051 755.4391 366.0359 755.6027 366.0486 755.7705 366.0679 756.0256 366.1437 756.1448 366.1961 756.3014L366.2346 756.4051C366.2336 756.4088 366.3408 756.0532 366.2881 756.1605 366.2592 756.2193 366.5373 755.8861 366.4506 755.957 366.3593 756.0318 366.9795 755.804 366.8315 755.8113 366.4545 755.8298 366.1638 756.1505 366.1824 756.5275 366.2009 756.9045 366.5216 757.1952 366.8986 757.1766 367.2211 757.1608 367.4886 756.9214 367.5399 756.6025 367.6123 756.1524 367.4657 756.1342 367.4059 756.04L367.2408 755.7869ZM366.7583 757.2848C367.1926 757.3202 367.5733 756.9969 367.6088 756.5626 367.6331 756.2636 367.4858 755.9766 367.2286 755.8222 367.176 755.7906 367.3401 755.9082 367.3242 755.8933L366.9753 755.3947C366.644 754.919 366.2477 754.5064 365.9115 753.8827 365.6621 753.4301 365.4265 752.8897 365.2288 752.3073 365.0282 751.7499 364.8925 751.1506 364.8124 750.5518L364.7256 749.3012C364.7234 748.8722 364.8151 748.5402 364.8982 748.3691 364.9429 748.2704 364.8091 748.3288 365.1097 748.3535 365.6432 748.3578 366.208 748.4523 366.5905 748.6769 366.8216 748.8127 367.119 748.7354 367.2548 748.5043 367.3588 748.3272 367.3401 748.1039 367.2082 747.9466 366.7396 747.3878 366.0397 747.0588 365.4475 746.838 365.1094 746.7389 364.7871 746.6695 364.4046 746.7325 364.0068 746.7981 363.576 747.0608 363.3115 747.4451 363.0022 747.9245 362.8108 748.5199 362.7635 749.2256 362.7379 749.7247 362.7458 750.2553 362.8111 750.8045 362.9152 751.5464 363.0832 752.2775 363.34 752.9753 363.6092 753.6673 363.9154 754.2953 364.2552 754.8423 364.7784 755.6673 365.3459 756.1695 365.6249 756.4765L366.0371 756.9125C366.1785 757.0461 366.3001 757.2474 366.7583 757.2848M362.8695 752.7427C363.2275 752.6937 363.478 752.3638 363.429 752.0058 363.3801 751.6478 363.0502 751.3972 362.6922 751.4462 362.6763 751.4473 362.8953 751.4821 362.821 751.4636 362.7902 751.4558 362.9868 751.5296 362.9386 751.5063 362.8941 751.4848 363.1491 751.6636 363.0928 751.6116 363.0416 751.5642 363.2739 751.884 363.2352 751.8039 363.1664 751.6615 363.2525 752.3543 363.2813 752.2356 363.3017 752.1516 363.1743 752.4677 363.202 752.4236 363.2407 752.3622 363.0807 752.5645 363.1054 752.5413L363.0543 752.5835C363.3481 752.3732 363.4157 751.9645 363.2053 751.6707 362.995 751.3769 362.5863 751.3092 362.2925 751.5196 362.2341 751.5614 362.1409 751.5998 362.0462 751.8183 361.9629 752.0104 362.0317 752.4256 362.2245 752.5901 362.6714 752.9714 362.7519 752.7587 362.8695 752.7427M362.0575 752.2767C362.0897 752.3632 362.1394 752.4422 362.2034 752.5086 362.5714 752.8906 362.6186 752.7304 362.729 752.7466L363.0594 752.7755C363.1253 752.7788 363.1915 752.7748 363.2566 752.7637L364.0794 752.6476 365.3727 752.4263 366.2344 752.3717 367.4469 752.2854 367.5552 752.3198C367.7183 752.368 367.8924 752.3632 368.0526 752.3062L368.1985 752.2609 367.8986 752.2625C368.0443 752.2976 368.1458 752.3536 368.2478 752.472 368.4054 752.655 368.6815 752.6756 368.8645 752.518 368.9874 752.4122 369.0416 752.247 369.0053 752.0889 368.9306 751.763 368.75 751.4323 368.4526 751.1778L368.6273 751.4223 368.4315 751.0731C368.331 750.936 368.1896 750.8343 368.0276 750.7826L367.6104 750.6825C367.248 750.5719 366.7564 750.5178 366.2564 750.4874L365.1747 750.5486 363.8327 750.661 362.7099 751.0604C362.6503 751.0893 362.5941 751.1246 362.5423 751.1658L362.2149 751.4913C362.1146 751.6237 361.8267 751.6573 362.0575 752.2767M369.1316 755.5023C369.0926 755.4325 369.0357 755.3742 368.9668 755.3335 368.5476 755.0861 368.5709 755.283 368.4963 755.3041L368.3192 755.3595C368.2674 755.3753 368.2179 755.3981 368.1722 755.4271L368.0859 755.4843C368.0844 755.4852 368.2806 755.4206 368.1953 755.4417L368.6351 755.4928 368.6226 755.4868 368.682 755.5229C368.6495 755.5005 368.9196 755.7811 368.8369 755.6718 368.604 755.364 368.1658 755.3033 367.858 755.5361 367.5502 755.769 367.4894 756.2072 367.7223 756.515 367.9551 756.8228 368.3934 756.8836 368.7012 756.6507 368.9476 756.4643 369.0424 756.1382 368.9342 755.8488 368.8959 755.7463 368.9763 756.0401 368.9727 756.0083 368.963 755.9224 368.9424 756.28 368.9595 756.2133L368.7071 756.5759 368.9381 756.3508C368.9751 756.3111 369.0067 756.2667 369.0319 756.2186L369.1316 756.0077C369.1644 755.9251 369.3779 755.9434 369.1316 755.5023M368.6398 756.7531C368.7358 756.6905 368.817 756.6078 368.8777 756.5105L368.9319 756.408C369.0218 756.2034 369.0211 755.9703 368.9301 755.7661 368.8917 755.6801 368.9969 756.0463 368.9903 755.9872 368.9797 755.8921 368.983 756.1947 368.9876 756.1646L369.0128 756.0564 369.0765 755.6064 369.1997 754.7638C369.3001 753.9622 369.4306 752.9328 369.4944 751.8457L369.4644 749.6868C369.4082 749.0053 369.2824 748.458 369.1594 748.0723 369.1019 747.8865 369.0375 747.7149 368.889 747.5339L369.0402 748.2274 369.0208 748.2878 368.9939 748.3505C369.0079 748.3216 368.8442 748.5721 368.907 748.4908 369.1836 748.1324 369.1172 747.6176 368.7588 747.341 368.4004 747.0645 367.8856 747.1308 367.609 747.4892 367.3325 747.8476 367.3988 748.3624 367.7572 748.639 368.0345 748.8529 368.4171 748.8671 368.7095 748.6742 368.8241 748.5986 368.4108 748.7969 368.471 748.781 368.5566 748.7585 368.2043 748.8055 368.2613 748.8065 368.3162 748.8075 368.0829 748.7821 368.1219 748.7905L367.5724 748.3413 367.5966 748.4571C367.6481 748.7652 367.7108 749.2179 367.714 749.7503L367.6651 751.7195C367.6016 752.7462 367.4744 753.7344 367.3747 754.5068L367.2995 755.4224 367.388 756.1124 367.3908 756.1548C367.4096 756.2629 367.4274 756.5471 367.7975 756.7692 367.9892 756.8842 368.2205 756.913 368.4345 756.8485ZM369.2304 747.9376C369.1908 747.3487 368.6814 746.9034 368.0924 746.943 367.8382 746.9601 367.5984 747.0675 367.4163 747.2458 366.9569 747.6957 367.0178 747.997 366.995 748.2852 367.0045 748.9314 367.1479 749.3658 367.2862 749.8403 367.3044 749.9029 367.3277 749.9639 367.3557 750.0227 367.5717 750.4759 367.8166 751.0256 368.1711 751.5256 368.5244 752.0455 369.0024 752.4361 369.5924 752.5376L369.4342 752.4948C369.9608 752.6916 370.5519 752.4764 370.8774 752.1663 371.3357 751.7263 371.44 751.244 371.595 750.7948L371.9028 749.8874 371.9956 748.7564C371.9497 748.3214 371.842 748.0651 371.7735 747.8977L371.8079 748.0593 371.8253 747.7924C371.8277 747.8026 371.5032 748.0742 371.5988 748.0423 371.6669 748.0195 371.4154 748.05 371.4459 748.0554L371.503 748.1045 371.8345 748.3328 372.0702 748.6493 373.2325 749.8559 373.9903 750.6872 374.1603 750.9541C374.1565 750.9386 374.1869 750.6153 374.1675 750.6947 374.1369 750.8193 374.4897 750.2482 374.3855 750.3391 374.2852 750.4266 374.7099 750.1855 374.6475 750.2002L374.6919 750.1739 374.845 750.2432 374.6878 750.031 374.5068 749.4571 374.3744 748.6127 374.3781 748.3907C374.4347 748.2782 374.4767 748.159 374.5031 748.036L374.4791 748.1061 374.3698 748.303C374.4049 748.2502 374.2286 748.4529 374.2618 748.4252L374.1164 748.5257 374.1399 748.5201C374.5005 748.4469 374.8181 748.2355 375.0248 747.9312 375.0491 747.8955 374.9872 747.9788 374.9889 747.9771L374.5666 748.2343 374.9435 748.1605C375.5046 748.1106 375.919 747.6153 375.8691 747.0542 375.8362 746.6833 375.6037 746.3599 375.2627 746.2104L374.4411 745.9325 374.8889 746.1423 374.6267 745.9583C374.3181 745.758 373.9433 745.6863 373.5826 745.7587L373.0623 745.9125 372.5419 746.1951 372.1269 746.5479 372.2909 746.3951 371.8851 746.8036C371.8071 746.9024 371.742 747.0108 371.6913 747.126 371.47 747.6295 371.4197 748.1366 371.448 748.6114 371.5436 749.3415 371.7515 749.8604 371.966 750.3234 372.1453 750.6814 372.338 751.1262 372.7932 751.5334 373.2952 751.9355 373.8386 752.1748 374.4156 752.1388L374.2477 752.1353C374.6188 752.174 374.9752 752.1232 375.3031 751.9507 375.7174 751.7754 376.0459 751.0327 375.9203 750.568 375.8591 750.2415 375.674 749.928 375.4254 749.6171 375.0967 749.2461 374.7384 748.9337 374.3557 748.644L372.753 747.7868 372.1972 747.5792 371.9959 747.4165 371.6578 747.2371C371.4912 747.1892 371.1285 747.2917 371.0278 747.519 370.9577 747.6123 370.9088 747.7933 370.8809 748.016L370.9303 747.8581 370.6776 748.4391 370.328 749.2776 369.9641 750.2075 369.6801 750.8941C369.6734 750.9003 369.8613 750.823 369.7882 750.843 369.709 750.8646 370.1317 750.8853 370.0555 750.856L370.202 750.9287C370.194 750.9237 370.0539 750.791 369.9631 750.5589L369.6366 749.2626C369.6238 749.1987 369.6058 749.1359 369.5828 749.0748L369.2893 748.1943ZM389.4065 750.3229C389.3203 750.0635 389.0402 749.923 388.7808 750.0092 388.6793 750.0429 388.5915 750.1085 388.5305 750.1963 388.2707 750.5697 388.3539 750.8049 388.3265 750.8768L388.2784 750.9055 387.9638 751.0578 387.5112 751.1977 387.3947 751.2037 387.2401 751.0313C387.162 750.8964 387.0781 750.6621 387.031 750.348 386.9837 749.9888 386.9744 749.549 387.0286 749.126L387.2629 748.814C387.3276 748.7497 387.5164 748.668 387.764 748.6438L388.266 748.6422 388.5821 748.8023C388.7156 748.9155 388.9121 749.2463 389.0798 749.6072L389.2816 750.1253 389.2637 750.1322 389.2653 750.1525 389.2652 750.1288 389.2668 750.0894C389.2654 750.1109 389.3057 749.8696 389.286 749.9574 389.1773 750.4444 389.4839 750.9273 389.9709 751.0361 390.4579 751.1448 390.9408 750.8382 391.0495 750.3512 391.1583 749.8642 390.8516 749.3813 390.3647 749.2726 390.17 749.2291 389.9664 749.2513 389.7857 749.3356 389.6413 749.403 390.2477 749.2495 390.1488 749.2514 389.969 749.2548 390.6164 749.3681 390.5309 749.3295 390.4556 749.2955 390.7385 749.4596 390.6983 749.4291 390.6282 749.3758 390.8557 749.5851 390.8301 749.5545 390.7904 749.5068 390.8933 749.6446 390.8876 749.6348L390.8177 749.4862 390.659 748.9554C390.5174 748.5291 390.3216 747.9519 389.8407 747.4463 389.6109 747.1963 389.2845 746.9046 388.8017 746.7533 388.2846 746.6356 387.8777 746.6632 387.5128 746.7231 386.9536 746.8347 386.3489 747.0669 385.9108 747.5989 385.6677 747.8862 385.3468 748.319 385.2871 748.9293 385.2108 749.491 385.2203 750.0693 385.2847 750.5876 385.3341 751.0552 385.443 751.4953 385.6376 751.8846 385.8292 752.258 386.0903 752.5534 386.3839 752.7528 386.7893 753.0154 387.2196 753.0666 387.5243 753.0572 388.0365 753.01 388.4104 752.8371 388.7158 752.6485 389.238 752.246 389.7148 751.7309 389.6304 751.0355 389.5757 750.6321 389.4214 750.3678 389.4065 750.3229M389.893 751.0217C390.1002 751.0863 390.3237 751.0753 390.5236 750.9907 391.1157 750.7402 390.9597 750.6204 391.0022 750.5377 391.1142 750.3202 391.1382 750.1667 391.1645 749.9713L391.2786 749.1005 391.3104 748.9715C391.3375 748.8796 391.3532 748.7847 391.3571 748.689L391.3849 748.4858 391.3527 748.593C391.5396 748.3051 391.5821 747.9467 391.4678 747.6231L391.4788 747.667 391.3844 748.254 391.4233 748.2358C391.8141 748.094 392.016 747.6621 391.8741 747.2713 391.7767 747.0029 391.5359 746.8127 391.2522 746.7801 390.8652 746.7358 390.4469 746.808 390.0924 747.0127L390.675 746.895 390.3163 746.8912C389.9747 746.9251 389.6683 747.1158 389.487 747.4073L389.303 747.7671 389.0803 748.3182C389.0536 748.41 389.0384 748.5048 389.035 748.6003L389.0378 748.9425 389.1867 750.0581 389.2382 750.2853 389.3013 750.4745C389.3417 750.5698 389.1527 750.7912 389.893 751.0217M395.5731 752.0261C395.9081 752.0445 396.1947 751.7879 396.2131 751.4528 396.2269 751.2023 396.0853 750.9691 395.8567 750.8658 395.2892 750.6093 394.8417 750.775 394.385 750.7336 394.18 750.6867 393.945 750.5975 393.7865 750.471L393.4556 750.1095 393.2511 749.5309 393.2202 748.7951 393.2655 748.2721C393.2872 748.222 393.3052 748.1704 393.3193 748.1177L393.2773 748.2015C393.2855 748.1927 393.5957 748.0347 394.0119 748.0055L394.1844 748.0219C394.2906 748.0322 394.3977 748.0206 394.4992 747.9876L394.7162 747.9235C395.0568 747.8316 395.2584 747.4809 395.1664 747.1403 395.1341 747.0207 395.0677 746.913 394.9753 746.8304L394.7172 746.6225C394.631 746.5596 394.5328 746.5151 394.4287 746.4919L394.0687 746.426C393.7208 746.3398 393.274 746.2874 392.8029 746.3476 392.321 746.4091 391.7369 746.6123 391.3325 747.1653 391.3003 747.2093 391.2713 747.2557 391.2458 747.304 390.9998 747.7703 390.9524 748.2189 390.9254 748.6109 390.93 749.1525 390.9907 749.6174 391.1314 750.0769 391.2386 750.4443 391.3834 750.8988 391.7353 751.3248 392.0798 751.6943 392.4345 751.9489 392.8286 752.1086 393.4729 752.3359 394.0219 752.296 394.4569 752.2133 395.0329 752.1744 395.5567 752.0252 395.5731 752.0261M399.8387 753.9973C399.7581 753.8577 399.6254 753.7559 399.4698 753.7141 398.9867 753.5845 398.9047 753.8359 398.8368 753.9168 398.5126 754.3034 398.6632 754.3456 398.65 754.4102 398.6158 754.5776 398.6472 754.7517 398.7378 754.8966L398.8269 755.0242 398.6942 754.6161C398.6937 754.6262 398.7426 754.4395 398.7134 754.5305 398.6113 754.8494 398.787 755.1907 399.1059 755.2929 399.4249 755.395 399.7662 755.2193 399.8683 754.9004L399.9055 754.6735 399.7354 755.0666 399.8518 754.9196C399.9483 754.7786 399.9869 754.606 399.9596 754.4373L399.9274 754.2611C399.9168 754.2095 400.0251 754.3201 399.8387 753.9973M399.5207 755.4227C399.5895 755.3948 399.6541 755.3575 399.7128 755.312L399.9075 755.097C400.0376 754.893 400.073 754.6427 400.0044 754.4107L399.8713 753.9182 399.3563 752.0019 398.9441 750.1476 398.7358 749.4185 398.576 748.5057 398.5261 748.0847C398.5181 748.0108 398.5012 747.9382 398.4758 747.8683L398.186 747.1438 397.9868 746.6918C397.8284 746.4298 397.4876 746.3459 397.2257 746.5042 397.1203 746.568 397.0392 746.665 396.995 746.7799L396.8556 747.3116 396.6954 748.0417C396.6839 748.1152 396.6814 748.1898 396.6878 748.2638L396.7353 748.7463 396.869 749.8245 396.9272 750.4262 397.471 752.516 398.1923 754.5142C398.305 754.762 398.3759 754.9446 398.5421 755.1592 398.6903 755.3507 398.9144 755.4684 399.1562 755.482 399.2367 755.4865 399.3031 755.5109 399.5207 755.4227M397.4385 749.7818C397.4385 749.3093 397.0555 748.9262 396.583 748.9262 396.1105 748.9262 395.7274 749.3093 395.7274 749.7818 395.7274 750.2543 396.1105 750.6373 396.583 750.6373 397.0555 750.6373 397.4385 750.2543 397.4385 749.7818M397.4482 750.0407C397.7399 749.6851 397.6881 749.1603 397.3325 748.8686 396.9769 748.5769 396.4521 748.6287 396.1604 748.9843L396.0217 749.1532 396.0942 749.0687C396.0656 749.0914 395.9321 749.0804 395.7818 749.4816 395.6161 749.9241 395.8404 750.4172 396.2828 750.5829 396.7253 750.7487 397.2184 750.5244 397.3841 750.0819 397.4367 749.9416 397.4515 749.7899 397.427 749.6421 397.4066 749.5187 397.3996 750.0405 397.4182 749.9578 397.4483 749.8241 397.2997 750.2317 397.3227 750.1944L397.3983 750.0876ZM397.3655 749.5657C397.2468 749.1594 396.8212 748.9263 396.4149 749.045 396.0087 749.1637 395.7756 749.5892 395.8942 749.9955 396.0129 750.4018 396.4385 750.6349 396.8448 750.5162 397.1607 750.4239 397.3825 750.1401 397.3956 749.8112 397.3992 749.7218 397.3629 750.0059 397.3719 749.9713L396.302 750.4613C396.7442 750.6787 396.9743 750.6013 397.3017 750.5524L397.6969 750.4333 398.2287 750.1557 398.7173 749.781 398.8151 749.7282 398.9599 749.6497C399.2864 749.4886 399.4971 749.1602 399.5074 748.7963L399.5089 748.6648C399.5063 748.4651 399.4278 748.2738 399.2895 748.1297L399.0486 747.9368C398.7405 747.743 398.3506 747.7352 398.0351 747.9167L397.7859 748.0716 397.5591 748.229 397.2131 748.4336 396.7952 748.7469 396.6515 748.8521 396.1361 749.2087 397.2975 749.4048C397.2779 749.3702 397.3918 749.6559 397.3655 749.5657M401.9324 751.2461C401.9324 750.7759 401.5513 750.3948 401.0811 750.3948 400.6109 750.3948 400.2297 750.7759 400.2297 751.2461 400.2297 751.7163 400.6109 752.0975 401.0811 752.0975 401.5513 752.0975 401.9324 751.7163 401.9324 751.2461M401.8102 751.8176C402.1197 751.5875 402.1841 751.1502 401.9541 750.8407 401.8358 750.6815 401.6553 750.5801 401.4578 750.5619L401.4819 750.5672C401.4428 750.5571 401.7728 750.7489 401.6863 750.6768 401.596 750.6014 401.9086 751.0282 401.8783 750.9474 401.7133 750.5071 401.2226 750.2839 400.7823 750.4489 400.342 750.6139 400.1189 751.1046 400.2839 751.5449 400.3956 751.8431 400.6646 752.0541 400.9809 752.0916 401.5415 752.158 401.7042 751.8964 401.8102 751.8176M400.4854 750.6439C400.1763 750.9495 400.1735 751.4478 400.4791 751.7569 400.7847 752.066 401.283 752.0688 401.5921 751.7632 401.9012 751.4576 401.904 750.9593 401.5984 750.6502 401.3358 750.3846 400.9228 750.3402 400.6097 750.5438 400.5254 750.5986 400.82 750.447 400.7778 750.4615 400.6611 750.5016 401.095 750.4268 401.0336 750.4237L401.7041 751.0057 401.6914 750.1763 401.6653 748.8592 401.7143 747.9369 401.7449 747.5679C401.7533 747.5565 401.4235 748.0108 401.5158 747.9316 401.5839 747.8732 401.2486 748.0789 401.3116 748.0545 401.4006 748.0201 401.0846 748.0944 401.1219 748.094L401.0775 748.0911C401.1588 748.1085 401.2419 748.1158 401.3249 748.1128L401.5137 748.1683 402.2944 748.7315 403.2303 749.7877 403.9604 750.8633C403.9826 750.9516 403.9478 751.0222 404.1906 751.2854 404.4603 751.578 404.9162 751.5965 405.2088 751.3267 405.5013 751.057 405.5198 750.6011 405.2501 750.3085 404.9803 750.016 404.5244 749.9975 404.2319 750.2672 404.1853 750.3102 404.1446 750.3591 404.1108 750.4127 404.0589 750.495 404.3738 750.1678 404.3033 750.2146 404.1852 750.2931 404.669 750.1124 404.5985 750.1153 404.5047 750.1192 404.7375 750.1337 404.7319 750.1315L404.6712 750.0962 403.9971 749.1802 403.277 747.8944 402.591 746.8832C402.2951 746.5513 401.997 746.3497 401.7745 746.2269 401.7016 746.1867 401.624 746.1557 401.5434 746.1346 401.3316 746.0791 401.0766 746.0374 400.7558 746.1103 400.4157 746.1876 400.0051 746.4753 399.8314 746.8708 399.7174 747.0721 399.6584 747.3356 399.6151 747.5993L399.6606 748.9401 399.8786 750.3282C400.0214 750.8756 400.1223 751.3155 400.5121 751.6725L400.3671 750.7965 400.3864 750.7645C400.3743 750.7831 400.5782 750.5522 400.4854 750.6439M403.9142 750.6345C403.8474 751.1171 404.1844 751.5625 404.667 751.6293 404.8401 751.6533 405.0164 751.6253 405.1736 751.5489 405.6979 751.2941 405.7323 750.9027 405.7772 750.6964L405.8479 750.2638 405.8981 750.1163 405.9739 749.691 406.0166 749.3344 406.0444 748.6302 406.0697 748.4351 406.0967 748.3454C406.213 747.9666 406.1435 747.5551 405.9094 747.2354L405.7553 747.0418 406.0241 747.772 406.0265 747.7268C406.0281 747.717 405.9569 747.9063 405.9884 747.8396 406.2052 747.3813 406.0096 746.8341 405.5513 746.6173 405.3927 746.5422 405.2158 746.5142 405.0417 746.5365 404.6235 746.5903 404.3317 746.8441 404.1415 747.0772L404.8205 746.6967 404.3089 746.8683C403.9589 747.0539 403.7171 747.3938 403.6566 747.7853L403.6152 748.1482 403.5846 748.4477 403.5429 749.1418 403.5869 749.645 403.6618 750.0411 403.8105 750.478 403.8973 750.7785 403.9176 750.8477 403.9104 750.8C403.9138 750.8335 403.9252 750.5551 403.9142 750.6345M410.7146 750.1683C410.7146 749.8189 410.4314 749.5357 410.082 749.5357 409.7326 749.5357 409.4494 749.8189 409.4494 750.1683 409.4494 750.5177 409.7326 750.801 410.082 750.801 410.4314 750.801 410.7146 750.5177 410.7146 750.1683M411.8096 747.6665C411.8096 747.0997 411.3501 746.6402 410.7833 746.6402 410.2165 746.6402 409.7569 747.0997 409.7569 747.6665 409.7569 748.2333 410.2165 748.6929 410.7833 748.6929 411.3501 748.6929 411.8096 748.2333 411.8096 747.6665M410.6093 750.5179C410.8023 750.2267 410.7228 749.8341 410.4316 749.641 410.1403 749.448 409.7478 749.5276 409.5547 749.8188 409.4457 749.9832 409.4197 750.1892 409.4843 750.3756 409.504 750.4323 409.4699 750.3126 409.4699 750.321L409.4788 750.2463 409.8268 749.962 409.7617 749.9769C409.6867 749.9866 409.6137 750.0081 409.5454 750.0407 409.5131 750.0562 409.7017 750.0661 409.6275 750.0501 409.5696 750.0377 409.5106 750.0309 409.4514 750.0298 409.3983 750.0289 409.5959 750.1332 409.4924 749.9784 409.3648 749.7942 409.1975 749.3736 409.0688 748.9288L408.9761 748.4217 408.9024 748.003C408.8985 747.954 408.874 748.0888 408.8909 748.0189 408.9115 747.9333 408.695 748.3986 408.7627 748.3011 408.866 748.1523 408.2334 748.6702 408.3673 748.6174 408.4921 748.5681 408.0662 748.6655 408.1096 748.6672L408.35 748.6934 408.4606 748.7212C408.581 748.7574 408.7064 748.7743 408.8321 748.7714L409.0228 748.795 409.7941 749.2281 410.35 749.6676 410.476 749.7756 410.3145 749.5814 410.3928 749.7389 410.4638 749.8575C410.5751 750.0087 411.1521 750.1738 411.3943 750.0127 411.5022 749.9409 411.5876 749.8399 411.6404 749.7216 411.7907 749.3849 411.7194 749.1995 411.6878 749.0176L411.6771 749.3088 411.7515 748.7097 411.7318 748.4047 411.7353 748.3236C411.7395 748.2481 411.7348 748.1724 411.7214 748.098L411.7033 747.9394 411.6844 748.0828 411.6124 748.2502C411.6397 748.2 411.3516 748.5297 411.4442 748.4518 411.8779 748.0867 411.9335 747.4393 411.5685 747.0056 411.2035 746.5719 410.5561 746.5163 410.1224 746.8813 409.9275 747.0453 409.8005 747.276 409.7663 747.5285L409.7625 747.8802 409.7604 747.6985 409.7618 748 409.8107 748.4488C409.8246 748.5232 409.8472 748.5958 409.8779 748.665L409.9813 748.8826 410.0697 749.0672 410.4472 749.5807 410.3147 749.321 410.3361 749.4145 410.3352 749.3955C410.3354 749.415 410.3595 749.2372 410.3475 749.29 410.3186 749.4165 410.3262 749.5485 410.3695 749.6708L410.3598 749.6395 410.3451 749.5716C410.3509 749.6075 410.3452 749.3462 410.3394 749.4142 410.3279 749.5488 410.6029 748.9327 410.5113 749.0294 410.4341 749.111 410.8151 748.8488 410.7438 748.8752 410.627 748.9185 411.0567 748.8482 411.0004 748.842 410.9249 748.8337 411.1351 748.8792 411.121 748.8727L411.2888 749.0499 411.1943 748.8895 410.8382 748.1903C410.6557 747.865 410.4171 747.4505 410.0293 747.0613L409.4895 746.6002C409.3862 746.5278 409.272 746.4722 409.1513 746.4355L408.8047 746.3485 408.239 746.2728C407.6561 746.2317 406.7539 746.6807 406.5498 747.4077 406.3966 747.9561 406.477 748.3913 406.569 748.8155L406.9371 749.7415C407.1435 750.2203 407.3994 750.7959 407.8657 751.2835 408.4135 751.8369 409.2319 751.9965 409.7571 751.7991 409.8124 751.7783 409.8657 751.7521 409.916 751.721 410.3053 751.4804 410.4669 751.1466 410.5418 750.8759 410.5619 750.803 410.5704 750.7273 410.5668 750.6517L410.497 750.3031 410.472 750.7517 410.5354 750.6116 410.5445 750.6161ZM411.5966 747.2331C411.4089 746.8414 410.9392 746.676 410.5474 746.8637 410.1557 747.0514 409.9903 747.5211 410.178 747.9128 410.3657 748.3045 410.8354 748.47 411.2271 748.2823 411.5647 748.1206 411.7415 747.7434 411.6499 747.3805 411.618 747.2541 411.6564 747.7437 411.6668 747.6655 411.677 747.5894 411.5841 747.921 411.61 747.8644 411.7107 747.6437 411.6952 747.3873 411.5686 747.1803 411.5672 747.1781 411.6328 747.3088 411.5966 747.2331M416.0699 755.0571C416.4431 755.0629 416.7504 754.765 416.7561 754.3917 416.7601 754.1343 416.6175 753.8969 416.3883 753.7796L416.275 753.6093 416.2354 753.4657C416.1429 753.1939 415.9226 752.985 415.6463 752.9071L415.4966 752.8462 415.7908 753.1379 415.4184 752.3366 415.177 751.4011C414.9779 750.855 414.8629 750.3625 414.8038 749.8703L414.7871 748.8561 414.8047 748.4098 414.8093 748.3677C414.812 748.3539 414.7188 748.6008 414.7593 748.5127 414.768 748.4931 414.5344 748.6182 414.7162 748.6051L415.0619 748.5784 415.3282 748.582C415.4854 748.5847 415.6418 748.5577 415.789 748.5023L416.3718 748.3084C416.9067 748.155 417.2159 747.5971 417.0625 747.0623 416.9781 746.7678 416.7642 746.5277 416.4814 746.4099L415.7116 746.1401C415.5614 746.0946 415.404 746.0778 415.2476 746.0907L414.8434 746.1302 414.5369 746.1489C413.7431 746.2191 412.8531 746.758 412.5278 747.5312 412.2918 748.1133 412.3719 748.4051 412.3734 748.7612 412.4097 749.3122 412.4749 749.8218 412.6362 750.3362 412.8633 750.9911 413.1478 751.5936 413.5049 752.1378L414.285 753.0497 414.6746 753.7556 414.5837 753.3512 414.5498 753.6016C414.5021 753.8847 414.5968 754.1732 414.8031 754.3729L415.1377 754.6541C415.3264 754.845 415.6867 755.0512 416.0699 755.0571M431.1577 749.5197C431.0837 749.2284 430.7876 749.0524 430.4963 749.1264 430.336 749.1672 430.2029 749.2786 430.1347 749.4294L430.0464 749.7328 430.0063 749.9665C429.9851 750.0724 429.9909 750.1818 430.0231 750.2849L430.052 750.4255 430.0093 750.4365 430.2873 750.1703 430.1947 750.206C430.1194 750.2323 430.0495 750.2723 429.9887 750.324L429.5272 750.5636C429.271 750.647 429.0369 750.5935 429.0129 750.5763 428.8618 750.4822 429.044 750.6214 429.0423 750.6184 429.0055 750.5533 428.9166 750.1076 428.9381 749.6356 428.9667 749.2452 429.0556 748.8423 429.1938 748.5516 429.3221 748.2059 429.467 747.9796 429.6043 747.838L429.6348 747.8291C430.012 747.8615 430.2365 747.8116 430.2615 747.8127 430.5025 747.8007 430.0639 747.7491 430.1204 747.7723 430.1917 747.8016 430.0549 747.7337 430.087 747.7644L430.2557 747.9512C430.3748 748.1076 430.5209 748.4434 430.6163 748.791L430.7464 749.6004C430.7299 749.8925 430.6431 750.2051 430.5595 750.3962L430.5091 750.5023C430.4981 750.5135 430.6156 750.4286 430.5775 750.4505 430.5134 750.4872 431.0197 750.4614 430.8978 750.4203 430.7802 750.3806 431.1176 750.6192 431.095 750.5782 430.9823 750.3735 430.7249 750.299 430.5202 750.4118 430.3739 750.4924 430.2887 750.6516 430.3028 750.8181 430.3187 751.0058 430.7213 751.3641 430.9895 751.2763 431.633 751.0656 431.7989 750.4412 431.9461 749.7195 432.0355 749.3845 432.068 748.98 432.041 748.5529 432.003 748.0539 431.9051 747.5281 431.6589 747.0268 431.5445 746.7567 431.4657 746.1446 430.5788 745.8887L429.8959 745.8267C429.3227 745.7154 428.6705 745.865 428.1696 746.2721 427.7586 746.5956 427.4041 747.0389 427.1471 747.5676 426.8628 748.3351 426.802 748.9989 426.8168 749.6129 426.8154 750.0365 426.85 750.5066 426.9814 750.9718 427.1146 751.4435 427.3642 751.9962 427.9653 752.3009 428.8038 752.6417 429.5729 752.5058 430.1796 752.124 430.6277 751.7805 430.8812 751.4163 431.0185 751.0443 431.0461 750.9695 431.0597 750.8902 431.0586 750.8105L431.0343 750.5673 430.9695 750.9465 431.1496 750.5134 431.2439 750.3085C431.28 750.2068 431.2901 750.0978 431.273 749.9913L431.2077 749.6917ZM433.1303 750.2308C433.4225 750.0051 433.4765 749.5853 433.2508 749.2931 433.0819 749.0744 432.7958 748.9821 432.5309 749.061L432.5171 749.0682C432.4909 749.0706 432.7743 749.0993 432.6817 749.0796 432.6306 749.0688 432.9648 749.2064 432.8821 749.1579 432.8386 749.1323 433.0699 749.3134 433.0217 749.2655 432.9719 749.2161 433.2002 749.5403 433.1609 749.4598 433.0144 749.1604 432.685 748.997 432.3581 749.0615 431.9679 749.1386 431.9452 749.2907 431.906 749.339 431.8729 749.3799 431.9542 749.2847 431.8974 749.3516 431.6585 749.6329 431.679 750.0514 431.9442 750.3082 432.3697 750.7201 432.4842 750.5083 432.4968 750.5077 432.5139 750.5069 432.2392 750.4742 432.3344 750.4941 432.3862 750.5049 432.0763 750.388 432.1472 750.4259 432.2206 750.4652 431.8731 750.178 431.9348 750.2523 432.1471 750.5082 432.5049 750.5897 432.8071 750.451 433.0862 750.3229 433.0383 750.3018 433.1303 750.2308M431.6942 749.4805C431.5474 749.9186 431.7835 750.3928 432.2216 750.5397 432.4721 750.6237 432.7475 750.5844 432.9645 750.4338L433.3472 750.1091C433.7927 749.6895 434.1227 749.2053 434.4548 748.7311L434.9762 747.5664C435.072 747.3062 435.1895 747.1207 435.2204 746.7282 435.2275 746.6068 435.2438 746.4898 435.1796 746.2757 435.1437 746.1557 435.086 745.9737 434.8456 745.8028 434.5811 745.6148 434.0749 745.6731 433.9097 745.7797 433.5448 746.0152 433.4309 746.4967 433.6516 746.8707 433.7036 746.9588 433.5365 746.5043 433.5513 746.5941 433.5648 746.6759 433.5499 746.3298 433.5444 746.3856 433.535 746.4823 433.5954 746.1713 433.5839 746.2046 433.5524 746.2954 433.6148 746.1305 433.6061 746.1471L433.5548 746.2434 433.2523 746.7536 432.7829 747.5569 432.0178 748.8478ZM435.1108 746.1602C435.0679 746.05 435.0025 745.95 434.9187 745.8666 434.3886 745.3385 434.237 745.606 434.1183 745.6247L433.9257 745.6691C433.3282 745.9018 433.204 746.1698 433.0297 746.4114 432.7844 746.7442 432.5808 747.1425 432.3962 747.5856L432.0091 749.2018C431.9281 749.7503 431.8342 750.3095 431.899 750.9405 432.0534 751.6975 432.4421 752.2026 432.9353 752.4635 433.6138 752.7792 434.1144 752.6035 434.4301 752.4671 434.7318 752.3367 434.9674 752.1764 435.191 752.0128 435.3063 751.9284 435.4042 751.8226 435.4794 751.7011L435.6369 751.4338 435.4906 751.63 436.4608 750.5487C436.7106 750.2942 436.7068 749.8853 436.4523 749.6355 436.2924 749.4785 436.0626 749.4157 435.8452 749.4693 435.3128 749.6007 434.827 749.8974 434.4302 750.0573L434.6674 749.9952 434.5024 750.01C434.3596 750.0144 434.219 750.0463 434.0883 750.1041L433.8057 750.2067 433.8547 750.2046C433.8075 750.2038 434.1904 750.2888 434.0856 750.2506 433.9743 750.21 434.5412 750.5926 434.4354 750.4816 434.3291 750.3789 434.5413 750.671 434.5145 750.6106 434.4883 750.5516 434.5535 750.8052 434.5524 750.7662L434.6036 749.5672 434.8116 748.359 434.9864 747.3101 435.0908 746.9357 435.1599 746.641C435.1697 746.5669 435.2902 746.6205 435.1108 746.1602M437.7068 751.6939C437.9922 751.9246 438.4106 751.8802 438.6413 751.5947 438.8399 751.349 438.838 750.9975 438.6369 750.7539 438.5779 750.6825 438.6796 750.8349 438.6673 750.7703L438.6306 750.3847 438.6514 749.2661 438.6608 748.5562 438.6696 747.9379 438.6943 747.7754C438.7091 747.6976 438.7133 747.6181 438.7069 747.5391L438.7012 747.3555 438.6935 747.3893C438.7034 747.3541 438.5516 747.6309 438.607 747.5583 438.8533 747.2353 438.7911 746.7738 438.4681 746.5275 438.321 746.4153 438.137 746.3627 437.9528 746.3801 437.299 746.442 437.0959 746.986 436.9822 747.3397 436.958 747.4152 436.944 747.4936 436.9406 747.5728L436.9383 747.9065 436.9519 748.5753 437.0197 749.315 437.2165 750.5619C437.2668 750.9366 437.2869 751.3546 437.7068 751.6939M440.4347 753.0331C440.4127 752.6816 440.1099 752.4144 439.7583 752.4364 439.4404 752.4562 439.1859 752.7075 439.1621 753.0251L439.091 753.9765 439.0338 754.2803C438.985 754.4585 439.0001 754.6482 439.0764 754.8165 439.1126 754.8964 438.9126 754.9884 439.4859 755.2473 439.5926 755.2955 439.7093 755.3179 439.8263 755.3125 440.3004 755.291 440.3027 755.1254 440.3753 755.0422L440.5092 754.8389C440.5907 754.6732 440.6117 754.4842 440.5687 754.3046L440.4994 753.9279ZM439.8544 755.3021C439.9506 755.2906 440.0436 755.2606 440.1284 755.2136L440.2449 755.1341C440.5659 754.8684 440.6107 754.3927 440.345 754.0717 440.0793 753.7507 439.6036 753.7059 439.2826 753.9716 438.9615 754.2373 438.9167 754.713 439.1825 755.034 439.3093 755.1873 439.4916 755.2842 439.6895 755.3038ZM439.8225 755.3112C439.8979 755.3047 439.972 755.2875 440.0426 755.2602 440.3263 755.1501 440.3149 755.0903 440.3633 755.0374 440.4805 754.9094 440.5551 754.7481 440.5768 754.5759L440.5922 754.4311 440.6066 754.2754 440.614 754.0377C440.6215 753.8059 440.5414 753.5798 440.3897 753.4044L440.2668 753.228C440.0713 752.905 439.651 752.8016 439.3279 752.9971 439.2385 753.0512 439.1626 753.1251 439.1062 753.2132L438.9264 753.4947C438.7972 753.6877 438.7456 753.9222 438.7818 754.1516L438.8225 754.3756 438.9115 754.6598 439.0091 754.8742C439.0925 755.0264 439.2211 755.1489 439.3771 755.225 439.4587 755.2648 439.4943 755.3395 439.8225 755.3112M443.0283 749.8416C443.0283 749.4527 442.713 749.1375 442.3241 749.1375 441.9352 749.1375 441.6199 749.4527 441.6199 749.8416 441.6199 750.2305 441.9352 750.5458 442.3241 750.5458 442.713 750.5458 443.0283 750.2305 443.0283 749.8416M441.8932 749.3747C441.669 749.6317 441.6957 750.0218 441.9526 750.2459 442.2096 750.4701 442.5997 750.4435 442.8238 750.1865 442.8862 750.115 442.7247 750.2651 442.7294 750.2634L442.7676 750.2522 442.3079 750.1816 442.5272 750.3061C442.6276 750.3617 442.7387 750.3949 442.8532 750.4035L443.2851 750.452 443.5773 750.5367C443.6253 750.5636 443.5009 750.4603 443.505 750.4691 443.5514 750.5675 443.6147 750.6569 443.692 750.7334 443.7418 750.7826 443.636 750.5759 443.6348 750.579L443.4374 750.6073 443.1294 750.7368 443.4191 750.722 443.3059 750.694C443.2399 750.6722 443.1712 750.6599 443.1018 750.6574L442.9201 750.5992 443.0689 750.734 443.0086 750.6306C442.9866 750.5744 442.9593 750.5203 442.9272 750.4692 442.8865 750.4042 442.8178 750.1834 442.8097 749.8883L442.7718 749.2723 442.8941 748.5565C442.9183 748.4846 442.9352 748.4104 442.9446 748.3351L442.9826 748.1331 443.1246 747.9563C443.1977 747.8697 443.2561 747.7718 443.2974 747.6663L443.3624 747.5302 443.2202 747.7161 443.381 747.6908 444.0955 747.6256C444.203 747.631 444.5703 747.8661 444.881 748.2606L445.5305 749.1515 446.0238 750.016 446.1963 750.3626 446.3036 750.53C446.3401 750.5719 446.3968 750.6465 446.5533 750.6796 446.7252 750.716 446.9278 750.6017 446.9949 750.5118 447.1348 750.3246 447.0964 750.0595 446.9091 749.9196 446.7219 749.7798 446.4568 749.8181 446.3169 750.0054 446.2888 750.043 446.5446 749.8461 446.4683 749.8822 446.394 749.9172 446.7905 749.8622 446.7141 749.8489 446.6454 749.8369 446.8999 749.9309 446.866 749.9087 446.8086 749.871 446.9645 750.0029 446.9533 749.9883L446.7735 749.6235 446.2523 748.7101 445.6513 747.7367C445.3838 747.197 445.0045 746.592 444.2736 746.3688L443.691 746.1919C443.2069 746.0346 442.6645 746.0016 442.1522 746.2712L442.3718 746.1897 441.9038 746.3511C441.8008 746.3985 441.7062 746.4626 441.624 746.5407 441.3785 746.774 441.1689 747.0512 441.0031 747.3636L440.8187 747.6615C440.783 747.7285 440.7541 747.7989 440.7325 747.8717 440.593 748.3406 440.5434 748.8061 440.5422 749.2449L440.5931 750.0788C440.7659 750.7598 441.0141 751.3114 441.4837 751.7136 441.5295 751.7529 441.579 751.7878 441.6314 751.8178 441.8671 751.953 442.1171 752.034 442.3586 752.0633L442.164 752.0146C442.5085 752.1481 442.8801 752.1732 443.2234 752.1026 443.2914 752.0886 443.3571 752.065 443.4184 752.0325L443.6725 751.8769 443.4036 751.9847 443.9976 751.8222C444.2582 751.714 444.5787 751.6022 444.8516 751.2513 445.1409 751.0194 445.3664 750.4495 445.2508 749.8876 445.2289 749.7811 445.1884 749.6793 445.1313 749.5868 444.9728 749.3306 444.7245 749.0743 444.3762 748.9229 444.1202 748.8111 443.8347 748.738 443.5247 748.7232L442.7322 748.8339C442.6208 748.8599 442.5162 748.9096 442.4257 748.9797L442.1023 749.3223 442.4817 749.0509 442.2923 749.1084C442.1644 749.1566 442.0223 749.2267 441.8932 749.3747M446.4899 750.6602C446.5516 750.6853 446.6179 750.6973 446.6846 750.6954 447.1317 750.6823 447.0954 750.4909 447.1568 750.402L447.2924 750.1678 447.5173 749.6886 447.7689 749.0331C447.9333 748.4926 448.0081 748.0057 448.0733 747.6291L448.0833 746.7639 448.0827 746.7156C448.0897 746.1323 447.6225 745.6538 447.0393 745.6468 446.5401 745.6408 446.105 745.9851 445.9959 746.4722L445.9556 747.0113C446.0007 747.4887 446.1118 747.7142 446.181 747.9634L446.5937 748.9747 446.9709 749.8997C447.2017 750.3835 447.4839 750.771 447.7927 751.0542 447.996 751.2926 448.4238 751.468 448.8081 751.4092 449.054 751.4165 449.4016 751.2183 449.6201 750.9739 449.8838 750.723 449.9724 750.4362 450.0675 750.2394L450.1671 750.0347 450.269 749.8258 450.3824 749.5688 450.4849 749.3236 450.5869 749.0556C450.6125 748.9858 450.6307 748.9134 450.641 748.8398L450.7264 748.0018 450.754 747.7951C450.775 747.5951 450.7314 747.3935 450.6297 747.22L450.5021 747.0149 450.6196 747.3068 450.4904 746.771C450.3854 746.4301 450.0239 746.2389 449.6831 746.3439 449.4774 746.4073 449.3168 746.5689 449.2548 746.775L449.1204 747.1532 449.2951 746.8908 449.1737 747.0075C449.0263 747.145 448.9269 747.3262 448.89 747.5244L448.8459 747.739 448.6349 748.2991C448.6068 748.368 448.5861 748.4397 448.5732 748.513L448.5308 748.7409 448.4849 748.9822 448.4391 749.2077 448.393 749.4534 448.3509 749.6561 448.2657 750.0384 448.3311 749.9501C448.2965 749.9792 448.5541 749.8528 448.4891 749.8699 448.5247 749.8574 448.8908 749.9095 448.8269 749.8816 448.7656 749.8549 448.954 749.9776 448.9401 749.9609 448.8755 749.8553 448.733 749.5743 448.6421 749.2646L448.4178 748.3494 448.2473 747.5214 448.0973 746.9247 448.0716 746.5496 445.9724 746.6381 445.9691 746.8311 445.9687 747.352 445.9082 748.5715 445.8565 749.3792 446.0566 750.104C446.1274 750.3026 446.0107 750.4647 446.4899 750.6602M455.1322 755.7653C455.3623 755.8064 455.5821 755.6533 455.6233 755.4232 455.6301 755.3847 455.6317 755.3455 455.6278 755.3065L455.6 755.0962C455.5881 755.0215 455.561 754.9501 455.5205 754.8862L455.1933 754.2566 454.9549 753.5262 454.4995 751.8409 454.1445 749.9138 454.016 748.9692 453.9609 747.6229 453.9 747.1477 453.9093 747.1471 453.8943 747.1868C453.9065 747.1608 453.7772 747.3443 453.8192 747.2978L454.0357 747.153C454.2269 747.0261 454.1057 746.9522 454.3765 747.2618 454.5303 747.4377 454.7977 747.4556 454.9736 747.3017 455.1125 747.1802 455.1566 746.9826 455.0826 746.8135 454.8254 746.226 454.2842 745.7519 453.6407 745.8363 453.2637 745.9469 453.0541 746.0765 452.8576 746.2156 452.4916 746.411 452.4032 746.7874 452.3552 747.1295L452.2831 747.4976 452.3296 749.0626 452.4346 750.1596 452.8836 752.2391C453.122 753.0036 453.3843 753.5901 453.5931 754.0402L454.0551 754.8815C454.2783 755.2251 454.5137 755.4609 454.7079 755.6159 454.7671 755.6631 454.8353 755.6978 454.9084 755.7176ZM453.2942 750.8303C453.2942 750.3144 452.876 749.8962 452.3601 749.8962 451.8442 749.8962 451.426 750.3144 451.426 750.8303 451.426 751.3462 451.8442 751.7645 452.3601 751.7645 452.876 751.7645 453.2942 751.3462 453.2942 750.8303M453.2579 751.252C453.5885 750.9105 453.5798 750.3656 453.2383 750.035 452.9948 749.7992 452.6356 749.7283 452.3208 749.8538L452.0691 749.9427C451.5789 750.1034 451.3118 750.6311 451.4725 751.1213 451.6332 751.6116 452.1609 751.8787 452.6511 751.718 452.8184 751.6631 452.9667 751.5622 453.0791 751.4267ZM451.7974 750.0986C451.3301 750.4354 451.2242 751.0872 451.561 751.5545 451.6266 751.6455 451.7064 751.7253 451.7974 751.7909L452.2614 751.9982C452.3251 752.0132 452.39 752.0224 452.4553 752.0258L452.786 752.0161 453.0738 751.975C453.1997 751.9525 453.3211 751.9094 453.433 751.8473L454.0869 751.4901C454.1564 751.4539 454.2216 751.41 454.2814 751.3593L454.6724 751.0505C455.0507 750.7742 455.1333 750.2436 454.857 749.8653 454.7037 749.6554 454.4627 749.5274 454.203 749.518L453.6062 749.5094C453.5278 749.509 453.4496 749.5175 453.373 749.5346L452.68 749.6826C452.5542 749.7033 452.4327 749.7446 452.3203 749.8047L452.1606 749.8888 452.0638 749.9361C452.0041 749.9629 451.9469 749.9951 451.8929 750.0321ZM461.8788 750.9447C461.8788 750.3337 461.3836 749.8385 460.7726 749.8385 460.1617 749.8385 459.6664 750.3337 459.6664 750.9447 459.6664 751.5556 460.1617 752.0509 460.7726 752.0509 461.3836 752.0509 461.8788 751.5556 461.8788 750.9447M462.9021 747.0941C462.9021 746.325 462.2786 745.7015 461.5095 745.7015 460.7404 745.7015 460.1169 746.325 460.1169 747.0941 460.1169 747.8632 460.7404 748.4867 461.5095 748.4867 462.2786 748.4867 462.9021 747.8632 462.9021 747.0941M462.0004 750.7162C462.2776 750.3727 462.2239 749.8696 461.8804 749.5924 461.5369 749.3152 461.0337 749.369 460.7565 749.7125L460.6548 749.8457 460.5653 749.9692 460.8836 749.7095 460.5094 749.8702C459.916 750.0156 459.5528 750.6145 459.6982 751.2079 459.8436 751.8013 460.4425 752.1645 461.0358 752.0191 461.3712 751.9369 461.6489 751.7029 461.7868 751.3864 461.9329 751.0509 461.9817 750.7639 462.0074 750.5227L461.8602 750.9063 461.9434 750.7914ZM461.3583 751.4119C461.559 751.0104 461.3962 750.5222 460.9946 750.3215 460.8785 750.2634 460.7501 750.234 460.6202 750.2358L460.6576 750.246C460.5882 750.2199 460.5161 750.2017 460.4427 750.1917 460.3842 750.1837 460.5249 750.2168 460.5143 750.2101L460.3908 750.0983 460.0649 749.5577C459.9045 749.2579 459.813 748.9704 459.7861 748.7862 459.7766 748.7284 459.7493 748.8436 459.7661 748.7931 459.7981 748.6967 459.8214 748.5976 459.8356 748.497 459.8431 748.4438 459.6717 748.8556 459.7379 748.7492 459.8072 748.6377 459.3063 749.115 459.4303 749.0444 459.5067 749.0035 459.0648 749.1795 459.1315 749.1643 459.2209 749.1439 459.0065 749.1816 459.0092 749.1816L459.1285 749.1925C459.2179 749.2034 459.308 749.207 459.3979 749.2035L459.7992 749.3159 460.3964 749.5307 460.9134 749.6895C461.0144 749.7253 461.2931 749.8005 461.7006 749.6791L460.4254 749.2478 460.5508 749.4006C460.8519 749.7184 461.2987 749.8531 461.7253 749.7547 462.2382 749.6364 462.5322 749.2293 462.6393 748.98 462.9067 748.3576 462.7722 748.1235 462.7481 747.856L462.7926 747.5932 462.7802 747.6513C462.7883 747.6264 462.6987 747.8215 462.7289 747.7668 463.1004 747.0933 462.8556 746.2462 462.1822 745.8747 461.5087 745.5032 460.6616 745.748 460.2901 746.4214 460.2156 746.5566 460.164 746.7032 460.1375 746.8552L460.1048 747.1994 460.1132 747.4917C460.1178 747.598 460.1014 747.8895 460.2044 748.2924L460.2446 748.5027 460.2427 748.4716 460.2442 748.3916C460.2402 748.4519 460.3538 747.968 460.3051 748.1042 460.2791 748.1768 460.4904 747.764 460.43 747.8552 460.3676 747.9493 460.7942 747.4935 460.6862 747.5779 460.3419 747.8474 460.1656 748.2789 460.2228 748.7124 460.2491 748.9116 460.3696 747.9345 460.2979 748.112 460.2282 748.2845 460.66 747.6267 460.5637 747.7185L461.8975 747.524C461.8371 747.4932 461.9969 747.5856 461.9889 747.5795L461.9689 747.5618 461.8864 747.446C461.8393 747.3718 461.6704 747.0953 461.3461 746.7895 460.8847 746.4224 460.4487 746.1089 459.7992 745.9201 459.7126 745.8949 459.6241 745.8768 459.5346 745.8658 459.1677 745.821 458.593 745.6874 457.8038 746.1142 457.0975 746.4759 456.6221 747.2414 456.492 747.9559 456.4738 748.0558 456.4646 748.1572 456.4646 748.2587 456.4644 748.7149 456.5587 749.2014 456.7723 749.6716 457.0428 750.2251 457.3786 750.7135 457.8007 751.1506 458.1279 751.4674 458.4819 751.806 459.0018 752.036 459.5541 752.2763 460.2233 752.3469 460.7729 752.0562 460.8384 752.0215 460.8998 751.9797 460.956 751.9314 461.1541 751.7612 461.2756 751.5772 461.3583 751.4119M461.2876 745.8147C460.6412 745.9668 460.2404 746.6141 460.3925 747.2606 460.5446 747.907 461.192 748.3078 461.8385 748.1557 462.4439 748.0132 462.8408 747.4326 462.7536 746.8167 462.7459 746.762 462.7316 747.2047 462.7508 747.0813 462.7712 746.9499 462.4647 747.644 462.5677 747.5105 462.9217 747.0516 462.8367 746.3926 462.3778 746.0385 462.3561 746.0217 462.3338 746.0059 462.3109 745.9909 462.1015 745.8541 461.6852 745.7211 461.2876 745.8147M462.6557 746.7584C462.5926 746.3195 462.1856 746.0149 461.7467 746.0781 461.3078 746.1413 461.0032 746.5483 461.0664 746.9871 461.1296 747.426 461.5366 747.7306 461.9754 747.6674 462.2204 747.6321 462.4354 747.4859 462.5582 747.271 462.6207 747.1616 462.33 747.516 462.3818 747.4763 462.4304 747.439 462.2314 747.5581 462.2621 747.5458L461.9675 747.5922 462.3909 747.8062C462.6091 747.9529 462.9049 747.895 463.0516 747.6768 463.163 747.5112 463.1592 747.2937 463.0423 747.132L462.4891 746.4517 462.6466 746.7047C462.64 746.6856 462.6682 746.8447 462.6557 746.7584M467.7848 753.8C467.7848 753.3853 467.4487 753.0492 467.034 753.0492 466.6193 753.0492 466.2832 753.3853 466.2832 753.8 466.2832 754.2147 466.6193 754.5508 467.034 754.5508 467.4487 754.5508 467.7848 754.2147 467.7848 753.8M466.5155 753.2669C466.2273 753.5492 466.2225 754.0117 466.5048 754.2998 466.7871 754.588 467.2495 754.5928 467.5377 754.3105 467.8259 754.0282 467.8306 753.5658 467.5484 753.2776 467.3622 753.0876 467.0875 753.0138 466.8311 753.0849 466.7259 753.1142 467.0883 753.0596 467.0398 753.0586 466.8885 753.0555 467.3556 753.139 467.3054 753.1168 467.2592 753.0964 467.4223 753.184 467.4012 753.1696L467.6664 753.9899C467.7889 753.6526 467.7231 753.5263 467.7033 753.3332L467.3168 751.1603 466.9857 748.8363 466.906 747.5176 466.8308 746.2472C466.8317 746.1224 466.8139 745.9982 466.7779 745.8787 466.7709 745.8555 466.8031 746.0274 466.7981 745.9813 466.7899 745.907 466.7243 746.441 466.766 746.3022 466.7878 746.2297 466.6081 746.6111 466.659 746.5327 466.7108 746.453 466.3774 746.8143 466.458 746.7517L466.1037 746.9314 466.387 746.8299 466.5686 746.7521C466.7127 746.6957 466.8414 746.6059 466.944 746.4901L467.1793 746.488C467.2816 746.5216 467.491 746.6007 467.6868 746.7308 467.8815 746.8601 468.1441 746.8071 468.2734 746.6124 468.3812 746.4502 468.3643 746.2353 468.2324 746.0919 467.9941 745.8326 467.7158 745.6348 467.4343 745.4865L467.0608 745.2182C466.9773 745.1264 466.76 745.0166 466.6201 744.9524 466.4793 744.8878 466.3251 744.8575 466.1703 744.8642L465.9524 744.8767 465.9127 744.882 466.2934 744.9928C465.7122 744.6948 464.7353 745.0931 464.4489 745.7192 464.397 745.8328 464.3624 745.9534 464.3463 746.0772L464.2829 747.4928 464.5032 749.1991 465.1673 751.6641C465.4996 752.6159 465.8167 753.3639 466.1513 753.88 466.3373 754.1225 466.4052 754.3004 466.8006 754.4216L466.3051 753.7148C466.3041 753.7351 466.3306 753.5645 466.3192 753.6148 466.313 753.6422 466.3724 753.4605 466.3534 753.507L466.397 753.4188C466.3753 753.456 466.5888 753.1951 466.5155 753.2669M465.9149 750.376C465.9149 749.7632 465.4181 749.2665 464.8053 749.2665 464.1925 749.2665 463.6957 749.7632 463.6957 750.376 463.6957 750.9888 464.1925 751.4856 464.8053 751.4856 465.4181 751.4856 465.9149 750.9888 465.9149 750.376M465.7277 750.9144C466.1469 750.6421 466.266 750.0816 465.9938 749.6625 465.7331 749.261 465.2049 749.132 464.7885 749.368L464.6197 749.4591 465.1314 749.367C465.1263 749.3665 465.2851 749.4067 465.2222 749.3875 465.1865 749.3766 465.4473 749.4906 465.3767 749.4526 465.3389 749.4322 465.5688 749.586 465.514 749.5429 465.4852 749.5202 465.6475 749.6675 465.6111 749.6302 465.5728 749.591 465.8138 749.9129 465.7528 749.8128 465.6924 749.7138 465.616 749.6257 465.5267 749.5519 465.5012 749.5309 465.6514 749.6727 465.6164 749.6357 465.5792 749.5965 465.8346 749.958 465.7647 749.8357 465.4737 749.3267 464.8251 749.1499 464.3161 749.4409 463.8071 749.732 463.6304 750.3805 463.9214 750.8895 464.2124 751.3985 464.8609 751.5752 465.3699 751.2842 465.7699 751.0555 465.9767 750.595 465.8819 750.1442 465.8535 750.0087 465.9026 750.4408 465.904 750.3875 465.9054 750.3372 465.8881 750.5439 465.8931 750.5104 465.9106 750.3953 465.9086 750.278 465.8872 750.1636 465.868 750.0606 465.9043 750.403 465.9047 750.3591 465.9057 750.2145 465.8606 750.6435 465.8723 750.6008 465.8876 750.5446 465.8384 750.6978 465.8426 750.688L465.4909 751.0607ZM463.7353 750.2472C463.6985 750.8461 464.1542 751.3613 464.7531 751.3981 464.7961 751.4007 464.8391 751.4008 464.8821 751.3983L465.314 751.3296C465.3908 751.3152 465.4661 751.2937 465.5388 751.2652L465.6356 751.2307 465.7715 751.1893C465.8711 751.1611 465.9672 751.1212 466.0575 751.0705L466.188 751.0027 466.2851 750.9705 466.479 750.9058C466.6241 750.8606 466.7603 750.7906 466.8815 750.6989L467.4049 750.3651 467.1228 750.47 467.3584 750.4245C467.9298 750.3278 468.3146 749.7861 468.2179 749.2146 468.124 748.6601 467.6096 748.2782 467.0516 748.3487L466.7198 748.3983 467.0203 748.3899 466.109 748.3331C465.9573 748.3307 465.8063 748.3544 465.6627 748.4034L465.3654 748.5119 465.0829 748.6297 464.892 748.705C464.797 748.7456 464.7071 748.7973 464.6242 748.8589L464.3792 749.0578 464.1472 749.2914C464.0963 749.35 464.0509 749.4132 464.0117 749.4803 463.9499 749.5861 463.7702 749.6781 463.7353 750.2472M469.3127 750.1382C469.5334 750.4604 469.9735 750.5426 470.2957 750.3219 470.4238 750.2342 470.5195 750.1067 470.5679 749.9592L470.7053 749.722C470.8456 749.4408 470.83 749.1069 470.6638 748.8401L470.5833 748.6808 470.6023 749.2779 470.7524 748.7381 470.7694 748.2636 470.6506 747.499C470.6319 747.4034 470.5994 747.311 470.5543 747.2246L470.2919 746.7164 470.2807 746.6275 470.2457 746.4768C470.227 746.3759 470.191 746.2791 470.1393 746.1905L470.0176 745.9835C469.9829 745.9274 469.9408 745.8763 469.8923 745.8316 469.4146 745.3913 468.9218 745.7417 468.7556 745.9329 468.603 746.1085 468.5521 746.2687 468.5146 746.4092 468.4881 746.5083 468.479 746.6112 468.4876 746.7134L468.5289 747.0137 468.5913 747.3149 468.6501 747.8386C468.664 747.935 468.6916 748.0289 468.7322 748.1174L468.9483 748.6246 469.045 748.8683 469.2102 749.2773 469.2296 748.6802 469.178 748.7683C468.9871 749.0177 468.9392 749.3484 469.0516 749.6417ZM470.0352 746.0137C469.8471 745.673 469.4185 745.5493 469.0779 745.7374 468.7372 745.9254 468.6135 746.354 468.8016 746.6947 468.9896 747.0353 469.4182 747.159 469.7589 746.971 470.0343 746.8189 470.1756 746.5026 470.1049 746.196 470.074 746.0618 470.0552 746.6686 470.0896 746.5625 470.1211 746.4653 469.901 746.8584 469.9546 746.7984 470.0508 746.6907 469.5987 747.0006 469.6772 746.9772 469.7415 746.9579 469.4886 746.9987 469.5257 746.9992 469.5843 747 469.43 746.9846 469.4361 746.9867L469.7389 747.2004C469.924 747.3576 470.2015 747.3349 470.3586 747.1497 470.4794 747.0074 470.4971 746.8042 470.4028 746.6431ZM473.0038 752.5664C472.9869 752.2419 472.71 751.9926 472.3855 752.0096 472.0739 752.0259 471.8292 752.2827 471.8279 752.5947L471.8515 753.6142 471.8538 753.7802 471.8805 753.7106C471.8653 753.7423 471.9993 753.5427 471.9589 753.5904 471.9189 753.6376 472.2216 753.4015 472.1393 753.4453 472.0597 753.4878 472.5178 753.3676 472.4186 753.3708 472.3268 753.3739 472.7254 753.4336 472.6601 753.4096 472.5456 753.3676 472.8958 753.5631 472.8628 753.5325 472.8143 753.4875 472.9134 753.588 472.9086 753.5811L472.6829 753.195C472.4814 752.843 472.0327 752.721 471.6807 752.9225 471.3287 753.124 471.2067 753.5727 471.4082 753.9246 471.4225 753.9497 471.4383 753.9738 471.4555 753.997L471.7364 754.3542 472.0489 754.6192C472.1906 754.6978 472.5445 754.8068 472.8498 754.5709 473.2709 754.2456 473.1338 754.0236 473.1302 753.9029L473.092 753.5103ZM476.2108 749.702C476.2108 749.2697 475.8603 748.9192 475.428 748.9192 474.9957 748.9192 474.6452 749.2697 474.6452 749.702 474.6452 750.1343 474.9957 750.4848 475.428 750.4848 475.8603 750.4848 476.2108 750.1343 476.2108 749.702M476.172 749.0462C476.0054 748.826 475.7076 748.7523 475.4575 748.8693L475.2887 748.9665 475.438 748.9016 475.3317 748.9337 475.332 748.9251C474.903 748.9781 474.5981 749.3689 474.6511 749.7979 474.7041 750.227 475.0949 750.5319 475.5239 750.4789 475.8039 750.4443 476.0436 750.2617 476.1514 750.001L476.2259 749.7705 476.262 749.6356 476.2148 749.7913C476.2772 749.6514 476.5077 749.4899 476.172 749.0462M475.6069 750.2876C475.8825 750.1189 475.9692 749.7588 475.8005 749.4832 475.6319 749.2076 475.2718 749.1209 474.9962 749.2896L474.917 749.3321 474.8742 749.3465 474.8311 749.352C474.5081 749.3593 474.2522 749.6272 474.2596 749.9502 474.267 750.2732 474.5348 750.5291 474.8578 750.5217L475.1379 750.4864 475.4032 750.3963ZM474.8563 750.6623C475.2646 750.566 475.5175 750.1569 475.4212 749.7486 475.3792 749.5702 475.274 749.413 475.1251 749.3061 475.0599 749.2592 475.2001 749.3951 475.1836 749.3527L475.101 748.9614C475.0942 748.9079 475.0834 748.8551 475.0688 748.8032L474.9065 747.7288C474.8703 747.2183 474.9307 746.7729 474.9922 746.6342 475.0354 746.5291 474.8238 746.7806 474.8629 746.7612L474.9284 746.7643 475.0683 746.7927C475.1482 746.8095 475.2295 746.8182 475.3111 746.8185 475.571 746.8194 475.7764 746.8721 475.8909 746.9475 475.968 746.9982 476.1664 747.3029 476.2922 747.7401 476.3953 748.1355 476.4168 748.582 476.354 748.9296 476.3069 749.0996 476.1635 749.2936 476.0561 749.389 476.0257 749.418 476.2942 749.5021 476.2909 749.4521 476.2753 749.2189 476.0736 749.0426 475.8404 749.0582 475.6533 749.0707 475.4968 749.2049 475.4558 749.3879 475.3921 749.6723 475.4471 749.9998 475.6882 750.2295 475.9365 750.4661 476.3893 750.5097 476.7226 750.3208 477.0719 750.093 477.3826 749.748 477.5624 749.258 477.7904 748.7686 477.8922 748.1334 477.8659 747.4855 477.8563 746.8757 477.7976 746.1196 477.2271 745.4427 476.7892 744.9236 476.1979 744.6382 475.6611 744.4763 475.5832 744.4528 475.5031 744.4373 475.4221 744.4301L475.0164 744.411C474.246 744.3569 473.2082 744.7641 472.8237 745.7161 472.5367 746.4978 472.5687 747.2342 472.6547 747.9329 472.7278 748.4722 472.8393 748.9971 473.0257 749.4828 473.045 749.5331 473.068 749.5818 473.0946 749.6286 473.4704 750.2909 474.1914 750.8191 474.8563 750.6623M481.1981 749.2029C481.1981 748.7703 480.8474 748.4196 480.4148 748.4196 479.9822 748.4196 479.6315 748.7703 479.6315 749.2029 479.6315 749.6355 479.9822 749.9862 480.4148 749.9862 480.8474 749.9862 481.1981 749.6355 481.1981 749.2029M484.1039 746.0419C484.1039 745.2756 483.4827 744.6543 482.7163 744.6543 481.95 744.6543 481.3287 745.2756 481.3287 746.0419 481.3287 746.8083 481.95 747.4295 482.7163 747.4295 483.4827 747.4295 484.1039 746.8083 484.1039 746.0419M480.8712 749.8916C480.9688 749.8307 481.0486 749.7449 481.1022 749.643 481.1229 749.6037 480.9961 749.7893 481.0244 749.7565 481.1624 749.5963 481.2249 749.3846 481.1962 749.1751L481.1981 749.2041C481.1988 748.7715 480.8486 748.4202 480.416 748.4196 479.9834 748.4189 479.6322 748.7691 479.6315 749.2017 479.6311 749.4917 479.7909 749.7582 480.0468 749.8944L480.2269 749.9725C480.4269 750.0411 480.6468 750.0205 480.8305 749.916ZM479.8207 749.4387C479.9963 749.7439 480.3862 749.849 480.6914 749.6733 480.9425 749.5289 481.0647 749.2333 480.9888 748.9536L480.9852 748.9347 480.9695 748.6812 480.9734 748.5086C480.9833 748.1498 480.7005 747.8509 480.3417 747.8411 479.9829 747.8312 479.6841 748.114 479.6742 748.4728L479.67 748.6564 479.7136 749.1928ZM479.615 748.7923C479.8878 749.1872 480.4292 749.2863 480.8241 749.0135 480.8914 748.967 480.9519 748.9112 481.0036 748.8478L481.1111 748.7143C481.1898 748.616 481.2491 748.5036 481.2856 748.383L481.4468 747.9129C481.4757 747.843 481.4974 747.7703 481.5118 747.696L481.6091 747.3104C481.6295 747.249 481.5617 747.387 481.5987 747.3177 481.621 747.2759 481.3843 747.5938 481.462 747.5088 481.5034 747.4637 481.2299 747.7033 481.2988 747.6538 481.3697 747.6027 480.9398 747.8285 481.0401 747.7913 481.2062 747.7297 481.3562 747.6312 481.4789 747.5033 481.5638 747.4147 481.0182 747.7996 481.1489 747.739 481.2634 747.6859 480.686 747.8456 480.7991 747.8345 480.896 747.825 480.4599 747.8156 480.5366 747.8275 480.6656 747.8474 480.1795 747.7015 480.2469 747.7356 480.3396 747.7825 480.0639 747.6072 480.087 747.6283L480.0769 747.6198 480.7656 748.6489 481.1188 749.3963 481.4047 749.9007 481.2783 749.5757 481.3198 749.8561C481.336 750.001 481.3852 750.1403 481.4635 750.2633 481.5701 750.4307 481.7272 750.702 482.2012 750.8157 482.7416 750.9454 483.2848 750.6125 483.4145 750.072 483.5442 749.5316 483.2113 748.9884 482.6709 748.8587 482.4488 748.8054 482.2152 748.8292 482.0085 748.9262 481.9107 748.9721 482.4117 748.8359 482.3125 748.8444 482.1679 748.8568 482.7467 748.9176 482.6617 748.8875 482.5824 748.8593 482.8553 748.9924 482.8232 748.9696 482.7041 748.8852 482.5674 748.8292 482.4234 748.8058 482.3509 748.794 482.5408 748.8396 482.5323 748.8357L482.5012 748.8159 482.737 749.074 482.5767 748.7342 482.3184 747.9227 481.9498 746.5756 481.6589 746.0442C481.5244 745.867 481.1943 745.4742 480.5453 745.5225 480.369 745.5356 480.1978 745.5885 480.0448 745.6771 479.2943 746.1116 479.4349 746.4724 479.3925 746.6394L479.2741 747.3604C479.266 747.4356 479.2655 747.5115 479.2726 747.5868L479.3676 748.2722C479.39 748.3963 479.436 748.515 479.503 748.6218ZM481.5276 750.2786C481.5668 750.3603 481.6162 750.4367 481.6747 750.5058 482.1818 751.1052 482.6456 750.9288 482.944 750.8238 483.2258 750.7247 483.4075 750.5656 483.546 750.4127 483.6183 750.3329 483.68 750.2442 483.7295 750.1486L483.8901 749.7688 483.9867 749.5389 484.1105 749.0332 484.1723 748.5897C484.1788 748.5353 484.1821 748.4805 484.1823 748.4257L484.173 747.6561 484.1711 747.3098 484.1831 747.0179C484.1858 746.9426 484.1827 746.8673 484.1738 746.7925L484.0919 746.1361 484.1034 746.3068 484.1038 746.0582C484.1128 745.2919 483.4989 744.6634 482.7326 744.6544 481.9663 744.6454 481.3378 745.2593 481.3288 746.0256L481.3292 746.3273 481.3383 746.1565 481.2724 746.8413C481.266 746.9163 481.2654 746.9917 481.2706 747.0668L481.2943 747.4165 481.2968 747.7072 481.2794 748.3558C481.277 748.4104 481.2777 748.465 481.2814 748.5195L481.2999 748.8287 481.3269 749.1659 481.3806 749.537 481.3678 749.5339C481.3644 749.6414 481.375 749.7489 481.3992 749.8537 481.4263 749.9715 481.333 749.8725 481.5276 750.2786M481.976 744.9598C481.5029 745.3717 481.4532 746.0892 481.8651 746.5624 482.277 747.0355 482.9945 747.0852 483.4677 746.6732 483.9408 746.2613 483.9905 745.5438 483.5786 745.0707 483.5667 745.0571 483.5546 745.0438 483.5421 745.0308 483.4537 744.9385 483.5462 744.8148 482.9563 744.6806 482.8835 744.6641 482.8091 744.6557 482.7344 744.6556 482.0645 744.6546 482.0981 744.8535 481.976 744.9598M497.7031 746.7752C497.4458 746.7869 497.2468 747.0049 497.2585 747.2622 497.2662 747.4311 497.3646 747.5826 497.5158 747.6581L497.7709 747.8032C497.8279 747.8422 497.8914 747.8706 497.9584 747.8872L498.109 747.9321 498.2763 748.0631 498.4846 748.4481 498.5451 749.1266 498.4684 749.4822C498.4254 749.5369 498.7151 749.3069 498.6731 749.3196L498.7643 749.3129C498.6676 749.3013 499.0996 749.5477 499.0345 749.4708 499.0015 749.4306 499.0885 749.5519 499.0785 749.5257L499.0248 749.3258C498.9398 748.9949 498.9241 748.3916 498.9787 747.7507L499.0215 747.2669C499.0257 747.2493 498.9766 747.3585 499.0011 747.3103 499.03 747.2536 498.6821 747.6523 498.7967 747.5578L498.8257 747.5166 499.0459 747.5972 499.1651 747.7183 499.3791 748.1657 499.4861 748.8768 499.4372 749.4206 499.2683 749.6068C499.2493 749.6249 499.3416 749.5797 499.2971 749.5975 499.2766 749.6055 499.4688 749.5611 499.4177 749.5673 499.2625 749.5862 499.1134 749.6393 498.9812 749.7228 498.9264 749.7575 499.403 749.6255 499.2672 749.6341 499.1612 749.6409 499.6985 749.7476 499.5972 749.6982 499.5228 749.662 499.8106 749.8717 499.7706 749.8271 499.7148 749.7647 499.8495 749.9634 499.8459 749.9505L499.8441 749.8726C499.8654 749.4903 499.5727 749.1631 499.1904 749.1417 498.9158 749.1264 498.6581 749.2748 498.5336 749.52 498.3682 749.8456 498.2525 750.1632 498.3046 750.5704 498.3602 751.0046 498.7872 751.5367 499.3303 751.6496 499.4836 751.6815 499.6421 751.6789 499.7943 751.642L500.1661 751.5022C500.3857 751.3909 500.5763 751.2361 500.7409 751.0566 500.9516 750.8256 501.2458 750.4742 501.3831 749.9489 501.4961 749.5821 501.5156 749.1955 501.5187 748.832 501.539 748.4573 501.5196 748.0032 501.4176 747.5363 501.352 747.0726 501.2793 746.3923 500.6717 745.7446 500.0785 745.2054 499.4124 744.906 498.663 744.9134 498.0636 744.9295 497.5463 745.1488 497.1507 745.4379 496.2219 746.1642 496.3072 746.9691 496.2784 747.5713 496.2803 748.4332 496.3123 749.2542 496.6248 750.0427 496.8301 750.4936 497.0682 750.9159 497.5619 751.21 497.9878 751.4723 498.5119 751.4975 498.885 751.4009 499.3687 751.2648 499.9194 750.9288 500.1116 750.2823 500.257 749.8585 500.2306 749.4406 500.1708 749.0472 500.1232 748.6788 500.0333 748.2563 499.8131 747.8625 499.6351 747.5395 499.4023 747.264 499.1128 747.0769 498.8247 746.8952 498.5686 746.8601 498.4213 746.8297L498.2568 746.7696C498.1904 746.7506 498.1212 746.7436 498.0524 746.749ZM506.2425 755.0054C506.6093 755.0372 506.9324 754.7656 506.9642 754.3989 506.9959 754.0321 506.7244 753.709 506.3576 753.6772 506.3346 753.6752 506.3115 753.6744 506.2884 753.6748L506.0842 753.69C506.01 753.6809 506.3552 753.8831 506.3381 753.8507 506.3527 753.8741 506.3287 753.2249 506.3796 752.0866 506.3766 751.1944 506.3535 750.2584 506.4302 749.3783L506.6506 747.5641 506.7534 745.9847 506.726 744.5157 506.686 743.0226 506.6198 741.8973C506.6106 741.1167 506.5708 740.3315 506.4524 739.5381 506.4047 739.1681 506.3054 738.8448 506.127 738.5884 505.9047 738.2737 505.6465 737.9837 505.2866 737.8098 505.0519 737.6432 504.7079 737.4971 504.3346 737.4292L504.1064 737.3462C503.6266 737.3119 503.2173 737.3118 502.7672 737.4878 502.0599 737.7632 501.4092 738.4367 500.9822 739.4129L500.5116 740.9679C500.3892 741.4942 500.3303 742.0307 500.3072 742.5294 500.2934 743.0051 500.306 743.4726 500.4366 743.9593L500.6404 744.6284C500.8917 745.2499 501.4071 745.6781 501.9222 745.8812 502.5399 746.1707 503.4559 746.4924 504.5868 746.5214 505.6336 746.4982 506.684 746.4383 507.6639 746.3046L508.3531 746.2083C508.4891 746.1946 508.623 746.1647 508.7519 746.1193L508.957 746.0543C509.8355 745.7924 510.3353 744.8678 510.0734 743.9893 509.8869 743.3638 509.3512 742.9057 508.7043 742.8185L508.1761 742.784C508.0394 742.7844 507.9031 742.8011 507.7703 742.8339L507.0625 743.0035C506.2783 743.1924 505.3309 743.3337 504.44 743.4419 503.7406 743.5604 503.1739 743.5111 502.6052 743.4164 502.6518 743.4247 502.8921 743.6512 502.8443 743.5676L502.6832 743.2191 502.6003 742.5443 502.6424 741.3472 502.917 740.1318C503.1131 739.402 503.3397 739.0916 503.5651 738.9232L504.1018 738.7093 504.4172 738.5848C504.4944 738.5924 504.7151 738.6165 504.9305 738.688 505.0152 738.737 505.1608 738.8876 505.3308 739.1368 505.38 739.2078 505.4597 739.4072 505.4934 739.6709 505.572 740.3992 505.5796 741.1368 505.5589 741.9192L505.4943 743.0043 505.4531 744.5334 505.3821 745.9752 505.3176 747.4157 505.125 749.2554C504.9977 750.206 504.9814 751.1842 504.9425 752.021 504.9447 753.2209 504.8923 753.9021 505.2334 754.4715 505.3087 754.6608 505.5989 754.9048 505.8491 754.9666ZM526.061 745.8544C525.6729 745.6468 525.19 745.7932 524.9825 746.1812 524.7749 746.5693 524.9213 747.0522 525.3093 747.2597L544.047 757.2812C544.4351 757.4888 544.918 757.3424 545.1255 756.9543 545.3331 756.5662 545.1868 756.0834 544.7987 755.8758Z"/>
</g>
<g clip-path="url(#clip_16)">
<path transform="matrix(1,0,0,-1,-223.5,777.2581)" d="M543.8221 755.8456C543.5713 755.9774 543.4749 756.2876 543.6067 756.5384 543.7385 756.7892 544.0487 756.8856 544.2995 756.7538 544.3683 756.7176 544.1058 756.8117 544.143 756.8058 544.2641 756.7866 543.9627 756.8007 543.9815 756.8043L544.1937 756.9142 543.996 756.6924 544.092 756.9113 544.1587 757.1428C544.1737 757.6802 544.6215 758.1037 545.1589 758.0887 545.6963 758.0737 546.1198 757.626 546.1048 757.0886 546.0945 756.7215 545.8786 756.3914 545.5464 756.235L544.8567 756.0027 544.4417 755.9639 544.729 756.0389 544.3801 755.8612 544.2391 755.812C544.1902 755.7983 544.2491 755.6212 543.8221 755.8456M546.1498 756.6698C545.8368 756.1371 545.1512 755.959 544.6185 756.2721 544.2923 756.4637 544.0851 756.8072 544.0677 757.1851 544.0622 757.3047 544.1888 756.791 544.148 756.8733 544.1138 756.942 544.281 756.6868 544.25 756.7212 544.2007 756.7761 544.358 756.6325 544.3441 756.6405L544.3881 756.6349C544.3624 756.6343 544.5695 756.6706 544.5118 756.6548 544.4272 756.6317 544.3407 756.6161 544.2534 756.6083 544.1612 756.6001 544.6262 756.7268 544.5359 756.6848 544.402 756.6224 544.8927 756.9943 544.832 756.9164 544.7758 756.8442 544.927 757.0997 544.9184 757.0719L544.8911 756.5357C544.904 756.4788 544.9136 756.4213 544.9199 756.3633L544.9299 756.3404 544.9009 756.3693C544.9283 756.3462 544.636 756.4966 544.7297 756.4631 544.7933 756.4388 544.5068 756.4873 544.6026 756.4812 544.7068 756.4746 544.09 756.3487 544.2206 756.4089L544.0703 756.3267C544.1444 756.3741 543.8676 756.1458 543.9049 756.1874 543.9643 756.2538 543.8252 756.0724 543.8276 756.0777L543.9214 756.608C543.9326 756.8148 543.8564 757.1715 543.7306 757.4416L543.9944 757.0767 543.9162 757.1426C543.8494 757.1915 543.7875 757.2466 543.7313 757.3072L543.7123 757.3284C543.6991 757.3352 543.8351 757.2879 543.7925 757.2992 543.746 757.3116 544.0975 757.2749 544.0018 757.2744 543.918 757.2731 544.4278 757.3563 544.3247 757.3243 544.1692 757.2759 544.8687 757.6689 544.7482 757.563 544.6288 757.458 545.0848 758.0389 545.022 757.9153 544.9512 757.7762 544.8619 757.6472 544.7566 757.532 544.643 757.4078 545.0251 757.9609 544.982 757.8679 544.9467 757.7918 545.0568 758.0852 545.0461 758.0438 545.0295 757.9802 545.0614 758.1251 545.0607 758.1136L545.1075 757.4966 545.2368 756.8254 545.2948 756.7017C545.2986 756.6956 545.1431 756.8441 545.213 756.785 545.3052 756.707 545.3893 756.6199 545.4639 756.5249 545.5387 756.4297 545.0476 756.8528 545.167 756.7829 545.2566 756.7305 544.7902 756.9202 544.8854 756.8971 545.0258 756.863 544.3965 756.8924 544.5043 756.9116 544.6078 756.93 544.2113 756.7917 544.2665 756.8252 544.2328 756.8069 544.0684 756.6703 544.0707 756.6733L544.3174 757.2555C544.3451 757.3987 544.3437 757.6648 544.3009 757.8546L544.2211 757.8751C544.0355 757.9667 544.3614 757.8491 544.282 757.8673L545.6133 758.1652C545.478 758.0591 546.0558 758.7394 545.9644 758.5778 545.8736 758.4171 546.1656 759.2063 546.138 759.0573 546.051 758.5892 545.7928 758.1702 545.4138 757.8821 545.3256 757.815 545.6898 758.1516 545.632 758.0855 545.5286 757.9672 545.8593 758.4457 545.8253 758.3748 545.7982 758.3182 545.8773 758.5104 545.871 758.4895L545.8936 757.9144C545.9178 757.8051 545.9344 757.6942 545.9432 757.5826L545.9388 757.609C545.9624 757.4938 545.9775 757.3771 545.9841 757.2597 545.9855 757.2355 545.9102 757.5341 545.9438 757.438L545.8434 757.681C545.8697 757.6262 545.682 757.9343 545.7315 757.8666 545.7817 757.7981 545.4449 758.163 545.5284 758.089 545.8239 757.827 546.05 757.496 546.1867 757.1254 546.2239 757.0247 545.9525 757.554 546.0244 757.4451L545.5855 757.9374C545.6791 757.8588 545.1653 758.1907 545.2754 758.1379L544.9995 758.2487C545.1087 758.2129 544.5953 758.3188 544.6894 758.3114 545.9322 758.2139 546.8605 757.1275 546.763 755.8847 546.671 754.7118 545.6934 753.8063 544.5168 753.8042L543.7803 753.8876 544.0746 753.8391 543.3442 753.9997 543.9886 753.8739 543.2542 754.0002C542.8758 754.1131 542.5311 754.3177 542.2508 754.596L541.8002 755.1502 541.494 755.73 541.6094 755.4921C541.4019 755.8655 541.271 756.2503 541.192 756.6303 541.1683 756.7444 541.1529 756.86 541.1458 756.9764L541.1444 757.5242C541.1505 757.6359 541.1643 757.747 541.1858 757.8568 541.2997 758.4383 541.4769 759.0531 541.8238 759.6824 542.002 760.0056 542.2283 760.3442 542.5885 760.6629 542.9644 760.9955 543.5523 761.3246 544.2594 761.3228 544.7354 761.3216 545.1939 761.1432 545.5455 760.8225 545.9009 760.4983 546.0389 760.1907 546.1259 759.9497L545.1548 760.909 545.7083 760.6316C546.4359 760.0437 546.945 759.3017 547.0585 758.3243 547.1796 757.8202 547.1626 757.1481 547.0098 756.4968 546.9462 756.0089 546.8987 755.281 546.2297 754.506 545.7358 753.8241 544.4493 753.2322 543.2616 753.8271 543.1535 753.8813 543.0512 753.9463 542.9562 754.0212 541.8729 754.875 541.6117 755.9914 541.5078 757.0957L541.5314 758.337C541.5874 758.7887 541.6331 759.4545 542.4146 760.0644 542.538 760.1607 542.6738 760.2398 542.8184 760.2995 543.5659 760.6084 544.4125 760.4263 544.9348 760.0213 545.4196 759.6531 545.7221 759.1752 545.9139 758.6018 545.9402 758.5235 545.9588 758.4428 545.9697 758.3609L546.0027 758.0156 545.8917 758.4525C546.173 757.8533 546.345 757.1662 546.3046 756.4314L546.2084 755.51C546.133 755.1567 546.0293 754.7096 545.5377 754.3061L545.662 754.4232C545.279 754.0095 544.7052 753.8477 544.2973 753.8409 543.0752 753.8614 542.3035 754.6747 541.9504 755.6985 541.9313 755.7537 541.9155 755.81 541.9029 755.867 541.7388 756.6087 541.7655 757.3378 542.0234 758.0463 542.3552 758.8517 543.1861 759.577 544.1484 759.5598 544.2361 759.5582 544.3235 759.5488 544.4095 759.5318 545.0579 759.4032 545.5232 759.0865 545.8863 758.6499 546.2576 758.2035 546.5668 757.3794 546.1498 756.6698M546.4983 756.2847C546.611 755.3291 545.9279 754.4631 544.9723 754.3503 544.0168 754.2375 543.1508 754.9207 543.038 755.8762 542.9252 756.8318 543.6084 757.6978 544.5639 757.8106 545.4386 757.9138 546.2528 757.3479 546.4609 756.4921 546.4937 756.3572 546.3609 756.7876 546.3834 756.7323 546.4559 756.5545 546.1166 757.1721 546.1796 757.0901 546.2399 757.0118 545.9611 757.3153 546.0121 757.2704 546.3972 756.9309 546.581 756.4174 546.4987 755.9107L546.5041 755.9556 546.5091 756.0341 546.5098 756.1097C546.5103 756.0753 546.4851 756.3964 546.4983 756.2847" fill="#648fff"/>
<path transform="matrix(1,0,0,-1,-223.5,777.2581)" d="M525.9777 743.809C525.9777 742.4159 524.8483 741.2865 523.4552 741.2865 522.062 741.2865 520.9327 742.4159 520.9327 743.809 520.9327 745.2022 522.062 746.3315 523.4552 746.3315 524.8483 746.3315 525.9777 745.2022 525.9777 743.809M526.4204 744.1953C526.3485 743.8576 526.0164 743.642 525.6786 743.7139 525.4333 743.7661 525.243 743.9597 525.195 744.2059 525.0928 744.7303 524.9112 745.1771 524.6329 745.5595L524.4246 745.7684C524.4199 745.7714 524.5663 745.7261 524.5037 745.7411 524.4329 745.758 524.9461 745.7727 524.8186 745.7438 524.7623 745.7323 524.9806 745.82 524.8996 745.781 524.8116 745.7386 525.2416 746.0698 525.1677 745.9854 525.1271 745.9392 525.0837 745.8955 525.0376 745.8548 524.9656 745.7911 525.2115 746.0609 525.1831 746.0187 525.1397 745.9541 525.2283 746.1021 525.222 746.0838L525.1075 745.3015 525.0588 744.5563C525.0792 744.3351 524.887 744.7928 524.9443 744.7318 524.9939 744.679 524.8623 744.7908 524.8685 744.7889L524.9556 744.7692 524.8793 744.7665C524.9237 744.7716 524.6427 744.6964 524.7088 744.7226 524.7151 744.7314 524.3074 744.436 524.3585 744.4925 524.4275 744.5687 524.2731 744.3688 524.2742 744.3717L524.2973 744.4637 524.2885 744.7521C524.2866 744.7557 523.9154 745.2247 523.5609 745.4675 523.5774 745.4557 523.6843 745.4243 523.628 745.437 523.5946 745.4446 523.855 745.422 523.7836 745.4216 523.7076 745.4213 524.1849 745.5011 524.0712 745.4667 523.7973 745.4021 524.4377 745.6444 524.3241 745.5797 524.2266 745.5242 524.633 745.8188 524.5679 745.7583 524.459 745.6571 524.8142 746.081 524.7764 746.0157 524.7261 745.9289 524.8335 746.1391 524.8334 746.139L524.8182 746.04 524.823 745.1991C524.8369 745.1332 524.847 745.0666 524.8536 744.9996 524.8539 744.9962 524.9473 744.8322 525.1067 744.7374 525.2226 744.6629 525.1429 744.7103 525.1803 744.7057 525.2201 744.7028 524.7775 744.6665 524.8641 744.689 524.9916 744.722 524.505 744.4765 524.5705 744.5355 524.6322 744.591 524.4373 744.3438 524.4566 744.3861L524.3904 744.2108C524.4142 744.2897 524.3674 744.0384 524.3667 744.059L524.2083 744.4373 524.3825 744.1943 524.1358 744.4294 524.229 744.3589 524.292 744.3436C524.2315 744.3536 524.7586 744.3849 524.6066 744.3549 524.526 744.3391 524.9839 744.4889 524.8822 744.4435 524.7774 744.3967 525.3188 744.7333 525.2092 744.6448 525.1016 744.5472 525.7239 745.3106 525.6483 745.1695 525.5465 744.9796 525.4162 744.8063 525.2619 744.6558 525.145 744.5417 525.5559 745.0479 525.5049 744.9622 525.4572 744.8818 525.6122 745.1941 525.5956 745.1492 525.5719 745.0854 525.5453 745.0227 525.5158 744.9614 525.4747 744.8758 525.5589 745.0737 525.5581 745.0698L525.6026 745.5632 525.6102 745.4911 525.6125 745.4797C525.6413 745.3792 525.6636 745.2769 525.6795 745.1735L525.675 745.1932C525.6887 745.1403 525.7008 745.087 525.7111 745.0333L525.6907 745.1108C525.7806 744.8299 525.8216 744.5355 525.8118 744.2407 525.8112 744.2214 525.804 744.3912 525.8083 744.3414L525.746 744.7198C525.762 744.6544 525.6033 745.095 525.6538 744.9833L525.5574 745.1744C525.6244 745.0546 525.0813 745.7498 525.2362 745.5953 526.2228 744.6116 526.2251 743.0145 525.2415 742.028 524.2578 741.0414 522.6606 741.0391 521.6741 742.0227 521.6484 742.0483 521.6233 742.0745 521.5988 742.1012 521.3813 742.3375 521.2282 742.5776 521.1141 742.8015L521.2193 742.6151 520.9151 743.2385 521.0768 742.8879 520.8229 743.4459C520.722 743.7231 520.6695 744.0156 520.6677 744.3106L520.6893 744.7923C520.6943 744.8456 520.701 744.8988 520.7094 744.9517L520.7997 745.3956C520.8246 745.496 520.8558 745.5948 520.893 745.6914L521.0676 746.094 521.5568 746.8936 521.2998 746.4701C521.4375 746.7661 521.6149 747.0712 521.8823 747.3736 521.9271 747.4242 521.9742 747.4728 522.0234 747.5191 522.3364 747.8134 522.7735 748.1077 523.3518 748.2301 523.563 748.2748 523.7798 748.2868 523.9946 748.2657 524.3019 748.2356 524.6051 748.1436 524.8611 748.0127 525.8536 747.5616 526.1843 746.8501 526.4559 746.0886L526.6824 745.5134 526.5611 745.7858C526.9106 745.1885 527.2989 744.4578 527.022 743.452L527.0593 743.6362C526.9541 742.8398 526.3773 741.9237 525.3115 741.6962 524.9054 741.5955 524.3866 741.5691 523.8132 741.7318 522.7214 742.098 521.6421 742.9047 521.2511 744.3383 521.2334 744.4032 521.2192 744.4691 521.2088 744.5356 521.0949 745.2574 521.1307 745.9371 521.2565 746.5681 521.3695 747.0356 521.5073 747.4397 521.8113 747.8558 522.1321 748.295 522.799 748.8148 523.6288 748.791 524.6081 748.688 525.1318 748.2686 525.5648 747.8093 526.0992 747.2879 526.8817 746.4926 527.014 745.2241 527.0868 744.7096 526.9955 744.2446 526.9189 743.9179 526.8501 743.4738 526.7034 742.7385 525.8428 742.2787 525.3163 741.9301 524.7056 741.9758 524.3212 742.0127 523.4455 742.0807 522.3156 742.6907 521.9993 743.9428 521.8761 744.6333 521.9168 745.1477 521.9804 745.6271L522.3059 746.8597C522.4647 747.2789 522.6737 747.8166 523.3537 748.2052 523.4071 748.2357 523.4625 748.2628 523.5193 748.2864 524.1274 748.5378 524.6765 748.4066 524.9675 748.3039 526.13 747.8414 526.2773 747.0108 526.4187 746.3601 526.6054 745.6022 526.5626 744.864 526.4204 744.1953" fill="#ffb000"/>
</g>
</g>
</g>
</g>
</svg>
