<svg xmlns="http://www.w3.org/2000/svg" xmlns:xlink="http://www.w3.org/1999/xlink" xmlns:inkscape="http://www.inkscape.org/namespaces/inkscape" version="1.1" width="262.5" height="94.97046" viewBox="0 0 262.5 94.97046">
<defs>
<clipPath id="clip_0">
<path transform="matrix(1,0,0,-1,-197,779.7573)" d="M197 684.78689H459.5V779.7573H197Z" clip-rule="evenodd"/>
</clipPath>
<clipPath id="clip_1">
<path transform="matrix(1,0,0,-1,-197,779.7573)" d="M0 0H612V803.25H0Z"/>
</clipPath>
<clipPath id="clip_2">
<path transform="matrix(1,0,0,-1,-197,779.7573)" d="M0 0H612V803.25H0Z"/>
</clipPath>
<clipPath id="clip_3">
<path transform="matrix(1,0,0,-1,-197,779.7573)" d="M0 0H612V803.25H0Z"/>
</clipPath>
<clipPath id="clip_4">
<path transform="matrix(1,0,0,-1,-197,779.7573)" d="M0 0H612V803.25H0Z"/>
</clipPath>
<clipPath id="clip_5">
<path transform="matrix(1,0,0,-1,-197,779.7573)" d="M200.107 731.6983C199.7284 731.4739 199.2395 731.599 199.0152 731.9776 198.7908 732.3562 198.9159 732.845 199.2945 733.0694 224.3997 747.9462 249.7083 747.9462 275.0997 733.0714 275.4795 732.8489 275.607 732.3608 275.3845 731.981 275.162 731.6013 274.6739 731.4738 274.2941 731.6962 249.4013 746.2789 224.7124 746.2789 200.107 731.6983"/>
</clipPath>
<clipPath id="clip_6">
<path transform="matrix(1,0,0,-1,-197,779.7573)" d="M0 0H612V803.25H0Z"/>
</clipPath>
<clipPath id="clip_7">
<path transform="matrix(1,0,0,-1,-197,779.7573)" d="M0 0H612V803.25H0Z"/>
</clipPath>
<clipPath id="clip_8">
<path transform="matrix(1,0,0,-1,-197,779.7573)" d="M0 0H612V803.25H0Z"/>
</clipPath>
<clipPath id="clip_9">
<path transform="matrix(1,0,0,-1,-197,779.7573)" d="M0 0H612V803.25H0Z"/>
</clipPath>
</defs>
<g clip-path="url(#clip_0)">
<g clip-path="url(#clip_1)">
<g clip-path="url(#clip_2)">
<text xml:space="preserve" transform="matrix(.8471761 0 -0 .8471761 -181.0625 -23.492676)" font-size="12" font-family="HelveticaNeue"><tspan y="15.39398" x="0"> </tspan></text>
<text fill-opacity="0" xml:space="preserve" transform="matrix(.8471761 0 -0 .8471761 -181.0625 -23.492676)" font-size="61" font-family=".SFUI"><tspan y="118.1247" x="230.7156">1</tspan></text>
<text fill-opacity="0" xml:space="preserve" transform="matrix(.8471761 0 -0 .8471761 -181.0625 -23.492676)" font-size="29" font-family=".SFUI"><tspan y="91.32192" x="338.7563 355.19639 370.44749 385.69859">deep</tspan></text>
<text fill-opacity="0" xml:space="preserve" transform="matrix(.8471761 0 -0 .8471761 -181.0625 -23.492676)" font-size="12" font-family=".SFUI"><tspan y="78.23891" x="456.781">a</tspan></text>
<g clip-path="url(#clip_3)">
<path transform="matrix(1,0,0,-1,-197,779.7573)" d="M370.4426 689.4221C370.1985 689.0559 369.7037 688.9569 369.3375 689.2011 368.9713 689.4452 368.8724 689.94 369.1165 690.3061L425.8095 775.3456C426.0536 775.7117 426.5483 775.8107 426.9145 775.5666 427.2807 775.3224 427.3797 774.8277 427.1355 774.4615ZM425.7165 774.6515C425.5774 775.0691 425.803 775.5203 426.2205 775.6595 426.638 775.7987 427.0893 775.573 427.2285 775.1555L455.575 690.1161C455.7141 689.6986 455.4885 689.2473 455.071 689.1081 454.6535 688.969 454.2022 689.1946 454.063 689.6121ZM369.7796 689.0672C369.3395 689.0672 368.9827 689.424 368.9827 689.8641 368.9827 690.3042 369.3395 690.661 369.7796 690.661H454.819C455.2591 690.661 455.6159 690.3042 455.6159 689.8641 455.6159 689.424 455.2591 689.0672 454.819 689.0672Z"/>
<path transform="matrix(1,0,0,-1,-197,779.7573)" d="M275.494 732.3838C275.494 718.2286 267.8355 705.862 256.4358 699.2021 250.755 695.8832 244.1453 693.9811 237.0913 693.9811 222.9361 693.9811 210.5695 701.6396 203.9095 713.0393 200.5907 718.7201 198.6886 725.3298 198.6886 732.3838 198.6886 746.539 206.347 758.9056 217.7468 765.5656 223.4276 768.8844 230.0373 770.7865 237.0913 770.7865 251.2465 770.7865 263.6131 763.1281 270.273 751.7283 273.5919 746.0475 275.494 739.4378 275.494 732.3838M273.9002 732.3838C273.9002 739.1445 272.0778 745.4796 268.8969 750.9243 262.5132 761.8513 250.6596 769.1928 237.0913 769.1928 230.3306 769.1928 223.9955 767.3704 218.5508 764.1895 207.6238 757.8057 200.2823 745.9522 200.2823 732.3838 200.2823 725.6231 202.1048 719.288 205.2857 713.8433 211.6694 702.9163 223.5229 695.5749 237.0913 695.5749 243.852 695.5749 250.1871 697.3973 255.6318 700.5782 266.5588 706.9619 273.9002 718.8155 273.9002 732.3838M199.2679 731.7147C198.8984 731.9538 198.7926 732.4471 199.0317 732.8167 199.2707 733.1862 199.7641 733.2919 200.1336 733.0529 224.8689 717.0508 249.5288 717.0508 274.2641 733.0529 274.6336 733.2919 275.1269 733.1862 275.366 732.8167 275.6051 732.4471 275.4993 731.9538 275.1298 731.7147 249.8676 715.3719 224.53 715.3719 199.2679 731.7147" fill="#969696"/>
</g>
<g clip-path="url(#clip_4)">
<path transform="matrix(1,0,0,-1,-197,779.7573)" d="M437.1233 734.474C435.9529 735.6444 435.9529 737.5421 437.1233 738.7125 438.2938 739.883 440.1914 739.883 441.3619 738.7125 442.5323 737.5421 442.5323 735.6444 441.3619 734.474 440.1914 733.3035 438.2938 733.3035 437.1233 734.474M430.5545 752.8602C430.4189 753.0147 430.3574 753.2206 430.3862 753.4241L430.5165 753.7603C430.6324 753.9341 430.8144 754.0528 431.0202 754.0888 431.4089 754.157 431.6841 754.0445 431.9382 753.9345 431.9875 753.9131 432.0346 753.8869 432.0788 753.8563L432.449 753.5664 433.06 753.0035 433.4649 752.6764 434.0345 752.3087 434.5251 752.0151 434.7372 751.8325 434.8239 751.774 434.8756 751.7355C434.887 751.7277 434.7372 751.8038 434.7892 751.7818 434.8325 751.7635 434.4871 751.834 434.5845 751.8287 434.662 751.8244 434.2072 751.7422 434.3076 751.7826 434.3838 751.8133 434.0473 751.5992 434.1033 751.6519 434.1845 751.7285 433.9299 751.3862 433.9544 751.4419 433.977 751.4932 433.9127 751.3085 433.9181 751.3322 433.9354 751.4066 433.905 751.1789 433.9045 751.2035L433.8918 751.3121C433.8835 751.5101 433.8747 751.821 433.9403 752.2067 434.0289 752.6426 434.1904 753.0898 434.4243 753.5888L434.867 754.4065 435.0195 754.6726 435.6692 755.5009C435.8852 755.7861 436.2915 755.8422 436.5767 755.6262 436.8019 755.4558 436.8906 755.1591 436.7961 754.893L436.4515 753.9864 436.2358 753.6039 435.8525 752.9048 435.4437 751.8891 435.3061 751.2253C435.3013 751.2021 435.3721 751.0696 435.1239 750.7566 435.0177 750.6253 434.7604 750.4484 434.4669 750.4916 434.0576 750.5519 434.0188 750.748 433.9817 750.8012L433.9292 750.8814 433.8349 751.0523 433.8514 751.0059 433.4167 751.291 432.7915 751.5725 432.2029 751.892 431.5555 752.3185 431.3193 752.431C431.2693 752.4505 431.2213 752.475 431.176 752.504L431.0439 752.5782C431.0218 752.588 431.1371 752.5699 431.0805 752.5752 430.8725 752.5948 430.6815 752.6987 430.5545 752.8602M444.4272 712.1064C444.2986 711.8112 443.9552 711.6761 443.66 711.8047 443.496 711.8761 443.3738 712.0189 443.3287 712.192L443.2952 712.6539 443.3518 713.1156C443.3801 713.2781 443.4606 713.4269 443.5811 713.5394L443.6792 713.6374 443.5012 713.2724 443.6261 714.0004 443.9489 715.1605 444.2286 716.0119 444.4861 716.7596 444.6296 717.2943 444.7029 717.6031C444.7191 717.6778 444.7454 717.7501 444.781 717.8178L444.9237 718.0655 445.1439 718.2885C445.2709 718.3767 445.4696 718.5391 445.8558 718.3583 445.9184 718.329 445.9761 718.2903 446.0269 718.2435 446.287 718.0038 446.2826 717.9116 446.3523 717.6213 446.3702 717.5468 446.3779 717.4703 446.3752 717.3937L446.3342 716.9673 446.2023 716.2756 445.9776 715.4616 445.6183 714.5847 445.1425 713.522 444.7396 712.8204 444.8386 713.2142 444.8505 713.0721C444.8693 712.9083 444.8341 712.7428 444.7503 712.6009L444.4896 712.2012ZM445.9916 717.2383C445.7057 717.0091 445.2882 717.0551 445.059 717.3409 444.8713 717.575 444.8641 717.9059 445.0413 718.148 445.2888 718.4858 445.7425 718.4578 445.9295 718.3863L446.3207 718.1414C446.4818 718.0742 446.5663 717.9302 446.6463 717.8637L447.0801 717.5972 448.0155 717.1743 448.5742 716.9794C448.6288 716.9619 448.6819 716.94 448.733 716.9139L449.1844 716.6924 449.2893 716.6639C449.6113 716.5534 449.8545 716.286 449.9341 715.955 449.9611 715.8431 450.0396 715.806 449.9367 715.438 449.9247 715.395 449.9092 715.3531 449.8905 715.3126 449.737 714.9811 449.6671 715.0068 449.5808 714.9391 449.313 714.729 448.9563 714.6702 448.6352 714.7835L448.4216 714.8585 447.9607 714.9738C447.9056 714.9899 447.852 715.0105 447.8003 715.0353L447.1751 715.3528C446.7758 715.587 446.3765 715.8311 446.0282 716.1638L445.4682 716.8874 445.2879 717.2528 445.3527 717.1672C445.3268 717.182 445.6377 717.0951 445.5328 717.1091 445.4759 717.1168 445.828 717.1382 445.7455 717.1193 445.6608 717.0999 446.0634 717.2959 445.9916 717.2383M449.1946 714.8402C448.7432 714.8145 448.3564 715.1595 448.3307 715.6109 448.3049 716.0623 448.65 716.4491 449.1014 716.4748 449.3294 716.4878 449.5525 716.4049 449.7168 716.2462 449.8463 716.1211 450.0184 715.9972 450.0658 715.6351 450.1096 715.3009 449.9014 714.9852 449.5769 714.8939Z" fill="#dc267f"/>
<path transform="matrix(1,0,0,-1,-197,779.7573)" d="M410.18 687.7448C409.0096 688.9153 409.0096 690.8129 410.18 691.9834 411.3504 693.1538 413.2481 693.1538 414.4185 691.9834 415.589 690.8129 415.589 688.9153 414.4185 687.7448 413.2481 686.5744 411.3504 686.5744 410.18 687.7448M394.6191 693.1277C394.9225 693.0697 395.1215 692.7767 395.0635 692.4733 395.0434 692.3678 394.9933 692.2704 394.9192 692.1926 394.7527 692.0177 394.5852 691.9953 394.4758 691.9809L394.6743 692.0431 394.545 691.9878C394.2728 691.8908 393.9692 691.9854 393.8003 692.2198L393.6957 692.3852 394.0178 692.1126 394.0402 692.1075C394.0221 692.1106 394.2262 692.1134 394.1584 692.1055 393.8516 692.0696 393.5737 692.2893 393.5379 692.5961 393.502 692.9029 393.7216 693.1807 394.0284 693.2166L394.2307 693.2098 394.365 693.176 393.9442 693.146 394.0973 693.2069C394.3675 693.3092 394.6729 693.2206 394.8464 692.9895L394.8688 692.9606 394.7125 693.098C394.7207 693.093 394.5193 693.1467 394.6191 693.1277M393.1926 692.6546C393.2093 693.1398 393.6161 693.5196 394.1013 693.503 394.2945 693.4964 394.4801 693.4262 394.6295 693.3034 394.6922 693.2519 394.5752 693.3424 394.6045 693.3257L395.3108 692.9143 395.9605 692.4524 396.8312 691.6577C396.8847 691.6094 396.9335 691.5561 396.9768 691.4985L397.3543 691.0204C397.4184 690.946 397.4712 690.8625 397.5109 690.7727L397.5752 690.6309 397.402 690.8803 397.6605 690.6974 397.7497 690.6788C397.8703 690.6402 397.8779 690.8337 398.1962 690.401 398.2503 690.3276 398.2873 690.243 398.3045 690.1534 398.3987 689.6656 398.1978 689.6524 398.1265 689.5764L397.951 689.4318C397.7151 689.297 397.475 689.2413 397.1933 689.2623 397.0327 689.2616 396.7454 689.2851 396.4186 689.4199L396.7152 689.3532 396.4399 689.3829C396.3428 689.3985 396.2486 689.4283 396.1603 689.4714L395.4554 689.8855C395.3953 689.9254 395.3392 689.971 395.2878 690.0216L394.5524 690.7618 394.0063 691.3155 393.5826 691.7641C393.445 691.9199 393.1709 692.0207 393.1926 692.6546M398.2836 690.1536C398.3371 689.8426 398.1283 689.5472 397.8173 689.4937 397.5063 689.4403 397.2108 689.6491 397.1574 689.9601 397.1568 689.9639 397.1561 689.9676 397.1556 689.9714 397.1401 690.074 397.2945 689.6735 397.2539 689.7298 397.1887 689.8203 397.438 689.5681 397.4055 689.588 397.3299 689.6344 397.4663 689.5556 397.4114 689.5793L397.8576 689.576 397.7791 689.537 397.3335 689.0866 396.997 688.3258 396.841 688.0182 396.7364 687.8047C396.7016 687.7312 396.6589 687.6617 396.6091 687.5974L396.329 687.2216 396.3097 687.1616C396.1075 686.7606 395.6774 686.5275 395.231 686.577L394.9251 686.654C394.8838 686.6713 394.8438 686.6914 394.8053 686.7142L394.5404 686.9378C394.2447 687.2759 394.1903 687.7621 394.4039 688.1571L394.5287 688.3808 394.7024 688.7782C394.7379 688.8517 394.7812 688.921 394.8316 688.9851L395.015 689.2127 395.2075 689.439C395.6133 689.8237 395.9508 690.0929 396.3032 690.2894 396.6005 690.536 396.992 690.7984 397.5098 690.7536 397.7275 690.7227 398.0003 690.7482 398.1705 690.3096L397.8595 690.6293 397.9267 690.6019C397.9896 690.5733 398.2133 690.5631 398.2836 690.1536M394.3911 687.369C394.3383 687.8481 394.6838 688.2794 395.1629 688.3322 395.6421 688.3851 396.0733 688.0396 396.1262 687.5604 396.1628 687.229 396.0073 686.9056 395.7256 686.7273L395.5251 686.6141C395.1402 686.4283 394.6776 686.5898 394.4919 686.9747 394.4777 687.0041 394.4654 687.0344 394.455 687.0653ZM433.4232 692.4338C433.4758 692.6682 433.7085 692.8155 433.943 692.7629 434.1774 692.7102 434.3247 692.4775 434.272 692.2431L434.2033 692.056C434.09 691.8441 433.8265 691.764 433.6146 691.8773 433.4027 691.9905 433.3227 692.254 433.4359 692.4659ZM433.4116 692.7685C433.7262 692.9687 434.1435 692.876 434.3437 692.5614 434.4796 692.3478 434.4846 692.0761 434.3566 691.8576L434.2178 691.6725 433.5153 691.1309 432.9515 690.6919 432.1571 690.0504 431.266 689.4106 431.1574 689.3249C431.1865 689.3825 431.2151 689.536 431.2075 689.4707 431.199 689.397 431.109 689.8376 431.1551 689.7495L431.0585 689.8864C431.1146 689.8258 430.898 690.0041 430.926 689.9894L431.0322 689.9605 431.5239 689.8049 432.2135 689.5254 433.1002 689.099 433.3615 688.9521 433.5628 688.8481 433.8115 688.7094C433.8691 688.6769 433.9232 688.6385 433.973 688.5949L434.3561 688.2423 434.466 688.1627 434.6518 688.0014C435.003 687.676 435.0238 687.1276 434.6985 686.7765 434.3935 686.4474 433.8878 686.4054 433.5328 686.6797L433.4119 686.7678 433.2579 686.8706 432.9475 687.0045C432.8872 687.0317 432.8299 687.0652 432.7766 687.1042L432.5782 687.248 432.3529 687.4191 432.1625 687.5546 431.4217 688.1338 430.9055 688.47 430.4544 688.7539C430.3723 688.8017 430.1122 688.8269 429.9844 689.2868L430.05 689.1331C429.8851 689.4108 429.9542 689.7296 430.0063 689.8671 430.0589 690.0862 430.2117 690.2478 430.3582 690.4051L431.175 691.1734 431.9862 691.8726 432.6504 692.3746 433.3839 692.7572ZM434.0972 686.5759C433.7243 686.6259 433.4625 686.9687 433.5124 687.3417 433.5624 687.7146 433.9052 687.9764 434.2782 687.9264 434.5846 687.8854 434.8249 687.6432 434.8636 687.3364L434.8569 687.0325C434.7994 686.7353 434.525 686.5309 434.2239 686.5608Z" fill="#ffb000"/>
<path transform="matrix(1,0,0,-1,-197,779.7573)" d="M383.3445 711.2712C382.1741 712.4417 382.1741 714.3393 383.3445 715.5098 384.515 716.6802 386.4126 716.6802 387.5831 715.5098 388.7535 714.3393 388.7535 712.4417 387.5831 711.2712 386.4126 710.1008 384.515 710.1008 383.3445 711.2712M403.6818 744.2038C403.4869 744.1889 403.3035 744.2979 403.2237 744.4764L403.2294 744.465C403.2227 744.4779 403.3935 744.2687 403.3084 744.3569 403.1107 744.5618 403.1165 744.8882 403.3214 745.0859 403.5263 745.2836 403.8527 745.2778 404.0505 745.0729 404.2482 744.868 404.2424 744.5416 404.0375 744.3439 403.8713 744.1836 403.6189 744.1532 403.4195 744.2696 403.3446 744.3133 403.5842 744.2081 403.5546 744.2152 403.4764 744.2338 403.6996 744.2052 403.6818 744.2038M404.0347 745.432C404.1382 745.3858 404.2288 745.3148 404.2982 745.2252L404.4767 744.9185C404.5382 744.7742 404.5552 744.6149 404.5253 744.4609L404.4633 743.7695 404.407 743.2443 404.3435 742.1867 404.2923 741.6221 404.2487 741.3199 404.2442 741.2929C404.2431 741.2748 404.1959 741.5509 404.2235 741.4558L403.7944 741.9085C403.8762 741.8799 403.4544 741.9405 403.5377 741.9449 403.6141 741.949 403.3025 741.8914 403.3495 741.9079 403.4291 741.9357 403.2089 741.8396 403.2252 741.8496L403.414 741.9754C403.8691 742.188 404.293 742.2906 404.8029 742.4114L405.6884 742.5806 406.7591 742.6733C406.8992 742.6838 407.0399 742.6652 407.1726 742.6189L407.5241 742.4963 407.3189 742.5429 407.9759 742.4503C408.3807 742.3712 408.6448 741.9788 408.5656 741.574 408.5129 741.3043 408.3165 741.0854 408.0541 741.0039L407.4391 740.842 407.6357 740.917 407.2998 740.7424C407.1747 740.6785 407.0377 740.6412 406.8975 740.6326L405.9431 740.5666 405.0846 740.5374 403.9239 740.4541C403.6989 740.4562 403.5614 740.4477 403.3376 740.5524 403.2128 740.6107 403.0238 740.7165 402.9236 740.9969 402.816 741.2978 402.9908 741.6322 403.0423 741.6955L402.9142 741.0853C402.7828 741.5617 402.9288 741.6283 402.9415 741.7575L402.9837 742.2769 403.0292 743.3471 403.0251 743.8323 402.9749 744.5236C402.9576 744.6795 402.9873 744.8369 403.0603 744.9757 403.0946 745.041 403.0333 744.9219 403.0668 745.004L403.2016 745.2311C403.3016 745.3502 403.5445 745.6504 404.0347 745.432M374.9553 702.4008C374.7042 702.5761 374.6429 702.9218 374.8182 703.1728 374.8709 703.2483 374.9416 703.3094 375.0238 703.3508L374.8936 703.2275 375.3494 703.5536 375.8645 703.6574C375.9183 703.6654 375.9726 703.6687 376.027 703.6673L376.7801 703.6912 377.6765 703.7833 378.3234 703.8686 378.4488 703.8952C378.5716 703.9166 378.6973 703.915 378.8196 703.8907L379.3778 703.706 379.1578 703.7781 379.5555 703.6697C379.755 703.582 380.1239 703.1728 380.0402 702.7928L379.7904 703.4778C380.1401 703.2095 380.0863 702.8836 380.0662 702.7474L380.0034 702.4979 379.8876 702.1765 379.9204 702.3371 379.9172 701.6896 379.9426 700.3961 379.9732 700.0741 380.0147 699.8105C380.0389 699.6762 380.0354 699.5384 380.0043 699.4056L379.953 699.1551 379.965 699.3493 380.003 698.8969C380.0174 698.7909 380.0105 698.6832 379.9826 698.5799L379.9125 698.3612C379.7911 698.0579 379.4705 697.8843 379.15 697.9483 378.962 697.9859 378.8345 698.0676 378.725 698.1508 378.6399 698.2154 378.5686 698.2964 378.5153 698.389L378.2417 699.0226 378.3239 698.8463 378.1398 699.1776C378.0776 699.2991 378.041 699.4319 378.0322 699.568L378.0166 699.947 378.008 700.2849C378.0129 700.8774 378.0724 701.399 378.1694 701.849 378.2932 702.2532 378.4067 702.5535 378.5914 702.8193L378.5136 702.6751 378.688 703.0524 378.7476 703.1535C378.7519 703.1623 378.703 703.0075 378.7172 703.0654 378.7251 703.0977 378.6998 702.8677 378.7004 702.9285 378.7009 702.993 378.7816 702.5972 378.7454 702.6884L379.3359 702.2609C379.2343 702.267 379.6071 702.3014 379.5602 702.2872 379.4899 702.2658 379.6421 702.3192 379.6399 702.3181L379.3265 702.1665 379.5267 702.2827 379.1447 702.0324C379.0379 701.968 378.9202 701.9239 378.7974 701.9023L378.6863 701.8799 378.0412 701.6954 376.8124 701.648 375.7843 701.7914C375.7314 701.8039 375.6796 701.8209 375.6296 701.8423L375.1025 702.1559C374.8839 702.3795 374.8058 702.6001 374.8004 702.6168 374.7622 702.819 374.9996 702.3698 374.9553 702.4008" fill="#19b091"/>
<path transform="matrix(1,0,0,-1,-197,779.7573)" d="M424.3532 772.7843C423.1828 773.9547 423.1828 775.8524 424.3532 777.0228 425.5237 778.1932 427.4213 778.1932 428.5918 777.0228 429.7622 775.8524 429.7622 773.9547 428.5918 772.7843 427.4213 771.6138 425.5237 771.6138 424.3532 772.7843" fill="#648fff"/>
<path transform="matrix(1,0,0,-1,-197,779.7573)" d="M367.6603 687.7448C366.4898 688.9153 366.4898 690.8129 367.6603 691.9834 368.8307 693.1538 370.7284 693.1538 371.8988 691.9834 373.0693 690.8129 373.0693 688.9153 371.8988 687.7448 370.7284 686.5744 368.8307 686.5744 367.6603 687.7448" fill="#648fff"/>
<path transform="matrix(1,0,0,-1,-197,779.7573)" d="M452.6997 687.7448C451.5293 688.9153 451.5293 690.8129 452.6997 691.9834 453.8701 693.1538 455.7678 693.1538 456.9383 691.9834 458.1087 690.8129 458.1087 688.9153 456.9383 687.7448 455.7678 686.5744 453.8701 686.5744 452.6997 687.7448" fill="#648fff"/>
</g>
<g clip-path="url(#clip_5)">
<g clip-path="url(#clip_6)">
<path transform="matrix(1,0,0,-1,-197,779.7573)" d="M200.107 731.6983C200.9637 732.2059 201.8205 732.6959 202.6773 733.1682L201.908 734.564C201.0366 734.0837 200.1654 733.5855 199.2945 733.0694ZM203.9792 733.8721C204.8581 734.3381 205.737 734.7855 206.6161 735.2142L205.9173 736.6467C205.0222 736.21 204.1272 735.7545 203.2326 735.2802ZM207.9517 735.8514C208.8524 736.2713 209.7531 736.6718 210.6538 737.0527L210.0331 738.5206C209.1145 738.1322 208.1962 737.7239 207.2782 737.2958ZM212.0205 737.6156C212.9416 737.9849 213.8628 738.3338 214.7841 738.6622L214.2488 740.1634C213.3081 739.828 212.3676 739.4718 211.4275 739.0949ZM216.1803 739.1444C217.12 739.4584 218.0598 739.7512 218.9997 740.0228L218.5573 741.5539C217.5963 741.2762 216.6356 740.9769 215.6752 740.656ZM220.4214 740.4174C221.3773 740.6719 222.3333 740.9044 223.2895 741.115L222.9467 742.6714C221.968 742.4559 220.9896 742.2179 220.0115 741.9576ZM224.7339 741.4164C225.7026 741.6074 226.6714 741.7759 227.6404 741.9219L227.403 743.4979C226.4102 743.3483 225.4178 743.1757 224.4256 742.9801ZM229.1013 742.125C230.0788 742.2495 231.0566 742.3512 232.0345 742.4299L231.9066 744.0185C230.9041 743.9378 229.9019 743.8336 228.8999 743.706ZM233.5055 742.5312C234.4876 742.5873 235.4699 742.6203 236.4524 742.6303L236.4362 744.2239C235.4288 744.2137 234.4216 744.1798 233.4147 744.1223ZM237.9268 742.628C238.9087 742.6149 239.891 742.5789 240.8734 742.5198L240.9691 744.1107C239.9618 744.1712 238.9548 744.2082 237.9479 744.2216ZM242.3442 742.4142C243.3216 742.3326 244.2992 742.2283 245.277 742.1012L245.4825 743.6816C244.4804 743.8119 243.4785 743.9188 242.4768 744.0024ZM246.7376 741.8944C247.7059 741.7461 248.6746 741.5755 249.6435 741.3826L249.9547 742.9457C248.9626 743.1432 247.9706 743.3179 246.9788 743.4698ZM251.0869 741.0788C252.0424 740.8668 252.9982 740.6331 253.9543 740.3777L254.3657 741.9174C253.3877 742.1787 252.4098 742.4178 251.4321 742.6347ZM255.3767 739.9817C256.3164 739.7097 257.2563 739.4166 258.1966 739.1026L258.7014 740.6143C257.7408 740.9351 256.7804 741.2345 255.82 741.5126ZM259.5933 738.6209C260.5147 738.2929 261.4364 737.9449 262.3584 737.5767L262.9494 739.0569C262.0087 739.4325 261.0681 739.7876 260.1276 740.1224ZM263.7263 737.0159C264.6278 736.6365 265.5296 736.238 266.4317 735.8202L267.1014 737.2664C266.1823 737.6921 265.2633 738.0982 264.3444 738.4849ZM267.7688 735.187C268.6494 734.7608 269.5303 734.3162 270.4116 733.8533L271.1527 735.2642C270.2561 735.7352 269.3596 736.1877 268.4631 736.6216ZM271.7165 733.1545C272.5754 732.6858 273.4346 732.1997 274.2941 731.6962L275.0997 733.0714C274.2264 733.583 273.3531 734.0771 272.4799 734.5536Z" fill="#969696"/>
</g>
</g>
<g clip-path="url(#clip_7)">
<path transform="matrix(1,0,0,-1,-197,779.7573)" d="M234.3491 758.4602C233.1786 759.6306 233.1786 761.5283 234.3491 762.6987 235.5195 763.8691 237.4172 763.8691 238.5876 762.6987 239.7581 761.5283 239.7581 759.6306 238.5876 758.4602 237.4172 757.2897 235.5195 757.2897 234.3491 758.4602" fill="#648fff"/>
<path transform="matrix(1,0,0,-1,-197,779.7573)" d="M206.2188 739.7747C205.0483 740.9451 205.0483 742.8428 206.2188 744.0132 207.3892 745.1836 209.2869 745.1836 210.4573 744.0132 211.6278 742.8428 211.6278 740.9451 210.4573 739.7747 209.2869 738.6042 207.3892 738.6042 206.2188 739.7747" fill="#19b091"/>
<path transform="matrix(1,0,0,-1,-197,779.7573)" d="M235.0796 704.5923C233.9091 705.7628 233.9091 707.6604 235.0796 708.8309 236.25 710.0013 238.1477 710.0013 239.3181 708.8309 240.4885 707.6604 240.4885 705.7628 239.3181 704.5923 238.1477 703.4219 236.25 703.4219 235.0796 704.5923" fill="#ffb000"/>
<path transform="matrix(1,0,0,-1,-197,779.7573)" d="M258.123 727.2843C256.9525 728.4548 256.9525 730.3524 258.123 731.5229 259.2934 732.6933 261.1911 732.6933 262.3615 731.5229 263.532 730.3524 263.532 728.4548 262.3615 727.2843 261.1911 726.1139 259.2934 726.1139 258.123 727.2843" fill="#dc267f"/>
</g>
<g clip-path="url(#clip_8)">
<path transform="matrix(1,0,0,-1,-197,779.7573)" d="M209.163 742.0038C208.904 741.6479 208.4056 741.5693 208.0498 741.8283 207.6939 742.0872 207.6153 742.5856 207.8742 742.9415 207.9217 743.0067 207.8207 742.856 207.8239 742.862L207.8588 742.935 207.9562 743.1437 208.0896 743.4209 208.1716 743.5759 208.2836 743.7896 208.408 743.9726 208.5648 744.1942C208.79 744.4973 209.0575 744.8315 209.4343 745.1277L210.1137 745.5708 210.4638 745.7405 210.7455 745.8602 210.9416 745.9574 211.1735 746.0859 211.4059 746.2035 211.6132 746.2951 211.8128 746.37 211.9632 746.4195 212.0753 746.451 212.294 746.5056 212.8504 746.6377 213.7264 746.8609 214.0841 746.9615 214.2477 747.0101 214.9698 747.2607 216.0814 747.5703 216.6924 747.7108 216.8376 747.7625C217.0104 747.8431 217.2802 748.0737 217.7263 748.2865 218.2388 748.531 218.7554 748.6402 219.1383 748.7762 219.5215 748.9123 219.8422 749.1153 220.26 749.351L221.5842 750.0444 221.9762 750.3071 222.0963 750.441 222.1826 750.5476 222.394 750.8729 222.6969 751.2768 222.8974 751.5159 223.1196 751.7697 223.323 751.9708 223.34 751.9878 223.4181 752.0672 223.5151 752.1722 223.7503 752.4253 223.8856 752.5836 224.0479 752.757 224.2222 752.9611 224.3246 753.0906 224.4209 753.2294 224.6506 753.6642 224.835 753.9976 225.0378 754.3032 225.2074 754.5428 225.3621 754.783 225.6048 755.1512 225.8004 755.4087 225.9463 755.5849 226.1072 755.7592 226.3138 755.9814 226.4516 756.125 226.6932 756.4033 226.8195 756.5376 226.9863 756.7157 227.6136 757.3333 227.8743 757.5873 228.1045 757.8151 228.1747 757.9001 228.4037 758.1738 228.9497 758.7122 229.2159 758.9287 229.5292 759.1743 229.6589 759.2671 229.8658 759.4087 230.3172 759.6559 230.52 759.7572 230.6783 759.8395 230.8278 759.9322 230.9326 760.0073 231.2342 760.2083 231.4173 760.3234 231.7376 760.4937 231.9802 760.6006 232.1263 760.6678 232.5848 760.8296 232.8103 760.8948 233.0612 760.9421 233.4292 761.0034 233.655 761.028 233.7812 761.0459 233.9419 761.0849 234.117 761.1369 234.3095 761.206C234.6044 761.31 234.9539 761.3839 235.3431 761.3832 235.7832 761.3824 236.1393 761.0249 236.1385 760.5848 236.1377 760.1447 235.7802 759.7886 235.3401 759.7894L234.8399 759.7031 234.6476 759.6341 234.3487 759.5439 234.0688 759.4783 233.8102 759.4419 233.7014 759.4331 233.3165 759.3689 233.1993 759.3492 233.0513 759.3057 232.7567 759.204 232.6018 759.1331 232.4427 759.0644 232.2332 758.9544 232.104 758.8729 231.8757 758.7225 231.685 758.5886 231.4609 758.4511 231.251 758.341 231.0356 758.2332 230.7117 758.0579 230.5841 757.9695 230.4683 757.8866 230.2016 757.6763 229.9937 757.508 229.6083 757.1303 229.3967 756.877 229.2774 756.7361 228.9946 756.4537 228.7142 756.1806 228.1424 755.6186 227.9802 755.4454 227.8777 755.337 227.662 755.0882 227.4821 754.8973 227.2646 754.6635 227.1468 754.5367 227.0473 754.416 226.9084 754.2343 226.7103 753.9331 226.5137 753.6297 226.3486 753.3966 226.2001 753.1751 226.0722 752.9438 225.7555 752.3582 225.623 752.1664 225.4633 751.9612 225.2305 751.6886 225.0971 751.5481 224.9313 751.3551 224.6925 751.098 224.5609 750.9563 224.4662 750.8601 224.4106 750.8059 224.2793 750.6764 224.1 750.4701 223.9324 750.2701 223.7222 749.9921 223.4595 749.5938 223.3339 749.4369 223.0525 749.1316 222.3402 748.6414 221.0431 747.9628C220.6639 747.7489 220.2423 747.4771 219.6719 747.2744L218.4125 746.8481C218.1841 746.7391 217.9366 746.5164 217.5109 746.318L217.1263 746.1773 216.4545 746.0208 215.4747 745.749 214.7245 745.4893 214.5368 745.4334 214.136 745.3206 213.2217 745.0878 212.6682 744.9564 212.4687 744.9065 212.4581 744.9045 212.3409 744.8663 212.2058 744.8156 212.1007 744.7692 211.9427 744.6901 211.6672 744.5384 211.4059 744.4097 211.1076 744.2826 210.8777 744.1721 210.4193 743.8748C210.2074 743.7082 210.0377 743.5043 209.8443 743.2439L209.7056 743.0473 209.6683 743.0003 209.5683 742.8082 209.5108 742.6996 209.3989 742.4665 209.3012 742.2571ZM235.8059 758.7753C235.6836 759.1981 235.9271 759.64 236.3498 759.7623 236.7726 759.8846 237.2145 759.6411 237.3368 759.2184L237.5863 758.5616 237.7352 758.1316 237.8003 757.9354 237.8572 757.6912 237.9137 757.4672 237.973 757.1162 238.0007 756.9993 238.059 756.5418 238.0793 755.937 238.0777 755.1937C238.036 754.5456 237.8295 754.0289 237.6773 753.6226L237.3155 752.8563 236.7715 751.9467 236.375 751.4654 236.2131 751.2864 236.0823 751.1302 235.9478 750.9848 235.8916 750.9096 235.685 750.6344C235.4252 750.2632 235.2168 749.7689 234.9058 749.1687 234.6208 748.6186 234.273 748.1875 234.0006 747.7771L233.4316 746.7715 232.6511 745.124C232.4912 744.7029 232.3756 744.1756 232.2422 743.595L231.9806 742.3473 231.8241 740.799 231.8162 739.5579 231.8716 738.406 232.1034 737.1582 232.2331 736.651 232.3631 736.175 232.5058 735.4033 232.6456 734.7549C232.7263 734.4668 232.8858 734.1816 233.0835 733.7644L233.5257 732.7057 233.7837 732.0571 234.3201 730.8949 234.8885 729.3673 235.3041 728.2693 235.4577 727.7565 235.6241 727.1012 235.8206 726.5518 236.1831 725.6286 236.3697 725.1113 236.7326 724.0336 237.2402 722.291 237.5583 720.9127 237.7431 719.758 238.0221 717.9019 238.1399 716.7762 238.157 716.3361 238.1655 716.0327 238.1741 714.7533V713.6488L238.1648 712.8982 238.1219 712.3186 238.1031 711.934 238.0339 711.1888 238.0346 710.7899 238.043 710.1333 238.0431 709.8195 238.0422 709.5432 238.0135 709.217 237.9304 708.5203 237.7245 707.3277C237.6489 706.8941 237.2362 706.6039 236.8026 706.6795 236.369 706.7551 236.0788 707.1678 236.1544 707.6014L236.35 708.7261 236.4286 709.3846 236.4502 709.6191 236.4493 709.8195V710.1206L236.4411 710.7606 236.4418 711.261 236.512 712.0257 236.5322 712.4315 236.573 712.9773 236.5804 713.6488V714.757L236.5723 715.9916 236.564 716.2864 236.5477 716.7079 236.4536 717.6192 236.1693 719.5067 235.9859 720.6526 235.7073 721.855 235.2111 723.5591 234.8712 724.5686 234.6897 725.0721 234.3495 725.9389 234.0887 726.6737 233.9205 727.336 233.7953 727.756 233.3855 728.8372 232.8663 730.2418 232.3096 731.4512 232.0433 732.1203 231.6434 733.0818C231.4712 733.4449 231.2525 733.8195 231.1109 734.325L230.9383 735.1154 230.8133 735.8035 230.698 736.2227 230.5488 736.8072 230.2898 738.2113 230.2225 739.5523 230.2314 740.8585 230.4095 742.6147 230.6889 743.952C230.8207 744.5254 230.9435 745.1163 231.1611 745.6897 231.3851 746.2798 231.6875 746.8662 232.0148 747.5014L232.6727 748.6584C232.9878 749.1331 233.2939 749.5219 233.4907 749.9019 233.7699 750.4407 233.9946 750.9985 234.3791 751.5481L234.6465 751.9045 234.8025 752.0931 234.8632 752.1568 235.0277 752.3518 235.1838 752.5242 235.4734 752.8712 235.9109 753.6095 236.1849 754.1818C236.3371 754.5881 236.4634 754.9256 236.4872 755.296L236.4856 755.9415 236.4724 756.3907 236.4248 756.7613 236.38 757.0666C236.3774 757.1497 236.3867 756.9947 236.3843 757.0071L236.3668 757.0838 236.3006 757.3493 236.2738 757.4774 236.2162 757.6493 236.0974 757.9932ZM237.9004 759.738C237.6063 759.4106 237.1024 759.3836 236.775 759.6777 236.4476 759.9718 236.4206 760.4756 236.7147 760.803 236.9337 761.0468 237.1944 761.1666 237.4271 761.2264 237.6752 761.2901 237.8791 761.2752 238.0241 761.2697L238.5337 761.27 239.7315 761.2017 240.4951 761.0342C240.8276 760.9224 241.0699 760.7668 241.2552 760.657L242.4022 760.0905C242.7233 759.9233 243.0417 759.7255 243.3217 759.4598 243.7533 759.0501 243.9433 758.6391 244.1326 758.393L245.0117 757.4342 245.4081 756.9362 245.9325 756.0715C246.2344 755.5441 246.5338 755.1213 246.7647 754.5857L247.0807 753.6906 247.2499 753.1742 247.3982 752.7855C247.5496 752.4239 247.7845 752.1044 248.0548 751.6672L248.4954 750.8636 248.8383 750.1124 249.2056 749.3554 249.7442 748.276 250.3379 747.1447C250.618 746.6933 250.9736 746.3125 251.3372 745.8416 251.6483 745.4387 251.8805 745.0241 252.0817 744.6534 252.3709 744.1206 252.5989 743.7688 252.9328 743.4706L253.8147 742.862 254.5009 742.5058C254.9614 742.2428 255.2298 741.9278 255.4836 741.7236 255.6869 741.5601 256.0016 741.394 256.3818 741.223L257 740.9623C257.568 740.7129 257.9829 740.4019 258.3276 740.1172L259.1724 739.5258 259.8615 738.9905 260.3433 738.5297 260.7597 738.1133 260.9479 737.8926 261.1018 737.7046 261.1886 737.6025 261.7507 736.9188 262.4681 735.8111 262.9289 735.1077 263.0542 734.8621 263.2446 734.3675 263.3091 734.1626 263.3546 733.9257 263.3794 733.771 263.4116 733.5422 263.4326 733.151C263.4362 732.9766 263.4774 732.7095 263.4237 732.3561L263.2771 731.8592 263.1541 731.5805 263.0515 731.4023 262.922 731.2027 262.7516 730.9402 262.5681 730.7262 262.1979 730.4393C261.8159 730.2207 261.329 730.3532 261.1105 730.7351 260.8919 731.1171 261.0243 731.604 261.4063 731.8226L261.4207 731.8324 261.4659 731.8819 261.5913 732.0797 261.6905 732.2315 261.7495 732.3334 261.7995 732.4565 261.848 732.5953 261.8392 733.1181 261.8267 733.3753 261.8032 733.535 261.7778 733.6939 261.7674 733.7587 261.726 733.8838 261.604 734.201 261.5509 734.3069 261.1138 734.9711 260.4815 735.9548 259.973 736.5718 259.8645 736.6999 259.7171 736.8801 259.593 737.0276 259.2176 737.4015 258.8181 737.7857 258.2635 738.2166 257.3126 738.8884C257.0108 739.1377 256.7541 739.3296 256.3591 739.5031L255.728 739.7695C255.2983 739.9628 254.8685 740.173 254.4846 740.4818L253.7106 741.1218 253.0415 741.4684C252.6179 741.7034 252.2224 741.9682 251.8711 742.282 251.3447 742.7521 251.0021 743.3014 250.6809 743.8932L250.0757 744.8676C249.7662 745.2685 249.3571 745.7026 248.9837 746.3043L248.3114 747.5781 247.7792 748.6445 247.3879 749.4518 247.0672 750.1562 246.6992 750.8291C246.4669 751.2048 246.1635 751.6077 245.928 752.1703L245.7472 752.6433 245.5651 753.1976 245.3011 753.9548 244.5493 755.2798 244.1089 756.013 243.8194 756.3767 242.8692 757.4215C242.5624 757.8205 242.4178 758.1203 242.2245 758.3038L241.666 758.677 240.4428 759.2859 239.9871 759.5235 239.5404 759.6195 238.4906 759.6768 237.963 759.6771 237.8236 759.6827C237.8158 759.6807 237.9452 759.7879 237.9004 759.738M314.5032 732.5479C314.2582 732.1823 313.7632 732.0846 313.3976 732.3296 313.032 732.5746 312.9342 733.0696 313.1793 733.4352 313.5488 733.9866 314.0902 734.3699 314.7177 734.6554 315.0146 734.7905 315.412 734.9675 315.948 735.1188 316.4673 735.2654 317.065 735.3802 317.6762 735.4626L318.5822 735.5447C319.1794 735.581 319.7484 735.612 320.3807 735.5587L321.5462 735.3932 323.0362 735.0857C323.5107 734.9604 323.9043 734.7869 324.26 734.6365L325.1324 734.2685 326.1465 733.9084 326.999 733.5709C327.5424 733.3376 327.943 733.0577 328.2664 732.8778L328.7241 732.6425 329.3485 732.4319 330.2003 732.2126 331.4855 731.8871 332.664 731.496 333.3612 731.3238 334.4632 731.1945 335.4816 731.1786 336.4 731.3817 337.5862 731.7769 339.2544 732.3335C339.8525 732.5375 340.3442 732.7723 340.6428 732.9217L341.0763 733.0756C341.4993 733.1974 341.9408 732.9533 342.0626 732.5304 342.1844 732.1075 341.9403 731.6659 341.5174 731.5441L341.356 731.4964C341.0257 731.3311 340.467 731.0632 339.7689 730.825L338.1192 730.2749 336.8436 729.8509C336.4596 729.7396 336.0567 729.6237 335.6017 729.5894L334.362 729.604 333.0754 729.7559 332.2075 729.969 331.0709 730.3482 329.8208 730.6647 328.8955 730.9039 328.0852 731.1824 327.4913 731.4852 326.3701 732.1065 325.6004 732.4111 324.5357 732.7907 323.6392 733.1686 322.6294 733.5448 321.2663 733.8242 320.2469 733.9705C319.7407 734.0132 319.2629 733.9894 318.6788 733.9539L317.8892 733.8832 316.381 733.585 315.3778 733.2047C314.9031 732.9888 314.6882 732.824 314.5032 732.5479M342.4799 734.9112C342.051 735.0097 341.7831 735.4372 341.8816 735.8662 341.9801 736.2951 342.4077 736.563 342.8366 736.4645 343.3064 736.3566 343.6675 736.1098 344.3223 735.7395L345.3033 735.175 346.3531 734.4863 347.4551 733.7299 347.7826 733.5682 347.8957 733.5057C347.9581 733.4654 348.2807 733.4806 348.2667 732.8131 348.261 732.5378 348.0849 732.2958 347.9526 732.1948 347.589 731.9173 347.5522 732.0336 347.5134 732.0307L347.46 732.0276C347.3759 732.0233 347.5576 732.0412 347.555 732.0405L347.1817 731.8845C346.8736 731.7405 346.3907 731.4013 345.8931 730.9418 345.0737 730.1853 344.4509 728.9352 344.4625 728.8518 344.523 728.4159 344.2186 728.0135 343.7826 727.9531 343.3467 727.8926 342.9443 728.197 342.8839 728.6329 342.6914 730.0211 343.7893 731.1687 344.8119 732.1128 345.3968 732.6528 345.9646 733.0749 346.5069 733.3283 346.8089 733.4695 346.9464 733.5969 347.3778 733.6193L347.3922 733.6198 347.3463 733.6146C347.3703 733.6181 347.1691 733.569 347.2287 733.5876 347.257 733.5965 347.0797 733.5251 347.1228 733.5459 347.1655 733.5664 346.9094 733.4006 346.9689 733.4485 347.0275 733.4959 346.7301 733.1452 346.7869 733.2396 346.8417 733.3309 346.6651 732.8008 346.678 732.9172 346.6899 733.0253 346.7239 732.537 346.7009 732.6215 346.6601 732.7719 346.9034 732.2654 346.855 732.324 346.779 732.4159 347.0439 732.1575 347.0118 732.1797 346.9341 732.2335 347.0928 732.1314 347.0881 732.1337L346.5676 732.4061 345.4606 733.1659 344.4804 733.8101 343.5376 734.3523ZM310.6977 751.8615C310.5021 751.681 310.1976 751.6919 310.0154 751.8858L310.0778 751.8314C310.0456 751.8546 310.4145 751.721 310.2725 751.7484 309.9937 751.8021 309.8112 752.0716 309.8649 752.3504 309.9186 752.6292 310.1882 752.8116 310.467 752.7579 310.7457 752.7042 310.9282 752.4347 310.8745 752.1559 310.8339 751.9451 310.6665 751.7817 310.4547 751.7462 310.3171 751.7231 310.6702 751.8366 310.6401 751.8172ZM310.7076 751.8344C310.5474 751.715 310.3363 751.6888 310.1517 751.7652 310.1232 751.7771 310.4222 751.7152 310.3132 751.7255 309.995 751.7555 309.7614 752.0377 309.7914 752.3559 309.8214 752.6741 310.1036 752.9077 310.4218 752.8777 310.7399 752.8477 310.9736 752.5655 310.9436 752.2473 310.9209 752.0062 310.7504 751.8048 310.5164 751.7424 310.3953 751.7102 310.7445 751.8619 310.7076 751.8344M309.9017 752.852C310.1791 753.1099 310.6132 753.0942 310.8712 752.8167 310.9651 752.7157 311.0264 752.5888 311.047 752.4524L311.0805 752.3099 311.1615 751.4239 311.3702 749.7425 311.4459 749.0912 311.6152 746.9487 311.6497 745.9779 311.6402 745.3574 311.6435 745.1107 311.6229 745.2242C311.6425 745.1763 311.3716 745.496 311.4595 745.431 311.7285 745.2322 311.7854 744.8528 311.5865 744.5838 311.4738 744.4313 311.2962 744.3404 311.1066 744.3382 310.8271 744.3349 310.5447 744.5678 310.4437 744.727 310.3463 744.8271 310.2659 745.0599 310.2267 745.3352L310.1487 745.8602 310.0111 746.7853 309.7179 748.8794 309.6491 749.5332 309.5215 751.3374C309.5338 751.8151 309.5663 752.1301 309.6422 752.3898 309.67 752.4712 309.6284 752.5978 309.9017 752.852M311.6354 744.8528C311.5713 744.5668 311.2875 744.3869 311.0015 744.451 310.7155 744.5151 310.5356 744.7989 310.5997 745.0849 310.6097 745.1297 310.6256 745.1731 310.6468 745.2138 310.6858 745.2888 310.626 745.1659 310.626 745.1661 310.6334 745.2293 310.5778 745.4495 310.4017 745.7638L309.9634 746.3462 309.3445 746.7928 308.8587 747.0239 308.4263 747.0414C308.1361 747.0231 307.9263 746.9556 307.8338 746.8886L307.5997 746.6011 307.4753 746.0861C307.4393 745.7591 307.492 745.4113 307.6071 745.1741 307.625 745.1493 307.7618 745.0271 307.9637 744.9321L308.5548 744.7214 308.6938 744.7127C308.8477 744.7073 308.9992 744.673 309.1403 744.6115L309.2917 744.5545 309.0718 744.6012 309.4392 744.6007 309.5363 744.6274C309.7306 744.6869 309.938 744.6885 310.1332 744.632L310.2672 744.6051 310.0433 744.6088 310.3456 744.6513 311.0312 744.8536C311.3694 744.939 311.7128 744.734 311.7982 744.3958 311.8683 744.1184 311.7431 743.8286 311.4931 743.6894L310.8839 743.3085 310.7436 743.1547 310.8803 743.3321 310.7348 743.0841C310.629 742.9106 310.475 742.7717 310.2914 742.6844L309.857 742.5149 309.0766 742.3457 309.2963 742.3934 308.9131 742.2898C308.7626 742.2569 308.6073 742.2527 308.4553 742.2772L308.0562 742.3611C307.685 742.4422 307.2327 742.5912 306.8004 742.8822 306.2642 743.3185 305.8587 743.819 305.6853 744.452 305.4661 745.0556 305.4586 745.7557 305.6008 746.3901 305.6885 746.7657 305.8229 747.1129 306.0132 747.4237 306.2456 747.807 306.5894 748.1513 307.0308 748.3321 307.6244 748.5256 308.1128 748.4627 308.5356 748.3641 308.7832 748.3062 309.0645 748.2233 309.3313 748.0611L309.941 747.6249 310.6237 746.8914 311.1597 746.2286C311.4163 745.873 311.6043 745.5596 311.6532 745.197ZM312.9286 745.4407C312.6598 745.5706 312.5472 745.8938 312.677 746.1626 312.758 746.3302 312.9196 746.4444 313.1046 746.4648L313.3708 746.477 313.816 746.4888 314.3054 746.526 314.9823 746.611C315.0416 746.6256 315.1025 746.6328 315.1636 746.6324L315.3106 746.636 315.8968 746.9481 316.2621 747.1981 316.4859 747.4285C316.4761 747.4164 316.4758 747.2792 316.4684 747.2971 316.4954 747.2333 316.6615 747.061 316.6356 747.0795 316.573 747.1241 316.6804 747.0499 316.6075 747.086L316.2975 747.1808 315.4847 747.3182 315.1629 747.2984 314.9369 747.2087C314.6883 747.069 314.4203 746.8488 314.2234 746.5678L313.9873 746.1065C313.907 745.9002 313.8738 745.6264 313.8964 745.3009L313.9252 745.0282C313.9706 744.9334 314.2122 744.7091 314.5165 744.5473 314.7203 744.4521 314.9383 744.4102 315.2065 744.4197 315.5003 744.4225 315.7335 744.437 316.0194 744.5174 316.0875 744.5366 316.1578 744.5474 316.2285 744.5496L316.8225 744.6178 316.9938 744.6865C317.3367 744.8223 317.7248 744.6545 317.8607 744.3116 317.9737 744.0265 317.878 743.7011 317.6287 743.5226L317.2857 743.3067 316.6995 742.9288C316.6386 742.8928 316.5735 742.8642 316.5056 742.8439 316.0283 742.7008 315.6035 742.6677 315.265 742.6572 314.7208 742.6547 314.1957 742.7731 313.7188 743.0165 313.2309 743.2355 312.6373 743.6038 312.2761 744.2803 312.1404 744.4949 312.0452 744.7869 311.9981 745.086 311.9501 745.6729 311.9723 746.2202 312.1804 746.7584 312.355 747.1507 312.5564 747.4463 312.7726 747.697 313.1964 748.1941 313.6963 748.5288 314.1776 748.7196 314.5375 748.8446 314.8481 748.8565 315.0816 748.8372L315.7264 748.711 316.6231 748.4258C316.8626 748.3361 317.0943 748.2271 317.2899 748.0276 317.3285 747.9845 317.4803 747.9361 317.5336 747.5966 317.6062 747.4643 317.5719 747.123 317.4618 746.8917 317.408 746.7234 317.2698 746.5156 317.0885 746.3184L316.6184 745.8964C316.3379 745.681 316.0032 745.4485 315.5862 745.2963L315.4986 745.238C315.4444 745.2099 315.3868 745.1886 315.3273 745.1747L314.4022 745.0632 313.7186 745.1509 313.1091 745.3339ZM319.4275 748.3171C319.4779 748.2928 319.525 748.2621 319.5676 748.2258L319.6719 748.1154C319.7073 748.0705 319.737 748.0215 319.7604 747.9693L319.7918 747.9296 319.983 747.6373 320.4434 746.8045 321.0522 745.3912 321.1736 744.9432 321.3145 744.5639C321.3458 744.4779 321.3633 744.3875 321.3665 744.296L321.372 744.1031 321.3343 744.326 321.3632 744.2459C321.3757 744.2253 321.1621 744.4099 321.2333 744.3677L321.0317 744.4145 321.3298 744.6376 322.0516 745.2667 322.7584 746.1203C322.968 746.446 323.1474 746.8296 323.2701 747.1902L323.4674 747.7133 323.4757 747.777C323.5261 748.083 323.815 748.2903 324.1211 748.2399 324.3941 748.195 324.5937 747.958 324.5915 747.6814L324.5847 747.5467C324.661 747.2166 324.528 747.1226 324.4502 746.832 324.3044 746.3525 324.1007 745.8795 323.837 745.4413 323.5974 745.0343 323.3184 744.6711 323.0313 744.3543L322.1283 743.5641C321.9001 743.3946 321.6747 743.2282 321.3736 743.1255 321.2556 743.0581 321.0023 743.0149 320.7972 743.0351 320.4389 743.0452 320.0806 743.3507 319.8893 743.6552L320.0356 743.4824 319.8313 743.6918C319.7713 743.761 319.7225 743.8392 319.6868 743.9236L319.4956 744.3895 319.3764 744.5946 318.8149 746.0195 318.4813 746.9474C318.3937 747.3178 318.1323 747.6765 318.64 748.1787 318.6806 748.2189 318.7261 748.2539 318.7753 748.283 318.9296 748.374 319.1227 748.464 319.4275 748.3171M327.7848 746.2028C327.7848 745.8886 327.5302 745.6339 327.216 745.6339 326.9018 745.6339 326.6471 745.8886 326.6471 746.2028 326.6471 746.517 326.9018 746.7716 327.216 746.7716 327.5302 746.7716 327.7848 746.517 327.7848 746.2028M327.0818 746.7474C327.2155 746.7929 327.3631 746.7697 327.4763 746.6853L327.4184 746.7205C327.4455 746.7071 327.1922 746.7742 327.281 746.7618 327.55 746.7244 327.7378 746.4758 327.7003 746.2068 327.6628 745.9377 327.4143 745.75 327.1452 745.7875 326.8761 745.825 326.6884 746.0735 326.7259 746.3425 326.7585 746.5763 326.9525 746.754 327.1882 746.7659 327.304 746.7718 327.0745 746.745 327.0818 746.7474M327.0181 745.6695C326.7236 745.7788 326.5734 746.1061 326.6827 746.4007 326.792 746.6952 327.1193 746.8454 327.4139 746.7361 327.7084 746.6268 327.8586 746.2995 327.7493 746.0049 327.7103 745.8999 327.6412 745.8087 327.5506 745.7428L327.4985 745.7075C327.4405 745.672 327.376 745.6483 327.3088 745.6379ZM326.6496 745.76C326.4985 746.1381 326.6826 746.5672 327.0607 746.7183 327.0769 746.7247 327.0933 746.7306 327.1099 746.7359 327.1878 746.7608 327.0268 746.7016 327.0443 746.711L327.1727 746.7761C327.2247 746.8004 327.279 746.8192 327.3348 746.8323L327.7006 746.8959 328.3002 746.9594 328.5666 747.0483C328.7009 747.1082 328.8475 747.1355 328.9943 747.1279L329.1055 747.1243 328.9006 747.1031C329.0972 747.1476 329.2429 747.2427 329.3381 747.3397L329.275 747.2901 329.279 747.3135 329.2557 747.2898 329.2057 747.2611 328.9524 747.3085 328.6531 747.3315 328.1635 747.209 327.8459 746.9793 327.5505 746.6624 327.3371 746.1826C327.2353 745.77 327.2199 745.259 327.3297 744.8865 327.3893 744.6536 327.4722 744.4979 327.5853 744.3785 327.7189 744.2279 327.8888 744.1137 328.1273 744.0436 328.3488 743.9871 328.7266 743.9854 329.129 744.0549L329.5346 744.2072 330.5519 744.5364 330.9623 744.6792C331.0469 744.7079 331.1358 744.722 331.2252 744.7207L331.6926 744.7225C332.0219 744.7304 332.2953 744.4697 332.3031 744.1404 332.3073 743.964 332.2332 743.7949 332.1009 743.6784L331.7436 743.3591C331.6777 743.2987 331.602 743.2501 331.5197 743.2152L331.0832 743.0276 330.5066 742.6709C330.1135 742.4511 329.7893 742.3183 329.4201 742.2621 328.822 742.1785 328.212 742.1736 327.6257 742.3483 327.1197 742.48 326.6385 742.7535 326.2747 743.1376 325.9169 743.5422 325.7141 743.997 325.6162 744.4495 325.4713 745.2684 325.6027 746.0278 325.8449 746.6642 325.9638 746.995 326.1407 747.3218 326.3857 747.5994L326.9428 748.1036C327.1073 748.2341 327.3152 748.3895 327.5831 748.5037 327.9411 748.6588 328.3017 748.7244 328.6297 748.7224L329.1326 748.6626 329.7234 748.3751 330.1157 747.9268C330.1545 747.9183 330.268 747.7605 330.3355 747.5702L330.4093 747.3519C330.4434 747.1179 330.4206 746.9075 330.3504 746.7086 330.337 746.4177 330.0894 745.9417 329.6181 745.5782L329.7649 745.7224 329.6308 745.5665C329.5311 745.4584 329.4071 745.3753 329.2691 745.3243L328.5903 745.1526 327.8595 745.1231 327.378 745.1923C327.3215 745.2025 327.2662 745.2185 327.213 745.24 327.0825 745.2927 326.7974 745.39 326.6496 745.76M335.8427 750.8469C335.6191 750.922 335.4989 751.1642 335.574 751.3877 335.5838 751.4166 335.5966 751.4444 335.6122 751.4706 335.6839 751.5907 335.7839 751.6608 335.8942 751.7027 336.1433 751.7971 336.4218 751.6718 336.5163 751.4227 336.5311 751.3837 336.5407 751.3431 336.545 751.3017L336.5375 751.1517C336.5205 751.0702 336.4824 750.9946 336.4271 750.9324L336.3989 750.9032C336.2065 750.7189 335.9011 750.7255 335.7168 750.918 335.6881 750.9479 335.6634 750.9815 335.6433 751.0178 335.5861 751.121 335.9203 750.8207 335.8427 750.8469M335.5454 751.4692C335.6954 751.7722 336.0626 751.8963 336.3656 751.7464 336.5352 751.6624 336.6565 751.5047 336.6941 751.3192 336.74 751.0924 336.6836 750.9632 336.643 750.8596 336.5216 750.5153 336.3363 750.345 336.1325 749.9696L335.8522 749.3488 335.3672 747.8326 335.1023 746.6891 335.0701 745.9368 335.0794 745.3301 335.1405 745.2226 335.2249 745.1107 335.4468 744.9752 335.8116 744.9157 336.4862 744.9968C337.0237 745.0992 337.6092 745.3167 337.908 745.4647 338.176 745.5974 338.5008 745.4877 338.6335 745.2198 338.73 745.0249 338.7005 744.7911 338.5587 744.6263 338.1958 744.2047 337.5963 743.8459 336.9501 743.5546L336.0327 743.2254 335.2373 743.1307C334.7889 743.1503 334.4178 743.2802 334.124 743.4415 333.8359 743.6144 333.5662 743.8426 333.3633 744.165 333.2411 744.3828 333.1174 744.6196 333.0516 744.9379 332.9738 745.2603 332.9639 745.5931 332.9663 745.9096L333.1531 747.0894 333.6216 748.4194C333.8694 748.9992 334.1367 749.5713 334.4365 750.0661L334.9007 750.769C335.2154 751.2023 335.5218 751.4654 335.5857 751.5326 335.5857 751.5332 335.5104 751.3985 335.5454 751.4692M342.9118 747.971C343.1282 747.8828 343.2322 747.6359 343.144 747.4195 343.0972 747.3044 343.0021 747.2157 342.884 747.177L342.6758 747.1158C342.4049 747.0456 342.1284 747.2082 342.0581 747.4791 341.9879 747.75 342.1506 748.0265 342.4214 748.0967 342.584 748.1389 342.7569 748.0978 342.883 747.9869ZM342.6596 748.1857C342.9714 748.0914 343.1477 747.7622 343.0534 747.4505 342.9642 747.1557 342.6634 746.9792 342.3626 747.0451L342.1069 747.1021 342.0382 747.0974 341.9816 747.0795C341.7761 747.0483 341.9535 747.1235 341.883 747.0856 341.708 747.015 341.8398 747.0667 341.7662 747.0162 341.6637 746.9257 341.5424 746.7758 341.4686 746.4959L341.4055 746.0757 341.3893 745.3749C341.3945 744.9804 341.4555 744.6366 341.5634 744.4381L341.7757 744.2038 342.0828 744.1256C342.3085 744.0839 342.5379 744.0884 342.7644 744.1433L343.1744 744.4078 343.4865 744.7861 343.6626 745.2121 343.7636 745.6371 343.7554 746.1028 343.6032 746.525 343.4403 746.7874 343.4022 746.8322 343.2981 746.9698 343.4916 746.9073C343.2234 746.932 342.9788 747.0708 342.8201 747.2883L342.877 747.2248 343.3228 747.0088C343.2233 747.0245 343.6789 747.1276 343.616 747.0786 343.276 746.8141 342.786 746.8752 342.5215 747.2151 342.3232 747.4699 342.3024 747.8205 342.4692 748.097 342.6285 748.361 342.91 748.5912 343.2436 748.6769L342.8202 748.4195 343.0929 748.6444C343.3235 748.7836 343.6029 748.8169 343.8599 748.7359L344.1575 748.6059C344.3468 748.5394 344.5953 748.336 344.7927 748.0912L345.0115 747.6892 345.2037 747.0644C345.2549 746.7599 345.2799 746.4476 345.2429 746.1241L345.0774 745.351 344.7763 744.7063 344.2972 744.1352C344.1966 743.9947 344.0256 743.7865 343.7915 743.6104 343.5937 743.4529 343.3499 743.2847 343.0523 743.1787 342.7657 743.0383 342.4023 742.9455 342.0367 742.9311 341.7298 742.9399 341.4606 742.984 341.2008 743.0969 340.9163 743.2051 340.6259 743.4107 340.4112 743.6935 340.0594 744.1909 339.9398 744.7419 339.8802 745.2306L339.9015 746.2087 340.0583 746.9241C340.2642 747.5111 340.647 747.9142 341.0058 748.1497L341.2701 748.3231C341.685 748.4482 341.9009 748.371 341.9175 748.3692L342.1665 748.3224 342.408 748.2636ZM349.4126 747.6794C349.706 747.5909 349.872 747.2813 349.7834 746.9879 349.7483 746.8714 349.6758 746.7697 349.5771 746.6985 349.5041 746.6457 349.7438 746.9238 349.721 746.8735 349.6913 746.8076 349.7458 746.9573 349.7446 746.9415L349.7449 746.7992 349.7885 745.7769 349.8431 744.5892 349.9699 743.7209 350.0253 742.9968 350.0563 742.7729 350.0844 742.4896C350.0936 742.3858 350.0831 742.2812 350.0535 742.1812L349.9733 741.9318 350.0117 742.1103 349.9586 741.6509 349.853 741.1227 349.7919 740.7661C349.7891 740.7165 349.8232 740.5342 349.5554 740.2971 349.328 740.0958 348.9805 740.1169 348.7792 740.3443 348.5779 740.5717 348.599 740.9192 348.8264 741.1205 348.8436 741.1357 348.8617 741.1498 348.8806 741.1628 348.9379 741.2019 348.7472 741.021 348.7679 741.0513 348.8186 741.1257 348.7385 740.9933 348.752 741.0512L348.7356 741.2654 348.6601 741.6056 348.5639 742.0024 348.6281 741.832 348.5203 742.0409C348.473 742.1339 348.4437 742.2351 348.4339 742.3391L348.4088 742.5824 348.3785 742.8477 348.2594 743.3787 348.1847 744.526 348.2413 745.7654C348.271 746.2227 348.2989 746.6069 348.3928 746.9523 348.4656 747.1659 348.5402 747.3335 348.6953 747.4857 348.8583 747.6456 349.1786 747.7501 349.4126 747.6794M349.7361 740.6083C349.7211 740.5232 349.687 740.4427 349.6364 740.3727 349.2701 739.8659 349.006 740.1342 348.8754 740.197L348.6161 740.4008C348.5702 740.4545 348.5336 740.5155 348.5076 740.5813L348.403 741.0493 348.303 741.4622 348.1785 742.0688 348.131 742.6176 348.04 743.0658 347.9578 744.1834C347.9685 744.7562 348.0171 745.3371 348.1536 745.9317L348.4346 746.9628C348.5857 747.3828 348.7539 747.7586 349.0562 748.0923 349.4739 748.5657 350.1447 748.6636 350.5316 748.6394L351.1828 748.5529 351.3784 748.5069C351.4587 748.4844 351.5362 748.4529 351.6093 748.4128L352.1852 748.0296C352.3103 747.9336 352.4114 747.8101 352.4807 747.6685L352.5583 747.5011 352.3949 747.7532C352.62 747.5059 352.8303 747.2473 352.9686 746.9531L352.8818 747.0902C353.0966 746.8294 353.2771 746.5291 353.3462 746.1923 353.3856 746.1365 353.4581 745.9222 353.4433 745.6671L353.3807 745.9548 353.4922 745.5514C353.4975 745.4732 353.4886 745.3946 353.4661 745.3194L353.3013 744.9536 353.3673 745.1025C353.2575 744.7454 353.0462 744.4317 352.8144 744.1287L352.5973 743.8909 352.4252 743.718 352.262 743.5575 352.0062 743.3488 351.8169 743.2057C351.7401 743.1491 351.6561 743.1029 351.5672 743.0684L351.1052 742.9131 351.2949 742.9869 351.0941 742.8904 350.8574 742.8006C350.3324 742.6292 349.7678 742.9159 349.5964 743.441 349.4324 743.9435 349.6878 744.4868 350.1793 744.6812L350.2499 744.7126 350.3778 744.7743 350.207 744.6632 350.4655 744.8816C350.5371 744.9447 350.6167 744.9979 350.7023 745.04L350.8617 745.1216 351.0292 745.2134 351.2823 745.3363 351.4453 745.4211 351.6154 745.5139 352.3511 745.885 352.224 745.783 352.2978 745.8692C352.3414 745.9345 352.3963 745.9914 352.46 746.0372L352.4748 746.0474 352.3553 745.7785 352.3274 745.9101 352.0176 746.1321 352.1629 746.0598 351.4886 746.2352 351.7882 746.211 351.6376 746.1996C351.4805 746.1881 351.3228 746.2131 351.1769 746.2726L350.8309 746.3925C350.7499 746.4119 350.6715 746.4404 350.597 746.4775L350.529 746.5081 350.2747 746.5339 350.2009 746.5578C350.1399 746.5526 350.4889 746.6996 350.4299 746.6511L350.1975 746.247 349.9337 745.481C349.828 745.0671 349.7751 744.6081 349.7541 744.1632L349.6997 743.1613 349.6229 742.5637 349.6487 742.2473 349.6684 741.6067 349.6839 741.1473 349.706 741.0217C349.7288 740.955 349.7403 740.8849 349.7402 740.8143 349.7402 740.7965 349.7975 740.9566 349.7361 740.6083M349.7374 744.1355C349.9693 744.5172 350.4669 744.6387 350.8486 744.4067 351.2304 744.1748 351.3518 743.6772 351.1199 743.2955 350.8879 742.9137 350.3904 742.7923 350.0086 743.0242 350.0028 743.0278 349.9971 743.0314 349.9913 743.035 349.857 743.1213 349.6482 743.1391 349.6051 743.641 349.6 743.7001 349.6022 743.7596 349.6118 743.8182 349.6646 744.141 349.7061 744.084 349.7374 744.1355"/>
</g>
<g clip-path="url(#clip_9)">
<path transform="matrix(1,0,0,-1,-197,779.7573)" d="M234.3491 758.4602C233.1786 759.6306 233.1786 761.5283 234.3491 762.6987 235.5195 763.8691 237.4172 763.8691 238.5876 762.6987 239.7581 761.5283 239.7581 759.6306 238.5876 758.4602 237.4172 757.2897 235.5195 757.2897 234.3491 758.4602" fill="#648fff"/>
<path transform="matrix(1,0,0,-1,-197,779.7573)" d="M206.2188 739.7747C205.0483 740.9451 205.0483 742.8428 206.2188 744.0132 207.3892 745.1836 209.2869 745.1836 210.4573 744.0132 211.6278 742.8428 211.6278 740.9451 210.4573 739.7747 209.2869 738.6042 207.3892 738.6042 206.2188 739.7747" fill="#19b091"/>
<path transform="matrix(1,0,0,-1,-197,779.7573)" d="M235.0796 704.5923C233.9091 705.7628 233.9091 707.6604 235.0796 708.8309 236.25 710.0013 238.1477 710.0013 239.3181 708.8309 240.4885 707.6604 240.4885 705.7628 239.3181 704.5923 238.1477 703.4219 236.25 703.4219 235.0796 704.5923" fill="#ffb000"/>
<path transform="matrix(1,0,0,-1,-197,779.7573)" d="M258.123 727.2843C256.9525 728.4548 256.9525 730.3524 258.123 731.5229 259.2934 732.6933 261.1911 732.6933 262.3615 731.5229 263.532 730.3524 263.532 728.4548 262.3615 727.2843 261.1911 726.1139 259.2934 726.1139 258.123 727.2843" fill="#dc267f"/>
</g>
</g>
</g>
</g>
</svg>
