<svg xmlns="http://www.w3.org/2000/svg" xmlns:xlink="http://www.w3.org/1999/xlink" xmlns:inkscape="http://www.inkscape.org/namespaces/inkscape" version="1.1" width="439.5" height="165.94837" viewBox="0 0 439.5 165.94837">
<defs>
<clipPath id="clip_54">
<path transform="matrix(1,0,0,-1,-96,794.2528)" d="M96 628.30447H535.5V794.2528H96Z" clip-rule="evenodd"/>
</clipPath>
<clipPath id="clip_55">
<path transform="matrix(1,0,0,-1,-96,794.2528)" d="M0 0H612V803.25H0Z"/>
</clipPath>
<clipPath id="clip_56">
<path transform="matrix(1,0,0,-1,-96,794.2528)" d="M0 0H612V803.25H0Z"/>
</clipPath>
<clipPath id="clip_57">
<path transform="matrix(1,0,0,-1,-96,794.2528)" d="M0 0H612V803.25H0Z"/>
</clipPath>
<clipPath id="clip_58">
<path transform="matrix(1,0,0,-1,-96,794.2528)" d="M0 0H612V803.25H0Z"/>
</clipPath>
<clipPath id="clip_59">
<path transform="matrix(1,0,0,-1,-96,794.2528)" d="M0 0H612V803.25H0Z"/>
</clipPath>
<clipPath id="clip_60">
<path transform="matrix(1,0,0,-1,-96,794.2528)" d="M0 0H612V803.25H0Z"/>
</clipPath>
<clipPath id="clip_61">
<path transform="matrix(1,0,0,-1,-96,794.2528)" d="M0 0H612V803.25H0Z"/>
</clipPath>
<clipPath id="clip_62">
<path transform="matrix(1,0,0,-1,-96,794.2528)" d="M0 0H612V803.25H0Z"/>
</clipPath>
</defs>
<g clip-path="url(#clip_54)">
<g clip-path="url(#clip_55)">
<g clip-path="url(#clip_56)">
<text xml:space="preserve" transform="matrix(20.33223 0 -0 20.33223 157.6929 141.12079)" font-size="1" font-family="cmr10"><tspan y="-.906" x="0">v</tspan></text>
<text xml:space="preserve" transform="matrix(20.33223 0 -0 20.33223 168.42389 141.12079)" font-size="1" font-family="cmr10"><tspan y="-.906" x="0">s</tspan></text>
<text xml:space="preserve" transform="matrix(20.33223 0 -0 20.33223 176.44379 141.12079)" font-size="1" font-family="cmmi10" font-style="italic"><tspan y="-.906" x="0">:</tspan></text>
<g clip-path="url(#clip_57)">
<path transform="matrix(1,0,0,-1,-96,794.2528)" d="M101.1511 632.7291C100.907 632.363 100.4122 632.264 100.0461 632.5081 99.67986 632.7523 99.58091 633.247 99.82504 633.6132L156.518 718.6526C156.7621 719.0188 157.2569 719.1177 157.623 718.8736 157.9892 718.6295 158.0882 718.1347 157.8441 717.7686ZM156.425 717.9586C156.2859 718.3761 156.5115 718.8274 156.929 718.9666 157.3465 719.1057 157.7978 718.8801 157.937 718.4626L186.2835 633.4232C186.4226 633.0056 186.197 632.5544 185.7795 632.4152 185.362 632.276 184.9107 632.5017 184.7715 632.9192ZM100.4881 632.3743C100.048 632.3743 99.6912 632.7311 99.6912 633.1712 99.6912 633.6113 100.048 633.968 100.4881 633.968H185.5275C185.9676 633.968 186.3244 633.6113 186.3244 633.1712 186.3244 632.7311 185.9676 632.3743 185.5275 632.3743ZM427.1355 632.7291C426.8914 632.363 426.3967 632.264 426.0305 632.5081 425.6643 632.7523 425.5653 633.247 425.8095 633.6132L530.1674 790.1501C530.4115 790.5163 530.9063 790.6152 531.2725 790.3711 531.6386 790.127 531.7376 789.6322 531.4935 789.266ZM341.9408 632.5569C341.6015 632.2766 341.0992 632.3243 340.8189 632.6635 340.5385 633.0027 340.5862 633.505 340.9254 633.7854L530.3228 790.3223C530.662 790.6027 531.1643 790.5549 531.4447 790.2157 531.725 789.8765 531.6773 789.3742 531.3381 789.0938Z"/>
</g>
<g clip-path="url(#clip_58)">
<path transform="matrix(1,0,0,-1,-96,794.2528)" d="M165.0402 686.1558C163.8698 687.3263 163.8698 689.2239 165.0402 690.3944 166.2107 691.5648 168.1083 691.5648 169.2788 690.3944 170.4492 689.2239 170.4492 687.3263 169.2788 686.1558 168.1083 684.9854 166.2107 684.9854 165.0402 686.1558" fill="#dc267f"/>
<path transform="matrix(1,0,0,-1,-96,794.2528)" d="M140.8885 631.0519C139.7181 632.2223 139.7181 634.12 140.8885 635.2904 142.059 636.4609 143.9566 636.4609 145.1271 635.2904 146.2975 634.12 146.2975 632.2223 145.1271 631.0519 143.9566 629.8815 142.059 629.8815 140.8885 631.0519" fill="#ffb000"/>
<path transform="matrix(1,0,0,-1,-96,794.2528)" d="M114.0531 654.5783C112.8826 655.7487 112.8826 657.6464 114.0531 658.8168 115.2235 659.9873 117.1212 659.9873 118.2916 658.8168 119.462 657.6464 119.462 655.7487 118.2916 654.5783 117.1212 653.4078 115.2235 653.4078 114.0531 654.5783" fill="#19b091"/>
<path transform="matrix(1,0,0,-1,-96,794.2528)" d="M155.0617 716.0913C153.8913 717.2618 153.8913 719.1594 155.0617 720.3299 156.2322 721.5003 158.1299 721.5003 159.3003 720.3299 160.4707 719.1594 160.4707 717.2618 159.3003 716.0913 158.1299 714.9209 156.2322 714.9209 155.0617 716.0913" fill="#648fff"/>
<path transform="matrix(1,0,0,-1,-96,794.2528)" d="M98.36881 631.0519C97.19836 632.2223 97.19836 634.12 98.36881 635.2904 99.53925 636.4609 101.4369 636.4609 102.6074 635.2904 103.7778 634.12 103.7778 632.2223 102.6074 631.0519 101.4369 629.8815 99.53925 629.8815 98.36881 631.0519" fill="#648fff"/>
<path transform="matrix(1,0,0,-1,-96,794.2528)" d="M183.4082 631.0519C182.2378 632.2223 182.2378 634.12 183.4082 635.2904 184.5787 636.4609 186.4763 636.4609 187.6468 635.2904 188.8172 634.12 188.8172 632.2223 187.6468 631.0519 186.4763 629.8815 184.5787 629.8815 183.4082 631.0519" fill="#648fff"/>
<path transform="matrix(1,0,0,-1,-96,794.2528)" d="M499.7464 744.1416C498.5759 745.3121 498.5759 747.2097 499.7464 748.3802 500.9168 749.5506 502.8145 749.5506 503.9849 748.3802 505.1554 747.2097 505.1554 745.3121 503.9849 744.1416 502.8145 742.9712 500.9168 742.9712 499.7464 744.1416" fill="#19b091"/>
</g>
<g clip-path="url(#clip_59)">
<path transform="matrix(1,0,0,-1,-96,794.2528)" d="M98.36881 631.0519C97.19836 632.2223 97.19836 634.12 98.36881 635.2904 99.53925 636.4609 101.4369 636.4609 102.6074 635.2904 103.7778 634.12 103.7778 632.2223 102.6074 631.0519 101.4369 629.8815 99.53925 629.8815 98.36881 631.0519M183.4082 631.0519C182.2378 632.2223 182.2378 634.12 183.4082 635.2904 184.5787 636.4609 186.4763 636.4609 187.6468 635.2904 188.8172 634.12 188.8172 632.2223 187.6468 631.0519 186.4763 629.8815 184.5787 629.8815 183.4082 631.0519M528.7112 787.5888C527.5407 788.7592 527.5407 790.6569 528.7112 791.8273 529.8816 792.9978 531.7793 792.9978 532.9497 791.8273 534.1201 790.6569 534.1201 788.7592 532.9497 787.5888 531.7793 786.4183 529.8816 786.4183 528.7112 787.5888" fill="#648fff"/>
</g>
<g clip-path="url(#clip_60)">
<path transform="matrix(1,0,0,-1,-96,794.2528)" d="M165.0402 686.1558C163.8698 687.3263 163.8698 689.2239 165.0402 690.3944 166.2107 691.5648 168.1083 691.5648 169.2788 690.3944 170.4492 689.2239 170.4492 687.3263 169.2788 686.1558 168.1083 684.9854 166.2107 684.9854 165.0402 686.1558M405.9853 686.1558C404.8148 687.3263 404.8148 689.2239 405.9853 690.3944 407.1557 691.5648 409.0534 691.5648 410.2238 690.3944 411.3942 689.2239 411.3942 687.3263 410.2238 686.1558 409.0534 684.9854 407.1557 684.9854 405.9853 686.1558M405.9853 686.1558C404.8148 687.3263 404.8148 689.2239 405.9853 690.3944 407.1557 691.5648 409.0534 691.5648 410.2238 690.3944 411.3942 689.2239 411.3942 687.3263 410.2238 686.1558 409.0534 684.9854 407.1557 684.9854 405.9853 686.1558" fill="#dc267f"/>
<path transform="matrix(1,0,0,-1,-96,794.2528)" d="M341.4331 632.3743C340.993 632.3743 340.6362 632.7311 340.6362 633.1712 340.6362 633.6113 340.993 633.968 341.4331 633.968H426.4725C426.9126 633.968 427.2694 633.6113 427.2694 633.1712 427.2694 632.7311 426.9126 632.3743 426.4725 632.3743ZM151.582 653.3465C152.2047 653.5657 152.8872 653.2387 153.1065 652.616 153.3258 651.9934 152.9987 651.3108 152.3761 651.0916 151.3426 650.7276 150.2497 650.5395 149.1327 650.5395 143.7412 650.5395 139.3704 654.9103 139.3704 660.3018 139.3704 665.6934 143.7412 670.0641 149.1327 670.0641 152.6391 670.0641 155.8226 668.1991 157.562 665.2291 157.8956 664.6594 157.7042 663.9272 157.1346 663.5936 156.5649 663.26 155.8327 663.4513 155.4991 664.021 154.1844 666.2658 151.7816 667.6735 149.1327 667.6735 145.0615 667.6735 141.761 664.3731 141.761 660.3018 141.761 656.2306 145.0615 652.9301 149.1327 652.9301 149.9783 652.9301 150.8027 653.072 151.582 653.3465M147.7109 651.3669C147.3968 651.6752 147.3922 652.1797 147.7005 652.4938 148.0088 652.8078 148.5134 652.8125 148.8274 652.5041 148.8589 652.4732 148.8905 652.443 148.9221 652.4134 149.2435 652.1127 149.2604 651.6085 148.9598 651.287 148.6591 650.9656 148.1548 650.9488 147.8334 651.2494 147.7924 651.2878 147.7515 651.327 147.7109 651.3669M146.103 656.1029 157.726 654.1819 148.3938 646.9919ZM415.2568 653.7448C415.8795 653.9641 416.562 653.637 416.7813 653.0144 417.0005 652.3917 416.6735 651.7092 416.0508 651.4899 415.0173 651.126 413.9244 650.9378 412.8075 650.9378 407.4159 650.9378 403.0452 655.3086 403.0452 660.7002 403.0452 666.0917 407.4159 670.4625 412.8075 670.4625 416.3139 670.4625 419.4973 668.5974 421.2367 665.6274 421.5703 665.0578 421.379 664.3255 420.8093 663.9919 420.2397 663.6583 419.5074 663.8496 419.1738 664.4193 417.8591 666.6642 415.4563 668.0718 412.8075 668.0718 408.7362 668.0718 405.4358 664.7714 405.4358 660.7002 405.4358 656.6289 408.7362 653.3285 412.8075 653.3285 413.653 653.3285 414.4775 653.4704 415.2568 653.7448M411.3856 651.7652C411.0716 652.0735 411.0669 652.578 411.3753 652.8921 411.6836 653.2061 412.1881 653.2108 412.5022 652.9025 412.5336 652.8716 412.5652 652.8413 412.5969 652.8117 412.9183 652.5111 412.9351 652.0068 412.6345 651.6854 412.3339 651.364 411.8296 651.3471 411.5082 651.6477 411.4671 651.6862 411.4263 651.7253 411.3856 651.7652M409.7777 656.5012 421.4008 654.5802 412.0686 647.3902Z"/>
</g>
<g clip-path="url(#clip_61)">
<path transform="matrix(1,0,0,-1,-96,794.2528)" d="M381.8335 631.0519C380.6631 632.2223 380.6631 634.12 381.8335 635.2904 383.004 636.4609 384.9016 636.4609 386.0721 635.2904 387.2425 634.12 387.2425 632.2223 386.0721 631.0519 384.9016 629.8815 383.004 629.8815 381.8335 631.0519" fill="#ffb000"/>
<path transform="matrix(1,0,0,-1,-96,794.2528)" d="M339.3138 631.0519C338.1434 632.2223 338.1434 634.12 339.3138 635.2904 340.4843 636.4609 342.3819 636.4609 343.5524 635.2904 344.7228 634.12 344.7228 632.2223 343.5524 631.0519 342.3819 629.8815 340.4843 629.8815 339.3138 631.0519M339.3138 631.0519C338.1434 632.2223 338.1434 634.12 339.3138 635.2904 340.4843 636.4609 342.3819 636.4609 343.5524 635.2904 344.7228 634.12 344.7228 632.2223 343.5524 631.0519 342.3819 629.8815 340.4843 629.8815 339.3138 631.0519" fill="#648fff"/>
<path transform="matrix(1,0,0,-1,-96,794.2528)" d="M424.3532 631.0519C423.1828 632.2223 423.1828 634.12 424.3532 635.2904 425.5237 636.4609 427.4213 636.4609 428.5918 635.2904 429.7622 634.12 429.7622 632.2223 428.5918 631.0519 427.4213 629.8815 425.5237 629.8815 424.3532 631.0519" fill="#648fff"/>
</g>
<g clip-path="url(#clip_62)">
<path transform="matrix(1,0,0,-1,-96,794.2528)" d="M424.3532 631.0519C423.1828 632.2223 423.1828 634.12 424.3532 635.2904 425.5237 636.4609 427.4213 636.4609 428.5918 635.2904 429.7622 634.12 429.7622 632.2223 428.5918 631.0519 427.4213 629.8815 425.5237 629.8815 424.3532 631.0519" fill="#648fff"/>
</g>
</g>
</g>
</g>
</svg>
