<svg xmlns="http://www.w3.org/2000/svg" xmlns:xlink="http://www.w3.org/1999/xlink" xmlns:inkscape="http://www.inkscape.org/namespaces/inkscape" version="1.1" width="335" height="159.45038" viewBox="0 0 335 159.45038">
<defs>
<clipPath id="clip_0">
<path transform="matrix(1,0,0,-1,-109,750.76638)" d="M109 591.316H444V750.76638H109Z" clip-rule="evenodd"/>
</clipPath>
<clipPath id="clip_1">
<path transform="matrix(1,0,0,-1,-109,750.76638)" d="M0 0H612V803.25H0Z"/>
</clipPath>
<clipPath id="clip_2">
<path transform="matrix(1,0,0,-1,-109,750.76638)" d="M0 0H612V803.25H0Z"/>
</clipPath>
<clipPath id="clip_3">
<path transform="matrix(1,0,0,-1,-109,750.76638)" d="M0 0H612V803.25H0Z"/>
</clipPath>
<clipPath id="clip_4">
<path transform="matrix(1,0,0,-1,-109,750.76638)" d="M0 0H612V803.25H0Z"/>
</clipPath>
<clipPath id="clip_5">
<path transform="matrix(1,0,0,-1,-109,750.76638)" d="M0 0H612V803.25H0Z"/>
</clipPath>
<clipPath id="clip_6">
<path transform="matrix(1,0,0,-1,-109,750.76638)" d="M0 0H612V803.25H0Z"/>
</clipPath>
<clipPath id="clip_7">
<path transform="matrix(1,0,0,-1,-109,750.76638)" d="M0 0H612V803.25H0Z"/>
</clipPath>
<clipPath id="clip_8">
<path transform="matrix(1,0,0,-1,-109,750.76638)" d="M0 0H612V803.25H0Z"/>
</clipPath>
<clipPath id="clip_9">
<path transform="matrix(1,0,0,-1,-109,750.76638)" d="M0 0H612V803.25H0Z"/>
</clipPath>
</defs>
<g clip-path="url(#clip_0)">
<g clip-path="url(#clip_1)">
<g clip-path="url(#clip_2)">
<text fill="#dc267f" xml:space="preserve" transform="matrix(22.02658 0 -0 22.02658 111.5558 90.49536)" font-size="1" font-family="cmmi10" font-style="italic"><tspan y="-.906" x="0">a</tspan></text>
<text fill="#dc267f" xml:space="preserve" transform="matrix(22.02658 0 -0 22.02658 214.0433 90.23596)" font-size="1" font-family="cmmi10" font-style="italic"><tspan y="-.906" x="0">a</tspan></text>
<text fill="#19b091" xml:space="preserve" transform="matrix(22.87375 0 -0 22.87375 306.9763 91.707279)" font-size="1" font-family="cmmi10" font-style="italic"><tspan y="-.906" x="0">c</tspan></text>
<text fill="#ffb000" xml:space="preserve" transform="matrix(22.87375 0 -0 22.87375 64.6725 178.38605)" font-size="1" font-family="cmmi10" font-style="italic"><tspan y="-.906" x="0">b</tspan></text>
<text fill="#ffb000" xml:space="preserve" transform="matrix(22.87375 0 -0 22.87375 260.9402 178.38605)" font-size="1" font-family="cmmi10" font-style="italic"><tspan y="-.906" x="0">b</tspan></text>
<text fill="#19b091" xml:space="preserve" transform="matrix(22.87375 0 -0 22.87375 17.831803 91.89075)" font-size="1" font-family="cmmi10" font-style="italic"><tspan y="-.906" x="0">c</tspan></text>
<text xml:space="preserve" transform="matrix(21.1794 0 -0 21.1794 154.27802 121.01666)" font-size="1" font-family="cmmi10" font-style="italic"><tspan y="-.906" x="0">v</tspan></text>
<text xml:space="preserve" transform="matrix(21.1794 0 -0 21.1794 165.30411 121.01666)" font-size="1" font-family="cmmi10" font-style="italic"><tspan y="-.906" x="0">s</tspan></text>
<text xml:space="preserve" transform="matrix(21.1794 0 -0 21.1794 175.2319 121.01666)" font-size="1" font-family="cmmi10" font-style="italic"><tspan y="-.906" x="0">.</tspan></text>
<g clip-path="url(#clip_3)">
<path transform="matrix(1,0,0,-1,-109,750.76638)" d="M176.7023 613.3701C175.1463 614.9261 175.1463 617.4489 176.7023 619.0049 178.2583 620.5609 180.7811 620.5609 182.3371 619.0049 183.8931 617.4489 183.8931 614.9261 182.3371 613.3701 180.7811 611.8141 178.2583 611.8141 176.7023 613.3701" fill="#ffb000"/>
<path transform="matrix(1,0,0,-1,-109,750.76638)" d="M142.348 672.8735C140.792 674.4295 140.792 676.9523 142.348 678.5083 143.904 680.0642 146.4268 680.0642 147.9828 678.5083 149.5388 676.9523 149.5388 674.4295 147.9828 672.8735 146.4268 671.3175 143.904 671.3175 142.348 672.8735" fill="#19b091"/>
<path transform="matrix(1,0,0,-1,-109,750.76638)" d="M211.0566 672.8735C209.5006 674.4295 209.5006 676.9523 211.0566 678.5083 212.6126 680.0642 215.1353 680.0642 216.6913 678.5083 218.2473 676.9523 218.2473 674.4295 216.6913 672.8735 215.1353 671.3175 212.6126 671.3175 211.0566 672.8735" fill="#dc267f"/>
<path transform="matrix(1,0,0,-1,-109,750.76638)" d="M216.7942 659.8253C216.6711 660.6969 217.2779 661.5031 218.1495 661.6261 219.0211 661.7492 219.8273 661.1423 219.9504 660.2708 221.307 650.6594 219.2387 641.8629 213.7622 633.9626 213.2607 633.2392 212.2678 633.0593 211.5444 633.5607 210.821 634.0622 210.6411 635.0551 211.1425 635.7785 216.1606 643.0176 218.039 651.0061 216.7942 659.8253M218.6807 628.2262 197.1701 620.5459 206.2243 641.5152Z"/>
<path transform="matrix(1,0,0,-1,-109,750.76638)" d="M162.097 621.798C162.908 621.4558 163.288 620.521 162.9458 619.7101 162.6036 618.8991 161.6688 618.5191 160.8578 618.8613 152.0734 622.5679 145.8102 629.1507 142.1261 638.5266 141.8042 639.3459 142.2074 640.2709 143.0266 640.5928 143.8459 640.9147 144.7709 640.5116 145.0928 639.6924 148.4681 631.1024 154.1169 625.1653 162.097 621.798"/>
<path transform="matrix(1,0,0,-1,-109,750.76638)" d="M372.97 613.3701C371.414 614.9261 371.414 617.4489 372.97 619.0049 374.526 620.5609 377.0488 620.5609 378.6048 619.0049 380.1607 617.4489 380.1607 614.9261 378.6048 613.3701 377.0488 611.8141 374.526 611.8141 372.97 613.3701" fill="#ffb000"/>
<path transform="matrix(1,0,0,-1,-109,750.76638)" d="M338.6157 672.8735C337.0597 674.4295 337.0597 676.9523 338.6157 678.5083 340.1717 680.0642 342.6945 680.0642 344.2505 678.5083 345.8065 676.9523 345.8065 674.4295 344.2505 672.8735 342.6945 671.3175 340.1717 671.3175 338.6157 672.8735" fill="#19b091"/>
<path transform="matrix(1,0,0,-1,-109,750.76638)" d="M407.3243 672.8735C405.7683 674.4295 405.7683 676.9523 407.3243 678.5083 408.8803 680.0642 411.403 680.0642 412.959 678.5083 414.515 676.9523 414.515 674.4295 412.959 672.8735 411.403 671.3175 408.8803 671.3175 407.3243 672.8735" fill="#19b091"/>
</g>
<g clip-path="url(#clip_4)">
<path transform="matrix(1,0,0,-1,-109,750.76638)" d="M134.6525 637.4626 139.8136 659.7125 152.5653 640.7629ZM157.1885 686.6132C156.4599 686.1192 155.4689 686.3094 154.975 687.038 154.481 687.7665 154.6712 688.7576 155.3998 689.2515 164.5844 695.4784 174.1746 697.8576 184.0985 696.3461 184.9687 696.2135 185.5667 695.4007 185.4341 694.5305 185.3016 693.6603 184.4888 693.0624 183.6186 693.1949 174.5131 694.5817 165.727 692.4021 157.1885 686.6132M187.2737 703.2131 203.2859 686.925 180.4532 686.324ZM413.0618 659.8253C412.9388 660.6969 413.5456 661.5031 414.4172 661.6261 415.2888 661.7492 416.095 661.1423 416.2181 660.2708 417.5747 650.6594 415.5064 641.8629 410.0298 633.9626 409.5284 633.2392 408.5355 633.0593 407.8121 633.5607 407.0887 634.0622 406.9088 635.0551 407.4102 635.7785 412.4283 643.0176 414.3067 651.0061 413.0618 659.8253M414.9484 628.2262 393.4378 620.5459 402.492 641.5152ZM358.3647 621.798C359.1757 621.4558 359.5557 620.521 359.2135 619.7101 358.8713 618.8991 357.9365 618.5191 357.1255 618.8613 348.3411 622.5679 342.0779 629.1507 338.3938 638.5266 338.0719 639.3459 338.4751 640.2709 339.2943 640.5928 340.1135 640.9147 341.0386 640.5116 341.3605 639.6924 344.7358 631.1024 350.3846 625.1653 358.3647 621.798M330.9202 637.4626 336.0813 659.7125 348.833 640.7629ZM353.4562 686.6132C352.7276 686.1192 351.7366 686.3094 351.2427 687.038 350.7487 687.7665 350.9389 688.7576 351.6674 689.2515 360.8521 695.4784 370.4422 697.8576 380.3662 696.3461 381.2364 696.2135 381.8344 695.4007 381.7018 694.5305 381.5693 693.6603 380.7564 693.0624 379.8863 693.1949 370.7808 694.5817 361.9947 692.4021 353.4562 686.6132M383.5414 703.2131 399.5536 686.925 376.7209 686.324ZM179.2457 743.6111 115.644 614.3294 241.2729 619.5567ZM179.7759 745.2235 242.755 619.2652C242.9489 618.8775 242.6784 618.4188 242.2453 618.4008L114.6884 613.0933C114.2353 613.0745 113.9271 613.5474 114.1273 613.9543L178.705 745.22C178.9232 745.6635 179.5548 745.6656 179.7759 745.2235"/>
</g>
<g clip-path="url(#clip_5)">
<path transform="matrix(1,0,0,-1,-109,750.76638)" d="M338.6157 672.8735C337.0597 674.4295 337.0597 676.9523 338.6157 678.5083 340.1717 680.0642 342.6945 680.0642 344.2505 678.5083 345.8065 676.9523 345.8065 674.4295 344.2505 672.8735 342.6945 671.3175 340.1717 671.3175 338.6157 672.8735" fill="#dc267f"/>
<path transform="matrix(1,0,0,-1,-109,750.76638)" d="M111.8462 610.8731C110.2902 612.4291 110.2902 614.9519 111.8462 616.5079 113.4022 618.0639 115.9249 618.0639 117.4809 616.5079 119.0369 614.9519 119.0369 612.4291 117.4809 610.8731 115.9249 609.3171 113.4022 609.3171 111.8462 610.8731M239.4031 616.1806C237.8471 617.7365 237.8471 620.2593 239.4031 621.8153 240.9591 623.3713 243.4818 623.3713 245.0378 621.8153 246.5938 620.2593 246.5938 617.7365 245.0378 616.1806 243.4818 614.6246 240.9591 614.6246 239.4031 616.1806M176.4239 742.1388C174.8679 743.6948 174.8679 746.2176 176.4239 747.7736 177.9799 749.3296 180.5027 749.3296 182.0587 747.7736 183.6147 746.2176 183.6147 743.6948 182.0587 742.1388 180.5027 740.5828 177.9799 740.5828 176.4239 742.1388" fill="#648fff"/>
</g>
<g clip-path="url(#clip_6)">
<path transform="matrix(1,0,0,-1,-109,750.76638)" d="M375.5133 743.6111 311.9117 614.3294 437.5406 619.5567ZM376.0436 745.2235 439.0227 619.2652C439.2165 618.8775 438.9461 618.4188 438.513 618.4008L310.9561 613.0933C310.503 613.0745 310.1948 613.5474 310.395 613.9543L374.9727 745.22C375.1909 745.6635 375.8225 745.6656 376.0436 745.2235"/>
<path transform="matrix(1,0,0,-1,-109,750.76638)" d="M176.7023 613.3701C175.1463 614.9261 175.1463 617.4489 176.7023 619.0049 178.2583 620.5609 180.7811 620.5609 182.3371 619.0049 183.8931 617.4489 183.8931 614.9261 182.3371 613.3701 180.7811 611.8141 178.2583 611.8141 176.7023 613.3701" fill="#ffb000"/>
<path transform="matrix(1,0,0,-1,-109,750.76638)" d="M142.348 672.8735C140.792 674.4295 140.792 676.9523 142.348 678.5083 143.904 680.0642 146.4268 680.0642 147.9828 678.5083 149.5388 676.9523 149.5388 674.4295 147.9828 672.8735 146.4268 671.3175 143.904 671.3175 142.348 672.8735" fill="#19b091"/>
<path transform="matrix(1,0,0,-1,-109,750.76638)" d="M211.0566 672.8735C209.5006 674.4295 209.5006 676.9523 211.0566 678.5083 212.6126 680.0642 215.1353 680.0642 216.6913 678.5083 218.2473 676.9523 218.2473 674.4295 216.6913 672.8735 215.1353 671.3175 212.6126 671.3175 211.0566 672.8735" fill="#dc267f"/>
</g>
<g clip-path="url(#clip_7)">
<path transform="matrix(1,0,0,-1,-109,750.76638)" d="M372.6916 742.1388C371.1356 743.6948 371.1356 746.2176 372.6916 747.7736 374.2476 749.3296 376.7704 749.3296 378.3264 747.7736 379.8824 746.2176 379.8824 743.6948 378.3264 742.1388 376.7704 740.5828 374.2476 740.5828 372.6916 742.1388M435.6707 616.1806C434.1148 617.7365 434.1148 620.2593 435.6707 621.8153 437.2267 623.3713 439.7495 623.3713 441.3055 621.8153 442.8615 620.2593 442.8615 617.7365 441.3055 616.1806 439.7495 614.6246 437.2267 614.6246 435.6707 616.1806M308.1139 610.8731C306.5579 612.4291 306.5579 614.9519 308.1139 616.5079 309.6699 618.0639 312.1926 618.0639 313.7486 616.5079 315.3046 614.9519 315.3046 612.4291 313.7486 610.8731 312.1926 609.3171 309.6699 609.3171 308.1139 610.8731" fill="#648fff"/>
</g>
<g clip-path="url(#clip_8)">
<path transform="matrix(1,0,0,-1,-109,750.76638)" d="M372.97 613.3701C371.414 614.9261 371.414 617.4489 372.97 619.0049 374.526 620.5609 377.0488 620.5609 378.6048 619.0049 380.1607 617.4489 380.1607 614.9261 378.6048 613.3701 377.0488 611.8141 374.526 611.8141 372.97 613.3701" fill="#ffb000"/>
<path transform="matrix(1,0,0,-1,-109,750.76638)" d="M338.6157 672.8735C337.0597 674.4295 337.0597 676.9523 338.6157 678.5083 340.1717 680.0642 342.6945 680.0642 344.2505 678.5083 345.8065 676.9523 345.8065 674.4295 344.2505 672.8735 342.6945 671.3175 340.1717 671.3175 338.6157 672.8735M407.3243 672.8735C405.7683 674.4295 405.7683 676.9523 407.3243 678.5083 408.8803 680.0642 411.403 680.0642 412.959 678.5083 414.515 676.9523 414.515 674.4295 412.959 672.8735 411.403 671.3175 408.8803 671.3175 407.3243 672.8735" fill="#19b091"/>
</g>
<g clip-path="url(#clip_9)">
<path transform="matrix(1,0,0,-1,-109,750.76638)" d="M338.6157 672.8735C337.0597 674.4295 337.0597 676.9523 338.6157 678.5083 340.1717 680.0642 342.6945 680.0642 344.2505 678.5083 345.8065 676.9523 345.8065 674.4295 344.2505 672.8735 342.6945 671.3175 340.1717 671.3175 338.6157 672.8735" fill="#dc267f"/>
</g>
</g>
</g>
</g>
</svg>
