<svg xmlns="http://www.w3.org/2000/svg" xmlns:xlink="http://www.w3.org/1999/xlink" xmlns:inkscape="http://www.inkscape.org/namespaces/inkscape" version="1.1" width="295.5" height="122.96173" viewBox="0 0 295.5 122.96173">
<defs>
<clipPath id="clip_0">
<path transform="matrix(1,0,0,-1,-81.5,779.7573)" d="M81.5 656.7956H377V779.7573H81.5Z" clip-rule="evenodd"/>
</clipPath>
<clipPath id="clip_1">
<path transform="matrix(1,0,0,-1,-81.5,779.7573)" d="M0 0H612V803.25H0Z"/>
</clipPath>
<clipPath id="clip_2">
<path transform="matrix(1,0,0,-1,-81.5,779.7573)" d="M0 0H612V803.25H0Z"/>
</clipPath>
<clipPath id="clip_3">
<path transform="matrix(1,0,0,-1,-81.5,779.7573)" d="M0 0H612V803.25H0Z"/>
</clipPath>
<clipPath id="clip_4">
<path transform="matrix(1,0,0,-1,-81.5,779.7573)" d="M0 0H612V803.25H0Z"/>
</clipPath>
<clipPath id="clip_5">
<path transform="matrix(1,0,0,-1,-81.5,779.7573)" d="M0 0H612V803.25H0Z"/>
</clipPath>
<clipPath id="clip_6">
<path transform="matrix(1,0,0,-1,-81.5,779.7573)" d="M0 0H612V803.25H0Z"/>
</clipPath>
<clipPath id="clip_7">
<path transform="matrix(1,0,0,-1,-81.5,779.7573)" d="M0 0H612V803.25H0Z"/>
</clipPath>
<clipPath id="clip_8">
<path transform="matrix(1,0,0,-1,-81.5,779.7573)" d="M0 0H612V803.25H0Z"/>
</clipPath>
<clipPath id="clip_9">
<path transform="matrix(1,0,0,-1,-81.5,779.7573)" d="M115.0922 717.4618C114.6787 717.3112 114.2214 717.5245 114.0708 717.938 113.9203 718.3516 114.1335 718.8089 114.5471 718.9594L270.2943 775.6523C270.7079 775.8029 271.1652 775.5897 271.3157 775.1761 271.4663 774.7625 271.253 774.3053 270.8395 774.1547Z"/>
</clipPath>
<clipPath id="clip_10">
<path transform="matrix(1,0,0,-1,-81.5,779.7573)" d="M0 0H612V803.25H0Z"/>
</clipPath>
<clipPath id="clip_11">
<path transform="matrix(1,0,0,-1,-81.5,779.7573)" d="M114.6581 703.4154C114.2271 703.5046 113.9501 703.9263 114.0393 704.3572 114.1285 704.7882 114.5503 705.0652 114.9812 704.976L270.0904 672.8597C270.5213 672.7704 270.7984 672.3487 270.7091 671.9178 270.6199 671.4868 270.1982 671.2098 269.7672 671.299Z"/>
</clipPath>
<clipPath id="clip_12">
<path transform="matrix(1,0,0,-1,-81.5,779.7573)" d="M0 0H612V803.25H0Z"/>
</clipPath>
<clipPath id="clip_13">
<path transform="matrix(1,0,0,-1,-81.5,779.7573)" d="M129.0092 717.4331C128.5798 717.3366 128.1535 717.6065 128.0571 718.0359 127.9606 718.4653 128.2305 718.8916 128.6599 718.9881L272.9467 751.4082C273.3761 751.5047 273.8024 751.2348 273.8989 750.8054 273.9954 750.376 273.7255 749.9497 273.2961 749.8532Z"/>
</clipPath>
<clipPath id="clip_14">
<path transform="matrix(1,0,0,-1,-81.5,779.7573)" d="M0 0H612V803.25H0Z"/>
</clipPath>
<clipPath id="clip_15">
<path transform="matrix(1,0,0,-1,-81.5,779.7573)" d="M128.7401 703.4044C128.3031 703.4566 127.9911 703.8532 128.0433 704.2902 128.0955 704.7272 128.492 705.0391 128.929 704.9869L273.2159 687.7565C273.6529 687.7043 273.9648 687.3077 273.9127 686.8707 273.8605 686.4337 273.4639 686.1218 273.0269 686.174Z"/>
</clipPath>
<clipPath id="clip_16">
<path transform="matrix(1,0,0,-1,-81.5,779.7573)" d="M0 0H612V803.25H0Z"/>
</clipPath>
<clipPath id="clip_17">
<path transform="matrix(1,0,0,-1,-81.5,779.7573)" d="M0 0H612V803.25H0Z"/>
</clipPath>
<clipPath id="clip_18">
<path transform="matrix(1,0,0,-1,-81.5,779.7573)" d="M0 0H612V803.25H0Z"/>
</clipPath>
<clipPath id="clip_19">
<path transform="matrix(1,0,0,-1,-81.5,779.7573)" d="M0 0H612V803.25H0Z"/>
</clipPath>
</defs>
<g clip-path="url(#clip_0)">
<g clip-path="url(#clip_1)">
<g clip-path="url(#clip_2)">
<g clip-path="url(#clip_3)">
<path transform="matrix(1,0,0,-1,-81.5,779.7573)" d="M156.5326 760.2671C156.2768 760.6252 156.3597 761.1229 156.7178 761.3787 157.076 761.6345 157.5737 761.5516 157.8295 761.1935L228.6956 661.9808C228.9514 661.6227 228.8685 661.125 228.5104 660.8692 228.1523 660.6134 227.6546 660.6963 227.3988 661.0545ZM86.31484 660.7208C85.87474 660.7208 85.51797 661.0775 85.51797 661.5176 85.51797 661.9577 85.87474 662.3145 86.31484 662.3145H228.0472C228.4873 662.3145 228.8441 661.9577 228.8441 661.5176 228.8441 661.0775 228.4873 660.7208 228.0472 660.7208ZM86.96329 661.0545C86.70748 660.6963 86.20979 660.6134 85.85167 660.8692 85.49354 661.125 85.41059 661.6227 85.6664 661.9808L156.5326 761.1935C156.7884 761.5516 157.2861 761.6345 157.6442 761.3787 158.0023 761.1229 158.0853 760.6252 157.8295 760.2671Z"/>
<path transform="matrix(1,0,0,-1,-81.5,779.7573)" d="M278.6173 766.8531V681.1868H364.2837V766.8531ZM273.1214 777.8449H369.7796C372.8149 777.8449 375.2755 775.3843 375.2755 772.349V675.6909C375.2755 672.6556 372.8149 670.195 369.7796 670.195H273.1214C270.0861 670.195 267.6255 672.6556 267.6255 675.6909V772.349C267.6255 775.3843 270.0861 777.8449 273.1214 777.8449" fill="#c7c3bd"/>
</g>
<g clip-path="url(#clip_4)">
<path transform="matrix(1,0,0,-1,-81.5,779.7573)" d="M155.0617 758.611C153.8913 759.7815 153.8913 761.6791 155.0617 762.8496 156.2322 764.02 158.1299 764.02 159.3003 762.8496 160.4707 761.6791 160.4707 759.7815 159.3003 758.611 158.1299 757.4406 156.2322 757.4406 155.0617 758.611M225.9279 659.3984C224.7575 660.5688 224.7575 662.4665 225.9279 663.6369 227.0984 664.8074 228.996 664.8074 230.1665 663.6369 231.3369 662.4665 231.3369 660.5688 230.1665 659.3984 228.996 658.2279 227.0984 658.2279 225.9279 659.3984M84.19557 659.3984C83.02513 660.5688 83.02513 662.4665 84.19557 663.6369 85.36601 664.8074 87.26367 664.8074 88.43411 663.6369 89.60456 662.4665 89.60456 660.5688 88.43411 659.3984 87.26367 658.2279 85.36601 658.2279 84.19557 659.3984" fill="#648fff"/>
<path transform="matrix(1,0,0,-1,-81.5,779.7573)" d="M309.8062 707.5937C312.9495 705.3929 316.7762 704.1015 320.9045 704.1015 324.4625 704.1015 327.7966 705.0605 330.6621 706.7345 333.0577 708.1341 335.1259 710.0332 336.7237 712.2889L337.4766 711.4665C337.6072 711.3492 337.7418 711.2469 337.8747 711.159 336.1671 708.81 333.9837 706.8293 331.466 705.3584 328.3645 703.5464 324.7558 702.5078 320.9045 702.5078 316.4307 702.5078 312.2841 703.909 308.8797 706.2966ZM341.8707 723.474C341.8707 720.24 341.1385 717.1771 339.8309 714.4418 339.787 714.4581 339.7421 714.4752 339.6965 714.4944L338.7376 714.9878 338.4173 715.1812C339.6098 717.6951 340.277 720.5066 340.277 723.474 340.277 727.032 339.318 730.3661 337.644 733.2315 336.3349 735.4722 334.5889 737.4264 332.5228 738.9773L333.4654 740.2626C335.7069 738.5829 337.6008 736.4648 339.0201 734.0355 340.8321 730.934 341.8707 727.3253 341.8707 723.474M338.653 714.1047C338.2806 714.3394 338.1691 714.8314 338.4037 715.2038 338.6384 715.5761 339.1305 715.6877 339.5028 715.453L371.1121 695.5294C371.4844 695.2947 371.596 694.8026 371.3613 694.4303 371.1267 694.058 370.6346 693.9464 370.2623 694.1811ZM336.6828 710.7081C336.3105 710.9428 336.1989 711.4349 336.4336 711.8072 336.6683 712.1795 337.1603 712.2911 337.5326 712.0564L369.142 692.1328C369.5143 691.8981 369.6259 691.4061 369.3912 691.0337 369.1565 690.6614 368.6645 690.5499 368.2921 690.7845Z" fill="#19b091"/>
</g>
<g clip-path="url(#clip_5)">
<path transform="matrix(1,0,0,-1,-81.5,779.7573)" d="M190.4948 709.0047C189.3244 710.1751 189.3244 712.0728 190.4948 713.2432 191.6653 714.4137 193.5629 714.4137 194.7334 713.2432 195.9038 712.0728 195.9038 710.1751 194.7334 709.0047 193.5629 707.8343 191.6653 707.8343 190.4948 709.0047M190.4948 709.0047C189.3244 710.1751 189.3244 712.0728 190.4948 713.2432 191.6653 714.4137 193.5629 714.4137 194.7334 713.2432 195.9038 712.0728 195.9038 710.1751 194.7334 709.0047 193.5629 707.8343 191.6653 707.8343 190.4948 709.0047" fill="#dc267f"/>
<path transform="matrix(1,0,0,-1,-81.5,779.7573)" d="M119.6287 709.0047C118.4582 710.1751 118.4582 712.0728 119.6287 713.2432 120.7991 714.4137 122.6968 714.4137 123.8672 713.2432 125.0376 712.0728 125.0376 710.1751 123.8672 709.0047 122.6968 707.8343 120.7991 707.8343 119.6287 709.0047M121.3275 710.447C120.9536 710.6792 120.8388 711.1705 121.071 711.5444 121.3032 711.9183 121.7945 712.0331 122.1684 711.8009L178.2016 677C178.5755 676.7678 178.6903 676.2764 178.4581 675.9026 178.2259 675.5287 177.7346 675.4139 177.3607 675.6461Z" fill="#19b091"/>
<path transform="matrix(1,0,0,-1,-81.5,779.7573)" d="M155.0617 659.3984C153.8913 660.5688 153.8913 662.4665 155.0617 663.6369 156.2322 664.8074 158.1299 664.8074 159.3003 663.6369 160.4707 662.4665 160.4707 660.5688 159.3003 659.3984 158.1299 658.2279 156.2322 658.2279 155.0617 659.3984" fill="#ffb000"/>
<path transform="matrix(1,0,0,-1,-81.5,779.7573)" d="M278.6173 766.8531V681.1868H364.2837V766.8531ZM273.1214 777.8449H369.7796C372.8149 777.8449 375.2755 775.3843 375.2755 772.349V675.6909C375.2755 672.6556 372.8149 670.195 369.7796 670.195H273.1214C270.0861 670.195 267.6255 672.6556 267.6255 675.6909V772.349C267.6255 775.3843 270.0861 777.8449 273.1214 777.8449" fill="#c7c3bd"/>
</g>
<g clip-path="url(#clip_6)">
<path transform="matrix(1,0,0,-1,-81.5,779.7573)" d="M157.6461 660.8706C157.2887 660.6137 156.7908 660.6952 156.5339 661.0526 156.2771 661.41 156.3586 661.9079 156.716 662.1647L177.3161 676.9701C177.6735 677.227 178.1714 677.1455 178.4282 676.7881 178.6851 676.4307 178.6036 675.9328 178.2462 675.6759Z" fill="#ffb000"/>
<path transform="matrix(1,0,0,-1,-81.5,779.7573)" d="M115.6165 717.4137V704.9925H128.0377V717.4137ZM114.8196 719.0075H128.8346C129.2747 719.0075 129.6314 718.6507 129.6314 718.2106V704.1957C129.6314 703.7556 129.2747 703.3988 128.8345 703.3988H114.8196C114.3795 703.3988 114.0228 703.7556 114.0228 704.1957V718.2106C114.0228 718.6507 114.3795 719.0075 114.8196 719.0075" fill="#c7c3bd"/>
</g>
<g clip-path="url(#clip_7)">
<path transform="matrix(1,0,0,-1,-81.5,779.7573)" d="M178.5142 676.0106C178.3417 675.6057 177.8736 675.4174 177.4687 675.59 177.0638 675.7625 176.8755 676.2306 177.0481 676.6355L191.881 711.4364C192.0536 711.8413 192.5217 712.0296 192.9266 711.857 193.3314 711.6845 193.5197 711.2164 193.3472 710.8115Z" fill="#dc267f"/>
</g>
<g clip-path="url(#clip_8)">
<path transform="matrix(1,0,0,-1,-81.5,779.7573)" d="M175.6619 674.2037C174.4914 675.3742 174.4914 677.2718 175.6619 678.4423 176.8323 679.6127 178.73 679.6127 179.9004 678.4423 181.0709 677.2718 181.0709 675.3742 179.9004 674.2037 178.73 673.0333 176.8323 673.0333 175.6619 674.2037"/>
</g>
<g clip-path="url(#clip_9)">
<g clip-path="url(#clip_10)">
<path transform="matrix(1,0,0,-1,-81.5,779.7573)" d="M115.0922 717.4618 118.0034 718.5215 117.4582 720.0191 114.5471 718.9594ZM119.459 719.0513 122.3701 720.111 121.825 721.6086 118.9138 720.5489ZM123.8257 720.6408 126.7369 721.7005 126.1917 723.1981 123.2806 722.1384ZM128.1924 722.2303 131.1036 723.29 130.5585 724.7876 127.6473 723.728ZM132.5592 723.8199 135.4704 724.8795 134.9252 726.3772 132.0141 725.3175ZM136.9259 725.4094 139.8371 726.4691 139.292 727.9667 136.3808 726.907ZM141.2927 726.9989 144.2039 728.0586 143.6587 729.5562 140.7475 728.4965ZM145.6594 728.5884 148.5706 729.6481 148.0255 731.1457 145.1143 730.086ZM150.0262 730.1779 152.9373 731.2376 152.3922 732.7352 149.481 731.6756ZM154.3929 731.7675 157.3041 732.8272 156.7589 734.3248 153.8478 733.2651ZM158.7597 733.357 161.6708 734.4167 161.1257 735.9143 158.2145 734.8546ZM163.1264 734.9465 166.0376 736.0062 165.4924 737.5038 162.5813 736.4441ZM167.4932 736.536 170.4043 737.5957 169.8592 739.0933 166.948 738.0337ZM171.8599 738.1256 174.7711 739.1852 174.2259 740.6829 171.3148 739.6232ZM176.2267 739.7151 179.1378 740.7748 178.5927 742.2724 175.6815 741.2127ZM180.5934 741.3046 183.5046 742.3643 182.9594 743.8619 180.0483 742.8022ZM184.9601 742.8941 187.8713 743.9538 187.3262 745.4514 184.415 744.3917ZM189.3269 744.4836 192.2381 745.5433 191.6929 747.0409 188.7817 745.9813ZM193.6936 746.0732 196.6048 747.1328 196.0597 748.6305 193.1485 747.5708ZM198.0604 747.6627 200.9715 748.7224 200.4264 750.22 197.5152 749.1603ZM202.4271 749.2522 205.3383 750.3119 204.7932 751.8095 201.882 750.7498ZM206.7939 750.8417 209.705 751.9014 209.1599 753.399 206.2487 752.3394ZM211.1606 752.4313 214.0718 753.4909 213.5266 754.9886 210.6155 753.9289ZM215.5274 754.0208 218.4385 755.0805 217.8934 756.5781 214.9822 755.5184ZM219.8941 755.6103 222.8053 756.67 222.2601 758.1676 219.349 757.1079ZM224.2609 757.1998 227.172 758.2595 226.6269 759.7571 223.7157 758.6974ZM228.6276 758.7893 231.5388 759.849 230.9936 761.3466 228.0825 760.287ZM232.9943 760.3789 235.9055 761.4385 235.3604 762.9362 232.4492 761.8765ZM237.3611 761.9684 240.2723 763.0281 239.7271 764.5257 236.816 763.466ZM241.7278 763.5579 244.639 764.6176 244.0939 766.1152 241.1827 765.0555ZM246.0946 765.1474 249.0058 766.2071 248.4606 767.7047 245.5494 766.645ZM250.4613 766.737 253.3725 767.7966 252.8274 769.2942 249.9162 768.2346ZM254.8281 768.3265 257.7392 769.3862 257.1941 770.8838 254.2829 769.8241ZM259.1948 769.916 262.106 770.9757 261.5608 772.4733 258.6497 771.4136ZM263.5616 771.5055 266.4727 772.5652 265.9276 774.0628 263.0164 773.0031ZM267.9283 773.095 270.8395 774.1547 270.2943 775.6523 267.3832 774.5927Z" fill="#c7c3bd"/>
</g>
</g>
<g clip-path="url(#clip_11)">
<g clip-path="url(#clip_12)">
<path transform="matrix(1,0,0,-1,-81.5,779.7573)" d="M114.6581 703.4154 117.7295 702.7794 118.0527 704.34 114.9812 704.976ZM119.2653 702.4614 122.3367 701.8254 122.6599 703.3861 119.5884 704.022ZM123.8725 701.5075 126.9439 700.8715 127.2671 702.4321 124.1956 703.0681ZM128.4797 700.5535 131.5511 699.9175 131.8743 701.4782 128.8028 702.1141ZM133.0869 699.5995 136.1583 698.9636 136.4815 700.5242 133.41 701.1602ZM137.6941 698.6456 140.7656 698.0096 141.0887 699.5703 138.0172 700.2062ZM142.3013 697.6916 145.3728 697.0557 145.6959 698.6163 142.6244 699.2523ZM146.9085 696.7377 149.98 696.1017 150.3031 697.6624 147.2316 698.2983ZM151.5157 695.7837 154.5872 695.1478 154.9103 696.7084 151.8388 697.3444ZM156.1229 694.8298 159.1944 694.1938 159.5175 695.7545 156.446 696.3904ZM160.7301 693.8758 163.8016 693.2399 164.1247 694.8005 161.0532 695.4365ZM165.3373 692.9219 168.4088 692.2859 168.7319 693.8466 165.6604 694.4825ZM169.9445 691.9679 173.016 691.332 173.3391 692.8926 170.2676 693.5286ZM174.5517 691.014 177.6232 690.378 177.9463 691.9387 174.8748 692.5746ZM179.1589 690.06 182.2304 689.4241 182.5535 690.9847 179.482 691.6207ZM183.7661 689.1061 186.8376 688.4701 187.1607 690.0308 184.0893 690.6667ZM188.3733 688.1521 191.4448 687.5162 191.7679 689.0768 188.6965 689.7128ZM192.9805 687.1982 196.052 686.5622 196.3751 688.1229 193.3037 688.7588ZM197.5877 686.2442 200.6592 685.6083 200.9823 687.1689 197.9109 687.8049ZM202.1949 685.2903 205.2664 684.6543 205.5895 686.215 202.5181 686.8509ZM206.8021 684.3363 209.8736 683.7004 210.1967 685.261 207.1253 685.897ZM211.4093 683.3824 214.4808 682.7464 214.8039 684.3071 211.7325 684.943ZM216.0165 682.4284 219.088 681.7925 219.4111 683.3531 216.3397 683.9891ZM220.6237 681.4745 223.6952 680.8385 224.0183 682.3992 220.9469 683.0351ZM225.2309 680.5205 228.3024 679.8846 228.6255 681.4452 225.5541 682.0812ZM229.8381 679.5666 232.9096 678.9306 233.2327 680.4913 230.1613 681.1272ZM234.4453 678.6126 237.5168 677.9767 237.84 679.5373 234.7685 680.1733ZM239.0525 677.6587 242.124 677.0227 242.4472 678.5834 239.3757 679.2193ZM243.6597 676.7047 246.7312 676.0688 247.0544 677.6294 243.9829 678.2654ZM248.2669 675.7508 251.3384 675.1148 251.6616 676.6755 248.5901 677.3114ZM252.8742 674.7968 255.9456 674.1609 256.2688 675.7215 253.1973 676.3575ZM257.4814 673.8429 260.5528 673.2069 260.876 674.7676 257.8045 675.4035ZM262.0886 672.8889 265.16 672.253 265.4832 673.8136 262.4117 674.4496ZM266.6958 671.935 269.7672 671.299 270.0904 672.8597 267.0189 673.4956Z" fill="#c7c3bd"/>
</g>
</g>
<g clip-path="url(#clip_13)">
<g clip-path="url(#clip_14)">
<path transform="matrix(1,0,0,-1,-81.5,779.7573)" d="M129.0092 717.4331 132.0469 718.1156 131.6975 719.6706 128.6599 718.9881ZM133.5657 718.4569 136.6033 719.1394 136.2539 720.6944 133.2163 720.0119ZM138.1221 719.4807 141.1597 720.1632 140.8103 721.7182 137.7727 721.0357ZM142.6785 720.5045 145.7161 721.187 145.3668 722.742 142.3291 722.0595ZM147.235 721.5283 150.2726 722.2108 149.9232 723.7658 146.8856 723.0832ZM151.7914 722.5521 154.829 723.2346 154.4796 724.7896 151.442 724.107ZM156.3478 723.5759 159.3854 724.2584 159.036 725.8134 155.9984 725.1308ZM160.9042 724.5996 163.9419 725.2822 163.5925 726.8372 160.5548 726.1546ZM165.4607 725.6234 168.4983 726.306 168.1489 727.861 165.1113 727.1784ZM170.0171 726.6472 173.0547 727.3298 172.7053 728.8847 169.6677 728.2022ZM174.5735 727.671 177.6111 728.3536 177.2617 729.9085 174.2241 729.226ZM179.1299 728.6948 182.1676 729.3773 181.8182 730.9323 178.7805 730.2498ZM183.6864 729.7186 186.724 730.4011 186.3746 731.9561 183.337 731.2736ZM188.2428 730.7424 191.2804 731.4249 190.931 732.9799 187.8934 732.2974ZM192.7992 731.7662 195.8368 732.4487 195.4874 734.0037 192.4498 733.3212ZM197.3556 732.79 200.3933 733.4725 200.0439 735.0275 197.0063 734.345ZM201.9121 733.8138 204.9497 734.4963 204.6003 736.0513 201.5627 735.3688ZM206.4685 734.8376 209.5061 735.5201 209.1567 737.0751 206.1191 736.3926ZM211.0249 735.8614 214.0625 736.5439 213.7132 738.0989 210.6755 737.4164ZM215.5814 736.8852 218.619 737.5677 218.2696 739.1227 215.232 738.4401ZM220.1378 737.909 223.1754 738.5915 222.826 740.1465 219.7884 739.4639ZM224.6942 738.9328 227.7318 739.6153 227.3824 741.1703 224.3448 740.4877ZM229.2506 739.9565 232.2883 740.6391 231.9389 742.1941 228.9012 741.5115ZM233.8071 740.9803 236.8447 741.6629 236.4953 743.2179 233.4577 742.5353ZM238.3635 742.0041 241.4011 742.6867 241.0517 744.2416 238.0141 743.5591ZM242.9199 743.0279 245.9575 743.7105 245.6081 745.2654 242.5705 744.5829ZM247.4763 744.0517 250.514 744.7342 250.1646 746.2892 247.127 745.6067ZM252.0328 745.0755 255.0704 745.758 254.721 747.313 251.6834 746.6305ZM256.5892 746.0993 259.6268 746.7818 259.2774 748.3368 256.2398 747.6543ZM261.1456 747.1231 264.1832 747.8056 263.8339 749.3606 260.7962 748.6781ZM265.7021 748.1469 268.7397 748.8294 268.3903 750.3844 265.3527 749.7019ZM270.2585 749.1707 273.2961 749.8532 272.9467 751.4082 269.9091 750.7257Z" fill="#c7c3bd"/>
</g>
</g>
<g clip-path="url(#clip_15)">
<g clip-path="url(#clip_16)">
<path transform="matrix(1,0,0,-1,-81.5,779.7573)" d="M128.7401 703.4044 131.8767 703.0298 132.0657 704.6124 128.929 704.9869ZM133.4451 702.8426 136.5817 702.468 136.7707 704.0505 133.634 704.4251ZM138.1501 702.2807 141.2867 701.9061 141.4757 703.4886 138.3391 703.8632ZM142.8551 701.7188 145.9917 701.3443 146.1807 702.9268 143.0441 703.3013ZM147.5601 701.157 150.6968 700.7824 150.8857 702.3649 147.7491 702.7395ZM152.2651 700.5951 155.4018 700.2205 155.5907 701.803 152.4541 702.1776ZM156.9701 700.0332 160.1068 699.6587 160.2957 701.2412 157.1591 701.6158ZM161.6751 699.4714 164.8118 699.0968 165.0008 700.6793 161.8641 701.0539ZM166.3801 698.9095 169.5168 698.5349 169.7058 700.1175 166.5691 700.492ZM171.0851 698.3477 174.2218 697.9731 174.4108 699.5556 171.2741 699.9302ZM175.7901 697.7858 178.9268 697.4112 179.1158 698.9937 175.9791 699.3683ZM180.4951 697.2239 183.6318 696.8494 183.8208 698.4319 180.6841 698.8064ZM185.2001 696.6621 188.3368 696.2875 188.5258 697.87 185.3891 698.2446ZM189.9051 696.1002 193.0418 695.7256 193.2308 697.3081 190.0941 697.6827ZM194.6101 695.5383 197.7468 695.1638 197.9358 696.7463 194.7991 697.1209ZM199.3152 694.9765 202.4518 694.6019 202.6408 696.1844 199.5041 696.559ZM204.0202 694.4146 207.1568 694.04 207.3458 695.6226 204.2091 695.9971ZM208.7252 693.8528 211.8618 693.4782 212.0508 695.0607 208.9141 695.4353ZM213.4302 693.2909 216.5668 692.9163 216.7558 694.4988 213.6191 694.8734ZM218.1352 692.729 221.2718 692.3545 221.4608 693.937 218.3242 694.3115ZM222.8402 692.1672 225.9769 691.7926 226.1658 693.3751 223.0292 693.7497ZM227.5452 691.6053 230.6819 691.2307 230.8708 692.8132 227.7342 693.1878ZM232.2502 691.0434 235.3869 690.6689 235.5758 692.2514 232.4392 692.626ZM236.9552 690.4816 240.0919 690.107 240.2808 691.6895 237.1442 692.0641ZM241.6602 689.9197 244.7969 689.5451 244.9859 691.1277 241.8492 691.5022ZM246.3652 689.3579 249.5019 688.9833 249.6909 690.5658 246.5542 690.9404ZM251.0702 688.796 254.2069 688.4214 254.3959 690.0039 251.2592 690.3785ZM255.7752 688.2341 258.9119 687.8596 259.1009 689.4421 255.9642 689.8166ZM260.4802 687.6723 263.6169 687.2977 263.8059 688.8802 260.6692 689.2548ZM265.1852 687.1104 268.3219 686.7358 268.5109 688.3183 265.3742 688.6929ZM269.8902 686.5485 273.0269 686.174 273.2159 687.7565 270.0792 688.1311Z" fill="#c7c3bd"/>
</g>
</g>
<g clip-path="url(#clip_17)">
<path transform="matrix(1,0,0,-1,-81.5,779.7573)" d="M287.0797 675.2233C286.8215 674.8669 286.3232 674.7874 285.9668 675.0456 285.6104 675.3038 285.5309 675.802 285.7891 676.1584L355.8213 772.8166C356.0795 773.173 356.5777 773.2526 356.9341 772.9943 357.2905 772.7361 357.3701 772.2379 357.1119 771.8815Z"/>
</g>
<g clip-path="url(#clip_18)">
<path transform="matrix(1,0,0,-1,-81.5,779.7573)" d="M278.6173 766.8531V681.1868H364.2837V766.8531ZM273.1214 777.8449H369.7796C372.8149 777.8449 375.2755 775.3843 375.2755 772.349V675.6909C375.2755 672.6556 372.8149 670.195 369.7796 670.195H273.1214C270.0861 670.195 267.6255 672.6556 267.6255 675.6909V772.349C267.6255 775.3843 270.0861 777.8449 273.1214 777.8449" fill="#c7c3bd"/>
</g>
<g clip-path="url(#clip_19)">
<path transform="matrix(1,0,0,-1,-81.5,779.7573)" d="M319.3312 721.9007C318.1608 723.0711 318.1608 724.9688 319.3312 726.1392 320.5017 727.3097 322.3993 727.3097 323.5698 726.1392 324.7402 724.9688 324.7402 723.0711 323.5698 721.9007 322.3993 720.7302 320.5017 720.7302 319.3312 721.9007M339.8062 727.0709C340.4203 727.7015 341.4294 727.7148 342.0599 727.1007 342.6905 726.4866 342.7039 725.4776 342.0898 724.847L338.3495 721.0065C337.7354 720.3759 336.7264 720.3626 336.0958 720.9767 335.4652 721.5908 335.4519 722.5998 336.066 723.2304ZM339.8006 724.8172C339.17 725.4313 339.1566 726.4403 339.7708 727.0709 340.3849 727.7015 341.3939 727.7148 342.0245 727.1007L345.865 723.3605C346.4956 722.7464 346.5089 721.7374 345.8948 721.1068 345.2807 720.4762 344.2717 720.4629 343.6411 721.077ZM330.9706 706.57C331.7679 706.197 332.1118 705.2483 331.7387 704.451 331.3657 703.6538 330.417 703.3099 329.6198 703.6829L324.7641 705.9548C323.9669 706.3278 323.6229 707.2765 323.996 708.0738 324.369 708.871 325.3177 709.2149 326.1149 708.8419ZM328.8516 705.8019C329.2247 706.5991 330.1734 706.943 330.9706 706.57 331.7679 706.197 332.1118 705.2483 331.7387 704.451L329.4668 699.5954C329.0938 698.7981 328.1451 698.4542 327.3479 698.8272 326.5506 699.2003 326.2067 700.149 326.5797 700.9462Z" fill="#19b091"/>
</g>
</g>
</g>
</g>
</svg>
