<svg xmlns="http://www.w3.org/2000/svg" xmlns:xlink="http://www.w3.org/1999/xlink" xmlns:inkscape="http://www.inkscape.org/namespaces/inkscape" version="1.1" width="494.5" height="128.95984" viewBox="0 0 494.5 128.95984">
<defs>
<clipPath id="clip_0">
<path transform="matrix(1,0,0,-1,-82,734.7713)" d="M82 605.81149H576.5V734.7713H82Z" clip-rule="evenodd"/>
</clipPath>
<clipPath id="clip_1">
<path transform="matrix(1,0,0,-1,-82,734.7713)" d="M0 0H612V803.25H0Z"/>
</clipPath>
<clipPath id="clip_2">
<path transform="matrix(1,0,0,-1,-82,734.7713)" d="M0 0H612V803.25H0Z"/>
</clipPath>
<clipPath id="clip_3">
<path transform="matrix(1,0,0,-1,-82,734.7713)" d="M114.6613 685.9547C114.9914 685.9547 115.259 685.6871 115.259 685.357 115.259 685.027 114.9914 684.7594 114.6613 684.7594H84.23719C83.90712 684.7594 83.63954 685.027 83.63954 685.357 83.63954 685.6871 83.90712 685.9547 84.23719 685.9547Z"/>
</clipPath>
<clipPath id="clip_4">
<path transform="matrix(1,0,0,-1,-82,734.7713)" d="M0 0H612V803.25H0Z"/>
</clipPath>
<clipPath id="clip_5">
<path transform="matrix(1,0,0,-1,-82,734.7713)" d="M187.6051 619.5956C187.9352 619.5956 188.2028 619.328 188.2028 618.9979 188.2028 618.6679 187.9352 618.4003 187.6051 618.4003H157.181C156.8509 618.4003 156.5834 618.6679 156.5834 618.9979 156.5834 619.328 156.8509 619.5956 157.181 619.5956Z"/>
</clipPath>
<clipPath id="clip_6">
<path transform="matrix(1,0,0,-1,-82,734.7713)" d="M0 0H612V803.25H0Z"/>
</clipPath>
<clipPath id="clip_7">
<path transform="matrix(1,0,0,-1,-82,734.7713)" d="M114.6613 662.1153C114.9914 662.1153 115.259 661.8477 115.259 661.5176 115.259 661.1876 114.9914 660.92 114.6613 660.92H84.23719C83.90712 660.92 83.63954 661.1876 83.63954 661.5176 83.63954 661.8477 83.90712 662.1153 84.23719 662.1153Z"/>
</clipPath>
<clipPath id="clip_8">
<path transform="matrix(1,0,0,-1,-82,734.7713)" d="M0 0H612V803.25H0Z"/>
</clipPath>
<clipPath id="clip_9">
<path transform="matrix(1,0,0,-1,-82,734.7713)" d="M0 0H612V803.25H0Z"/>
</clipPath>
<clipPath id="clip_10">
<path transform="matrix(1,0,0,-1,-82,734.7713)" d="M510.9143 725.3448C510.9143 725.6748 511.1818 725.9424 511.5119 725.9424 511.842 725.9424 512.1096 725.6748 512.1096 725.3448V718.2106C512.1096 717.8805 511.842 717.6129 511.5119 717.6129 511.1818 717.6129 510.9143 717.8805 510.9143 718.2106Z"/>
</clipPath>
<clipPath id="clip_11">
<path transform="matrix(1,0,0,-1,-82,734.7713)" d="M0 0H612V803.25H0Z"/>
</clipPath>
<clipPath id="clip_12">
<path transform="matrix(1,0,0,-1,-82,734.7713)" d="M0 0H612V803.25H0Z"/>
</clipPath>
<clipPath id="clip_13">
<path transform="matrix(1,0,0,-1,-82,734.7713)" d="M312.8856 689.3013C312.5748 689.4123 312.4128 689.7543 312.5238 690.0651 312.6348 690.376 312.9768 690.538 313.2876 690.4269L511.7129 619.5608C512.0238 619.4498 512.1858 619.1078 512.0748 618.7969 511.9637 618.4861 511.6218 618.3241 511.3109 618.4351Z"/>
</clipPath>
<clipPath id="clip_14">
<path transform="matrix(1,0,0,-1,-82,734.7713)" d="M0 0H612V803.25H0Z"/>
</clipPath>
<clipPath id="clip_15">
<path transform="matrix(1,0,0,-1,-82,734.7713)" d="M0 0H612V803.25H0Z"/>
</clipPath>
<clipPath id="clip_16">
<path transform="matrix(1,0,0,-1,-82,734.7713)" d="M0 0H612V803.25H0Z"/>
</clipPath>
</defs>
<g>
<g clip-path="url(#clip_0)">
<text xml:space="preserve" transform="matrix(11.01329 0 -0 11.01329 21.885003 133.76862)" font-size="1" font-family="cmmi10" font-style="italic"><tspan y="-.906" x="0">A</tspan></text>
<text xml:space="preserve" transform="matrix(11.01329 0 -0 11.01329 220.3103 62.902406)" font-size="1" font-family="cmmi10" font-style="italic"><tspan y="-.906" x="0">A</tspan></text>
<text xml:space="preserve" transform="matrix(11.01329 0 -0 11.01329 418.7356 133.76862)" font-size="1" font-family="cmmi10" font-style="italic"><tspan y="-.906" x="0">A</tspan></text>
<text xml:space="preserve" transform="matrix(10.16611 0 -0 10.16611 18.978104 26.647217)" font-size="1" font-family="cmmi10" font-style="italic"><tspan y="-.906" x="0">A'</tspan></text>
<text xml:space="preserve" transform="matrix(10.16611 0 -0 10.16611 69.966709 139.06128)" font-size="1" font-family="cmmi10" font-style="italic"><tspan y="-1.306" x="0">v</tspan></text>
<text xml:space="preserve" transform="matrix(10.16611 0 -0 10.16611 37.6986 84.42108)" font-size="1" font-family="cmmi10" font-style="italic"><tspan y="-.906" x="0">A</tspan></text>
<text xml:space="preserve" transform="matrix(7.116279 0 -0 7.116279 45.323198 82.89618)" font-size="1" font-family="cmmi10" font-style="italic"><tspan y="-.906" x="0">n</tspan></text>
<text xml:space="preserve" transform="matrix(10.16611 0 -0 10.16611 37.6986 60.912599)" font-size="1" font-family="cmmi10" font-style="italic"><tspan y="-.906" x="0">A</tspan></text>
<text xml:space="preserve" transform="matrix(7.116279 0 -0 7.116279 45.323198 59.387697)" font-size="1" font-family="cmr10"><tspan y="-.906" x="0">1</tspan></text>
<text xml:space="preserve" transform="matrix(11.01329 0 -0 11.01329 432.8709 58.479616)" font-size="1" font-family="cmmi10" font-style="italic"><tspan y="-.906" x="0">A</tspan></text>
<text xml:space="preserve" transform="matrix(7.709302 0 -0 7.709302 441.13093 56.827577)" font-size="1" font-family="cmmi10" font-style="italic"><tspan y="-.906" x="0">n</tspan></text>
<text xml:space="preserve" transform="matrix(10.16611 0 -0 10.16611 465.80403 89.6626)" font-size="1" font-family="cmmi10" font-style="italic"><tspan y="-.906" x="0">s</tspan></text>
<text xml:space="preserve" transform="matrix(7.116279 0 -0 7.116279 470.5694 88.137699)" font-size="1" font-family="cmmi10" font-style="italic"><tspan y="-.906" x="0">n</tspan></text>
<text xml:space="preserve" transform="matrix(10.16611 0 -0 10.16611 477.6648 89.6626)" font-size="1" font-family="cmmi10" font-style="italic"><tspan y="-.906" x="0">&#x003c;</tspan></text>
<text xml:space="preserve" transform="matrix(10.16611 0 -0 10.16611 488.3957 89.6626)" font-size="1" font-family="cmmi10" font-style="italic"><tspan y="-.906" x="0">s</tspan></text>
<text xml:space="preserve" transform="matrix(12.70764 0 -0 12.70764 376.2458 86.17877)" font-size="1" font-family="cmmi10" font-style="italic"><tspan y="-.906" x="0">B</tspan></text>
<text xml:space="preserve" transform="matrix(11.86047 0 -0 11.86047 287.9712 70.128787)" font-size="1" font-family="cmmi10" font-style="italic"><tspan y="-.906" x="0">θ</tspan></text>
<text xml:space="preserve" transform="matrix(11.01329 0 -0 11.01329 305.9931 49.395387)" font-size="1" font-family="cmmi10" font-style="italic"><tspan y="-.906" x="0">l</tspan></text>
<text xml:space="preserve" transform="matrix(7.709302 0 -0 7.709302 309.2793 47.74341)" font-size="1" font-family="cmmi10" font-style="italic"><tspan y="-.906" x="0">n</tspan></text>
<text xml:space="preserve" transform="matrix(11.01329 0 -0 11.01329 316.9659 49.395387)" font-size="1" font-family="cmsy10" font-style="italic"><tspan y="-.906" x="0">&lt;</tspan></text>
<text xml:space="preserve" transform="matrix(11.01329 0 -0 11.01329 328.5911 49.395387)" font-size="1" font-family="cmmi10" font-style="italic"><tspan y="-.906" x="0">n</tspan></text>
<text xml:space="preserve" transform="matrix(11.01329 0 -0 11.01329 335.2017 49.395387)" font-size="1" font-family="cmmi10" font-style="italic"><tspan y="-.906" x="0">L</tspan></text>
<g clip-path="url(#clip_1)">
<g style="mix-blend-mode:darken">
<path transform="matrix(1,0,0,-1,-82,734.7713)" d="M255.796 732.3838C255.796 732.7139 256.0636 732.9815 256.3937 732.9815 256.7238 732.9815 256.9913 732.7139 256.9913 732.3838V618.9979C256.9913 618.6679 256.7238 618.4003 256.3937 618.4003 256.0636 618.4003 255.796 618.6679 255.796 618.9979Z" fill="#515c5d" fill-opacity=".42"/>
</g>
</g>
<g clip-path="url(#clip_2)">
<path transform="matrix(1,0,0,-1,-82,734.7713)" d="M115.259 618.9979C115.259 618.6679 114.9914 618.4003 114.6613 618.4003 114.3312 618.4003 114.0637 618.6679 114.0637 618.9979V718.2106C114.0637 718.5407 114.3312 718.8082 114.6613 718.8082 114.9914 718.8082 115.259 718.5407 115.259 718.2106ZM114.6613 618.4003C114.3312 618.4003 114.0637 618.6679 114.0637 618.9979 114.0637 619.328 114.3312 619.5956 114.6613 619.5956H147.6864C148.0165 619.5956 148.2841 619.328 148.2841 618.9979 148.2841 618.6679 148.0165 618.4003 147.6864 618.4003ZM147.6864 623.126 157.181 618.9979 147.6864 614.8698ZM113.5344 717.0836C112.912 717.706 112.912 718.7151 113.5344 719.3375 114.1568 719.9599 115.1659 719.9599 115.7883 719.3375 116.4107 718.7151 116.4107 717.706 115.7883 717.0836 115.1659 716.4612 114.1568 716.4612 113.5344 717.0836M111.6156 684.7594C111.2855 684.7594 111.0179 685.027 111.0179 685.357 111.0179 685.6871 111.2855 685.9547 111.6156 685.9547H117.7071C118.0371 685.9547 118.3047 685.6871 118.3047 685.357 118.3047 685.027 118.0371 684.7594 117.7071 684.7594Z"/>
</g>
<g clip-path="url(#clip_3)">
<g clip-path="url(#clip_4)">
<path transform="matrix(1,0,0,-1,-82,734.7713)" d="M114.6613 685.9547H114.6601C114.3301 685.9547 114.0625 685.6871 114.0625 685.357 114.0625 685.027 114.3301 684.7594 114.6601 684.7594H114.6613C114.9914 684.7594 115.259 685.027 115.259 685.357 115.259 685.6871 114.9914 685.9547 114.6613 685.9547M112.3211 685.9547H112.3199C111.9898 685.9547 111.7223 685.6871 111.7223 685.357 111.7223 685.027 111.9898 684.7594 112.3199 684.7594H112.3211C112.6512 684.7594 112.9187 685.027 112.9187 685.357 112.9187 685.6871 112.6512 685.9547 112.3211 685.9547M109.9809 685.9547H109.9797C109.6496 685.9547 109.382 685.6871 109.382 685.357 109.382 685.027 109.6496 684.7594 109.9797 684.7594H109.9809C110.3109 684.7594 110.5785 685.027 110.5785 685.357 110.5785 685.6871 110.3109 685.9547 109.9809 685.9547M107.6406 685.9547H107.6395C107.3094 685.9547 107.0418 685.6871 107.0418 685.357 107.0418 685.027 107.3094 684.7594 107.6395 684.7594H107.6406C107.9707 684.7594 108.2383 685.027 108.2383 685.357 108.2383 685.6871 107.9707 685.9547 107.6406 685.9547M105.3004 685.9547H105.2992C104.9692 685.9547 104.7016 685.6871 104.7016 685.357 104.7016 685.027 104.9692 684.7594 105.2992 684.7594H105.3004C105.6305 684.7594 105.8981 685.027 105.8981 685.357 105.8981 685.6871 105.6305 685.9547 105.3004 685.9547M102.9602 685.9547H102.959C102.6289 685.9547 102.3614 685.6871 102.3614 685.357 102.3614 685.027 102.6289 684.7594 102.959 684.7594H102.9602C103.2903 684.7594 103.5578 685.027 103.5578 685.357 103.5578 685.6871 103.2903 685.9547 102.9602 685.9547M100.62 685.9547H100.6188C100.2887 685.9547 100.0211 685.6871 100.0211 685.357 100.0211 685.027 100.2887 684.7594 100.6188 684.7594H100.62C100.95 684.7594 101.2176 685.027 101.2176 685.357 101.2176 685.6871 100.95 685.9547 100.62 685.9547M98.27972 685.9547H98.27856C97.94848 685.9547 97.6809 685.6871 97.6809 685.357 97.6809 685.027 97.94848 684.7594 98.27856 684.7594H98.27972C98.6098 684.7594 98.87738 685.027 98.87738 685.357 98.87738 685.6871 98.6098 685.9547 98.27972 685.9547M95.9395 685.9547H95.93833C95.60825 685.9547 95.34067 685.6871 95.34067 685.357 95.34067 685.027 95.60825 684.7594 95.93833 684.7594H95.9395C96.26957 684.7594 96.53715 685.027 96.53715 685.357 96.53715 685.6871 96.26957 685.9547 95.9395 685.9547M93.59927 685.9547H93.5981C93.26802 685.9547 93.00044 685.6871 93.00044 685.357 93.00044 685.027 93.26802 684.7594 93.5981 684.7594H93.59927C93.92935 684.7594 94.19693 685.027 94.19693 685.357 94.19693 685.6871 93.92935 685.9547 93.59927 685.9547M91.25904 685.9547H91.25787C90.9278 685.9547 90.66022 685.6871 90.66022 685.357 90.66022 685.027 90.9278 684.7594 91.25787 684.7594H91.25904C91.58912 684.7594 91.8567 685.027 91.8567 685.357 91.8567 685.6871 91.58912 685.9547 91.25904 685.9547M88.91882 685.9547H88.91765C88.58757 685.9547 88.31999 685.6871 88.31999 685.357 88.31999 685.027 88.58757 684.7594 88.91765 684.7594H88.91882C89.24889 684.7594 89.51647 685.027 89.51647 685.357 89.51647 685.6871 89.24889 685.9547 88.91882 685.9547M86.57859 685.9547H86.57742C86.24734 685.9547 85.97976 685.6871 85.97976 685.357 85.97976 685.027 86.24734 684.7594 86.57742 684.7594H86.57859C86.90867 684.7594 87.17625 685.027 87.17625 685.357 87.17625 685.6871 86.90867 685.9547 86.57859 685.9547M84.23836 685.9547H84.23719C83.90712 685.9547 83.63954 685.6871 83.63954 685.357 83.63954 685.027 83.90712 684.7594 84.23719 684.7594H84.23836C84.56844 684.7594 84.83602 685.027 84.83602 685.357 84.83602 685.6871 84.56844 685.9547 84.23836 685.9547"/>
</g>
</g>
<g clip-path="url(#clip_5)">
<g clip-path="url(#clip_6)">
<path transform="matrix(1,0,0,-1,-82,734.7713)" d="M187.6051 619.5956H187.604C187.2739 619.5956 187.0063 619.328 187.0063 618.9979 187.0063 618.6679 187.2739 618.4003 187.604 618.4003H187.6051C187.9352 618.4003 188.2028 618.6679 188.2028 618.9979 188.2028 619.328 187.9352 619.5956 187.6051 619.5956M185.2649 619.5956H185.2637C184.9337 619.5956 184.6661 619.328 184.6661 618.9979 184.6661 618.6679 184.9337 618.4003 185.2637 618.4003H185.2649C185.595 618.4003 185.8626 618.6679 185.8626 618.9979 185.8626 619.328 185.595 619.5956 185.2649 619.5956M182.9247 619.5956H182.9235C182.5934 619.5956 182.3259 619.328 182.3259 618.9979 182.3259 618.6679 182.5934 618.4003 182.9235 618.4003H182.9247C183.2548 618.4003 183.5223 618.6679 183.5223 618.9979 183.5223 619.328 183.2548 619.5956 182.9247 619.5956M180.5845 619.5956H180.5833C180.2532 619.5956 179.9856 619.328 179.9856 618.9979 179.9856 618.6679 180.2532 618.4003 180.5833 618.4003H180.5845C180.9145 618.4003 181.1821 618.6679 181.1821 618.9979 181.1821 619.328 180.9145 619.5956 180.5845 619.5956M178.2442 619.5956H178.2431C177.913 619.5956 177.6454 619.328 177.6454 618.9979 177.6454 618.6679 177.913 618.4003 178.2431 618.4003H178.2442C178.5743 618.4003 178.8419 618.6679 178.8419 618.9979 178.8419 619.328 178.5743 619.5956 178.2442 619.5956M175.904 619.5956H175.9028C175.5728 619.5956 175.3052 619.328 175.3052 618.9979 175.3052 618.6679 175.5728 618.4003 175.9028 618.4003H175.904C176.2341 618.4003 176.5017 618.6679 176.5017 618.9979 176.5017 619.328 176.2341 619.5956 175.904 619.5956M173.5638 619.5956H173.5626C173.2325 619.5956 172.965 619.328 172.965 618.9979 172.965 618.6679 173.2325 618.4003 173.5626 618.4003H173.5638C173.8939 618.4003 174.1614 618.6679 174.1614 618.9979 174.1614 619.328 173.8939 619.5956 173.5638 619.5956M171.2236 619.5956H171.2224C170.8923 619.5956 170.6247 619.328 170.6247 618.9979 170.6247 618.6679 170.8923 618.4003 171.2224 618.4003H171.2236C171.5536 618.4003 171.8212 618.6679 171.8212 618.9979 171.8212 619.328 171.5536 619.5956 171.2236 619.5956M168.8833 619.5956H168.8822C168.5521 619.5956 168.2845 619.328 168.2845 618.9979 168.2845 618.6679 168.5521 618.4003 168.8822 618.4003H168.8833C169.2134 618.4003 169.481 618.6679 169.481 618.9979 169.481 619.328 169.2134 619.5956 168.8833 619.5956M166.5431 619.5956H166.5419C166.2119 619.5956 165.9443 619.328 165.9443 618.9979 165.9443 618.6679 166.2119 618.4003 166.5419 618.4003H166.5431C166.8732 618.4003 167.1408 618.6679 167.1408 618.9979 167.1408 619.328 166.8732 619.5956 166.5431 619.5956M164.2029 619.5956H164.2017C163.8716 619.5956 163.604 619.328 163.604 618.9979 163.604 618.6679 163.8716 618.4003 164.2017 618.4003H164.2029C164.5329 618.4003 164.8005 618.6679 164.8005 618.9979 164.8005 619.328 164.5329 619.5956 164.2029 619.5956M161.8626 619.5956H161.8615C161.5314 619.5956 161.2638 619.328 161.2638 618.9979 161.2638 618.6679 161.5314 618.4003 161.8615 618.4003H161.8626C162.1927 618.4003 162.4603 618.6679 162.4603 618.9979 162.4603 619.328 162.1927 619.5956 161.8626 619.5956M159.5224 619.5956H159.5212C159.1912 619.5956 158.9236 619.328 158.9236 618.9979 158.9236 618.6679 159.1912 618.4003 159.5212 618.4003H159.5224C159.8525 618.4003 160.1201 618.6679 160.1201 618.9979 160.1201 619.328 159.8525 619.5956 159.5224 619.5956M157.1822 619.5956H157.181C156.8509 619.5956 156.5834 619.328 156.5834 618.9979 156.5834 618.6679 156.8509 618.4003 157.181 618.4003H157.1822C157.5123 618.4003 157.7798 618.6679 157.7798 618.9979 157.7798 619.328 157.5123 619.5956 157.1822 619.5956"/>
</g>
</g>
<g clip-path="url(#clip_7)">
<g clip-path="url(#clip_8)">
<path transform="matrix(1,0,0,-1,-82,734.7713)" d="M114.6613 662.1153H114.6601C114.3301 662.1153 114.0625 661.8477 114.0625 661.5176 114.0625 661.1876 114.3301 660.92 114.6601 660.92H114.6613C114.9914 660.92 115.259 661.1876 115.259 661.5176 115.259 661.8477 114.9914 662.1153 114.6613 662.1153M112.3211 662.1153H112.3199C111.9898 662.1153 111.7223 661.8477 111.7223 661.5176 111.7223 661.1876 111.9898 660.92 112.3199 660.92H112.3211C112.6512 660.92 112.9187 661.1876 112.9187 661.5176 112.9187 661.8477 112.6512 662.1153 112.3211 662.1153M109.9809 662.1153H109.9797C109.6496 662.1153 109.382 661.8477 109.382 661.5176 109.382 661.1876 109.6496 660.92 109.9797 660.92H109.9809C110.3109 660.92 110.5785 661.1876 110.5785 661.5176 110.5785 661.8477 110.3109 662.1153 109.9809 662.1153M107.6406 662.1153H107.6395C107.3094 662.1153 107.0418 661.8477 107.0418 661.5176 107.0418 661.1876 107.3094 660.92 107.6395 660.92H107.6406C107.9707 660.92 108.2383 661.1876 108.2383 661.5176 108.2383 661.8477 107.9707 662.1153 107.6406 662.1153M105.3004 662.1153H105.2992C104.9692 662.1153 104.7016 661.8477 104.7016 661.5176 104.7016 661.1876 104.9692 660.92 105.2992 660.92H105.3004C105.6305 660.92 105.8981 661.1876 105.8981 661.5176 105.8981 661.8477 105.6305 662.1153 105.3004 662.1153M102.9602 662.1153H102.959C102.6289 662.1153 102.3614 661.8477 102.3614 661.5176 102.3614 661.1876 102.6289 660.92 102.959 660.92H102.9602C103.2903 660.92 103.5578 661.1876 103.5578 661.5176 103.5578 661.8477 103.2903 662.1153 102.9602 662.1153M100.62 662.1153H100.6188C100.2887 662.1153 100.0211 661.8477 100.0211 661.5176 100.0211 661.1876 100.2887 660.92 100.6188 660.92H100.62C100.95 660.92 101.2176 661.1876 101.2176 661.5176 101.2176 661.8477 100.95 662.1153 100.62 662.1153M98.27972 662.1153H98.27856C97.94848 662.1153 97.6809 661.8477 97.6809 661.5176 97.6809 661.1876 97.94848 660.92 98.27856 660.92H98.27972C98.6098 660.92 98.87738 661.1876 98.87738 661.5176 98.87738 661.8477 98.6098 662.1153 98.27972 662.1153M95.9395 662.1153H95.93833C95.60825 662.1153 95.34067 661.8477 95.34067 661.5176 95.34067 661.1876 95.60825 660.92 95.93833 660.92H95.9395C96.26957 660.92 96.53715 661.1876 96.53715 661.5176 96.53715 661.8477 96.26957 662.1153 95.9395 662.1153M93.59927 662.1153H93.5981C93.26802 662.1153 93.00044 661.8477 93.00044 661.5176 93.00044 661.1876 93.26802 660.92 93.5981 660.92H93.59927C93.92935 660.92 94.19693 661.1876 94.19693 661.5176 94.19693 661.8477 93.92935 662.1153 93.59927 662.1153M91.25904 662.1153H91.25787C90.9278 662.1153 90.66022 661.8477 90.66022 661.5176 90.66022 661.1876 90.9278 660.92 91.25787 660.92H91.25904C91.58912 660.92 91.8567 661.1876 91.8567 661.5176 91.8567 661.8477 91.58912 662.1153 91.25904 662.1153M88.91882 662.1153H88.91765C88.58757 662.1153 88.31999 661.8477 88.31999 661.5176 88.31999 661.1876 88.58757 660.92 88.91765 660.92H88.91882C89.24889 660.92 89.51647 661.1876 89.51647 661.5176 89.51647 661.8477 89.24889 662.1153 88.91882 662.1153M86.57859 662.1153H86.57742C86.24734 662.1153 85.97976 661.8477 85.97976 661.5176 85.97976 661.1876 86.24734 660.92 86.57742 660.92H86.57859C86.90867 660.92 87.17625 661.1876 87.17625 661.5176 87.17625 661.8477 86.90867 662.1153 86.57859 662.1153M84.23836 662.1153H84.23719C83.90712 662.1153 83.63954 661.8477 83.63954 661.5176 83.63954 661.1876 83.90712 660.92 84.23719 660.92H84.23836C84.56844 660.92 84.83602 661.1876 84.83602 661.5176 84.83602 661.8477 84.56844 662.1153 84.23836 662.1153"/>
</g>
</g>
<g clip-path="url(#clip_9)">
<path transform="matrix(1,0,0,-1,-82,734.7713)" d="M111.6156 660.92C111.2855 660.92 111.0179 661.1876 111.0179 661.5176 111.0179 661.8477 111.2855 662.1153 111.6156 662.1153H117.7071C118.0371 662.1153 118.3047 661.8477 118.3047 661.5176 118.3047 661.1876 118.0371 660.92 117.7071 660.92ZM311.9597 688.7372C311.3373 689.3596 311.3373 690.3687 311.9597 690.9911 312.5821 691.6135 313.5912 691.6135 314.2136 690.9911 314.836 690.3687 314.836 689.3596 314.2136 688.7372 313.5912 688.1148 312.5821 688.1148 311.9597 688.7372M512.1096 618.9979C512.1096 618.6679 511.842 618.4003 511.5119 618.4003 511.1818 618.4003 510.9143 618.6679 510.9143 618.9979V718.2106C510.9143 718.5407 511.1818 718.8082 511.5119 718.8082 511.842 718.8082 512.1096 718.5407 512.1096 718.2106ZM510.385 617.871C509.7626 618.4934 509.7626 619.5025 510.385 620.1249 511.0074 620.7473 512.0165 620.7473 512.6389 620.1249 513.2613 619.5025 513.2613 618.4934 512.6389 617.871 512.0165 617.2486 511.0074 617.2486 510.385 617.871M313.0866 689.2665C312.7565 689.2665 312.489 689.534 312.489 689.8641 312.489 690.1942 312.7565 690.4618 313.0866 690.4618H502.0173C502.3474 690.4618 502.615 690.1942 502.615 689.8641 502.615 689.534 502.3474 689.2665 502.0173 689.2665ZM502.0173 693.9922 511.5119 689.8641 502.0173 685.736Z"/>
</g>
<g clip-path="url(#clip_10)">
<g clip-path="url(#clip_11)">
<path transform="matrix(1,0,0,-1,-82,734.7713)" d="M510.9143 725.3448V725.3436C510.9143 725.0135 511.1818 724.7459 511.5119 724.7459 511.842 724.7459 512.1096 725.0135 512.1096 725.3436V725.3448C512.1096 725.6748 511.842 725.9424 511.5119 725.9424 511.1818 725.9424 510.9143 725.6748 510.9143 725.3448M510.9143 722.9671V722.9659C510.9143 722.6358 511.1818 722.3683 511.5119 722.3683 511.842 722.3683 512.1096 722.6358 512.1096 722.9659V722.9671C512.1096 723.2972 511.842 723.5648 511.5119 723.5648 511.1818 723.5648 510.9143 723.2972 510.9143 722.9671M510.9143 720.5894V720.5882C510.9143 720.2582 511.1818 719.9906 511.5119 719.9906 511.842 719.9906 512.1096 720.2582 512.1096 720.5882V720.5894C512.1096 720.9195 511.842 721.1871 511.5119 721.1871 511.1818 721.1871 510.9143 720.9195 510.9143 720.5894M510.9143 718.2118V718.2106C510.9143 717.8805 511.1818 717.6129 511.5119 717.6129 511.842 717.6129 512.1096 717.8805 512.1096 718.2106V718.2118C512.1096 718.5418 511.842 718.8094 511.5119 718.8094 511.1818 718.8094 510.9143 718.5418 510.9143 718.2118"/>
</g>
</g>
<g clip-path="url(#clip_12)">
<path transform="matrix(1,0,0,-1,-82,734.7713)" d="M313.0329 689.4693C312.8149 689.499 312.6622 689.6997 312.6918 689.9178 312.7215 690.1358 312.9222 690.2886 313.1403 690.2589L447.8934 671.9387C448.1115 671.9091 448.2642 671.7083 448.2346 671.4902 448.2049 671.2722 448.0041 671.1195 447.7861 671.1491ZM448.3201 675.0702 455.9516 670.4411 447.3613 668.0173Z" fill="#969696"/>
</g>
<g clip-path="url(#clip_13)">
<g clip-path="url(#clip_14)">
<path transform="matrix(1,0,0,-1,-82,734.7713)" d="M312.8856 689.3013 315.1026 688.5095 315.5047 689.6351 313.2876 690.4269ZM316.2112 688.1136 318.4282 687.3218 318.8302 688.4474 316.6132 689.2392ZM319.5367 686.9259 321.7538 686.1341 322.1558 687.2597 319.9388 688.0515ZM322.8623 685.7382 325.0793 684.9464 325.4814 686.072 323.2643 686.8638ZM326.1879 684.5505 328.4049 683.7587 328.8069 684.8843 326.5899 685.6761ZM329.5134 683.3628 331.7305 682.571 332.1325 683.6966 329.9155 684.4884ZM332.839 682.1751 335.056 681.3833 335.4581 682.5089 333.241 683.3007ZM336.1646 680.9874 338.3816 680.1956 338.7836 681.3212 336.5666 682.113ZM339.4901 679.7997 341.7072 679.0079 342.1092 680.1335 339.8921 680.9253ZM342.8157 678.612 345.0327 677.8202 345.4347 678.9458 343.2177 679.7376ZM346.1412 677.4243 348.3583 676.6325 348.7603 677.7581 346.5433 678.5499ZM349.4668 676.2366 351.6838 675.4448 352.0859 676.5704 349.8688 677.3622ZM352.7924 675.0489 355.0094 674.2571 355.4114 675.3827 353.1944 676.1745ZM356.1179 673.8612 358.335 673.0694 358.737 674.195 356.52 674.9868ZM359.4435 672.6735 361.6605 671.8817 362.0626 673.0073 359.8455 673.7991ZM362.7691 671.4858 364.9861 670.694 365.3881 671.8196 363.1711 672.6114ZM366.0946 670.2981 368.3117 669.5063 368.7137 670.6319 366.4967 671.4237ZM369.4202 669.1104 371.6372 668.3186 372.0393 669.4442 369.8222 670.236ZM372.7458 667.9226 374.9628 667.1308 375.3648 668.2565 373.1478 669.0483ZM376.0713 666.7349 378.2884 665.9431 378.6904 667.0688 376.4733 667.8606ZM379.3969 665.5472 381.6139 664.7554 382.0159 665.8811 379.7989 666.6729ZM382.7224 664.3595 384.9395 663.5677 385.3415 664.6934 383.1245 665.4852ZM386.048 663.1718 388.265 662.38 388.6671 663.5057 386.45 664.2975ZM389.3736 661.9841 391.5906 661.1923 391.9926 662.318 389.7756 663.1098ZM392.6991 660.7964 394.9162 660.0046 395.3182 661.1303 393.1012 661.9221ZM396.0247 659.6087 398.2417 658.8169 398.6438 659.9426 396.4267 660.7344ZM399.3503 658.421 401.5673 657.6292 401.9693 658.7549 399.7523 659.5467ZM402.6758 657.2333 404.8929 656.4415 405.2949 657.5672 403.0779 658.359ZM406.0014 656.0456 408.2184 655.2538 408.6205 656.3795 406.4034 657.1713ZM409.327 654.8579 411.544 654.0661 411.946 655.1918 409.729 655.9836ZM412.6525 653.6702 414.8696 652.8784 415.2716 654.0041 413.0545 654.7959ZM415.9781 652.4825 418.1951 651.6907 418.5972 652.8164 416.3801 653.6082ZM419.3036 651.2948 421.5207 650.503 421.9227 651.6287 419.7057 652.4205ZM422.6292 650.1071 424.8463 649.3153 425.2483 650.441 423.0312 651.2328ZM425.9548 648.9194 428.1718 648.1276 428.5738 649.2533 426.3568 650.0451ZM429.2803 647.7317 431.4974 646.9399 431.8994 648.0656 429.6824 648.8574ZM432.6059 646.544 434.8229 645.7522 435.225 646.8779 433.0079 647.6697ZM435.9315 645.3563 438.1485 644.5645 438.5505 645.6902 436.3335 646.482ZM439.257 644.1686 441.4741 643.3768 441.8761 644.5025 439.6591 645.2943ZM442.5826 642.9809 444.7996 642.1891 445.2017 643.3148 442.9846 644.1066ZM445.9082 641.7932 448.1252 641.0014 448.5272 642.1271 446.3102 642.9189ZM449.2337 640.6055 451.4508 639.8137 451.8528 640.9394 449.6357 641.7312ZM452.5593 639.4178 454.7763 638.626 455.1784 639.7517 452.9613 640.5435ZM455.8848 638.2301 458.1019 637.4383 458.5039 638.564 456.2869 639.3558ZM459.2104 637.0424 461.4275 636.2506 461.8295 637.3763 459.6124 638.1681ZM462.536 635.8547 464.753 635.0629 465.155 636.1886 462.938 636.9804ZM465.8615 634.667 468.0786 633.8752 468.4806 635.0009 466.2636 635.7927ZM469.1871 633.4793 471.4041 632.6875 471.8062 633.8132 469.5891 634.605ZM472.5127 632.2916 474.7297 631.4998 475.1317 632.6255 472.9147 633.4173ZM475.8382 631.1039 478.0553 630.3121 478.4573 631.4378 476.2403 632.2296ZM479.1638 629.9162 481.3808 629.1244 481.7829 630.2501 479.5658 631.0419ZM482.4894 628.7285 484.7064 627.9367 485.1084 629.0624 482.8914 629.8542ZM485.8149 627.5408 488.032 626.749 488.434 627.8747 486.2169 628.6665ZM489.1405 626.3531 491.3575 625.5613 491.7596 626.687 489.5425 627.4788ZM492.466 625.1654 494.6831 624.3736 495.0851 625.4993 492.8681 626.2911ZM495.7916 623.9777 498.0087 623.1859 498.4107 624.3116 496.1936 625.1034ZM499.1172 622.79 501.3342 621.9982 501.7362 623.1239 499.5192 623.9157ZM502.4427 621.6023 504.6598 620.8105 505.0618 621.9362 502.8448 622.728ZM505.7683 620.4146 507.9853 619.6228 508.3874 620.7485 506.1703 621.5403ZM509.0939 619.2269 511.3109 618.4351 511.7129 619.5608 509.4959 620.3526Z"/>
</g>
</g>
<g clip-path="url(#clip_15)">
<path transform="matrix(1,0,0,-1,-82,734.7713)" d="M539.2607 689.8641C539.2607 690.1942 539.5283 690.4618 539.8584 690.4618 540.1885 690.4618 540.4561 690.1942 540.4561 689.8641V618.9979C540.4561 618.6679 540.1885 618.4003 539.8584 618.4003 539.5283 618.4003 539.2607 618.6679 539.2607 618.9979ZM536.3151 689.2665C535.985 689.2665 535.7174 689.534 535.7174 689.8641 535.7174 690.1942 535.985 690.4618 536.3151 690.4618H543.4017C543.7318 690.4618 543.9994 690.1942 543.9994 689.8641 543.9994 689.534 543.7318 689.2665 543.4017 689.2665ZM536.3151 618.4003C535.985 618.4003 535.7174 618.6679 535.7174 618.9979 535.7174 619.328 535.985 619.5956 536.3151 619.5956H543.4017C543.7318 619.5956 543.9994 619.328 543.9994 618.9979 543.9994 618.6679 543.7318 618.4003 543.4017 618.4003ZM380.4592 689.5917C380.3087 689.8854 380.4249 690.2456 380.7187 690.3961 381.0125 690.5465 381.3726 690.4304 381.5231 690.1366 386.1214 681.1589 384.4471 673.3438 376.5433 666.8737 376.2879 666.6647 375.9114 666.7022 375.7023 666.9576 375.4932 667.213 375.5308 667.5896 375.7862 667.7987 383.2564 673.9138 384.7997 681.1174 380.4592 689.5917M453.2347 672.3127C453.0013 672.5461 453.0013 672.9245 453.2347 673.1579 453.4681 673.3913 453.8465 673.3913 454.0799 673.1579L458.6684 668.5695C458.9018 668.3361 458.9018 667.9577 458.6684 667.7243 458.435 667.4909 458.0566 667.4909 457.8232 667.7243ZM454.0799 667.7243C453.8465 667.4909 453.4681 667.4909 453.2347 667.7243 453.0013 667.9577 453.0013 668.3361 453.2347 668.5695L457.8232 673.1579C458.0566 673.3913 458.435 673.3913 458.6684 673.1579 458.9018 672.9245 458.9018 672.5461 458.6684 672.3127ZM112.7897 616.2811C112.5563 616.0477 112.1779 616.0477 111.9445 616.2811 111.7111 616.5145 111.7111 616.8929 111.9445 617.1263L116.5329 621.7148C116.7663 621.9482 117.1447 621.9482 117.3781 621.7148 117.6115 621.4814 117.6115 621.1029 117.3781 620.8695ZM111.9445 620.8695C111.7111 621.1029 111.7111 621.4814 111.9445 621.7148 112.1779 621.9482 112.5563 621.9482 112.7897 621.7148L117.3781 617.1263C117.6115 616.8929 117.6115 616.5145 117.3781 616.2811 117.1447 616.0477 116.7663 616.0477 116.5329 616.2811Z"/>
</g>
<g clip-path="url(#clip_16)">
<path transform="matrix(1,0,0,-1,-82,734.7713)" d="M313.044 689.268C312.7148 689.2915 312.467 689.5775 312.4905 689.9067 312.514 690.2359 312.8 690.4838 313.1292 690.4602L502.0836 676.9635C502.4129 676.94 502.6607 676.654 502.6372 676.3248 502.6137 675.9955 502.3277 675.7477 501.9985 675.7712ZM502.3356 680.4849 511.5119 675.6909 501.7473 672.2497Z" fill="#969696"/>
</g>
</g>
</g>
</svg>
