<svg xmlns="http://www.w3.org/2000/svg" xmlns:xlink="http://www.w3.org/1999/xlink" xmlns:inkscape="http://www.inkscape.org/namespaces/inkscape" version="1.1" width="276.5" height="106.966739" viewBox="0 0 276.5 106.966739">
<defs>
<clipPath id="clip_0">
<path transform="matrix(1,0,0,-1,-138,757.76419)" d="M138 650.7974H414.5V757.76419H138Z" clip-rule="evenodd"/>
</clipPath>
<clipPath id="clip_1">
<path transform="matrix(1,0,0,-1,-138,757.76419)" d="M0 0H612V803.25H0Z"/>
</clipPath>
<clipPath id="clip_2">
<path transform="matrix(1,0,0,-1,-138,757.76419)" d="M194.8083 675.6909C194.8083 667.0458 190.1311 659.493 183.1688 655.4255 179.6993 653.3985 175.6625 652.2368 171.3543 652.2368 162.7092 652.2368 155.1564 656.9141 151.0889 663.8763 149.0619 667.3459 147.9002 671.3827 147.9002 675.6909 147.9002 684.336 152.5774 691.8888 159.5397 695.9563 163.0092 697.9832 167.0461 699.145 171.3543 699.145 179.9994 699.145 187.5521 694.4677 191.6196 687.5054 193.6466 684.0359 194.8083 679.9991 194.8083 675.6909M193.613 675.6909C193.613 679.7791 192.5111 683.61 190.5875 686.9025 186.7272 693.5102 179.5592 697.9497 171.3543 697.9497 167.266 697.9497 163.4351 696.8477 160.1427 694.9242 153.535 691.0638 149.0955 683.8959 149.0955 675.6909 149.0955 671.6026 150.1975 667.7717 152.121 664.4793 155.9813 657.8716 163.1493 653.4321 171.3543 653.4321 175.4425 653.4321 179.2734 654.5341 182.5658 656.4576 189.1735 660.3179 193.613 667.4859 193.613 675.6909"/>
</clipPath>
<clipPath id="clip_3">
<path transform="matrix(1,0,0,-1,-138,757.76419)" d="M0 0H612V803.25H0Z"/>
</clipPath>
<clipPath id="clip_4">
<path transform="matrix(1,0,0,-1,-138,757.76419)" d="M171.8861 697.9436C171.556 697.9436 171.2885 698.2112 171.2885 698.5412 171.2885 698.8713 171.556 699.1389 171.8861 699.1389H256.3662C256.6963 699.1389 256.9639 698.8713 256.9639 698.5412 256.9639 698.2112 256.6963 697.9436 256.3662 697.9436Z"/>
</clipPath>
<clipPath id="clip_5">
<path transform="matrix(1,0,0,-1,-138,757.76419)" d="M0 0H612V803.25H0Z"/>
</clipPath>
<clipPath id="clip_6">
<path transform="matrix(1,0,0,-1,-138,757.76419)" d="M255.7686 698.5412C255.7686 698.8713 256.0362 699.1389 256.3662 699.1389 256.6963 699.1389 256.9639 698.8713 256.9639 698.5412V652.8443C256.9639 652.5142 256.6963 652.2467 256.3662 652.2467 256.0362 652.2467 255.7686 652.5142 255.7686 652.8443Z"/>
</clipPath>
<clipPath id="clip_7">
<path transform="matrix(1,0,0,-1,-138,757.76419)" d="M0 0H612V803.25H0Z"/>
</clipPath>
<clipPath id="clip_8">
<path transform="matrix(1,0,0,-1,-138,757.76419)" d="M171.9103 652.2467C171.5802 652.2467 171.3126 652.5142 171.3126 652.8443 171.3126 653.1744 171.5802 653.442 171.9103 653.442H256.3904C256.7205 653.442 256.9881 653.1744 256.9881 652.8443 256.9881 652.5142 256.7205 652.2467 256.3904 652.2467Z"/>
</clipPath>
<clipPath id="clip_9">
<path transform="matrix(1,0,0,-1,-138,757.76419)" d="M0 0H612V803.25H0Z"/>
</clipPath>
<clipPath id="clip_10">
<path transform="matrix(1,0,0,-1,-138,757.76419)" d="M0 0H612V803.25H0Z"/>
</clipPath>
<clipPath id="clip_11">
<path transform="matrix(1,0,0,-1,-138,757.76419)" d="M322.3675 732.3838C322.3675 723.7387 317.6902 716.1859 310.7279 712.1184 307.2584 710.0915 303.2216 708.9297 298.9134 708.9297 290.2683 708.9297 282.7155 713.607 278.648 720.5693 276.6211 724.0388 275.4593 728.0756 275.4593 732.3838 275.4593 741.0289 280.1366 748.5817 287.0988 752.6492 290.5684 754.6761 294.6052 755.8379 298.9134 755.8379 307.5585 755.8379 315.1113 751.1606 319.1788 744.1984 321.2057 740.7288 322.3675 736.692 322.3675 732.3838M321.1722 732.3838C321.1722 736.4721 320.0702 740.3029 318.1467 743.5954 314.2863 750.2031 307.1184 754.6426 298.9134 754.6426 294.8251 754.6426 290.9943 753.5406 287.7018 751.6171 281.0941 747.7568 276.6546 740.5888 276.6546 732.3838 276.6546 728.2956 277.7566 724.4647 279.6801 721.1722 283.5404 714.5645 290.7084 710.125 298.9134 710.125 303.0016 710.125 306.8325 711.227 310.125 713.1505 316.7327 717.0109 321.1722 724.1788 321.1722 732.3838"/>
</clipPath>
<clipPath id="clip_12">
<path transform="matrix(1,0,0,-1,-138,757.76419)" d="M0 0H612V803.25H0Z"/>
</clipPath>
<clipPath id="clip_13">
<path transform="matrix(1,0,0,-1,-138,757.76419)" d="M299.4452 754.6365C299.1152 754.6365 298.8476 754.9041 298.8476 755.2342 298.8476 755.5643 299.1152 755.8318 299.4452 755.8318H383.9254C384.2554 755.8318 384.523 755.5643 384.523 755.2342 384.523 754.9041 384.2554 754.6365 383.9254 754.6365Z"/>
</clipPath>
<clipPath id="clip_14">
<path transform="matrix(1,0,0,-1,-138,757.76419)" d="M0 0H612V803.25H0Z"/>
</clipPath>
<clipPath id="clip_15">
<path transform="matrix(1,0,0,-1,-138,757.76419)" d="M383.3277 755.2342C383.3277 755.5643 383.5953 755.8318 383.9254 755.8318 384.2554 755.8318 384.523 755.5643 384.523 755.2342V709.5373C384.523 709.2072 384.2554 708.9396 383.9254 708.9396 383.5953 708.9396 383.3277 709.2072 383.3277 709.5373Z"/>
</clipPath>
<clipPath id="clip_16">
<path transform="matrix(1,0,0,-1,-138,757.76419)" d="M0 0H612V803.25H0Z"/>
</clipPath>
<clipPath id="clip_17">
<path transform="matrix(1,0,0,-1,-138,757.76419)" d="M299.4694 708.9396C299.1394 708.9396 298.8718 709.2072 298.8718 709.5373 298.8718 709.8673 299.1394 710.1349 299.4694 710.1349H383.9495C384.2796 710.1349 384.5472 709.8673 384.5472 709.5373 384.5472 709.2072 384.2796 708.9396 383.9495 708.9396Z"/>
</clipPath>
<clipPath id="clip_18">
<path transform="matrix(1,0,0,-1,-138,757.76419)" d="M0 0H612V803.25H0Z"/>
</clipPath>
<clipPath id="clip_19">
<path transform="matrix(1,0,0,-1,-138,757.76419)" d="M0 0H612V803.25H0Z"/>
</clipPath>
</defs>
<g clip-path="url(#clip_0)">
<text xml:space="preserve" transform="matrix(11.01329 0 -0 11.01329 22.578003 100.06854)" font-size="1" font-family="cmmi10" font-style="italic"><tspan y="-.906" x="0">A</tspan></text>
<text xml:space="preserve" transform="matrix(10.16611 0 -0 10.16611 150.1449 30.35376)" font-size="1" font-family="cmmi10" font-style="italic"><tspan y="-.906" x="0">B</tspan></text>
<text xml:space="preserve" transform="matrix(13.55482 0 -0 13.55482 103.9583 88.83948)" font-size="1" font-family="cmmi10" font-style="italic"><tspan y="-.906" x="0">v</tspan></text>
<text xml:space="preserve" transform="matrix(13.55482 0 -0 13.55482 231.5174 32.146486)" font-size="1" font-family="cmmi10" font-style="italic"><tspan y="-.906" x="0">v</tspan></text>
<text xml:space="preserve" transform="matrix(11.01329 0 -0 11.01329 1.615799 37.130739)" font-size="1" font-family="cmr10"><tspan y="-.906" x="0">n</tspan></text>
<text xml:space="preserve" transform="matrix(11.01329 0 -0 11.01329 7.7342989 37.130739)" font-size="1" font-family="cmr10"><tspan y="-.906" x="0">o</tspan></text>
<text xml:space="preserve" transform="matrix(11.01329 0 -0 11.01329 13.240997 37.130739)" font-size="1" font-family="cmr10"><tspan y="-.906" x="0">t</tspan></text>
<text xml:space="preserve" transform="matrix(11.01329 0 -0 11.01329 21.195008 37.130739)" font-size="1" font-family="cmr10"><tspan y="-.906" x="0">c</tspan></text>
<text xml:space="preserve" transform="matrix(11.01329 0 -0 11.01329 26.089798 37.130739)" font-size="1" font-family="cmr10"><tspan y="-.906" x="0">l</tspan></text>
<text xml:space="preserve" transform="matrix(11.01329 0 -0 11.01329 29.149094 37.130739)" font-size="1" font-family="cmr10"><tspan y="-.906" x="0">o</tspan></text>
<text xml:space="preserve" transform="matrix(11.01329 0 -0 11.01329 34.655809 37.130739)" font-size="1" font-family="cmr10"><tspan y="-.906" x="0">s</tspan></text>
<text xml:space="preserve" transform="matrix(11.01329 0 -0 11.01329 38.999895 37.130739)" font-size="1" font-family="cmr10"><tspan y="-.906" x="0">e</tspan></text>
<text xml:space="preserve" transform="matrix(11.01329 0 -0 11.01329 47.565797 37.130739)" font-size="1" font-family="cmr10"><tspan y="-.906" x="0">t</tspan></text>
<text xml:space="preserve" transform="matrix(11.01329 0 -0 11.01329 51.8488 37.130739)" font-size="1" font-family="cmr10"><tspan y="-.906" x="0">o</tspan></text>
<text xml:space="preserve" transform="matrix(11.01329 0 -0 11.01329 61.026597 37.130739)" font-size="1" font-family="cmmi10" font-style="italic"><tspan y="-.906" x="0">v</tspan></text>
<text xml:space="preserve" transform="matrix(13.55482 0 -0 13.55482 269.0843 27.970276)" font-size="1" font-family="cmmi10" font-style="italic"><tspan y="-.906" x="0">ε</tspan></text>
<g clip-path="url(#clip_1)">
<path transform="matrix(1,0,0,-1,-138,757.76419)" d="M171.3543 675.0932C171.0242 675.0932 170.7566 675.3608 170.7566 675.6909 170.7566 676.021 171.0242 676.2885 171.3543 676.2885H246.8991C247.2291 676.2885 247.4967 676.021 247.4967 675.6909 247.4967 675.3608 247.2291 675.0932 246.8991 675.0932ZM246.8991 679.819 256.3937 675.6909 246.8991 671.5628ZM169.4826 672.9741C169.2492 672.7407 168.8708 672.7407 168.6374 672.9741 168.404 673.2074 168.404 673.5859 168.6374 673.8193L173.2259 678.4077C173.4593 678.6411 173.8377 678.6411 174.0711 678.4077 174.3045 678.1743 174.3045 677.7959 174.0711 677.5625ZM168.6374 677.5625C168.404 677.7959 168.404 678.1743 168.6374 678.4077 168.8708 678.6411 169.2492 678.6411 169.4826 678.4077L174.0711 673.8193C174.3045 673.5859 174.3045 673.2074 174.0711 672.9741 173.8377 672.7407 173.4593 672.7407 173.2259 672.9741Z"/>
</g>
<g clip-path="url(#clip_2)">
<g clip-path="url(#clip_3)">
<path transform="matrix(1,0,0,-1,-138,757.76419)" d="M193.613 675.6909C193.613 674.9092 193.5728 674.1326 193.4928 673.3631L194.6817 673.2396C194.7659 674.0501 194.8083 674.868 194.8083 675.6909ZM193.3421 672.2074C193.2212 671.4375 193.0601 670.6769 192.8599 669.928L194.0147 669.6193C194.2257 670.4088 194.3955 671.2104 194.523 672.0218ZM192.5295 668.8106C192.2892 668.0707 192.0103 667.3449 191.6941 666.6357L192.7858 666.1489C193.1191 666.8964 193.4131 667.6615 193.6664 668.4414ZM191.1917 665.5842C190.8383 664.8919 190.4487 664.2187 190.0248 663.5673L191.0267 662.9154C191.4734 663.6017 191.8839 664.3111 192.2563 665.0407ZM189.3638 662.6073C188.9065 661.9788 188.4165 661.3745 187.8961 660.797L188.7842 659.9969C189.3323 660.6053 189.8485 661.2419 190.3303 661.9039ZM187.0936 659.9515C186.5439 659.4019 185.9659 658.8811 185.3621 658.3916L186.1149 657.4631C186.7509 657.9787 187.3598 658.5273 187.9388 659.1063ZM184.4379 657.6813C183.8094 657.2239 183.1574 656.7996 182.4847 656.4104L183.0833 655.3758C183.7921 655.7859 184.4791 656.2329 185.1412 656.7148ZM181.4609 655.8534C180.7691 655.5002 180.0589 655.1835 179.333 654.9046L179.7616 653.7888C180.5267 654.0827 181.2753 654.4166 182.0044 654.7888ZM178.2346 654.5157C177.4968 654.2761 176.7457 654.0752 175.9838 653.9141L176.2312 652.7446C177.0343 652.9145 177.826 653.1263 178.6037 653.3788ZM174.8378 653.703C174.0729 653.5828 173.2996 653.5023 172.5199 653.4621L172.5814 652.2684C173.4027 652.3107 174.2174 652.3956 175.0233 652.5222ZM171.3543 653.4321C170.5726 653.4321 169.796 653.4724 169.0265 653.5523L168.9029 652.3634C169.7135 652.2792 170.5313 652.2368 171.3543 652.2368ZM167.8707 653.703C167.1009 653.824 166.3403 653.985 165.5914 654.1852L165.2827 653.0304C166.0722 652.8194 166.8738 652.6497 167.6852 652.5222ZM164.474 654.5157C163.7341 654.7559 163.0083 655.0348 162.2991 655.351L161.8123 654.2593C162.5598 653.926 163.3249 653.632 164.1048 653.3788ZM161.2476 655.8534C160.5553 656.2068 159.8821 656.5964 159.2307 657.0203L158.5787 656.0184C159.2651 655.5718 159.9745 655.1613 160.7041 654.7888ZM158.2707 657.6813C157.6422 658.1387 157.0379 658.6286 156.4604 659.149L155.6603 658.261C156.2687 657.7128 156.9052 657.1967 157.5673 656.7148ZM155.6149 659.9515C155.0652 660.5012 154.5445 661.0792 154.0549 661.683L153.1264 660.9302C153.6421 660.2942 154.1907 659.6854 154.7697 659.1063ZM153.3447 662.6073C152.8873 663.2358 152.463 663.8877 152.0738 664.5605L151.0392 663.9619C151.4493 663.253 151.8963 662.5661 152.3782 661.9039ZM151.5168 665.5842C151.1636 666.276 150.8468 666.9862 150.568 667.7121L149.4522 667.2836C149.7461 666.5184 150.0799 665.7699 150.4522 665.0407ZM150.1791 668.8106C149.9395 669.5483 149.7386 670.2994 149.5775 671.0613L148.408 670.8139C148.5779 670.0108 148.7896 669.2191 149.0422 668.4414ZM149.3664 672.2074C149.2462 672.9722 149.1657 673.7455 149.1255 674.5253L147.9317 674.4637C147.9741 673.6424 148.0589 672.8277 148.1856 672.0218ZM149.0955 675.6909C149.0955 676.4725 149.1357 677.2491 149.2157 678.0187L148.0268 678.1422C147.9426 677.3316 147.9002 676.5138 147.9002 675.6909ZM149.3664 679.1744C149.4874 679.9443 149.6484 680.7048 149.8486 681.4538L148.6938 681.7624C148.4828 680.973 148.3131 680.1713 148.1856 679.3599ZM150.1791 682.5712C150.4193 683.3111 150.6982 684.0369 151.0144 684.746L149.9227 685.2328C149.5894 684.4853 149.2954 683.7202 149.0422 682.9403ZM151.5168 685.7975C151.8702 686.4899 152.2598 687.1631 152.6837 687.8145L151.6818 688.4664C151.2352 687.78 150.8247 687.0706 150.4522 686.341ZM153.3447 688.7745C153.8021 689.4029 154.292 690.0072 154.8124 690.5848L153.9243 691.3849C153.3762 690.7765 152.86 690.1399 152.3782 689.4778ZM155.6149 691.4302C156.1646 691.9799 156.7426 692.5007 157.3464 692.9902L156.5936 693.9187C155.9576 693.403 155.3487 692.8544 154.7697 692.2754ZM158.2707 693.7004C158.8991 694.1578 159.5511 694.5821 160.2239 694.9714L159.6253 696.006C158.9164 695.5958 158.2295 695.1488 157.5673 694.6669ZM161.2476 695.5283C161.9394 695.8815 162.6496 696.1983 163.3755 696.4771L162.9469 697.5929C162.1818 697.2991 161.4332 696.9652 160.7041 696.5929ZM164.474 696.8661C165.2117 697.1056 165.9628 697.3065 166.7247 697.4677L166.4773 698.6371C165.6742 698.4672 164.8825 698.2555 164.1048 698.003ZM167.8707 697.6787C168.6356 697.7989 169.4089 697.8795 170.1887 697.9197L170.1271 699.1134C169.3058 699.071 168.4911 698.9862 167.6852 698.8596ZM171.3543 697.9497C172.1359 697.9497 172.9125 697.9094 173.6821 697.8294L173.8056 699.0184C172.995 699.1026 172.1772 699.145 171.3543 699.145ZM174.8378 697.6787C175.6076 697.5578 176.3682 697.3967 177.1172 697.1966L177.4258 698.3513C176.6364 698.5623 175.8347 698.7321 175.0233 698.8596ZM178.2346 696.8661C178.9744 696.6259 179.7003 696.347 180.4094 696.0308L180.8962 697.1225C180.1487 697.4558 179.3836 697.7497 178.6037 698.003ZM181.4609 695.5283C182.1532 695.1749 182.8264 694.7853 183.4779 694.3615L184.1298 695.3633C183.4434 695.81 182.734 696.2205 182.0044 696.5929ZM184.4379 693.7004C185.0663 693.2431 185.6706 692.7531 186.2482 692.2328L187.0483 693.1208C186.4399 693.6689 185.8033 694.1851 185.1412 694.6669ZM187.0936 691.4302C187.6433 690.8805 188.1641 690.3025 188.6536 689.6987L189.5821 690.4515C189.0664 691.0876 188.5178 691.6964 187.9388 692.2754ZM189.3638 688.7745C189.8212 688.146 190.2455 687.494 190.6347 686.8213L191.6694 687.4199C191.2592 688.1288 190.8122 688.8157 190.3303 689.4778ZM191.1917 685.7975C191.5449 685.1057 191.8617 684.3955 192.1405 683.6696L193.2563 684.0982C192.9624 684.8633 192.6286 685.6119 192.2563 686.341ZM192.5295 682.5712C192.769 681.8334 192.9699 681.0824 193.131 680.3205L194.3005 680.5678C194.1306 681.3709 193.9189 682.1626 193.6664 682.9403ZM193.3421 679.1744C193.4623 678.4096 193.5428 677.6362 193.5831 676.8565L194.7768 676.918C194.7344 677.7393 194.6496 678.5541 194.523 679.3599Z"/>
</g>
</g>
<g clip-path="url(#clip_4)">
<g clip-path="url(#clip_5)">
<path transform="matrix(1,0,0,-1,-138,757.76419)" d="M171.8861 697.9436H174.1694V699.1389H171.8861ZM175.311 697.9436H177.5942V699.1389H175.311ZM178.7359 697.9436H181.0191V699.1389H178.7359ZM182.1607 697.9436H184.444V699.1389H182.1607ZM185.5856 697.9436H187.8688V699.1389H185.5856ZM189.0105 697.9436H191.2937V699.1389H189.0105ZM192.4353 697.9436H194.7186V699.1389H192.4353ZM195.8602 697.9436H198.1435V699.1389H195.8602ZM199.2851 697.9436H201.5683V699.1389H199.2851ZM202.7099 697.9436H204.9932V699.1389H202.7099ZM206.1348 697.9436H208.4181V699.1389H206.1348ZM209.5597 697.9436H211.8429V699.1389H209.5597ZM212.9846 697.9436H215.2678V699.1389H212.9846ZM216.4094 697.9436H218.6927V699.1389H216.4094ZM219.8343 697.9436H222.1175V699.1389H219.8343ZM223.2592 697.9436H225.5424V699.1389H223.2592ZM226.684 697.9436H228.9673V699.1389H226.684ZM230.1089 697.9436H232.3922V699.1389H230.1089ZM233.5338 697.9436H235.817V699.1389H233.5338ZM236.9586 697.9436H239.2419V699.1389H236.9586ZM240.3835 697.9436H242.6668V699.1389H240.3835ZM243.8084 697.9436H246.0916V699.1389H243.8084ZM247.2333 697.9436H249.5165V699.1389H247.2333ZM250.6581 697.9436H252.9414V699.1389H250.6581ZM254.083 697.9436H256.3662V699.1389H254.083Z"/>
</g>
</g>
<g clip-path="url(#clip_6)">
<g clip-path="url(#clip_7)">
<path transform="matrix(1,0,0,-1,-138,757.76419)" d="M255.7686 698.5412V696.3121H256.9639V698.5412ZM255.7686 695.1976V692.9684H256.9639V695.1976ZM255.7686 691.8539V689.6248H256.9639V691.8539ZM255.7686 688.5102V686.2811H256.9639V688.5102ZM255.7686 685.1665V682.9374H256.9639V685.1665ZM255.7686 681.8229V679.5937H256.9639V681.8229ZM255.7686 678.4792V676.2501H256.9639V678.4792ZM255.7686 675.1355V672.9064H256.9639V675.1355ZM255.7686 671.7918V669.5627H256.9639V671.7918ZM255.7686 668.4481V666.219H256.9639V668.4481ZM255.7686 665.1045V662.8753H256.9639V665.1045ZM255.7686 661.7608V659.5317H256.9639V661.7608ZM255.7686 658.4171V656.188H256.9639V658.4171ZM255.7686 655.0734V652.8443H256.9639V655.0734Z"/>
</g>
</g>
<g clip-path="url(#clip_8)">
<g clip-path="url(#clip_9)">
<path transform="matrix(1,0,0,-1,-138,757.76419)" d="M171.9103 652.2467H174.1936V653.442H171.9103ZM175.3352 652.2467H177.6184V653.442H175.3352ZM178.76 652.2467H181.0433V653.442H178.76ZM182.1849 652.2467H184.4682V653.442H182.1849ZM185.6098 652.2467H187.893V653.442H185.6098ZM189.0347 652.2467H191.3179V653.442H189.0347ZM192.4595 652.2467H194.7428V653.442H192.4595ZM195.8844 652.2467H198.1676V653.442H195.8844ZM199.3093 652.2467H201.5925V653.442H199.3093ZM202.7341 652.2467H205.0174V653.442H202.7341ZM206.159 652.2467H208.4422V653.442H206.159ZM209.5839 652.2467H211.8671V653.442H209.5839ZM213.0087 652.2467H215.292V653.442H213.0087ZM216.4336 652.2467H218.7169V653.442H216.4336ZM219.8585 652.2467H222.1417V653.442H219.8585ZM223.2833 652.2467H225.5666V653.442H223.2833ZM226.7082 652.2467H228.9915V653.442H226.7082ZM230.1331 652.2467H232.4163V653.442H230.1331ZM233.558 652.2467H235.8412V653.442H233.558ZM236.9828 652.2467H239.2661V653.442H236.9828ZM240.4077 652.2467H242.6909V653.442H240.4077ZM243.8326 652.2467H246.1158V653.442H243.8326ZM247.2574 652.2467H249.5407V653.442H247.2574ZM250.6823 652.2467H252.9656V653.442H250.6823ZM254.1072 652.2467H256.3904V653.442H254.1072Z"/>
</g>
</g>
<g clip-path="url(#clip_10)">
<path transform="matrix(1,0,0,-1,-138,757.76419)" d="M298.9134 731.7862C298.5833 731.7862 298.3157 732.0537 298.3157 732.3838 298.3157 732.7139 298.5833 732.9815 298.9134 732.9815H374.4582C374.7883 732.9815 375.0558 732.7139 375.0558 732.3838 375.0558 732.0537 374.7883 731.7862 374.4582 731.7862ZM374.4582 736.5119 383.9528 732.3838 374.4582 728.2557ZM297.3989 730.1854C297.21 729.9965 296.9038 729.9965 296.7149 730.1854 296.526 730.3742 296.526 730.6804 296.7149 730.8693L300.4279 734.5823C300.6168 734.7712 300.923 734.7712 301.1118 734.5823 301.3007 734.3934 301.3007 734.0872 301.1118 733.8983ZM296.7149 733.8983C296.526 734.0872 296.526 734.3934 296.7149 734.5823 296.9038 734.7712 297.21 734.7712 297.3989 734.5823L301.1118 730.8693C301.3007 730.6804 301.3007 730.3742 301.1118 730.1854 300.923 729.9965 300.6168 729.9965 300.4279 730.1854Z"/>
</g>
<g clip-path="url(#clip_11)">
<g clip-path="url(#clip_12)">
<path transform="matrix(1,0,0,-1,-138,757.76419)" d="M321.1722 732.3838C321.1722 731.6022 321.1319 730.8256 321.0519 730.056L322.2409 729.9325C322.3251 730.7431 322.3675 731.5609 322.3675 732.3838ZM320.9013 728.9003C320.7803 728.1304 320.6192 727.3699 320.4191 726.6209L321.5738 726.3123C321.7848 727.1017 321.9546 727.9034 322.0821 728.7148ZM320.0886 725.5035C319.8484 724.7636 319.5695 724.0378 319.2533 723.3287L320.345 722.8419C320.6783 723.5894 320.9722 724.3545 321.2255 725.1344ZM318.7508 722.2771C318.3974 721.5848 318.0079 720.9116 317.584 720.2602L318.5858 719.6083C319.0325 720.2947 319.443 721.0041 319.8154 721.7336ZM316.9229 719.3002C316.4656 718.6718 315.9756 718.0675 315.4553 717.4899L316.3433 716.6898C316.8914 717.2982 317.4076 717.9348 317.8894 718.5969ZM314.6527 716.6445C314.103 716.0948 313.525 715.574 312.9212 715.0845L313.674 714.156C314.3101 714.6717 314.9189 715.2202 315.4979 715.7993ZM311.997 714.3743C311.3685 713.9169 310.7165 713.4926 310.0438 713.1033L310.6424 712.0687C311.3513 712.4789 312.0382 712.9259 312.7003 713.4078ZM309.0201 712.5464C308.3282 712.1932 307.618 711.8764 306.8921 711.5976L307.3207 710.4818C308.0859 710.7756 308.8344 711.1095 309.5636 711.4818ZM305.7937 711.2086C305.0559 710.9691 304.3049 710.7682 303.543 710.607L303.7903 709.4376C304.5934 709.6075 305.3851 709.8192 306.1628 710.0717ZM302.3969 710.3959C301.6321 710.2758 300.8587 710.1952 300.079 710.155L300.1405 708.9613C300.9618 709.0036 301.7766 709.0885 302.5824 709.2151ZM298.9134 710.125C298.1317 710.125 297.3551 710.1653 296.5856 710.2453L296.4621 709.0563C297.2726 708.9721 298.0905 708.9297 298.9134 708.9297ZM295.4299 710.3959C294.66 710.5169 293.8994 710.678 293.1505 710.8781L292.8418 709.7234C293.6313 709.5124 294.4329 709.3426 295.2443 709.2151ZM292.0331 711.2086C291.2932 711.4488 290.5674 711.7277 289.8582 712.0439L289.3714 710.9522C290.1189 710.6189 290.884 710.325 291.6639 710.0717ZM288.8067 712.5464C288.1144 712.8998 287.4412 713.2894 286.7898 713.7132L286.1379 712.7114C286.8243 712.2647 287.5336 711.8542 288.2632 711.4818ZM285.8298 714.3743C285.2013 714.8316 284.597 715.3216 284.0195 715.8419L283.2194 714.9539C283.8278 714.4058 284.4644 713.8896 285.1264 713.4078ZM283.174 716.6445C282.6244 717.1942 282.1036 717.7722 281.6141 718.376L280.6856 717.6232C281.2012 716.9871 281.7498 716.3783 282.3288 715.7993ZM280.9038 719.3002C280.4464 719.9287 280.0221 720.5807 279.6329 721.2534L278.5983 720.6548C279.0084 719.9459 279.4555 719.259 279.9374 718.5969ZM279.0759 722.2771C278.7227 722.969 278.406 723.6792 278.1272 724.4051L277.0113 723.9765C277.3052 723.2113 277.6391 722.4628 278.0113 721.7336ZM277.7382 725.5035C277.4986 726.2413 277.2977 726.9923 277.1366 727.7542L275.9672 727.5069C276.137 726.7038 276.3488 725.9121 276.6013 725.1344ZM276.9255 728.9003C276.8053 729.6651 276.7248 730.4385 276.6846 731.2182L275.4909 731.1567C275.5332 730.3354 275.6181 729.5206 275.7447 728.7148ZM276.6546 732.3838C276.6546 733.1655 276.6949 733.9421 276.7748 734.7116L275.5859 734.8351C275.5017 734.0246 275.4593 733.2067 275.4593 732.3838ZM276.9255 735.8673C277.0465 736.6372 277.2075 737.3978 277.4077 738.1467L276.2529 738.4554C276.0419 737.6659 275.8722 736.8643 275.7447 736.0529ZM277.7382 739.2641C277.9784 740.004 278.2573 740.7298 278.5735 741.439L277.4818 741.9258C277.1485 741.1783 276.8545 740.4132 276.6013 739.6333ZM279.0759 742.4905C279.4294 743.1828 279.8189 743.856 280.2428 744.5074L279.2409 745.1593C278.7943 744.4729 278.3838 743.7636 278.0113 743.034ZM280.9038 745.4674C281.3612 746.0959 281.8511 746.7002 282.3715 747.2777L281.4835 748.0778C280.9353 747.4694 280.4192 746.8328 279.9374 746.1708ZM283.174 748.1232C283.7237 748.6728 284.3017 749.1936 284.9055 749.6831L284.1527 750.6116C283.5167 750.096 282.9079 749.5474 282.3288 748.9684ZM285.8298 750.3934C286.4583 750.8508 287.1102 751.2751 287.783 751.6643L287.1844 752.6989C286.4755 752.2888 285.7886 751.8417 285.1264 751.3598ZM288.8067 752.2213C289.4985 752.5745 290.2087 752.8912 290.9346 753.1701L290.5061 754.2859C289.7409 753.992 288.9924 753.6581 288.2632 753.2859ZM292.0331 753.559C292.7709 753.7986 293.5219 753.9995 294.2838 754.1606L294.0364 755.33C293.2334 755.1602 292.4417 754.9484 291.6639 754.6959ZM295.4299 754.3717C296.1947 754.4919 296.968 754.5724 297.7478 754.6126L297.6862 755.8063C296.8649 755.764 296.0502 755.6791 295.2443 755.5525ZM298.9134 754.6426C299.695 754.6426 300.4716 754.6023 301.2412 754.5224L301.3647 755.7113C300.5541 755.7955 299.7363 755.8379 298.9134 755.8379ZM302.3969 754.3717C303.1668 754.2507 303.9273 754.0897 304.6763 753.8895L304.9849 755.0443C304.1955 755.2553 303.3938 755.425 302.5824 755.5525ZM305.7937 753.559C306.5336 753.3188 307.2594 753.0399 307.9686 752.7237L308.4553 753.8154C307.7078 754.1487 306.9427 754.4427 306.1628 754.6959ZM309.0201 752.2213C309.7124 751.8678 310.3856 751.4783 311.037 751.0544L311.6889 752.0563C311.0025 752.5029 310.2931 752.9134 309.5636 753.2859ZM311.997 750.3934C312.6254 749.936 313.2297 749.4461 313.8073 748.9257L314.6074 749.8137C313.999 750.3619 313.3624 750.878 312.7003 751.3598ZM314.6527 748.1232C315.2024 747.5735 315.7232 746.9955 316.2127 746.3917L317.1412 747.1445C316.6255 747.7805 316.077 748.3893 315.4979 748.9684ZM316.9229 745.4674C317.3803 744.8389 317.8046 744.187 318.1939 743.5142L319.2285 744.1128C318.8183 744.8217 318.3713 745.5086 317.8894 746.1708ZM318.7508 742.4905C319.104 741.7987 319.4208 741.0885 319.6996 740.3626L320.8154 740.7911C320.5216 741.5563 320.1877 742.3048 319.8154 743.034ZM320.0886 739.2641C320.3281 738.5263 320.529 737.7753 320.6902 737.0134L321.8596 737.2608C321.6897 738.0638 321.478 738.8555 321.2255 739.6333ZM320.9013 735.8673C321.0214 735.1025 321.102 734.3292 321.1422 733.5494L322.3359 733.611C322.2936 734.4323 322.2087 735.247 322.0821 736.0529Z"/>
</g>
</g>
<g clip-path="url(#clip_13)">
<g clip-path="url(#clip_14)">
<path transform="matrix(1,0,0,-1,-138,757.76419)" d="M299.4452 754.6365H301.7285V755.8318H299.4452ZM302.8701 754.6365H305.1534V755.8318H302.8701ZM306.295 754.6365H308.5782V755.8318H306.295ZM309.7199 754.6365H312.0031V755.8318H309.7199ZM313.1447 754.6365H315.428V755.8318H313.1447ZM316.5696 754.6365H318.8528V755.8318H316.5696ZM319.9945 754.6365H322.2777V755.8318H319.9945ZM323.4193 754.6365H325.7026V755.8318H323.4193ZM326.8442 754.6365H329.1274V755.8318H326.8442ZM330.2691 754.6365H332.5523V755.8318H330.2691ZM333.6939 754.6365H335.9772V755.8318H333.6939ZM337.1188 754.6365H339.4021V755.8318H337.1188ZM340.5437 754.6365H342.8269V755.8318H340.5437ZM343.9686 754.6365H346.2518V755.8318H343.9686ZM347.3934 754.6365H349.6767V755.8318H347.3934ZM350.8183 754.6365H353.1015V755.8318H350.8183ZM354.2432 754.6365H356.5264V755.8318H354.2432ZM357.668 754.6365H359.9513V755.8318H357.668ZM361.0929 754.6365H363.3761V755.8318H361.0929ZM364.5178 754.6365H366.801V755.8318H364.5178ZM367.9426 754.6365H370.2259V755.8318H367.9426ZM371.3675 754.6365H373.6508V755.8318H371.3675ZM374.7924 754.6365H377.0756V755.8318H374.7924ZM378.2172 754.6365H380.5005V755.8318H378.2172ZM381.6421 754.6365H383.9254V755.8318H381.6421Z"/>
</g>
</g>
<g clip-path="url(#clip_15)">
<g clip-path="url(#clip_16)">
<path transform="matrix(1,0,0,-1,-138,757.76419)" d="M383.3277 755.2342V753.0051H384.523V755.2342ZM383.3277 751.8905V749.6614H384.523V751.8905ZM383.3277 748.5468V746.3177H384.523V748.5468ZM383.3277 745.2032V742.974H384.523V745.2032ZM383.3277 741.8595V739.6304H384.523V741.8595ZM383.3277 738.5158V736.2867H384.523V738.5158ZM383.3277 735.1721V732.943H384.523V735.1721ZM383.3277 731.8284V729.5993H384.523V731.8284ZM383.3277 728.4848V726.2556H384.523V728.4848ZM383.3277 725.1411V722.912H384.523V725.1411ZM383.3277 721.7974V719.5683H384.523V721.7974ZM383.3277 718.4537V716.2246H384.523V718.4537ZM383.3277 715.1101V712.8809H384.523V715.1101ZM383.3277 711.7664V709.5373H384.523V711.7664Z"/>
</g>
</g>
<g clip-path="url(#clip_17)">
<g clip-path="url(#clip_18)">
<path transform="matrix(1,0,0,-1,-138,757.76419)" d="M299.4694 708.9396H301.7527V710.1349H299.4694ZM302.8943 708.9396H305.1775V710.1349H302.8943ZM306.3192 708.9396H308.6024V710.1349H306.3192ZM309.744 708.9396H312.0273V710.1349H309.744ZM313.1689 708.9396H315.4522V710.1349H313.1689ZM316.5938 708.9396H318.877V710.1349H316.5938ZM320.0186 708.9396H322.3019V710.1349H320.0186ZM323.4435 708.9396H325.7268V710.1349H323.4435ZM326.8684 708.9396H329.1516V710.1349H326.8684ZM330.2933 708.9396H332.5765V710.1349H330.2933ZM333.7181 708.9396H336.0014V710.1349H333.7181ZM337.143 708.9396H339.4262V710.1349H337.143ZM340.5679 708.9396H342.8511V710.1349H340.5679ZM343.9927 708.9396H346.276V710.1349H343.9927ZM347.4176 708.9396H349.7009V710.1349H347.4176ZM350.8425 708.9396H353.1257V710.1349H350.8425ZM354.2673 708.9396H356.5506V710.1349H354.2673ZM357.6922 708.9396H359.9755V710.1349H357.6922ZM361.1171 708.9396H363.4003V710.1349H361.1171ZM364.542 708.9396H366.8252V710.1349H364.542ZM367.9668 708.9396H370.2501V710.1349H367.9668ZM371.3917 708.9396H373.6749V710.1349H371.3917ZM374.8166 708.9396H377.0998V710.1349H374.8166ZM378.2414 708.9396H380.5247V710.1349H378.2414ZM381.6663 708.9396H383.9495V710.1349H381.6663Z"/>
</g>
</g>
<g clip-path="url(#clip_19)">
<path transform="matrix(1,0,0,-1,-138,757.76419)" d="M171.597 675.1447C171.2954 675.0107 170.9422 675.1465 170.8081 675.4481 170.6741 675.7498 170.8099 676.103 171.1115 676.237L298.6707 732.93C298.9723 733.064 299.3255 732.9282 299.4595 732.6266 299.5936 732.3249 299.4577 731.9717 299.1561 731.8377ZM209.5129 732.4231C209.1836 732.4459 208.9351 732.7312 208.9578 733.0605 208.9805 733.3898 209.2659 733.6383 209.5952 733.6156 223.6779 732.6443 234.7186 728.9472 242.704 722.5095 242.9609 722.3024 243.0013 721.9261 242.7941 721.6691 242.587 721.4122 242.2107 721.3718 241.9538 721.579 234.1776 727.8479 223.3684 731.4675 209.5129 732.4231M245.3071 724.9028 248.9027 715.194 239.3502 719.1862ZM398.126 731.7862C397.796 731.7862 397.5284 732.0537 397.5284 732.3838 397.5284 732.7139 397.796 732.9815 398.126 732.9815H405.2401C405.5702 732.9815 405.8377 732.7139 405.8377 732.3838 405.8377 732.0537 405.5702 731.7862 405.2401 731.7862ZM402.2944 732.3838C402.2944 732.0537 402.0269 731.7862 401.6968 731.7862 401.3667 731.7862 401.0991 732.0537 401.0991 732.3838V755.2342C401.0991 755.5643 401.3667 755.8318 401.6968 755.8318 402.0269 755.8318 402.2944 755.5643 402.2944 755.2342ZM398.126 754.6365C397.796 754.6365 397.5284 754.9041 397.5284 755.2342 397.5284 755.5643 397.796 755.8318 398.126 755.8318H405.2401C405.5702 755.8318 405.8377 755.5643 405.8377 755.2342 405.8377 754.9041 405.5702 754.6365 405.2401 754.6365Z"/>
</g>
</g>
</svg>
