<svg xmlns="http://www.w3.org/2000/svg" xmlns:xlink="http://www.w3.org/1999/xlink" xmlns:inkscape="http://www.inkscape.org/namespaces/inkscape" version="1.1" width="222.5" height="161.44977" viewBox="0 0 222.5 161.44977">
<defs>
<clipPath id="clip_104">
<path transform="matrix(1,0,0,-1,-151.5,752.26589)" d="M151.5 590.8161H374V752.26589H151.5Z" clip-rule="evenodd"/>
</clipPath>
<clipPath id="clip_105">
<path transform="matrix(1,0,0,-1,-151.5,752.26589)" d="M0 0H612V803.25H0Z"/>
</clipPath>
<clipPath id="clip_106">
<path transform="matrix(1,0,0,-1,-151.5,752.26589)" d="M0 0H612V803.25H0Z"/>
</clipPath>
<clipPath id="clip_107">
<path transform="matrix(1,0,0,-1,-151.5,752.26589)" d="M0 0H612V803.25H0Z"/>
</clipPath>
<clipPath id="clip_108">
<path transform="matrix(1,0,0,-1,-151.5,752.26589)" d="M0 0H612V803.25H0Z"/>
</clipPath>
<clipPath id="clip_109">
<path transform="matrix(1,0,0,-1,-151.5,752.26589)" d="M0 0H612V803.25H0Z"/>
</clipPath>
<clipPath id="clip_110">
<path transform="matrix(1,0,0,-1,-151.5,752.26589)" d="M255.5968 712.5995C255.5968 713.0396 255.9536 713.3964 256.3937 713.3964 256.8338 713.3964 257.1905 713.0396 257.1905 712.5995V704.0373C257.1905 703.5972 256.8338 703.2405 256.3937 703.2405 255.9536 703.2405 255.5968 703.5972 255.5968 704.0373Z"/>
</clipPath>
<clipPath id="clip_111">
<path transform="matrix(1,0,0,-1,-151.5,752.26589)" d="M0 0H612V803.25H0Z"/>
</clipPath>
<clipPath id="clip_112">
<path transform="matrix(1,0,0,-1,-151.5,752.26589)" d="M319.3616 712.5995C319.3616 713.0396 319.7184 713.3964 320.1585 713.3964 320.5986 713.3964 320.9554 713.0396 320.9554 712.5995V704.0373C320.9554 703.5972 320.5986 703.2405 320.1585 703.2405 319.7184 703.2405 319.3616 703.5972 319.3616 704.0373Z"/>
</clipPath>
<clipPath id="clip_113">
<path transform="matrix(1,0,0,-1,-151.5,752.26589)" d="M0 0H612V803.25H0Z"/>
</clipPath>
<clipPath id="clip_114">
<path transform="matrix(1,0,0,-1,-151.5,752.26589)" d="M0 0H612V803.25H0Z"/>
</clipPath>
<clipPath id="clip_115">
<path transform="matrix(1,0,0,-1,-151.5,752.26589)" d="M369.1666 593.1603C369.1666 592.7202 368.8098 592.3634 368.3697 592.3634 367.9296 592.3634 367.5728 592.7202 367.5728 593.1603V601.7225C367.5728 602.1626 367.9296 602.5193 368.3697 602.5193 368.8098 602.5193 369.1666 602.1626 369.1666 601.7225Z"/>
</clipPath>
<clipPath id="clip_116">
<path transform="matrix(1,0,0,-1,-151.5,752.26589)" d="M0 0H612V803.25H0Z"/>
</clipPath>
<clipPath id="clip_117">
<path transform="matrix(1,0,0,-1,-151.5,752.26589)" d="M0 0H612V803.25H0Z"/>
</clipPath>
<clipPath id="clip_118">
<path transform="matrix(1,0,0,-1,-151.5,752.26589)" d="M157.9779 593.1603C157.9779 592.7202 157.6211 592.3634 157.181 592.3634 156.7409 592.3634 156.3841 592.7202 156.3841 593.1603V601.7225C156.3841 602.1626 156.7409 602.5193 157.181 602.5193 157.6211 602.5193 157.9779 602.1626 157.9779 601.7225Z"/>
</clipPath>
<clipPath id="clip_119">
<path transform="matrix(1,0,0,-1,-151.5,752.26589)" d="M0 0H612V803.25H0Z"/>
</clipPath>
<clipPath id="clip_120">
<path transform="matrix(1,0,0,-1,-151.5,752.26589)" d="M0 0H612V803.25H0Z"/>
</clipPath>
</defs>
<g clip-path="url(#clip_104)">
<g clip-path="url(#clip_105)">
<g clip-path="url(#clip_106)">
<text xml:space="preserve" transform="matrix(15.24917 0 -0 15.24917 145.07282 152.18219)" font-size="1" font-family="cmmi10" font-style="italic"><tspan y="-.906" x="0">J</tspan></text>
<g clip-path="url(#clip_107)">
<path transform="matrix(1,0,0,-1,-151.5,752.26589)" d="M368.3697 633.968C368.8098 633.968 369.1666 633.6113 369.1666 633.1712 369.1666 632.7311 368.8098 632.3743 368.3697 632.3743H157.181C156.7409 632.3743 156.3841 632.7311 156.3841 633.1712 156.3841 633.6113 156.7409 633.968 157.181 633.968ZM156.3841 641.7334C156.3841 642.1735 156.7409 642.5302 157.181 642.5302 157.6211 642.5302 157.9779 642.1735 157.9779 641.7334V624.609C157.9779 624.1689 157.6211 623.8121 157.181 623.8121 156.7409 623.8121 156.3841 624.1689 156.3841 624.609ZM157.181 640.9365C156.7409 640.9365 156.3841 641.2933 156.3841 641.7334 156.3841 642.1735 156.7409 642.5302 157.181 642.5302H165.7432C166.1833 642.5302 166.5401 642.1735 166.5401 641.7334 166.5401 641.2933 166.1833 640.9365 165.7432 640.9365ZM157.181 623.8121C156.7409 623.8121 156.3841 624.1689 156.3841 624.609 156.3841 625.0491 156.7409 625.4059 157.181 625.4059H165.7432C166.1833 625.4059 166.5401 625.0491 166.5401 624.609 166.5401 624.1689 166.1833 623.8121 165.7432 623.8121ZM369.1666 624.609C369.1666 624.1689 368.8098 623.8121 368.3697 623.8121 367.9296 623.8121 367.5728 624.1689 367.5728 624.609V641.7334C367.5728 642.1735 367.9296 642.5302 368.3697 642.5302 368.8098 642.5302 369.1666 642.1735 369.1666 641.7334ZM368.3697 625.4059C368.8098 625.4059 369.1666 625.0491 369.1666 624.609 369.1666 624.1689 368.8098 623.8121 368.3697 623.8121H359.8075C359.3674 623.8121 359.0106 624.1689 359.0106 624.609 359.0106 625.0491 359.3674 625.4059 359.8075 625.4059ZM368.3697 642.5302C368.8098 642.5302 369.1666 642.1735 369.1666 641.7334 369.1666 641.2933 368.8098 640.9365 368.3697 640.9365H359.8075C359.3674 640.9365 359.0106 641.2933 359.0106 641.7334 359.0106 642.1735 359.3674 642.5302 359.8075 642.5302Z"/>
<path transform="matrix(1,0,0,-1,-151.5,752.26589)" d="M225.2298 715.3932C223.6738 716.9492 223.6738 719.472 225.2298 721.028 226.7858 722.584 229.3086 722.584 230.8646 721.028 232.4206 719.472 232.4206 716.9492 230.8646 715.3932 229.3086 713.8372 226.7858 713.8372 225.2298 715.3932M182.7101 701.22C181.1541 702.776 181.1541 705.2987 182.7101 706.8547 184.2661 708.4107 186.7889 708.4107 188.3449 706.8547 189.9009 705.2987 189.9009 702.776 188.3449 701.22 186.7889 699.664 184.2661 699.664 182.7101 701.22M281.9228 687.0467C280.3668 688.6027 280.3668 691.1255 281.9228 692.6815 283.4788 694.2375 286.0015 694.2375 287.5575 692.6815 289.1135 691.1255 289.1135 688.6027 287.5575 687.0467 286.0015 685.4907 283.4788 685.4907 281.9228 687.0467M352.7889 743.7397C351.233 745.2957 351.233 747.8184 352.7889 749.3744 354.3449 750.9304 356.8677 750.9304 358.4237 749.3744 359.9797 747.8184 359.9797 745.2957 358.4237 743.7397 356.8677 742.1837 354.3449 742.1837 352.7889 743.7397" fill="#dc267f"/>
</g>
<g clip-path="url(#clip_108)">
<path transform="matrix(1,0,0,-1,-151.5,752.26589)" d="M283.9433 689.8641C283.9433 690.3042 284.3 690.661 284.7401 690.661 285.1802 690.661 285.537 690.3042 285.537 689.8641V633.1712C285.537 632.7311 285.1802 632.3743 284.7401 632.3743 284.3 632.3743 283.9433 632.7311 283.9433 633.1712ZM227.2503 718.2106C227.2503 718.6507 227.6071 719.0075 228.0472 719.0075 228.4873 719.0075 228.8441 718.6507 228.8441 718.2106V633.1712C228.8441 632.7311 228.4873 632.3743 228.0472 632.3743 227.6071 632.3743 227.2503 632.7311 227.2503 633.1712ZM184.7306 704.0373C184.7306 704.4774 185.0874 704.8342 185.5275 704.8342 185.9676 704.8342 186.3244 704.4774 186.3244 704.0373V633.1712C186.3244 632.7311 185.9676 632.3743 185.5275 632.3743 185.0874 632.3743 184.7306 632.7311 184.7306 633.1712ZM354.8095 746.5571C354.8095 746.9972 355.1662 747.3539 355.6063 747.3539 356.0464 747.3539 356.4032 746.9972 356.4032 746.5571V633.1712C356.4032 632.7311 356.0464 632.3743 355.6063 632.3743 355.1662 632.3743 354.8095 632.7311 354.8095 633.1712ZM354.8095 641.7334C354.8095 642.1735 355.1662 642.5302 355.6063 642.5302 356.0464 642.5302 356.4032 642.1735 356.4032 641.7334V633.1712C356.4032 632.7311 356.0464 632.3743 355.6063 632.3743 355.1662 632.3743 354.8095 632.7311 354.8095 633.1712ZM283.9433 641.7334C283.9433 642.1735 284.3 642.5302 284.7401 642.5302 285.1802 642.5302 285.537 642.1735 285.537 641.7334V633.1712C285.537 632.7311 285.1802 632.3743 284.7401 632.3743 284.3 632.3743 283.9433 632.7311 283.9433 633.1712ZM227.2503 641.7334C227.2503 642.1735 227.6071 642.5302 228.0472 642.5302 228.4873 642.5302 228.8441 642.1735 228.8441 641.7334V633.1712C228.8441 632.7311 228.4873 632.3743 228.0472 632.3743 227.6071 632.3743 227.2503 632.7311 227.2503 633.1712ZM184.7306 641.7334C184.7306 642.1735 185.0874 642.5302 185.5275 642.5302 185.9676 642.5302 186.3244 642.1735 186.3244 641.7334V633.1712C186.3244 632.7311 185.9676 632.3743 185.5275 632.3743 185.0874 632.3743 184.7306 632.7311 184.7306 633.1712Z" fill="#dc267f"/>
<path transform="matrix(1,0,0,-1,-151.5,752.26589)" d="M154.3636 630.3538C152.8076 631.9098 152.8076 634.4326 154.3636 635.9885 155.9196 637.5445 158.4424 637.5445 159.9984 635.9885 161.5544 634.4326 161.5544 631.9098 159.9984 630.3538 158.4424 628.7978 155.9196 628.7978 154.3636 630.3538" fill="#648fff"/>
<path transform="matrix(1,0,0,-1,-151.5,752.26589)" d="M365.5523 630.3538C363.9963 631.9098 363.9963 634.4326 365.5523 635.9885 367.1083 637.5445 369.6311 637.5445 371.1871 635.9885 372.7431 634.4326 372.7431 631.9098 371.1871 630.3538 369.6311 628.7978 367.1083 628.7978 365.5523 630.3538" fill="#648fff"/>
</g>
<g clip-path="url(#clip_109)">
<path transform="matrix(1,0,0,-1,-151.5,752.26589)" d="M319.3616 704.0373C319.3616 704.4774 319.7184 704.8342 320.1585 704.8342 320.5986 704.8342 320.9554 704.4774 320.9554 704.0373V633.1712C320.9554 632.7311 320.5986 632.3743 320.1585 632.3743 319.7184 632.3743 319.3616 632.7311 319.3616 633.1712ZM255.5968 704.0373C255.5968 704.4774 255.9536 704.8342 256.3937 704.8342 256.8338 704.8342 257.1905 704.4774 257.1905 704.0373V633.1712C257.1905 632.7311 256.8338 632.3743 256.3937 632.3743 255.9536 632.3743 255.5968 632.7311 255.5968 633.1712ZM319.3616 641.7334C319.3616 642.1735 319.7184 642.5302 320.1585 642.5302 320.5986 642.5302 320.9554 642.1735 320.9554 641.7334V633.1712C320.9554 632.7311 320.5986 632.3743 320.1585 632.3743 319.7184 632.3743 319.3616 632.7311 319.3616 633.1712Z" fill="#648fff"/>
</g>
<g clip-path="url(#clip_110)">
<g clip-path="url(#clip_111)">
<path transform="matrix(1,0,0,-1,-151.5,752.26589)" d="M255.5968 712.5995V712.5981C255.5968 712.158 255.9536 711.8012 256.3937 711.8012 256.8338 711.8012 257.1905 712.158 257.1905 712.5981V712.5995C257.1905 713.0396 256.8338 713.3964 256.3937 713.3964 255.9536 713.3964 255.5968 713.0396 255.5968 712.5995M255.5968 709.7459V709.7445C255.5968 709.3044 255.9536 708.9476 256.3937 708.9476 256.8338 708.9476 257.1905 709.3044 257.1905 709.7445V709.7459C257.1905 710.186 256.8338 710.5428 256.3937 710.5428 255.9536 710.5428 255.5968 710.186 255.5968 709.7459M255.5968 706.8924V706.8909C255.5968 706.4508 255.9536 706.0941 256.3937 706.0941 256.8338 706.0941 257.1905 706.4508 257.1905 706.8909V706.8924C257.1905 707.3325 256.8338 707.6892 256.3937 707.6892 255.9536 707.6892 255.5968 707.3325 255.5968 706.8924M255.5968 704.0388V704.0373C255.5968 703.5972 255.9536 703.2405 256.3937 703.2405 256.8338 703.2405 257.1905 703.5972 257.1905 704.0373V704.0388C257.1905 704.4789 256.8338 704.8356 256.3937 704.8356 255.9536 704.8356 255.5968 704.4789 255.5968 704.0388" fill="#648fff"/>
</g>
</g>
<g clip-path="url(#clip_112)">
<g clip-path="url(#clip_113)">
<path transform="matrix(1,0,0,-1,-151.5,752.26589)" d="M319.3616 712.5995V712.5981C319.3616 712.158 319.7184 711.8012 320.1585 711.8012 320.5986 711.8012 320.9554 712.158 320.9554 712.5981V712.5995C320.9554 713.0396 320.5986 713.3964 320.1585 713.3964 319.7184 713.3964 319.3616 713.0396 319.3616 712.5995M319.3616 709.7459V709.7445C319.3616 709.3044 319.7184 708.9476 320.1585 708.9476 320.5986 708.9476 320.9554 709.3044 320.9554 709.7445V709.7459C320.9554 710.186 320.5986 710.5428 320.1585 710.5428 319.7184 710.5428 319.3616 710.186 319.3616 709.7459M319.3616 706.8924V706.8909C319.3616 706.4508 319.7184 706.0941 320.1585 706.0941 320.5986 706.0941 320.9554 706.4508 320.9554 706.8909V706.8924C320.9554 707.3325 320.5986 707.6892 320.1585 707.6892 319.7184 707.6892 319.3616 707.3325 319.3616 706.8924M319.3616 704.0388V704.0373C319.3616 703.5972 319.7184 703.2405 320.1585 703.2405 320.5986 703.2405 320.9554 703.5972 320.9554 704.0373V704.0388C320.9554 704.4789 320.5986 704.8356 320.1585 704.8356 319.7184 704.8356 319.3616 704.4789 319.3616 704.0388" fill="#648fff"/>
</g>
</g>
<g clip-path="url(#clip_114)">
<path transform="matrix(1,0,0,-1,-151.5,752.26589)" d="M369.1666 601.7225C369.1666 601.2824 368.8098 600.9256 368.3697 600.9256 367.9296 600.9256 367.5728 601.2824 367.5728 601.7225V633.1712C367.5728 633.6113 367.9296 633.968 368.3697 633.968 368.8098 633.968 369.1666 633.6113 369.1666 633.1712Z" fill="#648fff"/>
</g>
<g clip-path="url(#clip_115)">
<g clip-path="url(#clip_116)">
<path transform="matrix(1,0,0,-1,-151.5,752.26589)" d="M369.1666 593.1603V593.1617C369.1666 593.6018 368.8098 593.9586 368.3697 593.9586 367.9296 593.9586 367.5728 593.6018 367.5728 593.1617V593.1603C367.5728 592.7202 367.9296 592.3634 368.3697 592.3634 368.8098 592.3634 369.1666 592.7202 369.1666 593.1603M369.1666 596.0139V596.0153C369.1666 596.4554 368.8098 596.8122 368.3697 596.8122 367.9296 596.8122 367.5728 596.4554 367.5728 596.0153V596.0139C367.5728 595.5738 367.9296 595.217 368.3697 595.217 368.8098 595.217 369.1666 595.5738 369.1666 596.0139M369.1666 598.8674V598.8689C369.1666 599.309 368.8098 599.6657 368.3697 599.6657 367.9296 599.6657 367.5728 599.309 367.5728 598.8689V598.8674C367.5728 598.4273 367.9296 598.0706 368.3697 598.0706 368.8098 598.0706 369.1666 598.4273 369.1666 598.8674M369.1666 601.721V601.7225C369.1666 602.1626 368.8098 602.5193 368.3697 602.5193 367.9296 602.5193 367.5728 602.1626 367.5728 601.7225V601.721C367.5728 601.2809 367.9296 600.9242 368.3697 600.9242 368.8098 600.9242 369.1666 601.2809 369.1666 601.721" fill="#648fff"/>
</g>
</g>
<g clip-path="url(#clip_117)">
<path transform="matrix(1,0,0,-1,-151.5,752.26589)" d="M157.9779 601.7225C157.9779 601.2824 157.6211 600.9256 157.181 600.9256 156.7409 600.9256 156.3841 601.2824 156.3841 601.7225V633.1712C156.3841 633.6113 156.7409 633.968 157.181 633.968 157.6211 633.968 157.9779 633.6113 157.9779 633.1712Z" fill="#648fff"/>
</g>
<g clip-path="url(#clip_118)">
<g clip-path="url(#clip_119)">
<path transform="matrix(1,0,0,-1,-151.5,752.26589)" d="M157.9779 593.1603V593.1617C157.9779 593.6018 157.6211 593.9586 157.181 593.9586 156.7409 593.9586 156.3841 593.6018 156.3841 593.1617V593.1603C156.3841 592.7202 156.7409 592.3634 157.181 592.3634 157.6211 592.3634 157.9779 592.7202 157.9779 593.1603M157.9779 596.0139V596.0153C157.9779 596.4554 157.6211 596.8122 157.181 596.8122 156.7409 596.8122 156.3841 596.4554 156.3841 596.0153V596.0139C156.3841 595.5738 156.7409 595.217 157.181 595.217 157.6211 595.217 157.9779 595.5738 157.9779 596.0139M157.9779 598.8674V598.8689C157.9779 599.309 157.6211 599.6657 157.181 599.6657 156.7409 599.6657 156.3841 599.309 156.3841 598.8689V598.8674C156.3841 598.4273 156.7409 598.0706 157.181 598.0706 157.6211 598.0706 157.9779 598.4273 157.9779 598.8674M157.9779 601.721V601.7225C157.9779 602.1626 157.6211 602.5193 157.181 602.5193 156.7409 602.5193 156.3841 602.1626 156.3841 601.7225V601.721C156.3841 601.2809 156.7409 600.9242 157.181 600.9242 157.6211 600.9242 157.9779 601.2809 157.9779 601.721" fill="#648fff"/>
</g>
</g>
<g clip-path="url(#clip_120)">
<path transform="matrix(1,0,0,-1,-151.5,752.26589)" d="M287.5675 641.9095C288.0049 642.4039 288.7603 642.4501 289.2548 642.0127 289.7492 641.5753 289.7954 640.8199 289.358 640.3254 284.7772 635.1475 284.7772 630.1969 289.358 625.019 289.7954 624.5246 289.7492 623.7692 289.2548 623.3317 288.7603 622.8943 288.0049 622.9405 287.5675 623.435 282.1866 629.5174 282.1866 635.8271 287.5675 641.9095M317.3195 623.7713C316.8821 623.2768 316.1266 623.2306 315.6322 623.668 315.1378 624.1054 315.0915 624.8608 315.529 625.3553 320.1097 630.5332 320.1097 635.4838 315.529 640.6617 315.0915 641.1562 315.1378 641.9116 315.6322 642.349 316.1266 642.7864 316.8821 642.7402 317.3195 642.2457 322.7004 636.1634 322.7004 629.8536 317.3195 623.7713M284.7401 631.9759C284.08 631.9759 283.5448 632.511 283.5448 633.1712 283.5448 633.8313 284.08 634.3665 284.7401 634.3665H320.1585C320.8186 634.3665 321.3538 633.8313 321.3538 633.1712 321.3538 632.511 320.8186 631.9759 320.1585 631.9759Z"/>
</g>
</g>
</g>
</g>
</svg>
