<svg xmlns="http://www.w3.org/2000/svg" xmlns:xlink="http://www.w3.org/1999/xlink" xmlns:inkscape="http://www.inkscape.org/namespaces/inkscape" version="1.1" width="216" height="140.4563" viewBox="0 0 216 140.4563">
<defs>
<clipPath id="clip_121">
<path transform="matrix(1,0,0,-1,-140.5,755.7648)" d="M140.5 615.3085H356.5V755.7648H140.5Z" clip-rule="evenodd"/>
</clipPath>
<clipPath id="clip_122">
<path transform="matrix(1,0,0,-1,-140.5,755.7648)" d="M0 0H612V803.25H0Z"/>
</clipPath>
<clipPath id="clip_123">
<path transform="matrix(1,0,0,-1,-140.5,755.7648)" d="M0 0H612V803.25H0Z"/>
</clipPath>
<clipPath id="clip_124">
<path transform="matrix(1,0,0,-1,-140.5,755.7648)" d="M156.3338 685.1002H193.4465V638.7028H156.3338ZM157.3802 684.0538H192.4001V639.7492H157.3802ZM157.181 684.4523C157.071 684.4523 156.9818 684.3631 156.9818 684.2531V639.5499C156.9818 639.4399 157.071 639.3507 157.181 639.3507H192.5994C192.7094 639.3507 192.7986 639.4399 192.7986 639.5499V684.2531C192.7986 684.3631 192.7094 684.4523 192.5994 684.4523Z"/>
</clipPath>
<clipPath id="clip_125">
<path transform="matrix(1,0,0,-1,-140.5,755.7648)" d="M0 0H612V803.25H0Z"/>
</clipPath>
<clipPath id="clip_126">
<path transform="matrix(1,0,0,-1,-140.5,755.7648)" d="M0 0H612V803.25H0Z"/>
</clipPath>
<clipPath id="clip_127">
<path transform="matrix(1,0,0,-1,-140.5,755.7648)" d="M269.7197 729.8034H306.8324V683.4059H269.7197ZM305.786 684.4523H270.7661V728.757H305.786ZM305.9852 684.0538C306.0953 684.0538 306.1845 684.143 306.1845 684.2531V728.9562C306.1845 729.0662 306.0953 729.1554 305.9852 729.1554H270.5669C270.4569 729.1554 270.3677 729.0662 270.3677 728.9562V684.2531C270.3677 684.143 270.4569 684.0538 270.5669 684.0538Z"/>
</clipPath>
<clipPath id="clip_128">
<path transform="matrix(1,0,0,-1,-140.5,755.7648)" d="M0 0H612V803.25H0Z"/>
</clipPath>
<clipPath id="clip_129">
<path transform="matrix(1,0,0,-1,-140.5,755.7648)" d="M0 0H612V803.25H0Z"/>
</clipPath>
<clipPath id="clip_130">
<path transform="matrix(1,0,0,-1,-140.5,755.7648)" d="M0 0H612V803.25H0Z"/>
</clipPath>
<clipPath id="clip_131">
<path transform="matrix(1,0,0,-1,-140.5,755.7648)" d="M173.2964 632.6411C173.2964 633.5213 174.01 634.2349 174.8902 634.2349 175.7704 634.2349 176.4839 633.5213 176.4839 632.6411V618.4679C176.4839 617.5877 175.7704 616.8741 174.8902 616.8741 174.01 616.8741 173.2964 617.5877 173.2964 618.4679Z"/>
</clipPath>
<clipPath id="clip_132">
<path transform="matrix(1,0,0,-1,-140.5,755.7648)" d="M0 0H612V803.25H0Z"/>
</clipPath>
<clipPath id="clip_133">
<path transform="matrix(1,0,0,-1,-140.5,755.7648)" d="M289.8698 738.2378C289.8698 737.3576 289.1563 736.6441 288.2761 736.6441 287.3959 736.6441 286.6823 737.3576 286.6823 738.2378V752.4111C286.6823 753.2913 287.3959 754.0048 288.2761 754.0048 289.1563 754.0048 289.8698 753.2913 289.8698 752.4111Z"/>
</clipPath>
<clipPath id="clip_134">
<path transform="matrix(1,0,0,-1,-140.5,755.7648)" d="M0 0H612V803.25H0Z"/>
</clipPath>
</defs>
<g>
<g clip-path="url(#clip_121)">
<g clip-path="url(#clip_122)">
<g clip-path="url(#clip_123)">
<text xml:space="preserve" transform="matrix(15.24917 0 -0 15.24917 141.8996 104.59918)" font-size="1" font-family="cmmi10" font-style="italic"><tspan y="-.906" x="0">J</tspan></text>
<g clip-path="url(#clip_124)">
<g clip-path="url(#clip_125)">
<g style="mix-blend-mode:darken">
<path transform="matrix(1,0,0,-1,-140.5,755.7648)" d="M157.181 684.2531H192.5994V639.5499H157.181Z" fill="#515c5d" fill-opacity=".42"/>
</g>
</g>
</g>
<g clip-path="url(#clip_126)">
<g style="mix-blend-mode:darken">
<path transform="matrix(1,0,0,-1,-140.5,755.7648)" d="M157.3802 684.0538V639.7492H192.4001V684.0538ZM157.181 684.4523H192.5994C192.7094 684.4523 192.7986 684.3631 192.7986 684.2531V639.5499C192.7986 639.4399 192.7094 639.3507 192.5994 639.3507H157.181C157.071 639.3507 156.9818 639.4399 156.9818 639.5499V684.2531C156.9818 684.3631 157.071 684.4523 157.181 684.4523" fill="#515c5d" fill-opacity=".42"/>
</g>
</g>
<g clip-path="url(#clip_127)">
<g clip-path="url(#clip_128)">
<g style="mix-blend-mode:darken">
<path transform="matrix(1,0,0,-1,-140.5,755.7648)" d="M305.9852 684.2531H270.5669V728.9562H305.9852Z" fill="#515c5d" fill-opacity=".42"/>
</g>
</g>
</g>
<g clip-path="url(#clip_129)">
<g style="mix-blend-mode:darken">
<path transform="matrix(1,0,0,-1,-140.5,755.7648)" d="M305.786 684.4523V728.757H270.7661V684.4523ZM305.9852 684.0538H270.5669C270.4569 684.0538 270.3677 684.143 270.3677 684.2531V728.9562C270.3677 729.0662 270.4569 729.1554 270.5669 729.1554H305.9852C306.0953 729.1554 306.1845 729.0662 306.1845 728.9562V684.2531C306.1845 684.143 306.0953 684.0538 305.9852 684.0538" fill="#515c5d" fill-opacity=".42"/>
</g>
</g>
<g clip-path="url(#clip_130)">
<path transform="matrix(1,0,0,-1,-140.5,755.7648)" d="M354.1965 685.0499C354.6366 685.0499 354.9933 684.6932 354.9933 684.2531 354.9933 683.813 354.6366 683.4562 354.1965 683.4562H143.0078C142.5677 683.4562 142.2109 683.813 142.2109 684.2531 142.2109 684.6932 142.5677 685.0499 143.0078 685.0499ZM142.2109 692.8152C142.2109 693.2553 142.5677 693.6121 143.0078 693.6121 143.4479 693.6121 143.8047 693.2553 143.8047 692.8152V675.6909C143.8047 675.2508 143.4479 674.894 143.0078 674.894 142.5677 674.894 142.2109 675.2508 142.2109 675.6909ZM143.0078 692.0184C142.5677 692.0184 142.2109 692.3751 142.2109 692.8152 142.2109 693.2553 142.5677 693.6121 143.0078 693.6121H151.57C152.0101 693.6121 152.3668 693.2553 152.3668 692.8152 152.3668 692.3751 152.0101 692.0184 151.57 692.0184ZM143.0078 674.894C142.5677 674.894 142.2109 675.2508 142.2109 675.6909 142.2109 676.131 142.5677 676.4878 143.0078 676.4878H151.57C152.0101 676.4878 152.3668 676.131 152.3668 675.6909 152.3668 675.2508 152.0101 674.894 151.57 674.894ZM354.9933 675.6909C354.9933 675.2508 354.6366 674.894 354.1965 674.894 353.7564 674.894 353.3996 675.2508 353.3996 675.6909V692.8152C353.3996 693.2553 353.7564 693.6121 354.1965 693.6121 354.6366 693.6121 354.9933 693.2553 354.9933 692.8152ZM354.1965 676.4878C354.6366 676.4878 354.9933 676.131 354.9933 675.6909 354.9933 675.2508 354.6366 674.894 354.1965 674.894H345.6343C345.1942 674.894 344.8374 675.2508 344.8374 675.6909 344.8374 676.131 345.1942 676.4878 345.6343 676.4878ZM354.1965 693.6121C354.6366 693.6121 354.9933 693.2553 354.9933 692.8152 354.9933 692.3751 354.6366 692.0184 354.1965 692.0184H345.6343C345.1942 692.0184 344.8374 692.3751 344.8374 692.8152 344.8374 693.2553 345.1942 693.6121 345.6343 693.6121ZM273.3943 692.9914C273.8317 693.4858 274.5871 693.532 275.0815 693.0946 275.576 692.6572 275.6222 691.9018 275.1848 691.4073 270.604 686.2294 270.604 681.2788 275.1848 676.1009 275.6222 675.6065 275.576 674.851 275.0815 674.4136 274.5871 673.9762 273.8317 674.0224 273.3943 674.5169 268.0133 680.5993 268.0133 686.909 273.3943 692.9914M303.1462 674.8531C302.7088 674.3587 301.9534 674.3125 301.459 674.7499 300.9645 675.1873 300.9183 675.9427 301.3557 676.4372 305.9365 681.6151 305.9365 686.5657 301.3557 691.7436 300.9183 692.238 300.9645 692.9935 301.459 693.4309 301.9534 693.8683 302.7088 693.8221 303.1462 693.3276 308.5272 687.2453 308.5272 680.9355 303.1462 674.8531M270.5669 683.0577C269.9068 683.0577 269.3716 683.5929 269.3716 684.2531 269.3716 684.9132 269.9068 685.4484 270.5669 685.4484H305.9852C306.6454 685.4484 307.1806 684.9132 307.1806 684.2531 307.1806 683.5929 306.6454 683.0577 305.9852 683.0577ZM157.181 683.0577C156.5209 683.0577 155.9857 683.5929 155.9857 684.2531 155.9857 684.9132 156.5209 685.4484 157.181 685.4484H192.5994C193.2595 685.4484 193.7947 684.9132 193.7947 684.2531 193.7947 683.5929 193.2595 683.0577 192.5994 683.0577Z"/>
</g>
<g clip-path="url(#clip_131)">
<g clip-path="url(#clip_132)">
<path transform="matrix(1,0,0,-1,-140.5,755.7648)" d="M173.2964 632.6411V632.6376C173.2964 631.7574 174.01 631.0438 174.8902 631.0438 175.7704 631.0438 176.4839 631.7574 176.4839 632.6376V632.6411C176.4839 633.5213 175.7704 634.2349 174.8902 634.2349 174.01 634.2349 173.2964 633.5213 173.2964 632.6411M173.2964 625.5563V625.5527C173.2964 624.6725 174.01 623.959 174.8902 623.959 175.7704 623.959 176.4839 624.6725 176.4839 625.5527V625.5563C176.4839 626.4365 175.7704 627.15 174.8902 627.15 174.01 627.15 173.2964 626.4365 173.2964 625.5563M173.2964 618.4714V618.4679C173.2964 617.5877 174.01 616.8741 174.8902 616.8741 175.7704 616.8741 176.4839 617.5877 176.4839 618.4679V618.4714C176.4839 619.3516 175.7704 620.0652 174.8902 620.0652 174.01 620.0652 173.2964 619.3516 173.2964 618.4714"/>
</g>
</g>
<g clip-path="url(#clip_133)">
<g clip-path="url(#clip_134)">
<path transform="matrix(1,0,0,-1,-140.5,755.7648)" d="M289.8698 738.2378V738.2414C289.8698 739.1216 289.1563 739.8351 288.2761 739.8351 287.3959 739.8351 286.6823 739.1216 286.6823 738.2414V738.2378C286.6823 737.3576 287.3959 736.6441 288.2761 736.6441 289.1563 736.6441 289.8698 737.3576 289.8698 738.2378M289.8698 745.3227V745.3262C289.8698 746.2064 289.1563 746.92 288.2761 746.92 287.3959 746.92 286.6823 746.2064 286.6823 745.3262V745.3227C286.6823 744.4425 287.3959 743.7289 288.2761 743.7289 289.1563 743.7289 289.8698 744.4425 289.8698 745.3227M289.8698 752.4075V752.4111C289.8698 753.2913 289.1563 754.0048 288.2761 754.0048 287.3959 754.0048 286.6823 753.2913 286.6823 752.4111V752.4075C286.6823 751.5273 287.3959 750.8138 288.2761 750.8138 289.1563 750.8138 289.8698 751.5273 289.8698 752.4075"/>
</g>
</g>
</g>
</g>
</g>
</g>
</svg>
