<svg xmlns="http://www.w3.org/2000/svg" xmlns:xlink="http://www.w3.org/1999/xlink" xmlns:inkscape="http://www.inkscape.org/namespaces/inkscape" version="1.1" width="191" height="176.94495" viewBox="0 0 191 176.94495">
<defs>
<clipPath id="clip_56">
<path transform="matrix(1,0,0,-1,-40.5,749.76669)" d="M40.5 572.8217H231.5V749.76669H40.5Z" clip-rule="evenodd"/>
</clipPath>
<clipPath id="clip_57">
<path transform="matrix(1,0,0,-1,-40.5,749.76669)" d="M0 0H612V803.25H0Z"/>
</clipPath>
<clipPath id="clip_58">
<path transform="matrix(1,0,0,-1,-40.5,749.76669)" d="M0 0H612V803.25H0Z"/>
</clipPath>
<clipPath id="clip_59">
<path transform="matrix(1,0,0,-1,-40.5,749.76669)" d="M0 0H612V803.25H0Z"/>
</clipPath>
<clipPath id="clip_60">
<path transform="matrix(1,0,0,-1,-40.5,749.76669)" d="M0 0H612V803.25H0Z"/>
</clipPath>
<clipPath id="clip_61">
<path transform="matrix(1,0,0,-1,-40.5,749.76669)" d="M0 0H612V803.25H0Z"/>
</clipPath>
<clipPath id="clip_62">
<path transform="matrix(1,0,0,-1,-40.5,749.76669)" d="M114.2629 689.6283C114.2629 689.8484 114.4413 690.0268 114.6613 690.0268 114.8814 690.0268 115.0598 689.8484 115.0598 689.6283V576.2424C115.0598 576.0224 114.8814 575.844 114.6613 575.844 114.4413 575.844 114.2629 576.0224 114.2629 576.2424Z"/>
</clipPath>
<clipPath id="clip_63">
<path transform="matrix(1,0,0,-1,-40.5,749.76669)" d="M0 0H612V803.25H0Z"/>
</clipPath>
<clipPath id="clip_64">
<path transform="matrix(1,0,0,-1,-40.5,749.76669)" d="M156.7826 632.9354C156.7826 633.1554 156.961 633.3338 157.181 633.3338 157.4011 633.3338 157.5795 633.1554 157.5795 632.9354V576.2424C157.5795 576.0224 157.4011 575.844 157.181 575.844 156.961 575.844 156.7826 576.0224 156.7826 576.2424Z"/>
</clipPath>
<clipPath id="clip_65">
<path transform="matrix(1,0,0,-1,-40.5,749.76669)" d="M0 0H612V803.25H0Z"/>
</clipPath>
<clipPath id="clip_66">
<path transform="matrix(1,0,0,-1,-40.5,749.76669)" d="M190.5711 703.8016C190.5711 704.0216 190.7494 704.2 190.9695 704.2 191.1895 704.2 191.3679 704.0216 191.3679 703.8016V686.9969C191.3679 686.7769 191.1895 686.5985 190.9695 686.5985 190.7494 686.5985 190.5711 686.7769 190.5711 686.9969Z"/>
</clipPath>
<clipPath id="clip_67">
<path transform="matrix(1,0,0,-1,-40.5,749.76669)" d="M0 0H612V803.25H0Z"/>
</clipPath>
<clipPath id="clip_68">
<path transform="matrix(1,0,0,-1,-40.5,749.76669)" d="M91.35841 746.3213C91.35841 746.5413 91.5368 746.7197 91.75685 746.7197 91.9769 746.7197 92.15528 746.5413 92.15528 746.3213V712.5328C92.15528 712.3127 91.9769 712.1344 91.75685 712.1344 91.5368 712.1344 91.35841 712.3127 91.35841 712.5328Z"/>
</clipPath>
<clipPath id="clip_69">
<path transform="matrix(1,0,0,-1,-40.5,749.76669)" d="M0 0H612V803.25H0Z"/>
</clipPath>
<clipPath id="clip_70">
<path transform="matrix(1,0,0,-1,-40.5,749.76669)" d="M77.18517 630.304C77.18517 630.5241 77.36356 630.7024 77.58361 630.7024 77.80366 630.7024 77.98205 630.5241 77.98205 630.304V576.2424C77.98205 576.0224 77.80366 575.844 77.58361 575.844 77.36356 575.844 77.18517 576.0224 77.18517 576.2424Z"/>
</clipPath>
<clipPath id="clip_71">
<path transform="matrix(1,0,0,-1,-40.5,749.76669)" d="M0 0H612V803.25H0Z"/>
</clipPath>
<clipPath id="clip_72">
<path transform="matrix(1,0,0,-1,-40.5,749.76669)" d="M204.7443 746.3213C204.7443 746.5413 204.9227 746.7197 205.1427 746.7197 205.3628 746.7197 205.5412 746.5413 205.5412 746.3213V709.6741C205.5412 709.4541 205.3628 709.2757 205.1427 709.2757 204.9227 709.2757 204.7443 709.4541 204.7443 709.6741Z"/>
</clipPath>
<clipPath id="clip_73">
<path transform="matrix(1,0,0,-1,-40.5,749.76669)" d="M0 0H612V803.25H0Z"/>
</clipPath>
<clipPath id="clip_74">
<path transform="matrix(1,0,0,-1,-40.5,749.76669)" d="M91.35841 652.9812C91.35841 653.2012 91.5368 653.3796 91.75685 653.3796 91.9769 653.3796 92.15528 653.2012 92.15528 652.9812V576.2424C92.15528 576.0224 91.9769 575.844 91.75685 575.844 91.5368 575.844 91.35841 576.0224 91.35841 576.2424Z"/>
</clipPath>
<clipPath id="clip_75">
<path transform="matrix(1,0,0,-1,-40.5,749.76669)" d="M0 0H612V803.25H0Z"/>
</clipPath>
<clipPath id="clip_76">
<path transform="matrix(1,0,0,-1,-40.5,749.76669)" d="M105.5316 746.3213C105.5316 746.5413 105.71 746.7197 105.9301 746.7197 106.1501 746.7197 106.3285 746.5413 106.3285 746.3213V698.3596C106.3285 698.1395 106.1501 697.9611 105.9301 697.9611 105.71 697.9611 105.5316 698.1395 105.5316 698.3596Z"/>
</clipPath>
<clipPath id="clip_77">
<path transform="matrix(1,0,0,-1,-40.5,749.76669)" d="M0 0H612V803.25H0Z"/>
</clipPath>
<clipPath id="clip_78">
<path transform="matrix(1,0,0,-1,-40.5,749.76669)" d="M165.5138 624.6347C165.5138 624.8548 165.6922 625.0331 165.9123 625.0331 166.1323 625.0331 166.3107 624.8548 166.3107 624.6347V576.2424C166.3107 576.0224 166.1323 575.844 165.9123 575.844 165.6922 575.844 165.5138 576.0224 165.5138 576.2424Z"/>
</clipPath>
<clipPath id="clip_79">
<path transform="matrix(1,0,0,-1,-40.5,749.76669)" d="M0 0H612V803.25H0Z"/>
</clipPath>
<clipPath id="clip_80">
<path transform="matrix(1,0,0,-1,-40.5,749.76669)" d="M119.7049 703.8016C119.7049 704.0216 119.8833 704.2 120.1033 704.2 120.3234 704.2 120.5018 704.0216 120.5018 703.8016V576.2424C120.5018 576.0224 120.3234 575.844 120.1033 575.844 119.8833 575.844 119.7049 576.0224 119.7049 576.2424Z"/>
</clipPath>
<clipPath id="clip_81">
<path transform="matrix(1,0,0,-1,-40.5,749.76669)" d="M0 0H612V803.25H0Z"/>
</clipPath>
<clipPath id="clip_82">
<path transform="matrix(1,0,0,-1,-40.5,749.76669)" d="M190.5711 599.1469C190.5711 599.367 190.7494 599.5453 190.9695 599.5453 191.1895 599.5453 191.3679 599.367 191.3679 599.1469V576.2424C191.3679 576.0224 191.1895 575.844 190.9695 575.844 190.7494 575.844 190.5711 576.0224 190.5711 576.2424Z"/>
</clipPath>
<clipPath id="clip_83">
<path transform="matrix(1,0,0,-1,-40.5,749.76669)" d="M0 0H612V803.25H0Z"/>
</clipPath>
<clipPath id="clip_84">
<path transform="matrix(1,0,0,-1,-40.5,749.76669)" d="M0 0H612V803.25H0Z"/>
</clipPath>
<clipPath id="clip_85">
<path transform="matrix(1,0,0,-1,-40.5,749.76669)" d="M0 0H612V803.25H0Z"/>
</clipPath>
<clipPath id="clip_86">
<path transform="matrix(1,0,0,-1,-40.5,749.76669)" d="M0 0H612V803.25H0Z"/>
</clipPath>
<clipPath id="clip_87">
<path transform="matrix(1,0,0,-1,-40.5,749.76669)" d="M0 0H612V803.25H0Z"/>
</clipPath>
<clipPath id="clip_88">
<path transform="matrix(1,0,0,-1,-40.5,749.76669)" d="M170.9558 746.3213C170.9558 746.5413 171.1342 746.7197 171.3543 746.7197 171.5743 746.7197 171.7527 746.5413 171.7527 746.3213V703.8016C171.7527 703.5815 171.5743 703.4031 171.3543 703.4031 171.1342 703.4031 170.9558 703.5815 170.9558 703.8016Z"/>
</clipPath>
<clipPath id="clip_89">
<path transform="matrix(1,0,0,-1,-40.5,749.76669)" d="M0 0H612V803.25H0Z"/>
</clipPath>
<clipPath id="clip_90">
<path transform="matrix(1,0,0,-1,-40.5,749.76669)" d="M128.4361 746.3213C128.4361 746.5413 128.6145 746.7197 128.8346 746.7197 129.0546 746.7197 129.233 746.5413 129.233 746.3213V703.8016C129.233 703.5815 129.0546 703.4031 128.8346 703.4031 128.6145 703.4031 128.4361 703.5815 128.4361 703.8016Z"/>
</clipPath>
<clipPath id="clip_91">
<path transform="matrix(1,0,0,-1,-40.5,749.76669)" d="M0 0H612V803.25H0Z"/>
</clipPath>
<clipPath id="clip_92">
<path transform="matrix(1,0,0,-1,-40.5,749.76669)" d="M0 0H612V803.25H0Z"/>
</clipPath>
<clipPath id="clip_93">
<path transform="matrix(1,0,0,-1,-40.5,749.76669)" d="M179.7667 746.2416C179.7667 746.4616 179.9451 746.64 180.1652 746.64 180.3852 746.64 180.5636 746.4616 180.5636 746.2416V703.8016C180.5636 703.5815 180.3852 703.4031 180.1652 703.4031 179.9451 703.4031 179.7667 703.5815 179.7667 703.8016Z"/>
</clipPath>
<clipPath id="clip_94">
<path transform="matrix(1,0,0,-1,-40.5,749.76669)" d="M0 0H612V803.25H0Z"/>
</clipPath>
<clipPath id="clip_95">
<path transform="matrix(1,0,0,-1,-40.5,749.76669)" d="M0 0H612V803.25H0Z"/>
</clipPath>
<clipPath id="clip_96">
<path transform="matrix(1,0,0,-1,-40.5,749.76669)" d="M133.8781 746.3213C133.8781 746.5413 134.0565 746.7197 134.2766 746.7197 134.4966 746.7197 134.675 746.5413 134.675 746.3213V703.8016C134.675 703.5815 134.4966 703.4031 134.2766 703.4031 134.0565 703.4031 133.8781 703.5815 133.8781 703.8016Z"/>
</clipPath>
<clipPath id="clip_97">
<path transform="matrix(1,0,0,-1,-40.5,749.76669)" d="M0 0H612V803.25H0Z"/>
</clipPath>
<clipPath id="clip_98">
<path transform="matrix(1,0,0,-1,-40.5,749.76669)" d="M0 0H612V803.25H0Z"/>
</clipPath>
</defs>
<g clip-path="url(#clip_56)">
<g clip-path="url(#clip_57)">
<g clip-path="url(#clip_58)">
<text fill-opacity="0" xml:space="preserve" transform="matrix(.8471761 0 -0 .8471761 -24.5625 -53.483339)" font-size="39" font-family=".SFUI"><tspan y="112.2955" x="88.60909">l</tspan></text>
<text xml:space="preserve" transform="matrix(11.86047 0 -0 11.86047 36.241304 75.686649)" font-size="1" font-family="cmmi10" font-style="italic"><tspan y="-.906" x="0">v</tspan></text>
<g clip-path="url(#clip_59)">
<path transform="matrix(1,0,0,-1,-40.5,749.76669)" d="M57.96837 745.9228C57.74832 745.9228 57.56993 746.1012 57.56993 746.3213 57.56993 746.5413 57.74832 746.7197 57.96837 746.7197H228.0472C228.2673 746.7197 228.4456 746.5413 228.4456 746.3213 228.4456 746.1012 228.2673 745.9228 228.0472 745.9228ZM156.8993 632.6536C156.7437 632.8092 156.7437 633.0615 156.8993 633.2171 157.0549 633.3727 157.3072 633.3727 157.4628 633.2171L214.1557 576.5242C214.3113 576.3686 214.3113 576.1163 214.1557 575.9607 214.0001 575.8051 213.7478 575.8051 213.5922 575.9607ZM57.68663 746.0395C57.53103 746.1951 57.53103 746.4474 57.68663 746.603 57.84223 746.7586 58.09451 746.7586 58.25011 746.603L114.9431 689.9101C115.0987 689.7545 115.0987 689.5022 114.9431 689.3466 114.7875 689.191 114.5352 689.191 114.3796 689.3466ZM114.3234 689.8395C114.4401 690.0261 114.6859 690.0828 114.8725 689.9662 115.0591 689.8496 115.1158 689.6038 114.9992 689.4172L44.13301 576.0313C44.01638 575.8447 43.77057 575.7879 43.58396 575.9046 43.39736 576.0212 43.34063 576.267 43.45726 576.4536ZM43.79513 575.844C43.57508 575.844 43.3967 576.0224 43.3967 576.2424 43.3967 576.4625 43.57508 576.6409 43.79513 576.6409H213.874C214.094 576.6409 214.2724 576.4625 214.2724 576.2424 214.2724 576.0224 214.094 575.844 213.874 575.844ZM120.1033 703.0047C119.6632 703.0047 119.3064 703.3615 119.3064 703.8016 119.3064 704.2417 119.6632 704.5984 120.1033 704.5984H190.9695C191.4096 704.5984 191.7664 704.2417 191.7664 703.8016 191.7664 703.3615 191.4096 703.0047 190.9695 703.0047ZM227.7093 746.5324C227.826 746.719 228.0718 746.7758 228.2584 746.6591 228.445 746.5425 228.5017 746.2967 228.3851 746.1101L157.5189 632.7242C157.4023 632.5376 157.1565 632.4809 156.9699 632.5975 156.7832 632.7141 156.7265 632.96 156.8431 633.1466ZM119.3064 709.2436C119.3064 709.6837 119.6632 710.0404 120.1033 710.0404 120.5434 710.0404 120.9002 709.6837 120.9002 709.2436V698.3596C120.9002 697.9195 120.5434 697.5627 120.1033 697.5627 119.6632 697.5627 119.3064 697.9195 119.3064 698.3596ZM120.1033 708.4467C119.6632 708.4467 119.3064 708.8035 119.3064 709.2436 119.3064 709.6837 119.6632 710.0404 120.1033 710.0404H125.5453C125.9854 710.0404 126.3422 709.6837 126.3422 709.2436 126.3422 708.8035 125.9854 708.4467 125.5453 708.4467ZM120.1033 697.5627C119.6632 697.5627 119.3064 697.9195 119.3064 698.3596 119.3064 698.7997 119.6632 699.1564 120.1033 699.1564H125.5453C125.9854 699.1564 126.3422 698.7997 126.3422 698.3596 126.3422 697.9195 125.9854 697.5627 125.5453 697.5627ZM191.7664 698.3596C191.7664 697.9195 191.4096 697.5627 190.9695 697.5627 190.5294 697.5627 190.1726 697.9195 190.1726 698.3596V709.2436C190.1726 709.6837 190.5294 710.0404 190.9695 710.0404 191.4096 710.0404 191.7664 709.6837 191.7664 709.2436ZM190.9695 699.1564C191.4096 699.1564 191.7664 698.7997 191.7664 698.3596 191.7664 697.9195 191.4096 697.5627 190.9695 697.5627H185.5275C185.0874 697.5627 184.7306 697.9195 184.7306 698.3596 184.7306 698.7997 185.0874 699.1564 185.5275 699.1564ZM190.9695 710.0404C191.4096 710.0404 191.7664 709.6837 191.7664 709.2436 191.7664 708.8035 191.4096 708.4467 190.9695 708.4467H185.5275C185.0874 708.4467 184.7306 708.8035 184.7306 709.2436 184.7306 709.6837 185.0874 710.0404 185.5275 710.0404ZM72.54004 661.5176C72.54004 661.2976 72.36166 661.1192 72.14161 661.1192 71.92156 661.1192 71.74317 661.2976 71.74317 661.5176V681.6787C71.74317 681.8987 71.92156 682.0771 72.14161 682.0771 72.36166 682.0771 72.54004 681.8987 72.54004 681.6787ZM68.58271 681.6787 72.14161 689.8641 75.7005 681.6787Z"/>
</g>
<g clip-path="url(#clip_60)">
<path transform="matrix(1,0,0,-1,-40.5,749.76669)" d="M113.5344 688.5014C112.912 689.1238 112.912 690.1329 113.5344 690.7553 114.1568 691.3777 115.1659 691.3777 115.7883 690.7553 116.4107 690.1329 116.4107 689.1238 115.7883 688.5014 115.1659 687.879 114.1568 687.879 113.5344 688.5014M226.9203 745.1943C226.2979 745.8167 226.2979 746.8258 226.9203 747.4482 227.5426 748.0706 228.5518 748.0706 229.1742 747.4482 229.7966 746.8258 229.7966 745.8167 229.1742 745.1943 228.5518 744.5719 227.5426 744.5719 226.9203 745.1943M212.747 575.1155C212.1246 575.7379 212.1246 576.747 212.747 577.3694 213.3694 577.9918 214.3785 577.9918 215.0009 577.3694 215.6233 576.747 215.6233 575.7379 215.0009 575.1155 214.3785 574.4931 213.3694 574.4931 212.747 575.1155" fill="#dc267f"/>
</g>
<g clip-path="url(#clip_61)">
<path transform="matrix(1,0,0,-1,-40.5,749.76669)" d="M156.0541 631.8084C155.4317 632.4308 155.4317 633.4399 156.0541 634.0623 156.6765 634.6847 157.6856 634.6847 158.308 634.0623 158.9304 633.4399 158.9304 632.4308 158.308 631.8084 157.6856 631.186 156.6765 631.186 156.0541 631.8084M42.66818 575.1155C42.04578 575.7379 42.04578 576.747 42.66818 577.3694 43.29058 577.9918 44.29969 577.9918 44.92209 577.3694 45.54448 576.747 45.54448 575.7379 44.92209 575.1155 44.29969 574.4931 43.29058 574.4931 42.66818 575.1155M56.84142 745.1943C56.21902 745.8167 56.21902 746.8258 56.84142 747.4482 57.46382 748.0706 58.47292 748.0706 59.09532 747.4482 59.71772 746.8258 59.71772 745.8167 59.09532 745.1943 58.47292 744.5719 57.46382 744.5719 56.84142 745.1943" fill="#648fff"/>
</g>
<g clip-path="url(#clip_62)">
<g clip-path="url(#clip_63)">
<path transform="matrix(1,0,0,-1,-40.5,749.76669)" d="M114.2629 689.6283V688.0425H115.0598V689.6283ZM114.2629 687.2496V685.6638H115.0598V687.2496ZM114.2629 684.8709V683.2851H115.0598V684.8709ZM114.2629 682.4922V680.9063H115.0598V682.4922ZM114.2629 680.1134V678.5276H115.0598V680.1134ZM114.2629 677.7347V676.1489H115.0598V677.7347ZM114.2629 675.356V673.7702H115.0598V675.356ZM114.2629 672.9773V671.3914H115.0598V672.9773ZM114.2629 670.5985V669.0127H115.0598V670.5985ZM114.2629 668.2198V666.634H115.0598V668.2198ZM114.2629 665.8411V664.2553H115.0598V665.8411ZM114.2629 663.4624V661.8765H115.0598V663.4624ZM114.2629 661.0836V659.4978H115.0598V661.0836ZM114.2629 658.7049V657.1191H115.0598V658.7049ZM114.2629 656.3262V654.7404H115.0598V656.3262ZM114.2629 653.9475V652.3616H115.0598V653.9475ZM114.2629 651.5687V649.9829H115.0598V651.5687ZM114.2629 649.19V647.6042H115.0598V649.19ZM114.2629 646.8113V645.2255H115.0598V646.8113ZM114.2629 644.4326V642.8467H115.0598V644.4326ZM114.2629 642.0538V640.468H115.0598V642.0538ZM114.2629 639.6751V638.0893H115.0598V639.6751ZM114.2629 637.2964V635.7106H115.0598V637.2964ZM114.2629 634.9177V633.3318H115.0598V634.9177ZM114.2629 632.5389V630.9531H115.0598V632.5389ZM114.2629 630.1602V628.5744H115.0598V630.1602ZM114.2629 627.7815V626.1957H115.0598V627.7815ZM114.2629 625.4028V623.8169H115.0598V625.4028ZM114.2629 623.024V621.4382H115.0598V623.024ZM114.2629 620.6453V619.0595H115.0598V620.6453ZM114.2629 618.2666V616.6808H115.0598V618.2666ZM114.2629 615.8879V614.302H115.0598V615.8879ZM114.2629 613.5091V611.9233H115.0598V613.5091ZM114.2629 611.1304V609.5446H115.0598V611.1304ZM114.2629 608.7517V607.1659H115.0598V608.7517ZM114.2629 606.373V604.7871H115.0598V606.373ZM114.2629 603.9942V602.4084H115.0598V603.9942ZM114.2629 601.6155V600.0297H115.0598V601.6155ZM114.2629 599.2368V597.651H115.0598V599.2368ZM114.2629 596.8581V595.2722H115.0598V596.8581ZM114.2629 594.4793V592.8935H115.0598V594.4793ZM114.2629 592.1006V590.5148H115.0598V592.1006ZM114.2629 589.7219V588.1361H115.0598V589.7219ZM114.2629 587.3432V585.7573H115.0598V587.3432ZM114.2629 584.9644V583.3786H115.0598V584.9644ZM114.2629 582.5857V580.9999H115.0598V582.5857ZM114.2629 580.207V578.6212H115.0598V580.207ZM114.2629 577.8283V576.2424H115.0598V577.8283Z" fill="#dc267f"/>
</g>
</g>
<g clip-path="url(#clip_64)">
<g clip-path="url(#clip_65)">
<path transform="matrix(1,0,0,-1,-40.5,749.76669)" d="M156.7826 632.9354V631.4031H157.5795V632.9354ZM156.7826 630.637V629.1048H157.5795V630.637ZM156.7826 628.3387V626.8064H157.5795V628.3387ZM156.7826 626.0403V624.5081H157.5795V626.0403ZM156.7826 623.7419V622.2097H157.5795V623.7419ZM156.7826 621.4436V619.9113H157.5795V621.4436ZM156.7826 619.1452V617.613H157.5795V619.1452ZM156.7826 616.8468V615.3146H157.5795V616.8468ZM156.7826 614.5485V613.0162H157.5795V614.5485ZM156.7826 612.2501V610.7179H157.5795V612.2501ZM156.7826 609.9518V608.4195H157.5795V609.9518ZM156.7826 607.6534V606.1212H157.5795V607.6534ZM156.7826 605.355V603.8228H157.5795V605.355ZM156.7826 603.0567V601.5244H157.5795V603.0567ZM156.7826 600.7583V599.2261H157.5795V600.7583ZM156.7826 598.4599V596.9277H157.5795V598.4599ZM156.7826 596.1616V594.6293H157.5795V596.1616ZM156.7826 593.8632V592.331H157.5795V593.8632ZM156.7826 591.5649V590.0326H157.5795V591.5649ZM156.7826 589.2665V587.7343H157.5795V589.2665ZM156.7826 586.9681V585.4359H157.5795V586.9681ZM156.7826 584.6698V583.1375H157.5795V584.6698ZM156.7826 582.3714V580.8392H157.5795V582.3714ZM156.7826 580.073V578.5408H157.5795V580.073ZM156.7826 577.7747V576.2424H157.5795V577.7747Z" fill="#648fff"/>
</g>
</g>
<g clip-path="url(#clip_66)">
<g clip-path="url(#clip_67)">
<path transform="matrix(1,0,0,-1,-40.5,749.76669)" d="M190.5711 703.8016V702.3403H191.3679V703.8016ZM190.5711 701.6097V700.1484H191.3679V701.6097ZM190.5711 699.4178V697.9565H191.3679V699.4178ZM190.5711 697.2258V695.7646H191.3679V697.2258ZM190.5711 695.0339V693.5727H191.3679V695.0339ZM190.5711 692.842V691.3808H191.3679V692.842ZM190.5711 690.6501V689.1889H191.3679V690.6501ZM190.5711 688.4582V686.9969H191.3679V688.4582Z" fill="#19b091"/>
</g>
</g>
<g clip-path="url(#clip_68)">
<g clip-path="url(#clip_69)">
<path transform="matrix(1,0,0,-1,-40.5,749.76669)" d="M91.35841 746.3213V744.7854H92.15528V746.3213ZM91.35841 744.0175V742.4817H92.15528V744.0175ZM91.35841 741.7138V740.1779H92.15528V741.7138ZM91.35841 739.41V737.8742H92.15528V739.41ZM91.35841 737.1062V735.5704H92.15528V737.1062ZM91.35841 734.8025V733.2666H92.15528V734.8025ZM91.35841 732.4987V730.9629H92.15528V732.4987ZM91.35841 730.195V728.6591H92.15528V730.195ZM91.35841 727.8912V726.3554H92.15528V727.8912ZM91.35841 725.5874V724.0516H92.15528V725.5874ZM91.35841 723.2837V721.7478H92.15528V723.2837ZM91.35841 720.9799V719.4441H92.15528V720.9799ZM91.35841 718.6762V717.1403H92.15528V718.6762ZM91.35841 716.3724V714.8366H92.15528V716.3724ZM91.35841 714.0686V712.5328H92.15528V714.0686Z" fill="#19b091"/>
</g>
</g>
<g clip-path="url(#clip_70)">
<g clip-path="url(#clip_71)">
<path transform="matrix(1,0,0,-1,-40.5,749.76669)" d="M77.18517 630.304V628.7811H77.98205V630.304ZM77.18517 628.0197V626.4969H77.98205V628.0197ZM77.18517 625.7354V624.2126H77.98205V625.7354ZM77.18517 623.4511V621.9283H77.98205V623.4511ZM77.18517 621.1668V619.644H77.98205V621.1668ZM77.18517 618.8825V617.3597H77.98205V618.8825ZM77.18517 616.5983V615.0754H77.98205V616.5983ZM77.18517 614.314V612.7911H77.98205V614.314ZM77.18517 612.0297V610.5068H77.98205V612.0297ZM77.18517 609.7454V608.2225H77.98205V609.7454ZM77.18517 607.4611V605.9382H77.98205V607.4611ZM77.18517 605.1768V603.6539H77.98205V605.1768ZM77.18517 602.8925V601.3696H77.98205V602.8925ZM77.18517 600.6082V599.0854H77.98205V600.6082ZM77.18517 598.3239V596.8011H77.98205V598.3239ZM77.18517 596.0396V594.5168H77.98205V596.0396ZM77.18517 593.7553V592.2325H77.98205V593.7553ZM77.18517 591.4711V589.9482H77.98205V591.4711ZM77.18517 589.1868V587.6639H77.98205V589.1868ZM77.18517 586.9025V585.3796H77.98205V586.9025ZM77.18517 584.6182V583.0953H77.98205V584.6182ZM77.18517 582.3339V580.811H77.98205V582.3339ZM77.18517 580.0496V578.5267H77.98205V580.0496ZM77.18517 577.7653V576.2424H77.98205V577.7653Z" fill="#19b091"/>
</g>
</g>
<g clip-path="url(#clip_72)">
<g clip-path="url(#clip_73)">
<path transform="matrix(1,0,0,-1,-40.5,749.76669)" d="M204.7443 746.3213V744.7618H205.5412V746.3213ZM204.7443 743.9821V742.4226H205.5412V743.9821ZM204.7443 741.6429V740.0835H205.5412V741.6429ZM204.7443 739.3037V737.7443H205.5412V739.3037ZM204.7443 736.9646V735.4051H205.5412V736.9646ZM204.7443 734.6254V733.0659H205.5412V734.6254ZM204.7443 732.2862V730.7267H205.5412V732.2862ZM204.7443 729.947V728.3876H205.5412V729.947ZM204.7443 727.6078V726.0484H205.5412V727.6078ZM204.7443 725.2687V723.7092H205.5412V725.2687ZM204.7443 722.9295V721.37H205.5412V722.9295ZM204.7443 720.5903V719.0308H205.5412V720.5903ZM204.7443 718.2511V716.6917H205.5412V718.2511ZM204.7443 715.9119V714.3525H205.5412V715.9119ZM204.7443 713.5728V712.0133H205.5412V713.5728ZM204.7443 711.2336V709.6741H205.5412V711.2336Z" fill="#19b091"/>
</g>
</g>
<g clip-path="url(#clip_74)">
<g clip-path="url(#clip_75)">
<path transform="matrix(1,0,0,-1,-40.5,749.76669)" d="M91.35841 652.9812V651.4151H92.15528V652.9812ZM91.35841 650.632V649.0659H92.15528V650.632ZM91.35841 648.2829V646.7168H92.15528V648.2829ZM91.35841 645.9337V644.3677H92.15528V645.9337ZM91.35841 643.5846V642.0185H92.15528V643.5846ZM91.35841 641.2355V639.6694H92.15528V641.2355ZM91.35841 638.8863V637.3202H92.15528V638.8863ZM91.35841 636.5372V634.9711H92.15528V636.5372ZM91.35841 634.188V632.6219H92.15528V634.188ZM91.35841 631.8389V630.2728H92.15528V631.8389ZM91.35841 629.4897V627.9236H92.15528V629.4897ZM91.35841 627.1406V625.5745H92.15528V627.1406ZM91.35841 624.7914V623.2253H92.15528V624.7914ZM91.35841 622.4423V620.8762H92.15528V622.4423ZM91.35841 620.0932V618.5271H92.15528V620.0932ZM91.35841 617.744V616.1779H92.15528V617.744ZM91.35841 615.3949V613.8288H92.15528V615.3949ZM91.35841 613.0457V611.4796H92.15528V613.0457ZM91.35841 610.6966V609.1305H92.15528V610.6966ZM91.35841 608.3474V606.7813H92.15528V608.3474ZM91.35841 605.9983V604.4322H92.15528V605.9983ZM91.35841 603.6491V602.083H92.15528V603.6491ZM91.35841 601.3V599.7339H92.15528V601.3ZM91.35841 598.9508V597.3847H92.15528V598.9508ZM91.35841 596.6017V595.0356H92.15528V596.6017ZM91.35841 594.2526V592.6865H92.15528V594.2526ZM91.35841 591.9034V590.3373H92.15528V591.9034ZM91.35841 589.5543V587.9882H92.15528V589.5543ZM91.35841 587.2051V585.639H92.15528V587.2051ZM91.35841 584.856V583.2899H92.15528V584.856ZM91.35841 582.5068V580.9407H92.15528V582.5068ZM91.35841 580.1577V578.5916H92.15528V580.1577ZM91.35841 577.8085V576.2424H92.15528V577.8085Z" fill="#19b091"/>
</g>
</g>
<g clip-path="url(#clip_76)">
<g clip-path="url(#clip_77)">
<path transform="matrix(1,0,0,-1,-40.5,749.76669)" d="M105.5316 746.3213V744.7741H106.3285V746.3213ZM105.5316 744.0005V742.4534H106.3285V744.0005ZM105.5316 741.6798V740.1327H106.3285V741.6798ZM105.5316 739.3591V737.8119H106.3285V739.3591ZM105.5316 737.0384V735.4912H106.3285V737.0384ZM105.5316 734.7176V733.1705H106.3285V734.7176ZM105.5316 732.3969V730.8498H106.3285V732.3969ZM105.5316 730.0762V728.529H106.3285V730.0762ZM105.5316 727.7555V726.2083H106.3285V727.7555ZM105.5316 725.4347V723.8876H106.3285V725.4347ZM105.5316 723.114V721.5668H106.3285V723.114ZM105.5316 720.7933V719.2461H106.3285V720.7933ZM105.5316 718.4725V716.9254H106.3285V718.4725ZM105.5316 716.1518V714.6047H106.3285V716.1518ZM105.5316 713.8311V712.2839H106.3285V713.8311ZM105.5316 711.5104V709.9632H106.3285V711.5104ZM105.5316 709.1896V707.6425H106.3285V709.1896ZM105.5316 706.8689V705.3217H106.3285V706.8689ZM105.5316 704.5482V703.001H106.3285V704.5482ZM105.5316 702.2274V700.6803H106.3285V702.2274ZM105.5316 699.9067V698.3596H106.3285V699.9067Z" fill="#19b091"/>
</g>
</g>
<g clip-path="url(#clip_78)">
<g clip-path="url(#clip_79)">
<path transform="matrix(1,0,0,-1,-40.5,749.76669)" d="M165.5138 624.6347V623.0737H166.3107V624.6347ZM165.5138 622.2931V620.7321H166.3107V622.2931ZM165.5138 619.9516V618.3905H166.3107V619.9516ZM165.5138 617.61V616.049H166.3107V617.61ZM165.5138 615.2685V613.7074H166.3107V615.2685ZM165.5138 612.9269V611.3659H166.3107V612.9269ZM165.5138 610.5853V609.0243H166.3107V610.5853ZM165.5138 608.2438V606.6827H166.3107V608.2438ZM165.5138 605.9022V604.3412H166.3107V605.9022ZM165.5138 603.5607V601.9996H166.3107V603.5607ZM165.5138 601.2191V599.6581H166.3107V601.2191ZM165.5138 598.8775V597.3165H166.3107V598.8775ZM165.5138 596.536V594.9749H166.3107V596.536ZM165.5138 594.1944V592.6334H166.3107V594.1944ZM165.5138 591.8529V590.2918H166.3107V591.8529ZM165.5138 589.5113V587.9502H166.3107V589.5113ZM165.5138 587.1697V585.6087H166.3107V587.1697ZM165.5138 584.8282V583.2671H166.3107V584.8282ZM165.5138 582.4866V580.9256H166.3107V582.4866ZM165.5138 580.145V578.584H166.3107V580.145ZM165.5138 577.8035V576.2424H166.3107V577.8035Z" fill="#19b091"/>
</g>
</g>
<g clip-path="url(#clip_80)">
<g clip-path="url(#clip_81)">
<path transform="matrix(1,0,0,-1,-40.5,749.76669)" d="M119.7049 703.8016V702.217H120.5018V703.8016ZM119.7049 701.4247V699.8401H120.5018V701.4247ZM119.7049 699.0478V697.4632H120.5018V699.0478ZM119.7049 696.6709V695.0863H120.5018V696.6709ZM119.7049 694.2941V692.7095H120.5018V694.2941ZM119.7049 691.9172V690.3326H120.5018V691.9172ZM119.7049 689.5403V687.9557H120.5018V689.5403ZM119.7049 687.1634V685.5788H120.5018V687.1634ZM119.7049 684.7865V683.202H120.5018V684.7865ZM119.7049 682.4097V680.8251H120.5018V682.4097ZM119.7049 680.0328V678.4482H120.5018V680.0328ZM119.7049 677.6559V676.0713H120.5018V677.6559ZM119.7049 675.279V673.6944H120.5018V675.279ZM119.7049 672.9022V671.3176H120.5018V672.9022ZM119.7049 670.5253V668.9407H120.5018V670.5253ZM119.7049 668.1484V666.5638H120.5018V668.1484ZM119.7049 665.7715V664.1869H120.5018V665.7715ZM119.7049 663.3946V661.8101H120.5018V663.3946ZM119.7049 661.0178V659.4332H120.5018V661.0178ZM119.7049 658.6409V657.0563H120.5018V658.6409ZM119.7049 656.264V654.6794H120.5018V656.264ZM119.7049 653.8871V652.3025H120.5018V653.8871ZM119.7049 651.5102V649.9257H120.5018V651.5102ZM119.7049 649.1334V647.5488H120.5018V649.1334ZM119.7049 646.7565V645.1719H120.5018V646.7565ZM119.7049 644.3796V642.795H120.5018V644.3796ZM119.7049 642.0027V640.4182H120.5018V642.0027ZM119.7049 639.6259V638.0413H120.5018V639.6259ZM119.7049 637.249V635.6644H120.5018V637.249ZM119.7049 634.8721V633.2875H120.5018V634.8721ZM119.7049 632.4952V630.9106H120.5018V632.4952ZM119.7049 630.1183V628.5338H120.5018V630.1183ZM119.7049 627.7415V626.1569H120.5018V627.7415ZM119.7049 625.3646V623.78H120.5018V625.3646ZM119.7049 622.9877V621.4031H120.5018V622.9877ZM119.7049 620.6108V619.0262H120.5018V620.6108ZM119.7049 618.234V616.6494H120.5018V618.234ZM119.7049 615.8571V614.2725H120.5018V615.8571ZM119.7049 613.4802V611.8956H120.5018V613.4802ZM119.7049 611.1033V609.5187H120.5018V611.1033ZM119.7049 608.7264V607.1419H120.5018V608.7264ZM119.7049 606.3496V604.765H120.5018V606.3496ZM119.7049 603.9727V602.3881H120.5018V603.9727ZM119.7049 601.5958V600.0112H120.5018V601.5958ZM119.7049 599.2189V597.6343H120.5018V599.2189ZM119.7049 596.8421V595.2575H120.5018V596.8421ZM119.7049 594.4652V592.8806H120.5018V594.4652ZM119.7049 592.0883V590.5037H120.5018V592.0883ZM119.7049 589.7114V588.1268H120.5018V589.7114ZM119.7049 587.3345V585.75H120.5018V587.3345ZM119.7049 584.9577V583.3731H120.5018V584.9577ZM119.7049 582.5808V580.9962H120.5018V582.5808ZM119.7049 580.2039V578.6193H120.5018V580.2039ZM119.7049 577.827V576.2424H120.5018V577.827Z" fill="#ffb000"/>
</g>
</g>
<g clip-path="url(#clip_82)">
<g clip-path="url(#clip_83)">
<path transform="matrix(1,0,0,-1,-40.5,749.76669)" d="M190.5711 599.1469V597.7154H191.3679V599.1469ZM190.5711 596.9996V595.5681H191.3679V596.9996ZM190.5711 594.8523V593.4208H191.3679V594.8523ZM190.5711 592.705V591.2735H191.3679V592.705ZM190.5711 590.5577V589.1262H191.3679V590.5577ZM190.5711 588.4104V586.9789H191.3679V588.4104ZM190.5711 586.2631V584.8316H191.3679V586.2631ZM190.5711 584.1159V582.6843H191.3679V584.1159ZM190.5711 581.9686V580.537H191.3679V581.9686ZM190.5711 579.8213V578.3897H191.3679V579.8213ZM190.5711 577.674V576.2424H191.3679V577.674Z" fill="#19b091"/>
</g>
</g>
<g clip-path="url(#clip_84)">
<path transform="matrix(1,0,0,-1,-40.5,749.76669)" d="M118.9764 702.6746C118.354 703.297 118.354 704.3061 118.9764 704.9285 119.5988 705.5509 120.6079 705.5509 121.2303 704.9285 121.8527 704.3061 121.8527 703.297 121.2303 702.6746 120.6079 702.0522 119.5988 702.0522 118.9764 702.6746" fill="#ffb000"/>
<path transform="matrix(1,0,0,-1,-40.5,749.76669)" d="M189.8425 702.6746C189.2201 703.297 189.2201 704.3061 189.8425 704.9285 190.4649 705.5509 191.4741 705.5509 192.0965 704.9285 192.7188 704.3061 192.7188 703.297 192.0965 702.6746 191.4741 702.0522 190.4649 702.0522 189.8425 702.6746" fill="#19b091"/>
<path transform="matrix(1,0,0,-1,-40.5,749.76669)" d="M94.05898 712.0929C94.05927 711.9585 93.95053 711.8493 93.81611 711.849 93.68342 711.8487 93.57496 711.9548 93.57227 712.0874 93.54276 713.5468 93.5328 715.4473 93.63811 717.143L93.82565 721.331 93.99336 724.3739 94.25074 728.3109C94.39721 730.037 94.36525 731.7308 94.44349 733.7342 94.49128 735.0311 94.42974 736.2398 94.42584 737.4314L94.47494 740.8642C94.53304 742.0376 94.62274 743.0894 95.01815 743.7062 95.09825 743.8311 95.26447 743.8675 95.38942 743.7874 95.51236 743.7086 95.54986 743.546 95.47387 743.4213 94.90291 742.4844 95.03093 739.4724 95.04145 737.4339 95.03373 736.256 95.08425 735.0359 95.02372 733.7096 94.93746 731.7238 94.96095 730.0221 94.80267 728.2625L94.53002 724.3362 94.37453 721.3092 94.1999 717.1066C94.07053 715.4374 94.05595 713.5461 94.05898 712.0929" fill="#19b091"/>
<path transform="matrix(1,0,0,-1,-40.5,749.76669)" d="M128.8346 703.0047C128.3944 703.0047 128.0377 703.3615 128.0377 703.8016 128.0377 704.2417 128.3944 704.5984 128.8346 704.5984H134.2766C134.7167 704.5984 135.0734 704.2417 135.0734 703.8016 135.0734 703.3615 134.7167 703.0047 134.2766 703.0047ZM128.0377 709.2436C128.0377 709.6837 128.3944 710.0404 128.8345 710.0404 129.2747 710.0404 129.6314 709.6837 129.6314 709.2436V698.3596C129.6314 697.9195 129.2747 697.5627 128.8345 697.5627 128.3944 697.5627 128.0377 697.9195 128.0377 698.3596Z" fill="#dc267f"/>
</g>
<g clip-path="url(#clip_85)">
<path transform="matrix(1,0,0,-1,-40.5,749.76669)" d="M134.2766 703.0047C133.8365 703.0047 133.4797 703.3615 133.4797 703.8016 133.4797 704.2417 133.8365 704.5984 134.2766 704.5984H171.3543C171.7944 704.5984 172.1511 704.2417 172.1511 703.8016 172.1511 703.3615 171.7944 703.0047 171.3543 703.0047Z" fill="#ffb000"/>
</g>
<g clip-path="url(#clip_86)">
<path transform="matrix(1,0,0,-1,-40.5,749.76669)" d="M171.3543 703.0047C170.9142 703.0047 170.5574 703.3615 170.5574 703.8016 170.5574 704.2417 170.9142 704.5984 171.3543 704.5984H180.1652C180.6053 704.5984 180.9621 704.2417 180.9621 703.8016 180.9621 703.3615 180.6053 703.0047 180.1652 703.0047Z" fill="#648fff"/>
</g>
<g clip-path="url(#clip_87)">
<path transform="matrix(1,0,0,-1,-40.5,749.76669)" d="M180.1652 703.0047C179.7251 703.0047 179.3683 703.3615 179.3683 703.8016 179.3683 704.2417 179.7251 704.5984 180.1652 704.5984H190.9695C191.4096 704.5984 191.7664 704.2417 191.7664 703.8016 191.7664 703.3615 191.4096 703.0047 190.9695 703.0047Z" fill="#19b091"/>
</g>
<g clip-path="url(#clip_88)">
<g clip-path="url(#clip_89)">
<path transform="matrix(1,0,0,-1,-40.5,749.76669)" d="M170.9558 746.3213V744.8027H171.7527V746.3213ZM170.9558 744.0434V742.5249H171.7527V744.0434ZM170.9558 741.7656V740.247H171.7527V741.7656ZM170.9558 739.4878V737.9692H171.7527V739.4878ZM170.9558 737.2099V735.6913H171.7527V737.2099ZM170.9558 734.9321V733.4135H171.7527V734.9321ZM170.9558 732.6542V731.1357H171.7527V732.6542ZM170.9558 730.3764V728.8578H171.7527V730.3764ZM170.9558 728.0985V726.58H171.7527V728.0985ZM170.9558 725.8207V724.3021H171.7527V725.8207ZM170.9558 723.5429V722.0243H171.7527V723.5429ZM170.9558 721.265V719.7465H171.7527V721.265ZM170.9558 718.9872V717.4686H171.7527V718.9872ZM170.9558 716.7093V715.1908H171.7527V716.7093ZM170.9558 714.4315V712.9129H171.7527V714.4315ZM170.9558 712.1537V710.6351H171.7527V712.1537ZM170.9558 709.8758V708.3572H171.7527V709.8758ZM170.9558 707.598V706.0794H171.7527V707.598ZM170.9558 705.3201V703.8016H171.7527V705.3201Z" fill="#648fff"/>
</g>
</g>
<g clip-path="url(#clip_90)">
<g clip-path="url(#clip_91)">
<path transform="matrix(1,0,0,-1,-40.5,749.76669)" d="M128.4361 746.3213V744.8027H129.233V746.3213ZM128.4361 744.0434V742.5249H129.233V744.0434ZM128.4361 741.7656V740.247H129.233V741.7656ZM128.4361 739.4878V737.9692H129.233V739.4878ZM128.4361 737.2099V735.6913H129.233V737.2099ZM128.4361 734.9321V733.4135H129.233V734.9321ZM128.4361 732.6542V731.1357H129.233V732.6542ZM128.4361 730.3764V728.8578H129.233V730.3764ZM128.4361 728.0985V726.58H129.233V728.0985ZM128.4361 725.8207V724.3021H129.233V725.8207ZM128.4361 723.5429V722.0243H129.233V723.5429ZM128.4361 721.265V719.7465H129.233V721.265ZM128.4361 718.9872V717.4686H129.233V718.9872ZM128.4361 716.7093V715.1908H129.233V716.7093ZM128.4361 714.4315V712.9129H129.233V714.4315ZM128.4361 712.1537V710.6351H129.233V712.1537ZM128.4361 709.8758V708.3572H129.233V709.8758ZM128.4361 707.598V706.0794H129.233V707.598ZM128.4361 705.3201V703.8016H129.233V705.3201Z" fill="#dc267f"/>
</g>
</g>
<g clip-path="url(#clip_92)">
<path transform="matrix(1,0,0,-1,-40.5,749.76669)" d="M170.5574 709.2436C170.5574 709.6837 170.9142 710.0404 171.3543 710.0404 171.7944 710.0404 172.1511 709.6837 172.1511 709.2436V698.3596C172.1511 697.9195 171.7944 697.5627 171.3543 697.5627 170.9142 697.5627 170.5574 697.9195 170.5574 698.3596Z" fill="#648fff"/>
</g>
<g clip-path="url(#clip_93)">
<g clip-path="url(#clip_94)">
<path transform="matrix(1,0,0,-1,-40.5,749.76669)" d="M179.7667 746.2416V744.7259H180.5636V746.2416ZM179.7667 743.968V742.4523H180.5636V743.968ZM179.7667 741.6944V740.1787H180.5636V741.6944ZM179.7667 739.4209V737.9052H180.5636V739.4209ZM179.7667 737.1473V735.6316H180.5636V737.1473ZM179.7667 734.8737V733.358H180.5636V734.8737ZM179.7667 732.6002V731.0844H180.5636V732.6002ZM179.7667 730.3266V728.8109H180.5636V730.3266ZM179.7667 728.053V726.5373H180.5636V728.053ZM179.7667 725.7794V724.2637H180.5636V725.7794ZM179.7667 723.5059V721.9901H180.5636V723.5059ZM179.7667 721.2323V719.7166H180.5636V721.2323ZM179.7667 718.9587V717.443H180.5636V718.9587ZM179.7667 716.6851V715.1694H180.5636V716.6851ZM179.7667 714.4116V712.8959H180.5636V714.4116ZM179.7667 712.138V710.6223H180.5636V712.138ZM179.7667 709.8644V708.3487H180.5636V709.8644ZM179.7667 707.5909V706.0751H180.5636V707.5909ZM179.7667 705.3173V703.8016H180.5636V705.3173Z" fill="#19b091"/>
</g>
</g>
<g clip-path="url(#clip_95)">
<path transform="matrix(1,0,0,-1,-40.5,749.76669)" d="M179.3683 709.2436C179.3683 709.6837 179.7251 710.0404 180.1652 710.0404 180.6053 710.0404 180.9621 709.6837 180.9621 709.2436V698.3596C180.9621 697.9195 180.6053 697.5627 180.1652 697.5627 179.7251 697.5627 179.3683 697.9195 179.3683 698.3596Z" fill="#19b091"/>
</g>
<g clip-path="url(#clip_96)">
<g clip-path="url(#clip_97)">
<path transform="matrix(1,0,0,-1,-40.5,749.76669)" d="M133.8781 746.3213V744.8027H134.675V746.3213ZM133.8781 744.0434V742.5249H134.675V744.0434ZM133.8781 741.7656V740.247H134.675V741.7656ZM133.8781 739.4878V737.9692H134.675V739.4878ZM133.8781 737.2099V735.6913H134.675V737.2099ZM133.8781 734.9321V733.4135H134.675V734.9321ZM133.8781 732.6542V731.1357H134.675V732.6542ZM133.8781 730.3764V728.8578H134.675V730.3764ZM133.8781 728.0985V726.58H134.675V728.0985ZM133.8781 725.8207V724.3021H134.675V725.8207ZM133.8781 723.5429V722.0243H134.675V723.5429ZM133.8781 721.265V719.7465H134.675V721.265ZM133.8781 718.9872V717.4686H134.675V718.9872ZM133.8781 716.7093V715.1908H134.675V716.7093ZM133.8781 714.4315V712.9129H134.675V714.4315ZM133.8781 712.1537V710.6351H134.675V712.1537ZM133.8781 709.8758V708.3572H134.675V709.8758ZM133.8781 707.598V706.0794H134.675V707.598ZM133.8781 705.3201V703.8016H134.675V705.3201Z" fill="#ffb000"/>
</g>
</g>
<g clip-path="url(#clip_98)">
<path transform="matrix(1,0,0,-1,-40.5,749.76669)" d="M133.4797 709.6741C133.4797 710.1142 133.8365 710.471 134.2766 710.471 134.7167 710.471 135.0734 710.1142 135.0734 709.6741V698.7901C135.0734 698.35 134.7167 697.9932 134.2766 697.9932 133.8365 697.9932 133.4797 698.35 133.4797 698.7901Z" fill="#ffb000"/>
</g>
</g>
</g>
</g>
</svg>
