<svg xmlns="http://www.w3.org/2000/svg" xmlns:xlink="http://www.w3.org/1999/xlink" xmlns:inkscape="http://www.inkscape.org/namespaces/inkscape" version="1.1" width="75.5" height="18.99408" viewBox="0 0 75.5 18.99408">
<defs>
<clipPath id="clip_99">
<path transform="matrix(1,0,0,-1,-225.5,698.28268)" d="M225.5 679.2886H301V698.28268H225.5Z" clip-rule="evenodd"/>
</clipPath>
<clipPath id="clip_100">
<path transform="matrix(1,0,0,-1,-225.5,698.28268)" d="M0 0H612V803.25H0Z"/>
</clipPath>
<clipPath id="clip_101">
<path transform="matrix(1,0,0,-1,-225.5,698.28268)" d="M0 0H612V803.25H0Z"/>
</clipPath>
<clipPath id="clip_102">
<path transform="matrix(1,0,0,-1,-225.5,698.28268)" d="M0 0H612V803.25H0Z"/>
</clipPath>
<clipPath id="clip_103">
<path transform="matrix(1,0,0,-1,-225.5,698.28268)" d="M0 0H612V803.25H0Z"/>
</clipPath>
<clipPath id="clip_104">
<path transform="matrix(1,0,0,-1,-225.5,698.28268)" d="M0 0H612V803.25H0Z"/>
</clipPath>
<clipPath id="clip_105">
<path transform="matrix(1,0,0,-1,-225.5,698.28268)" d="M0 0H612V803.25H0Z"/>
</clipPath>
<clipPath id="clip_106">
<path transform="matrix(1,0,0,-1,-225.5,698.28268)" d="M0 0H612V803.25H0Z"/>
</clipPath>
<clipPath id="clip_107">
<path transform="matrix(1,0,0,-1,-225.5,698.28268)" d="M0 0H612V803.25H0Z"/>
</clipPath>
<clipPath id="clip_108">
<path transform="matrix(1,0,0,-1,-225.5,698.28268)" d="M0 0H612V803.25H0Z"/>
</clipPath>
<clipPath id="clip_109">
<path transform="matrix(1,0,0,-1,-225.5,698.28268)" d="M0 0H612V803.25H0Z"/>
</clipPath>
<clipPath id="clip_110">
<path transform="matrix(1,0,0,-1,-225.5,698.28268)" d="M0 0H612V803.25H0Z"/>
</clipPath>
</defs>
<g clip-path="url(#clip_99)">
<g clip-path="url(#clip_100)">
<g clip-path="url(#clip_101)">
<g clip-path="url(#clip_102)">
<path transform="matrix(1,0,0,-1,-225.5,698.28268)" d="M228.0472 689.2665C227.7171 689.2665 227.4495 689.534 227.4495 689.8641 227.4495 690.1942 227.7171 690.4618 228.0472 690.4618H236.7784C237.1085 690.4618 237.3761 690.1942 237.3761 689.8641 237.3761 689.534 237.1085 689.2665 236.7784 689.2665ZM227.4495 695.3061C227.4495 695.6362 227.7171 695.9038 228.0472 695.9038 228.3773 695.9038 228.6449 695.6362 228.6449 695.3061V684.4221C228.6449 684.092 228.3773 683.8245 228.0472 683.8245 227.7171 683.8245 227.4495 684.092 227.4495 684.4221ZM299.511 684.4221C299.511 684.092 299.2435 683.8245 298.9134 683.8245 298.5833 683.8245 298.3157 684.092 298.3157 684.4221V695.3061C298.3157 695.6362 298.5833 695.9038 298.9134 695.9038 299.2435 695.9038 299.511 695.6362 299.511 695.3061ZM236.1808 695.3061C236.1808 695.6362 236.4484 695.9038 236.7784 695.9038 237.1085 695.9038 237.3761 695.6362 237.3761 695.3061V689.8641C237.3761 689.534 237.1085 689.2665 236.7784 689.2665 236.4484 689.2665 236.1808 689.534 236.1808 689.8641ZM241.6228 695.7367C241.6228 696.0667 241.8904 696.3343 242.2204 696.3343 242.5505 696.3343 242.8181 696.0667 242.8181 695.7367V689.8641C242.8181 689.534 242.5505 689.2665 242.2204 689.2665 241.8904 689.2665 241.6228 689.534 241.6228 689.8641ZM278.7005 695.3061C278.7005 695.6362 278.9681 695.9038 279.2981 695.9038 279.6282 695.9038 279.8958 695.6362 279.8958 695.3061V689.8641C279.8958 689.534 279.6282 689.2665 279.2981 689.2665 278.9681 689.2665 278.7005 689.534 278.7005 689.8641ZM287.5114 695.3061C287.5114 695.6362 287.779 695.9038 288.1091 695.9038 288.4391 695.9038 288.7067 695.6362 288.7067 695.3061V689.8641C288.7067 689.534 288.4391 689.2665 288.1091 689.2665 287.779 689.2665 287.5114 689.534 287.5114 689.8641Z"/>
</g>
<g clip-path="url(#clip_103)">
<path transform="matrix(1,0,0,-1,-225.5,698.28268)" d="M236.7784 689.2665C236.4484 689.2665 236.1808 689.534 236.1808 689.8641 236.1808 690.1942 236.4484 690.4618 236.7784 690.4618H242.2204C242.5505 690.4618 242.8181 690.1942 242.8181 689.8641 242.8181 689.534 242.5505 689.2665 242.2204 689.2665Z" fill="#dc267f"/>
</g>
<g clip-path="url(#clip_104)">
<path transform="matrix(1,0,0,-1,-225.5,698.28268)" d="M242.2204 689.2665C241.8904 689.2665 241.6228 689.534 241.6228 689.8641 241.6228 690.1942 241.8904 690.4618 242.2204 690.4618H279.2981C279.6282 690.4618 279.8958 690.1942 279.8958 689.8641 279.8958 689.534 279.6282 689.2665 279.2981 689.2665Z" fill="#ffb000"/>
<path transform="matrix(1,0,0,-1,-225.5,698.28268)" d="M236.1808 695.3061C236.1808 695.6362 236.4484 695.9038 236.7784 695.9038 237.1085 695.9038 237.3761 695.6362 237.3761 695.3061V689.8641C237.3761 689.534 237.1085 689.2665 236.7784 689.2665 236.4484 689.2665 236.1808 689.534 236.1808 689.8641Z"/>
</g>
<g clip-path="url(#clip_105)">
<path transform="matrix(1,0,0,-1,-225.5,698.28268)" d="M279.2981 689.2665C278.9681 689.2665 278.7005 689.534 278.7005 689.8641 278.7005 690.1942 278.9681 690.4618 279.2981 690.4618H288.1091C288.4391 690.4618 288.7067 690.1942 288.7067 689.8641 288.7067 689.534 288.4391 689.2665 288.1091 689.2665Z" fill="#648fff"/>
<path transform="matrix(1,0,0,-1,-225.5,698.28268)" d="M241.6228 695.7367C241.6228 696.0667 241.8904 696.3343 242.2204 696.3343 242.5505 696.3343 242.8181 696.0667 242.8181 695.7367V689.8641C242.8181 689.534 242.5505 689.2665 242.2204 689.2665 241.8904 689.2665 241.6228 689.534 241.6228 689.8641Z"/>
</g>
<g clip-path="url(#clip_106)">
<path transform="matrix(1,0,0,-1,-225.5,698.28268)" d="M288.1091 689.2665C287.779 689.2665 287.5114 689.534 287.5114 689.8641 287.5114 690.1942 287.779 690.4618 288.1091 690.4618H298.9134C299.2435 690.4618 299.511 690.1942 299.511 689.8641 299.511 689.534 299.2435 689.2665 298.9134 689.2665Z" fill="#19b091"/>
<path transform="matrix(1,0,0,-1,-225.5,698.28268)" d="M278.7005 695.3061C278.7005 695.6362 278.9681 695.9038 279.2981 695.9038 279.6282 695.9038 279.8958 695.6362 279.8958 695.3061V689.8641C279.8958 689.534 279.6282 689.2665 279.2981 689.2665 278.9681 689.2665 278.7005 689.534 278.7005 689.8641Z"/>
</g>
<g clip-path="url(#clip_107)">
<path transform="matrix(1,0,0,-1,-225.5,698.28268)" d="M287.5114 695.3061C287.5114 695.6362 287.779 695.9038 288.1091 695.9038 288.4391 695.9038 288.7067 695.6362 288.7067 695.3061V689.8641C288.7067 689.534 288.4391 689.2665 288.1091 689.2665 287.779 689.2665 287.5114 689.534 287.5114 689.8641ZM299.511 684.4221C299.511 684.092 299.2435 683.8245 298.9134 683.8245 298.5833 683.8245 298.3157 684.092 298.3157 684.4221V695.3061C298.3157 695.6362 298.5833 695.9038 298.9134 695.9038 299.2435 695.9038 299.511 695.6362 299.511 695.3061ZM275.9292 686.7607C275.5992 686.7607 275.3316 687.0283 275.3316 687.3584 275.3316 687.6885 275.5992 687.956 275.9292 687.956H284.6605C284.9905 687.956 285.2581 687.6885 285.2581 687.3584 285.2581 687.0283 284.9905 686.7607 284.6605 686.7607ZM299.511 681.9164C299.511 681.5863 299.2435 681.3187 298.9134 681.3187 298.5833 681.3187 298.3157 681.5863 298.3157 681.9164V692.8004C298.3157 693.1305 298.5833 693.398 298.9134 693.398 299.2435 693.398 299.511 693.1305 299.511 692.8004ZM275.3316 687.3584C275.3316 687.6885 275.5992 687.956 275.9292 687.956 276.2593 687.956 276.5269 687.6885 276.5269 687.3584V681.9164C276.5269 681.5863 276.2593 681.3187 275.9292 681.3187 275.5992 681.3187 275.3316 681.5863 275.3316 681.9164ZM264.5272 687.3584C264.5272 687.6885 264.7948 687.956 265.1249 687.956 265.455 687.956 265.7226 687.6885 265.7226 687.3584V681.4858C265.7226 681.1558 265.455 680.8882 265.1249 680.8882 264.7948 680.8882 264.5272 681.1558 264.5272 681.4858ZM284.0628 687.3584C284.0628 687.6885 284.3304 687.956 284.6605 687.956 284.9905 687.956 285.2581 687.6885 285.2581 687.3584V681.9164C285.2581 681.5863 284.9905 681.3187 284.6605 681.3187 284.3304 681.3187 284.0628 681.5863 284.0628 681.9164ZM289.5048 687.3584C289.5048 687.6885 289.7724 687.956 290.1025 687.956 290.4325 687.956 290.7001 687.6885 290.7001 687.3584V681.9164C290.7001 681.5863 290.4325 681.3187 290.1025 681.3187 289.7724 681.3187 289.5048 681.5863 289.5048 681.9164Z"/>
</g>
<g clip-path="url(#clip_108)">
<path transform="matrix(1,0,0,-1,-225.5,698.28268)" d="M284.6605 686.7607C284.3304 686.7607 284.0628 687.0283 284.0628 687.3584 284.0628 687.6885 284.3304 687.956 284.6605 687.956H290.1025C290.4325 687.956 290.7001 687.6885 290.7001 687.3584 290.7001 687.0283 290.4325 686.7607 290.1025 686.7607Z" fill="#dc267f"/>
<path transform="matrix(1,0,0,-1,-225.5,698.28268)" d="M228.0472 686.7607C227.7171 686.7607 227.4495 687.0283 227.4495 687.3584 227.4495 687.6885 227.7171 687.956 228.0472 687.956H265.1249C265.455 687.956 265.7226 687.6885 265.7226 687.3584 265.7226 687.0283 265.455 686.7607 265.1249 686.7607Z" fill="#ffb000"/>
</g>
<g clip-path="url(#clip_109)">
<path transform="matrix(1,0,0,-1,-225.5,698.28268)" d="M290.1025 686.7607C289.7724 686.7607 289.5048 687.0283 289.5048 687.3584 289.5048 687.6885 289.7724 687.956 290.1025 687.956H298.9134C299.2435 687.956 299.511 687.6885 299.511 687.3584 299.511 687.0283 299.2435 686.7607 298.9134 686.7607Z" fill="#648fff"/>
<path transform="matrix(1,0,0,-1,-225.5,698.28268)" d="M265.1249 686.7607C264.7948 686.7607 264.5272 687.0283 264.5272 687.3584 264.5272 687.6885 264.7948 687.956 265.1249 687.956H275.9292C276.2593 687.956 276.5269 687.6885 276.5269 687.3584 276.5269 687.0283 276.2593 686.7607 275.9292 686.7607Z" fill="#19b091"/>
</g>
<g clip-path="url(#clip_110)">
<path transform="matrix(1,0,0,-1,-225.5,698.28268)" d="M275.3316 687.3584C275.3316 687.6885 275.5992 687.956 275.9292 687.956 276.2593 687.956 276.5269 687.6885 276.5269 687.3584V681.9164C276.5269 681.5863 276.2593 681.3187 275.9292 681.3187 275.5992 681.3187 275.3316 681.5863 275.3316 681.9164ZM264.5272 687.3584C264.5272 687.6885 264.7948 687.956 265.1249 687.956 265.455 687.956 265.7226 687.6885 265.7226 687.3584V681.4858C265.7226 681.1558 265.455 680.8882 265.1249 680.8882 264.7948 680.8882 264.5272 681.1558 264.5272 681.4858ZM284.0628 687.3584C284.0628 687.6885 284.3304 687.956 284.6605 687.956 284.9905 687.956 285.2581 687.6885 285.2581 687.3584V681.9164C285.2581 681.5863 284.9905 681.3187 284.6605 681.3187 284.3304 681.3187 284.0628 681.5863 284.0628 681.9164ZM289.5048 687.3584C289.5048 687.6885 289.7724 687.956 290.1025 687.956 290.4325 687.956 290.7001 687.6885 290.7001 687.3584V681.9164C290.7001 681.5863 290.4325 681.3187 290.1025 681.3187 289.7724 681.3187 289.5048 681.5863 289.5048 681.9164ZM299.511 681.9164C299.511 681.5863 299.2435 681.3187 298.9134 681.3187 298.5833 681.3187 298.3157 681.5863 298.3157 681.9164V692.8004C298.3157 693.1305 298.5833 693.398 298.9134 693.398 299.2435 693.398 299.511 693.1305 299.511 692.8004ZM227.4495 692.8004C227.4495 693.1305 227.7171 693.398 228.0472 693.398 228.3773 693.398 228.6449 693.1305 228.6449 692.8004V681.9164C228.6449 681.5863 228.3773 681.3187 228.0472 681.3187 227.7171 681.3187 227.4495 681.5863 227.4495 681.9164Z"/>
</g>
</g>
</g>
</g>
</svg>
