<svg xmlns="http://www.w3.org/2000/svg" xmlns:xlink="http://www.w3.org/1999/xlink" xmlns:inkscape="http://www.inkscape.org/namespaces/inkscape" version="1.1" width="274" height="61.480897" viewBox="0 0 274 61.480897">
<defs>
<clipPath id="clip_0">
<path transform="matrix(1,0,0,-1,-169,763.26248)" d="M169 701.78158H443V763.26248H169Z" clip-rule="evenodd"/>
</clipPath>
<clipPath id="clip_1">
<path transform="matrix(1,0,0,-1,-169,763.26248)" d="M0 0H612V803.25H0Z"/>
</clipPath>
<clipPath id="clip_2">
<path transform="matrix(1,0,0,-1,-169,763.26248)" d="M0 0H612V803.25H0Z"/>
</clipPath>
<clipPath id="clip_3">
<path transform="matrix(1,0,0,-1,-169,763.26248)" d="M0 0H612V803.25H0Z"/>
</clipPath>
<clipPath id="clip_4">
<path transform="matrix(1,0,0,-1,-169,763.26248)" d="M0 0H612V803.25H0Z"/>
</clipPath>
<clipPath id="clip_5">
<path transform="matrix(1,0,0,-1,-169,763.26248)" d="M0 0H612V803.25H0Z"/>
</clipPath>
<clipPath id="clip_6">
<path transform="matrix(1,0,0,-1,-169,763.26248)" d="M0 0H612V803.25H0Z"/>
</clipPath>
<clipPath id="clip_7">
<path transform="matrix(1,0,0,-1,-169,763.26248)" d="M0 0H612V803.25H0Z"/>
</clipPath>
</defs>
<g clip-path="url(#clip_0)">
<g clip-path="url(#clip_1)">
<g clip-path="url(#clip_2)">
<text xml:space="preserve" transform="matrix(.8471761 0 -0 .8471761 -153.0625 -39.98755)" font-size="12" font-family="HelveticaNeue"><tspan y="15.39398" x="0"> </tspan></text>
<g clip-path="url(#clip_3)">
<path transform="matrix(1,0,0,-1,-169,763.26248)" d="M171.3543 745.7602C170.9142 745.7602 170.5574 746.117 170.5574 746.5571 170.5574 746.9972 170.9142 747.3539 171.3543 747.3539H256.3937C256.8338 747.3539 257.1905 746.9972 257.1905 746.5571 257.1905 746.117 256.8338 745.7602 256.3937 745.7602Z" fill="#dc267f"/>
<path transform="matrix(1,0,0,-1,-169,763.26248)" d="M284.7401 745.7602C284.3 745.7602 283.9433 746.117 283.9433 746.5571 283.9433 746.9972 284.3 747.3539 284.7401 747.3539H412.2993C412.7394 747.3539 413.0961 746.9972 413.0961 746.5571 413.0961 746.117 412.7394 745.7602 412.2993 745.7602Z" fill="#19b091"/>
<path transform="matrix(1,0,0,-1,-169,763.26248)" d="M171.3543 717.4137C170.9142 717.4137 170.5574 717.7705 170.5574 718.2106 170.5574 718.6507 170.9142 719.0075 171.3543 719.0075H298.9134C299.3535 719.0075 299.7103 718.6507 299.7103 718.2106 299.7103 717.7705 299.3535 717.4137 298.9134 717.4137Z" fill="#19b091"/>
<path transform="matrix(1,0,0,-1,-169,763.26248)" d="M412.2993 717.4137C411.8592 717.4137 411.5024 717.7705 411.5024 718.2106 411.5024 718.6507 411.8592 719.0075 412.2993 719.0075H440.6457C441.0858 719.0075 441.4426 718.6507 441.4426 718.2106 441.4426 717.7705 441.0858 717.4137 440.6457 717.4137Z" fill="#648fff"/>
</g>
<g clip-path="url(#clip_4)">
<path transform="matrix(1,0,0,-1,-169,763.26248)" d="M256.3937 745.7602C255.9536 745.7602 255.5968 746.117 255.5968 746.5571 255.5968 746.9972 255.9536 747.3539 256.3937 747.3539H284.7401C285.1802 747.3539 285.537 746.9972 285.537 746.5571 285.537 746.117 285.1802 745.7602 284.7401 745.7602Z" fill="#648fff"/>
<path transform="matrix(1,0,0,-1,-169,763.26248)" d="M412.2993 745.7602C411.8592 745.7602 411.5024 746.117 411.5024 746.5571 411.5024 746.9972 411.8592 747.3539 412.2993 747.3539H440.6457C441.0858 747.3539 441.4426 746.9972 441.4426 746.5571 441.4426 746.117 441.0858 745.7602 440.6457 745.7602Z" fill="#ffb000"/>
<path transform="matrix(1,0,0,-1,-169,763.26248)" d="M298.9134 717.4137C298.4733 717.4137 298.1165 717.7705 298.1165 718.2106 298.1165 718.6507 298.4733 719.0075 298.9134 719.0075H383.9528C384.3929 719.0075 384.7497 718.6507 384.7497 718.2106 384.7497 717.7705 384.3929 717.4137 383.9528 717.4137Z" fill="#dc267f"/>
<path transform="matrix(1,0,0,-1,-169,763.26248)" d="M170.5574 760.7303C170.5574 761.1704 170.9142 761.5272 171.3543 761.5272 171.7944 761.5272 172.1511 761.1704 172.1511 760.7303V746.5571C172.1511 746.117 171.7944 745.7602 171.3543 745.7602 170.9142 745.7602 170.5574 746.117 170.5574 746.5571Z"/>
</g>
<g clip-path="url(#clip_5)">
<path transform="matrix(1,0,0,-1,-169,763.26248)" d="M383.9528 717.4137C383.5127 717.4137 383.1559 717.7705 383.1559 718.2106 383.1559 718.6507 383.5127 719.0075 383.9528 719.0075H412.2993C412.7394 719.0075 413.0961 718.6507 413.0961 718.2106 413.0961 717.7705 412.7394 717.4137 412.2993 717.4137Z" fill="#ffb000"/>
<path transform="matrix(1,0,0,-1,-169,763.26248)" d="M255.5968 760.7303C255.5968 761.1704 255.9536 761.5272 256.3937 761.5272 256.8338 761.5272 257.1905 761.1704 257.1905 760.7303V746.5571C257.1905 746.117 256.8338 745.7602 256.3937 745.7602 255.9536 745.7602 255.5968 746.117 255.5968 746.5571ZM283.9433 760.7303C283.9433 761.1704 284.3 761.5272 284.7401 761.5272 285.1802 761.5272 285.537 761.1704 285.537 760.7303V746.5571C285.537 746.117 285.1802 745.7602 284.7401 745.7602 284.3 745.7602 283.9433 746.117 283.9433 746.5571ZM411.5024 760.7303C411.5024 761.1704 411.8592 761.5272 412.2993 761.5272 412.7394 761.5272 413.0961 761.1704 413.0961 760.7303V746.5571C413.0961 746.117 412.7394 745.7602 412.2993 745.7602 411.8592 745.7602 411.5024 746.117 411.5024 746.5571ZM439.8489 760.7303C439.8489 761.1704 440.2056 761.5272 440.6457 761.5272 441.0858 761.5272 441.4426 761.1704 441.4426 760.7303V746.5571C441.4426 746.117 441.0858 745.7602 440.6457 745.7602 440.2056 745.7602 439.8489 746.117 439.8489 746.5571Z"/>
</g>
<g clip-path="url(#clip_6)">
<path transform="matrix(1,0,0,-1,-169,763.26248)" d="M383.1559 718.2106C383.1559 718.6507 383.5127 719.0075 383.9528 719.0075 384.3929 719.0075 384.7497 718.6507 384.7497 718.2106V704.0373C384.7497 703.5972 384.3929 703.2405 383.9528 703.2405 383.5127 703.2405 383.1559 703.5972 383.1559 704.0373ZM411.5024 718.2106C411.5024 718.6507 411.8592 719.0075 412.2993 719.0075 412.7394 719.0075 413.0961 718.6507 413.0961 718.2106V704.0373C413.0961 703.5972 412.7394 703.2405 412.2993 703.2405 411.8592 703.2405 411.5024 703.5972 411.5024 704.0373ZM439.8489 718.2106C439.8489 718.6507 440.2056 719.0075 440.6457 719.0075 441.0858 719.0075 441.4426 718.6507 441.4426 718.2106V704.0373C441.4426 703.5972 441.0858 703.2405 440.6457 703.2405 440.2056 703.2405 439.8489 703.5972 439.8489 704.0373ZM298.1165 718.2106C298.1165 718.6507 298.4733 719.0075 298.9134 719.0075 299.3535 719.0075 299.7103 718.6507 299.7103 718.2106V704.0373C299.7103 703.5972 299.3535 703.2405 298.9134 703.2405 298.4733 703.2405 298.1165 703.5972 298.1165 704.0373ZM170.5574 718.2106C170.5574 718.6507 170.9142 719.0075 171.3543 719.0075 171.7944 719.0075 172.1511 718.6507 172.1511 718.2106V704.0373C172.1511 703.5972 171.7944 703.2405 171.3543 703.2405 170.9142 703.2405 170.5574 703.5972 170.5574 704.0373Z"/>
<path transform="matrix(1,0,0,-1,-169,763.26248)" d="M426.0499 746.9797C426.2833 747.2131 426.6617 747.2131 426.8951 746.9797 427.1285 746.7463 427.1285 746.3678 426.8951 746.1344L405.2623 724.5017C405.0289 724.2683 404.6505 724.2683 404.4171 724.5017 404.1837 724.7351 404.1837 725.1135 404.4171 725.3469Z" fill="#c7c3bd"/>
</g>
<g clip-path="url(#clip_7)">
<path transform="matrix(1,0,0,-1,-169,763.26248)" d="M407.7587 722.0053 398.126 718.2106 401.9207 727.8433ZM348.3769 746.6857C348.6975 746.7646 349.0212 746.5686 349.1001 746.2481 349.1789 745.9276 348.983 745.6039 348.6625 745.525L244.4985 719.899C244.1779 719.8201 243.8542 720.016 243.7753 720.3365 243.6965 720.6571 243.8924 720.9808 244.2129 721.0597ZM245.3397 716.4702 235.1338 718.2106 243.3674 724.4873ZM270.46 745.969C270.1352 746.0281 269.9198 746.3392 269.9789 746.664 270.0379 746.9887 270.3491 747.2041 270.6738 747.1451L417.2363 720.4973C417.5611 720.4383 417.7765 720.1272 417.7174 719.8024 417.6584 719.4777 417.3473 719.2623 417.0225 719.3213ZM417.8695 723.9705 426.4725 718.2106 416.3926 715.8475ZM213.7463 745.5215C213.4238 745.592 213.2196 745.9106 213.2901 746.233 213.3606 746.5555 213.6792 746.7597 214.0016 746.6892L332.2834 720.8232C332.6059 720.7527 332.8101 720.4341 332.7396 720.1117 332.6691 719.7892 332.3505 719.585 332.028 719.6555ZM333.0396 724.2717 341.4331 718.2106 331.2758 716.2062Z" fill="#c7c3bd"/>
</g>
</g>
</g>
</g>
</svg>
