<?xml version="1.0" encoding="UTF-8" standalone="no"?>
<svg
   version="1.1"
   width="335"
   height="136.45752"
   viewBox="0 0 335 136.45752"
   id="svg149"
   sodipodi:docname="IterateIET.svg"
   inkscape:version="1.2 (dc2aeda, 2022-05-15)"
   xmlns:inkscape="http://www.inkscape.org/namespaces/inkscape"
   xmlns:sodipodi="http://sodipodi.sourceforge.net/DTD/sodipodi-0.dtd"
   xmlns="http://www.w3.org/2000/svg"
   xmlns:svg="http://www.w3.org/2000/svg">
  <sodipodi:namedview
     id="namedview151"
     pagecolor="#ffffff"
     bordercolor="#000000"
     borderopacity="0.25"
     inkscape:showpageshadow="2"
     inkscape:pageopacity="0.0"
     inkscape:pagecheckerboard="0"
     inkscape:deskcolor="#d1d1d1"
     showgrid="false"
     inkscape:zoom="6.775253"
     inkscape:cx="83.908306"
     inkscape:cy="58.816992"
     inkscape:window-width="1390"
     inkscape:window-height="1205"
     inkscape:window-x="2240"
     inkscape:window-y="25"
     inkscape:window-maximized="0"
     inkscape:current-layer="svg149" />
  <defs
     id="defs47">
    <clipPath
       id="clip_41">
      <path
         transform="matrix(1,0,0,-1,-41,731.2724)"
         d="M41 594.8149H376V731.2724H41Z"
         clip-rule="evenodd"
         id="path2" />
    </clipPath>
    <clipPath
       id="clip_42">
      <path
         transform="matrix(1,0,0,-1,-41,731.2724)"
         d="M0 0H612V803.25H0Z"
         id="path5" />
    </clipPath>
    <clipPath
       id="clip_43">
      <path
         transform="matrix(1,0,0,-1,-41,731.2724)"
         d="M0 0H612V803.25H0Z"
         id="path8" />
    </clipPath>
    <clipPath
       id="clip_44">
      <path
         transform="matrix(1,0,0,-1,-41,731.2724)"
         d="M0 0H612V803.25H0Z"
         id="path11" />
    </clipPath>
    <clipPath
       id="clip_45">
      <path
         transform="matrix(1,0,0,-1,-41,731.2724)"
         d="M0 0H612V803.25H0Z"
         id="path14" />
    </clipPath>
    <clipPath
       id="clip_46">
      <path
         transform="matrix(1,0,0,-1,-41,731.2724)"
         d="M0 0H612V803.25H0Z"
         id="path17" />
    </clipPath>
    <clipPath
       id="clip_47">
      <path
         transform="matrix(1,0,0,-1,-41,731.2724)"
         d="M0 0H612V803.25H0Z"
         id="path20" />
    </clipPath>
    <clipPath
       id="clip_48">
      <path
         transform="matrix(1,0,0,-1,-41,731.2724)"
         d="M0 0H612V803.25H0Z"
         id="path23" />
    </clipPath>
    <clipPath
       id="clip_49">
      <path
         transform="matrix(1,0,0,-1,-41,731.2724)"
         d="M0 0H612V803.25H0Z"
         id="path26" />
    </clipPath>
    <clipPath
       id="clip_50">
      <path
         transform="matrix(1,0,0,-1,-41,731.2724)"
         d="M0 0H612V803.25H0Z"
         id="path29" />
    </clipPath>
    <clipPath
       id="clip_51">
      <path
         transform="matrix(1,0,0,-1,-41,731.2724)"
         d="M0 0H612V803.25H0Z"
         id="path32" />
    </clipPath>
    <clipPath
       id="clip_52">
      <path
         transform="matrix(1,0,0,-1,-41,731.2724)"
         d="M0 0H612V803.25H0Z"
         id="path35" />
    </clipPath>
    <clipPath
       id="clip_53">
      <path
         transform="matrix(1,0,0,-1,-41,731.2724)"
         d="M0 0H612V803.25H0Z"
         id="path38" />
    </clipPath>
    <clipPath
       id="clip_54">
      <path
         transform="matrix(1,0,0,-1,-41,731.2724)"
         d="M0 0H612V803.25H0Z"
         id="path41" />
    </clipPath>
    <clipPath
       id="clip_55">
      <path
         transform="matrix(1,0,0,-1,-41,731.2724)"
         d="M0 0H612V803.25H0Z"
         id="path44" />
    </clipPath>
  </defs>
  <g
     clip-path="url(#clip_41)"
     id="g147">
    <g
       clip-path="url(#clip_42)"
       id="g145">
      <g
         clip-path="url(#clip_43)"
         id="g143">
        <text
           fill-opacity="0"
           xml:space="preserve"
           transform="matrix(.8471761 0 -0 .8471761 -25.0625 -71.9776)"
           font-size="39"
           font-family=".SFUI"
           id="text51"><tspan
             y="112.2955"
             x="88.60909"
             id="tspan49">l</tspan></text>
        <text
           xml:space="preserve"
           transform="matrix(25.41528 0 -0 25.41528 306.1241 53.391298)"
           font-size="1"
           font-family="cmmi10"
           font-style="italic"
           id="text55"><tspan
             y="-.906"
             x="0"
             id="tspan53">T</tspan></text>
        <text
           xml:space="preserve"
           transform="matrix(25.41528 0 -0 25.41528 306.9713 154.11841)"
           font-size="1"
           font-family="cmmi10"
           font-style="italic"
           id="text59"><tspan
             y="-.906"
             x="0"
             id="tspan57">T</tspan></text>
        <text
           xml:space="preserve"
           transform="matrix(17.7907 0 -0 17.7907 325.3533 136)"
           font-size="1"
           font-family="cmr10"
           id="text63"><tspan
             y="-.906"
             x="0"
             id="tspan61">2</tspan></text>
        <g
           clip-path="url(#clip_44)"
           id="g67">
          <path
             id="path65"
             transform="matrix(1,0,0,-1,-41,731.2724)"
             d="m 43.794922,715.25677 c -0.4401,0 -0.796875,-0.35677 -0.796875,-0.79687 0,-0.4401 0.356775,-0.79688 0.796875,-0.79688 H 313.08594 c 0.4401,0 0.79687,0.35678 0.79687,0.79688 0,0.4401 -0.35677,0.79687 -0.79687,0.79687 z m 0,-1.96093 c -0.4401,0 -0.796875,-0.35678 -0.796875,-0.79688 0,-0.4401 0.356775,-0.79687 0.796875,-0.79687 H 313.08594 c 0.4401,0 0.79687,0.35677 0.79687,0.79687 0,0.4401 -0.35677,0.79688 -0.79687,0.79688 z m 0,-1.96094 c -0.4401,0 -0.796875,-0.35678 -0.796875,-0.79688 0,-0.44009 0.356775,-0.79687 0.796875,-0.79687 H 313.08594 c 0.4401,0 0.79687,0.35678 0.79687,0.79687 0,0.4401 -0.35677,0.79688 -0.79687,0.79688 z" />
        </g>
        <g
           clip-path="url(#clip_45)"
           id="g77">
          <path
             transform="matrix(1,0,0,-1,-41,731.2724)"
             d="M43.79513 713.6623C43.35503 713.6623 42.99826 714.019 42.99826 714.4591 42.99826 714.8992 43.35503 715.256 43.79513 715.256H128.8346C129.2747 715.256 129.6314 714.8992 129.6314 714.4591 129.6314 714.019 129.2747 713.6623 128.8346 713.6623Z"
             fill="#dc267f"
             id="path69" />
          <path
             transform="matrix(1,0,0,-1,-41,731.2724)"
             d="M157.181 713.6623C156.7409 713.6623 156.3841 714.019 156.3841 714.4591 156.3841 714.8992 156.7409 715.256 157.181 715.256H284.7401C285.1802 715.256 285.537 714.8992 285.537 714.4591 285.537 714.019 285.1802 713.6623 284.7401 713.6623Z"
             fill="#19b091"
             id="path71" />
          <path
             transform="matrix(1,0,0,-1,-41,731.2724)"
             d="M43.79513 709.7403C43.35503 709.7403 42.99826 710.097 42.99826 710.5371 42.99826 710.9772 43.35503 711.334 43.79513 711.334H171.3543C171.7944 711.334 172.1511 710.9772 172.1511 710.5371 172.1511 710.097 171.7944 709.7403 171.3543 709.7403Z"
             fill="#19b091"
             id="path73" />
          <path
             transform="matrix(1,0,0,-1,-41,731.2724)"
             d="M284.7401 709.7403C284.3 709.7403 283.9433 710.097 283.9433 710.5371 283.9433 710.9772 284.3 711.334 284.7401 711.334H313.0866C313.5267 711.334 313.8835 710.9772 313.8835 710.5371 313.8835 710.097 313.5267 709.7403 313.0866 709.7403Z"
             fill="#648fff"
             id="path75" />
        </g>
        <g
           clip-path="url(#clip_46)"
           id="g87">
          <path
             transform="matrix(1,0,0,-1,-41,731.2724)"
             d="M128.8346 713.6623C128.3944 713.6623 128.0377 714.019 128.0377 714.4591 128.0377 714.8992 128.3944 715.256 128.8346 715.256H157.181C157.6211 715.256 157.9779 714.8992 157.9779 714.4591 157.9779 714.019 157.6211 713.6623 157.181 713.6623Z"
             fill="#648fff"
             id="path79" />
          <path
             transform="matrix(1,0,0,-1,-41,731.2724)"
             d="M284.7401 713.6623C284.3 713.6623 283.9433 714.019 283.9433 714.4591 283.9433 714.8992 284.3 715.256 284.7401 715.256H313.0866C313.5267 715.256 313.8835 714.8992 313.8835 714.4591 313.8835 714.019 313.5267 713.6623 313.0866 713.6623Z"
             fill="#ffb000"
             id="path81" />
          <path
             transform="matrix(1,0,0,-1,-41,731.2724)"
             d="M42.99826 728.6324C42.99826 729.0725 43.35503 729.4293 43.79513 729.4293 44.23524 729.4293 44.59201 729.0725 44.59201 728.6324V714.4591C44.59201 714.019 44.23524 713.6623 43.79513 713.6623 43.35503 713.6623 42.99826 714.019 42.99826 714.4591Z"
             id="path83" />
          <path
             transform="matrix(1,0,0,-1,-41,731.2724)"
             d="M171.3543 709.7403C170.9142 709.7403 170.5574 710.097 170.5574 710.5371 170.5574 710.9772 170.9142 711.334 171.3543 711.334H256.3937C256.8338 711.334 257.1905 710.9772 257.1905 710.5371 257.1905 710.097 256.8338 709.7403 256.3937 709.7403Z"
             fill="#dc267f"
             id="path85" />
        </g>
        <g
           clip-path="url(#clip_47)"
           id="g93">
          <path
             transform="matrix(1,0,0,-1,-41,731.2724)"
             d="M128.0377 728.6324C128.0377 729.0725 128.3944 729.4293 128.8346 729.4293 129.2747 729.4293 129.6314 729.0725 129.6314 728.6324V714.4591C129.6314 714.019 129.2747 713.6623 128.8346 713.6623 128.3944 713.6623 128.0377 714.019 128.0377 714.4591ZM156.3841 728.6324C156.3841 729.0725 156.7409 729.4293 157.181 729.4293 157.6211 729.4293 157.9779 729.0725 157.9779 728.6324V714.4591C157.9779 714.019 157.6211 713.6623 157.181 713.6623 156.7409 713.6623 156.3841 714.019 156.3841 714.4591ZM283.9433 728.6324C283.9433 729.0725 284.3 729.4293 284.7401 729.4293 285.1802 729.4293 285.537 729.0725 285.537 728.6324V714.4591C285.537 714.019 285.1802 713.6623 284.7401 713.6623 284.3 713.6623 283.9433 714.019 283.9433 714.4591ZM312.2897 728.6324C312.2897 729.0725 312.6465 729.4293 313.0866 729.4293 313.5267 729.4293 313.8835 729.0725 313.8835 728.6324V714.4591C313.8835 714.019 313.5267 713.6623 313.0866 713.6623 312.6465 713.6623 312.2897 714.019 312.2897 714.4591Z"
             id="path89" />
          <path
             transform="matrix(1,0,0,-1,-41,731.2724)"
             d="M256.3937 709.7403C255.9536 709.7403 255.5968 710.097 255.5968 710.5371 255.5968 710.9772 255.9536 711.334 256.3937 711.334H284.7401C285.1802 711.334 285.537 710.9772 285.537 710.5371 285.537 710.097 285.1802 709.7403 284.7401 709.7403Z"
             fill="#ffb000"
             id="path91" />
        </g>
        <g
           clip-path="url(#clip_48)"
           id="g97">
          <path
             id="path95"
             transform="matrix(1,0,0,-1,-41,731.2724)"
             d="m 43.794922,719.00677 c -0.4401,0 -0.796875,-0.35677 -0.796875,-0.79687 V 706.60052 696.3642 c 0,-0.4401 0.356775,-0.79688 0.796875,-0.79688 0.440109,0 0.796875,0.35678 0.796875,0.79688 v 14.17382 7.67188 c 0,0.4401 -0.356766,0.79687 -0.796875,0.79687 z m 269.291018,-0.0391 c -0.4401,0 -0.79688,-0.35677 -0.79688,-0.79687 V 706.55951 696.3642 c 0,-0.4401 0.35678,-0.79688 0.79688,-0.79688 0.4401,0 0.79687,0.35678 0.79687,0.79688 v 14.17382 7.63282 c 0,0.4401 -0.35677,0.79687 -0.79687,0.79687 z M 171.35352,711.3349 c -0.4401,0 -0.79688,-0.35678 -0.79688,-0.79688 V 696.3642 c 0,-0.4401 0.35678,-0.79688 0.79688,-0.79688 0.4401,0 0.79687,0.35678 0.79687,0.79688 v 14.17382 c 0,0.4401 -0.35677,0.79688 -0.79687,0.79688 z m 85.04101,0 c -0.4401,0 -0.79687,-0.35678 -0.79687,-0.79688 V 696.3642 c 0,-0.4401 0.35677,-0.79688 0.79687,-0.79688 0.4401,0 0.79688,0.35678 0.79688,0.79688 v 14.17382 c 0,0.4401 -0.35678,0.79688 -0.79688,0.79688 z m 28.3457,0 c -0.4401,0 -0.79687,-0.35678 -0.79687,-0.79688 V 696.3642 c 0,-0.4401 0.35677,-0.79688 0.79687,-0.79688 0.4401,0 0.79688,0.35678 0.79688,0.79688 v 14.17382 c 0,0.4401 -0.35678,0.79688 -0.79688,0.79688 z m -99.07812,-26.39844 c -0.4338,0.0742 -0.84572,-0.21659 -0.91992,-0.65039 -0.0742,-0.4338 0.21659,-0.84572 0.65039,-0.91992 10.28329,-1.7589 15.52539,-3.80149 15.52539,-5.52539 0,-1.7775 -5.27091,-4.3375 -15.5957,-7.0918 -11.25699,-3.00299 -16.77735,-5.68591 -16.77735,-8.63281 0,-2.99692 5.54118,-5.15704 16.8125,-7.08789 l 0.002,-0.002 c 2.75188,-0.59546 4.38002,-3.41049 4.8125,-8.65821 l -3.88672,0.15235 4.26953,-10.97852 5.11719,10.61133 -3.92774,0.1543 c 0.002,0.0338 0.032,0.0572 0.0293,0.0918 -0.4691,5.9325 -2.46853,9.40445 -6.07813,10.18555 -0.006,0.001 -0.0112,-0.005 -0.0176,-0.004 -0.006,0.001 -0.009,0.009 -0.0156,0.01 -10.28319,1.7589 -15.52344,3.80139 -15.52344,5.52539 0,1.7775 5.26896,4.3374 15.59375,7.0918 11.25689,3.00299 16.77735,5.68591 16.77735,8.63281 0,3.0004 -5.54907,5.1632 -16.84766,7.0957 z M 43.794922,616.04388 c -0.4401,0 -0.796875,-0.35677 -0.796875,-0.79687 0,-0.4401 0.356775,-0.79688 0.796875,-0.79688 H 313.08594 c 0.4401,0 0.79687,0.35678 0.79687,0.79688 0,0.4401 -0.35677,0.79687 -0.79687,0.79687 z m 0,-1.96093 c -0.4401,0 -0.796875,-0.35678 -0.796875,-0.79688 0,-0.4401 0.356775,-0.79687 0.796875,-0.79687 H 313.08594 c 0.4401,0 0.79687,0.35677 0.79687,0.79687 0,0.4401 -0.35677,0.79688 -0.79687,0.79688 z m 0,-1.96094 c -0.4401,0 -0.796875,-0.35678 -0.796875,-0.79688 0,-0.4401 0.356775,-0.79687 0.796875,-0.79687 H 313.08594 c 0.4401,0 0.79687,0.35677 0.79687,0.79687 0,0.4401 -0.35677,0.79688 -0.79687,0.79688 z" />
        </g>
        <g
           clip-path="url(#clip_49)"
           id="g111">
          <path
             transform="matrix(1,0,0,-1,-41,731.2724)"
             d="M43.79513 614.4496C43.35503 614.4496 42.99826 614.8064 42.99826 615.2465 42.99826 615.6866 43.35503 616.0434 43.79513 616.0434H128.8346C129.2747 616.0434 129.6314 615.6866 129.6314 615.2465 129.6314 614.8064 129.2747 614.4496 128.8346 614.4496Z"
             fill="#dc267f"
             id="path99" />
          <path
             transform="matrix(1,0,0,-1,-41,731.2724)"
             d="M157.181 614.4496C156.7409 614.4496 156.3841 614.8064 156.3841 615.2465 156.3841 615.6866 156.7409 616.0434 157.181 616.0434H242.2204C242.6605 616.0434 243.0173 615.6866 243.0173 615.2465 243.0173 614.8064 242.6605 614.4496 242.2204 614.4496Z"
             fill="#19b091"
             id="path101" />
          <path
             transform="matrix(1,0,0,-1,-41,731.2724)"
             d="M284.7401 614.4496C284.3 614.4496 283.9433 614.8064 283.9433 615.2465 283.9433 615.6866 284.3 616.0434 284.7401 616.0434H313.0866C313.5267 616.0434 313.8835 615.6866 313.8835 615.2465 313.8835 614.8064 313.5267 614.4496 313.0866 614.4496Z"
             fill="#ffb000"
             id="path103" />
          <path
             transform="matrix(1,0,0,-1,-41,731.2724)"
             d="M43.79513 610.5276C43.35503 610.5276 42.99826 610.8844 42.99826 611.3245 42.99826 611.7646 43.35503 612.1214 43.79513 612.1214H171.3543C171.7944 612.1214 172.1511 611.7646 172.1511 611.3245 172.1511 610.8844 171.7944 610.5276 171.3543 610.5276Z"
             fill="#19b091"
             id="path105" />
          <path
             transform="matrix(1,0,0,-1,-41,731.2724)"
             d="M284.7401 610.5276C284.3 610.5276 283.9433 610.8844 283.9433 611.3245 283.9433 611.7646 284.3 612.1214 284.7401 612.1214H313.0866C313.5267 612.1214 313.8835 611.7646 313.8835 611.3245 313.8835 610.8844 313.5267 610.5276 313.0866 610.5276Z"
             fill="#648fff"
             id="path107" />
          <path
             transform="matrix(1,0,0,-1,-41,731.2724)"
             d="M126.8424 710.5371C126.8424 711.6374 127.7343 712.5293 128.8345 712.5293 129.9348 712.5293 130.8267 711.6374 130.8267 710.5371V696.3639C130.8267 695.2636 129.9348 694.3717 128.8345 694.3717 127.7343 694.3717 126.8424 695.2636 126.8424 696.3639ZM155.1888 710.5371C155.1888 711.6374 156.0808 712.5293 157.181 712.5293 158.2813 712.5293 159.1732 711.6374 159.1732 710.5371V696.3639C159.1732 695.2636 158.2813 694.3717 157.181 694.3717 156.0808 694.3717 155.1888 695.2636 155.1888 696.3639Z"
             fill="#969696"
             id="path109" />
        </g>
        <g
           clip-path="url(#clip_50)"
           id="g119">
          <path
             transform="matrix(1,0,0,-1,-41,731.2724)"
             d="M128.8346 614.4496C128.3944 614.4496 128.0377 614.8064 128.0377 615.2465 128.0377 615.6866 128.3944 616.0434 128.8346 616.0434H157.181C157.6211 616.0434 157.9779 615.6866 157.9779 615.2465 157.9779 614.8064 157.6211 614.4496 157.181 614.4496Z"
             fill="#648fff"
             id="path113" />
          <path
             transform="matrix(1,0,0,-1,-41,731.2724)"
             d="M42.99826 629.4197C42.99826 629.8598 43.35503 630.2166 43.79513 630.2166 44.23524 630.2166 44.59201 629.8598 44.59201 629.4197V615.2465C44.59201 614.8064 44.23524 614.4496 43.79513 614.4496 43.35503 614.4496 42.99826 614.8064 42.99826 615.2465Z"
             id="path115" />
          <path
             transform="matrix(1,0,0,-1,-41,731.2724)"
             d="M171.3543 610.5276C170.9142 610.5276 170.5574 610.8844 170.5574 611.3245 170.5574 611.7646 170.9142 612.1214 171.3543 612.1214H256.3937C256.8338 612.1214 257.1905 611.7646 257.1905 611.3245 257.1905 610.8844 256.8338 610.5276 256.3937 610.5276Z"
             fill="#dc267f"
             id="path117" />
        </g>
        <g
           clip-path="url(#clip_51)"
           id="g125">
          <path
             transform="matrix(1,0,0,-1,-41,731.2724)"
             d="M128.0377 629.4197C128.0377 629.8598 128.3944 630.2166 128.8346 630.2166 129.2747 630.2166 129.6314 629.8598 129.6314 629.4197V615.2465C129.6314 614.8064 129.2747 614.4496 128.8346 614.4496 128.3944 614.4496 128.0377 614.8064 128.0377 615.2465ZM156.3841 629.4197C156.3841 629.8598 156.7409 630.2166 157.181 630.2166 157.6211 630.2166 157.9779 629.8598 157.9779 629.4197V615.2465C157.9779 614.8064 157.6211 614.4496 157.181 614.4496 156.7409 614.4496 156.3841 614.8064 156.3841 615.2465ZM312.2897 629.4197C312.2897 629.8598 312.6465 630.2166 313.0866 630.2166 313.5267 630.2166 313.8835 629.8598 313.8835 629.4197V615.2465C313.8835 614.8064 313.5267 614.4496 313.0866 614.4496 312.6465 614.4496 312.2897 614.8064 312.2897 615.2465Z"
             id="path121" />
          <path
             transform="matrix(1,0,0,-1,-41,731.2724)"
             d="M256.3937 610.5276C255.9536 610.5276 255.5968 610.8844 255.5968 611.3245 255.5968 611.7646 255.9536 612.1214 256.3937 612.1214H284.7401C285.1802 612.1214 285.537 611.7646 285.537 611.3245 285.537 610.8844 285.1802 610.5276 284.7401 610.5276Z"
             fill="#ffb000"
             id="path123" />
        </g>
        <g
           clip-path="url(#clip_52)"
           id="g129">
          <path
             transform="matrix(1,0,0,-1,-41,731.2724)"
             d="M255.5968 611.3245C255.5968 611.7646 255.9536 612.1214 256.3937 612.1214 256.8338 612.1214 257.1905 611.7646 257.1905 611.3245V597.1512C257.1905 596.7111 256.8338 596.3544 256.3937 596.3544 255.9536 596.3544 255.5968 596.7111 255.5968 597.1512ZM283.9433 611.3245C283.9433 611.7646 284.3 612.1214 284.7401 612.1214 285.1802 612.1214 285.537 611.7646 285.537 611.3245V597.1512C285.537 596.7111 285.1802 596.3544 284.7401 596.3544 284.3 596.3544 283.9433 596.7111 283.9433 597.1512ZM312.2897 611.3245C312.2897 611.7646 312.6465 612.1214 313.0866 612.1214 313.5267 612.1214 313.8835 611.7646 313.8835 611.3245V597.1512C313.8835 596.7111 313.5267 596.3544 313.0866 596.3544 312.6465 596.3544 312.2897 596.7111 312.2897 597.1512ZM42.99826 611.3245C42.99826 611.7646 43.35503 612.1214 43.79513 612.1214 44.23524 612.1214 44.59201 611.7646 44.59201 611.3245V597.1512C44.59201 596.7111 44.23524 596.3544 43.79513 596.3544 43.35503 596.3544 42.99826 596.7111 42.99826 597.1512ZM44.59201 607.3871C44.59201 606.947 44.23524 606.5902 43.79513 606.5902 43.35503 606.5902 42.99826 606.947 42.99826 607.3871V618.9979C42.99826 619.438 43.35503 619.7948 43.79513 619.7948 44.23524 619.7948 44.59201 619.438 44.59201 618.9979ZM312.2897 618.9581C312.2897 619.3982 312.6465 619.755 313.0866 619.755 313.5267 619.755 313.8835 619.3982 313.8835 618.9581V607.3473C313.8835 606.9072 313.5267 606.5504 313.0866 606.5504 312.6465 606.5504 312.2897 606.9072 312.2897 607.3473Z"
             id="path127" />
        </g>
        <g
           clip-path="url(#clip_53)"
           id="g133">
          <path
             transform="matrix(1,0,0,-1,-41,731.2724)"
             d="M242.2204 614.4496C241.7803 614.4496 241.4236 614.8064 241.4236 615.2465 241.4236 615.6866 241.7803 616.0434 242.2204 616.0434H270.5669C271.007 616.0434 271.3638 615.6866 271.3638 615.2465 271.3638 614.8064 271.007 614.4496 270.5669 614.4496ZM128.8345 610.5276C128.3944 610.5276 128.0377 610.8844 128.0377 611.3245 128.0377 611.7646 128.3944 612.1214 128.8345 612.1214H157.181C157.6211 612.1214 157.9779 611.7646 157.9779 611.3245 157.9779 610.8844 157.6211 610.5276 157.181 610.5276Z"
             fill="#bf5050"
             id="path131" />
        </g>
        <g
           clip-path="url(#clip_54)"
           id="g137">
          <path
             transform="matrix(1,0,0,-1,-41,731.2724)"
             d="M270.5669 614.4496C270.1268 614.4496 269.77 614.8064 269.77 615.2465 269.77 615.6866 270.1268 616.0434 270.5669 616.0434H284.7401C285.1802 616.0434 285.537 615.6866 285.537 615.2465 285.537 614.8064 285.1802 614.4496 284.7401 614.4496ZM157.181 610.5276C156.7409 610.5276 156.3841 610.8844 156.3841 611.3245 156.3841 611.7646 156.7409 612.1214 157.181 612.1214H171.3543C171.7944 612.1214 172.1511 611.7646 172.1511 611.3245 172.1511 610.8844 171.7944 610.5276 171.3543 610.5276Z"
             fill="#785ef0"
             id="path135" />
        </g>
        <g
           clip-path="url(#clip_55)"
           id="g141">
          <path
             transform="matrix(1,0,0,-1,-41,731.2724)"
             d="M283.9433 629.4197C283.9433 629.8598 284.3 630.2166 284.7401 630.2166 285.1802 630.2166 285.537 629.8598 285.537 629.4197V615.2465C285.537 614.8064 285.1802 614.4496 284.7401 614.4496 284.3 614.4496 283.9433 614.8064 283.9433 615.2465ZM241.4236 629.4197C241.4236 629.8598 241.7803 630.2166 242.2204 630.2166 242.6605 630.2166 243.0173 629.8598 243.0173 629.4197V615.2465C243.0173 614.8064 242.6605 614.4496 242.2204 614.4496 241.7803 614.4496 241.4236 614.8064 241.4236 615.2465ZM269.77 629.4197C269.77 629.8598 270.1268 630.2166 270.5669 630.2166 271.007 630.2166 271.3638 629.8598 271.3638 629.4197V615.2465C271.3638 614.8064 271.007 614.4496 270.5669 614.4496 270.1268 614.4496 269.77 614.8064 269.77 615.2465ZM128.0377 611.3245C128.0377 611.7646 128.3944 612.1214 128.8345 612.1214 129.2747 612.1214 129.6314 611.7646 129.6314 611.3245V597.1512C129.6314 596.7111 129.2747 596.3544 128.8345 596.3544 128.3944 596.3544 128.0377 596.7111 128.0377 597.1512ZM156.3841 611.3245C156.3841 611.7646 156.7409 612.1214 157.181 612.1214 157.6211 612.1214 157.9779 611.7646 157.9779 611.3245V597.1512C157.9779 596.7111 157.6211 596.3544 157.181 596.3544 156.7409 596.3544 156.3841 596.7111 156.3841 597.1512ZM170.5574 611.3245C170.5574 611.7646 170.9142 612.1214 171.3543 612.1214 171.7944 612.1214 172.1511 611.7646 172.1511 611.3245V597.1512C172.1511 596.7111 171.7944 596.3544 171.3543 596.3544 170.9142 596.3544 170.5574 596.7111 170.5574 597.1512Z"
             id="path139" />
        </g>
      </g>
    </g>
  </g>
</svg>
