<svg xmlns="http://www.w3.org/2000/svg" xmlns:xlink="http://www.w3.org/1999/xlink" xmlns:inkscape="http://www.inkscape.org/namespaces/inkscape" version="1.1" width="222.5" height="194.93933" viewBox="0 0 222.5 194.93933">
<defs>
<clipPath id="clip_135">
<path transform="matrix(1,0,0,-1,-109,766.26156)" d="M109 571.3222H331.5V766.26156H109Z" clip-rule="evenodd"/>
</clipPath>
<clipPath id="clip_136">
<path transform="matrix(1,0,0,-1,-109,766.26156)" d="M0 0H612V803.25H0Z"/>
</clipPath>
<clipPath id="clip_137">
<path transform="matrix(1,0,0,-1,-109,766.26156)" d="M0 0H612V803.25H0Z"/>
</clipPath>
<clipPath id="clip_138">
<path transform="matrix(1,0,0,-1,-109,766.26156)" d="M113.8141 690.7113H326.6972V646.4972H113.8141ZM114.8605 689.6649H325.6508V647.5436H114.8605ZM114.6613 690.0633C114.5513 690.0633 114.4621 689.9741 114.4621 689.8641V647.3444C114.4621 647.2344 114.5513 647.1452 114.6613 647.1452H325.85C325.96 647.1452 326.0492 647.2344 326.0492 647.3444V689.8641C326.0492 689.9741 325.96 690.0633 325.85 690.0633Z"/>
</clipPath>
<clipPath id="clip_139">
<path transform="matrix(1,0,0,-1,-109,766.26156)" d="M0 0H612V803.25H0Z"/>
</clipPath>
<clipPath id="clip_140">
<path transform="matrix(1,0,0,-1,-109,766.26156)" d="M0 0H612V803.25H0Z"/>
</clipPath>
<clipPath id="clip_141">
<path transform="matrix(1,0,0,-1,-109,766.26156)" d="M241.3733 690.7113H278.4859V646.4972H241.3733ZM242.4197 689.6649H277.4396V647.5436H242.4197ZM242.2204 690.0633C242.1104 690.0633 242.0212 689.9741 242.0212 689.8641V647.3444C242.0212 647.2344 242.1104 647.1452 242.2204 647.1452H277.6388C277.7488 647.1452 277.838 647.2344 277.838 647.3444V689.8641C277.838 689.9741 277.7488 690.0633 277.6388 690.0633Z"/>
</clipPath>
<clipPath id="clip_142">
<path transform="matrix(1,0,0,-1,-109,766.26156)" d="M0 0H612V803.25H0Z"/>
</clipPath>
<clipPath id="clip_143">
<path transform="matrix(1,0,0,-1,-109,766.26156)" d="M0 0H612V803.25H0Z"/>
</clipPath>
<clipPath id="clip_144">
<path transform="matrix(1,0,0,-1,-109,766.26156)" d="M241.3733 723.3389H278.4859V679.1248H241.3733ZM242.4197 722.2925H277.4396V680.1712H242.4197ZM242.2204 722.6909C242.1104 722.6909 242.0212 722.6017 242.0212 722.4917V679.972C242.0212 679.8619 242.1104 679.7727 242.2204 679.7727H277.6388C277.7488 679.7727 277.838 679.8619 277.838 679.972V722.4917C277.838 722.6017 277.7488 722.6909 277.6388 722.6909Z"/>
</clipPath>
<clipPath id="clip_145">
<path transform="matrix(1,0,0,-1,-109,766.26156)" d="M0 0H612V803.25H0Z"/>
</clipPath>
<clipPath id="clip_146">
<path transform="matrix(1,0,0,-1,-109,766.26156)" d="M0 0H612V803.25H0Z"/>
</clipPath>
<clipPath id="clip_147">
<path transform="matrix(1,0,0,-1,-109,766.26156)" d="M241.3733 723.3389H278.4859V679.1248H241.3733ZM242.4197 722.2925H277.4396V680.1712H242.4197ZM242.2204 722.6909C242.1104 722.6909 242.0212 722.6017 242.0212 722.4917V679.972C242.0212 679.8619 242.1104 679.7727 242.2204 679.7727H277.6388C277.7488 679.7727 277.838 679.8619 277.838 679.972V722.4917C277.838 722.6017 277.7488 722.6909 277.6388 722.6909Z"/>
</clipPath>
<clipPath id="clip_148">
<path transform="matrix(1,0,0,-1,-109,766.26156)" d="M0 0H612V803.25H0Z"/>
</clipPath>
<clipPath id="clip_149">
<path transform="matrix(1,0,0,-1,-109,766.26156)" d="M0 0H612V803.25H0Z"/>
</clipPath>
<clipPath id="clip_150">
<path transform="matrix(1,0,0,-1,-109,766.26156)" d="M241.3733 640.718H278.4859V596.5039H241.3733ZM242.4197 639.6716H277.4396V597.5503H242.4197ZM242.2204 640.07C242.1104 640.07 242.0212 639.9808 242.0212 639.8708V597.3511C242.0212 597.2411 242.1104 597.1519 242.2204 597.1519H277.6388C277.7488 597.1519 277.838 597.2411 277.838 597.3511V639.8708C277.838 639.9808 277.7488 640.07 277.6388 640.07Z"/>
</clipPath>
<clipPath id="clip_151">
<path transform="matrix(1,0,0,-1,-109,766.26156)" d="M0 0H612V803.25H0Z"/>
</clipPath>
<clipPath id="clip_152">
<path transform="matrix(1,0,0,-1,-109,766.26156)" d="M0 0H612V803.25H0Z"/>
</clipPath>
<clipPath id="clip_153">
<path transform="matrix(1,0,0,-1,-109,766.26156)" d="M241.3733 640.718H278.4859V596.5039H241.3733ZM242.4197 639.6716H277.4396V597.5503H242.4197ZM242.2204 640.07C242.1104 640.07 242.0212 639.9808 242.0212 639.8708V597.3511C242.0212 597.2411 242.1104 597.1519 242.2204 597.1519H277.6388C277.7488 597.1519 277.838 597.2411 277.838 597.3511V639.8708C277.838 639.9808 277.7488 640.07 277.6388 640.07Z"/>
</clipPath>
<clipPath id="clip_154">
<path transform="matrix(1,0,0,-1,-109,766.26156)" d="M0 0H612V803.25H0Z"/>
</clipPath>
<clipPath id="clip_155">
<path transform="matrix(1,0,0,-1,-109,766.26156)" d="M0 0H612V803.25H0Z"/>
</clipPath>
<clipPath id="clip_156">
<path transform="matrix(1,0,0,-1,-109,766.26156)" d="M0 0H612V803.25H0Z"/>
</clipPath>
<clipPath id="clip_157">
<path transform="matrix(1,0,0,-1,-109,766.26156)" d="M0 0H612V803.25H0Z"/>
</clipPath>
<clipPath id="clip_158">
<path transform="matrix(1,0,0,-1,-109,766.26156)" d="M0 0H612V803.25H0Z"/>
</clipPath>
<clipPath id="clip_159">
<path transform="matrix(1,0,0,-1,-109,766.26156)" d="M213.0771 726.7728C213.0771 727.2129 213.4339 727.5696 213.874 727.5696 214.3141 727.5696 214.6708 727.2129 214.6708 726.7728V718.2106C214.6708 717.7705 214.3141 717.4137 213.874 717.4137 213.4339 717.4137 213.0771 717.7705 213.0771 718.2106Z"/>
</clipPath>
<clipPath id="clip_160">
<path transform="matrix(1,0,0,-1,-109,766.26156)" d="M0 0H612V803.25H0Z"/>
</clipPath>
<clipPath id="clip_161">
<path transform="matrix(1,0,0,-1,-109,766.26156)" d="M276.8419 726.7728C276.8419 727.2129 277.1987 727.5696 277.6388 727.5696 278.0789 727.5696 278.4356 727.2129 278.4356 726.7728V718.2106C278.4356 717.7705 278.0789 717.4137 277.6388 717.4137 277.1987 717.4137 276.8419 717.7705 276.8419 718.2106Z"/>
</clipPath>
<clipPath id="clip_162">
<path transform="matrix(1,0,0,-1,-109,766.26156)" d="M0 0H612V803.25H0Z"/>
</clipPath>
<clipPath id="clip_163">
<path transform="matrix(1,0,0,-1,-109,766.26156)" d="M0 0H612V803.25H0Z"/>
</clipPath>
<clipPath id="clip_164">
<path transform="matrix(1,0,0,-1,-109,766.26156)" d="M326.6469 607.3335C326.6469 606.8934 326.2901 606.5366 325.85 606.5366 325.4099 606.5366 325.0531 606.8934 325.0531 607.3335V615.8957C325.0531 616.3358 325.4099 616.6926 325.85 616.6926 326.2901 616.6926 326.6469 616.3358 326.6469 615.8957Z"/>
</clipPath>
<clipPath id="clip_165">
<path transform="matrix(1,0,0,-1,-109,766.26156)" d="M0 0H612V803.25H0Z"/>
</clipPath>
<clipPath id="clip_166">
<path transform="matrix(1,0,0,-1,-109,766.26156)" d="M0 0H612V803.25H0Z"/>
</clipPath>
<clipPath id="clip_167">
<path transform="matrix(1,0,0,-1,-109,766.26156)" d="M115.4582 607.3335C115.4582 606.8934 115.1014 606.5366 114.6613 606.5366 114.2212 606.5366 113.8644 606.8934 113.8644 607.3335V615.8957C113.8644 616.3358 114.2212 616.6926 114.6613 616.6926 115.1014 616.6926 115.4582 616.3358 115.4582 615.8957Z"/>
</clipPath>
<clipPath id="clip_168">
<path transform="matrix(1,0,0,-1,-109,766.26156)" d="M0 0H612V803.25H0Z"/>
</clipPath>
<clipPath id="clip_169">
<path transform="matrix(1,0,0,-1,-109,766.26156)" d="M0 0H612V803.25H0Z"/>
</clipPath>
<clipPath id="clip_170">
<path transform="matrix(1,0,0,-1,-109,766.26156)" d="M258.3359 588.9105C258.3359 589.7907 259.0494 590.5042 259.9296 590.5042 260.8098 590.5042 261.5234 589.7907 261.5234 588.9105V574.7373C261.5234 573.8571 260.8098 573.1435 259.9296 573.1435 259.0494 573.1435 258.3359 573.8571 258.3359 574.7373Z"/>
</clipPath>
<clipPath id="clip_171">
<path transform="matrix(1,0,0,-1,-109,766.26156)" d="M0 0H612V803.25H0Z"/>
</clipPath>
<clipPath id="clip_172">
<path transform="matrix(1,0,0,-1,-109,766.26156)" d="M258.6401 744.7221C258.6401 745.6023 259.3536 746.3158 260.2338 746.3158 261.114 746.3158 261.8276 745.6023 261.8276 744.7221V730.5489C261.8276 729.6687 261.114 728.9551 260.2338 728.9551 259.3536 728.9551 258.6401 729.6687 258.6401 730.5489Z"/>
</clipPath>
<clipPath id="clip_173">
<path transform="matrix(1,0,0,-1,-109,766.26156)" d="M0 0H612V803.25H0Z"/>
</clipPath>
<clipPath id="clip_174">
<path transform="matrix(1,0,0,-1,-109,766.26156)" d="M0 0H612V803.25H0Z"/>
</clipPath>
</defs>
<g>
<g clip-path="url(#clip_135)">
<g clip-path="url(#clip_136)">
<g clip-path="url(#clip_137)">
<text xml:space="preserve" transform="matrix(15.24917 0 -0 15.24917 144.8248 119.38983)" font-size="1" font-family="cmmi10" font-style="italic"><tspan y="-.906" x="0">J</tspan></text>
<text xml:space="preserve" transform="matrix(8.471761 0 -0 8.471761 134.0676 151.31665)" font-size="1" font-family="cmmi10" font-style="italic"><tspan y="-.906" x="0">T</tspan></text>
<text xml:space="preserve" transform="matrix(5.930232 0 -0 5.930232 140.195 145.27716)" font-size="1" font-family="cmr10"><tspan y="-.906" x="0">(</tspan></text>
<text xml:space="preserve" transform="matrix(5.930232 0 -0 5.930232 142.5012 145.27716)" font-size="1" font-family="cmmi10" font-style="italic"><tspan y="-.906" x="0">n</tspan></text>
<text xml:space="preserve" transform="matrix(5.930233 0 -0 5.930233 146.0607 145.27716)" font-size="1" font-family="cmsy10" font-style="italic"><tspan y="-.906" x="0">−</tspan></text>
<text xml:space="preserve" transform="matrix(5.930233 0 -0 5.930233 150.6731 145.27716)" font-size="1" font-family="cmr10"><tspan y="-.906" x="0">1</tspan></text>
<text xml:space="preserve" transform="matrix(5.930233 0 -0 5.930233 153.63822 145.27716)" font-size="1" font-family="cmr10"><tspan y="-.906" x="0">)</tspan></text>
<text xml:space="preserve" transform="matrix(8.471761 0 -0 8.471761 156.36801 151.31665)" font-size="1" font-family="cmr10"><tspan y="-.906" x="0">(</tspan></text>
<text xml:space="preserve" transform="matrix(8.471761 0 -0 8.471761 159.6626 151.31665)" font-size="1" font-family="cmmi10" font-style="italic"><tspan y="-.906" x="0">J</tspan></text>
<text xml:space="preserve" transform="matrix(8.471761 0 -0 8.471761 165.1752 151.31665)" font-size="1" font-family="cmr10"><tspan y="-.906" x="0">)</tspan></text>
<text xml:space="preserve" transform="matrix(9.318937 0 -0 9.318937 140.777 68.43475)" font-size="1" font-family="cmmi10" font-style="italic"><tspan y="-.906" x="0">T</tspan></text>
<text xml:space="preserve" transform="matrix(6.523256 0 -0 6.523256 147.51709 61.79132)" font-size="1" font-family="cmmi10" font-style="italic"><tspan y="-.906" x="0">n</tspan></text>
<text xml:space="preserve" transform="matrix(9.318937 0 -0 9.318937 151.85611 68.43475)" font-size="1" font-family="cmr10"><tspan y="-.906" x="0">(</tspan></text>
<text xml:space="preserve" transform="matrix(9.318937 0 -0 9.318937 155.4802 68.43475)" font-size="1" font-family="cmmi10" font-style="italic"><tspan y="-.906" x="0">J</tspan></text>
<text xml:space="preserve" transform="matrix(9.318937 0 -0 9.318937 161.544 68.43475)" font-size="1" font-family="cmr10"><tspan y="-.906" x="0">)</tspan></text>
<g clip-path="url(#clip_138)">
<g clip-path="url(#clip_139)">
<g style="mix-blend-mode:darken">
<path transform="matrix(1,0,0,-1,-109,766.26156)" d="M114.6613 689.8641H325.85V647.3444H114.6613Z" fill="#515c5d" fill-opacity=".42"/>
</g>
</g>
</g>
<g clip-path="url(#clip_140)">
<g style="mix-blend-mode:darken">
<path transform="matrix(1,0,0,-1,-109,766.26156)" d="M114.8605 689.6649V647.5436H325.6508V689.6649ZM114.6613 690.0633H325.85C325.96 690.0633 326.0492 689.9741 326.0492 689.8641V647.3444C326.0492 647.2344 325.96 647.1452 325.85 647.1452H114.6613C114.5513 647.1452 114.4621 647.2344 114.4621 647.3444V689.8641C114.4621 689.9741 114.5513 690.0633 114.6613 690.0633" fill="#515c5d" fill-opacity=".42"/>
</g>
</g>
<g clip-path="url(#clip_141)">
<g clip-path="url(#clip_142)">
<g style="mix-blend-mode:darken">
<path transform="matrix(1,0,0,-1,-109,766.26156)" d="M242.2204 689.8641H277.6388V647.3444H242.2204Z" fill="#515c5d" fill-opacity=".42"/>
</g>
</g>
</g>
<g clip-path="url(#clip_143)">
<g style="mix-blend-mode:darken">
<path transform="matrix(1,0,0,-1,-109,766.26156)" d="M242.4197 689.6649V647.5436H277.4396V689.6649ZM242.2204 690.0633H277.6388C277.7488 690.0633 277.838 689.9741 277.838 689.8641V647.3444C277.838 647.2344 277.7488 647.1452 277.6388 647.1452H242.2204C242.1104 647.1452 242.0212 647.2344 242.0212 647.3444V689.8641C242.0212 689.9741 242.1104 690.0633 242.2204 690.0633" fill="#515c5d" fill-opacity=".42"/>
</g>
</g>
<g clip-path="url(#clip_144)">
<g clip-path="url(#clip_145)">
<g style="mix-blend-mode:darken">
<path transform="matrix(1,0,0,-1,-109,766.26156)" d="M242.2204 722.4917H277.6388V679.972H242.2204Z" fill="#515c5d" fill-opacity=".42"/>
</g>
</g>
</g>
<g clip-path="url(#clip_146)">
<g style="mix-blend-mode:darken">
<path transform="matrix(1,0,0,-1,-109,766.26156)" d="M242.4197 722.2925V680.1712H277.4396V722.2925ZM242.2204 722.6909H277.6388C277.7488 722.6909 277.838 722.6017 277.838 722.4917V679.972C277.838 679.8619 277.7488 679.7727 277.6388 679.7727H242.2204C242.1104 679.7727 242.0212 679.8619 242.0212 679.972V722.4917C242.0212 722.6017 242.1104 722.6909 242.2204 722.6909" fill="#515c5d" fill-opacity=".42"/>
</g>
</g>
<g clip-path="url(#clip_147)">
<g clip-path="url(#clip_148)">
<g style="mix-blend-mode:darken">
<path transform="matrix(1,0,0,-1,-109,766.26156)" d="M242.2204 722.4917H277.6388V679.972H242.2204Z" fill="#515c5d" fill-opacity=".42"/>
</g>
</g>
</g>
<g clip-path="url(#clip_149)">
<g style="mix-blend-mode:darken">
<path transform="matrix(1,0,0,-1,-109,766.26156)" d="M242.4197 722.2925V680.1712H277.4396V722.2925ZM242.2204 722.6909H277.6388C277.7488 722.6909 277.838 722.6017 277.838 722.4917V679.972C277.838 679.8619 277.7488 679.7727 277.6388 679.7727H242.2204C242.1104 679.7727 242.0212 679.8619 242.0212 679.972V722.4917C242.0212 722.6017 242.1104 722.6909 242.2204 722.6909" fill="#515c5d" fill-opacity=".42"/>
</g>
</g>
<g clip-path="url(#clip_150)">
<g clip-path="url(#clip_151)">
<g style="mix-blend-mode:darken">
<path transform="matrix(1,0,0,-1,-109,766.26156)" d="M242.2204 639.8708H277.6388V597.3511H242.2204Z" fill="#515c5d" fill-opacity=".42"/>
</g>
</g>
</g>
<g clip-path="url(#clip_152)">
<g style="mix-blend-mode:darken">
<path transform="matrix(1,0,0,-1,-109,766.26156)" d="M242.4197 639.6716V597.5503H277.4396V639.6716ZM242.2204 640.07H277.6388C277.7488 640.07 277.838 639.9808 277.838 639.8708V597.3511C277.838 597.2411 277.7488 597.1519 277.6388 597.1519H242.2204C242.1104 597.1519 242.0212 597.2411 242.0212 597.3511V639.8708C242.0212 639.9808 242.1104 640.07 242.2204 640.07" fill="#515c5d" fill-opacity=".42"/>
</g>
</g>
<g clip-path="url(#clip_153)">
<g clip-path="url(#clip_154)">
<g style="mix-blend-mode:darken">
<path transform="matrix(1,0,0,-1,-109,766.26156)" d="M242.2204 639.8708H277.6388V597.3511H242.2204Z" fill="#515c5d" fill-opacity=".42"/>
</g>
</g>
</g>
<g clip-path="url(#clip_155)">
<g style="mix-blend-mode:darken">
<path transform="matrix(1,0,0,-1,-109,766.26156)" d="M242.4197 639.6716V597.5503H277.4396V639.6716ZM242.2204 640.07H277.6388C277.7488 640.07 277.838 639.9808 277.838 639.8708V597.3511C277.838 597.2411 277.7488 597.1519 277.6388 597.1519H242.2204C242.1104 597.1519 242.0212 597.2411 242.0212 597.3511V639.8708C242.0212 639.9808 242.1104 640.07 242.2204 640.07" fill="#515c5d" fill-opacity=".42"/>
</g>
</g>
<g clip-path="url(#clip_156)">
<path transform="matrix(1,0,0,-1,-109,766.26156)" d="M325.85 648.1413C326.2901 648.1413 326.6469 647.7845 326.6469 647.3444 326.6469 646.9043 326.2901 646.5475 325.85 646.5475H114.6613C114.2212 646.5475 113.8644 646.9043 113.8644 647.3444 113.8644 647.7845 114.2212 648.1413 114.6613 648.1413ZM113.8644 655.9066C113.8644 656.3467 114.2212 656.7035 114.6613 656.7035 115.1014 656.7035 115.4582 656.3467 115.4582 655.9066V638.7822C115.4582 638.3421 115.1014 637.9853 114.6613 637.9853 114.2212 637.9853 113.8644 638.3421 113.8644 638.7822ZM114.6613 655.1097C114.2212 655.1097 113.8644 655.4665 113.8644 655.9066 113.8644 656.3467 114.2212 656.7035 114.6613 656.7035H123.2235C123.6636 656.7035 124.0204 656.3467 124.0204 655.9066 124.0204 655.4665 123.6636 655.1097 123.2235 655.1097ZM114.6613 637.9853C114.2212 637.9853 113.8644 638.3421 113.8644 638.7822 113.8644 639.2223 114.2212 639.5791 114.6613 639.5791H123.2235C123.6636 639.5791 124.0204 639.2223 124.0204 638.7822 124.0204 638.3421 123.6636 637.9853 123.2235 637.9853ZM326.6469 638.7822C326.6469 638.3421 326.2901 637.9853 325.85 637.9853 325.4099 637.9853 325.0531 638.3421 325.0531 638.7822V655.9066C325.0531 656.3467 325.4099 656.7035 325.85 656.7035 326.2901 656.7035 326.6469 656.3467 326.6469 655.9066ZM325.85 639.5791C326.2901 639.5791 326.6469 639.2223 326.6469 638.7822 326.6469 638.3421 326.2901 637.9853 325.85 637.9853H317.2878C316.8477 637.9853 316.4909 638.3421 316.4909 638.7822 316.4909 639.2223 316.8477 639.5791 317.2878 639.5791ZM325.85 656.7035C326.2901 656.7035 326.6469 656.3467 326.6469 655.9066 326.6469 655.4665 326.2901 655.1097 325.85 655.1097H317.2878C316.8477 655.1097 316.4909 655.4665 316.4909 655.9066 316.4909 656.3467 316.8477 656.7035 317.2878 656.7035Z"/>
<path transform="matrix(1,0,0,-1,-109,766.26156)" d="M182.7101 729.5664C181.1541 731.1224 181.1541 733.6452 182.7101 735.2012 184.2661 736.7572 186.7889 736.7572 188.3449 735.2012 189.9009 733.6452 189.9009 731.1224 188.3449 729.5664 186.7889 728.0104 184.2661 728.0104 182.7101 729.5664M140.1904 715.3932C138.6344 716.9492 138.6344 719.472 140.1904 721.028 141.7464 722.584 144.2692 722.584 145.8252 721.028 147.3812 719.472 147.3812 716.9492 145.8252 715.3932 144.2692 713.8372 141.7464 713.8372 140.1904 715.3932M239.4031 701.22C237.8471 702.776 237.8471 705.2987 239.4031 706.8547 240.9591 708.4107 243.4818 708.4107 245.0378 706.8547 246.5938 705.2987 246.5938 702.776 245.0378 701.22 243.4818 699.664 240.9591 699.664 239.4031 701.22" fill="#dc267f"/>
</g>
<g clip-path="url(#clip_157)">
<path transform="matrix(1,0,0,-1,-109,766.26156)" d="M241.4236 704.0373C241.4236 704.4774 241.7803 704.8342 242.2204 704.8342 242.6605 704.8342 243.0173 704.4774 243.0173 704.0373V647.3444C243.0173 646.9043 242.6605 646.5475 242.2204 646.5475 241.7803 646.5475 241.4236 646.9043 241.4236 647.3444ZM184.7306 732.3838C184.7306 732.8239 185.0874 733.1807 185.5275 733.1807 185.9676 733.1807 186.3244 732.8239 186.3244 732.3838V647.3444C186.3244 646.9043 185.9676 646.5475 185.5275 646.5475 185.0874 646.5475 184.7306 646.9043 184.7306 647.3444ZM142.2109 718.2106C142.2109 718.6507 142.5677 719.0075 143.0078 719.0075 143.4479 719.0075 143.8047 718.6507 143.8047 718.2106V647.3444C143.8047 646.9043 143.4479 646.5475 143.0078 646.5475 142.5677 646.5475 142.2109 646.9043 142.2109 647.3444ZM312.2897 760.7303C312.2897 761.1704 312.6465 761.5272 313.0866 761.5272 313.5267 761.5272 313.8835 761.1704 313.8835 760.7303V647.3444C313.8835 646.9043 313.5267 646.5475 313.0866 646.5475 312.6465 646.5475 312.2897 646.9043 312.2897 647.3444ZM312.2897 655.9066C312.2897 656.3467 312.6465 656.7035 313.0866 656.7035 313.5267 656.7035 313.8835 656.3467 313.8835 655.9066V647.3444C313.8835 646.9043 313.5267 646.5475 313.0866 646.5475 312.6465 646.5475 312.2897 646.9043 312.2897 647.3444ZM241.4236 655.9066C241.4236 656.3467 241.7803 656.7035 242.2204 656.7035 242.6605 656.7035 243.0173 656.3467 243.0173 655.9066V647.3444C243.0173 646.9043 242.6605 646.5475 242.2204 646.5475 241.7803 646.5475 241.4236 646.9043 241.4236 647.3444ZM184.7306 655.9066C184.7306 656.3467 185.0874 656.7035 185.5275 656.7035 185.9676 656.7035 186.3244 656.3467 186.3244 655.9066V647.3444C186.3244 646.9043 185.9676 646.5475 185.5275 646.5475 185.0874 646.5475 184.7306 646.9043 184.7306 647.3444ZM142.2109 655.9066C142.2109 656.3467 142.5677 656.7035 143.0078 656.7035 143.4479 656.7035 143.8047 656.3467 143.8047 655.9066V647.3444C143.8047 646.9043 143.4479 646.5475 143.0078 646.5475 142.5677 646.5475 142.2109 646.9043 142.2109 647.3444Z" fill="#dc267f"/>
<path transform="matrix(1,0,0,-1,-109,766.26156)" d="M111.8439 644.527C110.2879 646.083 110.2879 648.6058 111.8439 650.1618 113.3999 651.7178 115.9227 651.7178 117.4787 650.1618 119.0347 648.6058 119.0347 646.083 117.4787 644.527 115.9227 642.971 113.3999 642.971 111.8439 644.527" fill="#648fff"/>
<path transform="matrix(1,0,0,-1,-109,766.26156)" d="M323.0326 644.527C321.4766 646.083 321.4766 648.6058 323.0326 650.1618 324.5886 651.7178 327.1114 651.7178 328.6674 650.1618 330.2234 648.6058 330.2234 646.083 328.6674 644.527 327.1114 642.971 324.5886 642.971 323.0326 644.527" fill="#648fff"/>
</g>
<g clip-path="url(#clip_158)">
<path transform="matrix(1,0,0,-1,-109,766.26156)" d="M276.8419 718.2106C276.8419 718.6507 277.1987 719.0075 277.6388 719.0075 278.0789 719.0075 278.4356 718.6507 278.4356 718.2106V647.3444C278.4356 646.9043 278.0789 646.5475 277.6388 646.5475 277.1987 646.5475 276.8419 646.9043 276.8419 647.3444ZM213.0771 718.2106C213.0771 718.6507 213.4339 719.0075 213.874 719.0075 214.3141 719.0075 214.6708 718.6507 214.6708 718.2106V647.3444C214.6708 646.9043 214.3141 646.5475 213.874 646.5475 213.4339 646.5475 213.0771 646.9043 213.0771 647.3444ZM276.8419 655.9066C276.8419 656.3467 277.1987 656.7035 277.6388 656.7035 278.0789 656.7035 278.4356 656.3467 278.4356 655.9066V647.3444C278.4356 646.9043 278.0789 646.5475 277.6388 646.5475 277.1987 646.5475 276.8419 646.9043 276.8419 647.3444Z" fill="#648fff"/>
</g>
<g clip-path="url(#clip_159)">
<g clip-path="url(#clip_160)">
<path transform="matrix(1,0,0,-1,-109,766.26156)" d="M213.0771 726.7728V726.7713C213.0771 726.3312 213.4339 725.9745 213.874 725.9745 214.3141 725.9745 214.6708 726.3312 214.6708 726.7713V726.7728C214.6708 727.2129 214.3141 727.5696 213.874 727.5696 213.4339 727.5696 213.0771 727.2129 213.0771 726.7728M213.0771 723.9192V723.9178C213.0771 723.4777 213.4339 723.1209 213.874 723.1209 214.3141 723.1209 214.6708 723.4777 214.6708 723.9178V723.9192C214.6708 724.3593 214.3141 724.7161 213.874 724.7161 213.4339 724.7161 213.0771 724.3593 213.0771 723.9192M213.0771 721.0656V721.0642C213.0771 720.6241 213.4339 720.2673 213.874 720.2673 214.3141 720.2673 214.6708 720.6241 214.6708 721.0642V721.0656C214.6708 721.5057 214.3141 721.8625 213.874 721.8625 213.4339 721.8625 213.0771 721.5057 213.0771 721.0656M213.0771 718.212V718.2106C213.0771 717.7705 213.4339 717.4137 213.874 717.4137 214.3141 717.4137 214.6708 717.7705 214.6708 718.2106V718.212C214.6708 718.6521 214.3141 719.0089 213.874 719.0089 213.4339 719.0089 213.0771 718.6521 213.0771 718.212" fill="#648fff"/>
</g>
</g>
<g clip-path="url(#clip_161)">
<g clip-path="url(#clip_162)">
<path transform="matrix(1,0,0,-1,-109,766.26156)" d="M276.8419 726.7728V726.7713C276.8419 726.3312 277.1987 725.9745 277.6388 725.9745 278.0789 725.9745 278.4356 726.3312 278.4356 726.7713V726.7728C278.4356 727.2129 278.0789 727.5696 277.6388 727.5696 277.1987 727.5696 276.8419 727.2129 276.8419 726.7728M276.8419 723.9192V723.9178C276.8419 723.4777 277.1987 723.1209 277.6388 723.1209 278.0789 723.1209 278.4356 723.4777 278.4356 723.9178V723.9192C278.4356 724.3593 278.0789 724.7161 277.6388 724.7161 277.1987 724.7161 276.8419 724.3593 276.8419 723.9192M276.8419 721.0656V721.0642C276.8419 720.6241 277.1987 720.2673 277.6388 720.2673 278.0789 720.2673 278.4356 720.6241 278.4356 721.0642V721.0656C278.4356 721.5057 278.0789 721.8625 277.6388 721.8625 277.1987 721.8625 276.8419 721.5057 276.8419 721.0656M276.8419 718.212V718.2106C276.8419 717.7705 277.1987 717.4137 277.6388 717.4137 278.0789 717.4137 278.4356 717.7705 278.4356 718.2106V718.212C278.4356 718.6521 278.0789 719.0089 277.6388 719.0089 277.1987 719.0089 276.8419 718.6521 276.8419 718.212" fill="#648fff"/>
</g>
</g>
<g clip-path="url(#clip_163)">
<path transform="matrix(1,0,0,-1,-109,766.26156)" d="M326.6469 615.8957C326.6469 615.4556 326.2901 615.0988 325.85 615.0988 325.4099 615.0988 325.0531 615.4556 325.0531 615.8957V647.3444C325.0531 647.7845 325.4099 648.1413 325.85 648.1413 326.2901 648.1413 326.6469 647.7845 326.6469 647.3444Z" fill="#648fff"/>
</g>
<g clip-path="url(#clip_164)">
<g clip-path="url(#clip_165)">
<path transform="matrix(1,0,0,-1,-109,766.26156)" d="M326.6469 607.3335V607.3349C326.6469 607.775 326.2901 608.1318 325.85 608.1318 325.4099 608.1318 325.0531 607.775 325.0531 607.3349V607.3335C325.0531 606.8934 325.4099 606.5366 325.85 606.5366 326.2901 606.5366 326.6469 606.8934 326.6469 607.3335M326.6469 610.1871V610.1885C326.6469 610.6286 326.2901 610.9854 325.85 610.9854 325.4099 610.9854 325.0531 610.6286 325.0531 610.1885V610.1871C325.0531 609.747 325.4099 609.3902 325.85 609.3902 326.2901 609.3902 326.6469 609.747 326.6469 610.1871M326.6469 613.0407V613.0421C326.6469 613.4822 326.2901 613.839 325.85 613.839 325.4099 613.839 325.0531 613.4822 325.0531 613.0421V613.0407C325.0531 612.6006 325.4099 612.2438 325.85 612.2438 326.2901 612.2438 326.6469 612.6006 326.6469 613.0407M326.6469 615.8943V615.8957C326.6469 616.3358 326.2901 616.6926 325.85 616.6926 325.4099 616.6926 325.0531 616.3358 325.0531 615.8957V615.8943C325.0531 615.4542 325.4099 615.0974 325.85 615.0974 326.2901 615.0974 326.6469 615.4542 326.6469 615.8943" fill="#648fff"/>
</g>
</g>
<g clip-path="url(#clip_166)">
<path transform="matrix(1,0,0,-1,-109,766.26156)" d="M115.4582 615.8957C115.4582 615.4556 115.1014 615.0988 114.6613 615.0988 114.2212 615.0988 113.8644 615.4556 113.8644 615.8957V647.3444C113.8644 647.7845 114.2212 648.1413 114.6613 648.1413 115.1014 648.1413 115.4582 647.7845 115.4582 647.3444Z" fill="#648fff"/>
</g>
<g clip-path="url(#clip_167)">
<g clip-path="url(#clip_168)">
<path transform="matrix(1,0,0,-1,-109,766.26156)" d="M115.4582 607.3335V607.3349C115.4582 607.775 115.1014 608.1318 114.6613 608.1318 114.2212 608.1318 113.8644 607.775 113.8644 607.3349V607.3335C113.8644 606.8934 114.2212 606.5366 114.6613 606.5366 115.1014 606.5366 115.4582 606.8934 115.4582 607.3335M115.4582 610.1871V610.1885C115.4582 610.6286 115.1014 610.9854 114.6613 610.9854 114.2212 610.9854 113.8644 610.6286 113.8644 610.1885V610.1871C113.8644 609.747 114.2212 609.3902 114.6613 609.3902 115.1014 609.3902 115.4582 609.747 115.4582 610.1871M115.4582 613.0407V613.0421C115.4582 613.4822 115.1014 613.839 114.6613 613.839 114.2212 613.839 113.8644 613.4822 113.8644 613.0421V613.0407C113.8644 612.6006 114.2212 612.2438 114.6613 612.2438 115.1014 612.2438 115.4582 612.6006 115.4582 613.0407M115.4582 615.8943V615.8957C115.4582 616.3358 115.1014 616.6926 114.6613 616.6926 114.2212 616.6926 113.8644 616.3358 113.8644 615.8957V615.8943C113.8644 615.4542 114.2212 615.0974 114.6613 615.0974 115.1014 615.0974 115.4582 615.4542 115.4582 615.8943" fill="#648fff"/>
</g>
</g>
<g clip-path="url(#clip_169)">
<path transform="matrix(1,0,0,-1,-109,766.26156)" d="M242.2204 646.1491C241.5603 646.1491 241.0251 646.6843 241.0251 647.3444 241.0251 648.0046 241.5603 648.5397 242.2204 648.5397H277.6388C278.2989 648.5397 278.8341 648.0046 278.8341 647.3444 278.8341 646.6843 278.2989 646.1491 277.6388 646.1491Z"/>
<path transform="matrix(1,0,0,-1,-109,766.26156)" d="M310.2692 757.9129C308.7132 759.4689 308.7132 761.9917 310.2692 763.5477 311.8252 765.1037 314.348 765.1037 315.904 763.5477 317.46 761.9917 317.46 759.4689 315.904 757.9129 314.348 756.3569 311.8252 756.3569 310.2692 757.9129" fill="#dc267f"/>
</g>
<g clip-path="url(#clip_170)">
<g clip-path="url(#clip_171)">
<path transform="matrix(1,0,0,-1,-109,766.26156)" d="M258.3359 588.9105V588.907C258.3359 588.0267 259.0494 587.3132 259.9296 587.3132 260.8098 587.3132 261.5234 588.0267 261.5234 588.907V588.9105C261.5234 589.7907 260.8098 590.5042 259.9296 590.5042 259.0494 590.5042 258.3359 589.7907 258.3359 588.9105M258.3359 581.8256V581.8221C258.3359 580.9419 259.0494 580.2284 259.9296 580.2284 260.8098 580.2284 261.5234 580.9419 261.5234 581.8221V581.8256C261.5234 582.7058 260.8098 583.4194 259.9296 583.4194 259.0494 583.4194 258.3359 582.7058 258.3359 581.8256M258.3359 574.7408V574.7373C258.3359 573.8571 259.0494 573.1435 259.9296 573.1435 260.8098 573.1435 261.5234 573.8571 261.5234 574.7373V574.7408C261.5234 575.621 260.8098 576.3345 259.9296 576.3345 259.0494 576.3345 258.3359 575.621 258.3359 574.7408"/>
</g>
</g>
<g clip-path="url(#clip_172)">
<g clip-path="url(#clip_173)">
<path transform="matrix(1,0,0,-1,-109,766.26156)" d="M258.6401 744.7221V744.7186C258.6401 743.8384 259.3536 743.1248 260.2338 743.1248 261.114 743.1248 261.8276 743.8384 261.8276 744.7186V744.7221C261.8276 745.6023 261.114 746.3158 260.2338 746.3158 259.3536 746.3158 258.6401 745.6023 258.6401 744.7221M258.6401 737.6372V737.6337C258.6401 736.7535 259.3536 736.04 260.2338 736.04 261.114 736.04 261.8276 736.7535 261.8276 737.6337V737.6372C261.8276 738.5175 261.114 739.231 260.2338 739.231 259.3536 739.231 258.6401 738.5175 258.6401 737.6372M258.6401 730.5524V730.5489C258.6401 729.6687 259.3536 728.9551 260.2338 728.9551 261.114 728.9551 261.8276 729.6687 261.8276 730.5489V730.5524C261.8276 731.4326 261.114 732.1462 260.2338 732.1462 259.3536 732.1462 258.6401 731.4326 258.6401 730.5524"/>
</g>
</g>
<g clip-path="url(#clip_174)">
<path transform="matrix(1,0,0,-1,-109,766.26156)" d="M242.2204 596.1558C241.5603 596.1558 241.0251 596.6909 241.0251 597.3511 241.0251 598.0112 241.5603 598.5464 242.2204 598.5464H277.6388C278.2989 598.5464 278.8341 598.0112 278.8341 597.3511 278.8341 596.6909 278.2989 596.1558 277.6388 596.1558ZM242.2204 678.7767C241.5603 678.7767 241.0251 679.3118 241.0251 679.972 241.0251 680.6321 241.5603 681.1673 242.2204 681.1673H277.6388C278.2989 681.1673 278.8341 680.6321 278.8341 679.972 278.8341 679.3118 278.2989 678.7767 277.6388 678.7767Z"/>
</g>
</g>
</g>
</g>
</g>
</svg>
