<svg xmlns="http://www.w3.org/2000/svg" xmlns:xlink="http://www.w3.org/1999/xlink" xmlns:inkscape="http://www.inkscape.org/namespaces/inkscape" version="1.1" width="135.5" height="132.4588" viewBox="0 0 135.5 132.4588">
<defs>
<clipPath id="clip_0">
<path transform="matrix(1,0,0,-1,-175.5,720.7757)" d="M175.5 588.3169H311V720.7757H175.5Z" clip-rule="evenodd"/>
</clipPath>
<clipPath id="clip_1">
<path transform="matrix(1,0,0,-1,-175.5,720.7757)" d="M241.8833 719.0578H271.4141V618.1508H241.8833ZM242.9297 718.0114H270.3677V619.1972H242.9297ZM242.7305 718.4098C242.6204 718.4098 242.5312 718.3206 242.5312 718.2106V618.9979C242.5312 618.8879 242.6204 618.7987 242.7305 618.7987H270.5669C270.6769 618.7987 270.7661 618.8879 270.7661 618.9979V718.2106C270.7661 718.3206 270.6769 718.4098 270.5669 718.4098Z"/>
</clipPath>
<clipPath id="clip_2">
<path transform="matrix(1,0,0,-1,-175.5,720.7757)" d="M0 0H612V803.25H0Z"/>
</clipPath>
<clipPath id="clip_3">
<path transform="matrix(1,0,0,-1,-175.5,720.7757)" d="M0 0H612V803.25H0Z"/>
</clipPath>
<clipPath id="clip_4">
<path transform="matrix(1,0,0,-1,-175.5,720.7757)" d="M198.8536 619.8451H228.8944V589.8043H198.8536ZM199.8999 618.7987H227.848V590.8507H199.8999ZM199.7007 619.1972C199.5907 619.1972 199.5015 619.108 199.5015 618.9979V590.6515C199.5015 590.5414 199.5907 590.4522 199.7007 590.4522H228.0472C228.1572 590.4522 228.2464 590.5414 228.2464 590.6515V618.9979C228.2464 619.108 228.1572 619.1972 228.0472 619.1972Z"/>
</clipPath>
<clipPath id="clip_5">
<path transform="matrix(1,0,0,-1,-175.5,720.7757)" d="M0 0H612V803.25H0Z"/>
</clipPath>
<clipPath id="clip_6">
<path transform="matrix(1,0,0,-1,-175.5,720.7757)" d="M0 0H612V803.25H0Z"/>
</clipPath>
<clipPath id="clip_7">
<path transform="matrix(1,0,0,-1,-175.5,720.7757)" d="M0 0H612V803.25H0Z"/>
</clipPath>
<clipPath id="clip_8">
<path transform="matrix(1,0,0,-1,-175.5,720.7757)" d="M242.8181 711.3846C242.8181 711.0545 242.5505 710.7869 242.2204 710.7869 241.8904 710.7869 241.6228 711.0545 241.6228 711.3846V718.2106C241.6228 718.5407 241.8904 718.8082 242.2204 718.8082 242.5505 718.8082 242.8181 718.5407 242.8181 718.2106Z"/>
</clipPath>
<clipPath id="clip_9">
<path transform="matrix(1,0,0,-1,-175.5,720.7757)" d="M0 0H612V803.25H0Z"/>
</clipPath>
<clipPath id="clip_10">
<path transform="matrix(1,0,0,-1,-175.5,720.7757)" d="M271.1646 711.3846C271.1646 711.0545 270.897 710.7869 270.5669 710.7869 270.2368 710.7869 269.9693 711.0545 269.9693 711.3846V718.2106C269.9693 718.5407 270.2368 718.8082 270.5669 718.8082 270.897 718.8082 271.1646 718.5407 271.1646 718.2106Z"/>
</clipPath>
<clipPath id="clip_11">
<path transform="matrix(1,0,0,-1,-175.5,720.7757)" d="M0 0H612V803.25H0Z"/>
</clipPath>
<clipPath id="clip_12">
<path transform="matrix(1,0,0,-1,-175.5,720.7757)" d="M0 0H612V803.25H0Z"/>
</clipPath>
<clipPath id="clip_13">
<path transform="matrix(1,0,0,-1,-175.5,720.7757)" d="M200.2984 590.6515C200.2984 590.3214 200.0308 590.0538 199.7007 590.0538 199.3707 590.0538 199.1031 590.3214 199.1031 590.6515V618.9979C199.1031 619.328 199.3707 619.5956 199.7007 619.5956 200.0308 619.5956 200.2984 619.328 200.2984 618.9979Z"/>
</clipPath>
<clipPath id="clip_14">
<path transform="matrix(1,0,0,-1,-175.5,720.7757)" d="M0 0H612V803.25H0Z"/>
</clipPath>
<clipPath id="clip_15">
<path transform="matrix(1,0,0,-1,-175.5,720.7757)" d="M228.6449 590.6515C228.6449 590.3214 228.3773 590.0538 228.0472 590.0538 227.7171 590.0538 227.4495 590.3214 227.4495 590.6515V618.9979C227.4495 619.328 227.7171 619.5956 228.0472 619.5956 228.3773 619.5956 228.6449 619.328 228.6449 618.9979Z"/>
</clipPath>
<clipPath id="clip_16">
<path transform="matrix(1,0,0,-1,-175.5,720.7757)" d="M0 0H612V803.25H0Z"/>
</clipPath>
<clipPath id="clip_17">
<path transform="matrix(1,0,0,-1,-175.5,720.7757)" d="M0 0H612V803.25H0Z"/>
</clipPath>
</defs>
<g>
<g clip-path="url(#clip_0)">
<text xml:space="preserve" transform="matrix(11.01329 0 -0 11.01329 13.424393 119.77301)" font-size="1" font-family="cmmi10" font-style="italic"><tspan y="-.906" x="0">A</tspan></text>
<text xml:space="preserve" transform="matrix(13.55482 0 -0 13.55482 127.34601 120.3125)" font-size="1" font-family="cmmi10" font-style="italic"><tspan y="-.906" x="0">I</tspan></text>
<text xml:space="preserve" transform="matrix(9.318937 0 -0 9.318937 74.1086 125.434879)" font-size="1" font-family="cmmi10" font-style="italic"><tspan y="-.906" x="0">√S</tspan></text>
<text xml:space="preserve" transform="matrix(9.318937 0 -0 9.318937 8.771805 64.27008)" font-size="1" font-family="cmmi10" font-style="italic"><tspan y="-.906" x="0">√S</tspan></text>
<text xml:space="preserve" transform="matrix(14.40199 0 -0 14.40199 76.079898 109.81738)" font-size="1" font-family="cmmi10" font-style="italic"><tspan y="-.906" x="0">J</tspan></text>
<g clip-path="url(#clip_1)">
<g clip-path="url(#clip_2)">
<g style="mix-blend-mode:darken">
<path transform="matrix(1,0,0,-1,-175.5,720.7757)" d="M242.7305 718.2106H270.5669V618.9979H242.7305Z" fill="#c7c3bd" fill-opacity=".42"/>
</g>
</g>
</g>
<g clip-path="url(#clip_3)">
<g style="mix-blend-mode:darken">
<path transform="matrix(1,0,0,-1,-175.5,720.7757)" d="M242.9297 718.0114V619.1972H270.3677V718.0114ZM242.7305 718.4098H270.5669C270.6769 718.4098 270.7661 718.3206 270.7661 718.2106V618.9979C270.7661 618.8879 270.6769 618.7987 270.5669 618.7987H242.7305C242.6204 618.7987 242.5312 618.8879 242.5312 618.9979V718.2106C242.5312 718.3206 242.6204 718.4098 242.7305 718.4098" fill="#515c5d" fill-opacity=".42"/>
</g>
</g>
<g clip-path="url(#clip_4)">
<g clip-path="url(#clip_5)">
<g style="mix-blend-mode:darken">
<path transform="matrix(1,0,0,-1,-175.5,720.7757)" d="M199.7007 618.9979H228.0472V590.6515H199.7007Z" fill="#c7c3bd" fill-opacity=".42"/>
</g>
</g>
</g>
<g clip-path="url(#clip_6)">
<g style="mix-blend-mode:darken">
<path transform="matrix(1,0,0,-1,-175.5,720.7757)" d="M199.8999 618.7987V590.8507H227.848V618.7987ZM199.7007 619.1972H228.0472C228.1572 619.1972 228.2464 619.108 228.2464 618.9979V590.6515C228.2464 590.5414 228.1572 590.4522 228.0472 590.4522H199.7007C199.5907 590.4522 199.5015 590.5414 199.5015 590.6515V618.9979C199.5015 619.108 199.5907 619.1972 199.7007 619.1972" fill="#515c5d" fill-opacity=".42"/>
</g>
</g>
<g clip-path="url(#clip_7)">
<path transform="matrix(1,0,0,-1,-175.5,720.7757)" d="M200.2984 618.9979C200.2984 618.6679 200.0308 618.4003 199.7007 618.4003 199.3707 618.4003 199.1031 618.6679 199.1031 618.9979V718.2106C199.1031 718.5407 199.3707 718.8082 199.7007 718.8082 200.0308 718.8082 200.2984 718.5407 200.2984 718.2106ZM197.8291 616.2811C197.5957 616.0477 197.2173 616.0477 196.9839 616.2811 196.7505 616.5145 196.7505 616.8929 196.9839 617.1263L201.5723 621.7148C201.8057 621.9482 202.1842 621.9482 202.4176 621.7148 202.651 621.4814 202.651 621.1029 202.4176 620.8695ZM196.9839 620.8695C196.7505 621.1029 196.7505 621.4814 196.9839 621.7148 197.2173 621.9482 197.5957 621.9482 197.8291 621.7148L202.4176 617.1263C202.651 616.8929 202.651 616.5145 202.4176 616.2811 202.1842 616.0477 201.8057 616.0477 201.5723 616.2811ZM199.7007 618.4003C199.3707 618.4003 199.1031 618.6679 199.1031 618.9979 199.1031 619.328 199.3707 619.5956 199.7007 619.5956H298.9134C299.2435 619.5956 299.511 619.328 299.511 618.9979 299.511 618.6679 299.2435 618.4003 298.9134 618.4003Z"/>
</g>
<g clip-path="url(#clip_8)">
<g clip-path="url(#clip_9)">
<path transform="matrix(1,0,0,-1,-175.5,720.7757)" d="M242.8181 711.3846V711.3857C242.8181 711.7158 242.5505 711.9834 242.2204 711.9834 241.8904 711.9834 241.6228 711.7158 241.6228 711.3857V711.3846C241.6228 711.0545 241.8904 710.7869 242.2204 710.7869 242.5505 710.7869 242.8181 711.0545 242.8181 711.3846M242.8181 713.6595V713.6607C242.8181 713.9907 242.5505 714.2583 242.2204 714.2583 241.8904 714.2583 241.6228 713.9907 241.6228 713.6607V713.6595C241.6228 713.3294 241.8904 713.0619 242.2204 713.0619 242.5505 713.0619 242.8181 713.3294 242.8181 713.6595M242.8181 715.9345V715.9356C242.8181 716.2657 242.5505 716.5333 242.2204 716.5333 241.8904 716.5333 241.6228 716.2657 241.6228 715.9356V715.9345C241.6228 715.6044 241.8904 715.3368 242.2204 715.3368 242.5505 715.3368 242.8181 715.6044 242.8181 715.9345M242.8181 718.2094V718.2106C242.8181 718.5407 242.5505 718.8082 242.2204 718.8082 241.8904 718.8082 241.6228 718.5407 241.6228 718.2106V718.2094C241.6228 717.8794 241.8904 717.6118 242.2204 717.6118 242.5505 717.6118 242.8181 717.8794 242.8181 718.2094"/>
</g>
</g>
<g clip-path="url(#clip_10)">
<g clip-path="url(#clip_11)">
<path transform="matrix(1,0,0,-1,-175.5,720.7757)" d="M271.1646 711.3846V711.3857C271.1646 711.7158 270.897 711.9834 270.5669 711.9834 270.2368 711.9834 269.9693 711.7158 269.9693 711.3857V711.3846C269.9693 711.0545 270.2368 710.7869 270.5669 710.7869 270.897 710.7869 271.1646 711.0545 271.1646 711.3846M271.1646 713.6595V713.6607C271.1646 713.9907 270.897 714.2583 270.5669 714.2583 270.2368 714.2583 269.9693 713.9907 269.9693 713.6607V713.6595C269.9693 713.3294 270.2368 713.0619 270.5669 713.0619 270.897 713.0619 271.1646 713.3294 271.1646 713.6595M271.1646 715.9345V715.9356C271.1646 716.2657 270.897 716.5333 270.5669 716.5333 270.2368 716.5333 269.9693 716.2657 269.9693 715.9356V715.9345C269.9693 715.6044 270.2368 715.3368 270.5669 715.3368 270.897 715.3368 271.1646 715.6044 271.1646 715.9345M271.1646 718.2094V718.2106C271.1646 718.5407 270.897 718.8082 270.5669 718.8082 270.2368 718.8082 269.9693 718.5407 269.9693 718.2106V718.2094C269.9693 717.8794 270.2368 717.6118 270.5669 717.6118 270.897 717.6118 271.1646 717.8794 271.1646 718.2094"/>
</g>
</g>
<g clip-path="url(#clip_12)">
<path transform="matrix(1,0,0,-1,-175.5,720.7757)" d="M242.8181 618.9979C242.8181 618.6679 242.5505 618.4003 242.2204 618.4003 241.8904 618.4003 241.6228 618.6679 241.6228 618.9979V711.3846C241.6228 711.7146 241.8904 711.9822 242.2204 711.9822 242.5505 711.9822 242.8181 711.7146 242.8181 711.3846ZM271.1646 618.9979C271.1646 618.6679 270.897 618.4003 270.5669 618.4003 270.2368 618.4003 269.9693 618.6679 269.9693 618.9979V711.3846C269.9693 711.7146 270.2368 711.9822 270.5669 711.9822 270.897 711.9822 271.1646 711.7146 271.1646 711.3846Z"/>
</g>
<g clip-path="url(#clip_13)">
<g clip-path="url(#clip_14)">
<path transform="matrix(1,0,0,-1,-175.5,720.7757)" d="M200.2984 590.6515V590.6526C200.2984 590.9827 200.0308 591.2503 199.7007 591.2503 199.3707 591.2503 199.1031 590.9827 199.1031 590.6526V590.6515C199.1031 590.3214 199.3707 590.0538 199.7007 590.0538 200.0308 590.0538 200.2984 590.3214 200.2984 590.6515M200.2984 593.0136V593.0147C200.2984 593.3448 200.0308 593.6124 199.7007 593.6124 199.3707 593.6124 199.1031 593.3448 199.1031 593.0147V593.0136C199.1031 592.6835 199.3707 592.4159 199.7007 592.4159 200.0308 592.4159 200.2984 592.6835 200.2984 593.0136M200.2984 595.3757V595.3769C200.2984 595.7069 200.0308 595.9745 199.7007 595.9745 199.3707 595.9745 199.1031 595.7069 199.1031 595.3769V595.3757C199.1031 595.0456 199.3707 594.778 199.7007 594.778 200.0308 594.778 200.2984 595.0456 200.2984 595.3757M200.2984 597.7378V597.739C200.2984 598.069 200.0308 598.3366 199.7007 598.3366 199.3707 598.3366 199.1031 598.069 199.1031 597.739V597.7378C199.1031 597.4077 199.3707 597.1401 199.7007 597.1401 200.0308 597.1401 200.2984 597.4077 200.2984 597.7378M200.2984 600.0999V600.1011C200.2984 600.4311 200.0308 600.6987 199.7007 600.6987 199.3707 600.6987 199.1031 600.4311 199.1031 600.1011V600.0999C199.1031 599.7698 199.3707 599.5022 199.7007 599.5022 200.0308 599.5022 200.2984 599.7698 200.2984 600.0999M200.2984 602.462V602.4632C200.2984 602.7933 200.0308 603.0608 199.7007 603.0608 199.3707 603.0608 199.1031 602.7933 199.1031 602.4632V602.462C199.1031 602.1319 199.3707 601.8643 199.7007 601.8643 200.0308 601.8643 200.2984 602.1319 200.2984 602.462M200.2984 604.8241V604.8253C200.2984 605.1554 200.0308 605.4229 199.7007 605.4229 199.3707 605.4229 199.1031 605.1554 199.1031 604.8253V604.8241C199.1031 604.494 199.3707 604.2264 199.7007 604.2264 200.0308 604.2264 200.2984 604.494 200.2984 604.8241M200.2984 607.1862V607.1874C200.2984 607.5175 200.0308 607.7851 199.7007 607.7851 199.3707 607.7851 199.1031 607.5175 199.1031 607.1874V607.1862C199.1031 606.8561 199.3707 606.5886 199.7007 606.5886 200.0308 606.5886 200.2984 606.8561 200.2984 607.1862M200.2984 609.5483V609.5495C200.2984 609.8796 200.0308 610.1472 199.7007 610.1472 199.3707 610.1472 199.1031 609.8796 199.1031 609.5495V609.5483C199.1031 609.2182 199.3707 608.9507 199.7007 608.9507 200.0308 608.9507 200.2984 609.2182 200.2984 609.5483M200.2984 611.9104V611.9116C200.2984 612.2417 200.0308 612.5093 199.7007 612.5093 199.3707 612.5093 199.1031 612.2417 199.1031 611.9116V611.9104C199.1031 611.5804 199.3707 611.3128 199.7007 611.3128 200.0308 611.3128 200.2984 611.5804 200.2984 611.9104M200.2984 614.2725V614.2737C200.2984 614.6038 200.0308 614.8714 199.7007 614.8714 199.3707 614.8714 199.1031 614.6038 199.1031 614.2737V614.2725C199.1031 613.9425 199.3707 613.6749 199.7007 613.6749 200.0308 613.6749 200.2984 613.9425 200.2984 614.2725M200.2984 616.6346V616.6358C200.2984 616.9659 200.0308 617.2335 199.7007 617.2335 199.3707 617.2335 199.1031 616.9659 199.1031 616.6358V616.6346C199.1031 616.3046 199.3707 616.037 199.7007 616.037 200.0308 616.037 200.2984 616.3046 200.2984 616.6346M200.2984 618.9968V618.9979C200.2984 619.328 200.0308 619.5956 199.7007 619.5956 199.3707 619.5956 199.1031 619.328 199.1031 618.9979V618.9968C199.1031 618.6667 199.3707 618.3991 199.7007 618.3991 200.0308 618.3991 200.2984 618.6667 200.2984 618.9968"/>
</g>
</g>
<g clip-path="url(#clip_15)">
<g clip-path="url(#clip_16)">
<path transform="matrix(1,0,0,-1,-175.5,720.7757)" d="M228.6449 590.6515V590.6526C228.6449 590.9827 228.3773 591.2503 228.0472 591.2503 227.7171 591.2503 227.4495 590.9827 227.4495 590.6526V590.6515C227.4495 590.3214 227.7171 590.0538 228.0472 590.0538 228.3773 590.0538 228.6449 590.3214 228.6449 590.6515M228.6449 593.0136V593.0147C228.6449 593.3448 228.3773 593.6124 228.0472 593.6124 227.7171 593.6124 227.4495 593.3448 227.4495 593.0147V593.0136C227.4495 592.6835 227.7171 592.4159 228.0472 592.4159 228.3773 592.4159 228.6449 592.6835 228.6449 593.0136M228.6449 595.3757V595.3769C228.6449 595.7069 228.3773 595.9745 228.0472 595.9745 227.7171 595.9745 227.4495 595.7069 227.4495 595.3769V595.3757C227.4495 595.0456 227.7171 594.778 228.0472 594.778 228.3773 594.778 228.6449 595.0456 228.6449 595.3757M228.6449 597.7378V597.739C228.6449 598.069 228.3773 598.3366 228.0472 598.3366 227.7171 598.3366 227.4495 598.069 227.4495 597.739V597.7378C227.4495 597.4077 227.7171 597.1401 228.0472 597.1401 228.3773 597.1401 228.6449 597.4077 228.6449 597.7378M228.6449 600.0999V600.1011C228.6449 600.4311 228.3773 600.6987 228.0472 600.6987 227.7171 600.6987 227.4495 600.4311 227.4495 600.1011V600.0999C227.4495 599.7698 227.7171 599.5022 228.0472 599.5022 228.3773 599.5022 228.6449 599.7698 228.6449 600.0999M228.6449 602.462V602.4632C228.6449 602.7933 228.3773 603.0608 228.0472 603.0608 227.7171 603.0608 227.4495 602.7933 227.4495 602.4632V602.462C227.4495 602.1319 227.7171 601.8643 228.0472 601.8643 228.3773 601.8643 228.6449 602.1319 228.6449 602.462M228.6449 604.8241V604.8253C228.6449 605.1554 228.3773 605.4229 228.0472 605.4229 227.7171 605.4229 227.4495 605.1554 227.4495 604.8253V604.8241C227.4495 604.494 227.7171 604.2264 228.0472 604.2264 228.3773 604.2264 228.6449 604.494 228.6449 604.8241M228.6449 607.1862V607.1874C228.6449 607.5175 228.3773 607.7851 228.0472 607.7851 227.7171 607.7851 227.4495 607.5175 227.4495 607.1874V607.1862C227.4495 606.8561 227.7171 606.5886 228.0472 606.5886 228.3773 606.5886 228.6449 606.8561 228.6449 607.1862M228.6449 609.5483V609.5495C228.6449 609.8796 228.3773 610.1472 228.0472 610.1472 227.7171 610.1472 227.4495 609.8796 227.4495 609.5495V609.5483C227.4495 609.2182 227.7171 608.9507 228.0472 608.9507 228.3773 608.9507 228.6449 609.2182 228.6449 609.5483M228.6449 611.9104V611.9116C228.6449 612.2417 228.3773 612.5093 228.0472 612.5093 227.7171 612.5093 227.4495 612.2417 227.4495 611.9116V611.9104C227.4495 611.5804 227.7171 611.3128 228.0472 611.3128 228.3773 611.3128 228.6449 611.5804 228.6449 611.9104M228.6449 614.2725V614.2737C228.6449 614.6038 228.3773 614.8714 228.0472 614.8714 227.7171 614.8714 227.4495 614.6038 227.4495 614.2737V614.2725C227.4495 613.9425 227.7171 613.6749 228.0472 613.6749 228.3773 613.6749 228.6449 613.9425 228.6449 614.2725M228.6449 616.6346V616.6358C228.6449 616.9659 228.3773 617.2335 228.0472 617.2335 227.7171 617.2335 227.4495 616.9659 227.4495 616.6358V616.6346C227.4495 616.3046 227.7171 616.037 228.0472 616.037 228.3773 616.037 228.6449 616.3046 228.6449 616.6346M228.6449 618.9968V618.9979C228.6449 619.328 228.3773 619.5956 228.0472 619.5956 227.7171 619.5956 227.4495 619.328 227.4495 618.9979V618.9968C227.4495 618.6667 227.7171 618.3991 228.0472 618.3991 228.3773 618.3991 228.6449 618.6667 228.6449 618.9968"/>
</g>
</g>
<g clip-path="url(#clip_17)">
<path transform="matrix(1,0,0,-1,-175.5,720.7757)" d="M256.9913 675.6909C256.9913 675.3608 256.7238 675.0932 256.3937 675.0932 256.0636 675.0932 255.796 675.3608 255.796 675.6909V686.8161C255.796 687.1462 256.0636 687.4138 256.3937 687.4138 256.7238 687.4138 256.9913 687.1462 256.9913 686.8161ZM252.2656 686.8161 256.3937 696.3107 260.5218 686.8161ZM214.4716 595.0173C214.4716 594.6872 214.204 594.4196 213.874 594.4196 213.5439 594.4196 213.2763 594.6872 213.2763 595.0173V607.0431C213.2763 607.3732 213.5439 607.6408 213.874 607.6408 214.204 607.6408 214.4716 607.3732 214.4716 607.0431ZM209.7459 607.0431 213.874 616.5378 218.0021 607.0431Z"/>
</g>
</g>
</g>
</svg>
