<svg xmlns="http://www.w3.org/2000/svg" xmlns:xlink="http://www.w3.org/1999/xlink" xmlns:inkscape="http://www.inkscape.org/namespaces/inkscape" version="1.1" width="184.5" height="184.4426" viewBox="0 0 184.5 184.4426">
<defs>
<clipPath id="clip_6">
<path transform="matrix(1,0,0,-1,-206,664.7931)" d="M206 480.3505H390.5V664.7931H206Z" clip-rule="evenodd"/>
</clipPath>
<clipPath id="clip_7">
<path transform="matrix(1,0,0,-1,-206,664.7931)" d="M0 0H612V803.25H0Z"/>
</clipPath>
<clipPath id="clip_8">
<path transform="matrix(1,0,0,-1,-206,664.7931)" d="M0 0H612V803.25H0Z"/>
</clipPath>
<clipPath id="clip_9">
<path transform="matrix(1,0,0,-1,-206,664.7931)" d="M0 0H612V803.25H0Z"/>
</clipPath>
<clipPath id="clip_10">
<path transform="matrix(1,0,0,-1,-206,664.7931)" d="M0 0H612V803.25H0Z"/>
</clipPath>
<clipPath id="clip_11">
<path transform="matrix(1,0,0,-1,-206,664.7931)" d="M0 0H612V803.25H0Z"/>
</clipPath>
</defs>
<g clip-path="url(#clip_6)">
<g clip-path="url(#clip_7)">
<g clip-path="url(#clip_8)">
<g clip-path="url(#clip_9)">
<path transform="matrix(1,0,0,-1,-206,664.7931)" d="M261.2662 597.7896 231.7842 522.3372H306.3163ZM262.9769 604.8803 313.0033 521.0935C314.0189 519.3925 312.7933 517.2334 310.8122 517.2334H228.0472C226.2505 517.2334 225.0164 519.0406 225.6703 520.714L258.4089 604.5009C259.1814 606.4777 261.8889 606.7026 262.9769 604.8803M311.6045 519.4757C311.4335 519.0381 310.9402 518.822 310.5026 518.993 310.065 519.164 309.8489 519.6573 310.0199 520.0949L345.8148 611.7036C345.9858 612.1412 346.4792 612.3573 346.9167 612.1863 347.3543 612.0153 347.5704 611.522 347.3995 611.0844ZM228.5673 519.1122C228.1956 518.8249 227.6613 518.8934 227.3741 519.2652 227.0868 519.6369 227.1553 520.1712 227.5271 520.4584L346.087 612.0671C346.4588 612.3544 346.993 612.2858 347.2803 611.9141 347.5675 611.5423 347.499 611.0081 347.1273 610.7209ZM311.3323 519.1122C310.9605 518.8249 310.4263 518.8934 310.1391 519.2652 309.8518 519.6369 309.9203 520.1712 310.2921 520.4584L387.0448 579.7635C387.4165 580.0508 387.9508 579.9823 388.238 579.6105 388.5252 579.2388 388.4567 578.7046 388.085 578.4173Z" fill="white"/>
</g>
<g clip-path="url(#clip_10)">
<path transform="matrix(1,0,0,-1,-206,664.7931)" d="M210.2003 660.513V484.3437H386.3696V660.513ZM209.0049 662.9037H387.5649C388.225 662.9037 388.7602 662.3685 388.7602 661.7084V483.1484C388.7602 482.4883 388.225 481.9531 387.5649 481.9531H209.0049C208.3448 481.9531 207.8096 482.4883 207.8096 483.1484V661.7084C207.8096 662.3685 208.3448 662.9037 209.0049 662.9037" fill="white"/>
</g>
<g clip-path="url(#clip_11)">
<path transform="matrix(1,0,0,-1,-206,664.7931)" d="M228.4157 519.0186C227.9923 518.8151 227.4841 518.9933 227.2805 519.4167 227.077 519.8402 227.2552 520.3484 227.6787 520.5519L387.1964 597.2323C387.6198 597.4358 388.128 597.2576 388.3316 596.8341 388.5351 596.4107 388.3568 595.9025 387.9334 595.6989ZM210.2003 660.513V484.3437H386.3696V660.513ZM209.0049 662.9037H387.5649C388.225 662.9037 388.7602 662.3685 388.7602 661.7084V483.1484C388.7602 482.4883 388.225 481.9531 387.5649 481.9531H209.0049C208.3448 481.9531 207.8096 482.4883 207.8096 483.1484V661.7084C207.8096 662.3685 208.3448 662.9037 209.0049 662.9037" fill="white"/>
</g>
</g>
</g>
</g>
</svg>