<svg xmlns="http://www.w3.org/2000/svg" xmlns:xlink="http://www.w3.org/1999/xlink" xmlns:inkscape="http://www.inkscape.org/namespaces/inkscape" version="1.1" width="225.5" height="112.46503" viewBox="0 0 225.5 112.46503">
<defs>
<clipPath id="clip_12">
<path transform="matrix(1,0,0,-1,-212,698.78256)" d="M212 586.3175H437.5V698.78256H212Z" clip-rule="evenodd"/>
</clipPath>
<clipPath id="clip_13">
<path transform="matrix(1,0,0,-1,-212,698.78256)" d="M0 0H612V803.25H0Z"/>
</clipPath>
<clipPath id="clip_14">
<path transform="matrix(1,0,0,-1,-212,698.78256)" d="M0 0H612V803.25H0Z"/>
</clipPath>
<clipPath id="clip_15">
<path transform="matrix(1,0,0,-1,-212,698.78256)" d="M0 0H612V803.25H0Z"/>
</clipPath>
</defs>
<g clip-path="url(#clip_12)">
<g clip-path="url(#clip_13)">
<g clip-path="url(#clip_14)">
<g clip-path="url(#clip_15)">
<path transform="matrix(1,0,0,-1,-212,698.78256)" d="M249.3674 668.6558 219.8853 593.2034H294.4175ZM251.0781 675.7465 301.1045 591.9597C302.1201 590.2587 300.8945 588.0995 298.9134 588.0995H216.1484C214.3517 588.0995 213.1176 589.9067 213.7715 591.5802L246.5101 675.367C247.2826 677.3439 249.9901 677.5688 251.0781 675.7465M299.7057 590.3419C299.5347 589.9043 299.0414 589.6882 298.6038 589.8592 298.1662 590.0301 297.9501 590.5235 298.1211 590.961L333.916 682.5698C334.087 683.0073 334.5803 683.2235 335.0179 683.0525 335.4555 682.8815 335.6716 682.3882 335.5006 681.9506ZM216.6685 589.9783C216.2967 589.6911 215.7625 589.7596 215.4753 590.1314 215.188 590.5031 215.2565 591.0373 215.6283 591.3246L334.1882 682.9333C334.56 683.2205 335.0942 683.152 335.3815 682.7803 335.6687 682.4085 335.6002 681.8743 335.2284 681.5871ZM299.4335 589.9783C299.0617 589.6911 298.5275 589.7596 298.2403 590.1314 297.953 590.5031 298.0215 591.0373 298.3933 591.3246L434.6546 696.6108C435.0264 696.898 435.5606 696.8295 435.8479 696.4578 436.1351 696.086 436.0666 695.5518 435.6948 695.2646ZM216.5169 589.8848C216.0935 589.6813 215.5853 589.8595 215.3817 590.2829 215.1782 590.7063 215.3564 591.2146 215.7799 591.4181L434.8062 696.7043C435.2296 696.9079 435.7379 696.7296 435.9414 696.3062 436.1449 695.8828 435.9667 695.3745 435.5433 695.171ZM220.5215 593.1182C220.5215 592.6492 220.1413 592.269 219.6723 592.269 219.2033 592.269 218.823 592.6492 218.823 593.1182 218.823 593.5873 219.2033 593.9675 219.6723 593.9675 220.1413 593.9675 220.5215 593.5873 220.5215 593.1182M219.0362 591.287C219.0362 590.5192 218.4137 589.8967 217.6459 589.8967 216.8781 589.8967 216.2557 590.5192 216.2557 591.287 216.2557 592.0548 216.8781 592.6772 217.6459 592.6772 218.4137 592.6772 219.0362 592.0548 219.0362 591.287M218.5362 591.493C218.5362 590.5744 217.7915 589.8297 216.8729 589.8297 215.9543 589.8297 215.2097 590.5744 215.2097 591.493 215.2097 592.4115 215.9543 593.1562 216.8729 593.1562 217.7915 593.1562 218.5362 592.4115 218.5362 591.493M217.1613 592.4663C217.5044 592.7838 218.04 592.7631 218.3575 592.4199 218.3734 592.4027 218.3886 592.3849 218.4031 592.3664L218.3857 592.3822C218.4007 592.3685 218.2695 592.4699 218.3089 592.4428 218.3523 592.4128 217.8064 592.6446 218.026 592.5774 218.6237 592.3945 218.96 591.7617 218.7771 591.164 218.5942 590.5664 217.9615 590.2301 217.3638 590.4129 216.7661 590.5958 216.4298 591.2286 216.6127 591.8263 216.7633 592.3186 217.2274 592.6473 217.7418 592.6259 217.9934 592.6155 217.3052 592.5541 217.3724 592.5764 217.5463 592.6341 217.1545 592.46 217.1613 592.4663M217.112 592.2268C217.6311 592.4518 218.2343 592.2135 218.4593 591.6944 218.6844 591.1754 218.446 590.5722 217.927 590.3471 217.5241 590.1725 217.0547 590.274 216.76 590.5996 216.6766 590.6918 217.0264 590.3941 216.9751 590.424 216.8596 590.4914 216.9326 590.3925 216.7047 590.6095L216.6772 590.6214C216.2916 590.9271 216.2267 591.4875 216.5324 591.8731 216.6895 592.0712 216.9233 592.1933 217.1757 592.2089L217.2116 592.2121C217.2333 592.2308 216.8554 592.0744 216.8571 592.0757ZM218.466 591.2315C218.428 590.911 218.2851 590.6121 218.0597 590.3811 218.0231 590.3436 218.352 590.7821 218.2415 590.6102 217.7962 589.9171 216.8733 589.7162 216.1802 590.1616 215.487 590.6069 215.2862 591.5298 215.7316 592.2229 216.1769 592.9161 217.0998 593.1169 217.7929 592.6715 218.3915 592.2869 218.6352 591.5331 218.3749 590.8709 218.2897 590.6542 218.4751 591.3084 218.466 591.2315M218.0753 592.6422C218.71 591.9781 218.6862 590.9253 218.0221 590.2906 217.3581 589.6559 216.3052 589.6797 215.6706 590.3438 215.6618 590.3529 215.6532 590.3621 215.6447 590.3714 215.5814 590.4407 215.4909 590.4492 215.298 590.8909 215.0928 591.3609 215.1492 591.9023 215.2521 592.2067L215.165 591.7132C215.1816 592.4251 215.4033 592.6733 215.4843 592.8571L215.5502 593.018C215.6529 593.2246 215.5324 592.9553 215.541 592.9845L215.8329 593.63C215.8613 593.6875 215.7629 593.3396 215.8032 593.5128 216.0449 594.5505 217.082 595.1957 218.1196 594.954 219.1573 594.7123 219.8025 593.6752 219.5608 592.6376 219.5193 592.4591 219.4524 592.2874 219.3624 592.1277 219.0913 591.647 218.9045 591.4923 218.8091 591.3627L218.4974 591.0075 218.3784 590.8931 218.1409 590.6542C218.0948 590.6089 218.2545 590.8161 218.1779 590.7089L218.4053 591.1588C218.3737 591.0623 218.4751 591.7898 218.474 591.5946 218.4723 591.284 218.0285 592.7216 218.1817 592.5085 218.251 592.412 218.0095 592.7087 218.0332 592.6848Z" fill="white"/>
</g>
</g>
</g>
</g>
</svg>