<svg xmlns="http://www.w3.org/2000/svg" xmlns:xlink="http://www.w3.org/1999/xlink" xmlns:inkscape="http://www.inkscape.org/namespaces/inkscape" version="1.1" width="166" height="98.46936" viewBox="0 0 166 98.46936">
<defs>
<clipPath id="clip_16">
<path transform="matrix(1,0,0,-1,-212,684.78689)" d="M212 586.3175H378V684.78689H212Z" clip-rule="evenodd"/>
</clipPath>
<clipPath id="clip_17">
<path transform="matrix(1,0,0,-1,-212,684.78689)" d="M0 0H612V803.25H0Z"/>
</clipPath>
<clipPath id="clip_18">
<path transform="matrix(1,0,0,-1,-212,684.78689)" d="M0 0H612V803.25H0Z"/>
</clipPath>
<clipPath id="clip_19">
<path transform="matrix(1,0,0,-1,-212,684.78689)" d="M0 0H612V803.25H0Z"/>
</clipPath>
</defs>
<g clip-path="url(#clip_16)">
<g clip-path="url(#clip_17)">
<g clip-path="url(#clip_18)">
<g clip-path="url(#clip_19)">
<path transform="matrix(1,0,0,-1,-212,684.78689)" d="M249.3674 668.6558 219.8853 593.2034H294.4175ZM251.0781 675.7465 301.1045 591.9597C302.1201 590.2587 300.8945 588.0995 298.9134 588.0995H216.1484C214.3517 588.0995 213.1176 589.9067 213.7715 591.5802L246.5101 675.367C247.2826 677.3439 249.9901 677.5688 251.0781 675.7465M299.7057 590.3419C299.5347 589.9043 299.0414 589.6882 298.6038 589.8592 298.1662 590.0301 297.9501 590.5235 298.1211 590.961L333.916 682.5698C334.087 683.0073 334.5803 683.2235 335.0179 683.0525 335.4555 682.8815 335.6716 682.3882 335.5006 681.9506ZM216.6685 589.9783C216.2967 589.6911 215.7625 589.7596 215.4753 590.1314 215.188 590.5031 215.2565 591.0373 215.6283 591.3246L334.1882 682.9333C334.56 683.2205 335.0942 683.152 335.3815 682.7803 335.6687 682.4085 335.6002 681.8743 335.2284 681.5871ZM299.4335 589.9783C299.0617 589.6911 298.5275 589.7596 298.2403 590.1314 297.953 590.5031 298.0215 591.0373 298.3933 591.3246L375.146 650.6297C375.5177 650.917 376.0519 650.8485 376.3392 650.4767 376.6264 650.105 376.5579 649.5707 376.1862 649.2835ZM216.5169 589.8848C216.0935 589.6813 215.5853 589.8595 215.3817 590.2829 215.1782 590.7063 215.3564 591.2146 215.7799 591.4181L375.2975 668.0985C375.721 668.302 376.2292 668.1237 376.4327 667.7003 376.6363 667.2769 376.458 666.7687 376.0346 666.5651ZM220.5215 593.1181C220.5215 592.6491 220.1413 592.2689 219.6723 592.2689 219.2033 592.2689 218.823 592.6491 218.823 593.1181 218.823 593.5871 219.2033 593.9674 219.6723 593.9674 220.1413 593.9674 220.5215 593.5871 220.5215 593.1181M219.0362 591.2868C219.0362 590.519 218.4137 589.8966 217.6459 589.8966 216.8781 589.8966 216.2557 590.519 216.2557 591.2868 216.2557 592.0546 216.8781 592.6771 217.6459 592.6771 218.4137 592.6771 219.0362 592.0546 219.0362 591.2868M218.5362 591.4928C218.5362 590.5743 217.7915 589.8296 216.8729 589.8296 215.9543 589.8296 215.2097 590.5743 215.2097 591.4928 215.2097 592.4114 215.9543 593.1561 216.8729 593.1561 217.7915 593.1561 218.5362 592.4114 218.5362 591.4928M217.1613 592.4661C217.5044 592.7837 218.04 592.7629 218.3575 592.4198 218.3734 592.4026 218.3886 592.3847 218.4031 592.3663L218.3857 592.3821C218.4007 592.3683 218.2695 592.4698 218.3089 592.4426 218.3523 592.4127 217.8064 592.6444 218.026 592.5772 218.6237 592.3944 218.96 591.7616 218.7771 591.1639 218.5942 590.5662 217.9615 590.23 217.3638 590.4128 216.7661 590.5957 216.4298 591.2285 216.6127 591.8261 216.7633 592.3185 217.2274 592.6471 217.7418 592.6258 217.9934 592.6153 217.3052 592.554 217.3724 592.5763 217.5463 592.634 217.1545 592.4599 217.1613 592.4661M217.112 592.2267C217.6311 592.4517 218.2343 592.2133 218.4593 591.6943 218.6844 591.1752 218.446 590.572 217.927 590.347 217.5241 590.1723 217.0547 590.2739 216.76 590.5994 216.6766 590.6916 217.0264 590.394 216.9751 590.4238 216.8596 590.4912 216.9326 590.3923 216.7047 590.6094L216.6772 590.6213C216.2916 590.9269 216.2267 591.4873 216.5324 591.873 216.6895 592.0711 216.9233 592.1932 217.1757 592.2088L217.2116 592.212C217.2333 592.2306 216.8554 592.0743 216.8571 592.0756ZM218.466 591.2314C218.428 590.9109 218.2851 590.612 218.0597 590.381 218.0231 590.3435 218.352 590.782 218.2415 590.61 217.7962 589.9169 216.8733 589.7161 216.1802 590.1614 215.487 590.6068 215.2862 591.5297 215.7316 592.2228 216.1769 592.9159 217.0998 593.1168 217.7929 592.6714 218.3915 592.2868 218.6352 591.5329 218.3749 590.8707 218.2897 590.6541 218.4751 591.3083 218.466 591.2314M218.0753 592.642C218.71 591.978 218.6862 590.9251 218.0221 590.2905 217.3581 589.6558 216.3052 589.6796 215.6706 590.3436 215.6618 590.3528 215.6532 590.362 215.6447 590.3713 215.5814 590.4406 215.4909 590.4491 215.298 590.8907 215.0928 591.3608 215.1492 591.9022 215.2521 592.2066L215.165 591.7131C215.1816 592.425 215.4033 592.6732 215.4843 592.857L215.5502 593.0179C215.6529 593.2245 215.5324 592.9552 215.541 592.9844L215.8329 593.6299C215.8613 593.6873 215.7629 593.3394 215.8032 593.5127 216.0449 594.5503 217.082 595.1956 218.1196 594.9539 219.1573 594.7122 219.8025 593.6751 219.5608 592.6375 219.5193 592.4589 219.4524 592.2872 219.3624 592.1276 219.0913 591.6469 218.9045 591.4922 218.8091 591.3626L218.4974 591.0073 218.3784 590.893 218.1409 590.654C218.0948 590.6087 218.2545 590.816 218.1779 590.7088L218.4053 591.1586C218.3737 591.0622 218.4751 591.7896 218.474 591.5945 218.4723 591.2838 218.0285 592.7215 218.1817 592.5084 218.251 592.4119 218.0095 592.7086 218.0332 592.6847Z"/>
</g>
</g>
</g>
</g>
</svg>
