<svg xmlns="http://www.w3.org/2000/svg" xmlns:xlink="http://www.w3.org/1999/xlink" xmlns:inkscape="http://www.inkscape.org/namespaces/inkscape" version="1.1" width="589.5" height="181.94342" viewBox="0 0 589.5 181.94342">
<defs>
<clipPath id="clip_0">
<path transform="matrix(1,0,0,-1,-10.5,796.2522)" d="M10.5 614.3088H600V796.2522H10.5Z" clip-rule="evenodd"/>
</clipPath>
<clipPath id="clip_1">
<path transform="matrix(1,0,0,-1,-10.5,796.2522)" d="M0 0H612V803.25H0Z"/>
</clipPath>
<clipPath id="clip_2">
<path transform="matrix(1,0,0,-1,-10.5,796.2522)" d="M0 0H612V803.25H0Z"/>
</clipPath>
<clipPath id="clip_3">
<path transform="matrix(1,0,0,-1,-10.5,796.2522)" d="M15.95633 618.3837C15.61709 618.1033 15.1148 618.151 14.83443 618.4903 14.55405 618.8295 14.60176 619.3318 14.941 619.6122L81.61243 674.7161C81.95167 674.9965 82.45396 674.9488 82.73433 674.6095 83.01471 674.2703 82.967 673.768 82.62776 673.4876Z"/>
</clipPath>
<clipPath id="clip_4">
<path transform="matrix(1,0,0,-1,-10.5,796.2522)" d="M0 0H612V803.25H0Z"/>
</clipPath>
<clipPath id="clip_5">
<path transform="matrix(1,0,0,-1,-10.5,796.2522)" d="M0 0H612V803.25H0Z"/>
</clipPath>
<clipPath id="clip_6">
<path transform="matrix(1,0,0,-1,-10.5,796.2522)" d="M0 0H612V803.25H0Z"/>
</clipPath>
<clipPath id="clip_7">
<path transform="matrix(1,0,0,-1,-10.5,796.2522)" d="M0 0H612V803.25H0Z"/>
</clipPath>
<clipPath id="clip_8">
<path transform="matrix(1,0,0,-1,-10.5,796.2522)" d="M0 0H612V803.25H0Z"/>
</clipPath>
<clipPath id="clip_9">
<path transform="matrix(1,0,0,-1,-10.5,796.2522)" d="M260.1007 702.5055C259.6838 702.6464 259.46 703.0986 259.6009 703.5156 259.7419 703.9325 260.1941 704.1563 260.611 704.0154 292.2876 693.31 301.5764 677.1885 287.974 656.0581 287.7358 655.688 287.2427 655.5812 286.8726 655.8194 286.5026 656.0576 286.3957 656.5507 286.6339 656.9208 299.5825 677.0356 290.9059 692.0947 260.1007 702.5055M291.0371 653.6385 283.5709 659.3406 280.7466 647.9034Z"/>
</clipPath>
<clipPath id="clip_10">
<path transform="matrix(1,0,0,-1,-10.5,796.2522)" d="M0 0H612V803.25H0Z"/>
</clipPath>
<clipPath id="clip_11">
<path transform="matrix(1,0,0,-1,-10.5,796.2522)" d="M0 0H612V803.25H0Z"/>
</clipPath>
</defs>
<g clip-path="url(#clip_0)">
<text fill-opacity="0" xml:space="preserve" transform="matrix(.8471761 0 -0 .8471761 5.4375 -6.9978029)" font-size="13" font-family=".SFUI"><tspan y="142.9119" x="345.0047 348.4068">IT</tspan></text>
<text fill-opacity="0" xml:space="preserve" transform="matrix(.8471761 0 -0 .8471761 5.4375 -6.9978029)" font-size="14" font-family=".SFUI"><tspan y="142.4187" x="360.866 365.843 373.96998 378.90498 386.48597 391.42097 394.73197 402.85896">rotation</tspan></text>
<text fill-opacity="0" xml:space="preserve" transform="matrix(.8471761 0 -0 .8471761 5.4375 -6.9978029)" font-size="15" font-family=".SFUI"><tspan y="160.1873" x="148.0367 156.19519 164.71369">cut</tspan></text>
<text fill-opacity="0" xml:space="preserve" transform="matrix(.8471761 0 -0 .8471761 5.4375 -6.9978029)" font-size="16" font-family=".SFUI"><tspan y="161.8816" x="363.0335 371.09593 379.7343 388.24473 391.97114">scale</tspan></text>
<g clip-path="url(#clip_1)">
<path transform="matrix(1,0,0,-1,-10.5,796.2522)" d="M16.1117 618.5559C15.86758 618.1897 15.37282 618.0908 15.00664 618.3349 14.64045 618.579 14.5415 619.0738 14.78562 619.44L71.47857 704.4794C71.72269 704.8456 72.21745 704.9445 72.58363 704.7004 72.94982 704.4563 73.04877 703.9615 72.80465 703.5953ZM71.38562 703.7854C71.24645 704.2029 71.47209 704.6542 71.88961 704.7933 72.30713 704.9325 72.75842 704.7069 72.89759 704.2893L101.2441 619.2499C101.3832 618.8324 101.1576 618.3811 100.7401 618.2419 100.3226 618.1028 99.87127 618.3284 99.7321 618.7459ZM15.44866 618.2011C15.00856 618.2011 14.65179 618.5578 14.65179 618.9979 14.65179 619.438 15.00856 619.7948 15.44866 619.7948H100.4881C100.9282 619.7948 101.285 619.438 101.285 618.9979 101.285 618.5578 100.9282 618.2011 100.4881 618.2011Z"/>
</g>
<g clip-path="url(#clip_2)">
<path transform="matrix(1,0,0,-1,-10.5,796.2522)" d="M80.00083 671.9826C78.83038 673.153 78.83038 675.0507 80.00083 676.2211 81.17127 677.3916 83.06893 677.3916 84.23937 676.2211 85.40981 675.0507 85.40981 673.153 84.23937 671.9826 83.06893 670.8122 81.17127 670.8122 80.00083 671.9826" fill="#dc267f"/>
<path transform="matrix(1,0,0,-1,-10.5,796.2522)" d="M55.8491 616.8787C54.67865 618.0491 54.67865 619.9468 55.8491 621.1172 57.01954 622.2876 58.9172 622.2876 60.08764 621.1172 61.25809 619.9468 61.25809 618.0491 60.08764 616.8787 58.9172 615.7082 57.01954 615.7082 55.8491 616.8787" fill="#ffb000"/>
<path transform="matrix(1,0,0,-1,-10.5,796.2522)" d="M29.01364 640.405C27.8432 641.5755 27.8432 643.4731 29.01364 644.6436 30.18408 645.814 32.08175 645.814 33.25219 644.6436 34.42263 643.4731 34.42263 641.5755 33.25219 640.405 32.08175 639.2346 30.18408 639.2346 29.01364 640.405" fill="#19b091"/>
<path transform="matrix(1,0,0,-1,-10.5,796.2522)" d="M70.02233 701.9181C68.85189 703.0885 68.85189 704.9862 70.02233 706.1566 71.19278 707.3271 73.09044 707.3271 74.26088 706.1566 75.43132 704.9862 75.43132 703.0885 74.26088 701.9181 73.09044 700.7476 71.19278 700.7476 70.02233 701.9181" fill="#648fff"/>
<path transform="matrix(1,0,0,-1,-10.5,796.2522)" d="M13.32939 616.8787C12.15895 618.0491 12.15895 619.9468 13.32939 621.1172 14.49983 622.2876 16.39749 622.2876 17.56793 621.1172 18.73838 619.9468 18.73838 618.0491 17.56793 616.8787 16.39749 615.7082 14.49983 615.7082 13.32939 616.8787" fill="#648fff"/>
<path transform="matrix(1,0,0,-1,-10.5,796.2522)" d="M98.36881 616.8787C97.19836 618.0491 97.19836 619.9468 98.36881 621.1172 99.53925 622.2876 101.4369 622.2876 102.6074 621.1172 103.7778 619.9468 103.7778 618.0491 102.6074 616.8787 101.4369 615.7082 99.53925 615.7082 98.36881 616.8787" fill="#648fff"/>
</g>
<g clip-path="url(#clip_3)">
<g clip-path="url(#clip_4)">
<path transform="matrix(1,0,0,-1,-10.5,796.2522)" d="M15.95633 618.3837 18.33745 620.3517 17.32212 621.5802 14.941 619.6122ZM19.52801 621.3357 21.90913 623.3037 20.8938 624.5322 18.51268 622.5642ZM23.0997 624.2877 25.48082 626.2557 24.46549 627.4842 22.08436 625.5162ZM26.67138 627.2397 29.0525 629.2077 28.03717 630.4362 25.65605 628.4682ZM30.24306 630.1917 32.62419 632.1597 31.60886 633.3882 29.22773 631.4202ZM33.81475 633.1437 36.19587 635.1117 35.18054 636.3401 32.79942 634.3722ZM37.38643 636.0957 39.76756 638.0637 38.75222 639.2921 36.3711 637.3241ZM40.95812 639.0477 43.33924 641.0157 42.32391 642.2441 39.94279 640.2761ZM44.5298 641.9997 46.91092 643.9677 45.89559 645.1961 43.51447 643.2281ZM48.10148 644.9517 50.48261 646.9197 49.46728 648.1481 47.08615 646.1801ZM51.67317 647.9037 54.05429 649.8717 53.03896 651.1001 50.65784 649.1321ZM55.24485 650.8557 57.62598 652.8237 56.61064 654.0521 54.22952 652.0841ZM58.81654 653.8077 61.19766 655.7757 60.18233 657.0041 57.80121 655.0361ZM62.38822 656.7597 64.76934 658.7277 63.75401 659.9561 61.37289 657.9881ZM65.95991 659.7116 68.34103 661.6796 67.3257 662.9081 64.94457 660.9401ZM69.53159 662.6636 71.91271 664.6316 70.89738 665.8601 68.51626 663.8921ZM73.10327 665.6156 75.4844 667.5836 74.46907 668.8121 72.08794 666.8441ZM76.67496 668.5676 79.05608 670.5356 78.04075 671.7641 75.65963 669.7961ZM80.24664 671.5196 82.62776 673.4876 81.61243 674.7161 79.23131 672.7481Z" fill="#969696"/>
</g>
</g>
<g clip-path="url(#clip_5)">
<path transform="matrix(1,0,0,-1,-10.5,796.2522)" d="M146.3718 675.7762C146.4321 675.5504 146.298 675.3185 146.0723 675.2581 145.8465 675.1978 145.6146 675.3318 145.5542 675.5576L145.5262 675.6151 145.7415 675.5203 145.5329 675.4765 144.8483 675.3825C144.3851 675.2496 143.6311 674.6039 143.0805 673.884 142.7922 673.5279 142.5983 673.1962 142.5358 672.9825L142.4633 672.7479C142.4824 672.6455 142.3757 672.921 142.3944 672.8982L142.8965 672.6966C143.2581 672.5867 143.7245 672.5384 144.229 672.5528 144.7975 672.5229 145.3387 672.5525 145.8423 672.627 146.1052 672.6659 146.3498 672.4843 146.3887 672.2214 146.4193 672.0146 146.3129 671.8117 146.1254 671.7194 145.6042 671.4626 145.0203 671.2536 144.4247 671.1074 143.7518 670.9995 143.1426 670.9677 142.5621 671.0513 141.8699 671.1776 141.019 671.3248 140.7134 672.293 140.5755 672.7616 140.6519 673.1658 140.7458 673.4976 140.9612 674.1208 141.3099 674.5946 141.69 675.026 142.4747 675.8675 143.4014 676.6808 144.4949 676.8372 144.9829 676.8794 145.3153 676.7667 145.5089 676.7158 145.8998 676.5342 146.1228 676.311 146.2005 676.0691L146.0691 676.2643C146.219 676.139 146.3225 675.9604 146.3718 675.7762M149.654 675.4987C149.5778 675.2778 149.3369 675.1605 149.116 675.2367 148.9249 675.3026 148.8072 675.4945 148.8349 675.6948 148.8455 675.7714 148.9101 675.4539 148.8807 675.4963 148.8543 675.5343 148.9434 675.4384 148.9357 675.4425L149.2227 675.3949 149.2277 675.409C149.1763 675.3543 149.1166 675.3083 149.0506 675.2726 148.9918 675.2406 149.1444 675.348 149.1394 675.3417L148.9553 674.8675C148.8421 674.522 148.7499 674.1586 148.728 673.8292L148.7486 673.2949C148.7601 673.2411 148.7671 673.1864 148.7696 673.1315L148.86 673.0261 149.0094 673.0096 149.3838 673.1026C149.7828 673.2672 150.3241 673.7236 150.8325 674.15L151.4538 674.7178 151.5053 674.8349C151.5059 674.8368 151.5116 674.6576 151.5025 674.7411 151.4999 674.7655 151.5397 674.6023 151.5249 674.6439 151.5132 674.6771 151.6226 674.4776 151.5886 674.524 151.5618 674.5605 151.7616 674.373 151.7071 674.4099 151.6215 674.4679 152.185 674.3502 152.057 674.3309 151.933 674.3122 152.3483 674.4814 152.3049 674.4442 152.1549 674.3432 152.3526 674.4983 152.3487 674.4928L152.2191 674.2065 152.2557 674.376 152.2528 674.1077 152.2655 673.9855 152.2944 673.6311 152.321 673.4902 152.344 673.423 152.3822 673.3319C152.4193 673.2669 152.4486 673.1978 152.4696 673.1259L152.504 673.0779 152.4908 673.1024C152.6921 673.0306 152.86 672.8871 152.9623 672.6994L152.7437 672.8515 153.2219 672.7481C153.5246 672.724 153.7504 672.459 153.7263 672.1563 153.7079 671.926 153.5475 671.7318 153.3249 671.6701L152.5233 671.5231 152.7779 671.5923 152.5346 671.4809C152.3387 671.3988 152.1195 671.3912 151.9184 671.4596L151.5359 671.6321C151.2591 671.7443 150.9458 672.0188 150.7409 672.3376 150.7003 672.4008 150.6672 672.4684 150.6424 672.5393L150.5517 672.8921 150.5316 673.2839 150.5613 673.5979 150.7454 674.1937 150.9457 674.512 151.2748 674.8704 151.1602 674.7398 151.4755 675.1247C151.5983 675.2351 151.7741 675.4678 152.1817 675.2867 152.518 675.0812 152.4862 674.7882 152.4717 674.7182 152.411 674.4248 152.2959 674.3173 152.0638 674.0886L151.5371 673.4484C151.1591 672.937 150.7186 672.3138 150.1238 671.8588 149.832 671.6486 149.5375 671.5026 149.2309 671.4189 148.9257 671.3349 148.5506 671.2693 148.1131 671.4082 147.5165 671.6235 146.9609 672.1123 146.7886 672.8603 146.7762 672.9139 146.7683 672.9684 146.7649 673.0232 146.7418 673.3928 146.7825 673.7474 146.8539 674.087 146.9764 674.6471 147.1868 675.1244 147.397 675.5149 147.6563 675.9711 147.9414 676.5445 148.6735 676.5894 148.7487 676.594 148.8241 676.5864 148.8969 676.5671 149.2576 676.471 149.5047 676.2411 149.5799 675.943L149.4192 676.1873C149.5889 676.0571 149.7503 675.7778 149.654 675.4987M157.3801 677.9175C157.3265 677.989 157.2955 678.0748 157.2911 678.164 157.2719 678.5514 157.3638 678.4538 157.3933 678.5094L157.4561 678.6311C157.4351 678.5786 157.4095 678.363 157.4102 678.4255 157.4105 678.4592 157.4364 678.2381 157.424 678.2941 157.4175 678.3237 157.4741 678.1488 157.457 678.1897 157.4391 678.2328 157.626 677.9437 157.5607 678.0205 157.3265 678.2964 157.3603 678.71 157.6362 678.9442 157.9122 679.1784 158.3257 679.1445 158.5599 678.8686 158.7941 678.5927 158.7603 678.1792 158.4844 677.945 158.3016 677.7899 158.0488 677.7469 157.8251 677.833 157.7494 677.8621 157.995 677.7923 157.9652 677.7965 157.8757 677.8091 158.1094 677.794 158.0942 677.7926L157.9762 677.7519 157.8006 677.7276C157.7218 677.7256 157.6078 677.6138 157.3801 677.9175M158.5686 678.989C158.6765 678.882 158.7487 678.7443 158.7754 678.5946 158.8508 678.1709 158.7413 678.1928 158.7129 678.1278 158.6793 678.0511 158.6335 677.9803 158.5772 677.9183 158.3239 677.6395 157.8383 677.1355 157.3336 676.3592L156.6684 675.1746 156.104 673.8128C155.9179 673.2935 155.8417 672.8341 155.8378 672.552 155.8225 672.3503 155.5831 672.7365 155.607 672.7313 155.92 672.6234 156.6033 672.6154 157.2537 672.7737 157.4915 672.8316 157.7313 672.6858 157.7891 672.448 157.8329 672.2683 157.7605 672.0803 157.6075 671.9765 156.9569 671.5348 156.2517 671.2037 155.5685 671.0883 155.1475 671.07 154.7671 671.1279 154.4414 671.3971 154.1112 671.67 153.9533 672.0855 153.9111 672.4563 153.8842 673.0896 153.9826 673.7359 154.2081 674.4356 154.394 674.973 154.616 675.5282 154.901 676.0662 155.1923 676.5789 155.4923 677.0394 155.816 677.4489 156.5295 678.3283 157.1636 678.8665 157.6507 679.1201 157.7246 679.1587 157.8043 679.1849 157.8867 679.1979 158.0125 679.2177 158.1666 679.3877 158.5686 678.989M153.8148 674.5817C153.4174 674.7463 153.2285 675.2019 153.393 675.5993 153.478 675.8044 153.6463 675.9636 153.8559 676.0368 153.9096 676.0555 153.8106 676.0166 153.8594 676.0456L154.1289 676.1948 154.9597 676.3984C155.0145 676.4063 155.0698 676.4092 155.1252 676.407L156.494 676.3235 156.322 676.3162 158.4882 676.5699C158.5935 676.5774 158.6994 676.5682 158.8018 676.5426 159.2775 676.4238 159.7232 676.2873 160.0957 676.0294 160.4354 675.7942 160.5201 675.3281 160.2849 674.9885 160.1447 674.7861 159.9141 674.6656 159.6679 674.6662L158.6919 674.5815C158.5869 674.5675 158.4804 674.5702 158.3762 674.5896L156.3643 674.8536 156.5365 674.8563 155.338 674.63C155.2843 674.6147 155.2293 674.6043 155.1737 674.5991L154.7356 674.5361C154.4055 674.495 154.1481 674.4438 153.8148 674.5817M132.9034 655.3746C132.8701 655.1433 132.6555 654.9828 132.4242 655.0162 132.3077 655.033 132.2035 655.0975 132.1366 655.1943 131.9966 655.3967 131.7027 655.803 131.7264 656.4511 131.8569 657.1514 132.1887 657.7249 132.6487 658.3356 133.1829 659.0271 133.891 659.7392 134.7444 660.3701 135.6551 661.0343 136.7072 661.4829 137.7227 661.7956 138.9632 662.1607 140.2046 662.2461 141.3306 661.9364 142.2919 661.6335 142.9199 660.9726 143.5474 660.3894L146.3672 657.9025C146.9579 657.4093 147.5815 656.9586 148.2218 656.5559 149.0507 656.0634 149.8668 655.6361 150.8321 655.4052 152.0565 655.1934 153.6427 655.3088 155.7834 655.5616 157.6881 655.7322 159.5908 656.2967 161.0693 657.2027 161.3787 657.3924 161.7833 657.2952 161.9729 656.9858 162.1625 656.6764 162.0654 656.2718 161.7559 656.0822 160.0568 655.0536 157.9775 654.4582 155.9127 654.2841 153.7002 654.1598 151.997 654.1706 150.6122 654.5621 149.5434 654.7919 148.6225 655.2493 147.7397 655.7459 147.0446 656.1142 146.3509 656.5422 145.6861 657.0201L142.6547 659.3523C141.9826 659.8855 141.4253 660.3085 140.9557 660.4102 140.1466 660.6164 139.2065 660.5544 138.2031 660.2426 137.3006 659.9743 136.3982 659.5897 135.6831 659.0787 134.9378 658.5531 134.3074 657.9468 133.8515 657.3905 133.4348 656.8949 133.1875 656.4776 133.1115 656.223 132.9391 655.8454 132.9447 655.6607 132.9034 655.3746M159.9396 660.2675C159.8211 660.5635 159.965 660.8995 160.261 661.0181 160.4468 661.0924 160.6578 661.0653 160.8187 660.9464L161.2196 660.7663C161.3156 660.7369 161.4047 660.6887 161.4818 660.6246L161.874 660.3538 162.9263 660.0144C164.391 659.4658 166.1603 658.6709 167.5125 658.1351L168.7348 657.6019C168.9389 657.4968 169.0596 657.4965 169.3209 657.2106 169.4003 657.1238 169.5192 656.9899 169.5651 656.7147 169.6023 656.4916 169.5316 656.1785 169.3777 655.9839 168.9822 655.4837 168.8485 655.6483 168.7787 655.6342L169.0902 655.7621C168.6274 655.4593 168.2059 655.3958 167.5721 655.1331L166.183 654.4255 163.8831 653.1836 161.2133 651.8524C160.7166 651.5909 160.1019 651.7815 159.8403 652.2782 159.6107 652.7142 159.727 653.2522 160.1162 653.5545 160.7873 654.0758 161.6673 654.6709 162.6248 655.2716L165.17 656.4941 166.9305 657.075C167.6734 657.285 168.2572 657.3592 168.4741 657.3907L168.1541 657.2792C168.1836 657.2964 167.9154 657.0704 167.9944 657.1522 168.0322 657.1913 167.8251 656.9087 167.8688 656.9847 167.9118 657.0596 167.7433 656.5622 167.7634 656.6865 167.7828 656.8067 167.8258 656.1635 167.7877 656.2944 167.7523 656.4159 168.0026 655.9155 167.9427 655.992 167.889 656.0606 168.1336 655.8091 168.0908 655.8429 168.017 655.9014 168.2739 655.7314 168.243 655.7465 168.1601 655.7871 168.296 655.7235 168.2477 655.7395L168.0141 655.8194 166.7613 656.3397 162.3355 658.5694 161.1841 659.1979 160.7254 659.3373C160.632 659.3734 160.5467 659.4277 160.4744 659.4971 160.2337 659.728 160.049 659.9942 159.9396 660.2675M316.4928 652.9997C316.4594 652.7684 316.2449 652.608 316.0136 652.6414 315.8971 652.6582 315.7929 652.7227 315.7259 652.8195 315.586 653.0219 315.2921 653.4282 315.3158 654.0763 315.4463 654.7765 315.7781 655.35 316.238 655.9609 316.7723 656.6523 317.4803 657.3645 318.3339 657.9953 319.2444 658.6595 320.2966 659.1081 321.3121 659.4208 322.5525 659.7859 323.7939 659.8715 324.9201 659.5615 325.8813 659.2587 326.5092 658.5978 327.1367 658.0149L329.9565 655.5279C330.5472 655.0345 331.1708 654.584 331.8112 654.1813 332.6401 653.6886 333.4562 653.2615 334.4215 653.0303 335.6458 652.8186 337.2321 652.9342 339.3728 653.1868 341.2775 653.3575 343.1802 653.9219 344.6586 654.8279 344.9681 655.0175 345.3726 654.9204 345.5622 654.611 345.7519 654.3015 345.6547 653.897 345.3453 653.7074 343.6462 652.6788 341.5669 652.0836 339.5021 651.9093 337.2896 651.7852 335.5864 651.7957 334.2015 652.1873 333.1328 652.4173 332.2118 652.8745 331.329 653.3713 330.634 653.7395 329.9403 654.1674 329.2754 654.6455L326.244 656.9777C325.572 657.5107 325.0147 657.9336 324.5451 658.0353 323.736 658.2418 322.796 658.1796 321.7924 657.8678 320.89 657.5995 319.9876 657.2148 319.2725 656.7038 318.5272 656.1785 317.8968 655.5721 317.4408 655.0158 317.0242 654.5201 316.7768 654.1027 316.7009 653.8482 316.5285 653.4706 316.5341 653.2859 316.4928 652.9997M343.529 657.8926C343.4105 658.1887 343.5544 658.5247 343.8504 658.6432 344.0361 658.7176 344.2472 658.6905 344.4081 658.5716L344.809 658.3914C344.9047 658.3621 344.9937 658.3141 345.0707 658.2502L345.4633 657.9789 346.5159 657.6395C347.9804 657.0912 349.7497 656.2961 351.1018 655.7603L352.3241 655.2273C352.5287 655.1219 352.6492 655.1214 352.9103 654.8358 352.9896 654.7491 353.1085 654.6154 353.1544 654.3401 353.1917 654.1168 353.1209 653.8031 352.9664 653.6083 352.5695 653.1077 352.4365 653.2734 352.3668 653.2594L352.6802 653.3879C352.2169 653.0842 351.7953 653.021 351.1615 652.7583L349.7723 652.0506 347.4725 650.8088 344.8028 649.4777C344.3062 649.216 343.6915 649.4065 343.4298 649.9031 343.2 650.3392 343.3162 650.8772 343.7054 651.1796 344.3767 651.7012 345.2567 652.2961 346.2141 652.8968L348.7594 654.1193 350.5199 654.7002C351.2627 654.9102 351.8468 654.9844 352.0626 655.0159L351.7445 654.9052C351.774 654.9223 351.5053 654.6965 351.5845 654.7783 351.6224 654.8174 351.4148 654.5347 351.4586 654.6108 351.5017 654.6857 351.3327 654.1875 351.3528 654.3121 351.3722 654.4325 351.4154 653.7881 351.3772 653.9191 351.3417 654.0409 351.5926 653.5401 351.5326 653.6165 351.4788 653.6851 351.7234 653.434 351.6808 653.4677 351.607 653.526 351.8633 653.3566 351.8326 653.3717 351.7501 653.4121 351.8851 653.3488 351.8367 653.3649L351.6029 653.4449 350.351 653.9647 345.925 656.1945 344.7735 656.8231 344.3156 656.9622C344.2218 656.9983 344.1362 657.0527 344.0638 657.1223 343.8231 657.3532 343.6384 657.6194 343.529 657.8926M311.692 690.5971C311.879 690.9196 312.2921 691.0293 312.6146 690.8423 312.8119 690.7278 312.938 690.5216 312.95 690.2939L312.957 689.9955 312.8242 688.3935 312.6303 687.0421 312.6114 686.7079C312.6064 686.6178 312.5865 686.5291 312.5526 686.4454L312.2652 685.8231C312.0965 685.5295 311.7217 685.4283 311.4282 685.597 311.3086 685.6657 311.2157 685.7727 311.1644 685.9007L310.9825 686.6103C310.9667 686.6994 310.9658 686.7904 310.9797 686.8798L311.0419 687.2762 311.1712 688.5543 311.5173 690.1926ZM313.8021 690.2998C313.9006 690.5922 314.2176 690.7495 314.51 690.651 314.733 690.5759 314.885 690.3692 314.8903 690.134L314.8265 689.4401 314.7844 688.4457 314.4935 686.011C314.4286 685.6377 314.0734 685.3878 313.7001 685.4527 313.3288 685.5173 313.0791 685.8693 313.1409 686.2411L313.4035 688.5467 313.6072 689.6655ZM310.2769 691.4897C310.4087 691.185 310.2685 690.8312 309.9639 690.6995 309.6592 690.5677 309.3054 690.7078 309.1736 691.0125 309.0752 691.2401 309.1998 691.5999 309.3321 691.7165L309.5758 691.8517 309.156 691.3143C309.1964 691.9881 309.5153 691.8815 309.6752 691.9543L310.1941 692.1237 311.7989 692.3005 314.8335 692.3532 315.5371 692.3305C315.6232 692.3248 315.7081 692.3079 315.7899 692.2803L316.3988 692.0361 316.7732 691.9683C317.1974 691.8611 317.4544 691.4303 317.3472 691.0061 317.2582 690.6538 316.9409 690.4073 316.5775 690.408L315.9792 690.4075 315.601 690.3506C315.5161 690.3394 315.4302 690.3392 315.3453 690.3501L314.7716 690.401 311.8735 690.4259 310.3279 690.5064 309.7714 690.6238C309.6405 690.6618 309.5674 690.547 309.2841 690.9058L309.936 690.7048 309.9989 690.7297C309.9758 690.7187 310.1232 690.8091 310.0872 690.7827 310.0289 690.7399 310.3386 691.1774 310.2842 691.0392 310.2559 690.9675 310.322 691.3587 310.3249 691.2771 310.3278 691.1964 310.2516 691.5483 310.2769 691.4897M318.8289 687.6812C318.4733 687.6601 318.1679 687.9313 318.1468 688.2869 318.1262 688.6345 318.3852 688.9357 318.732 688.9674L319.3613 688.9724 319.4936 688.9966 319.7747 689.0298 320.1527 689.05C320.2207 689.0535 320.289 689.0473 320.3553 689.0317L321.1611 688.8861C321.4561 688.8446 321.6615 688.5718 321.62 688.2768 321.5884 688.0522 321.4196 687.8714 321.1977 687.8244L320.3822 687.63C320.3161 687.6117 320.2478 687.6029 320.1793 687.6039L319.8315 687.6111 319.4949 687.6452 319.251 687.6806ZM324.3299 689.609C324.3936 689.8707 324.6573 690.0312 324.919 689.9676 325.0321 689.9401 325.1316 689.8731 325.1996 689.7786L325.4285 689.5786 326.2495 688.5381 326.7297 687.8393C326.9243 687.416 326.9842 687.1023 326.9793 686.8492 327.0085 686.8494 327.041 686.6742 326.9603 686.4769 326.8752 686.2688 326.606 686.1093 326.3864 686.1258 326.0936 686.073 325.9108 686.29 325.7454 686.4461 325.5888 686.554 325.4273 686.7648 325.2875 686.9986 325.0242 687.4794 324.8315 688.055 324.7266 688.6825L324.6704 689.5621C324.6975 690.1517 324.9556 690.6612 325.3026 691.0182L325.5353 691.2244C325.5864 691.2623 325.641 691.2952 325.6983 691.3229L326.305 691.4994 327.2195 691.3896 327.6532 691.3056C327.7265 691.2886 327.7973 691.2622 327.8639 691.2272L329.4651 690.4181C329.6852 690.3174 329.7819 690.0573 329.6811 689.8372 329.6076 689.6767 329.445 689.576 329.2686 689.5817L327.5478 689.5734C327.473 689.5654 327.3974 689.567 327.323 689.5782L326.9449 689.6199 326.8074 689.5837 326.6972 689.5546C326.644 689.5198 326.5876 689.4901 326.5287 689.4659L326.5678 689.4865 326.4996 689.3434 326.4707 688.8116C326.4343 688.3111 326.4737 687.8341 326.5409 687.4718L326.6347 687.046 326.6817 686.9881C326.6971 686.9682 326.5687 687.048 326.6367 687.013 326.5921 687.0362 326.2643 687.0151 326.3414 687.0412 326.4003 687.0611 326.1493 686.8976 326.1881 686.9407 326.2442 687.0029 326.1053 686.7446 326.1099 686.7801L326.1077 686.7526 325.787 687.1104 325.2701 687.7798 324.5396 688.7476C324.3667 689.071 324.2596 689.32 324.3299 689.609M332.5449 689.8263C332.5449 689.523 332.299 689.2772 331.9958 689.2772 331.6926 689.2772 331.4468 689.523 331.4468 689.8263 331.4468 690.1295 331.6926 690.3753 331.9958 690.3753 332.299 690.3753 332.5449 690.1295 332.5449 689.8263M332.2482 690.3139C332.5175 690.1745 332.6228 689.8432 332.4834 689.5739 332.344 689.3046 332.0127 689.1993 331.7434 689.3387 331.7081 689.357 331.6748 689.3791 331.6442 689.4046L331.4127 689.5901 331.2578 689.7536 331.2738 689.725 331.7439 689.716C331.7357 689.7112 331.8863 689.9273 331.8503 689.8501 331.7842 689.7089 331.6728 689.594 331.5337 689.5236 331.5043 689.5088 331.6597 689.6837 331.6283 689.6285L331.5054 689.3224C331.4147 689.005 331.357 688.5399 331.3576 688.0753L331.4046 687.3116C331.434 687.0871 331.5029 686.9872 331.5308 686.9613 331.6093 686.8837 331.4593 686.9737 331.5515 686.9932 331.6663 687.0119 331.9732 687.1883 332.2516 687.4885 332.4736 687.7592 332.6694 688.1504 332.7757 688.5324 332.8472 688.8626 332.8105 689.2086 332.7283 689.3939 332.7031 689.4399 332.6084 689.4763 332.5261 689.4717L332.4717 689.4679C332.3696 689.4147 332.2535 689.3943 332.1394 689.4096L332.1718 689.4103C331.9046 689.375 331.6594 689.563 331.6241 689.8302 331.617 689.884 331.6189 689.9386 331.6298 689.9918L331.7459 690.2691C331.808 690.3641 331.8976 690.438 332.0027 690.4808 332.1769 690.5518 332.354 690.5726 332.5273 690.5626 332.9773 690.5219 333.448 690.256 333.6336 689.7657 333.818 689.362 333.8487 688.8348 333.7347 688.2974 333.6582 687.7965 333.4639 687.2582 333.157 686.7842 332.907 686.3412 332.5906 685.8775 332.0376 685.6012 331.586 685.4056 331.0255 685.3409 330.5259 685.6574 330.0941 685.9528 329.8011 686.4053 329.6773 686.9486 329.6066 687.3874 329.61 687.7559 329.6231 688.1066 329.6505 688.7144 329.7386 689.2991 329.9184 689.8069 330.0233 690.08 330.1227 690.3636 330.4281 690.6229 330.8623 690.8964 331.2032 690.8584 331.3541 690.8286 331.506 690.7986 331.6437 690.7189 331.7452 690.602 331.8838 690.4424 331.9122 690.3338 331.9423 690.2425L331.5866 690.5453 331.7345 690.5141 331.7757 690.5169ZM337.4502 693.3791C337.6137 693.5845 337.9128 693.6184 338.1181 693.4549 338.2871 693.3204 338.3442 693.0888 338.257 692.8912L337.9335 692.3339 337.4978 691.7308 336.8838 690.5919C336.7267 690.2003 336.6217 689.7529 336.5834 689.3205 336.557 689.0428 336.5845 688.7531 336.6423 688.4675L336.8603 687.6566 336.9102 687.5819 337.064 687.3932 337.1033 687.3711 337.1232 687.3698C337.2469 687.3364 337.3627 687.2787 337.4639 687.2001 337.5886 687.1032 337.9296 687.0088 338.3508 687.1074 338.6075 687.1676 338.8644 687.0082 338.9246 686.7514 338.9618 686.5925 338.9152 686.4256 338.8012 686.3089 338.3329 685.8295 337.6771 685.4481 336.8421 685.4736 336.7137 685.4776 336.5873 685.5071 336.4704 685.5606L336.1399 685.745 335.8665 685.9443C335.6808 686.094 335.5015 686.2979 335.3566 686.5293L335.1589 686.9588C335.0114 687.3186 334.913 687.7504 334.8682 688.2002 334.8486 688.6678 334.8692 689.124 334.9855 689.5892 335.1335 690.166 335.3617 690.7211 335.6649 691.2196 335.9352 691.6883 336.2495 692.116 336.5604 692.4641L337.1028 693.0358ZM334.3248 688.6845C334.0166 688.785 333.8482 689.1163 333.9486 689.4246 334.0151 689.6284 334.1875 689.7799 334.3982 689.8195L334.7102 689.8471 334.8895 689.8673 335.391 689.8519 336.1344 689.8539C336.2079 689.8551 336.2812 689.8453 336.3519 689.8249L336.8164 689.7104C337.144 689.6408 337.3531 689.3189 337.2836 688.9913 337.2351 688.7631 337.0601 688.583 336.8334 688.528L336.3501 688.4016C336.2794 688.3814 336.206 688.3718 336.1325 688.3732L335.3235 688.4078 334.8139 688.4685 334.3421 688.6744ZM342.6988 688.8566C342.4623 688.6354 342.0913 688.6478 341.8701 688.8843 341.6998 689.0664 341.6633 689.3363 341.7791 689.5571 341.8219 689.6387 341.7501 689.4145 341.7482 689.4255L341.7597 689.4033C341.7181 689.4611 341.8198 689.3544 341.8126 689.3581L341.3232 689.3896 340.8656 689.33 340.6944 689.1762 340.5846 688.984 340.5564 688.4959 340.7291 687.986C340.8681 687.7377 341.4224 687.4499 341.8767 687.4254L342.2934 687.3982C342.2907 687.4017 342.5281 687.7649 342.6452 688.2103L342.6862 688.714 342.678 688.8897C342.6777 688.8939 342.7358 688.7154 342.7024 688.7996 342.6925 688.8244 342.7841 688.6624 342.7555 688.7025 342.7328 688.7343 342.9047 688.5626 342.8574 688.5981 342.7832 688.6539 343.2641 688.5032 343.1556 688.5014 343.0504 688.4997 343.4425 688.5976 343.3915 688.5676L343.5397 688.702C343.5125 688.6646 343.5679 688.7506 343.5673 688.7489 343.4695 688.4713 343.1652 688.3255 342.8875 688.4232 342.6099 688.521 342.4641 688.8253 342.5618 689.103 342.6041 689.2229 342.6877 689.3237 342.7977 689.3873 342.8882 689.4396 343.0058 689.4895 343.1606 689.4835L342.9677 689.4521C343.0942 689.4999 343.3445 689.4776 343.4787 689.3576 343.8487 689.0266 343.6521 688.9731 343.6525 688.9148L343.6533 688.7402 343.5992 688.0011C343.5443 687.4722 343.4527 686.6577 342.6732 686.2687 342.4878 686.1416 342.213 686.0674 341.9565 686.024 341.0242 685.9687 339.9955 686.2155 339.379 687.0963 339.1294 687.4901 339.0087 687.876 338.952 688.2385 338.8884 688.6961 338.9406 689.1134 339.0593 689.4691 339.1537 689.7555 339.3127 690.0221 339.5164 690.2381 339.7148 690.4411 339.9628 690.6553 340.3181 690.7784 340.6851 690.9089 341.0243 690.9089 341.2917 690.9023 341.8773 690.864 342.5968 690.7715 342.9 690.0725 343.0617 689.6648 343.0693 689.203 342.6988 688.8566M342.806 689.467C343.1465 689.5653 343.5052 689.3851 343.6296 689.0533L343.66 688.973C343.6876 688.9014 343.7043 688.8261 343.7095 688.7496L343.7181 688.6735 343.7372 688.5466 343.7936 688.2576 343.8322 688.1448C343.8523 688.0939 343.8678 688.0414 343.8787 687.9879L343.9448 687.777 343.9699 687.7437 343.9826 687.7391C344.0371 687.6887 344.0855 687.6321 344.1268 687.5704L344.1963 687.497 344.1816 687.5177C344.3357 687.4661 344.4724 687.3724 344.576 687.2472L344.6697 687.1927C344.9736 687.0642 345.1157 686.7136 344.9871 686.4097 344.938 686.2937 344.8535 686.1962 344.7457 686.1311L344.173 685.8647C344.019 685.8149 343.8542 685.8091 343.6971 685.8479L343.3191 685.9802C343.158 686.0307 342.9361 686.1588 342.7471 686.312 342.689 686.3591 342.6367 686.4129 342.5913 686.4723L342.3974 686.7712 342.2676 687.0135 342.0596 687.5511C342.0451 687.6033 342.0351 687.6568 342.0299 687.7107L342.016 688.006 342.0716 688.5585 342.1779 688.8756 342.3335 689.1453C342.3784 689.2071 342.4323 689.2619 342.4935 689.3077ZM348.1508 693.4956C348.5289 693.6004 348.9203 693.3788 349.0251 693.0008 349.0981 692.737 349.0132 692.4548 348.8068 692.2752L348.7557 692.2048C348.6015 691.973 348.3573 691.5519 348.1508 690.9395L347.8705 689.9721C347.7296 689.4488 347.6338 688.9058 347.5898 688.4267 347.5188 687.9705 347.5319 687.6431 347.5711 687.4787 347.593 687.3865 347.5994 687.2912 347.59 687.1969L347.5839 687.087 347.562 687.2617 347.5181 687.3406 347.7627 687.2924C347.996 687.28 348.1752 687.0808 348.1628 686.8474 348.1564 686.7265 348.0985 686.6141 348.0037 686.5387 347.8366 686.4058 347.627 686.2939 347.3585 686.2437 347.0776 686.1912 346.6641 686.2226 346.3288 686.5316L346.47 686.4291 346.139 686.6857C346.0724 686.7534 346.0176 686.8317 345.9769 686.9175 345.7538 687.388 345.6794 687.9362 345.6955 688.5389 345.7555 689.1972 345.8687 689.831 346.0335 690.4339L346.4836 691.6103C346.8686 692.3891 347.2933 692.9115 347.6807 693.2249 347.7799 693.3125 347.8926 693.424 348.1508 693.4956M344.6631 689.5153C344.5997 689.5951 344.5571 689.6894 344.5392 689.7898 344.4525 690.2754 344.6956 690.3398 344.7944 690.4127L345.0171 690.5245 345.3005 690.5895 345.7237 690.5715 346.3155 690.5103 346.4888 690.5119 346.7903 690.4963 347.0735 690.484 347.3768 690.4744C347.5245 690.4707 347.6688 690.4293 347.7959 690.354L348.0299 690.2236 348.9439 690.0485C349.2222 689.9999 349.4085 689.735 349.3599 689.4566 349.3224 689.2416 349.1526 689.0741 348.937 689.0395L347.7921 688.8704 347.6694 688.8039C347.5317 688.7502 347.3826 688.7327 347.2363 688.753L346.9064 688.8026 346.6003 688.8552 346.3197 688.9099 346.025 688.9891 345.4777 689.1085 345.1876 689.1884 344.8384 689.3674C344.8755 689.3401 344.8966 689.2219 344.6631 689.5153M350.5965 689.6882C350.7106 689.988 351.0461 690.1385 351.3458 690.0245 351.6057 689.9256 351.7591 689.6563 351.7115 689.3824L351.6379 688.8736 351.604 688.5264 351.6173 688.4345 351.6222 688.1991C351.6235 688.1397 351.6177 688.0805 351.6048 688.0226L351.4868 687.4508 351.4751 687.3237C351.455 687.1361 351.358 686.9653 351.2072 686.8521L351.0647 686.755 351.2896 687.017 351.1598 686.7285C351.0472 686.5103 350.7789 686.4247 350.5607 686.5374 350.4637 686.5875 350.3884 686.6716 350.3494 686.7736L350.2536 687.098 350.4346 686.8047 350.3025 686.9312C350.1737 687.0689 350.1078 687.2538 350.1206 687.4418L350.1347 687.6353 350.1438 688.2091C350.1459 688.2682 350.1551 688.3268 350.1712 688.3838L350.2309 688.5889 350.3188 688.8254 350.3928 689.1233ZM353.5241 692.306C353.5241 691.9264 353.2164 691.6187 352.8368 691.6187 352.4573 691.6187 352.1495 691.9264 352.1495 692.306 352.1495 692.6856 352.4573 692.9933 352.8368 692.9933 353.2164 692.9933 353.5241 692.6856 353.5241 692.306M353.0235 692.4315C353.0235 692.1127 352.7651 691.8543 352.4463 691.8543 352.1275 691.8543 351.8691 692.1127 351.8691 692.4315 351.8691 692.7503 352.1275 693.0087 352.4463 693.0087 352.7651 693.0087 353.0235 692.7503 353.0235 692.4315M352.279 692.6759C352.4814 692.9698 352.8838 693.044 353.1778 692.8416 353.4717 692.6392 353.5459 692.2368 353.3435 691.9428 353.141 691.6489 352.7386 691.5747 352.4447 691.7771 352.2672 691.8993 352.1623 692.102 352.165 692.3175 352.1666 692.4411 352.2038 692.0895 352.1931 692.1237 352.1753 692.1801 352.2389 692.0187 352.2314 692.0324L352.0841 692.2508C351.9996 692.4351 352.0499 692.6532 352.2065 692.7819 352.4321 692.9674 352.534 692.9104 352.5987 692.9173L352.6245 692.9196C352.636 692.922 352.5084 692.8799 352.55 692.8966 352.5729 692.9058 352.4197 692.8249 352.4588 692.8497 352.5011 692.8764 352.1956 692.5549 352.279 692.6759M355.7727 690C355.907 689.7496 355.8129 689.4378 355.5626 689.3035 355.415 689.2243 355.2382 689.2219 355.0885 689.2971L354.7163 689.4932C354.6938 689.496 354.8179 689.5119 354.769 689.5019 354.7153 689.4909 355.0008 689.629 354.9478 689.5867 354.871 689.5293 355.0253 689.6726 355.0137 689.6564L354.9464 689.4439 354.8681 689.013 354.8486 688.4315 354.904 687.6358 355.1191 687.4932 355.2453 687.4785 355.4576 687.7063 355.6355 688.291 355.708 689.1209 355.6618 689.2109 355.6084 689.3307C355.5968 689.3439 355.8037 689.2388 355.7303 689.2606 355.6646 689.28 355.6028 689.3106 355.5474 689.3509 355.4777 689.4015 355.93 689.3141 355.8379 689.2922 355.7539 689.2722 355.9487 689.3499 355.943 689.3425 355.762 689.1104 355.4272 689.0688 355.195 689.2497 354.9982 689.4031 354.9341 689.6725 355.0408 689.898 355.1925 690.2188 355.6228 690.553 356.0783 690.413 356.1434 690.393 356.2046 690.3621 356.2594 690.3216 356.5344 690.1182 356.6328 689.837 356.675 689.5558L356.6359 689.0514C356.6345 688.807 356.5902 688.4372 356.48 688.0639L356.1811 687.2709C356.1242 687.0704 356.0115 686.8013 355.7648 686.5773 355.5735 686.3893 355.293 686.2652 355.0201 686.2233 354.5206 686.1547 353.8792 686.2618 353.4211 686.8439 353.1186 687.2376 352.9549 687.6864 352.855 688.1298L352.8711 689.2477 353.1642 690.1061C353.3965 690.5109 353.6674 690.9633 354.3132 691.0558 354.7796 691.1059 355.0877 690.9055 355.2661 690.7498 355.592 690.4469 355.6782 690.1762 355.7727 690M357.9021 689.7152C357.9485 689.9679 358.191 690.1352 358.4437 690.0889 358.6781 690.0459 358.8421 689.8327 358.8236 689.5952L358.8296 689.3415 358.6582 689.65 358.7909 689.5376C358.8602 689.4777 358.9153 689.4034 358.9526 689.3198L359.2066 688.8518C359.3747 688.3019 359.427 687.8671 359.4603 687.5105L359.4283 686.8623 359.437 686.9966 359.4257 687.0544C359.4307 687.0345 359.3765 687.1895 359.3952 687.1453 359.4053 687.1212 359.3207 687.2796 359.3461 687.2394 359.3736 687.1957 359.0524 687.5099 359.17 687.4259 359.4698 687.2119 359.5393 686.7953 359.3252 686.4955 359.1111 686.1957 358.6946 686.1262 358.3948 686.3403 358.095 686.5544 358.0255 686.9709 358.2396 687.2707 358.2876 687.3379 358.3476 687.3957 358.4167 687.4409 358.5302 687.5153 358.2158 687.2379 358.2438 687.2763 358.2906 687.3406 358.1598 687.1216 358.1713 687.1486 358.2047 687.2272 358.1378 687.042 358.1393 687.0495L358.1411 687.0617 358.0975 687.3167 357.8757 688.2828 357.7609 689.0695C357.7613 689.1608 357.7819 689.251 357.8211 689.3335L357.9834 689.5893 357.8698 689.2553ZM359.0965 686.29C358.8495 686.1593 358.5474 686.1953 358.3381 686.3803 357.9611 686.7137 358.1241 686.7411 358.1165 686.7892L358.1067 686.8853C358.079 687.523 358.3245 688.4068 358.6483 689.2491 358.6888 689.4259 358.7564 689.6717 358.8965 689.9348L359.1597 690.3149C359.3193 690.4855 359.6618 690.7086 360.063 690.7002 361.0659 690.5363 361.2214 690.0095 361.41 689.6868L361.6735 688.9873 361.7442 688.7774C361.7682 688.6978 361.7833 688.6157 361.789 688.5327L361.8034 687.6414 361.8189 687.4615C361.8247 687.3457 361.81 687.2298 361.7756 687.1191L361.497 686.3996C361.3281 686.06 360.9159 685.9217 360.5763 686.0906 360.4602 686.1483 360.3627 686.2379 360.2953 686.3487L359.9652 686.9465C359.9104 687.0487 359.8741 687.1597 359.8579 687.2744L359.822 687.511 359.6381 688.0423C359.6075 688.1192 359.5855 688.1992 359.5726 688.281L359.5377 688.4727 359.4643 688.6405 359.3313 688.949 359.3556 688.9181C359.3255 688.9533 359.6731 688.6991 359.5581 688.7602 359.3524 688.8985 359.8528 688.6762 359.7321 688.7036 359.6419 688.724 360.0596 688.6943 359.9856 688.6871 359.8803 688.6768 360.2328 688.7588 360.1958 688.7417L360.2228 688.7551 360.052 688.5327C359.7912 687.9995 359.5141 687.0477 359.4488 686.7667L359.4204 686.6686C359.4033 686.6207 359.573 686.5421 359.0965 686.29M328.1217 670.5729C328.1217 670.0074 327.6633 669.549 327.0978 669.549 326.5324 669.549 326.0739 670.0074 326.0739 670.5729 326.0739 671.1384 326.5324 671.5968 327.0978 671.5968 327.6633 671.5968 328.1217 671.1384 328.1217 670.5729M330.0174 674.9593C330.0194 674.7243 329.8305 674.5321 329.5955 674.5301 329.5724 674.5299 329.5492 674.5315 329.5263 674.5351L329.3453 674.5659 329.0993 674.6261 328.8248 674.7128C328.7319 674.7377 328.645 674.7809 328.5691 674.8399L328.4274 674.9378 328.7432 674.8428 328.752 674.8544C328.6855 674.8176 328.6142 674.79 328.5401 674.7725 328.4395 674.7487 328.7877 674.981 328.7734 674.9494L328.7386 674.7042 328.6914 674.1403C328.6946 674.0842 328.6926 674.028 328.6853 673.9724L328.645 673.5527C328.6604 673.3638 329.0303 672.8399 329.3573 672.3345 329.538 672.1655 329.7351 671.9502 329.8706 671.7154 329.9979 671.4951 330.0899 671.1642 329.9375 670.8778 329.9133 670.7258 329.7671 670.627 329.7216 670.5768L329.4449 670.2988 329.221 670.1264 328.9096 669.9567 328.5527 669.7691 328.4623 669.7217 328.2175 669.6313 327.8081 669.5529 327.6237 669.5354 327.4592 669.5277 327.2841 669.5287 327.1074 669.5399 326.928 669.5632C326.3704 669.6569 325.9943 670.185 326.0881 670.7427 326.1819 671.3003 326.71 671.6764 327.2677 671.5826 327.3836 671.5631 327.4954 671.5237 327.598 671.4663L327.6135 671.4587 327.6534 671.4425 327.7069 671.4251 327.7717 671.4084 327.846 671.3934 328.0373 671.3654 328.2162 671.3363 328.403 671.2927 328.6512 671.2709 328.7821 671.2883 329.0118 671.3084 329.2148 671.3581C329.2695 671.3841 329.1944 671.299 329.2509 671.3612 329.2126 671.3171 329.1969 671.1898 329.1378 671.2921L328.7019 671.8065C328.313 672.0505 327.6249 672.3622 327.209 673.1347L326.9484 673.788C326.9296 673.8409 326.9158 673.8954 326.9072 673.9508L326.8749 674.8338C326.94 675.2078 327.0013 675.5122 327.2264 675.8321 327.4999 676.1992 327.9615 676.4252 328.3668 676.4163 328.4436 676.4146 328.5198 676.4023 328.5933 676.3797 328.8197 676.3102 329.0326 676.1938 329.2175 676.0346L328.9191 676.1834 329.2625 676.0807C329.3525 676.0471 329.4349 675.9957 329.5047 675.9297L329.7349 675.6875 329.9421 675.3274ZM326.6205 671.3294C327.0167 671.5388 327.5077 671.3874 327.7171 670.9912 327.9266 670.595 327.7751 670.104 327.3789 669.8946 326.9827 669.6851 326.4917 669.8365 326.2823 670.2327 326.2498 670.2942 326.2253 670.3597 326.2095 670.4274L326.1883 670.7989C326.2192 671.0267 326.3685 671.2211 326.5806 671.3098ZM335.3621 675.0326C335.5235 674.8607 335.5149 674.5907 335.3431 674.4294 335.2648 674.3559 335.1617 674.3146 335.0543 674.3138L334.9404 674.3051C334.7291 674.2722 334.5194 674.3736 334.4141 674.5598L334.3911 674.5982 334.748 674.3917 334.5985 674.3906 334.156 674.3179 333.4882 674.1716C333.2383 674.0962 332.9592 673.9177 332.7042 673.6895 332.4718 673.4949 332.2963 673.2601 332.1768 673.0085L332.0317 672.5426 332.0017 671.9514 332.1019 671.8234 332.4671 671.8584 332.7479 671.8836 333.4029 671.9194 333.6797 671.962C334.2135 671.9885 334.6539 672.0444 335.0896 672.1555L335.5417 672.2023C335.8383 672.2372 336.1069 672.025 336.1418 671.7285 336.1602 671.5721 336.1095 671.4154 336.0029 671.2994L335.7235 671.0144C335.1485 670.6328 334.6532 670.3948 334.1739 670.2049L333.675 670.083 332.9997 669.9551 332.5636 669.9372C332.127 669.9502 331.6464 669.9701 331.1848 670.2957 330.7166 670.5977 330.4072 671.1428 330.3389 671.7005 330.2746 672.0785 330.3081 672.4871 330.3925 672.8745 330.4635 673.1727 330.563 673.4646 330.7151 673.7477 330.9531 674.1884 331.2838 674.5919 331.7034 674.9078 332.1254 675.2033 332.5911 675.4637 333.1322 675.5478 333.5755 675.5896 333.895 675.5286 334.1149 675.4989L334.7557 675.3307 334.9689 675.2414 334.5567 675.2349 334.6473 675.2801C334.8418 675.3692 335.0711 675.3285 335.223 675.178ZM340.4453 674.6964C340.6355 674.5606 340.6795 674.2963 340.5437 674.1061 340.4248 673.9397 340.204 673.8821 340.019 673.9693L339.8534 674.0389 340.0604 674.0161 339.9366 673.9669C339.8155 673.9024 339.6786 673.8738 339.5418 673.8845L338.8487 673.8729 338.5727 673.8615C338.4338 673.8234 338.1299 673.5856 337.9845 673.2563L337.9361 672.9284C337.8821 672.4793 337.8879 672.0691 337.9652 671.8916 338.0084 671.7766 338.1426 671.6433 338.3896 671.5736L338.8339 671.5255C339.0385 671.552 339.3854 671.7752 339.6626 672.0583 339.8587 672.2953 339.9879 672.5955 340.0493 672.8195L340.053 672.9134 340.084 672.8088C340.0534 672.8759 340.2338 672.6502 340.1678 672.7086 339.9633 672.8894 339.9441 673.2017 340.1249 673.4062 340.3057 673.6107 340.618 673.6299 340.8225 673.4491 340.8669 673.4098 340.9039 673.3629 340.9316 673.3106L340.9951 673.123 341.0012 672.9329 340.9466 672.5715C340.8796 672.2542 340.7161 671.8253 340.3985 671.4161 340.1348 671.0129 339.7406 670.539 339.1158 670.3262 338.7836 670.2155 338.4461 670.1965 338.1336 670.2282 337.5524 670.2984 336.9133 670.5621 336.5608 671.1993 336.2272 671.9041 336.288 672.5632 336.3346 673.0689 336.3702 673.3474 336.4193 673.616 336.5394 673.8908 336.7941 674.5813 337.3086 675.1957 338.0437 675.4581 338.355 675.5589 338.5696 675.5439 338.669 675.5481 339.1934 675.5036 339.5547 675.3956 339.8633 675.2733 339.9914 675.2225 340.1023 675.1361 340.1827 675.0243L340.3891 674.6823 340.2443 674.8332ZM339.96 673.6715C340.2906 673.9424 340.7782 673.8939 341.0491 673.5633 341.1697 673.416 341.2319 673.2295 341.2236 673.0393 341.2208 672.9747 341.221 673.1192 341.2211 673.1185L341.2916 672.8321C341.3073 672.7726 341.3167 672.7117 341.3198 672.6503L341.3606 672.4248 341.4214 672.2945 341.5289 672.1043 341.7367 671.7753 341.7359 671.7891C341.8313 671.7251 341.9111 671.6406 341.9695 671.5418L342.1093 671.3967C342.3422 671.2354 342.4002 670.9158 342.2389 670.6829 342.1749 670.5905 342.0823 670.5216 341.9754 670.487L341.3021 670.3828C341.1873 670.3837 341.0741 670.4104 340.9709 670.4608L340.7453 670.5875 340.2179 670.9635 339.8635 671.4762 339.687 671.9327 339.5604 672.5188C339.5543 672.58 339.5546 672.6417 339.5613 672.7029 339.5843 672.9124 339.402 673.2145 339.96 673.6715M345.6904 677.9315C345.6767 678.1648 345.8547 678.365 346.088 678.3787 346.1212 678.3807 346.1545 678.3787 346.1873 678.3728 346.2937 678.3538 346.6512 678.2056 346.7295 677.8624 346.7486 677.7789 346.7498 677.6923 346.733 677.6082 346.6807 677.346 346.5637 677.1939 346.4612 677.0376L346.079 676.5082 345.5381 675.4698C345.3748 675.0809 345.2402 674.6114 345.1303 674.1432L344.925 672.9115 344.9383 672.2343 344.9406 672.2101C344.9592 672.1793 344.7562 672.371 344.8158 672.3331 344.8798 672.2922 344.6689 672.3877 344.6857 672.3854 344.7497 672.3879 344.8063 672.3852 344.8625 672.378L345.1768 672.4137C345.329 672.4486 345.4871 672.4483 345.6392 672.4129L345.768 672.3927 345.4942 672.3783 346.3187 672.6477C346.7079 672.8113 347.1559 672.6284 347.3195 672.2393 347.4576 671.9106 347.3502 671.5302 347.0606 671.3223L346.1069 670.7146 346.3238 670.8803 346.1331 670.6854C346.0238 670.5761 345.8912 670.4928 345.7453 670.4418 345.4208 670.3285 345.099 670.2519 344.7587 670.2417 344.7021 670.24 344.6454 670.2428 344.5892 670.2501L344.2295 670.3286C343.9916 670.4022 343.7492 670.5334 343.5515 670.7232 342.8035 671.4403 342.9694 672.3182 343.1112 673.139L343.473 674.6076C343.6508 675.1271 343.8563 675.662 344.1281 676.1599 344.3646 676.6073 344.6188 677.029 344.9088 677.3792L345.4136 677.9161 345.699 678.1494C345.7585 678.211 345.8302 678.2593 345.9096 678.2913 345.9284 678.2988 345.7622 678.18 345.8359 678.2415 345.9219 678.3132 345.6953 677.8485 345.6904 677.9315M348.3416 672.9226C348.1546 673.175 348.2075 673.5312 348.4599 673.7182 348.7123 673.9053 349.0685 673.8523 349.2555 673.5999L349.2843 673.5708 349.0035 673.6635 349.112 673.6865C349.2136 673.715 349.32 673.7215 349.4242 673.7057L350.0856 673.6791 350.6246 673.723C350.939 673.7469 351.2405 673.8753 351.4823 674.0181L351.6208 674.1226 351.5912 673.8831 351.5114 673.9196C351.4245 673.9254 351.1698 673.9273 350.8745 673.8588 350.47 673.7643 349.9841 673.4937 349.6912 673.1559 349.5428 672.9894 349.4444 672.8118 349.3941 672.6381 349.3211 672.4064 349.3288 672.1508 349.3969 671.9652 349.4644 671.7214 349.5551 671.585 349.7558 671.4786 350.0338 671.2985 350.9296 671.2112 351.9386 671.1368 352.3268 671.1081 352.6183 670.7702 352.5897 670.382 352.5649 670.0469 352.3071 669.7759 351.9736 669.7345 351.0301 669.6174 350.0625 669.3053 348.9857 669.649 348.1993 669.9871 347.654 670.5616 347.4128 671.2576 347.2272 672.0272 347.3004 672.7116 347.5753 673.313 347.8001 673.775 348.1098 674.1438 348.4707 674.4303 349.1763 674.975 349.9901 675.2225 350.7258 675.2155 351.2268 675.2117 351.6607 675.0913 351.9902 674.8953 352.3751 674.7677 352.8043 674.2127 352.6404 673.6722 352.635 673.4945 352.4849 673.2324 352.2799 673.0164 351.9865 672.7115 351.5663 672.3703 350.9694 672.2092L350.1633 672.1599C349.7869 672.1464 349.4478 672.1854 349.1637 672.2435 349.0606 672.2646 348.9632 672.3074 348.8779 672.3689 348.7047 672.494 348.5531 672.6616 348.4634 672.8407L348.6593 672.6203ZM265.9838 672.7471 201.9157 619.7948H283.6345ZM267.1281 674.3539 285.4961 619.2499C285.6681 618.7339 285.2841 618.2011 284.7401 618.2011H199.7007C198.9538 618.2011 198.6173 619.1363 199.1931 619.6122L265.8645 674.7161C266.296 675.0728 266.9511 674.885 267.1281 674.3539M251.3005 714.2532 198.5163 635.0769 260.591 686.3817ZM252.2972 716.3029 262.2757 686.3674C262.3798 686.0551 262.2811 685.7109 262.0274 685.5012L195.356 630.3973C194.6486 629.8127 193.6762 630.69 194.1852 631.4535L250.8782 716.493C251.246 717.0447 252.0875 716.932 252.2972 716.3029M450.2359 672.7471 386.1678 619.7948H467.8866ZM451.3802 674.3539 469.7482 619.2499C469.9202 618.7339 469.5361 618.2011 468.9922 618.2011H383.9528C383.2059 618.2011 382.8694 619.1363 383.4451 619.6122L450.1166 674.7161C450.5481 675.0728 451.2032 674.885 451.3802 674.3539M485.0786 630.2322 585.498 780.8613 467.4038 683.2565ZM483.1823 626.3327 464.1987 683.2836C464.0007 683.8777 464.1884 684.5325 464.6711 684.9315L591.5104 789.7642C592.8561 790.8764 594.706 789.2073 593.7376 787.7547L485.882 625.9712C485.1822 624.9215 483.5813 625.1359 483.1823 626.3327"/>
</g>
<g clip-path="url(#clip_6)">
<path transform="matrix(1,0,0,-1,-10.5,796.2522)" d="M249.422 713.9317C248.2515 715.1021 248.2515 716.9998 249.422 718.1702 250.5924 719.3406 252.4901 719.3406 253.6605 718.1702 254.8309 716.9998 254.8309 715.1021 253.6605 713.9317 252.4901 712.7612 250.5924 712.7612 249.422 713.9317M192.729 628.8922C191.5586 630.0627 191.5586 631.9603 192.729 633.1308 193.8995 634.3012 195.7971 634.3012 196.9676 633.1308 198.138 631.9603 198.138 630.0627 196.9676 628.8922 195.7971 627.7218 193.8995 627.7218 192.729 628.8922M197.5815 616.8787C196.411 618.0491 196.411 619.9468 197.5815 621.1172 198.7519 622.2876 200.6496 622.2876 201.82 621.1172 202.9904 619.9468 202.9904 618.0491 201.82 616.8787 200.6496 615.7082 198.7519 615.7082 197.5815 616.8787M282.6209 616.8787C281.4504 618.0491 281.4504 619.9468 282.6209 621.1172 283.7913 622.2876 285.689 622.2876 286.8594 621.1172 288.0299 619.9468 288.0299 618.0491 286.8594 616.8787 285.689 615.7082 283.7913 615.7082 282.6209 616.8787M480.5887 622.7803C478.362 625.007 478.362 628.6172 480.5887 630.8439 482.8155 633.0706 486.4257 633.0706 488.6524 630.8439 490.8791 628.6172 490.8791 625.007 488.6524 622.7803 486.4257 620.5536 482.8155 620.5536 480.5887 622.7803M588.4444 784.5638C586.2177 786.7905 586.2177 790.4007 588.4444 792.6274 590.6711 794.8541 594.2813 794.8541 596.5081 792.6274 598.7348 790.4007 598.7348 786.7905 596.5081 784.5638 594.2813 782.3371 590.6711 782.3371 588.4444 784.5638M381.8335 616.8787C380.6631 618.0491 380.6631 619.9468 381.8335 621.1172 383.004 622.2876 384.9016 622.2876 386.0721 621.1172 387.2425 619.9468 387.2425 618.0491 386.0721 616.8787 384.9016 615.7082 383.004 615.7082 381.8335 616.8787M466.8729 616.8787C465.7025 618.0491 465.7025 619.9468 466.8729 621.1172 468.0434 622.2876 469.941 622.2876 471.1115 621.1172 472.2819 619.9468 472.2819 618.0491 471.1115 616.8787 469.941 615.7082 468.0434 615.7082 466.8729 616.8787" fill="#648fff"/>
</g>
<g clip-path="url(#clip_7)">
<path transform="matrix(1,0,0,-1,-10.5,796.2522)" d="M259.4005 683.9962C258.23 685.1666 258.23 687.0643 259.4005 688.2347 260.5709 689.4052 262.4686 689.4052 263.639 688.2347 264.8094 687.0643 264.8094 685.1666 263.639 683.9962 262.4686 682.8257 260.5709 682.8257 259.4005 683.9962M264.2529 671.9826C263.0825 673.153 263.0825 675.0507 264.2529 676.2211 265.4233 677.3916 267.321 677.3916 268.4914 676.2211 269.6619 675.0507 269.6619 673.153 268.4914 671.9826 267.321 670.8122 265.4233 670.8122 264.2529 671.9826M461.6051 679.7311C459.3784 681.9579 459.3784 685.5681 461.6051 687.7948 463.8318 690.0215 467.4421 690.0215 469.6688 687.7948 471.8955 685.5681 471.8955 681.9579 469.6688 679.7311 467.4421 677.5044 463.8318 677.5044 461.6051 679.7311M448.505 671.9826C447.3345 673.153 447.3345 675.0507 448.505 676.2211 449.6754 677.3916 451.5731 677.3916 452.7435 676.2211 453.914 675.0507 453.914 673.153 452.7435 671.9826 451.5731 670.8122 449.6754 670.8122 448.505 671.9826" fill="#dc267f"/>
<path transform="matrix(1,0,0,-1,-10.5,796.2522)" d="M240.1012 616.8787C238.9307 618.0491 238.9307 619.9468 240.1012 621.1172 241.2716 622.2876 243.1693 622.2876 244.3397 621.1172 245.5102 619.9468 245.5102 618.0491 244.3397 616.8787 243.1693 615.7082 241.2716 615.7082 240.1012 616.8787M424.3532 616.8787C423.1828 618.0491 423.1828 619.9468 424.3532 621.1172 425.5237 622.2876 427.4213 622.2876 428.5918 621.1172 429.7622 619.9468 429.7622 618.0491 428.5918 616.8787 427.4213 615.7082 425.5237 615.7082 424.3532 616.8787" fill="#ffb000"/>
<path transform="matrix(1,0,0,-1,-10.5,796.2522)" d="M208.4133 652.4186C207.2428 653.5891 207.2428 655.4867 208.4133 656.6572 209.5837 657.8276 211.4814 657.8276 212.6518 656.6572 213.8223 655.4867 213.8223 653.5891 212.6518 652.4186 211.4814 651.2482 209.5837 651.2482 208.4133 652.4186" fill="#19b091"/>
<path transform="matrix(1,0,0,-1,-10.5,796.2522)" d="M558.6059 739.806C556.3792 742.0327 556.3792 745.6429 558.6059 747.8696 560.8326 750.0963 564.4428 750.0963 566.6695 747.8696 568.8962 745.6429 568.8962 742.0327 566.6695 739.806 564.4428 737.5793 560.8326 737.5793 558.6059 739.806" fill="#19b091"/>
</g>
<g clip-path="url(#clip_8)">
<path transform="matrix(1,0,0,-1,-10.5,796.2522)" d="M312.9542 676.713C312.9542 676.2847 312.6069 675.9374 312.1785 675.9374 311.7502 675.9374 311.4029 676.2847 311.4029 676.713 311.4029 677.1414 311.7502 677.4887 312.1785 677.4887 312.6069 677.4887 312.9542 677.1414 312.9542 676.713M312.6109 677.0065C312.8918 676.8708 313.0094 676.5331 312.8737 676.2522 312.8322 676.1662 312.7695 676.0921 312.6915 676.0369 312.3766 675.814 311.9493 675.8648 311.664 676.165 311.3969 676.446 311.4082 676.8902 311.6892 677.1573 311.9702 677.4243 312.4144 677.413 312.6815 677.132 312.8641 676.9398 312.9229 676.6611 312.8334 676.4116 312.7845 676.2751 312.8018 676.8511 312.8362 676.758 312.8705 676.6652 312.4857 677.067 312.6109 677.0065M312.8489 677.1033C313.0644 676.7331 312.939 676.2582 312.5688 676.0427 312.1986 675.8272 311.7237 675.9526 311.5082 676.3228 311.2927 676.693 311.4181 677.1678 311.7883 677.3834 311.8259 677.4053 311.8653 677.424 311.906 677.4393L312.0836 677.4886 311.5298 676.9968 311.6685 677.2747C311.841 677.6874 312.2062 677.6894 312.3538 677.7458 312.6399 677.8316 312.9822 677.9279 313.4228 677.9454L314.5023 677.8093 315.7991 677.3793 316.6238 677.0659C316.698 677.0359 316.7686 676.9977 316.8342 676.952L317.2024 676.6835 317.5032 676.5052C317.7217 676.3748 317.9318 676.2388 318.1322 676.0091 318.2468 675.8778 318.3215 675.7165 318.3475 675.5442L318.3339 675.0819 318.3103 675.5285C318.4394 675.1691 318.2222 674.5254 317.8978 674.3878 317.8302 674.3115 317.6883 674.2863 317.5315 674.2316L317.1477 673.9217 316.5912 673.3803 315.8165 672.5738 314.7737 671.4309 314.6499 671.2456 314.5413 670.9521 314.5551 670.4566 314.5663 670.3489C314.6285 670.1576 314.4945 670.4336 314.5119 670.4152L314.5584 670.3848 314.9693 670.2611C315.3053 670.2 315.8473 670.1879 316.4908 670.2035L317.3568 670.238 319.2406 670.2903C319.4642 670.2959 319.685 670.2393 319.8783 670.1268L320.2738 669.8463 319.9413 670.0397 320.3095 669.8833 320.0699 669.9682 320.6208 669.8773C321.0547 669.8064 321.3489 669.3971 321.2779 668.9633 321.223 668.6277 320.961 668.364 320.6258 668.307L320.0023 668.2045 320.2478 668.2708 319.9562 668.1574 320.2856 668.356 320.0115 668.1296C319.8342 667.992 319.622 667.9064 319.3988 667.8827L317.5176 667.6991 316.458 667.7356C315.7509 667.7703 315.076 667.8203 314.4393 668.0059 314.0128 668.1318 313.6063 668.3054 313.2563 668.6104 312.9574 668.8762 312.6139 669.2834 312.5657 669.868L312.6266 670.5208C312.6697 670.8111 312.7371 671.1472 312.8952 671.4795 312.9985 671.709 313.1721 672.0309 313.4777 672.2898L313.7614 672.4996 314.9271 673.4846 315.7732 674.2619 316.5465 674.8222 317.1387 675.1714 317.1203 675.1833C317.1216 675.1849 317.0567 674.991 317.0752 675.0733 317.0583 675.001 317.1575 674.6363 317.1236 674.6975 317.0762 674.7831 317.239 674.5606 317.2269 674.5702L317.1841 674.5968 317.6195 674.4899 317.3654 674.4964C317.192 674.5112 317.0264 674.5751 316.8881 674.6807L316.5855 674.8436 316.248 674.9791 315.9967 675.0266C315.9186 675.0435 315.8425 675.069 315.7701 675.1028L315.0148 675.4341 314.012 675.791 313.3431 675.916 312.5615 676.0239 312.2677 676.0867 312.2479 676.091C312.236 676.0926 312.4241 676.0966 312.3579 676.0902L312.5482 676.1375 312.9399 676.772C312.939 676.6875 312.7724 677.2347 312.8489 677.1033M312.4126 677.5851C312.6722 677.8548 313.0964 677.8774 313.3831 677.6366L313.4673 677.5599 313.5942 677.4225C313.7557 677.235 313.8189 676.9822 313.7646 676.7407 313.7471 676.6627 313.7733 676.8248 313.776 676.7981L313.6121 677.1743 313.8202 676.9305 314.839 675.6277 315.2974 675.0744 317.0608 672.6596 317.5161 672.0994 318.0288 671.4329 318.9884 670.2343 319.7051 669.4379 320.0852 668.9406C320.3462 668.5336 320.5938 668.1412 320.7993 667.6739L321.058 667.2944C321.1053 667.2267 321.1443 667.1536 321.1743 667.0766L321.2849 666.821 321.0719 667.0956 321.3202 666.8206 321.4647 666.5819C321.6826 666.1528 321.5114 665.6282 321.0823 665.4103 320.7221 665.2273 320.2834 665.3159 320.0224 665.6243L320.0133 665.6349 320.0494 665.6083 320.3846 665.5076C319.9666 665.5487 319.745 665.7357 319.5322 665.9203 319.4698 665.9744 319.4141 666.0358 319.3664 666.1031 319.2848 666.218 319.0833 666.4538 318.9131 666.8139L318.328 667.7285 318.1898 667.9356 317.341 668.9398 316.4038 670.2993 315.9958 670.9498 315.5213 671.5986 313.8981 673.9912 313.4382 674.6525 312.6276 676.1603 312.4842 676.4854 312.7443 676.1676C312.7113 676.1889 312.79 676.158 312.7441 676.174 312.5105 676.2556 312.3293 676.4429 312.2555 676.6791L312.1964 677.017C312.1954 677.1635 312.2153 677.3801 312.4126 677.5851"/>
</g>
<g clip-path="url(#clip_9)">
<g clip-path="url(#clip_10)">
<path transform="matrix(1,0,0,-1,-10.5,796.2522)" d="M260.1007 702.5055C261.054 702.1834 261.9862 701.8565 262.8974 701.5251L263.4423 703.0228C262.5195 703.3585 261.5757 703.6893 260.611 704.0154ZM264.2861 701.0102C265.2279 700.6542 266.1461 700.2931 267.0407 699.9267L267.6447 701.4016C266.7365 701.7735 265.8048 702.14 264.8496 702.501ZM268.4052 699.3561C269.3316 698.9605 270.2312 698.559 271.1041 698.1517L271.7781 699.5959C270.8891 700.0107 269.9735 700.4194 269.0312 700.8218ZM272.4362 697.5153C273.3413 697.0727 274.2157 696.6233 275.0593 696.1673L275.8171 697.5694C274.9542 698.0358 274.0607 698.495 273.1365 698.947ZM276.347 695.4526C277.2219 694.9537 278.0612 694.4471 278.8647 693.9328L279.7238 695.2752C278.8971 695.8043 278.0347 696.3249 277.1365 696.837ZM280.0897 693.124C280.9207 692.5578 281.7097 691.9825 282.4567 691.3984L283.4385 692.6538C282.6637 693.2597 281.8466 693.8555 280.9872 694.4411ZM283.591 690.4772C284.3565 689.8312 285.0721 689.1747 285.7378 688.5078L286.8657 689.6338C286.1675 690.3332 285.4185 691.0203 284.6189 691.6952ZM286.7389 687.4558C287.4057 686.7196 288.0136 685.9712 288.563 685.2107L289.8549 686.1439C289.2708 686.9526 288.6258 687.7466 287.9202 688.5257ZM289.3707 684.017C289.8935 683.1897 290.3492 682.3483 290.7382 681.4928L292.189 682.1525C291.7696 683.0748 291.2793 683.9801 290.7181 684.8683ZM291.283 680.1684C291.6149 679.268 291.8757 678.352 292.0654 677.4199L293.6271 677.7378C293.4212 678.7494 293.1383 679.7435 292.7783 680.7197ZM292.2968 676.009C292.414 675.0723 292.4619 674.1194 292.4406 673.1499L294.034 673.1148C294.057 674.1616 294.0051 675.1924 293.8782 676.2068ZM292.3595 671.7159C292.275 670.7817 292.1282 669.8323 291.9189 668.8677L293.4764 668.5297C293.6994 669.5577 293.8563 670.5719 293.9468 671.5723ZM291.5728 667.463C291.3234 666.5566 291.0203 665.6372 290.6636 664.7047L292.1522 664.1353C292.527 665.1151 292.8461 666.0834 293.1094 667.04ZM290.1141 663.3557C289.7393 662.4879 289.3193 661.6091 288.8538 660.7194L290.266 659.9807C290.7495 660.9048 291.1866 661.8192 291.5773 662.7238ZM288.1531 659.4321C287.6851 658.6041 287.1787 657.767 286.6339 656.9208L287.974 656.0581C288.5351 656.9297 289.0572 657.7929 289.5405 658.6478Z" fill="#c7c3bd"/>
</g>
</g>
<g clip-path="url(#clip_11)">
<path transform="matrix(1,0,0,-1,-10.5,796.2522)" d="M291.0371 653.6385 280.7466 647.9034 283.5709 659.3406Z" fill="#c7c3bd"/>
</g>
</g>
</svg>
