<svg xmlns="http://www.w3.org/2000/svg" xmlns:xlink="http://www.w3.org/1999/xlink" xmlns:inkscape="http://www.inkscape.org/namespaces/inkscape" version="1.1" width="670.5" height="161.4809" viewBox="0 0 670.5 161.4809">
<defs>
<clipPath id="clip_0">
<path transform="matrix(1,0,0,-1,-32.5,520.4384)" d="M32.5 358.95753H703V520.4384H32.5Z" clip-rule="evenodd"/>
</clipPath>
<clipPath id="clip_1">
<path transform="matrix(1,0,0,-1,-32.5,520.4384)" d="M0 0H792V603.4286H0Z"/>
</clipPath>
<clipPath id="clip_2">
<path transform="matrix(1,0,0,-1,-32.5,520.4384)" d="M0 0H792V603.4286H0Z"/>
</clipPath>
<clipPath id="clip_3">
<path transform="matrix(1,0,0,-1,-32.5,520.4384)" d="M0 0H792V603.4286H0Z"/>
</clipPath>
<clipPath id="clip_4">
<path transform="matrix(1,0,0,-1,-32.5,520.4384)" d="M154.5463 518.901C154.5463 519.3349 154.8981 519.6867 155.332 519.6867 155.7659 519.6867 156.1177 519.3349 156.1177 518.901V377.1686C156.1177 376.7347 155.7659 376.3829 155.332 376.3829 154.8981 376.3829 154.5463 376.7347 154.5463 377.1686Z"/>
</clipPath>
<clipPath id="clip_5">
<path transform="matrix(1,0,0,-1,-32.5,520.4384)" d="M0 0H792V603.4286H0Z"/>
</clipPath>
<clipPath id="clip_6">
<path transform="matrix(1,0,0,-1,-32.5,520.4384)" d="M0 0H792V603.4286H0Z"/>
</clipPath>
<clipPath id="clip_7">
<path transform="matrix(1,0,0,-1,-32.5,520.4384)" d="M437.5965 518.3892C437.5965 518.8231 437.9483 519.1749 438.3822 519.1749 438.8162 519.1749 439.1679 518.8231 439.1679 518.3892V376.6568C439.1679 376.2229 438.8162 375.8711 438.3822 375.8711 437.9483 375.8711 437.5965 376.2229 437.5965 376.6568Z"/>
</clipPath>
<clipPath id="clip_8">
<path transform="matrix(1,0,0,-1,-32.5,520.4384)" d="M0 0H792V603.4286H0Z"/>
</clipPath>
<clipPath id="clip_9">
<path transform="matrix(1,0,0,-1,-32.5,520.4384)" d="M295.8642 518.3892C295.8642 518.8231 296.2159 519.1749 296.6499 519.1749 297.0838 519.1749 297.4356 518.8231 297.4356 518.3892V376.6568C297.4356 376.2229 297.0838 375.8711 296.6499 375.8711 296.2159 375.8711 295.8642 376.2229 295.8642 376.6568Z"/>
</clipPath>
<clipPath id="clip_10">
<path transform="matrix(1,0,0,-1,-32.5,520.4384)" d="M0 0H792V603.4286H0Z"/>
</clipPath>
</defs>
<g clip-path="url(#clip_0)">
<g clip-path="url(#clip_1)">
<g clip-path="url(#clip_2)">
<text xml:space="preserve" transform="matrix(15.87091 0 -0 15.87091 544.1818 28.378418)" font-size="1" font-family="cmr10"><tspan y="-.906" x="0">0</tspan></text>
<text xml:space="preserve" transform="matrix(16.70622 0 -0 16.70622 331.5695 29.521729)" font-size="1" font-family="cmr10"><tspan y="-.906" x="0">1</tspan></text>
<text xml:space="preserve" transform="matrix(17.54153 0 -0 17.54153 189.0205 30.383515)" font-size="1" font-family="cmr10"><tspan y="-.906" x="0">2</tspan></text>
<text xml:space="preserve" transform="matrix(17.54153 0 -0 17.54153 47.450883 30.422303)" font-size="1" font-family="cmr10"><tspan y="-.906" x="0">3</tspan></text>
<g clip-path="url(#clip_3)">
<path transform="matrix(1,0,0,-1,-32.5,520.4384)" d="M59.28254 475.9767C59.06557 475.9767 58.88968 476.1526 58.88968 476.3696 58.88968 476.5866 59.06557 476.7625 59.28254 476.7625H108.9576C109.1746 476.7625 109.3505 476.5866 109.3505 476.3696 109.3505 476.1526 109.1746 475.9767 108.9576 475.9767ZM108.6174 476.1732C108.5089 476.3611 108.5733 476.6013 108.7612 476.7098 108.9491 476.8183 109.1893 476.7539 109.2978 476.566L134.1354 433.5462C134.2438 433.3583 134.1795 433.118 133.9916 433.0095 133.8037 432.901 133.5634 432.9654 133.4549 433.1533ZM133.4549 433.5462C133.5634 433.7341 133.8037 433.7984 133.9916 433.69 134.1795 433.5815 134.2438 433.3412 134.1354 433.1533L109.2978 390.1334C109.1893 389.9455 108.9491 389.8812 108.7612 389.9896 108.5733 390.0981 108.5089 390.3384 108.6174 390.5263ZM59.28254 389.937C59.06557 389.937 58.88968 390.1129 58.88968 390.3299 58.88968 390.5468 59.06557 390.7227 59.28254 390.7227H108.9576C109.1746 390.7227 109.3505 390.5468 109.3505 390.3299 109.3505 390.1129 109.1746 389.937 108.9576 389.937ZM34.10478 433.1533C33.9963 433.3412 34.06068 433.5815 34.24858 433.69 34.43648 433.7984 34.67675 433.7341 34.78523 433.5462L59.62276 390.5263C59.73125 390.3384 59.66687 390.0981 59.47897 389.9896 59.29107 389.8812 59.0508 389.9455 58.94232 390.1334ZM200.8774 475.9767C200.6605 475.9767 200.4846 476.1526 200.4846 476.3696 200.4846 476.5866 200.6605 476.7625 200.8774 476.7625H250.5525C250.7695 476.7625 250.9453 476.5866 250.9453 476.3696 250.9453 476.1526 250.7695 475.9767 250.5525 475.9767ZM250.2123 476.1732C250.1038 476.3611 250.1682 476.6013 250.3561 476.7098 250.544 476.8183 250.7842 476.7539 250.8927 476.566L275.7302 433.5462C275.8387 433.3583 275.7744 433.118 275.5864 433.0095 275.3985 432.901 275.1583 432.9654 275.0498 433.1533ZM275.0498 433.5462C275.1583 433.7341 275.3985 433.7984 275.5864 433.69 275.7744 433.5815 275.8387 433.3412 275.7302 433.1533L250.8927 390.1334C250.7842 389.9455 250.544 389.8812 250.3561 389.9896 250.1682 390.0981 250.1038 390.3384 250.2123 390.5263ZM200.8774 389.937C200.6605 389.937 200.4846 390.1129 200.4846 390.3299 200.4846 390.5468 200.6605 390.7227 200.8774 390.7227H250.5525C250.7695 390.7227 250.9453 390.5468 250.9453 390.3299 250.9453 390.1129 250.7695 389.937 250.5525 389.937ZM176.3801 433.1533C176.2716 432.9654 176.0314 432.901 175.8435 433.0095 175.6556 433.118 175.5912 433.3583 175.6997 433.5462L200.5372 476.566C200.6457 476.7539 200.886 476.8183 201.0739 476.7098 201.2618 476.6013 201.3261 476.3611 201.2177 476.1732ZM175.6997 433.1533C175.5912 433.3412 175.6556 433.5815 175.8435 433.69 176.0314 433.7984 176.2716 433.7341 176.3801 433.5462L201.2177 390.5263C201.3261 390.3384 201.2618 390.0981 201.0739 389.9896 200.886 389.8812 200.6457 389.9455 200.5372 390.1334ZM342.6098 475.9767C342.3928 475.9767 342.2169 476.1526 342.2169 476.3696 342.2169 476.5866 342.3928 476.7625 342.6098 476.7625H392.2848C392.5018 476.7625 392.6777 476.5866 392.6777 476.3696 392.6777 476.1526 392.5018 475.9767 392.2848 475.9767ZM391.9446 476.1732C391.8361 476.3611 391.9005 476.6013 392.0884 476.7098 392.2763 476.8183 392.5166 476.7539 392.6251 476.566L417.4626 433.5462C417.5711 433.3583 417.5067 433.118 417.3188 433.0095 417.1309 432.901 416.8906 432.9654 416.7822 433.1533ZM416.7822 433.5462C416.8906 433.7341 417.1309 433.7984 417.3188 433.69 417.5067 433.5815 417.5711 433.3412 417.4626 433.1533L392.6251 390.1334C392.5166 389.9455 392.2763 389.8812 392.0884 389.9896 391.9005 390.0981 391.8361 390.3384 391.9446 390.5263ZM342.6098 389.937C342.3928 389.937 342.2169 390.1129 342.2169 390.3299 342.2169 390.5468 342.3928 390.7227 342.6098 390.7227H392.2848C392.5018 390.7227 392.6777 390.5468 392.6777 390.3299 392.6777 390.1129 392.5018 389.937 392.2848 389.937ZM318.1125 433.1533C318.004 432.9654 317.7637 432.901 317.5758 433.0095 317.3879 433.118 317.3235 433.3583 317.432 433.5462L342.2696 476.566C342.378 476.7539 342.6183 476.8183 342.8062 476.7098 342.9941 476.6013 343.0585 476.3611 342.95 476.1732ZM317.432 433.1533C317.3235 433.3412 317.3879 433.5815 317.5758 433.69 317.7637 433.7984 318.004 433.7341 318.1125 433.5462L342.95 390.5263C343.0585 390.3384 342.9941 390.0981 342.8062 389.9896 342.6183 389.8812 342.378 389.9455 342.2696 390.1334ZM484.2047 475.9767C483.9877 475.9767 483.8118 476.1526 483.8118 476.3696 483.8118 476.5866 483.9877 476.7625 484.2047 476.7625H533.8797C534.0967 476.7625 534.2726 476.5866 534.2726 476.3696 534.2726 476.1526 534.0967 475.9767 533.8797 475.9767ZM533.5395 476.1732C533.431 476.3611 533.4954 476.6013 533.6833 476.7098 533.8712 476.8183 534.1115 476.7539 534.22 476.566L559.0575 433.5462C559.166 433.3583 559.1016 433.118 558.9137 433.0095 558.7258 432.901 558.4855 432.9654 558.377 433.1533ZM558.377 433.5462C558.4855 433.7341 558.7258 433.7984 558.9137 433.69 559.1016 433.5815 559.166 433.3412 559.0575 433.1533L534.22 390.1334C534.1115 389.9455 533.8712 389.8812 533.6833 389.9896 533.4954 390.0981 533.431 390.3384 533.5395 390.5263ZM484.2047 389.937C483.9877 389.937 483.8118 390.1129 483.8118 390.3299 483.8118 390.5468 483.9877 390.7227 484.2047 390.7227H533.8797C534.0967 390.7227 534.2726 390.5468 534.2726 390.3299 534.2726 390.1129 534.0967 389.937 533.8797 389.937ZM459.7074 433.1533C459.5989 432.9654 459.3586 432.901 459.1707 433.0095 458.9828 433.118 458.9184 433.3583 459.0269 433.5462L483.8645 476.566C483.9729 476.7539 484.2132 476.8183 484.4011 476.7098 484.589 476.6013 484.6534 476.3611 484.5449 476.1732ZM459.0269 433.1533C458.9184 433.3412 458.9828 433.5815 459.1707 433.69 459.3586 433.7984 459.5989 433.7341 459.7074 433.5462L484.5449 390.5263C484.6534 390.3384 484.589 390.0981 484.4011 389.9896 484.2132 389.8812 483.9729 389.9455 483.8645 390.1334ZM59.28254 475.9767C59.06557 475.9767 58.88968 476.1526 58.88968 476.3696 58.88968 476.5866 59.06557 476.7625 59.28254 476.7625H108.9576C109.1746 476.7625 109.3505 476.5866 109.3505 476.3696 109.3505 476.1526 109.1746 475.9767 108.9576 475.9767ZM84.51293 473.6012C84.51293 473.3842 84.33704 473.2084 84.12007 473.2084 83.9031 473.2084 83.72721 473.3842 83.72721 473.6012V479.138C83.72721 479.355 83.9031 479.5309 84.12007 479.5309 84.33704 479.5309 84.51293 479.355 84.51293 479.138ZM108.6174 476.1732C108.5089 476.3611 108.5733 476.6013 108.7612 476.7098 108.9491 476.8183 109.1893 476.7539 109.2978 476.566L134.1354 433.5462C134.2438 433.3583 134.1795 433.118 133.9916 433.0095 133.8037 432.901 133.5634 432.9654 133.4549 433.1533ZM119.1753 453.1353C118.9874 453.0268 118.7471 453.0911 118.6386 453.279 118.5302 453.4669 118.5945 453.7072 118.7824 453.8157L123.5774 456.5841C123.7653 456.6926 124.0056 456.6282 124.1141 456.4403 124.2226 456.2524 124.1582 456.0121 123.9703 455.9036ZM133.4549 433.5462C133.5634 433.7341 133.8037 433.7984 133.9916 433.69 134.1795 433.5815 134.2438 433.3412 134.1354 433.1533L109.2978 390.1334C109.1893 389.9455 108.9491 389.8812 108.7612 389.9896 108.5733 390.0981 108.5089 390.3384 108.6174 390.5263ZM119.3546 413.8748C119.1667 413.9833 119.1023 414.2236 119.2108 414.4115 119.3193 414.5994 119.5596 414.6637 119.7475 414.5553L124.5425 411.7869C124.7304 411.6784 124.7947 411.4381 124.6863 411.2502 124.5778 411.0623 124.3375 410.9979 124.1496 411.1064ZM123.3981 409.8048C123.586 409.6963 123.6504 409.4561 123.5419 409.2682 123.4334 409.0803 123.1932 409.0159 123.0053 409.1244L118.2103 411.8927C118.0224 412.0012 117.958 412.2415 118.0665 412.4294 118.175 412.6173 118.4152 412.6817 118.6031 412.5732ZM118.2103 411.8927C118.0224 412.0012 117.958 412.2415 118.0665 412.4294 118.175 412.6173 118.4152 412.6817 118.6031 412.5732L123.3981 409.8048C123.586 409.6963 123.6504 409.4561 123.5419 409.2682 123.4334 409.0803 123.1932 409.0159 123.0053 409.1244ZM108.9576 390.7227C109.1746 390.7227 109.3505 390.5468 109.3505 390.3299 109.3505 390.1129 109.1746 389.937 108.9576 389.937H59.28254C59.06557 389.937 58.88968 390.1129 58.88968 390.3299 58.88968 390.5468 59.06557 390.7227 59.28254 390.7227ZM84.87156 393.0983C84.87156 393.3152 85.04745 393.4911 85.26441 393.4911 85.48138 393.4911 85.65727 393.3152 85.65727 393.0983V387.5615C85.65727 387.3445 85.48138 387.1686 85.26441 387.1686 85.04745 387.1686 84.87156 387.3445 84.87156 387.5615ZM83.36859 387.5615C83.36859 387.3445 83.1927 387.1686 82.97573 387.1686 82.75876 387.1686 82.58287 387.3445 82.58287 387.5615V393.0983C82.58287 393.3152 82.75876 393.4911 82.97573 393.4911 83.1927 393.4911 83.36859 393.3152 83.36859 393.0983ZM82.58287 393.0983C82.58287 393.3152 82.75876 393.4911 82.97573 393.4911 83.1927 393.4911 83.36859 393.3152 83.36859 393.0983V387.5615C83.36859 387.3445 83.1927 387.1686 82.97573 387.1686 82.75876 387.1686 82.58287 387.3445 82.58287 387.5615ZM43.41658 412.0234C43.22919 411.914 42.98863 411.9773 42.87926 412.1647 42.7699 412.352 42.83315 412.5926 43.02054 412.702L47.80252 415.4928C47.98991 415.6022 48.23047 415.5389 48.33984 415.3515 48.4492 415.1641 48.38595 414.9236 48.19856 414.8142ZM48.95613 413.5161C49.14352 413.6255 49.38409 413.5622 49.49345 413.3748 49.60282 413.1874 49.53956 412.9469 49.35217 412.8375L44.5702 410.0467C44.38281 409.9373 44.14224 410.0006 44.03288 410.188 43.92351 410.3754 43.98677 410.6159 44.17416 410.7253ZM50.10974 411.5394C50.29714 411.6488 50.5377 411.5855 50.64707 411.3982 50.75643 411.2108 50.69318 410.9702 50.50578 410.8608L45.72381 408.07C45.53642 407.9607 45.29585 408.0239 45.18649 408.2113 45.07713 408.3987 45.14038 408.6393 45.32777 408.7486ZM45.21297 457.7689C45.02507 457.8774 44.96069 458.1177 45.06917 458.3056 45.17766 458.4935 45.41793 458.5578 45.60583 458.4493L50.40082 455.681C50.58872 455.5725 50.6531 455.3322 50.54462 455.1443 50.43613 454.9564 50.19586 454.892 50.00796 455.0005ZM49.25648 453.6989C49.44438 453.5904 49.50876 453.3501 49.40027 453.1622 49.29179 452.9743 49.05152 452.91 48.86362 453.0184L44.06863 455.7868C43.88073 455.8953 43.81635 456.1356 43.92483 456.3235 44.03332 456.5114 44.27358 456.5758 44.46148 456.4673ZM48.11214 451.7168C48.30004 451.6084 48.36442 451.3681 48.25593 451.1802 48.14745 450.9923 47.90718 450.9279 47.71928 451.0364L42.92429 453.8048C42.73638 453.9133 42.672 454.1535 42.78049 454.3414 42.88897 454.5293 43.12924 454.5937 43.31714 454.4852ZM58.94232 476.566C59.0508 476.7539 59.29107 476.8183 59.47897 476.7098 59.66687 476.6013 59.73125 476.3611 59.62276 476.1732L34.78523 433.1533C34.67675 432.9654 34.43648 432.901 34.24858 433.0095 34.06068 433.118 33.9963 433.3583 34.10478 433.5462ZM200.8774 475.9767C200.6605 475.9767 200.4846 476.1526 200.4846 476.3696 200.4846 476.5866 200.6605 476.7625 200.8774 476.7625H250.5525C250.7695 476.7625 250.9453 476.5866 250.9453 476.3696 250.9453 476.1526 250.7695 475.9767 250.5525 475.9767ZM226.1078 473.6012C226.1078 473.3842 225.9319 473.2084 225.715 473.2084 225.498 473.2084 225.3221 473.3842 225.3221 473.6012V479.138C225.3221 479.355 225.498 479.5309 225.715 479.5309 225.9319 479.5309 226.1078 479.355 226.1078 479.138ZM200.8774 389.937C200.6605 389.937 200.4846 390.1129 200.4846 390.3299 200.4846 390.5468 200.6605 390.7227 200.8774 390.7227H250.5525C250.7695 390.7227 250.9453 390.5468 250.9453 390.3299 250.9453 390.1129 250.7695 389.937 250.5525 389.937ZM226.1078 387.5615C226.1078 387.3445 225.9319 387.1686 225.715 387.1686 225.498 387.1686 225.3221 387.3445 225.3221 387.5615V393.0983C225.3221 393.3152 225.498 393.4911 225.715 393.4911 225.9319 393.4911 226.1078 393.3152 226.1078 393.0983ZM250.2123 476.1732C250.1038 476.3611 250.1682 476.6013 250.3561 476.7098 250.544 476.8183 250.7842 476.7539 250.8927 476.566L275.7302 433.5462C275.8387 433.3583 275.7744 433.118 275.5864 433.0095 275.3985 432.901 275.1583 432.9654 275.0498 433.1533ZM260.198 454.1263C260.0101 454.0178 259.7698 454.0822 259.6614 454.2701 259.5529 454.458 259.6173 454.6982 259.8052 454.8067L264.6002 457.5751C264.7881 457.6836 265.0283 457.6192 265.1368 457.4313 265.2453 457.2434 265.1809 457.0032 264.993 456.8947ZM265.7445 455.5931C265.9324 455.7015 266.1727 455.6372 266.2811 455.4493 266.3896 455.2614 266.3253 455.0211 266.1374 454.9126L261.3424 452.1442C261.1545 452.0357 260.9142 452.1001 260.8057 452.288 260.6972 452.4759 260.7616 452.7162 260.9495 452.8247ZM261.3424 452.1442C261.1545 452.0357 260.9142 452.1001 260.8057 452.288 260.6972 452.4759 260.7616 452.7162 260.9495 452.8247L265.7445 455.5931C265.9324 455.7015 266.1727 455.6372 266.2811 455.4493 266.3896 455.2614 266.3253 455.0211 266.1374 454.9126ZM275.0498 433.5462C275.1583 433.7341 275.3985 433.7984 275.5864 433.69 275.7744 433.5815 275.8387 433.3412 275.7302 433.1533L250.8927 390.1334C250.7842 389.9455 250.544 389.8812 250.3561 389.9896 250.1682 390.0981 250.1038 390.3384 250.2123 390.5263ZM260.9495 413.8748C260.7616 413.9833 260.6972 414.2236 260.8057 414.4115 260.9142 414.5994 261.1545 414.6637 261.3424 414.5553L266.1374 411.7869C266.3253 411.6784 266.3896 411.4381 266.2811 411.2502 266.1727 411.0623 265.9324 410.9979 265.7445 411.1064ZM264.993 409.8048C265.1809 409.6963 265.2453 409.4561 265.1368 409.2682 265.0283 409.0803 264.7881 409.0159 264.6002 409.1244L259.8052 411.8927C259.6173 412.0012 259.5529 412.2415 259.6614 412.4294 259.7698 412.6173 260.0101 412.6817 260.198 412.5732ZM259.8052 411.8927C259.6173 412.0012 259.5529 412.2415 259.6614 412.4294 259.7698 412.6173 260.0101 412.6817 260.198 412.5732L264.993 409.8048C265.1809 409.6963 265.2453 409.4561 265.1368 409.2682 265.0283 409.0803 264.7881 409.0159 264.6002 409.1244ZM185.1133 412.0974C184.9254 411.989 184.6851 412.0533 184.5766 412.2412 184.4681 412.4291 184.5325 412.6694 184.7204 412.7779L189.5154 415.5463C189.7033 415.6548 189.9436 415.5904 190.052 415.4025 190.1605 415.2146 190.0961 414.9743 189.9082 414.8658ZM190.6597 413.5642C190.8476 413.6727 191.0879 413.6083 191.1964 413.4204 191.3049 413.2325 191.2405 412.9923 191.0526 412.8838L186.2576 410.1154C186.0697 410.0069 185.8294 410.0713 185.7209 410.2592 185.6125 410.4471 185.6768 410.6874 185.8647 410.7958ZM191.8041 411.5822C191.992 411.6907 192.2322 411.6263 192.3407 411.4384 192.4492 411.2505 192.3848 411.0102 192.1969 410.9017L187.4019 408.1333C187.214 408.0248 186.9738 408.0892 186.8653 408.2771 186.7568 408.465 186.8212 408.7053 187.0091 408.8138ZM175.6997 433.1533C175.5912 433.3412 175.6556 433.5815 175.8435 433.69 176.0314 433.7984 176.2716 433.7341 176.3801 433.5462L201.2177 390.5263C201.3261 390.3384 201.2618 390.0981 201.0739 389.9896 200.886 389.8812 200.6457 389.9455 200.5372 390.1334ZM186.9269 457.9476C186.7395 458.057 186.6762 458.2975 186.7855 458.4849 186.8948 458.6723 187.1354 458.7356 187.3228 458.6263L192.1054 455.8366C192.2928 455.7273 192.3561 455.4867 192.2468 455.2993 192.1375 455.1119 191.8969 455.0486 191.7095 455.1579ZM190.9523 453.8597C191.1397 453.7504 191.203 453.5098 191.0937 453.3224 190.9843 453.135 190.7438 453.0717 190.5564 453.181L185.7738 455.9707C185.5863 456.08 185.523 456.3206 185.6324 456.508 185.7417 456.6954 185.9822 456.7587 186.1696 456.6494ZM189.7991 451.8827C189.9865 451.7734 190.0498 451.5329 189.9405 451.3454 189.8312 451.158 189.5906 451.0947 189.4032 451.204L184.6206 453.9937C184.4332 454.1031 184.3699 454.3436 184.4792 454.531 184.5885 454.7185 184.8291 454.7818 185.0165 454.6724ZM200.5381 476.5675C200.6474 476.755 200.888 476.8183 201.0754 476.709 201.2628 476.5996 201.3261 476.3591 201.2168 476.1717L176.1879 433.2628C176.0786 433.0754 175.8381 433.0121 175.6506 433.1214 175.4632 433.2307 175.3999 433.4713 175.5092 433.6587ZM342.6098 475.9767C342.3928 475.9767 342.2169 476.1526 342.2169 476.3696 342.2169 476.5866 342.3928 476.7625 342.6098 476.7625H392.2848C392.5018 476.7625 392.6777 476.5866 392.6777 476.3696 392.6777 476.1526 392.5018 475.9767 392.2848 475.9767ZM367.8402 473.6012C367.8402 473.3842 367.6643 473.2084 367.4473 473.2084 367.2303 473.2084 367.0545 473.3842 367.0545 473.6012V479.138C367.0545 479.355 367.2303 479.5309 367.4473 479.5309 367.6643 479.5309 367.8402 479.355 367.8402 479.138ZM391.9446 476.1732C391.8361 476.3611 391.9005 476.6013 392.0884 476.7098 392.2763 476.8183 392.5166 476.7539 392.6251 476.566L417.4626 433.5462C417.5711 433.3583 417.5067 433.118 417.3188 433.0095 417.1309 432.901 416.8906 432.9654 416.7822 433.1533ZM402.5025 453.1353C402.3146 453.0268 402.0744 453.0911 401.9659 453.279 401.8574 453.4669 401.9218 453.7072 402.1097 453.8157L406.9047 456.5841C407.0926 456.6926 407.3329 456.6282 407.4413 456.4403 407.5498 456.2524 407.4854 456.0121 407.2975 455.9036ZM416.7822 433.5462C416.8906 433.7341 417.1309 433.7984 417.3188 433.69 417.5067 433.5815 417.5711 433.3412 417.4626 433.1533L392.6251 390.1334C392.5166 389.9455 392.2763 389.8812 392.0884 389.9896 391.9005 390.0981 391.8361 390.3384 391.9446 390.5263ZM402.6819 413.8748C402.494 413.9833 402.4296 414.2236 402.5381 414.4115 402.6466 414.5994 402.8868 414.6637 403.0747 414.5553L407.8697 411.7869C408.0576 411.6784 408.122 411.4381 408.0135 411.2502 407.905 411.0623 407.6648 410.9979 407.4769 411.1064ZM406.7254 409.8048C406.9133 409.6963 406.9776 409.4561 406.8692 409.2682 406.7607 409.0803 406.5204 409.0159 406.3325 409.1244L401.5375 411.8927C401.3496 412.0012 401.2852 412.2415 401.3937 412.4294 401.5022 412.6173 401.7425 412.6817 401.9304 412.5732ZM401.5375 411.8927C401.3496 412.0012 401.2852 412.2415 401.3937 412.4294 401.5022 412.6173 401.7425 412.6817 401.9304 412.5732L406.7254 409.8048C406.9133 409.6963 406.9776 409.4561 406.8692 409.2682 406.7607 409.0803 406.5204 409.0159 406.3325 409.1244ZM365.5515 387.5615C365.5515 387.3445 365.3756 387.1686 365.1586 387.1686 364.9417 387.1686 364.7658 387.3445 364.7658 387.5615V393.0983C364.7658 393.3152 364.9417 393.4911 365.1586 393.4911 365.3756 393.4911 365.5515 393.3152 365.5515 393.0983ZM367.0545 393.0983C367.0545 393.3152 367.2303 393.4911 367.4473 393.4911 367.6643 393.4911 367.8402 393.3152 367.8402 393.0983V387.5615C367.8402 387.3445 367.6643 387.1686 367.4473 387.1686 367.2303 387.1686 367.0545 387.3445 367.0545 387.5615ZM369.3431 393.0983C369.3431 393.3152 369.519 393.4911 369.736 393.4911 369.953 393.4911 370.1289 393.3152 370.1289 393.0983V387.5615C370.1289 387.3445 369.953 387.1686 369.736 387.1686 369.519 387.1686 369.3431 387.3445 369.3431 387.5615ZM342.6098 389.937C342.3928 389.937 342.2169 390.1129 342.2169 390.3299 342.2169 390.5468 342.3928 390.7227 342.6098 390.7227H392.2848C392.5018 390.7227 392.6777 390.5468 392.6777 390.3299 392.6777 390.1129 392.5018 389.937 392.2848 389.937ZM317.432 433.1533C317.3235 433.3412 317.3879 433.5815 317.5758 433.69 317.7637 433.7984 318.004 433.7341 318.1125 433.5462L342.95 390.5263C343.0585 390.3384 342.9941 390.0981 342.8062 389.9896 342.6183 389.8812 342.378 389.9455 342.2696 390.1334ZM327.4178 411.1064C327.2299 410.9979 326.9896 411.0623 326.8811 411.2502 326.7726 411.4381 326.837 411.6784 327.0249 411.7869L331.8199 414.5553C332.0078 414.6637 332.2481 414.5994 332.3566 414.4115 332.4651 414.2236 332.4007 413.9833 332.2128 413.8748ZM332.9643 412.5732C333.1522 412.6817 333.3924 412.6173 333.5009 412.4294 333.6094 412.2415 333.545 412.0012 333.3571 411.8927L328.5621 409.1244C328.3742 409.0159 328.134 409.0803 328.0255 409.2682 327.917 409.4561 327.9814 409.6963 328.1693 409.8048ZM328.5621 409.1244C328.3742 409.0159 328.134 409.0803 328.0255 409.2682 327.917 409.4561 327.9814 409.6963 328.1693 409.8048L332.9643 412.5732C333.1522 412.6817 333.3924 412.6173 333.5009 412.4294 333.6094 412.2415 333.545 412.0012 333.3571 411.8927ZM328.6889 457.9253C328.5013 458.0343 328.4376 458.2747 328.5466 458.4623 328.6556 458.6499 328.8961 458.7136 329.0837 458.6046L333.8708 455.8226C334.0583 455.7135 334.122 455.4731 334.013 455.2855 333.904 455.0979 333.6636 455.0342 333.476 455.1432ZM332.7208 453.8438C332.9084 453.7347 332.9721 453.4943 332.863 453.3067 332.754 453.1191 332.5136 453.0554 332.326 453.1644L327.5389 455.9465C327.3513 456.0555 327.2876 456.2959 327.3966 456.4835 327.5056 456.6711 327.7461 456.7348 327.9337 456.6258ZM331.5708 451.865C331.7584 451.756 331.8221 451.5155 331.7131 451.3279 331.604 451.1403 331.3636 451.0766 331.176 451.1856L326.3889 453.9677C326.2013 454.0767 326.1376 454.3171 326.2466 454.5047 326.3557 454.6923 326.5961 454.756 326.7837 454.647ZM342.2701 476.567C342.3791 476.7546 342.6196 476.8183 342.8072 476.7093 342.9948 476.6003 343.0585 476.3598 342.9495 476.1722L317.9895 433.2232C317.8805 433.0356 317.6401 432.9719 317.4525 433.081 317.2649 433.19 317.2012 433.4304 317.3102 433.618Z"/>
</g>
<g clip-path="url(#clip_4)">
<g clip-path="url(#clip_5)">
<path transform="matrix(1,0,0,-1,-32.5,520.4384)" d="M154.5463 518.901V515.8199H156.1177V518.901ZM154.5463 514.2793V511.1982H156.1177V514.2793ZM154.5463 509.6576V506.5765H156.1177V509.6576ZM154.5463 505.0359V501.9547H156.1177V505.0359ZM154.5463 500.4142V497.333H156.1177V500.4142ZM154.5463 495.7925V492.7113H156.1177V495.7925ZM154.5463 491.1708V488.0896H156.1177V491.1708ZM154.5463 486.5491V483.4679H156.1177V486.5491ZM154.5463 481.9273V478.8462H156.1177V481.9273ZM154.5463 477.3056V474.2245H156.1177V477.3056ZM154.5463 472.6839V469.6028H156.1177V472.6839ZM154.5463 468.0622V464.9811H156.1177V468.0622ZM154.5463 463.4405V460.3594H156.1177V463.4405ZM154.5463 458.8188V455.7377H156.1177V458.8188ZM154.5463 454.1971V451.116H156.1177V454.1971ZM154.5463 449.5754V446.4943H156.1177V449.5754ZM154.5463 444.9537V441.8726H156.1177V444.9537ZM154.5463 440.332V437.2508H156.1177V440.332ZM154.5463 435.7103V432.6291H156.1177V435.7103ZM154.5463 431.0886V428.0074H156.1177V431.0886ZM154.5463 426.4669V423.3857H156.1177V426.4669ZM154.5463 421.8452V418.764H156.1177V421.8452ZM154.5463 417.2234V414.1423H156.1177V417.2234ZM154.5463 412.6017V409.5206H156.1177V412.6017ZM154.5463 407.98V404.8989H156.1177V407.98ZM154.5463 403.3583V400.2772H156.1177V403.3583ZM154.5463 398.7366V395.6555H156.1177V398.7366ZM154.5463 394.1149V391.0338H156.1177V394.1149ZM154.5463 389.4932V386.4121H156.1177V389.4932ZM154.5463 384.8715V381.7904H156.1177V384.8715ZM154.5463 380.2498V377.1686H156.1177V380.2498Z" fill="#c7c3bd"/>
</g>
</g>
<g clip-path="url(#clip_6)">
<path transform="matrix(1,0,0,-1,-32.5,520.4384)" d="M484.2047 475.9767C483.9877 475.9767 483.8118 476.1526 483.8118 476.3696 483.8118 476.5866 483.9877 476.7625 484.2047 476.7625H533.8797C534.0967 476.7625 534.2726 476.5866 534.2726 476.3696 534.2726 476.1526 534.0967 475.9767 533.8797 475.9767ZM509.4351 473.6012C509.4351 473.3842 509.2592 473.2084 509.0422 473.2084 508.8252 473.2084 508.6493 473.3842 508.6493 473.6012V479.138C508.6493 479.355 508.8252 479.5309 509.0422 479.5309 509.2592 479.5309 509.4351 479.355 509.4351 479.138ZM484.2047 389.937C483.9877 389.937 483.8118 390.1129 483.8118 390.3299 483.8118 390.5468 483.9877 390.7227 484.2047 390.7227H533.8797C534.0967 390.7227 534.2726 390.5468 534.2726 390.3299 534.2726 390.1129 534.0967 389.937 533.8797 389.937ZM509.4351 387.5615C509.4351 387.3445 509.2592 387.1686 509.0422 387.1686 508.8252 387.1686 508.6493 387.3445 508.6493 387.5615V393.0983C508.6493 393.3152 508.8252 393.4911 509.0422 393.4911 509.2592 393.4911 509.4351 393.3152 509.4351 393.0983ZM558.377 433.5462C558.4855 433.7341 558.7258 433.7984 558.9137 433.69 559.1016 433.5815 559.166 433.3412 559.0575 433.1533L534.22 390.1334C534.1115 389.9455 533.8712 389.8812 533.6833 389.9896 533.4954 390.0981 533.431 390.3384 533.5395 390.5263ZM544.2767 413.8748C544.0888 413.9833 544.0245 414.2236 544.133 414.4115 544.2414 414.5994 544.4817 414.6637 544.6696 414.5553L549.4646 411.7869C549.6525 411.6784 549.7169 411.4381 549.6084 411.2502 549.4999 411.0623 549.2596 410.9979 549.0717 411.1064ZM548.3203 409.8048C548.5082 409.6963 548.5725 409.4561 548.4641 409.2682 548.3556 409.0803 548.1153 409.0159 547.9274 409.1244L543.1324 411.8927C542.9445 412.0012 542.8801 412.2415 542.9886 412.4294 543.0971 412.6173 543.3374 412.6817 543.5253 412.5732ZM543.1324 411.8927C542.9445 412.0012 542.8801 412.2415 542.9886 412.4294 543.0971 412.6173 543.3374 412.6817 543.5253 412.5732L548.3203 409.8048C548.5082 409.6963 548.5725 409.4561 548.4641 409.2682 548.3556 409.0803 548.1153 409.0159 547.9274 409.1244ZM483.8645 476.566C483.9729 476.7539 484.2132 476.8183 484.4011 476.7098 484.589 476.6013 484.6534 476.3611 484.5449 476.1732L459.7074 433.1533C459.5989 432.9654 459.3586 432.901 459.1707 433.0095 458.9828 433.118 458.9184 433.3583 459.0269 433.5462ZM469.7642 456.8947C469.5763 457.0032 469.5119 457.2434 469.6204 457.4313 469.7288 457.6192 469.9691 457.6836 470.157 457.5751L474.952 454.8067C475.1399 454.6982 475.2043 454.458 475.0958 454.2701 474.9873 454.0822 474.747 454.0178 474.5591 454.1263ZM473.8077 452.8247C473.9956 452.7162 474.0599 452.4759 473.9515 452.288 473.843 452.1001 473.6027 452.0357 473.4148 452.1442L468.6198 454.9126C468.4319 455.0211 468.3675 455.2614 468.476 455.4493 468.5845 455.6372 468.8248 455.7015 469.0127 455.5931ZM468.6198 454.9126C468.4319 455.0211 468.3675 455.2614 468.476 455.4493 468.5845 455.6372 468.8248 455.7015 469.0127 455.5931L473.8077 452.8247C473.9956 452.7162 474.0599 452.4759 473.9515 452.288 473.843 452.1001 473.6027 452.0357 473.4148 452.1442ZM468.3652 412.0654C468.1769 411.9576 467.9368 412.0229 467.829 412.2111 467.7212 412.3994 467.7864 412.6395 467.9747 412.7473L472.7795 415.4987C472.9678 415.6065 473.2078 415.5413 473.3156 415.353 473.4234 415.1647 473.3582 414.9246 473.1699 414.8168ZM473.9168 413.5126C474.1051 413.6204 474.3451 413.5552 474.4529 413.3669 474.5608 413.1786 474.4955 412.9385 474.3072 412.8307L469.5025 410.0793C469.3142 409.9715 469.0742 410.0368 468.9663 410.225 468.8585 410.4133 468.9237 410.6534 469.112 410.7612ZM475.0541 411.5265C475.2424 411.6343 475.4824 411.5691 475.5903 411.3808 475.6981 411.1925 475.6328 410.9524 475.4446 410.8446L470.6398 408.0932C470.4515 407.9854 470.2115 408.0507 470.1037 408.2389 469.9958 408.4272 470.0611 408.6673 470.2493 408.7751ZM459.0262 433.1545C458.9184 433.3428 458.9836 433.5828 459.1719 433.6907 459.3602 433.7985 459.6002 433.7332 459.7081 433.545L484.3931 390.4374C484.5009 390.2491 484.4356 390.0091 484.2474 389.9012 484.0591 389.7934 483.819 389.8587 483.7112 390.0469ZM542.8778 455.0853C542.6895 454.9775 542.4494 455.0427 542.3416 455.231 542.2338 455.4193 542.299 455.6593 542.4873 455.7671L547.2921 458.5185C547.4804 458.6263 547.7204 458.5611 547.8282 458.3728 547.936 458.1846 547.8708 457.9445 547.6825 457.8367ZM548.4294 456.5324C548.6177 456.6402 548.8577 456.575 548.9655 456.3867 549.0734 456.1985 549.0081 455.9584 548.8198 455.8506L544.0151 453.0992C543.8268 452.9914 543.5867 453.0566 543.4789 453.2449 543.3711 453.4332 543.4363 453.6732 543.6246 453.781ZM549.5667 454.5463C549.755 454.6541 549.995 454.5889 550.1029 454.4006 550.2107 454.2124 550.1454 453.9723 549.9572 453.8645L545.1524 451.1131C544.9641 451.0053 544.7241 451.0705 544.6162 451.2588 544.5084 451.4471 544.5737 451.6871 544.7619 451.7949ZM533.5388 476.1744C533.431 476.3627 533.4962 476.6027 533.6845 476.7105 533.8728 476.8183 534.1128 476.7531 534.2207 476.5648L558.9056 433.4573C559.0135 433.269 558.9482 433.0289 558.76 432.9211 558.5717 432.8133 558.3316 432.8785 558.2238 433.0668ZM626.212 475.9767C625.995 475.9767 625.8191 476.1526 625.8191 476.3696 625.8191 476.5866 625.995 476.7625 626.212 476.7625H675.887C676.104 476.7625 676.2799 476.5866 676.2799 476.3696 676.2799 476.1526 676.104 475.9767 675.887 475.9767ZM700.3852 433.5476C700.4945 433.7351 700.735 433.7984 700.9225 433.6891 701.1099 433.5798 701.1732 433.3393 701.064 433.1519L676.0423 390.2388C675.933 390.0514 675.6924 389.988 675.505 390.0973 675.3176 390.2066 675.2542 390.4472 675.3635 390.6346ZM701.0648 433.5462C701.1733 433.3583 701.1089 433.118 700.921 433.0095 700.7331 432.901 700.4928 432.9654 700.3843 433.1533L675.5468 476.1732C675.4383 476.3611 675.5027 476.6013 675.6906 476.7098 675.8785 476.8183 676.1188 476.7539 676.2273 476.566ZM626.212 389.937C625.995 389.937 625.8191 390.1129 625.8191 390.3299 625.8191 390.5468 625.995 390.7227 626.212 390.7227H675.887C676.104 390.7227 676.2799 390.5468 676.2799 390.3299 676.2799 390.1129 676.104 389.937 675.887 389.937ZM601.7147 433.1533C601.6062 432.9654 601.3659 432.901 601.178 433.0095 600.9901 433.118 600.9257 433.3583 601.0342 433.5462L625.8718 476.566C625.9802 476.7539 626.2205 476.8183 626.4084 476.7098 626.5963 476.6013 626.6607 476.3611 626.5522 476.1732ZM601.0342 433.1533C600.9257 433.3412 600.9901 433.5815 601.178 433.69 601.3659 433.7984 601.6062 433.7341 601.7147 433.5462L626.5522 390.5263C626.6607 390.3384 626.5963 390.0981 626.4084 389.9896 626.2205 389.8812 625.9802 389.9455 625.8718 390.1334ZM626.212 475.9767C625.995 475.9767 625.8191 476.1526 625.8191 476.3696 625.8191 476.5866 625.995 476.7625 626.212 476.7625H675.887C676.104 476.7625 676.2799 476.5866 676.2799 476.3696 676.2799 476.1526 676.104 475.9767 675.887 475.9767ZM651.4424 473.6012C651.4424 473.3842 651.2665 473.2084 651.0495 473.2084 650.8325 473.2084 650.6567 473.3842 650.6567 473.6012V479.138C650.6567 479.355 650.8325 479.5309 651.0495 479.5309 651.2665 479.5309 651.4424 479.355 651.4424 479.138ZM626.212 389.937C625.995 389.937 625.8191 390.1129 625.8191 390.3299 625.8191 390.5468 625.995 390.7227 626.212 390.7227H675.887C676.104 390.7227 676.2799 390.5468 676.2799 390.3299 676.2799 390.1129 676.104 389.937 675.887 389.937ZM651.4424 387.5615C651.4424 387.3445 651.2665 387.1686 651.0495 387.1686 650.8325 387.1686 650.6567 387.3445 650.6567 387.5615V393.0983C650.6567 393.3152 650.8325 393.4911 651.0495 393.4911 651.2665 393.4911 651.4424 393.3152 651.4424 393.0983ZM701.0648 433.5462C701.1733 433.3583 701.1089 433.118 700.921 433.0095 700.7331 432.901 700.4928 432.9654 700.3843 433.1533L675.5468 476.1732C675.4383 476.3611 675.5027 476.6013 675.6906 476.7098 675.8785 476.8183 676.1188 476.7539 676.2273 476.566ZM691.079 455.5931C691.2669 455.7015 691.5072 455.6372 691.6157 455.4493 691.7242 455.2614 691.6598 455.0211 691.4719 454.9126L686.6769 452.1442C686.489 452.0357 686.2487 452.1001 686.1403 452.288 686.0318 452.4759 686.0962 452.7162 686.2841 452.8247ZM685.5326 454.1263C685.3447 454.0178 685.1044 454.0822 684.9959 454.2701 684.8874 454.458 684.9518 454.6982 685.1397 454.8067L689.9347 457.5751C690.1226 457.6836 690.3629 457.6192 690.4714 457.4313 690.5798 457.2434 690.5155 457.0032 690.3276 456.8947ZM689.9347 457.5751C690.1226 457.6836 690.3629 457.6192 690.4714 457.4313 690.5798 457.2434 690.5155 457.0032 690.3276 456.8947L685.5326 454.1263C685.3447 454.0178 685.1044 454.0822 684.9959 454.2701 684.8874 454.458 684.9518 454.6982 685.1397 454.8067ZM625.8718 476.566C625.9802 476.7539 626.2205 476.8183 626.4084 476.7098 626.5963 476.6013 626.6607 476.3611 626.5522 476.1732L601.7147 433.1533C601.6062 432.9654 601.3659 432.901 601.178 433.0095 600.9901 433.118 600.9257 433.3583 601.0342 433.5462ZM611.7715 456.8947C611.5836 457.0032 611.5192 457.2434 611.6277 457.4313 611.7361 457.6192 611.9764 457.6836 612.1643 457.5751L616.9593 454.8067C617.1472 454.6982 617.2116 454.458 617.1031 454.2701 616.9946 454.0822 616.7544 454.0178 616.5665 454.1263ZM615.815 452.8247C616.0029 452.7162 616.0672 452.4759 615.9588 452.288 615.8503 452.1001 615.61 452.0357 615.4221 452.1442L610.6271 454.9126C610.4392 455.0211 610.3748 455.2614 610.4833 455.4493 610.5918 455.6372 610.8321 455.7015 611.02 455.5931ZM610.6271 454.9126C610.4392 455.0211 610.3748 455.2614 610.4833 455.4493 610.5918 455.6372 610.8321 455.7015 611.02 455.5931L615.815 452.8247C616.0029 452.7162 616.0672 452.4759 615.9588 452.288 615.8503 452.1001 615.61 452.0357 615.4221 452.1442ZM610.3725 412.0654C610.1842 411.9576 609.9441 412.0229 609.8363 412.2111 609.7285 412.3994 609.7937 412.6395 609.982 412.7473L614.7868 415.4987C614.9751 415.6065 615.2151 415.5413 615.3229 415.353 615.4308 415.1647 615.3655 414.9246 615.1772 414.8168ZM615.9241 413.5126C616.1124 413.6204 616.3524 413.5552 616.4602 413.3669 616.5681 413.1786 616.5028 412.9385 616.3146 412.8307L611.5098 410.0793C611.3215 409.9715 611.0815 410.0368 610.9736 410.225 610.8658 410.4133 610.9311 410.6534 611.1193 410.7612ZM617.0614 411.5265C617.2497 411.6343 617.4897 411.5691 617.5976 411.3808 617.7054 411.1925 617.6402 410.9524 617.4519 410.8446L612.6471 408.0932C612.4588 407.9854 612.2188 408.0507 612.111 408.2389 612.0031 408.4272 612.0684 408.6673 612.2567 408.7751ZM601.0335 433.1545C600.9257 433.3428 600.9909 433.5828 601.1792 433.6907 601.3675 433.7985 601.6075 433.7332 601.7154 433.545L626.4004 390.4374C626.5082 390.2491 626.4429 390.0091 626.2547 389.9012 626.0664 389.7934 625.8263 389.8587 625.7185 390.0469ZM686.712 414.975C686.5249 415.0849 686.4624 415.3257 686.5724 415.5127 686.6823 415.6998 686.9231 415.7623 687.1101 415.6523L691.8833 412.8465C692.0704 412.7365 692.1329 412.4958 692.0229 412.3087 691.9129 412.1217 691.6722 412.0592 691.4851 412.1691ZM690.7235 410.8734C690.9105 410.7635 690.973 410.5227 690.8631 410.3357 690.7531 410.1486 690.5124 410.0861 690.3253 410.1961L685.5521 413.0019C685.3651 413.1119 685.3026 413.3526 685.4125 413.5397 685.5225 413.7267 685.7633 413.7892 685.9503 413.6793ZM689.5637 408.9004C689.7507 408.7904 689.8132 408.5497 689.7033 408.3626 689.5933 408.1756 689.3525 408.1131 689.1655 408.223L684.3923 411.0289C684.2053 411.1388 684.1428 411.3796 684.2527 411.5666 684.3627 411.7537 684.6034 411.8162 684.7905 411.7062ZM700.3859 433.5488C700.4958 433.7359 700.7366 433.7984 700.9237 433.6884 701.1107 433.5785 701.1732 433.3377 701.0633 433.1507L675.8897 390.3265C675.7798 390.1395 675.539 390.077 675.352 390.1869 675.1649 390.2969 675.1024 390.5377 675.2124 390.7247Z"/>
<path transform="matrix(1,0,0,-1,-32.5,520.4384)" d="M359.0405 375.2678C358.2734 376.0349 358.2734 377.2787 359.0405 378.0458 359.8076 378.8129 361.0513 378.8129 361.8184 378.0458L375.9916 363.8725C376.7587 363.1054 376.7587 361.8617 375.9916 361.0946 375.2245 360.3275 373.9808 360.3275 373.2137 361.0946ZM361.8184 361.0946C361.0513 360.3275 359.8076 360.3275 359.0405 361.0946 358.2734 361.8617 358.2734 363.1054 359.0405 363.8725L373.2137 378.0458C373.9808 378.8129 375.2245 378.8129 375.9916 378.0458 376.7587 377.2787 376.7587 376.0349 375.9916 375.2678ZM500.7728 375.2678C500.0057 376.0349 500.0057 377.2787 500.7728 378.0458 501.5399 378.8129 502.7837 378.8129 503.5508 378.0458L517.724 363.8725C518.4911 363.1054 518.4911 361.8617 517.724 361.0946 516.9569 360.3275 515.7132 360.3275 514.9461 361.0946ZM503.5508 361.0946C502.7837 360.3275 501.5399 360.3275 500.7728 361.0946 500.0057 361.8617 500.0057 363.1054 500.7728 363.8725L514.9461 378.0458C515.7132 378.8129 516.9569 378.8129 517.724 378.0458 518.4911 377.2787 518.4911 376.0349 517.724 375.2678ZM642.5052 375.2678C641.7381 376.0349 641.7381 377.2787 642.5052 378.0458 643.2723 378.8129 644.516 378.8129 645.2831 378.0458L659.4564 363.8725C660.2235 363.1054 660.2235 361.8617 659.4564 361.0946 658.6893 360.3275 657.4455 360.3275 656.6784 361.0946ZM645.2831 361.0946C644.516 360.3275 643.2723 360.3275 642.5052 361.0946 641.7381 361.8617 641.7381 363.1054 642.5052 363.8725L656.6784 378.0458C657.4455 378.8129 658.6893 378.8129 659.4564 378.0458 660.2235 377.2787 660.2235 376.0349 659.4564 375.2678Z" fill="#dc267f"/>
<path transform="matrix(1,0,0,-1,-32.5,520.4384)" d="M216.5513 368.8693C215.7842 369.6364 215.7842 370.8801 216.5513 371.6472 217.3184 372.4143 218.5621 372.4143 219.3292 371.6472L227.1039 363.8725C227.871 363.1054 227.871 361.8617 227.1039 361.0946 226.3368 360.3275 225.0931 360.3275 224.326 361.0946ZM227.1039 361.0946C226.3368 360.3275 225.0931 360.3275 224.326 361.0946 223.5589 361.8617 223.5589 363.1054 224.326 363.8725L239.8754 379.4219C240.6425 380.189 241.8862 380.189 242.6533 379.4219 243.4204 378.6548 243.4204 377.4111 242.6533 376.644ZM74.95643 368.8693C74.18932 369.6364 74.18932 370.8801 74.95643 371.6472 75.72353 372.4143 76.96724 372.4143 77.73435 371.6472L85.50903 363.8725C86.27613 363.1054 86.27613 361.8617 85.50903 361.0946 84.74193 360.3275 83.49821 360.3275 82.73111 361.0946ZM85.50903 361.0946C84.74193 360.3275 83.49821 360.3275 82.73111 361.0946 81.96401 361.8617 81.96401 363.1054 82.73111 363.8725L98.28048 379.4219C99.04758 380.189 100.2913 380.189 101.0584 379.4219 101.8255 378.6548 101.8255 377.4111 101.0584 376.644Z" fill="#19b091"/>
</g>
<g clip-path="url(#clip_7)">
<g clip-path="url(#clip_8)">
<path transform="matrix(1,0,0,-1,-32.5,520.4384)" d="M437.5965 518.3892V515.308H439.1679V518.3892ZM437.5965 513.7674V510.6863H439.1679V513.7674ZM437.5965 509.1457V506.0646H439.1679V509.1457ZM437.5965 504.524V501.4429H439.1679V504.524ZM437.5965 499.9023V496.8212H439.1679V499.9023ZM437.5965 495.2806V492.1995H439.1679V495.2806ZM437.5965 490.6589V487.5778H439.1679V490.6589ZM437.5965 486.0372V482.9561H439.1679V486.0372ZM437.5965 481.4155V478.3344H439.1679V481.4155ZM437.5965 476.7938V473.7127H439.1679V476.7938ZM437.5965 472.1721V469.0909H439.1679V472.1721ZM437.5965 467.5504V464.4692H439.1679V467.5504ZM437.5965 462.9287V459.8475H439.1679V462.9287ZM437.5965 458.307V455.2258H439.1679V458.307ZM437.5965 453.6853V450.6041H439.1679V453.6853ZM437.5965 449.0635V445.9824H439.1679V449.0635ZM437.5965 444.4418V441.3607H439.1679V444.4418ZM437.5965 439.8201V436.739H439.1679V439.8201ZM437.5965 435.1984V432.1173H439.1679V435.1984ZM437.5965 430.5767V427.4956H439.1679V430.5767ZM437.5965 425.955V422.8739H439.1679V425.955ZM437.5965 421.3333V418.2522H439.1679V421.3333ZM437.5965 416.7116V413.6305H439.1679V416.7116ZM437.5965 412.0899V409.0087H439.1679V412.0899ZM437.5965 407.4682V404.387H439.1679V407.4682ZM437.5965 402.8465V399.7653H439.1679V402.8465ZM437.5965 398.2248V395.1436H439.1679V398.2248ZM437.5965 393.6031V390.5219H439.1679V393.6031ZM437.5965 388.9813V385.9002H439.1679V388.9813ZM437.5965 384.3596V381.2785H439.1679V384.3596ZM437.5965 379.7379V376.6568H439.1679V379.7379Z" fill="#c7c3bd"/>
</g>
</g>
<g clip-path="url(#clip_9)">
<g clip-path="url(#clip_10)">
<path transform="matrix(1,0,0,-1,-32.5,520.4384)" d="M295.8642 518.3892V515.308H297.4356V518.3892ZM295.8642 513.7674V510.6863H297.4356V513.7674ZM295.8642 509.1457V506.0646H297.4356V509.1457ZM295.8642 504.524V501.4429H297.4356V504.524ZM295.8642 499.9023V496.8212H297.4356V499.9023ZM295.8642 495.2806V492.1995H297.4356V495.2806ZM295.8642 490.6589V487.5778H297.4356V490.6589ZM295.8642 486.0372V482.9561H297.4356V486.0372ZM295.8642 481.4155V478.3344H297.4356V481.4155ZM295.8642 476.7938V473.7127H297.4356V476.7938ZM295.8642 472.1721V469.0909H297.4356V472.1721ZM295.8642 467.5504V464.4692H297.4356V467.5504ZM295.8642 462.9287V459.8475H297.4356V462.9287ZM295.8642 458.307V455.2258H297.4356V458.307ZM295.8642 453.6853V450.6041H297.4356V453.6853ZM295.8642 449.0635V445.9824H297.4356V449.0635ZM295.8642 444.4418V441.3607H297.4356V444.4418ZM295.8642 439.8201V436.739H297.4356V439.8201ZM295.8642 435.1984V432.1173H297.4356V435.1984ZM295.8642 430.5767V427.4956H297.4356V430.5767ZM295.8642 425.955V422.8739H297.4356V425.955ZM295.8642 421.3333V418.2522H297.4356V421.3333ZM295.8642 416.7116V413.6305H297.4356V416.7116ZM295.8642 412.0899V409.0087H297.4356V412.0899ZM295.8642 407.4682V404.387H297.4356V407.4682ZM295.8642 402.8465V399.7653H297.4356V402.8465ZM295.8642 398.2248V395.1436H297.4356V398.2248ZM295.8642 393.6031V390.5219H297.4356V393.6031ZM295.8642 388.9813V385.9002H297.4356V388.9813ZM295.8642 384.3596V381.2785H297.4356V384.3596ZM295.8642 379.7379V376.6568H297.4356V379.7379Z" fill="#c7c3bd"/>
</g>
</g>
</g>
</g>
</g>
</svg>
