<svg xmlns="http://www.w3.org/2000/svg" xmlns:xlink="http://www.w3.org/1999/xlink" xmlns:inkscape="http://www.inkscape.org/namespaces/inkscape" version="1.1" width="282.5" height="86.989688" viewBox="0 0 282.5 86.989688">
<defs>
<clipPath id="clip_15">
<path transform="matrix(1,0,0,-1,-254,573.4321)" d="M254 486.44245H536.5V573.4321H254Z" clip-rule="evenodd"/>
</clipPath>
<clipPath id="clip_16">
<path transform="matrix(1,0,0,-1,-254,573.4321)" d="M0 0H792V603.4286H0Z"/>
</clipPath>
<clipPath id="clip_17">
<path transform="matrix(1,0,0,-1,-254,573.4321)" d="M0 0H792V603.4286H0Z"/>
</clipPath>
<clipPath id="clip_18">
<path transform="matrix(1,0,0,-1,-254,573.4321)" d="M0 0H792V603.4286H0Z"/>
</clipPath>
<clipPath id="clip_19">
<path transform="matrix(1,0,0,-1,-254,573.4321)" d="M0 0H792V603.4286H0Z"/>
</clipPath>
<clipPath id="clip_20">
<path transform="matrix(1,0,0,-1,-254,573.4321)" d="M0 0H792V603.4286H0Z"/>
</clipPath>
<clipPath id="clip_21">
<path transform="matrix(1,0,0,-1,-254,573.4321)" d="M0 0H792V603.4286H0Z"/>
</clipPath>
<clipPath id="clip_22">
<path transform="matrix(1,0,0,-1,-254,573.4321)" d="M0 0H792V603.4286H0Z"/>
</clipPath>
<clipPath id="clip_23">
<path transform="matrix(1,0,0,-1,-254,573.4321)" d="M0 0H792V603.4286H0Z"/>
</clipPath>
<clipPath id="clip_24">
<path transform="matrix(1,0,0,-1,-254,573.4321)" d="M282.0607 520.1629C281.8368 519.9267 281.4638 519.9167 281.2276 520.1405 280.9914 520.3644 280.9814 520.7374 281.2052 520.9736L310.6902 552.0868C310.914 552.323 311.287 552.333 311.5232 552.1092 311.7595 551.8853 311.7695 551.5123 311.5456 551.2761Z"/>
</clipPath>
<clipPath id="clip_25">
<path transform="matrix(1,0,0,-1,-254,573.4321)" d="M0 0H792V603.4286H0Z"/>
</clipPath>
<clipPath id="clip_26">
<path transform="matrix(1,0,0,-1,-254,573.4321)" d="M459.2068 507.9324C459.143 507.6133 458.8326 507.4064 458.5134 507.4702 458.1943 507.534 457.9873 507.8445 458.0512 508.1636L464.1566 538.6892C464.2204 539.0083 464.5309 539.2153 464.85 539.1514 465.1692 539.0876 465.3761 538.7772 465.3123 538.458Z"/>
</clipPath>
<clipPath id="clip_27">
<path transform="matrix(1,0,0,-1,-254,573.4321)" d="M0 0H792V603.4286H0Z"/>
</clipPath>
<clipPath id="clip_28">
<path transform="matrix(1,0,0,-1,-254,573.4321)" d="M0 0H792V603.4286H0Z"/>
</clipPath>
</defs>
<g clip-path="url(#clip_15)">
<g clip-path="url(#clip_16)">
<g clip-path="url(#clip_17)">
<text xml:space="preserve" transform="matrix(10.85904 0 -0 10.85904 114.723697 31.014832)" font-size="1" font-family="cmr10"><tspan y="-.906" x="0">c</tspan></text>
<text xml:space="preserve" transform="matrix(10.85904 0 -0 10.85904 119.54999 31.014832)" font-size="1" font-family="cmr10"><tspan y="-.906" x="0">u</tspan></text>
<text xml:space="preserve" transform="matrix(10.85904 0 -0 10.85904 125.582798 31.014832)" font-size="1" font-family="cmr10"><tspan y="-.906" x="0">t</tspan></text>
<text xml:space="preserve" transform="matrix(10.85904 0 -0 10.85904 129.8057 31.014832)" font-size="1" font-family="cmr10"><tspan y="-.906" x="0">-</tspan></text>
<text xml:space="preserve" transform="matrix(10.85904 0 -0 10.85904 133.42542 31.014832)" font-size="1" font-family="cmr10"><tspan y="-.906" x="0">p</tspan></text>
<text xml:space="preserve" transform="matrix(10.85904 0 -0 10.85904 139.45832 31.014832)" font-size="1" font-family="cmr10"><tspan y="-.906" x="0">a</tspan></text>
<text xml:space="preserve" transform="matrix(10.85904 0 -0 10.85904 144.88779 31.014832)" font-size="1" font-family="cmr10"><tspan y="-.906" x="0">s</tspan></text>
<text xml:space="preserve" transform="matrix(10.85904 0 -0 10.85904 149.17111 31.014832)" font-size="1" font-family="cmr10"><tspan y="-.906" x="0">t</tspan></text>
<text xml:space="preserve" transform="matrix(10.85904 0 -0 10.85904 153.3941 31.014832)" font-size="1" font-family="cmr10"><tspan y="-.906" x="0">e</tspan></text>
<g clip-path="url(#clip_18)">
<path transform="matrix(1,0,0,-1,-254,573.4321)" d="M291.3033 566.9143 276.057 490.6871 349.1736 520.9603ZM291.2885 567.9294 350.1851 521.1604C350.4197 520.9741 350.3678 520.6043 350.0911 520.4897L275.6778 489.6797C275.3876 489.5595 275.0807 489.8117 275.1423 490.1197L290.659 567.6988C290.7166 567.9868 291.0584 568.1121 291.2885 567.9294"/>
</g>
<g clip-path="url(#clip_19)">
<path transform="matrix(1,0,0,-1,-254,573.4321)" d="M289.6552 566.2328C288.8881 566.9999 288.8881 568.2436 289.6552 569.0107 290.4223 569.7778 291.666 569.7778 292.4331 569.0107 293.2002 568.2436 293.2002 566.9999 292.4331 566.2328 291.666 565.4657 290.4223 565.4657 289.6552 566.2328M274.1385 488.6537C273.3714 489.4208 273.3714 490.6645 274.1385 491.4316 274.9056 492.1987 276.1494 492.1987 276.9165 491.4316 277.6836 490.6645 277.6836 489.4208 276.9165 488.6537 276.1494 487.8866 274.9056 487.8866 274.1385 488.6537M348.5518 519.4637C347.7847 520.2308 347.7847 521.4746 348.5518 522.2417 349.3189 523.0088 350.5626 523.0088 351.3297 522.2417 352.0968 521.4746 352.0968 520.2308 351.3297 519.4637 350.5626 518.6966 349.3189 518.6966 348.5518 519.4637M457.24 506.6591C456.4729 507.4262 456.4729 508.6699 457.24 509.437 458.0071 510.2041 459.2509 510.2041 460.018 509.437 460.7851 508.6699 460.7851 507.4262 460.018 506.6591 459.2509 505.892 458.0071 505.892 457.24 506.6591M531.6533 537.4691C530.8862 538.2362 530.8862 539.4799 531.6533 540.247 532.4204 541.0141 533.6641 541.0141 534.4312 540.247 535.1983 539.4799 535.1983 538.2362 534.4312 537.4691 533.6641 536.702 532.4204 536.702 531.6533 537.4691" fill="#648fff"/>
</g>
<g clip-path="url(#clip_20)">
<path transform="matrix(1,0,0,-1,-254,573.4321)" d="M303.861 500.96C303.0939 501.7271 303.0939 502.9708 303.861 503.7379 304.6281 504.505 305.8718 504.505 306.6389 503.7379 307.406 502.9708 307.406 501.7271 306.6389 500.96 305.8718 500.1929 304.6281 500.1929 303.861 500.96M486.9625 518.9653C486.1954 519.7324 486.1954 520.9761 486.9625 521.7432 487.7296 522.5103 488.9733 522.5103 489.7404 521.7432 490.5075 520.9761 490.5075 519.7324 489.7404 518.9653 488.9733 518.1982 487.7296 518.1982 486.9625 518.9653" fill="#ffb000"/>
<path transform="matrix(1,0,0,-1,-254,573.4321)" d="M309.7289 550.2925C308.9618 551.0596 308.9618 552.3033 309.7289 553.0704 310.496 553.8375 311.7398 553.8375 312.5069 553.0704 313.274 552.3033 313.274 551.0596 312.5069 550.2925 311.7398 549.5254 310.496 549.5254 309.7289 550.2925M492.8304 568.2978C492.0633 569.0649 492.0633 570.3087 492.8304 571.0758 493.5975 571.8429 494.8413 571.8429 495.6084 571.0758 496.3755 570.3087 496.3755 569.0649 495.6084 568.2978 494.8413 567.5307 493.5975 567.5307 492.8304 568.2978" fill="#dc267f"/>
<path transform="matrix(1,0,0,-1,-254,573.4321)" d="M280.244 519.1793C279.4769 519.9464 279.4769 521.1901 280.244 521.9572 281.0111 522.7243 282.2548 522.7243 283.0219 521.9572 283.789 521.1901 283.789 519.9464 283.0219 519.1793 282.2548 518.4122 281.0111 518.4122 280.244 519.1793" fill="#19b091"/>
<path transform="matrix(1,0,0,-1,-254,573.4321)" d="M463.3455 537.1846C462.5784 537.9517 462.5784 539.1955 463.3455 539.9626 464.1126 540.7297 465.3563 540.7297 466.1234 539.9626 466.8905 539.1955 466.8905 537.9517 466.1234 537.1846 465.3563 536.4175 464.1126 536.4175 463.3455 537.1846" fill="#19b091"/>
</g>
<g clip-path="url(#clip_21)">
<path transform="matrix(1,0,0,-1,-254,573.4321)" d="M445.8915 518.1189C445.7422 517.9614 445.4936 517.9548 445.3361 518.104 445.1786 518.2532 445.1719 518.5019 445.3212 518.6594L493.9342 569.957C494.0835 570.1145 494.3321 570.1212 494.4896 569.9719 494.6471 569.8227 494.6538 569.574 494.5045 569.4166ZM445.362 518.0815C445.1921 518.2164 445.1637 518.4635 445.2987 518.6335 445.4336 518.8034 445.6807 518.8317 445.8506 518.6968L458.8733 508.3557C459.0432 508.2208 459.0716 507.9736 458.9366 507.8037 458.8017 507.6338 458.5546 507.6054 458.3847 507.7404ZM493.9751 569.3791C493.8052 569.5141 493.7768 569.7612 493.9117 569.9311 494.0467 570.101 494.2938 570.1294 494.4637 569.9944L533.2866 539.1657C533.4565 539.0308 533.4849 538.7836 533.3499 538.6137 533.215 538.4438 532.9679 538.4155 532.798 538.5504ZM458.7793 507.685C458.5788 507.602 458.349 507.6973 458.266 507.8977 458.183 508.0982 458.2782 508.328 458.4787 508.411L532.892 539.221C533.0925 539.304 533.3223 539.2088 533.4053 539.0083 533.4883 538.8079 533.393 538.5781 533.1926 538.4951ZM383.9585 540.3316C383.7415 540.3316 383.5656 540.5074 383.5656 540.7244 383.5656 540.9414 383.7415 541.1173 383.9585 541.1173H406.595C406.8119 541.1173 406.9878 540.9414 406.9878 540.7244 406.9878 540.5074 406.8119 540.3316 406.595 540.3316ZM406.595 544.2335 414.6658 540.7244 406.595 537.2154ZM398.1317 541.1173C398.3487 541.1173 398.5246 540.9414 398.5246 540.7244 398.5246 540.5074 398.3487 540.3316 398.1317 540.3316H375.1262C374.9093 540.3316 374.7334 540.5074 374.7334 540.7244 374.7334 540.9414 374.9093 541.1173 375.1262 541.1173ZM375.1262 537.2154 367.0554 540.7244 375.1262 544.2335Z"/>
</g>
<g clip-path="url(#clip_22)">
<path transform="matrix(1,0,0,-1,-254,573.4321)" d="M444.2174 517.0002C443.4503 517.7673 443.4503 519.011 444.2174 519.7781 444.9845 520.5452 446.2282 520.5452 446.9953 519.7781 447.7624 519.011 447.7624 517.7673 446.9953 517.0002 446.2282 516.2331 444.9845 516.2331 444.2174 517.0002M492.8304 568.2978C492.0633 569.0649 492.0633 570.3087 492.8304 571.0758 493.5975 571.8429 494.8413 571.8429 495.6084 571.0758 496.3755 570.3087 496.3755 569.0649 495.6084 568.2978 494.8413 567.5307 493.5975 567.5307 492.8304 568.2978" fill="#dc267f"/>
<path transform="matrix(1,0,0,-1,-254,573.4321)" d="M457.24 506.6591C456.4729 507.4262 456.4729 508.6699 457.24 509.437 458.0071 510.2041 459.2509 510.2041 460.018 509.437 460.7851 508.6699 460.7851 507.4262 460.018 506.6591 459.2509 505.892 458.0071 505.892 457.24 506.6591" fill="#648fff"/>
<path transform="matrix(1,0,0,-1,-254,573.4321)" d="M531.6533 537.4691C530.8862 538.2362 530.8862 539.4799 531.6533 540.247 532.4204 541.0141 533.6641 541.0141 534.4312 540.247 535.1983 539.4799 535.1983 538.2362 534.4312 537.4691 533.6641 536.702 532.4204 536.702 531.6533 537.4691" fill="#648fff"/>
</g>
<g clip-path="url(#clip_23)">
<path transform="matrix(1,0,0,-1,-254,573.4321)" d="M463.3455 537.1846C462.5784 537.9517 462.5784 539.1955 463.3455 539.9626 464.1126 540.7297 465.3563 540.7297 466.1234 539.9626 466.8905 539.1955 466.8905 537.9517 466.1234 537.1846 465.3563 536.4175 464.1126 536.4175 463.3455 537.1846" fill="#19b091"/>
<path transform="matrix(1,0,0,-1,-254,573.4321)" d="M486.9625 518.9653C486.1954 519.7324 486.1954 520.9761 486.9625 521.7432 487.7296 522.5103 488.9733 522.5103 489.7404 521.7432 490.5075 520.9761 490.5075 519.7324 489.7404 518.9653 488.9733 518.1982 487.7296 518.1982 486.9625 518.9653" fill="#ffb000"/>
</g>
<g clip-path="url(#clip_24)">
<g clip-path="url(#clip_25)">
<path transform="matrix(1,0,0,-1,-254,573.4321)" d="M282.0607 520.1629 282.0615 520.1638C282.2854 520.4 282.2753 520.773 282.0391 520.9969 281.8029 521.2207 281.4299 521.2107 281.206 520.9745L281.2052 520.9736C280.9814 520.7374 280.9914 520.3644 281.2276 520.1405 281.4638 519.9167 281.8368 519.9267 282.0607 520.1629M283.6987 521.8914 283.6995 521.8922C283.9234 522.1285 283.9134 522.5015 283.6771 522.7253 283.4409 522.9492 283.0679 522.9392 282.8441 522.7029L282.8432 522.7021C282.6194 522.4658 282.6294 522.0929 282.8656 521.869 283.1018 521.6451 283.4748 521.6552 283.6987 521.8914M285.3367 523.6198 285.3375 523.6207C285.5614 523.8569 285.5514 524.2299 285.3151 524.4538 285.0789 524.6776 284.7059 524.6676 284.4821 524.4314L284.4812 524.4305C284.2574 524.1943 284.2674 523.8213 284.5036 523.5975 284.7399 523.3736 285.1128 523.3836 285.3367 523.6198M286.9747 525.3483 286.9755 525.3492C287.1994 525.5854 287.1894 525.9584 286.9531 526.1822 286.7169 526.4061 286.3439 526.3961 286.1201 526.1599L286.1192 526.159C285.8954 525.9228 285.9054 525.5498 286.1416 525.3259 286.3779 525.1021 286.7508 525.1121 286.9747 525.3483M288.6127 527.0768 288.6135 527.0776C288.8374 527.3139 288.8274 527.6868 288.5911 527.9107 288.3549 528.1346 287.9819 528.1246 287.7581 527.8883L287.7573 527.8875C287.5334 527.6512 287.5434 527.2782 287.7796 527.0544 288.0159 526.8305 288.3888 526.8405 288.6127 527.0768M290.2507 528.8052 290.2515 528.8061C290.4754 529.0423 290.4654 529.4153 290.2292 529.6392 289.9929 529.863 289.6199 529.853 289.3961 529.6168L289.3953 529.6159C289.1714 529.3797 289.1814 529.0067 289.4176 528.7828 289.6539 528.559 290.0269 528.569 290.2507 528.8052M291.8887 530.5337 291.8895 530.5346C292.1134 530.7708 292.1034 531.1438 291.8672 531.3676 291.6309 531.5915 291.258 531.5815 291.0341 531.3452L291.0333 531.3444C290.8094 531.1082 290.8194 530.7352 291.0557 530.5113 291.2919 530.2874 291.6649 530.2975 291.8887 530.5337M293.5267 532.2622 293.5276 532.263C293.7514 532.4992 293.7414 532.8722 293.5052 533.0961 293.2689 533.32 292.896 533.3099 292.6721 533.0737L292.6713 533.0728C292.4474 532.8366 292.4574 532.4636 292.6937 532.2398 292.9299 532.0159 293.3029 532.0259 293.5267 532.2622M295.1647 533.9906 295.1656 533.9915C295.3894 534.2277 295.3794 534.6007 295.1432 534.8246 294.9069 535.0484 294.534 535.0384 294.3101 534.8022L294.3093 534.8013C294.0854 534.5651 294.0954 534.1921 294.3317 533.9682 294.5679 533.7444 294.9409 533.7544 295.1647 533.9906M296.8027 535.7191 296.8036 535.7199C297.0274 535.9562 297.0174 536.3292 296.7812 536.553 296.545 536.7769 296.172 536.7669 295.9481 536.5306L295.9473 536.5298C295.7234 536.2935 295.7334 535.9206 295.9697 535.6967 296.2059 535.4728 296.5789 535.4829 296.8027 535.7191M298.4408 537.4475 298.4416 537.4484C298.6654 537.6846 298.6554 538.0576 298.4192 538.2815 298.183 538.5053 297.81 538.4953 297.5861 538.2591L297.5853 538.2582C297.3614 538.022 297.3714 537.649 297.6077 537.4252 297.8439 537.2013 298.2169 537.2113 298.4408 537.4475M300.0788 539.176 300.0796 539.1769C300.3034 539.4131 300.2934 539.7861 300.0572 540.0099 299.821 540.2338 299.448 540.2238 299.2241 539.9876L299.2233 539.9867C298.9994 539.7505 299.0095 539.3775 299.2457 539.1536 299.4819 538.9298 299.8549 538.9398 300.0788 539.176M301.7168 540.9045 301.7176 540.9053C301.9414 541.1416 301.9314 541.5145 301.6952 541.7384 301.459 541.9623 301.086 541.9523 300.8621 541.716L300.8613 541.7152C300.6374 541.4789 300.6475 541.106 300.8837 540.8821 301.1199 540.6582 301.4929 540.6682 301.7168 540.9045M303.3548 542.6329 303.3556 542.6338C303.5795 542.87 303.5694 543.243 303.3332 543.4669 303.097 543.6907 302.724 543.6807 302.5001 543.4445L302.4993 543.4436C302.2754 543.2074 302.2855 542.8344 302.5217 542.6105 302.7579 542.3867 303.1309 542.3967 303.3548 542.6329M304.9928 544.3614 304.9936 544.3623C305.2175 544.5985 305.2074 544.9715 304.9712 545.1953 304.735 545.4192 304.362 545.4092 304.1381 545.1729L304.1373 545.1721C303.9135 544.9359 303.9235 544.5629 304.1597 544.339 304.3959 544.1151 304.7689 544.1252 304.9928 544.3614M306.6308 546.0899 306.6316 546.0907C306.8555 546.3269 306.8454 546.6999 306.6092 546.9238 306.373 547.1477 306 547.1376 305.7761 546.9014L305.7753 546.9005C305.5515 546.6643 305.5615 546.2913 305.7977 546.0675 306.0339 545.8436 306.4069 545.8536 306.6308 546.0899M308.2688 547.8183 308.2696 547.8192C308.4935 548.0554 308.4835 548.4284 308.2472 548.6523 308.011 548.8761 307.638 548.8661 307.4142 548.6299L307.4133 548.629C307.1895 548.3928 307.1995 548.0198 307.4357 547.7959 307.6719 547.5721 308.0449 547.5821 308.2688 547.8183M309.9068 549.5468 309.9076 549.5476C310.1315 549.7839 310.1215 550.1569 309.8852 550.3807 309.649 550.6046 309.276 550.5946 309.0522 550.3583L309.0513 550.3575C308.8275 550.1212 308.8375 549.7483 309.0737 549.5244 309.31 549.3005 309.6829 549.3106 309.9068 549.5468M311.5448 551.2752 311.5456 551.2761C311.7695 551.5123 311.7595 551.8853 311.5232 552.1092 311.287 552.333 310.914 552.323 310.6902 552.0868L310.6893 552.0859C310.4655 551.8497 310.4755 551.4767 310.7117 551.2529 310.948 551.029 311.3209 551.039 311.5448 551.2752"/>
</g>
</g>
<g clip-path="url(#clip_26)">
<g clip-path="url(#clip_27)">
<path transform="matrix(1,0,0,-1,-254,573.4321)" d="M459.2068 507.9324 459.2071 507.9336C459.2709 508.2528 459.0639 508.5632 458.7448 508.627 458.4257 508.6909 458.1152 508.4839 458.0514 508.1648L458.0512 508.1636C457.9873 507.8445 458.1943 507.534 458.5134 507.4702 458.8326 507.4064 459.143 507.6133 459.2068 507.9324M459.6765 510.2805 459.6767 510.2817C459.7405 510.6008 459.5336 510.9112 459.2144 510.9751 458.8953 511.0389 458.5849 510.8319 458.521 510.5128L458.5208 510.5116C458.457 510.1925 458.6639 509.882 458.9831 509.8182 459.3022 509.7544 459.6126 509.9613 459.6765 510.2805M460.1461 512.6285 460.1463 512.6297C460.2102 512.9488 460.0032 513.2593 459.6841 513.3231 459.3649 513.3869 459.0545 513.18 458.9907 512.8608L458.9904 512.8597C458.9266 512.5405 459.1336 512.2301 459.4527 512.1662 459.7718 512.1024 460.0823 512.3094 460.1461 512.6285M460.6157 514.9765 460.616 514.9777C460.6798 515.2968 460.4728 515.6073 460.1537 515.6711 459.8346 515.735 459.5241 515.528 459.4603 515.2089L459.4601 515.2077C459.3962 514.8886 459.6032 514.5781 459.9223 514.5143 460.2415 514.4504 460.5519 514.6574 460.6157 514.9765M461.0854 517.3246 461.0856 517.3257C461.1494 517.6449 460.9425 517.9553 460.6233 518.0192 460.3042 518.083 459.9937 517.876 459.9299 517.5569L459.9297 517.5557C459.8659 517.2366 460.0728 516.9261 460.392 516.8623 460.7111 516.7985 461.0215 517.0054 461.0854 517.3246M461.555 519.6726 461.5552 519.6738C461.6191 519.9929 461.4121 520.3034 461.093 520.3672 460.7738 520.431 460.4634 520.2241 460.3996 519.9049L460.3993 519.9038C460.3355 519.5846 460.5425 519.2742 460.8616 519.2103 461.1807 519.1465 461.4912 519.3535 461.555 519.6726M462.0246 522.0206 462.0249 522.0218C462.0887 522.3409 461.8817 522.6514 461.5626 522.7152 461.2435 522.7791 460.933 522.5721 460.8692 522.253L460.869 522.2518C460.8051 521.9327 461.0121 521.6222 461.3312 521.5584 461.6503 521.4945 461.9608 521.7015 462.0246 522.0206M462.4943 524.3687 462.4945 524.3698C462.5583 524.689 462.3514 524.9994 462.0322 525.0633 461.7131 525.1271 461.4026 524.9201 461.3388 524.601L461.3386 524.5998C461.2748 524.2807 461.4817 523.9702 461.8008 523.9064 462.12 523.8426 462.4304 524.0495 462.4943 524.3687M462.9639 526.7167 462.9641 526.7179C463.028 527.037 462.821 527.3475 462.5019 527.4113 462.1827 527.4751 461.8723 527.2682 461.8085 526.949L461.8082 526.9478C461.7444 526.6287 461.9513 526.3183 462.2705 526.2544 462.5896 526.1906 462.9001 526.3976 462.9639 526.7167M463.4335 529.0647 463.4338 529.0659C463.4976 529.385 463.2906 529.6955 462.9715 529.7593 462.6524 529.8231 462.3419 529.6162 462.2781 529.2971L462.2778 529.2959C462.214 528.9767 462.421 528.6663 462.7401 528.6025 463.0592 528.5386 463.3697 528.7456 463.4335 529.0647M463.9032 531.4128 463.9034 531.4139C463.9672 531.7331 463.7603 532.0435 463.4411 532.1073 463.122 532.1712 462.8115 531.9642 462.7477 531.6451L462.7475 531.6439C462.6837 531.3248 462.8906 531.0143 463.2097 530.9505 463.5289 530.8867 463.8393 531.0936 463.9032 531.4128M464.3728 533.7608 464.373 533.762C464.4369 534.0811 464.2299 534.3916 463.9108 534.4554 463.5916 534.5192 463.2812 534.3122 463.2173 533.9931L463.2171 533.9919C463.1533 533.6728 463.3602 533.3624 463.6794 533.2985 463.9985 533.2347 464.309 533.4417 464.3728 533.7608M464.8424 536.1088 464.8427 536.11C464.9065 536.4291 464.6995 536.7396 464.3804 536.8034 464.0613 536.8672 463.7508 536.6603 463.687 536.3411L463.6867 536.34C463.6229 536.0208 463.8299 535.7104 464.149 535.6466 464.4681 535.5827 464.7786 535.7897 464.8424 536.1088M465.3121 538.4569 465.3123 538.458C465.3761 538.7772 465.1692 539.0876 464.85 539.1514 464.5309 539.2153 464.2204 539.0083 464.1566 538.6892L464.1564 538.688C464.0926 538.3689 464.2995 538.0584 464.6186 537.9946 464.9378 537.9308 465.2482 538.1377 465.3121 538.4569"/>
</g>
</g>
<g clip-path="url(#clip_28)">
<path transform="matrix(1,0,0,-1,-254,573.4321)" d="M286.6673 546.8184C286.8812 546.8546 287.084 546.7105 287.1201 546.4965 287.1563 546.2826 287.0122 546.0799 286.7982 546.0437 252.165 540.1902 247.497 529.0415 272.4091 512.0164 272.5882 511.894 272.6342 511.6496 272.5118 511.4704 272.3894 511.2913 272.1449 511.2453 271.9658 511.3677 246.3854 528.8495 251.4143 540.8601 286.6673 546.8184M274.0787 514.6479 278.9879 507.3437 270.2979 508.7352ZM454.1312 527.8748C454.2018 527.6696 454.0926 527.4461 453.8875 527.3755 453.6823 527.305 453.4587 527.4141 453.3882 527.6193 445.1899 551.4571 451.3501 561.2906 471.7103 556.6449 471.9218 556.5966 472.0542 556.386 472.0059 556.1745 471.9576 555.9629 471.747 555.8306 471.5355 555.8789 451.8605 560.3683 446.112 551.1919 454.1312 527.8748M472.5955 559.6334 479.3807 554.0286 470.6541 552.8892Z" fill="#969696"/>
</g>
</g>
</g>
</g>
</svg>
