<svg xmlns="http://www.w3.org/2000/svg" xmlns:xlink="http://www.w3.org/1999/xlink" xmlns:inkscape="http://www.inkscape.org/namespaces/inkscape" version="1.1" width="199" height="165.94837" viewBox="0 0 199 165.94837">
<defs>
<clipPath id="clip_0">
<path transform="matrix(1,0,0,-1,-48,680.28829)" d="M48 514.3399H247V680.28829H48Z" clip-rule="evenodd"/>
</clipPath>
<clipPath id="clip_1">
<path transform="matrix(1,0,0,-1,-48,680.28829)" d="M0 0H612V803.25H0Z"/>
</clipPath>
<clipPath id="clip_2">
<path transform="matrix(1,0,0,-1,-48,680.28829)" d="M0 0H612V803.25H0Z"/>
</clipPath>
<clipPath id="clip_3">
<path transform="matrix(1,0,0,-1,-48,680.28829)" d="M0 0H612V803.25H0Z"/>
</clipPath>
<clipPath id="clip_4">
<path transform="matrix(1,0,0,-1,-48,680.28829)" d="M0 0H612V803.25H0Z"/>
</clipPath>
<clipPath id="clip_5">
<path transform="matrix(1,0,0,-1,-48,680.28829)" d="M0 0H612V803.25H0Z"/>
</clipPath>
<clipPath id="clip_6">
<path transform="matrix(1,0,0,-1,-48,680.28829)" d="M241.7128 676.3051C242.052 676.5855 242.5543 676.5378 242.8347 676.1985 243.115 675.8593 243.0673 675.357 242.7281 675.0766L53.33077 518.5398C52.99153 518.2594 52.48924 518.3071 52.20887 518.6463 51.92849 518.9856 51.9762 519.4879 52.31543 519.7682Z"/>
</clipPath>
<clipPath id="clip_7">
<path transform="matrix(1,0,0,-1,-48,680.28829)" d="M0 0H612V803.25H0Z"/>
</clipPath>
<clipPath id="clip_8">
<path transform="matrix(1,0,0,-1,-48,680.28829)" d="M241.5574 676.1329C241.8015 676.4991 242.2963 676.598 242.6625 676.3539 243.0287 676.1098 243.1276 675.615 242.8835 675.2488L138.5256 518.712C138.2814 518.3458 137.7867 518.2468 137.4205 518.491 137.0543 518.7351 136.9554 519.2298 137.1995 519.596Z"/>
</clipPath>
<clipPath id="clip_9">
<path transform="matrix(1,0,0,-1,-48,680.28829)" d="M0 0H612V803.25H0Z"/>
</clipPath>
<clipPath id="clip_10">
<path transform="matrix(1,0,0,-1,-48,680.28829)" d="M0 0H612V803.25H0Z"/>
</clipPath>
<clipPath id="clip_11">
<path transform="matrix(1,0,0,-1,-48,680.28829)" d="M0 0H612V803.25H0Z"/>
</clipPath>
<clipPath id="clip_12">
<path transform="matrix(1,0,0,-1,-48,680.28829)" d="M0 0H612V803.25H0Z"/>
</clipPath>
<clipPath id="clip_13">
<path transform="matrix(1,0,0,-1,-48,680.28829)" d="M0 0H612V803.25H0Z"/>
</clipPath>
</defs>
<g clip-path="url(#clip_0)">
<g clip-path="url(#clip_1)">
<g clip-path="url(#clip_2)">
<g clip-path="url(#clip_3)">
<path transform="matrix(1,0,0,-1,-48,680.28829)" d="M108.853 604.6354C109.0971 605.0016 109.5919 605.1006 109.9581 604.8564 110.3243 604.6123 110.4232 604.1176 110.1791 603.7514L53.48614 518.712C53.24202 518.3458 52.74726 518.2468 52.38107 518.491 52.01489 518.7351 51.91594 519.2298 52.16006 519.596ZM108.7601 603.9414C108.6209 604.3589 108.8465 604.8102 109.2641 604.9494 109.6816 605.0886 110.1329 604.8629 110.272 604.4454L138.6185 519.406C138.7577 518.9885 138.532 518.5372 138.1145 518.398 137.697 518.2588 137.2457 518.4845 137.1065 518.902Z" fill="#c7c3bd"/>
</g>
<g clip-path="url(#clip_4)">
<path transform="matrix(1,0,0,-1,-48,680.28829)" d="M52.8231 518.3571C52.383 518.3571 52.02623 518.7139 52.02623 519.154 52.02623 519.5941 52.383 519.9509 52.8231 519.9509H137.8625C138.3026 519.9509 138.6594 519.5941 138.6594 519.154 138.6594 518.7139 138.3026 518.3571 137.8625 518.3571Z"/>
<path transform="matrix(1,0,0,-1,-48,680.28829)" d="M117.3753 572.1387C116.2048 573.3091 116.2048 575.2068 117.3753 576.3772 118.5457 577.5476 120.4434 577.5476 121.6138 576.3772 122.7843 575.2068 122.7843 573.3091 121.6138 572.1387 120.4434 570.9682 118.5457 570.9682 117.3753 572.1387" fill="#dc267f"/>
<path transform="matrix(1,0,0,-1,-48,680.28829)" d="M91.71252 578.5478C90.54208 579.7182 90.54208 581.6159 91.71252 582.7863 92.88296 583.9567 94.78062 583.9567 95.95106 582.7863 97.12151 581.6159 97.12151 579.7182 95.95106 578.5478 94.78062 577.3773 92.88296 577.3773 91.71252 578.5478" fill="#19b091"/>
<path transform="matrix(1,0,0,-1,-48,680.28829)" d="M107.3968 602.0741C106.2263 603.2446 106.2263 605.1422 107.3968 606.3127 108.5672 607.4831 110.4649 607.4831 111.6353 606.3127 112.8058 605.1422 112.8058 603.2446 111.6353 602.0741 110.4649 600.9037 108.5672 600.9037 107.3968 602.0741M107.3968 602.0741C106.2263 603.2446 106.2263 605.1422 107.3968 606.3127 108.5672 607.4831 110.4649 607.4831 111.6353 606.3127 112.8058 605.1422 112.8058 603.2446 111.6353 602.0741 110.4649 600.9037 108.5672 600.9037 107.3968 602.0741" fill="#648fff"/>
</g>
<g clip-path="url(#clip_5)">
<path transform="matrix(1,0,0,-1,-48,680.28829)" d="M103.7361 517.0347C102.5657 518.2052 102.5657 520.1028 103.7361 521.2733 104.9065 522.4437 106.8042 522.4437 107.9746 521.2733 109.1451 520.1028 109.1451 518.2052 107.9746 517.0347 106.8042 515.8643 104.9065 515.8643 103.7361 517.0347M103.7361 517.0347C102.5657 518.2052 102.5657 520.1028 103.7361 521.2733 104.9065 522.4437 106.8042 522.4437 107.9746 521.2733 109.1451 520.1028 109.1451 518.2052 107.9746 517.0347 106.8042 515.8643 104.9065 515.8643 103.7361 517.0347" fill="#ffb000"/>
<path transform="matrix(1,0,0,-1,-48,680.28829)" d="M135.7432 517.0347C134.5728 518.2052 134.5728 520.1028 135.7432 521.2733 136.9137 522.4437 138.8113 522.4437 139.9818 521.2733 141.1522 520.1028 141.1522 518.2052 139.9818 517.0347 138.8113 515.8643 136.9137 515.8643 135.7432 517.0347" fill="#648fff"/>
<path transform="matrix(1,0,0,-1,-48,680.28829)" d="M50.70383 517.0347C49.53339 518.2052 49.53339 520.1028 50.70383 521.2733 51.87427 522.4437 53.77193 522.4437 54.94237 521.2733 56.11282 520.1028 56.11282 518.2052 54.94237 517.0347 53.77193 515.8643 51.87427 515.8643 50.70383 517.0347" fill="#648fff"/>
</g>
<g clip-path="url(#clip_6)">
<g clip-path="url(#clip_7)">
<path transform="matrix(1,0,0,-1,-48,680.28829)" d="M241.7128 676.3051 241.7115 676.3041C241.3723 676.0237 241.3246 675.5214 241.605 675.1822 241.8853 674.843 242.3876 674.7952 242.7269 675.0756L242.7281 675.0766C243.0673 675.357 243.115 675.8593 242.8347 676.1985 242.5543 676.5378 242.052 676.5855 241.7128 676.3051M239.2531 674.2722 239.2519 674.2712C238.9126 673.9908 238.8649 673.4885 239.1453 673.1493 239.4257 672.81 239.928 672.7623 240.2672 673.0427L240.2684 673.0437C240.6076 673.3241 240.6554 673.8264 240.375 674.1656 240.0946 674.5048 239.5923 674.5526 239.2531 674.2722M236.7934 672.2392 236.7922 672.2382C236.4529 671.9579 236.4052 671.4556 236.6856 671.1163 236.966 670.7771 237.4683 670.7294 237.8075 671.0098L237.8087 671.0108C238.148 671.2911 238.1957 671.7934 237.9153 672.1327 237.6349 672.4719 237.1326 672.5196 236.7934 672.2392M234.3337 670.2063 234.3325 670.2053C233.9932 669.9249 233.9455 669.4226 234.2259 669.0834 234.5063 668.7442 235.0086 668.6964 235.3478 668.9768L235.349 668.9778C235.6883 669.2582 235.736 669.7605 235.4556 670.0997 235.1752 670.439 234.6729 670.4867 234.3337 670.2063M231.874 668.1734 231.8728 668.1724C231.5336 667.892 231.4858 667.3897 231.7662 667.0505 232.0466 666.7112 232.5489 666.6635 232.8881 666.9439L232.8893 666.9449C233.2286 667.2253 233.2763 667.7276 232.9959 668.0668 232.7155 668.406 232.2132 668.4538 231.874 668.1734M229.4143 666.1404 229.4131 666.1394C229.0739 665.8591 229.0261 665.3568 229.3065 665.0175 229.5869 664.6783 230.0892 664.6306 230.4284 664.911L230.4297 664.912C230.7689 665.1923 230.8166 665.6946 230.5362 666.0339 230.2558 666.3731 229.7536 666.4208 229.4143 666.1404M226.9546 664.1075 226.9534 664.1065C226.6142 663.8261 226.5665 663.3238 226.8468 662.9846 227.1272 662.6454 227.6295 662.5976 227.9687 662.878L227.97 662.879C228.3092 663.1594 228.3569 663.6617 228.0765 664.0009 227.7962 664.3402 227.2939 664.3879 226.9546 664.1075M224.4949 662.0746 224.4937 662.0736C224.1545 661.7932 224.1068 661.2909 224.3871 660.9517 224.6675 660.6124 225.1698 660.5647 225.509 660.8451L225.5103 660.8461C225.8495 661.1265 225.8972 661.6288 225.6168 661.968 225.3365 662.3072 224.8342 662.355 224.4949 662.0746M222.0353 660.0416 222.034 660.0406C221.6948 659.7603 221.6471 659.258 221.9275 658.9187 222.2078 658.5795 222.7101 658.5318 223.0494 658.8122L223.0506 658.8132C223.3898 659.0935 223.4375 659.5958 223.1572 659.9351 222.8768 660.2743 222.3745 660.322 222.0353 660.0416M219.5756 658.0087 219.5743 658.0077C219.2351 657.7273 219.1874 657.225 219.4678 656.8858 219.7481 656.5466 220.2504 656.4988 220.5897 656.7792L220.5909 656.7802C220.9301 657.0606 220.9778 657.5629 220.6975 657.9021 220.4171 658.2414 219.9148 658.2891 219.5756 658.0087M217.1159 655.9758 217.1146 655.9748C216.7754 655.6944 216.7277 655.1921 217.0081 654.8529 217.2885 654.5136 217.7907 654.4659 218.13 654.7463L218.1312 654.7473C218.4704 655.0277 218.5182 655.53 218.2378 655.8692 217.9574 656.2084 217.4551 656.2562 217.1159 655.9758M214.6562 653.9428 214.655 653.9418C214.3157 653.6615 214.268 653.1592 214.5484 652.8199 214.8288 652.4807 215.3311 652.433 215.6703 652.7134L215.6715 652.7144C216.0107 652.9947 216.0585 653.497 215.7781 653.8363 215.4977 654.1755 214.9954 654.2232 214.6562 653.9428M212.1965 651.9099 212.1953 651.9089C211.856 651.6285 211.8083 651.1262 212.0887 650.787 212.3691 650.4478 212.8714 650.4 213.2106 650.6804L213.2118 650.6814C213.5511 650.9618 213.5988 651.4641 213.3184 651.8033 213.038 652.1426 212.5357 652.1903 212.1965 651.9099M209.7368 649.877 209.7356 649.876C209.3963 649.5956 209.3486 649.0933 209.629 648.7541 209.9094 648.4148 210.4117 648.3671 210.7509 648.6475L210.7521 648.6485C211.0914 648.9289 211.1391 649.4312 210.8587 649.7704 210.5783 650.1096 210.076 650.1574 209.7368 649.877M207.2771 647.844 207.2759 647.843C206.9367 647.5627 206.8889 647.0604 207.1693 646.7211 207.4497 646.3819 207.952 646.3342 208.2912 646.6146L208.2924 646.6156C208.6317 646.8959 208.6794 647.3982 208.399 647.7375 208.1186 648.0767 207.6163 648.1244 207.2771 647.844M204.8174 645.8111 204.8162 645.8101C204.477 645.5297 204.4293 645.0274 204.7096 644.6882 204.99 644.349 205.4923 644.3012 205.8315 644.5816L205.8328 644.5826C206.172 644.863 206.2197 645.3653 205.9393 645.7045 205.659 646.0438 205.1567 646.0915 204.8174 645.8111M202.3577 643.7782 202.3565 643.7772C202.0173 643.4968 201.9696 642.9945 202.2499 642.6553 202.5303 642.316 203.0326 642.2683 203.3718 642.5487L203.3731 642.5497C203.7123 642.8301 203.76 643.3324 203.4796 643.6716 203.1993 644.0108 202.697 644.0586 202.3577 643.7782M199.898 641.7452 199.8968 641.7442C199.5576 641.4639 199.5099 640.9616 199.7902 640.6223 200.0706 640.2831 200.5729 640.2354 200.9121 640.5158L200.9134 640.5168C201.2526 640.7971 201.3003 641.2994 201.0199 641.6387 200.7396 641.9779 200.2373 642.0256 199.898 641.7452M197.4384 639.7123 197.4371 639.7113C197.0979 639.4309 197.0502 638.9286 197.3306 638.5894 197.6109 638.2502 198.1132 638.2024 198.4525 638.4828L198.4537 638.4838C198.7929 638.7642 198.8406 639.2665 198.5603 639.6057 198.2799 639.945 197.7776 639.9927 197.4384 639.7123M194.9787 637.6794 194.9774 637.6784C194.6382 637.398 194.5905 636.8957 194.8709 636.5565 195.1512 636.2172 195.6535 636.1695 195.9928 636.4499L195.994 636.4509C196.3332 636.7313 196.3809 637.2336 196.1006 637.5728 195.8202 637.912 195.3179 637.9598 194.9787 637.6794M192.519 635.6464 192.5177 635.6454C192.1785 635.3651 192.1308 634.8628 192.4112 634.5235 192.6916 634.1843 193.1938 634.1366 193.5331 634.417L193.5343 634.418C193.8735 634.6983 193.9213 635.2006 193.6409 635.5399 193.3605 635.8791 192.8582 635.9268 192.519 635.6464M190.0593 633.6135 190.0581 633.6125C189.7188 633.3321 189.6711 632.8298 189.9515 632.4906 190.2319 632.1514 190.7342 632.1036 191.0734 632.384L191.0746 632.385C191.4139 632.6654 191.4616 633.1677 191.1812 633.5069 190.9008 633.8462 190.3985 633.8939 190.0593 633.6135M187.5996 631.5806 187.5984 631.5796C187.2591 631.2992 187.2114 630.7969 187.4918 630.4577 187.7722 630.1184 188.2745 630.0707 188.6137 630.3511L188.6149 630.3521C188.9542 630.6325 189.0019 631.1348 188.7215 631.474 188.4411 631.8132 187.9388 631.861 187.5996 631.5806M185.1399 629.5476 185.1387 629.5466C184.7994 629.2663 184.7517 628.764 185.0321 628.4247 185.3125 628.0855 185.8148 628.0378 186.154 628.3182L186.1552 628.3192C186.4945 628.5995 186.5422 629.1018 186.2618 629.4411 185.9814 629.7803 185.4791 629.828 185.1399 629.5476M182.6802 627.5147 182.679 627.5137C182.3398 627.2333 182.292 626.731 182.5724 626.3918 182.8528 626.0526 183.3551 626.0048 183.6943 626.2852L183.6956 626.2862C184.0348 626.5666 184.0825 627.0689 183.8021 627.4081 183.5217 627.7474 183.0195 627.7951 182.6802 627.5147M180.2205 625.4818 180.2193 625.4808C179.8801 625.2004 179.8324 624.6981 180.1127 624.3589 180.3931 624.0196 180.8954 623.9719 181.2346 624.2523L181.2359 624.2533C181.5751 624.5337 181.6228 625.036 181.3424 625.3752 181.0621 625.7144 180.5598 625.7622 180.2205 625.4818M177.7608 623.4488 177.7596 623.4478C177.4204 623.1675 177.3727 622.6652 177.653 622.3259 177.9334 621.9867 178.4357 621.939 178.7749 622.2194L178.7762 622.2204C179.1154 622.5007 179.1631 623.003 178.8827 623.3423 178.6024 623.6815 178.1001 623.7292 177.7608 623.4488M175.3011 621.4159 175.2999 621.4149C174.9607 621.1345 174.913 620.6322 175.1934 620.293 175.4737 619.9538 175.976 619.906 176.3153 620.1864L176.3165 620.1874C176.6557 620.4678 176.7034 620.9701 176.4231 621.3093 176.1427 621.6486 175.6404 621.6963 175.3011 621.4159M172.8415 619.383 172.8402 619.382C172.501 619.1016 172.4533 618.5993 172.7337 618.2601 173.014 617.9208 173.5163 617.8731 173.8556 618.1535L173.8568 618.1545C174.196 618.4349 174.2437 618.9372 173.9634 619.2764 173.683 619.6156 173.1807 619.6634 172.8415 619.383M170.3818 617.35 170.3805 617.349C170.0413 617.0687 169.9936 616.5664 170.274 616.2271 170.5543 615.8879 171.0566 615.8402 171.3959 616.1206L171.3971 616.1216C171.7363 616.4019 171.784 616.9042 171.5037 617.2435 171.2233 617.5827 170.721 617.6304 170.3818 617.35M167.9221 615.3171 167.9209 615.3161C167.5816 615.0357 167.5339 614.5334 167.8143 614.1942 168.0947 613.855 168.5969 613.8072 168.9362 614.0876L168.9374 614.0886C169.2766 614.369 169.3244 614.8713 169.044 615.2105 168.7636 615.5498 168.2613 615.5975 167.9221 615.3171M165.4624 613.2842 165.4612 613.2832C165.1219 613.0028 165.0742 612.5005 165.3546 612.1613 165.635 611.822 166.1373 611.7743 166.4765 612.0547L166.4777 612.0557C166.817 612.3361 166.8647 612.8384 166.5843 613.1776 166.3039 613.5168 165.8016 613.5646 165.4624 613.2842M163.0027 611.2512 163.0015 611.2502C162.6622 610.9699 162.6145 610.4676 162.8949 610.1283 163.1753 609.7891 163.6776 609.7414 164.0168 610.0218L164.018 610.0228C164.3573 610.3031 164.405 610.8054 164.1246 611.1447 163.8442 611.4839 163.3419 611.5316 163.0027 611.2512M160.543 609.2183 160.5418 609.2173C160.2025 608.9369 160.1548 608.4346 160.4352 608.0954 160.7156 607.7562 161.2179 607.7084 161.5571 607.9888L161.5583 607.9898C161.8976 608.2702 161.9453 608.7725 161.6649 609.1117 161.3845 609.451 160.8822 609.4987 160.543 609.2183M158.0833 607.1854 158.0821 607.1844C157.7429 606.904 157.6951 606.4017 157.9755 606.0625 158.2559 605.7232 158.7582 605.6755 159.0974 605.9559L159.0987 605.9569C159.4379 606.2373 159.4856 606.7396 159.2052 607.0788 158.9248 607.418 158.4226 607.4658 158.0833 607.1854M155.6236 605.1524 155.6224 605.1514C155.2832 604.8711 155.2355 604.3688 155.5158 604.0295 155.7962 603.6903 156.2985 603.6426 156.6377 603.923L156.639 603.924C156.9782 604.2043 157.0259 604.7066 156.7455 605.0459 156.4652 605.3851 155.9629 605.4328 155.6236 605.1524M153.1639 603.1195 153.1627 603.1185C152.8235 602.8381 152.7758 602.3358 153.0561 601.9966 153.3365 601.6574 153.8388 601.6096 154.178 601.89L154.1793 601.891C154.5185 602.1714 154.5662 602.6737 154.2858 603.0129 154.0055 603.3522 153.5032 603.3999 153.1639 603.1195M150.7043 601.0866 150.703 601.0856C150.3638 600.8052 150.3161 600.3029 150.5965 599.9637 150.8768 599.6244 151.3791 599.5767 151.7184 599.8571L151.7196 599.8581C152.0588 600.1385 152.1065 600.6408 151.8262 600.98 151.5458 601.3192 151.0435 601.367 150.7043 601.0866M148.2446 599.0536 148.2433 599.0526C147.9041 598.7723 147.8564 598.27 148.1368 597.9307 148.4171 597.5915 148.9194 597.5438 149.2587 597.8242L149.2599 597.8252C149.5991 598.1055 149.6468 598.6078 149.3665 598.9471 149.0861 599.2863 148.5838 599.334 148.2446 599.0536M145.7849 597.0207 145.7836 597.0197C145.4444 596.7393 145.3967 596.237 145.6771 595.8978 145.9575 595.5586 146.4597 595.5108 146.799 595.7912L146.8002 595.7922C147.1394 596.0726 147.1872 596.5749 146.9068 596.9141 146.6264 597.2534 146.1241 597.3011 145.7849 597.0207M143.3252 594.9878 143.324 594.9868C142.9847 594.7064 142.937 594.2041 143.2174 593.8649 143.4978 593.5256 144.0001 593.4779 144.3393 593.7583L144.3405 593.7593C144.6797 594.0397 144.7275 594.542 144.4471 594.8812 144.1667 595.2204 143.6644 595.2682 143.3252 594.9878M140.8655 592.9548 140.8643 592.9538C140.525 592.6735 140.4773 592.1712 140.7577 591.8319 141.0381 591.4927 141.5404 591.445 141.8796 591.7254L141.8808 591.7264C142.2201 592.0068 142.2678 592.509 141.9874 592.8483 141.707 593.1875 141.2047 593.2352 140.8655 592.9548M138.4058 590.9219 138.4046 590.9209C138.0653 590.6405 138.0176 590.1382 138.298 589.799 138.5784 589.4598 139.0807 589.412 139.4199 589.6924L139.4211 589.6934C139.7604 589.9738 139.8081 590.4761 139.5277 590.8153 139.2473 591.1546 138.745 591.2023 138.4058 590.9219M135.9461 588.889 135.9449 588.888C135.6057 588.6076 135.5579 588.1053 135.8383 587.7661 136.1187 587.4268 136.621 587.3791 136.9602 587.6595L136.9614 587.6605C137.3007 587.9409 137.3484 588.4432 137.068 588.7824 136.7876 589.1216 136.2853 589.1694 135.9461 588.889M133.4864 586.856 133.4852 586.855C133.146 586.5747 133.0982 586.0724 133.3786 585.7331 133.659 585.3939 134.1613 585.3462 134.5005 585.6266L134.5018 585.6276C134.841 585.908 134.8887 586.4102 134.6083 586.7495 134.328 587.0887 133.8257 587.1364 133.4864 586.856M131.0267 584.8231 131.0255 584.8221C130.6863 584.5417 130.6386 584.0394 130.9189 583.7002 131.1993 583.361 131.7016 583.3132 132.0408 583.5936L132.0421 583.5946C132.3813 583.875 132.429 584.3773 132.1486 584.7165 131.8683 585.0558 131.366 585.1035 131.0267 584.8231M128.567 582.7902 128.5658 582.7892C128.2266 582.5088 128.1789 582.0065 128.4592 581.6673 128.7396 581.328 129.2419 581.2803 129.5811 581.5607L129.5824 581.5617C129.9216 581.8421 129.9693 582.3444 129.6889 582.6836 129.4086 583.0228 128.9063 583.0706 128.567 582.7902M126.1074 580.7572 126.1061 580.7562C125.7669 580.4759 125.7192 579.9736 125.9996 579.6343 126.2799 579.2951 126.7822 579.2474 127.1215 579.5278L127.1227 579.5288C127.4619 579.8092 127.5096 580.3114 127.2293 580.6507 126.9489 580.9899 126.4466 581.0376 126.1074 580.7572M123.6477 578.7243 123.6464 578.7233C123.3072 578.4429 123.2595 577.9406 123.5399 577.6014 123.8202 577.2622 124.3225 577.2144 124.6618 577.4948L124.663 577.4958C125.0022 577.7762 125.0499 578.2785 124.7696 578.6177 124.4892 578.957 123.9869 579.0047 123.6477 578.7243M121.188 576.6914 121.1867 576.6904C120.8475 576.41 120.7998 575.9077 121.0802 575.5685 121.3606 575.2292 121.8628 575.1815 122.2021 575.4619L122.2033 575.4629C122.5425 575.7433 122.5903 576.2456 122.3099 576.5848 122.0295 576.924 121.5272 576.9718 121.188 576.6914M118.7283 574.6584 118.7271 574.6574C118.3878 574.3771 118.3401 573.8748 118.6205 573.5355 118.9009 573.1963 119.4032 573.1486 119.7424 573.429L119.7436 573.43C120.0829 573.7104 120.1306 574.2126 119.8502 574.5519 119.5698 574.8911 119.0675 574.9388 118.7283 574.6584M116.2686 572.6255 116.2674 572.6245C115.9281 572.3441 115.8804 571.8418 116.1608 571.5026 116.4412 571.1634 116.9435 571.1156 117.2827 571.396L117.2839 571.397C117.6232 571.6774 117.6709 572.1797 117.3905 572.5189 117.1101 572.8582 116.6078 572.9059 116.2686 572.6255M113.8089 570.5926 113.8077 570.5916C113.4684 570.3112 113.4207 569.8089 113.7011 569.4697 113.9815 569.1304 114.4838 569.0827 114.823 569.3631L114.8242 569.3641C115.1635 569.6445 115.2112 570.1468 114.9308 570.486 114.6504 570.8252 114.1481 570.873 113.8089 570.5926M111.3492 568.5596 111.348 568.5586C111.0088 568.2783 110.961 567.776 111.2414 567.4367 111.5218 567.0975 112.0241 567.0498 112.3633 567.3302L112.3645 567.3312C112.7038 567.6116 112.7515 568.1138 112.4711 568.4531 112.1907 568.7923 111.6885 568.84 111.3492 568.5596M108.8895 566.5267 108.8883 566.5257C108.5491 566.2453 108.5014 565.743 108.7817 565.4038 109.0621 565.0646 109.5644 565.0168 109.9036 565.2972L109.9049 565.2982C110.2441 565.5786 110.2918 566.0809 110.0114 566.4201 109.7311 566.7594 109.2288 566.8071 108.8895 566.5267M106.4298 564.4938 106.4286 564.4928C106.0894 564.2124 106.0417 563.7101 106.322 563.3709 106.6024 563.0316 107.1047 562.9839 107.4439 563.2643L107.4452 563.2653C107.7844 563.5457 107.8321 564.048 107.5517 564.3872 107.2714 564.7264 106.7691 564.7742 106.4298 564.4938M103.9701 562.4608 103.9689 562.4598C103.6297 562.1795 103.582 561.6772 103.8623 561.3379 104.1427 560.9987 104.645 560.951 104.9843 561.2314L104.9855 561.2324C105.3247 561.5128 105.3724 562.015 105.092 562.3543 104.8117 562.6935 104.3094 562.7412 103.9701 562.4608M101.5105 560.4279 101.5092 560.4269C101.17 560.1465 101.1223 559.6442 101.4027 559.305 101.683 558.9658 102.1853 558.918 102.5246 559.1984L102.5258 559.1994C102.865 559.4798 102.9127 559.9821 102.6324 560.3213 102.352 560.6606 101.8497 560.7083 101.5105 560.4279M99.05077 558.395 99.04954 558.394C98.71031 558.1136 98.66259 557.6113 98.94297 557.2721 99.22335 556.9328 99.72564 556.8851 100.0649 557.1655L100.0661 557.1665C100.4053 557.4469 100.453 557.9492 100.1727 558.2884 99.89229 558.6276 99.39 558.6754 99.05077 558.395M96.59108 556.362 96.58985 556.361C96.25062 556.0807 96.2029 555.5784 96.48328 555.2391 96.76366 554.8999 97.26595 554.8522 97.60518 555.1326L97.60641 555.1336C97.94564 555.414 97.99336 555.9162 97.71298 556.2555 97.4326 556.5947 96.93031 556.6424 96.59108 556.362M94.13139 554.3291 94.13016 554.3281C93.79093 554.0477 93.74321 553.5454 94.02359 553.2062 94.30397 552.867 94.80626 552.8192 95.14549 553.0996L95.14672 553.1006C95.48595 553.381 95.53367 553.8833 95.25329 554.2225 94.97291 554.5618 94.47062 554.6095 94.13139 554.3291M91.6717 552.2962 91.67047 552.2952C91.33124 552.0148 91.28352 551.5125 91.5639 551.1733 91.84428 550.834 92.34657 550.7863 92.6858 551.0667L92.68703 551.0677C93.02626 551.3481 93.07398 551.8504 92.7936 552.1896 92.51322 552.5288 92.01093 552.5766 91.6717 552.2962M89.21201 550.2632 89.21078 550.2622C88.87155 549.9819 88.82383 549.4796 89.10421 549.1403 89.38459 548.8011 89.88688 548.7534 90.22611 549.0338L90.22734 549.0348C90.56657 549.3152 90.61429 549.8174 90.33391 550.1567 90.05354 550.4959 89.55124 550.5436 89.21201 550.2632M86.75232 548.2303 86.75109 548.2293C86.41186 547.9489 86.36415 547.4466 86.64452 547.1074 86.9249 546.7682 87.42719 546.7204 87.76642 547.0008L87.76765 547.0018C88.10688 547.2822 88.1546 547.7845 87.87422 548.1237 87.59385 548.463 87.09155 548.5107 86.75232 548.2303M84.29263 546.1974 84.2914 546.1964C83.95217 545.916 83.90446 545.4137 84.18483 545.0745 84.46521 544.7352 84.9675 544.6875 85.30673 544.9679L85.30796 544.9689C85.64719 545.2493 85.69491 545.7516 85.41453 546.0908 85.13416 546.43 84.63186 546.4778 84.29263 546.1974M81.83294 544.1644 81.83171 544.1634C81.49248 543.8831 81.44477 543.3808 81.72514 543.0415 82.00552 542.7023 82.50781 542.6546 82.84704 542.935L82.84827 542.936C83.18751 543.2164 83.23522 543.7186 82.95484 544.0579 82.67447 544.3971 82.17217 544.4448 81.83294 544.1644M79.37325 542.1315 79.37202 542.1305C79.03279 541.8501 78.98508 541.3478 79.26545 541.0086 79.54583 540.6694 80.04812 540.6216 80.38735 540.902L80.38858 540.903C80.72782 541.1834 80.77553 541.6857 80.49515 542.0249 80.21478 542.3642 79.71248 542.4119 79.37325 542.1315M76.91356 540.0986 76.91233 540.0976C76.5731 539.8172 76.52539 539.3149 76.80576 538.9757 77.08614 538.6364 77.58843 538.5887 77.92766 538.8691L77.92889 538.8701C78.26813 539.1505 78.31584 539.6528 78.03546 539.992 77.75509 540.3312 77.25279 540.379 76.91356 540.0986M74.45387 538.0656 74.45264 538.0646C74.11341 537.7843 74.0657 537.282 74.34607 536.9427 74.62645 536.6035 75.12874 536.5558 75.46797 536.8362L75.4692 536.8372C75.80844 537.1176 75.85615 537.6198 75.57577 537.9591 75.2954 538.2983 74.7931 538.346 74.45387 538.0656M71.99418 536.0327 71.99295 536.0317C71.65372 535.7513 71.60601 535.249 71.88638 534.9098 72.16676 534.5706 72.66905 534.5228 73.00828 534.8032L73.00951 534.8042C73.34875 535.0846 73.39646 535.5869 73.11608 535.9261 72.83571 536.2654 72.33341 536.3131 71.99418 536.0327M69.53449 533.9998 69.53326 533.9988C69.19403 533.7184 69.14632 533.2161 69.42669 532.8769 69.70707 532.5376 70.20936 532.4899 70.54859 532.7703L70.54982 532.7713C70.88906 533.0517 70.93677 533.554 70.65639 533.8932 70.37602 534.2324 69.87373 534.2802 69.53449 533.9998M67.0748 531.9668 67.07357 531.9658C66.73434 531.6855 66.68663 531.1832 66.967 530.8439 67.24738 530.5047 67.74967 530.457 68.0889 530.7374L68.09013 530.7384C68.42937 531.0188 68.47708 531.521 68.1967 531.8603 67.91633 532.1995 67.41404 532.2472 67.0748 531.9668M64.61511 529.9339 64.61388 529.9329C64.27465 529.6525 64.22694 529.1502 64.50731 528.811 64.78769 528.4718 65.28998 528.424 65.62921 528.7044L65.63044 528.7054C65.96968 528.9858 66.01739 529.4881 65.73701 529.8273 65.45664 530.1666 64.95435 530.2143 64.61511 529.9339M62.15542 527.901 62.15419 527.9C61.81496 527.6196 61.76725 527.1173 62.04762 526.7781 62.328 526.4388 62.83029 526.3911 63.16953 526.6715L63.17075 526.6725C63.50999 526.9529 63.5577 527.4552 63.27732 527.7944 62.99695 528.1336 62.49466 528.1814 62.15542 527.901M59.69573 525.868 59.6945 525.867C59.35527 525.5867 59.30756 525.0844 59.58793 524.7451 59.86831 524.4059 60.3706 524.3582 60.70984 524.6386L60.71106 524.6396C61.0503 524.92 61.09801 525.4222 60.81763 525.7615 60.53726 526.1007 60.03497 526.1484 59.69573 525.868M57.23604 523.8351 57.23481 523.8341C56.89558 523.5537 56.84787 523.0514 57.12824 522.7122 57.40862 522.373 57.91091 522.3252 58.25015 522.6056L58.25137 522.6066C58.59061 522.887 58.63832 523.3893 58.35794 523.7285 58.07757 524.0678 57.57528 524.1155 57.23604 523.8351M54.77635 521.8022 54.77512 521.8012C54.43589 521.5208 54.38818 521.0185 54.66855 520.6793 54.94893 520.34 55.45122 520.2923 55.79046 520.5727L55.79169 520.5737C56.13092 520.8541 56.17863 521.3564 55.89826 521.6956 55.61788 522.0348 55.11559 522.0826 54.77635 521.8022M52.31666 519.7692 52.31543 519.7682C51.9762 519.4879 51.92849 518.9856 52.20887 518.6463 52.48924 518.3071 52.99153 518.2594 53.33077 518.5398L53.332 518.5408C53.67123 518.8212 53.71894 519.3234 53.43857 519.6627 53.15819 520.0019 52.6559 520.0496 52.31666 519.7692" fill="#c7c3bd"/>
</g>
</g>
<g clip-path="url(#clip_8)">
<g clip-path="url(#clip_9)">
<path transform="matrix(1,0,0,-1,-48,680.28829)" d="M241.5574 676.1329 241.5565 676.1316C241.3124 675.7654 241.4113 675.2706 241.7775 675.0265 242.1437 674.7824 242.6385 674.8813 242.8826 675.2475L242.8835 675.2488C243.1276 675.615 243.0287 676.1098 242.6625 676.3539 242.2963 676.598 241.8015 676.4991 241.5574 676.1329M239.7886 673.4798 239.7878 673.4784C239.5436 673.1122 239.6426 672.6175 240.0088 672.3734 240.375 672.1292 240.8697 672.2282 241.1138 672.5944L241.1147 672.5957C241.3588 672.9619 241.2599 673.4566 240.8937 673.7008 240.5275 673.9449 240.0328 673.8459 239.7886 673.4798M238.0199 670.8266 238.019 670.8253C237.7749 670.4591 237.8738 669.9643 238.24 669.7202 238.6062 669.4761 239.1009 669.575 239.3451 669.9412L239.346 669.9426C239.5901 670.3087 239.4911 670.8035 239.1249 671.0476 238.7588 671.2918 238.264 671.1928 238.0199 670.8266M236.2511 668.1735 236.2502 668.1721C236.0061 667.806 236.1051 667.3112 236.4712 667.0671 236.8374 666.823 237.3322 666.9219 237.5763 667.2881L237.5772 667.2894C237.8213 667.6556 237.7224 668.1504 237.3562 668.3945 236.99 668.6386 236.4952 668.5397 236.2511 668.1735M234.4823 665.5203 234.4815 665.519C234.2373 665.1528 234.3363 664.6581 234.7025 664.4139 235.0687 664.1698 235.5634 664.2688 235.8075 664.6349L235.8084 664.6363C236.0525 665.0025 235.9536 665.4972 235.5874 665.7413 235.2212 665.9855 234.7265 665.8865 234.4823 665.5203M232.7136 662.8672 232.7127 662.8659C232.4686 662.4997 232.5675 662.0049 232.9337 661.7608 233.2999 661.5167 233.7947 661.6156 234.0388 661.9818L234.0397 661.9831C234.2838 662.3493 234.1848 662.8441 233.8186 663.0882 233.4525 663.3323 232.9577 663.2334 232.7136 662.8672M230.9448 660.214 230.9439 660.2127C230.6998 659.8465 230.7988 659.3518 231.1649 659.1076 231.5311 658.8635 232.0259 658.9625 232.27 659.3287L232.2709 659.33C232.515 659.6962 232.4161 660.1909 232.0499 660.435 231.6837 660.6792 231.1889 660.5802 230.9448 660.214M229.1761 657.5609 229.1752 657.5596C228.931 657.1934 229.03 656.6986 229.3962 656.4545 229.7624 656.2104 230.2571 656.3093 230.5013 656.6755L230.5021 656.6768C230.7463 657.043 230.6473 657.5378 230.2811 657.7819 229.9149 658.026 229.4202 657.9271 229.1761 657.5609M227.4073 654.9077 227.4064 654.9064C227.1623 654.5402 227.2612 654.0455 227.6274 653.8013 227.9936 653.5572 228.4884 653.6562 228.7325 654.0224L228.7334 654.0237C228.9775 654.3899 228.8785 654.8846 228.5124 655.1288 228.1462 655.3729 227.6514 655.2739 227.4073 654.9077M225.6385 652.2546 225.6376 652.2533C225.3935 651.8871 225.4925 651.3923 225.8587 651.1482 226.2248 650.9041 226.7196 651.003 226.9637 651.3692L226.9646 651.3705C227.2087 651.7367 227.1098 652.2315 226.7436 652.4756 226.3774 652.7197 225.8827 652.6208 225.6385 652.2546M223.8698 649.6015 223.8689 649.6001C223.6248 649.2339 223.7237 648.7392 224.0899 648.4951 224.4561 648.2509 224.9508 648.3499 225.195 648.7161L225.1958 648.7174C225.44 649.0836 225.341 649.5783 224.9748 649.8225 224.6086 650.0666 224.1139 649.9676 223.8698 649.6015M222.101 646.9483 222.1001 646.947C221.856 646.5808 221.9549 646.086 222.3211 645.8419 222.6873 645.5978 223.1821 645.6967 223.4262 646.0629L223.4271 646.0643C223.6712 646.4304 223.5723 646.9252 223.2061 647.1693 222.8399 647.4134 222.3451 647.3145 222.101 646.9483M220.3322 644.2952 220.3314 644.2938C220.0872 643.9276 220.1862 643.4329 220.5524 643.1888 220.9186 642.9446 221.4133 643.0436 221.6574 643.4098L221.6583 643.4111C221.9024 643.7773 221.8035 644.2721 221.4373 644.5162 221.0711 644.7603 220.5764 644.6613 220.3322 644.2952M218.5635 641.642 218.5626 641.6407C218.3185 641.2745 218.4174 640.7797 218.7836 640.5356 219.1498 640.2915 219.6445 640.3905 219.8887 640.7566L219.8896 640.758C220.1337 641.1242 220.0347 641.6189 219.6685 641.863 219.3024 642.1072 218.8076 642.0082 218.5635 641.642M216.7947 638.9889 216.7938 638.9875C216.5497 638.6214 216.6487 638.1266 217.0148 637.8825 217.381 637.6384 217.8758 637.7373 218.1199 638.1035L218.1208 638.1048C218.3649 638.471 218.266 638.9658 217.8998 639.2099 217.5336 639.454 217.0388 639.3551 216.7947 638.9889M215.0259 636.3357 215.0251 636.3344C214.7809 635.9682 214.8799 635.4735 215.2461 635.2293 215.6123 634.9852 216.107 635.0842 216.3511 635.4503L216.352 635.4517C216.5962 635.8179 216.4972 636.3126 216.131 636.5567 215.7648 636.8009 215.2701 636.7019 215.0259 636.3357M213.2572 633.6826 213.2563 633.6813C213.0122 633.3151 213.1111 632.8203 213.4773 632.5762 213.8435 632.3321 214.3383 632.431 214.5824 632.7972L214.5833 632.7985C214.8274 633.1647 214.7284 633.6595 214.3623 633.9036 213.9961 634.1477 213.5013 634.0488 213.2572 633.6826M211.4884 631.0294 211.4875 631.0281C211.2434 630.6619 211.3424 630.1672 211.7086 629.923 212.0747 629.6789 212.5695 629.7779 212.8136 630.1441L212.8145 630.1454C213.0586 630.5116 212.9597 631.0063 212.5935 631.2505 212.2273 631.4946 211.7325 631.3956 211.4884 631.0294M209.7197 628.3763 209.7188 628.375C209.4746 628.0088 209.5736 627.514 209.9398 627.2699 210.306 627.0258 210.8007 627.1247 211.0449 627.4909L211.0457 627.4922C211.2899 627.8584 211.1909 628.3532 210.8247 628.5973 210.4585 628.8414 209.9638 628.7425 209.7197 628.3763M207.9509 625.7231 207.95 625.7218C207.7059 625.3556 207.8048 624.8609 208.171 624.6168 208.5372 624.3726 209.032 624.4716 209.2761 624.8378L209.277 624.8391C209.5211 625.2053 209.4221 625.7 209.056 625.9442 208.6898 626.1883 208.195 626.0893 207.9509 625.7231M206.1821 623.07 206.1812 623.0687C205.9371 622.7025 206.0361 622.2077 206.4023 621.9636 206.7684 621.7195 207.2632 621.8184 207.5073 622.1846L207.5082 622.1859C207.7523 622.5521 207.6534 623.0469 207.2872 623.291 206.921 623.5351 206.4263 623.4362 206.1821 623.07M204.4134 620.4169 204.4125 620.4155C204.1684 620.0493 204.2673 619.5546 204.6335 619.3105 204.9997 619.0663 205.4944 619.1653 205.7386 619.5315L205.7394 619.5328C205.9836 619.899 205.8846 620.3937 205.5184 620.6379 205.1522 620.882 204.6575 620.783 204.4134 620.4169M202.6446 617.7637 202.6437 617.7624C202.3996 617.3962 202.4985 616.9014 202.8647 616.6573 203.2309 616.4132 203.7257 616.5121 203.9698 616.8783L203.9707 616.8797C204.2148 617.2458 204.1159 617.7406 203.7497 617.9847 203.3835 618.2289 202.8887 618.1299 202.6446 617.7637M200.8758 615.1106 200.875 615.1092C200.6308 614.7431 200.7298 614.2483 201.096 614.0042 201.4622 613.76 201.9569 613.859 202.201 614.2252L202.2019 614.2265C202.446 614.5927 202.3471 615.0875 201.9809 615.3316 201.6147 615.5757 201.12 615.4768 200.8758 615.1106M199.1071 612.4574 199.1062 612.4561C198.8621 612.0899 198.961 611.5952 199.3272 611.351 199.6934 611.1069 200.1881 611.2059 200.4323 611.572L200.4332 611.5734C200.6773 611.9396 200.5783 612.4343 200.2121 612.6784 199.846 612.9226 199.3512 612.8236 199.1071 612.4574M197.3383 609.8043 197.3374 609.803C197.0933 609.4368 197.1923 608.942 197.5584 608.6979 197.9246 608.4538 198.4194 608.5527 198.6635 608.9189L198.6644 608.9202C198.9085 609.2864 198.8096 609.7812 198.4434 610.0253 198.0772 610.2694 197.5824 610.1705 197.3383 609.8043M195.5696 607.1511 195.5687 607.1498C195.3245 606.7836 195.4235 606.2889 195.7897 606.0447 196.1559 605.8006 196.6506 605.8996 196.8947 606.2658L196.8956 606.2671C197.1398 606.6333 197.0408 607.128 196.6746 607.3721 196.3084 607.6163 195.8137 607.5173 195.5696 607.1511M193.8008 604.498 193.7999 604.4967C193.5558 604.1305 193.6547 603.6357 194.0209 603.3916 194.3871 603.1475 194.8819 603.2464 195.126 603.6126L195.1269 603.6139C195.371 603.9801 195.272 604.4749 194.9059 604.719 194.5397 604.9631 194.0449 604.8642 193.8008 604.498M192.032 601.8448 192.0311 601.8435C191.787 601.4773 191.886 600.9826 192.2522 600.7384 192.6183 600.4943 193.1131 600.5933 193.3572 600.9595L193.3581 600.9608C193.6022 601.327 193.5033 601.8217 193.1371 602.0659 192.7709 602.31 192.2761 602.211 192.032 601.8448M190.2633 599.1917 190.2624 599.1904C190.0183 598.8242 190.1172 598.3294 190.4834 598.0853 190.8496 597.8412 191.3443 597.9401 191.5885 598.3063L191.5893 598.3076C191.8335 598.6738 191.7345 599.1686 191.3683 599.4127 191.0021 599.6568 190.5074 599.5579 190.2633 599.1917M188.4945 596.5386 188.4936 596.5372C188.2495 596.171 188.3484 595.6763 188.7146 595.4322 189.0808 595.188 189.5756 595.287 189.8197 595.6532L189.8206 595.6545C190.0647 596.0207 189.9658 596.5154 189.5996 596.7596 189.2334 597.0037 188.7386 596.9047 188.4945 596.5386M186.7257 593.8854 186.7249 593.8841C186.4807 593.5179 186.5797 593.0231 186.9459 592.779 187.3121 592.5349 187.8068 592.6338 188.0509 593L188.0518 593.0014C188.2959 593.3675 188.197 593.8623 187.8308 594.1064 187.4646 594.3505 186.9699 594.2516 186.7257 593.8854M184.957 591.2323 184.9561 591.2309C184.712 590.8647 184.8109 590.37 185.1771 590.1259 185.5433 589.8817 186.038 589.9807 186.2822 590.3469L186.2831 590.3482C186.5272 590.7144 186.4282 591.2092 186.062 591.4533 185.6959 591.6974 185.2011 591.5984 184.957 591.2323M183.1882 588.5791 183.1873 588.5778C182.9432 588.2116 183.0421 587.7168 183.4083 587.4727 183.7745 587.2286 184.2693 587.3276 184.5134 587.6937L184.5143 587.6951C184.7584 588.0613 184.6595 588.556 184.2933 588.8001 183.9271 589.0443 183.4323 588.9453 183.1882 588.5791M181.4194 585.926 181.4186 585.9246C181.1744 585.5585 181.2734 585.0637 181.6396 584.8196 182.0058 584.5755 182.5005 584.6744 182.7446 585.0406L182.7455 585.0419C182.9896 585.4081 182.8907 585.9029 182.5245 586.147 182.1583 586.3911 181.6636 586.2922 181.4194 585.926M179.6507 583.2728 179.6498 583.2715C179.4057 582.9053 179.5046 582.4106 179.8708 582.1664 180.237 581.9223 180.7318 582.0213 180.9759 582.3874L180.9768 582.3888C181.2209 582.755 181.1219 583.2497 180.7557 583.4938 180.3896 583.738 179.8948 583.639 179.6507 583.2728M177.8819 580.6197 177.881 580.6184C177.6369 580.2522 177.7359 579.7574 178.102 579.5133 178.4682 579.2692 178.963 579.3681 179.2071 579.7343L179.208 579.7356C179.4521 580.1018 179.3532 580.5966 178.987 580.8407 178.6208 581.0848 178.126 580.9859 177.8819 580.6197M176.1132 577.9665 176.1123 577.9652C175.8681 577.599 175.9671 577.1043 176.3333 576.8601 176.6995 576.616 177.1942 576.715 177.4384 577.0812L177.4392 577.0825C177.6834 577.4487 177.5844 577.9434 177.2182 578.1876 176.852 578.4317 176.3573 578.3327 176.1132 577.9665M174.3444 575.3134 174.3435 575.3121C174.0994 574.9459 174.1983 574.4511 174.5645 574.207 174.9307 573.9629 175.4255 574.0618 175.6696 574.428L175.6705 574.4293C175.9146 574.7955 175.8156 575.2903 175.4495 575.5344 175.0833 575.7785 174.5885 575.6796 174.3444 575.3134M172.5756 572.6602 172.5747 572.6589C172.3306 572.2927 172.4296 571.798 172.7958 571.5539 173.1619 571.3097 173.6567 571.4087 173.9008 571.7749L173.9017 571.7762C174.1458 572.1424 174.0469 572.6371 173.6807 572.8813 173.3145 573.1254 172.8198 573.0264 172.5756 572.6602M170.8069 570.0071 170.806 570.0058C170.5619 569.6396 170.6608 569.1448 171.027 568.9007 171.3932 568.6566 171.8879 568.7555 172.1321 569.1217L172.1329 569.123C172.3771 569.4892 172.2781 569.984 171.9119 570.2281 171.5457 570.4722 171.051 570.3733 170.8069 570.0071M169.0381 567.354 169.0372 567.3526C168.7931 566.9864 168.892 566.4917 169.2582 566.2476 169.6244 566.0034 170.1192 566.1024 170.3633 566.4686L170.3642 566.4699C170.6083 566.8361 170.5094 567.3308 170.1432 567.575 169.777 567.8191 169.2822 567.7201 169.0381 567.354M167.2693 564.7008 167.2685 564.6995C167.0243 564.3333 167.1233 563.8385 167.4895 563.5944 167.8557 563.3503 168.3504 563.4492 168.5945 563.8154L168.5954 563.8168C168.8395 564.1829 168.7406 564.6777 168.3744 564.9218 168.0082 565.1659 167.5135 565.067 167.2693 564.7008M165.5006 562.0477 165.4997 562.0463C165.2556 561.6802 165.3545 561.1854 165.7207 560.9413 166.0869 560.6971 166.5816 560.7961 166.8258 561.1623L166.8267 561.1636C167.0708 561.5298 166.9718 562.0246 166.6056 562.2687 166.2395 562.5128 165.7447 562.4139 165.5006 562.0477M163.7318 559.3945 163.7309 559.3932C163.4868 559.027 163.5858 558.5323 163.9519 558.2881 164.3181 558.044 164.8129 558.143 165.057 558.5091L165.0579 558.5105C165.302 558.8767 165.2031 559.3714 164.8369 559.6155 164.4707 559.8597 163.9759 559.7607 163.7318 559.3945M161.963 556.7414 161.9622 556.7401C161.718 556.3739 161.817 555.8791 162.1832 555.635 162.5494 555.3909 163.0441 555.4898 163.2882 555.856L163.2891 555.8573C163.5333 556.2235 163.4343 556.7183 163.0681 556.9624 162.7019 557.2065 162.2072 557.1076 161.963 556.7414M160.1943 554.0882 160.1934 554.0869C159.9493 553.7207 160.0482 553.226 160.4144 552.9818 160.7806 552.7377 161.2754 552.8367 161.5195 553.2029L161.5204 553.2042C161.7645 553.5704 161.6655 554.0651 161.2994 554.3092 160.9332 554.5534 160.4384 554.4544 160.1943 554.0882M158.4255 551.4351 158.4246 551.4338C158.1805 551.0676 158.2795 550.5728 158.6457 550.3287 159.0118 550.0846 159.5066 550.1835 159.7507 550.5497L159.7516 550.551C159.9957 550.9172 159.8968 551.412 159.5306 551.6561 159.1644 551.9002 158.6696 551.8013 158.4255 551.4351M156.6568 548.7819 156.6559 548.7806C156.4117 548.4144 156.5107 547.9197 156.8769 547.6755 157.2431 547.4314 157.7378 547.5304 157.982 547.8966L157.9828 547.8979C158.227 548.2641 158.128 548.7588 157.7618 549.003 157.3956 549.2471 156.9009 549.1481 156.6568 548.7819M154.888 546.1288 154.8871 546.1275C154.643 545.7613 154.7419 545.2665 155.1081 545.0224 155.4743 544.7783 155.9691 544.8772 156.2132 545.2434L156.2141 545.2447C156.4582 545.6109 156.3592 546.1057 155.9931 546.3498 155.6269 546.5939 155.1321 546.495 154.888 546.1288M153.1192 543.4757 153.1183 543.4743C152.8742 543.1081 152.9732 542.6134 153.3394 542.3693 153.7055 542.1251 154.2003 542.2241 154.4444 542.5903L154.4453 542.5916C154.6894 542.9578 154.5905 543.4525 154.2243 543.6967 153.8581 543.9408 153.3634 543.8418 153.1192 543.4757M151.3505 540.8225 151.3496 540.8212C151.1055 540.455 151.2044 539.9602 151.5706 539.7161 151.9368 539.472 152.4315 539.5709 152.6757 539.9371L152.6765 539.9385C152.9207 540.3046 152.8217 540.7994 152.4555 541.0435 152.0893 541.2876 151.5946 541.1887 151.3505 540.8225M149.5817 538.1694 149.5808 538.168C149.3367 537.8018 149.4356 537.3071 149.8018 537.063 150.168 536.8188 150.6628 536.9178 150.9069 537.284L150.9078 537.2853C151.1519 537.6515 151.053 538.1463 150.6868 538.3904 150.3206 538.6345 149.8258 538.5355 149.5817 538.1694M147.8129 535.5162 147.8121 535.5149C147.5679 535.1487 147.6669 534.6539 148.0331 534.4098 148.3993 534.1657 148.894 534.2647 149.1381 534.6308L149.139 534.6322C149.3831 534.9984 149.2842 535.4931 148.918 535.7372 148.5518 535.9814 148.0571 535.8824 147.8129 535.5162M146.0442 532.8631 146.0433 532.8617C145.7992 532.4956 145.8981 532.0008 146.2643 531.7567 146.6305 531.5126 147.1252 531.6115 147.3694 531.9777L147.3703 531.979C147.6144 532.3452 147.5154 532.84 147.1492 533.0841 146.7831 533.3282 146.2883 533.2293 146.0442 532.8631M144.2754 530.2099 144.2745 530.2086C144.0304 529.8424 144.1294 529.3477 144.4955 529.1035 144.8617 528.8594 145.3565 528.9584 145.6006 529.3245L145.6015 529.3259C145.8456 529.6921 145.7467 530.1868 145.3805 530.4309 145.0143 530.6751 144.5195 530.5761 144.2754 530.2099M142.5067 527.5568 142.5058 527.5555C142.2616 527.1893 142.3606 526.6945 142.7268 526.4504 143.093 526.2063 143.5877 526.3052 143.8318 526.6714L143.8327 526.6727C144.0769 527.0389 143.9779 527.5337 143.6117 527.7778 143.2455 528.0219 142.7508 527.923 142.5067 527.5568M140.7379 524.9036 140.737 524.9023C140.4929 524.5361 140.5918 524.0414 140.958 523.7972 141.3242 523.5531 141.819 523.6521 142.0631 524.0183L142.064 524.0196C142.3081 524.3858 142.2091 524.8805 141.843 525.1246 141.4768 525.3688 140.982 525.2698 140.7379 524.9036M138.9691 522.2505 138.9682 522.2492C138.7241 521.883 138.8231 521.3882 139.1893 521.1441 139.5554 520.9 140.0502 520.9989 140.2943 521.3651L140.2952 521.3664C140.5393 521.7326 140.4404 522.2274 140.0742 522.4715 139.708 522.7156 139.2132 522.6167 138.9691 522.2505M137.2004 519.5973 137.1995 519.596C136.9554 519.2298 137.0543 518.7351 137.4205 518.491 137.7867 518.2468 138.2814 518.3458 138.5256 518.712L138.5264 518.7133C138.7706 519.0795 138.6716 519.5742 138.3054 519.8184 137.9392 520.0625 137.4445 519.9635 137.2004 519.5973" fill="#c7c3bd"/>
</g>
</g>
<g clip-path="url(#clip_10)">
<path transform="matrix(1,0,0,-1,-48,680.28829)" d="M164.3331 559.9164C163.1661 561.0834 163.1661 562.9755 164.3331 564.1425 165.5001 565.3094 167.3922 565.3094 168.5592 564.1425 169.7262 562.9755 169.7262 561.0834 168.5592 559.9164 167.3922 558.7494 165.5001 558.7494 164.3331 559.9164" fill="#19b091"/>
<path transform="matrix(1,0,0,-1,-48,680.28829)" d="M240.1012 673.5716C238.9307 674.742 238.9307 676.6397 240.1012 677.8101 241.2716 678.9806 243.1693 678.9806 244.3397 677.8101 245.5102 676.6397 245.5102 674.742 244.3397 673.5716 243.1693 672.4012 241.2716 672.4012 240.1012 673.5716" fill="#648fff"/>
</g>
<g clip-path="url(#clip_11)">
<path transform="matrix(1,0,0,-1,-48,680.28829)" d="M53.10444 518.4084C52.69267 518.2531 52.23292 518.4609 52.07754 518.8727 51.92216 519.2844 52.13 519.7442 52.54176 519.8996L209.0257 578.9485C209.4375 579.1038 209.8972 578.896 210.0526 578.4842 210.208 578.0725 210.0002 577.6127 209.5884 577.4573ZM138.3702 518.5398C138.0309 518.2594 137.5287 518.3071 137.2483 518.6463 136.9679 518.9856 137.0156 519.4879 137.3549 519.7682L208.7994 578.8171C209.1386 579.0975 209.6409 579.0498 209.9213 578.7106 210.2017 578.3713 210.154 577.869 209.8147 577.5887ZM109.7978 603.9117C109.6422 603.7561 109.3899 603.7561 109.2343 603.9117 109.0787 604.0673 109.0787 604.3195 109.2343 604.4751L126.1972 621.438C126.3528 621.5936 126.6051 621.5936 126.7607 621.438 126.9163 621.2824 126.9163 621.0302 126.7607 620.8746ZM123.9624 623.6728 132.2669 626.9443 128.9955 618.6398Z"/>
</g>
<g clip-path="url(#clip_12)">
<path transform="matrix(1,0,0,-1,-48,680.28829)" d="M207.1878 576.0836C206.0174 577.2541 206.0174 579.1517 207.1878 580.3222 208.3582 581.4926 210.2559 581.4926 211.4263 580.3222 212.5968 579.1517 212.5968 577.2541 211.4263 576.0836 210.2559 574.9132 208.3582 574.9132 207.1878 576.0836" fill="#648fff"/>
<path transform="matrix(1,0,0,-1,-48,680.28829)" d="M183.1185 556.1915C181.9515 557.3585 181.9515 559.2505 183.1185 560.4175 184.2855 561.5845 186.1776 561.5845 187.3446 560.4175 188.5116 559.2505 188.5116 557.3585 187.3446 556.1915 186.1776 555.0245 184.2855 555.0245 183.1185 556.1915" fill="#dc267f"/>
<path transform="matrix(1,0,0,-1,-48,680.28829)" d="M164.3331 559.9164C163.1661 561.0834 163.1661 562.9755 164.3331 564.1425 165.5001 565.3094 167.3922 565.3094 168.5592 564.1425 169.7262 562.9755 169.7262 561.0834 168.5592 559.9164 167.3922 558.7494 165.5001 558.7494 164.3331 559.9164" fill="#19b091"/>
<path transform="matrix(1,0,0,-1,-48,680.28829)" d="M135.7432 517.0347C134.5728 518.2052 134.5728 520.1028 135.7432 521.2733 136.9137 522.4437 138.8113 522.4437 139.9818 521.2733 141.1522 520.1028 141.1522 518.2052 139.9818 517.0347 138.8113 515.8643 136.9137 515.8643 135.7432 517.0347" fill="#648fff"/>
<path transform="matrix(1,0,0,-1,-48,680.28829)" d="M50.70383 517.0347C49.53339 518.2052 49.53339 520.1028 50.70383 521.2733 51.87427 522.4437 53.77193 522.4437 54.94237 521.2733 56.11282 520.1028 56.11282 518.2052 54.94237 517.0347 53.77193 515.8643 51.87427 515.8643 50.70383 517.0347" fill="#648fff"/>
<path transform="matrix(1,0,0,-1,-48,680.28829)" d="M117.3753 572.1387C116.2048 573.3091 116.2048 575.2068 117.3753 576.3772 118.5457 577.5476 120.4434 577.5476 121.6138 576.3772 122.7843 575.2068 122.7843 573.3091 121.6138 572.1387 120.4434 570.9682 118.5457 570.9682 117.3753 572.1387" fill="#dc267f"/>
</g>
<g clip-path="url(#clip_13)">
<path transform="matrix(1,0,0,-1,-48,680.28829)" d="M209.5888 577.9212C209.4332 577.7656 209.1809 577.7656 209.0253 577.9212 208.8697 578.0768 208.8697 578.329 209.0253 578.4846L225.9882 595.4475C226.1438 595.6031 226.3961 595.6031 226.5517 595.4475 226.7073 595.2919 226.7073 595.0397 226.5517 594.8841ZM223.7534 597.6823 232.058 600.9538 228.7865 592.6493Z"/>
</g>
</g>
</g>
</g>
</svg>
