<svg xmlns="http://www.w3.org/2000/svg" xmlns:xlink="http://www.w3.org/1999/xlink" xmlns:inkscape="http://www.inkscape.org/namespaces/inkscape" version="1.1" width="420.5" height="108.46625" viewBox="0 0 420.5 108.46625">
<defs>
<clipPath id="clip_84">
<path transform="matrix(1,0,0,-1,-81.5,765.26187)" d="M81.5 656.7956H502V765.26187H81.5Z" clip-rule="evenodd"/>
</clipPath>
<clipPath id="clip_85">
<path transform="matrix(1,0,0,-1,-81.5,765.26187)" d="M0 0H612V803.25H0Z"/>
</clipPath>
<clipPath id="clip_86">
<path transform="matrix(1,0,0,-1,-81.5,765.26187)" d="M0 0H612V803.25H0Z"/>
</clipPath>
<clipPath id="clip_87">
<path transform="matrix(1,0,0,-1,-81.5,765.26187)" d="M0 0H612V803.25H0Z"/>
</clipPath>
<clipPath id="clip_88">
<path transform="matrix(1,0,0,-1,-81.5,765.26187)" d="M0 0H612V803.25H0Z"/>
</clipPath>
<clipPath id="clip_89">
<path transform="matrix(1,0,0,-1,-81.5,765.26187)" d="M0 0H612V803.25H0Z"/>
</clipPath>
<clipPath id="clip_90">
<path transform="matrix(1,0,0,-1,-81.5,765.26187)" d="M0 0H612V803.25H0Z"/>
</clipPath>
<clipPath id="clip_91">
<path transform="matrix(1,0,0,-1,-81.5,765.26187)" d="M0 0H612V803.25H0Z"/>
</clipPath>
<clipPath id="clip_92">
<path transform="matrix(1,0,0,-1,-81.5,765.26187)" d="M0 0H612V803.25H0Z"/>
</clipPath>
<clipPath id="clip_93">
<path transform="matrix(1,0,0,-1,-81.5,765.26187)" d="M0 0H612V803.25H0Z"/>
</clipPath>
<clipPath id="clip_94">
<path transform="matrix(1,0,0,-1,-81.5,765.26187)" d="M0 0H612V803.25H0Z"/>
</clipPath>
<clipPath id="clip_95">
<path transform="matrix(1,0,0,-1,-81.5,765.26187)" d="M0 0H612V803.25H0Z"/>
</clipPath>
<clipPath id="clip_96">
<path transform="matrix(1,0,0,-1,-81.5,765.26187)" d="M0 0H612V803.25H0Z"/>
</clipPath>
<clipPath id="clip_97">
<path transform="matrix(1,0,0,-1,-81.5,765.26187)" d="M0 0H612V803.25H0Z"/>
</clipPath>
<clipPath id="clip_98">
<path transform="matrix(1,0,0,-1,-81.5,765.26187)" d="M0 0H612V803.25H0Z"/>
</clipPath>
<clipPath id="clip_99">
<path transform="matrix(1,0,0,-1,-81.5,765.26187)" d="M0 0H612V803.25H0Z"/>
</clipPath>
<clipPath id="clip_100">
<path transform="matrix(1,0,0,-1,-81.5,765.26187)" d="M0 0H612V803.25H0Z"/>
</clipPath>
<clipPath id="clip_101">
<path transform="matrix(1,0,0,-1,-81.5,765.26187)" d="M88.72877 663.7138C88.32713 663.5339 87.85568 663.7136 87.67575 664.1153 87.49583 664.5169 87.67557 664.9884 88.07722 665.1683L192.2883 711.8512C192.69 712.0311 193.1614 711.8514 193.3414 711.4497 193.5213 711.0481 193.3415 710.5766 192.9399 710.3967Z"/>
</clipPath>
<clipPath id="clip_102">
<path transform="matrix(1,0,0,-1,-81.5,765.26187)" d="M0 0H612V803.25H0Z"/>
</clipPath>
</defs>
<g clip-path="url(#clip_84)">
<g clip-path="url(#clip_85)">
<g clip-path="url(#clip_86)">
<g clip-path="url(#clip_87)">
<path transform="matrix(1,0,0,-1,-81.5,765.26187)" d="M156.5326 760.2671C156.2768 760.6252 156.3597 761.1229 156.7178 761.3787 157.076 761.6345 157.5737 761.5516 157.8295 761.1935L228.6956 661.9808C228.9514 661.6227 228.8685 661.125 228.5104 660.8692 228.1523 660.6134 227.6546 660.6963 227.3988 661.0545ZM86.31484 660.7208C85.87474 660.7208 85.51797 661.0775 85.51797 661.5176 85.51797 661.9577 85.87474 662.3145 86.31484 662.3145H228.0472C228.4873 662.3145 228.8441 661.9577 228.8441 661.5176 228.8441 661.0775 228.4873 660.7208 228.0472 660.7208ZM86.96329 661.0545C86.70748 660.6963 86.20979 660.6134 85.85167 660.8692 85.49354 661.125 85.41059 661.6227 85.6664 661.9808L156.5326 761.1935C156.7884 761.5516 157.2861 761.6345 157.6442 761.3787 158.0023 761.1229 158.0853 760.6252 157.8295 760.2671Z"/>
</g>
<g clip-path="url(#clip_88)">
<path transform="matrix(1,0,0,-1,-81.5,765.26187)" d="M155.0617 758.611C153.8913 759.7815 153.8913 761.6791 155.0617 762.8496 156.2322 764.02 158.1299 764.02 159.3003 762.8496 160.4707 761.6791 160.4707 759.7815 159.3003 758.611 158.1299 757.4406 156.2322 757.4406 155.0617 758.611M225.9279 659.3984C224.7575 660.5688 224.7575 662.4665 225.9279 663.6369 227.0984 664.8074 228.996 664.8074 230.1665 663.6369 231.3369 662.4665 231.3369 660.5688 230.1665 659.3984 228.996 658.2279 227.0984 658.2279 225.9279 659.3984M84.19557 659.3984C83.02513 660.5688 83.02513 662.4665 84.19557 663.6369 85.36601 664.8074 87.26367 664.8074 88.43411 663.6369 89.60456 662.4665 89.60456 660.5688 88.43411 659.3984 87.26367 658.2279 85.36601 658.2279 84.19557 659.3984" fill="#648fff"/>
</g>
<g clip-path="url(#clip_89)">
<path transform="matrix(1,0,0,-1,-81.5,765.26187)" d="M190.4948 709.0047C189.3244 710.1751 189.3244 712.0728 190.4948 713.2432 191.6653 714.4137 193.5629 714.4137 194.7334 713.2432 195.9038 712.0728 195.9038 710.1751 194.7334 709.0047 193.5629 707.8343 191.6653 707.8343 190.4948 709.0047M190.4948 709.0047C189.3244 710.1751 189.3244 712.0728 190.4948 713.2432 191.6653 714.4137 193.5629 714.4137 194.7334 713.2432 195.9038 712.0728 195.9038 710.1751 194.7334 709.0047 193.5629 707.8343 191.6653 707.8343 190.4948 709.0047" fill="#dc267f"/>
<path transform="matrix(1,0,0,-1,-81.5,765.26187)" d="M119.6287 709.0047C118.4582 710.1751 118.4582 712.0728 119.6287 713.2432 120.7991 714.4137 122.6968 714.4137 123.8672 713.2432 125.0376 712.0728 125.0376 710.1751 123.8672 709.0047 122.6968 707.8343 120.7991 707.8343 119.6287 709.0047M121.3275 710.447C120.9536 710.6792 120.8388 711.1705 121.071 711.5444 121.3032 711.9183 121.7945 712.0331 122.1684 711.8009L178.2016 677C178.5755 676.7678 178.6903 676.2764 178.4581 675.9026 178.2259 675.5287 177.7346 675.4139 177.3607 675.6461Z" fill="#19b091"/>
<path transform="matrix(1,0,0,-1,-81.5,765.26187)" d="M155.0617 659.3984C153.8913 660.5688 153.8913 662.4665 155.0617 663.6369 156.2322 664.8074 158.1299 664.8074 159.3003 663.6369 160.4707 662.4665 160.4707 660.5688 159.3003 659.3984 158.1299 658.2279 156.2322 658.2279 155.0617 659.3984" fill="#ffb000"/>
</g>
<g clip-path="url(#clip_90)">
<path transform="matrix(1,0,0,-1,-81.5,765.26187)" d="M157.6461 660.8706C157.2887 660.6137 156.7908 660.6952 156.5339 661.0526 156.2771 661.41 156.3586 661.9079 156.716 662.1647L177.3161 676.9701C177.6735 677.227 178.1714 677.1455 178.4282 676.7881 178.6851 676.4307 178.6036 675.9328 178.2462 675.6759Z" fill="#ffb000"/>
</g>
<g clip-path="url(#clip_91)">
<path transform="matrix(1,0,0,-1,-81.5,765.26187)" d="M178.5142 676.0106C178.3417 675.6057 177.8736 675.4174 177.4687 675.59 177.0638 675.7625 176.8755 676.2306 177.0481 676.6355L191.881 711.4364C192.0536 711.8413 192.5217 712.0296 192.9266 711.857 193.3314 711.6845 193.5197 711.2164 193.3472 710.8115Z" fill="#dc267f"/>
</g>
<g clip-path="url(#clip_92)">
<path transform="matrix(1,0,0,-1,-81.5,765.26187)" d="M175.6619 674.2037C174.4914 675.3742 174.4914 677.2718 175.6619 678.4423 176.8323 679.6127 178.73 679.6127 179.9004 678.4423 181.0709 677.2718 181.0709 675.3742 179.9004 674.2037 178.73 673.0333 176.8323 673.0333 175.6619 674.2037M284.7401 660.7208C284.3 660.7208 283.9433 661.0775 283.9433 661.5176 283.9433 661.9577 284.3 662.3145 284.7401 662.3145H426.4725C426.9126 662.3145 427.2694 661.9577 427.2694 661.5176 427.2694 661.0775 426.9126 660.7208 426.4725 660.7208Z"/>
</g>
<g clip-path="url(#clip_93)">
<path transform="matrix(1,0,0,-1,-81.5,765.26187)" d="M424.3532 659.3984C423.1828 660.5688 423.1828 662.4665 424.3532 663.6369 425.5237 664.8074 427.4213 664.8074 428.5918 663.6369 429.7622 662.4665 429.7622 660.5688 428.5918 659.3984 427.4213 658.2279 425.5237 658.2279 424.3532 659.3984M282.6209 659.3984C281.4504 660.5688 281.4504 662.4665 282.6209 663.6369 283.7913 664.8074 285.689 664.8074 286.8594 663.6369 288.0299 662.4665 288.0299 660.5688 286.8594 659.3984 285.689 658.2279 283.7913 658.2279 282.6209 659.3984" fill="#648fff"/>
</g>
<g clip-path="url(#clip_94)">
<path transform="matrix(1,0,0,-1,-81.5,765.26187)" d="M353.4871 659.3984C352.3166 660.5688 352.3166 662.4665 353.4871 663.6369 354.6575 664.8074 356.5552 664.8074 357.7256 663.6369 358.896 662.4665 358.896 660.5688 357.7256 659.3984 356.5552 658.2279 354.6575 658.2279 353.4871 659.3984" fill="#ffb000"/>
</g>
<g clip-path="url(#clip_95)">
<path transform="matrix(1,0,0,-1,-81.5,765.26187)" d="M285.0771 660.7955C284.6783 660.6094 284.2041 660.7818 284.018 661.1807 283.8319 661.5795 284.0043 662.0536 284.4032 662.2398L390.7024 711.8461C391.1012 712.0322 391.5754 711.8598 391.7615 711.461 391.9476 711.0621 391.7752 710.588 391.3764 710.4019ZM427.1209 661.0545C426.8651 660.6963 426.3675 660.6134 426.0093 660.8692 425.6512 661.125 425.5683 661.6227 425.8241 661.9808L496.6902 761.1935C496.946 761.5516 497.4437 761.6345 497.8019 761.3787 498.16 761.1229 498.2429 760.6252 497.9871 760.2671ZM285.0771 660.7955C284.6783 660.6094 284.2041 660.7818 284.018 661.1807 283.8319 661.5795 284.0043 662.0536 284.4032 662.2398L497.0017 761.4524C497.4005 761.6385 497.8747 761.4661 498.0608 761.0673 498.2469 760.6685 498.0745 760.1943 497.6757 760.0082ZM496.6902 761.1935C496.946 761.5516 497.4437 761.6345 497.8019 761.3787 498.16 761.1229 498.2429 760.6252 497.9871 760.2671L427.1209 661.0545C426.8651 660.6963 426.3675 660.6134 426.0093 660.8692 425.6512 661.125 425.5683 661.6227 425.8241 661.9808Z"/>
</g>
<g clip-path="url(#clip_96)">
<path transform="matrix(1,0,0,-1,-81.5,765.26187)" d="M459.7863 709.0047C458.6159 710.1751 458.6159 712.0728 459.7863 713.2432 460.9568 714.4137 462.8544 714.4137 464.0249 713.2432 465.1953 712.0728 465.1953 710.1751 464.0249 709.0047 462.8544 707.8343 460.9568 707.8343 459.7863 709.0047M376.6269 677C377.0008 676.7678 377.1156 676.2764 376.8834 675.9026 376.6512 675.5287 376.1599 675.4139 375.786 675.6461L350.156 691.5643C349.7821 691.7965 349.6673 692.2878 349.8995 692.6617 350.1317 693.0355 350.623 693.1504 350.9969 692.9182ZM462.326 711.8009C462.6999 711.5687 462.8147 711.0774 462.5825 710.7035 462.3503 710.3297 461.859 710.2148 461.4852 710.447L431.082 729.3298C430.7081 729.562 430.5933 730.0533 430.8255 730.4271 431.0577 730.801 431.549 730.9158 431.9228 730.6836Z" fill="#19b091"/>
<path transform="matrix(1,0,0,-1,-81.5,765.26187)" d="M495.2194 758.611C494.049 759.7815 494.049 761.6791 495.2194 762.8496 496.3899 764.02 498.2875 764.02 499.458 762.8496 500.6284 761.6791 500.6284 759.7815 499.458 758.611 498.2875 757.4406 496.3899 757.4406 495.2194 758.611" fill="#648fff"/>
</g>
<g clip-path="url(#clip_97)">
<path transform="matrix(1,0,0,-1,-81.5,765.26187)" d="M356.0714 660.8706C355.714 660.6137 355.2161 660.6952 354.9592 661.0526 354.7024 661.41 354.7839 661.9079 355.1413 662.1647L375.7414 676.9701C376.0988 677.227 376.5967 677.1455 376.8536 676.7881 377.1104 676.4307 377.0289 675.9328 376.6715 675.6759Z" fill="#ffb000"/>
</g>
<g clip-path="url(#clip_98)">
<path transform="matrix(1,0,0,-1,-81.5,765.26187)" d="M376.9395 676.0106C376.767 675.6057 376.2989 675.4174 375.894 675.59 375.4892 675.7625 375.3008 676.2306 375.4734 676.6355L390.3064 711.4364C390.4789 711.8413 390.947 712.0296 391.3519 711.857 391.7567 711.6845 391.945 711.2164 391.7725 710.8115ZM388.9201 709.0047C387.7497 710.1751 387.7497 712.0728 388.9201 713.2432 390.0906 714.4137 391.9882 714.4137 393.1587 713.2432 394.3291 712.0728 394.3291 710.1751 393.1587 709.0047 391.9882 707.8343 390.0906 707.8343 388.9201 709.0047M388.9201 709.0047C387.7497 710.1751 387.7497 712.0728 388.9201 713.2432 390.0906 714.4137 391.9882 714.4137 393.1587 713.2432 394.3291 712.0728 394.3291 710.1751 393.1587 709.0047 391.9882 707.8343 390.0906 707.8343 388.9201 709.0047" fill="#dc267f"/>
</g>
<g clip-path="url(#clip_99)">
<path transform="matrix(1,0,0,-1,-81.5,765.26187)" d="M374.0872 674.2037C372.9167 675.3742 372.9167 677.2718 374.0872 678.4423 375.2576 679.6127 377.1553 679.6127 378.3257 678.4423 379.4962 677.2718 379.4962 675.3742 378.3257 674.2037 377.1553 673.0333 375.2576 673.0333 374.0872 674.2037"/>
</g>
<g clip-path="url(#clip_100)">
<path transform="matrix(1,0,0,-1,-81.5,765.26187)" d="M376.9395 676.0106C376.767 675.6057 376.2989 675.4174 375.894 675.59 375.4892 675.7625 375.3008 676.2306 375.4734 676.6355L380.7029 688.9049C380.8755 689.3098 381.3436 689.4981 381.7484 689.3255 382.1533 689.153 382.3416 688.6849 382.169 688.28Z" fill="#dc267f"/>
</g>
<g clip-path="url(#clip_101)">
<g clip-path="url(#clip_102)">
<path transform="matrix(1,0,0,-1,-81.5,765.26187)" d="M88.72877 663.7138 91.54529 664.9755 90.89373 666.43 88.07722 665.1683ZM92.95355 665.6064 95.77006 666.8681 95.11851 668.3225 92.30199 667.0608ZM97.17832 667.4989 99.99484 668.7606 99.34328 670.2151 96.52677 668.9534ZM101.4031 669.3915 104.2196 670.6532 103.5681 672.1076 100.7515 670.8459ZM105.6279 671.284 108.4444 672.5457 107.7928 674.0002 104.9763 672.7385ZM109.8526 673.1766 112.6692 674.4383 112.0176 675.8927 109.2011 674.631ZM114.0774 675.0691 116.8939 676.3308 116.2424 677.7853 113.4259 676.5236ZM118.3022 676.9617 121.1187 678.2234 120.4672 679.6778 117.6506 678.4161ZM122.527 678.8542 125.3435 680.1159 124.6919 681.5704 121.8754 680.3087ZM126.7517 680.7468 129.5683 682.0085 128.9167 683.4629 126.1002 682.2012ZM130.9765 682.6393 133.793 683.901 133.1415 685.3555 130.325 684.0938ZM135.2013 684.5319 138.0178 685.7936 137.3663 687.248 134.5497 685.9863ZM139.4261 686.4244 142.2426 687.6861 141.591 689.1406 138.7745 687.8789ZM143.6508 688.317 146.4674 689.5787 145.8158 691.0332 142.9993 689.7714ZM147.8756 690.2095 150.6921 691.4712 150.0406 692.9257 147.2241 691.664ZM152.1004 692.1021 154.9169 693.3638 154.2654 694.8183 151.4488 693.5566ZM156.3252 693.9946 159.1417 695.2563 158.4901 696.7108 155.6736 695.4491ZM160.5499 695.8872 163.3665 697.1489 162.7149 698.6034 159.8984 697.3417ZM164.7747 697.7797 167.5912 699.0414 166.9397 700.4959 164.1232 699.2342ZM168.9995 699.6723 171.816 700.934 171.1645 702.3885 168.3479 701.1268ZM173.2243 701.5648 176.0408 702.8265 175.3892 704.281 172.5727 703.0193ZM177.449 703.4574 180.2656 704.7191 179.614 706.1736 176.7975 704.9119ZM181.6738 705.3499 184.4903 706.6116 183.8388 708.0661 181.0223 706.8044ZM185.8986 707.2425 188.7151 708.5042 188.0636 709.9587 185.247 708.697ZM190.1234 709.135 192.9399 710.3967 192.2883 711.8512 189.4718 710.5895Z" fill="#969696"/>
</g>
</g>
</g>
</g>
</g>
</svg>
