<svg xmlns="http://www.w3.org/2000/svg" xmlns:xlink="http://www.w3.org/1999/xlink" xmlns:inkscape="http://www.inkscape.org/namespaces/inkscape" version="1.1" width="118.5" height="118.463138" viewBox="0 0 118.5 118.463138">
<defs>
<clipPath id="clip_0">
<path transform="matrix(1,0,0,-1,-222.5,770.26028)" d="M222.5 651.7971H341V770.26028H222.5Z" clip-rule="evenodd"/>
</clipPath>
<clipPath id="clip_1">
<path transform="matrix(1,0,0,-1,-222.5,770.26028)" d="M0 0H612V803.25H0Z"/>
</clipPath>
<clipPath id="clip_2">
<path transform="matrix(1,0,0,-1,-222.5,770.26028)" d="M0 0H612V803.25H0Z"/>
</clipPath>
<clipPath id="clip_3">
<path transform="matrix(1,0,0,-1,-222.5,770.26028)" d="M0 0H612V803.25H0Z"/>
</clipPath>
<clipPath id="clip_4">
<path transform="matrix(1,0,0,-1,-222.5,770.26028)" d="M225.4381 710.3967C225.1429 710.2491 224.7839 710.3687 224.6363 710.664 224.4886 710.9592 224.6083 711.3182 224.9035 711.4658 262.8671 730.4476 300.8604 730.4476 338.824 711.4658 339.1192 711.3182 339.2389 710.9592 339.0913 710.664 338.9437 710.3687 338.5847 710.2491 338.2894 710.3967 300.6624 729.2102 263.0651 729.2102 225.4381 710.3967"/>
</clipPath>
<clipPath id="clip_5">
<path transform="matrix(1,0,0,-1,-222.5,770.26028)" d="M0 0H612V803.25H0Z"/>
</clipPath>
<clipPath id="clip_6">
<path transform="matrix(1,0,0,-1,-222.5,770.26028)" d="M0 0H612V803.25H0Z"/>
</clipPath>
<clipPath id="clip_7">
<path transform="matrix(1,0,0,-1,-222.5,770.26028)" d="M0 0H612V803.25H0Z"/>
</clipPath>
<clipPath id="clip_8">
<path transform="matrix(1,0,0,-1,-222.5,770.26028)" d="M0 0H612V803.25H0Z"/>
</clipPath>
</defs>
<g clip-path="url(#clip_0)">
<g clip-path="url(#clip_1)">
<g clip-path="url(#clip_2)">
<g clip-path="url(#clip_3)">
<path transform="matrix(1,0,0,-1,-222.5,770.26028)" d="M224.9035 710.3967C224.6083 710.5443 224.4886 710.9033 224.6363 711.1985 224.7839 711.4938 225.1429 711.6134 225.4381 711.4658 263.0651 692.6523 300.6624 692.6523 338.2894 711.4658 338.5847 711.6134 338.9437 711.4938 339.0913 711.1985 339.2389 710.9033 339.1192 710.5443 338.824 710.3967 300.8604 691.4149 262.8671 691.4149 224.9035 710.3967" fill="#c7c3bd"/>
</g>
<g clip-path="url(#clip_4)">
<g clip-path="url(#clip_5)">
<path transform="matrix(1,0,0,-1,-222.5,770.26028)" d="M225.4381 710.3967C226.1343 710.7448 226.8306 711.0865 227.5268 711.4217L227.0082 712.4987C226.3066 712.1609 225.6051 711.8166 224.9035 711.4658ZM228.5767 711.9224C229.2804 712.2547 229.9841 712.5804 230.6878 712.8995L230.1941 713.9881C229.4848 713.6664 228.7756 713.3382 228.0663 713.0032ZM231.7488 713.3758C232.4599 713.6916 233.1709 714.0006 233.882 714.303L233.4142 715.403C232.6973 715.0981 231.9805 714.7865 231.2637 714.4682ZM234.9539 714.7537C235.6722 715.0523 236.3904 715.3441 237.1086 715.629L236.6679 716.7401C235.9436 716.4528 235.2193 716.1586 234.4951 715.8575ZM238.1912 716.0532C238.9164 716.3339 239.6416 716.6076 240.3668 716.8743L239.9542 717.9962C239.2227 717.7271 238.4912 717.451 237.7597 717.1679ZM241.4597 717.271C242.1919 717.5332 242.9241 717.7883 243.6562 718.0363L243.2728 719.1684C242.5341 718.9182 241.7954 718.6609 241.0567 718.3963ZM244.759 718.4043C245.4973 718.6471 246.2356 718.8827 246.9738 719.1111L246.6207 720.253C245.8756 720.0226 245.1305 719.7848 244.3855 719.5398ZM248.0859 719.4495C248.83 719.6723 249.574 719.8877 250.3181 720.0958L249.9962 721.2469C249.2451 721.0369 248.4941 720.8194 247.743 720.5946ZM251.4388 720.4036C252.1888 720.6059 252.9387 720.8007 253.6887 720.988L253.399 722.1476C252.6419 721.9585 251.8847 721.7619 251.1276 721.5577ZM254.8175 721.2643C255.5726 721.4453 256.3277 721.6188 257.0828 721.7847L256.8263 722.9521C256.0638 722.7846 255.3013 722.6095 254.5389 722.4266ZM258.219 722.0285C258.9787 722.1878 259.7384 722.3394 260.4981 722.4833L260.2757 723.6577C259.5084 723.5123 258.7411 723.3593 257.9738 723.1984ZM261.6409 722.6939C262.4046 722.8309 263.1684 722.96 263.9322 723.0814L263.7445 724.2619C262.973 724.1393 262.2014 724.0088 261.4299 723.8705ZM265.0805 723.2582C265.8478 723.3723 266.615 723.4787 267.3822 723.5772L267.23 724.7627C266.4548 724.6632 265.6797 724.5558 264.9046 724.4405ZM268.5353 723.7193C269.3053 723.8103 270.0753 723.8934 270.8453 723.9686L270.7291 725.1583C269.9511 725.0823 269.173 724.9983 268.395 724.9064ZM272.0021 724.0757C272.7743 724.1432 273.5465 724.2028 274.3186 724.2545L274.2388 725.4471C273.4586 725.3949 272.6783 725.3347 271.898 725.2665ZM275.4781 724.3261C276.2517 724.3699 277.0253 724.4057 277.7989 724.4336L277.7558 725.6281C276.9741 725.5999 276.1923 725.5637 275.4105 725.5195ZM278.96 724.4694C279.7343 724.4894 280.5086 724.5013 281.2829 724.5053L281.2768 725.7006C280.4943 725.6966 279.7117 725.6845 278.9292 725.6644ZM282.4446 724.5053C283.2189 724.5013 283.9932 724.4894 284.7675 724.4694L284.7983 725.6644C284.0158 725.6845 283.2333 725.6966 282.4507 725.7006ZM285.9286 724.4336C286.7022 724.4057 287.4758 724.3699 288.2494 724.3261L288.317 725.5195C287.5352 725.5637 286.7535 725.5999 285.9717 725.6281ZM289.4089 724.2545C290.1811 724.2028 290.9532 724.1432 291.7254 724.0757L291.8295 725.2665C291.0492 725.3347 290.269 725.3949 289.4887 725.4471ZM292.8822 723.9686C293.6522 723.8934 294.4222 723.8103 295.1923 723.7193L295.3325 724.9064C294.5545 724.9983 293.7765 725.0823 292.9984 725.1583ZM296.3453 723.5772C297.1126 723.4787 297.8798 723.3723 298.647 723.2582L298.8229 724.4405C298.0478 724.5558 297.2727 724.6632 296.4976 724.7627ZM299.7954 723.0814C300.5591 722.96 301.3229 722.8309 302.0867 722.6939L302.2976 723.8705C301.5261 724.0088 300.7546 724.1393 299.983 724.2619ZM303.2294 722.4833C303.9891 722.3394 304.7488 722.1878 305.5085 722.0285L305.7538 723.1984C304.9865 723.3593 304.2192 723.5123 303.4519 723.6577ZM306.6447 721.7847C307.3998 721.6188 308.1549 721.4453 308.91 721.2643L309.1887 722.4266C308.4262 722.6095 307.6637 722.7846 306.9012 722.9521ZM310.0389 720.988C310.7888 720.8007 311.5387 720.6059 312.2887 720.4036L312.5999 721.5577C311.8428 721.7619 311.0857 721.9585 310.3285 722.1476ZM313.4095 720.0958C314.1535 719.8877 314.8976 719.6723 315.6416 719.4495L315.9845 720.5946C315.2335 720.8194 314.4824 721.0369 313.7314 721.2469ZM316.7537 719.1111C317.492 718.8827 318.2303 718.6471 318.9686 718.4043L319.342 719.5398C318.597 719.7848 317.8519 720.0226 317.1069 720.253ZM320.0713 718.0363C320.8035 717.7883 321.5357 717.5332 322.2678 717.271L322.6709 718.3963C321.9322 718.6609 321.1935 718.9182 320.4547 719.1684ZM323.3607 716.8743C324.0859 716.6076 324.8111 716.3339 325.5363 716.0532L325.9678 717.1679C325.2363 717.451 324.5048 717.7271 323.7733 717.9962ZM326.6189 715.629C327.3371 715.3441 328.0554 715.0523 328.7736 714.7537L329.2325 715.8575C328.5082 716.1586 327.7839 716.4528 327.0596 716.7401ZM329.8456 714.303C330.5566 714.0006 331.2676 713.6916 331.9787 713.3758L332.4639 714.4682C331.747 714.7865 331.0302 715.0981 330.3133 715.403ZM333.0398 712.8995C333.7434 712.5804 334.4471 712.2547 335.1508 711.9224L335.6612 713.0032C334.952 713.3382 334.2427 713.6664 333.5335 713.9881ZM336.2008 711.4217C336.897 711.0865 337.5932 710.7448 338.2894 710.3967L338.824 711.4658C338.1225 711.8166 337.4209 712.1609 336.7193 712.4987Z" fill="#c7c3bd"/>
</g>
</g>
<g clip-path="url(#clip_6)">
<path transform="matrix(1,0,0,-1,-222.5,770.26028)" d="M339.3536 711.0669C339.3536 689.876 327.8885 671.3629 310.8226 661.3927 302.3184 656.4243 292.4236 653.577 281.8637 653.577 260.6728 653.577 242.1596 665.0421 232.1894 682.108 227.2211 690.6122 224.3738 700.507 224.3738 711.0669 224.3738 732.2578 235.8389 750.7709 252.9048 760.7411 261.409 765.7095 271.3038 768.5568 281.8637 768.5568 303.0545 768.5568 321.5677 757.0917 331.5379 740.0258 336.5062 731.5216 339.3536 721.6268 339.3536 711.0669M337.7598 711.0669C337.7598 721.3335 334.9922 730.9537 330.1618 739.2219 320.4678 755.815 302.4677 766.963 281.8637 766.963 271.5971 766.963 261.9768 764.1954 253.7087 759.365 237.1156 749.671 225.9675 731.6709 225.9675 711.0669 225.9675 700.8003 228.7352 691.18 233.5656 682.9119 243.2596 666.3188 261.2597 655.1707 281.8637 655.1707 292.1303 655.1707 301.7505 657.9384 310.0187 662.7688 326.6117 672.4628 337.7598 690.4629 337.7598 711.0669" fill="#c7c3bd"/>
</g>
<g clip-path="url(#clip_7)">
<path transform="matrix(1,0,0,-1,-222.5,770.26028)" d="M312.1534 716.672C310.9864 717.839 310.9864 719.731 312.1534 720.898 313.3204 722.065 315.2124 722.065 316.3794 720.898 317.5464 719.731 317.5464 717.839 316.3794 716.672 315.2124 715.505 313.3204 715.505 312.1534 716.672" fill="#dc267f"/>
<path transform="matrix(1,0,0,-1,-222.5,770.26028)" d="M283.0621 684.6269C281.8951 685.7938 281.8951 687.6859 283.0621 688.8529 284.2291 690.0199 286.1212 690.0199 287.2882 688.8529 288.4552 687.6859 288.4552 685.7938 287.2882 684.6269 286.1212 683.4599 284.2291 683.4599 283.0621 684.6269" fill="#ffb000"/>
<path transform="matrix(1,0,0,-1,-222.5,770.26028)" d="M254.2806 701.9243C253.1136 703.0913 253.1136 704.9834 254.2806 706.1504 255.4476 707.3174 257.3397 707.3174 258.5067 706.1504 259.6737 704.9834 259.6737 703.0913 258.5067 701.9243 257.3397 700.7573 255.4476 700.7573 254.2806 701.9243" fill="#19b091"/>
<path transform="matrix(1,0,0,-1,-222.5,770.26028)" d="M281.2897 759.5668C280.1227 760.7338 280.1227 762.6259 281.2897 763.7929 282.4567 764.9599 284.3488 764.9599 285.5157 763.7929 286.6827 762.6259 286.6827 760.7338 285.5157 759.5668 284.3488 758.3998 282.4567 758.3998 281.2897 759.5668" fill="#648fff"/>
</g>
<g clip-path="url(#clip_8)">
<path transform="matrix(1,0,0,-1,-222.5,770.26028)" d="M327.2896 728.5107C329.6426 726.2043 330.8234 722.9087 330.8234 718.9265 330.8234 712.4882 327.6746 704.1639 321.8732 695.8502 319.5142 692.4697 316.72 689.0888 313.5343 685.8387 310.1339 682.3695 306.5755 679.3435 303.0176 676.8166 294.8759 671.0343 286.7228 667.8874 280.4017 667.8874 276.597 667.8874 273.4209 669.0028 271.1458 671.2328 268.7928 673.5392 267.612 676.8349 267.612 680.8171 267.612 687.2553 270.7608 695.5797 276.5623 703.8934 278.9212 707.2739 281.7154 710.6548 284.9011 713.9049 288.3016 717.374 291.8599 720.4001 295.4178 722.9269 303.5595 728.7093 311.7126 731.8562 318.0337 731.8562 321.8385 731.8562 325.0145 730.7407 327.2896 728.5107M325.0583 726.2344C323.3317 727.9268 320.8901 728.6687 318.0337 728.6687 312.2067 728.6687 304.7408 725.6386 297.2635 720.3282 293.851 717.9045 290.4389 715.001 287.1774 711.6736 284.121 708.5555 281.4395 705.3126 279.1762 702.0693 273.8334 694.4128 270.7995 686.7669 270.7995 680.8171 270.7995 677.8167 271.5829 675.2678 273.3771 673.5092 275.1037 671.8167 277.5453 671.0749 280.4017 671.0749 286.2287 671.0749 293.6946 674.105 301.1719 679.4154 304.5844 681.839 307.9965 684.7426 311.258 688.0699 314.3144 691.188 316.996 694.431 319.2592 697.6742 324.602 705.3308 327.6359 712.9766 327.6359 718.9265 327.6359 721.9269 326.8525 724.4758 325.0583 726.2344M240.4115 702.5409C240.259 703.1572 240.1838 703.7856 240.1838 704.4243 240.1838 707.3217 241.778 710.4975 244.8487 713.6505 251.3816 720.3584 264.6857 727.1182 280.8451 731.1166 289.8525 733.3453 298.4763 734.4086 305.8753 734.4086 317.7243 734.4086 326.2924 731.5413 329.0795 726.793 329.4686 726.1299 329.7566 725.4294 329.9388 724.693 330.0913 724.0768 330.1665 723.4483 330.1665 722.8096 330.1665 719.9122 328.5723 716.7364 325.5016 713.5834 318.9687 706.8755 305.6646 700.1157 289.5051 696.1173 280.4978 693.8886 271.874 692.8253 264.4749 692.8253 252.626 692.8253 244.0579 695.6926 241.2708 700.4409 240.8816 701.104 240.5937 701.8045 240.4115 702.5409M243.2097 703.2333C243.3255 702.7655 243.5097 702.3212 243.7568 701.9002 246.2453 697.6606 254.2344 695.7079 264.4749 695.7079 271.6698 695.7079 280.0546 696.7485 288.8128 698.9155 304.3188 702.7522 317.1576 709.1475 323.4365 715.5946 325.8378 718.0603 327.2838 720.503 327.2838 722.8096 327.2838 723.2135 327.237 723.6109 327.1406 724.0006 327.0248 724.4684 326.8406 724.9127 326.5934 725.3338 324.105 729.5733 316.1159 731.526 305.8753 731.526 298.6805 731.526 290.2957 730.4854 281.5375 728.3184 266.0315 724.4817 253.1927 718.0864 246.9137 711.6393 244.5125 709.1736 243.0665 706.7309 243.0665 704.4243 243.0665 704.0204 243.1133 703.623 243.2097 703.2333"/>
</g>
</g>
</g>
</g>
</svg>
