<svg xmlns="http://www.w3.org/2000/svg" xmlns:xlink="http://www.w3.org/1999/xlink" xmlns:inkscape="http://www.inkscape.org/namespaces/inkscape" version="1.1" width="575.5" height="116.986179" viewBox="0 0 575.5 116.986179">
<defs>
<clipPath id="clip_0">
<path transform="matrix(1,0,0,-1,-114.5,562.9334)" d="M114.5 445.94725H690V562.9334H114.5Z" clip-rule="evenodd"/>
</clipPath>
<clipPath id="clip_1">
<path transform="matrix(1,0,0,-1,-114.5,562.9334)" d="M0 0H792V603.4286H0Z"/>
</clipPath>
<clipPath id="clip_2">
<path transform="matrix(1,0,0,-1,-114.5,562.9334)" d="M0 0H792V603.4286H0Z"/>
</clipPath>
<clipPath id="clip_3">
<path transform="matrix(1,0,0,-1,-114.5,562.9334)" d="M0 0H792V603.4286H0Z"/>
</clipPath>
<clipPath id="clip_4">
<path transform="matrix(1,0,0,-1,-114.5,562.9334)" d="M0 0H792V603.4286H0Z"/>
</clipPath>
<clipPath id="clip_5">
<path transform="matrix(1,0,0,-1,-114.5,562.9334)" d="M0 0H792V603.4286H0Z"/>
</clipPath>
<clipPath id="clip_6">
<path transform="matrix(1,0,0,-1,-114.5,562.9334)" d="M0 0H792V603.4286H0Z"/>
</clipPath>
<clipPath id="clip_7">
<path transform="matrix(1,0,0,-1,-114.5,562.9334)" d="M0 0H792V603.4286H0Z"/>
</clipPath>
<clipPath id="clip_8">
<path transform="matrix(1,0,0,-1,-114.5,562.9334)" d="M395.3518 560.9797C395.3518 561.4137 395.7035 561.7655 396.1375 561.7655 396.5714 561.7655 396.9232 561.4137 396.9232 560.9797V447.5939C396.9232 447.1599 396.5714 446.8081 396.1375 446.8081 395.7035 446.8081 395.3518 447.1599 395.3518 447.5939Z"/>
</clipPath>
<clipPath id="clip_9">
<path transform="matrix(1,0,0,-1,-114.5,562.9334)" d="M0 0H792V603.4286H0Z"/>
</clipPath>
</defs>
<g clip-path="url(#clip_0)">
<g clip-path="url(#clip_1)">
<g clip-path="url(#clip_2)">
<g clip-path="url(#clip_3)">
<path transform="matrix(1,0,0,-1,-114.5,562.9334)" d="M300.5025 546.8429C300.2855 546.8429 300.1096 547.0188 300.1096 547.2358 300.1096 547.4528 300.2855 547.6286 300.5025 547.6286H350.1776C350.3945 547.6286 350.5704 547.4528 350.5704 547.2358 350.5704 547.0188 350.3945 546.8429 350.1776 546.8429ZM349.8373 547.0394C349.7289 547.2273 349.7932 547.4675 349.9811 547.576 350.169 547.6845 350.4093 547.6201 350.5178 547.4322L375.3553 504.4123C375.4638 504.2244 375.3994 503.9842 375.2115 503.8757 375.0236 503.7672 374.7834 503.8316 374.6749 504.0195ZM374.6749 504.4123C374.7834 504.6002 375.0236 504.6646 375.2115 504.5561 375.3994 504.4477 375.4638 504.2074 375.3553 504.0195L350.5178 460.9996C350.4093 460.8117 350.169 460.7473 349.9811 460.8558 349.7932 460.9643 349.7289 461.2046 349.8373 461.3925ZM300.5025 460.8032C300.2855 460.8032 300.1096 460.9791 300.1096 461.1961 300.1096 461.413 300.2855 461.5889 300.5025 461.5889H350.1776C350.3945 461.5889 350.5704 461.413 350.5704 461.1961 350.5704 460.9791 350.3945 460.8032 350.1776 460.8032ZM275.3247 504.0195C275.2163 504.2074 275.2806 504.4477 275.4685 504.5561 275.6564 504.6646 275.8967 504.6002 276.0052 504.4123L300.8427 461.3925C300.9512 461.2046 300.8868 460.9643 300.6989 460.8558 300.511 460.7473 300.2708 460.8117 300.1623 460.9996ZM442.0974 546.8429C441.8804 546.8429 441.7045 547.0188 441.7045 547.2358 441.7045 547.4528 441.8804 547.6286 442.0974 547.6286H491.7724C491.9894 547.6286 492.1653 547.4528 492.1653 547.2358 492.1653 547.0188 491.9894 546.8429 491.7724 546.8429ZM491.4322 547.0394C491.3237 547.2273 491.3881 547.4675 491.576 547.576 491.7639 547.6845 492.0042 547.6201 492.1127 547.4322L516.9502 504.4123C517.0587 504.2244 516.9943 503.9842 516.8064 503.8757 516.6185 503.7672 516.3782 503.8316 516.2698 504.0195ZM516.2698 504.4123C516.3782 504.6002 516.6185 504.6646 516.8064 504.5561 516.9943 504.4477 517.0587 504.2074 516.9502 504.0195L492.1127 460.9996C492.0042 460.8117 491.7639 460.7473 491.576 460.8558 491.3881 460.9643 491.3237 461.2046 491.4322 461.3925ZM442.0974 460.8032C441.8804 460.8032 441.7045 460.9791 441.7045 461.1961 441.7045 461.413 441.8804 461.5889 442.0974 461.5889H491.7724C491.9894 461.5889 492.1653 461.413 492.1653 461.1961 492.1653 460.9791 491.9894 460.8032 491.7724 460.8032ZM417.6001 504.0195C417.4916 503.8316 417.2513 503.7672 417.0634 503.8757 416.8755 503.9842 416.8111 504.2244 416.9196 504.4123L441.7572 547.4322C441.8656 547.6201 442.1059 547.6845 442.2938 547.576 442.4817 547.4675 442.5461 547.2273 442.4376 547.0394ZM416.9196 504.0195C416.8111 504.2074 416.8755 504.4477 417.0634 504.5561 417.2513 504.6646 417.4916 504.6002 417.6001 504.4123L442.4376 461.3925C442.5461 461.2046 442.4817 460.9643 442.2938 460.8558 442.1059 460.7473 441.8656 460.8117 441.7572 460.9996ZM300.5025 546.8429C300.2855 546.8429 300.1096 547.0188 300.1096 547.2358 300.1096 547.4528 300.2855 547.6286 300.5025 547.6286H350.1776C350.3945 547.6286 350.5704 547.4528 350.5704 547.2358 350.5704 547.0188 350.3945 546.8429 350.1776 546.8429ZM325.7329 544.4674C325.7329 544.2504 325.557 544.0745 325.34 544.0745 325.1231 544.0745 324.9472 544.2504 324.9472 544.4674V550.0042C324.9472 550.2211 325.1231 550.397 325.34 550.397 325.557 550.397 325.7329 550.2211 325.7329 550.0042ZM349.8373 547.0394C349.7289 547.2273 349.7932 547.4675 349.9811 547.576 350.169 547.6845 350.4093 547.6201 350.5178 547.4322L375.3553 504.4123C375.4638 504.2244 375.3994 503.9842 375.2115 503.8757 375.0236 503.7672 374.7834 503.8316 374.6749 504.0195ZM360.3953 524.0014C360.2074 523.8929 359.9671 523.9573 359.8586 524.1452 359.7501 524.3331 359.8145 524.5734 360.0024 524.6819L364.7974 527.4503C364.9853 527.5588 365.2256 527.4944 365.334 527.3065 365.4425 527.1186 365.3782 526.8783 365.1903 526.7698ZM374.6749 504.4123C374.7834 504.6002 375.0236 504.6646 375.2115 504.5561 375.3994 504.4477 375.4638 504.2074 375.3553 504.0195L350.5178 460.9996C350.4093 460.8117 350.169 460.7473 349.9811 460.8558 349.7932 460.9643 349.7289 461.2046 349.8373 461.3925ZM360.5746 484.741C360.3867 484.8495 360.3223 485.0897 360.4308 485.2776 360.5393 485.4655 360.7795 485.5299 360.9674 485.4214L365.7624 482.653C365.9503 482.5446 366.0147 482.3043 365.9062 482.1164 365.7977 481.9285 365.5575 481.8641 365.3696 481.9726ZM364.6181 480.671C364.806 480.5625 364.8704 480.3222 364.7619 480.1343 364.6534 479.9464 364.4131 479.8821 364.2252 479.9905L359.4302 482.7589C359.2423 482.8674 359.1779 483.1077 359.2864 483.2956 359.3949 483.4835 359.6352 483.5479 359.8231 483.4394ZM359.4302 482.7589C359.2423 482.8674 359.1779 483.1077 359.2864 483.2956 359.3949 483.4835 359.6352 483.5479 359.8231 483.4394L364.6181 480.671C364.806 480.5625 364.8704 480.3222 364.7619 480.1343 364.6534 479.9464 364.4131 479.8821 364.2252 479.9905ZM350.1776 461.5889C350.3945 461.5889 350.5704 461.413 350.5704 461.1961 350.5704 460.9791 350.3945 460.8032 350.1776 460.8032H300.5025C300.2855 460.8032 300.1096 460.9791 300.1096 461.1961 300.1096 461.413 300.2855 461.5889 300.5025 461.5889ZM326.0915 463.9644C326.0915 464.1814 326.2674 464.3573 326.4844 464.3573 326.7013 464.3573 326.8772 464.1814 326.8772 463.9644V458.4277C326.8772 458.2107 326.7013 458.0348 326.4844 458.0348 326.2674 458.0348 326.0915 458.2107 326.0915 458.4277ZM324.5885 458.4277C324.5885 458.2107 324.4127 458.0348 324.1957 458.0348 323.9787 458.0348 323.8028 458.2107 323.8028 458.4277V463.9644C323.8028 464.1814 323.9787 464.3573 324.1957 464.3573 324.4127 464.3573 324.5885 464.1814 324.5885 463.9644ZM323.8028 463.9644C323.8028 464.1814 323.9787 464.3573 324.1957 464.3573 324.4127 464.3573 324.5885 464.1814 324.5885 463.9644V458.4277C324.5885 458.2107 324.4127 458.0348 324.1957 458.0348 323.9787 458.0348 323.8028 458.2107 323.8028 458.4277ZM284.6365 482.8896C284.4492 482.7802 284.2086 482.8434 284.0992 483.0308 283.9899 483.2182 284.0531 483.4588 284.2405 483.5682L289.0225 486.359C289.2099 486.4683 289.4504 486.4051 289.5598 486.2177 289.6692 486.0303 289.6059 485.7897 289.4185 485.6804ZM290.1761 484.3823C290.3635 484.4917 290.604 484.4284 290.7134 484.241 290.8228 484.0536 290.7595 483.8131 290.5721 483.7037L285.7902 480.9129C285.6028 480.8035 285.3622 480.8668 285.2528 481.0542 285.1435 481.2415 285.2067 481.4821 285.3941 481.5915ZM291.3297 482.4056C291.5171 482.515 291.7577 482.4517 291.867 482.2643 291.9764 482.0769 291.9131 481.8364 291.7257 481.727L286.9438 478.9362C286.7564 478.8268 286.5158 478.8901 286.4064 479.0775 286.2971 479.2649 286.3603 479.5054 286.5477 479.6148ZM286.4329 528.6351C286.245 528.7436 286.1806 528.9838 286.2891 529.1717 286.3976 529.3596 286.6379 529.424 286.8258 529.3155L291.6208 526.5471C291.8087 526.4387 291.8731 526.1984 291.7646 526.0105 291.6561 525.8226 291.4158 525.7582 291.2279 525.8667ZM290.4764 524.5651C290.6643 524.4566 290.7287 524.2163 290.6202 524.0284 290.5117 523.8405 290.2715 523.7761 290.0836 523.8846L285.2886 526.653C285.1007 526.7615 285.0363 527.0018 285.1448 527.1897 285.2533 527.3776 285.4935 527.442 285.6814 527.3335ZM289.3321 522.583C289.52 522.4745 289.5844 522.2343 289.4759 522.0464 289.3674 521.8585 289.1271 521.7941 288.9392 521.9026L284.1442 524.671C283.9563 524.7794 283.892 525.0197 284.0004 525.2076 284.1089 525.3955 284.3492 525.4599 284.5371 525.3514ZM300.1623 547.4322C300.2708 547.6201 300.511 547.6845 300.6989 547.576 300.8868 547.4675 300.9512 547.2273 300.8427 547.0394L276.0052 504.0195C275.8967 503.8316 275.6564 503.7672 275.4685 503.8757 275.2806 503.9842 275.2163 504.2244 275.3247 504.4123ZM442.0974 546.8429C441.8804 546.8429 441.7045 547.0188 441.7045 547.2358 441.7045 547.4528 441.8804 547.6286 442.0974 547.6286H491.7724C491.9894 547.6286 492.1653 547.4528 492.1653 547.2358 492.1653 547.0188 491.9894 546.8429 491.7724 546.8429ZM467.3278 544.4674C467.3278 544.2504 467.1519 544.0745 466.9349 544.0745 466.7179 544.0745 466.5421 544.2504 466.5421 544.4674V550.0042C466.5421 550.2211 466.7179 550.397 466.9349 550.397 467.1519 550.397 467.3278 550.2211 467.3278 550.0042ZM442.0974 460.8032C441.8804 460.8032 441.7045 460.9791 441.7045 461.1961 441.7045 461.413 441.8804 461.5889 442.0974 461.5889H491.7724C491.9894 461.5889 492.1653 461.413 492.1653 461.1961 492.1653 460.9791 491.9894 460.8032 491.7724 460.8032ZM467.3278 458.4277C467.3278 458.2107 467.1519 458.0348 466.9349 458.0348 466.7179 458.0348 466.5421 458.2107 466.5421 458.4277V463.9644C466.5421 464.1814 466.7179 464.3573 466.9349 464.3573 467.1519 464.3573 467.3278 464.1814 467.3278 463.9644ZM491.4322 547.0394C491.3237 547.2273 491.3881 547.4675 491.576 547.576 491.7639 547.6845 492.0042 547.6201 492.1127 547.4322L516.9502 504.4123C517.0587 504.2244 516.9943 503.9842 516.8064 503.8757 516.6185 503.7672 516.3782 503.8316 516.2698 504.0195ZM501.418 524.9925C501.2301 524.884 500.9898 524.9484 500.8813 525.1363 500.7728 525.3242 500.8372 525.5644 501.0251 525.6729L505.8201 528.4413C506.008 528.5498 506.2483 528.4854 506.3568 528.2975 506.4652 528.1096 506.4009 527.8693 506.213 527.7609ZM506.9645 526.4592C507.1524 526.5677 507.3926 526.5033 507.5011 526.3154 507.6096 526.1275 507.5452 525.8873 507.3573 525.7788L502.5623 523.0104C502.3744 522.9019 502.1341 522.9663 502.0257 523.1542 501.9172 523.3421 501.9816 523.5824 502.1695 523.6909ZM502.5623 523.0104C502.3744 522.9019 502.1341 522.9663 502.0257 523.1542 501.9172 523.3421 501.9816 523.5824 502.1695 523.6909L506.9645 526.4592C507.1524 526.5677 507.3926 526.5033 507.5011 526.3154 507.6096 526.1275 507.5452 525.8873 507.3573 525.7788ZM516.2698 504.4123C516.3782 504.6002 516.6185 504.6646 516.8064 504.5561 516.9943 504.4477 517.0587 504.2074 516.9502 504.0195L492.1127 460.9996C492.0042 460.8117 491.7639 460.7473 491.576 460.8558 491.3881 460.9643 491.3237 461.2046 491.4322 461.3925ZM502.1695 484.741C501.9816 484.8495 501.9172 485.0897 502.0257 485.2776 502.1341 485.4655 502.3744 485.5299 502.5623 485.4214L507.3573 482.653C507.5452 482.5446 507.6096 482.3043 507.5011 482.1164 507.3926 481.9285 507.1524 481.8641 506.9645 481.9726ZM506.213 480.671C506.4009 480.5625 506.4652 480.3222 506.3568 480.1343 506.2483 479.9464 506.008 479.8821 505.8201 479.9905L501.0251 482.7589C500.8372 482.8674 500.7728 483.1077 500.8813 483.2956 500.9898 483.4835 501.2301 483.5479 501.418 483.4394ZM501.0251 482.7589C500.8372 482.8674 500.7728 483.1077 500.8813 483.2956 500.9898 483.4835 501.2301 483.5479 501.418 483.4394L506.213 480.671C506.4009 480.5625 506.4652 480.3222 506.3568 480.1343 506.2483 479.9464 506.008 479.8821 505.8201 479.9905ZM426.3332 482.9636C426.1453 482.8551 425.905 482.9195 425.7966 483.1074 425.6881 483.2953 425.7525 483.5356 425.9404 483.6441L430.7353 486.4125C430.9232 486.5209 431.1635 486.4566 431.272 486.2687 431.3805 486.0808 431.3161 485.8405 431.1282 485.732ZM431.8797 484.4304C432.0676 484.5389 432.3079 484.4745 432.4163 484.2866 432.5248 484.0987 432.4604 483.8584 432.2725 483.75L427.4776 480.9816C427.2897 480.8731 427.0494 480.9375 426.9409 481.1254 426.8324 481.3133 426.8968 481.5535 427.0847 481.662ZM433.024 482.4483C433.2119 482.5568 433.4522 482.4925 433.5607 482.3046 433.6692 482.1167 433.6048 481.8764 433.4169 481.7679L428.6219 478.9995C428.434 478.891 428.1937 478.9554 428.0852 479.1433 427.9768 479.3312 428.0411 479.5715 428.229 479.68ZM416.9196 504.0195C416.8111 504.2074 416.8755 504.4477 417.0634 504.5561 417.2513 504.6646 417.4916 504.6002 417.6001 504.4123L442.4376 461.3925C442.5461 461.2046 442.4817 460.9643 442.2938 460.8558 442.1059 460.7473 441.8656 460.8117 441.7572 460.9996ZM428.1469 528.8138C427.9595 528.9231 427.8961 529.1637 428.0055 529.3511 428.1148 529.5385 428.3553 529.6018 428.5428 529.4925L433.3254 526.7028C433.5128 526.5935 433.5761 526.3529 433.4668 526.1655 433.3575 525.9781 433.1169 525.9148 432.9295 526.0241ZM432.1722 524.7259C432.3596 524.6165 432.4229 524.376 432.3136 524.1886 432.2043 524.0011 431.9638 523.9378 431.7763 524.0472L426.9937 526.8369C426.8063 526.9462 426.743 527.1867 426.8523 527.3742 426.9616 527.5616 427.2022 527.6249 427.3896 527.5156ZM431.0191 522.7489C431.2065 522.6396 431.2698 522.399 431.1605 522.2116 431.0511 522.0242 430.8106 521.9609 430.6232 522.0702L425.8406 524.8599C425.6531 524.9692 425.5898 525.2098 425.6992 525.3972 425.8085 525.5846 426.049 525.6479 426.2364 525.5386ZM441.758 547.4337C441.8674 547.6211 442.1079 547.6845 442.2953 547.5751 442.4827 547.4658 442.5461 547.2253 442.4367 547.0378L417.4079 504.129C417.2986 503.9416 417.058 503.8783 416.8706 503.9876 416.6832 504.0969 416.6199 504.3375 416.7292 504.5249ZM134.0543 546.0282 118.808 469.801 191.9246 500.0742ZM134.0394 547.0433 192.936 500.2743C193.1706 500.088 193.1188 499.7182 192.842 499.6036L118.4287 468.7936C118.1385 468.6734 117.8316 468.9256 117.8932 469.2336L133.4099 546.8127C133.4675 547.1007 133.8094 547.226 134.0394 547.0433M127.1351 526.7315C126.9427 526.77 126.818 526.9571 126.8565 527.1494 126.8949 527.3418 127.082 527.4665 127.2744 527.428L132.1824 526.4464C132.3748 526.4079 132.4995 526.2208 132.461 526.0285 132.4226 525.8361 132.2355 525.7114 132.0431 525.7499ZM131.7767 524.4176C131.969 524.3791 132.0937 524.192 132.0553 523.9997 132.0168 523.8073 131.8297 523.6826 131.6374 523.7211L126.7293 524.7027C126.537 524.7412 126.4122 524.9283 126.4507 525.1206 126.4892 525.313 126.6763 525.4377 126.8686 525.3992ZM131.3709 522.3888C131.5632 522.3503 131.6879 522.1632 131.6495 521.9709 131.611 521.7785 131.4239 521.6538 131.2316 521.6923L126.3235 522.6739C126.1312 522.7124 126.0064 522.8995 126.0449 523.0918 126.0834 523.2842 126.2705 523.4089 126.4628 523.3704ZM119.8703 485.6725C119.7465 485.6972 119.6662 485.8177 119.691 485.9415 119.7157 486.0652 119.8362 486.1455 119.96 486.1208L123.1191 485.4889C123.2429 485.4641 123.3232 485.3437 123.2984 485.2199 123.2737 485.0961 123.1532 485.0158 123.0294 485.0406ZM122.8579 484.183C122.9817 484.1583 123.062 484.0378 123.0372 483.9141 123.0125 483.7903 122.892 483.71 122.7683 483.7347L119.6091 484.3666C119.4853 484.3914 119.405 484.5118 119.4298 484.6356 119.4545 484.7594 119.575 484.8397 119.6988 484.8149ZM122.5967 482.8772C122.7205 482.8524 122.8008 482.732 122.7761 482.6082 122.7513 482.4844 122.6309 482.4041 122.5071 482.4289L119.3479 483.0607C119.2241 483.0855 119.1438 483.2059 119.1686 483.3297 119.1934 483.4535 119.3138 483.5338 119.4376 483.509ZM171.9058 512.9374C171.7708 512.7675 171.5237 512.7391 171.3538 512.8741 171.1839 513.009 171.1555 513.2561 171.2904 513.426L174.7336 517.762C174.8685 517.9319 175.1156 517.9603 175.2856 517.8253 175.4555 517.6904 175.4838 517.4433 175.3489 517.2734ZM142.5131 537.8888C142.4396 537.7964 142.3051 537.7809 142.2127 537.8544 142.1202 537.9278 142.1047 538.0623 142.1782 538.1548L144.0521 540.5147C144.1256 540.6071 144.2601 540.6226 144.3525 540.5491 144.445 540.4757 144.4605 540.3412 144.387 540.2487ZM169.3787 493.3104C169.2957 493.5109 169.3909 493.7407 169.5914 493.8237 169.7919 493.9067 170.0217 493.8114 170.1047 493.611L172.2227 488.4953C172.3057 488.2949 172.2105 488.0651 172.0101 487.9821 171.8096 487.8991 171.5798 487.9943 171.4968 488.1948ZM170.1081 487.6198C170.1911 487.4193 170.0959 487.1895 169.8955 487.1065 169.695 487.0235 169.4652 487.1188 169.3822 487.3192L167.2641 492.4349C167.1811 492.6353 167.2763 492.8651 167.4768 492.9481 167.6773 493.0311 167.9071 492.9359 167.9901 492.7354ZM167.2641 492.4349C167.1811 492.6353 167.2763 492.8651 167.4768 492.9481 167.6773 493.0311 167.9071 492.9359 167.9901 492.7354L170.1081 487.6198C170.1911 487.4193 170.0959 487.1895 169.8955 487.1065 169.695 487.0235 169.4652 487.1188 169.3822 487.3192ZM132.2561 476.8125C132.2043 476.9375 132.2637 477.0808 132.3887 477.1326 132.5137 477.1843 132.657 477.125 132.7088 476.9999L134.0297 473.8096C134.0815 473.6846 134.0221 473.5413 133.8971 473.4895 133.7721 473.4377 133.6288 473.4971 133.577 473.6221ZM132.711 473.2636C132.7627 473.1386 132.7033 472.9952 132.5783 472.9435 132.4533 472.8917 132.31 472.9511 132.2582 473.0761L130.9373 476.2665C130.8855 476.3915 130.9449 476.5348 131.0699 476.5866 131.195 476.6383 131.3383 476.5789 131.39 476.4539ZM130.9373 476.2665C130.8855 476.3915 130.9449 476.5348 131.0699 476.5866 131.195 476.6383 131.3383 476.5789 131.39 476.4539L132.711 473.2636C132.7627 473.1386 132.7033 472.9952 132.5783 472.9435 132.4533 472.8917 132.31 472.9511 132.2582 473.0761ZM261.3543 504.6088C261.5712 504.6088 261.7471 504.4329 261.7471 504.2159 261.7471 503.999 261.5712 503.8231 261.3543 503.8231 237.0432 503.8231 237.0432 503.8231 212.7321 503.8231 212.5152 503.8231 212.3393 503.999 212.3393 504.2159 212.3393 504.4329 212.5152 504.6088 212.7321 504.6088 237.0432 504.6088 237.0432 504.6088 261.3543 504.6088M212.7321 500.7069 204.6613 504.2159 212.7321 507.725ZM530.6457 503.8231C530.4288 503.8231 530.2529 503.999 530.2529 504.2159 530.2529 504.4329 530.4288 504.6088 530.6457 504.6088 542.8013 504.6088 542.8013 504.6088 554.9568 504.6088 567.1123 504.6088 567.1123 504.6088 579.2679 504.6088 579.4848 504.6088 579.6607 504.4329 579.6607 504.2159 579.6607 503.999 579.4848 503.8231 579.2679 503.8231 567.1123 503.8231 567.1123 503.8231 554.9568 503.8231 542.8013 503.8231 542.8013 503.8231 530.6457 503.8231M579.2679 507.725 587.3387 504.2159 579.2679 500.7069Z"/>
<path transform="matrix(1,0,0,-1,-114.5,562.9334)" d="M610.7491 472.0169C609.982 472.784 609.982 474.0278 610.7491 474.7949 611.5162 475.562 612.7599 475.562 613.527 474.7949 614.2941 474.0278 614.2941 472.784 613.527 472.0169 612.7599 471.2498 611.5162 471.2498 610.7491 472.0169M685.1624 502.827C684.3953 503.5941 684.3953 504.8378 685.1624 505.6049 685.9295 506.372 687.1732 506.372 687.9403 505.6049 688.7074 504.8378 688.7074 503.5941 687.9403 502.827 687.1732 502.0599 685.9295 502.0599 685.1624 502.827" fill="#648fff"/>
<path transform="matrix(1,0,0,-1,-114.5,562.9334)" d="M646.3395 533.6557C645.5724 534.4228 645.5724 535.6665 646.3395 536.4336 647.1066 537.2007 648.3503 537.2007 649.1174 536.4336 649.8845 535.6665 649.8845 534.4228 649.1174 533.6557 648.3503 532.8886 647.1066 532.8886 646.3395 533.6557" fill="#dc267f"/>
<path transform="matrix(1,0,0,-1,-114.5,562.9334)" d="M665.7654 517.1867C665.6304 517.0168 665.3833 516.9885 665.2134 517.1234 665.0435 517.2583 665.0151 517.5054 665.15 517.6753L668.5932 522.0113C668.7281 522.1812 668.9752 522.2096 669.1452 522.0747 669.3151 521.9397 669.3434 521.6926 669.2085 521.5227Z"/>
</g>
<g clip-path="url(#clip_4)">
<path transform="matrix(1,0,0,-1,-114.5,562.9334)" d="M348.7886 545.8468C348.0215 546.6139 348.0215 547.8576 348.7886 548.6247 349.5557 549.3918 350.7994 549.3918 351.5665 548.6247 352.3336 547.8576 352.3336 546.6139 351.5665 545.8468 350.7994 545.0797 349.5557 545.0797 348.7886 545.8468" fill="#dc267f"/>
<path transform="matrix(1,0,0,-1,-114.5,562.9334)" d="M348.7886 459.8071C348.0215 460.5742 348.0215 461.8179 348.7886 462.585 349.5557 463.3521 350.7994 463.3521 351.5665 462.585 352.3336 461.8179 352.3336 460.5742 351.5665 459.8071 350.7994 459.04 349.5557 459.04 348.7886 459.8071" fill="#ffb000"/>
<path transform="matrix(1,0,0,-1,-114.5,562.9334)" d="M274.7296 502.827C273.9625 503.5941 273.9625 504.8378 274.7296 505.6049 275.4967 506.372 276.7405 506.372 277.5076 505.6049 278.2747 504.8378 278.2747 503.5941 277.5076 502.827 276.7405 502.0599 275.4967 502.0599 274.7296 502.827" fill="#19b091"/>
<path transform="matrix(1,0,0,-1,-114.5,562.9334)" d="M299.1135 459.8071C298.3464 460.5742 298.3464 461.8179 299.1135 462.585 299.8806 463.3521 301.1244 463.3521 301.8915 462.585 302.6586 461.8179 302.6586 460.5742 301.8915 459.8071 301.1244 459.04 299.8806 459.04 299.1135 459.8071M299.1135 545.8468C298.3464 546.6139 298.3464 547.8576 299.1135 548.6247 299.8806 549.3918 301.1244 549.3918 301.8915 548.6247 302.6586 547.8576 302.6586 546.6139 301.8915 545.8468 301.1244 545.0797 299.8806 545.0797 299.1135 545.8468" fill="#648fff"/>
<path transform="matrix(1,0,0,-1,-114.5,562.9334)" d="M373.6261 502.827C372.859 503.5941 372.859 504.8378 373.6261 505.6049 374.3932 506.372 375.637 506.372 376.4041 505.6049 377.1712 504.8378 377.1712 503.5941 376.4041 502.827 375.637 502.0599 374.3932 502.0599 373.6261 502.827" fill="#648fff"/>
<path transform="matrix(1,0,0,-1,-114.5,562.9334)" d="M132.4062 545.3467C131.6391 546.1138 131.6391 547.3575 132.4062 548.1246 133.1733 548.8917 134.417 548.8917 135.1841 548.1246 135.9512 547.3575 135.9512 546.1138 135.1841 545.3467 134.417 544.5796 133.1733 544.5796 132.4062 545.3467" fill="#648fff"/>
<path transform="matrix(1,0,0,-1,-114.5,562.9334)" d="M116.8895 467.7676C116.1224 468.5347 116.1224 469.7784 116.8895 470.5455 117.6566 471.3126 118.9003 471.3126 119.6674 470.5455 120.4345 469.7784 120.4345 468.5347 119.6674 467.7676 118.9003 467.0005 117.6566 467.0005 116.8895 467.7676" fill="#648fff"/>
<path transform="matrix(1,0,0,-1,-114.5,562.9334)" d="M191.3028 498.5776C190.5357 499.3447 190.5357 500.5885 191.3028 501.3556 192.0699 502.1227 193.3136 502.1227 194.0807 501.3556 194.8478 500.5885 194.8478 499.3447 194.0807 498.5776 193.3136 497.8105 192.0699 497.8105 191.3028 498.5776" fill="#648fff"/>
<path transform="matrix(1,0,0,-1,-114.5,562.9334)" d="M146.6119 480.0739C145.8448 480.841 145.8448 482.0847 146.6119 482.8518 147.379 483.6189 148.6228 483.6189 149.3899 482.8518 150.157 482.0847 150.157 480.841 149.3899 480.0739 148.6228 479.3068 147.379 479.3068 146.6119 480.0739" fill="#ffb000"/>
<path transform="matrix(1,0,0,-1,-114.5,562.9334)" d="M152.4799 529.4064C151.7128 530.1735 151.7128 531.4172 152.4799 532.1843 153.247 532.9514 154.4907 532.9514 155.2578 532.1843 156.0249 531.4172 156.0249 530.1735 155.2578 529.4064 154.4907 528.6393 153.247 528.6393 152.4799 529.4064" fill="#dc267f"/>
<path transform="matrix(1,0,0,-1,-114.5,562.9334)" d="M122.9949 498.2932C122.2278 499.0603 122.2278 500.304 122.9949 501.0711 123.762 501.8382 125.0058 501.8382 125.7729 501.0711 126.54 500.304 126.54 499.0603 125.7729 498.2932 125.0058 497.5261 123.762 497.5261 122.9949 498.2932" fill="#19b091"/>
<path transform="matrix(1,0,0,-1,-114.5,562.9334)" d="M515.221 502.827C514.4539 503.5941 514.4539 504.8378 515.221 505.6049 515.9881 506.372 517.2318 506.372 517.9989 505.6049 518.766 504.8378 518.766 503.5941 517.9989 502.827 517.2318 502.0599 515.9881 502.0599 515.221 502.827" fill="#ffb000"/>
<path transform="matrix(1,0,0,-1,-114.5,562.9334)" d="M415.6796 502.938C414.9125 503.7051 414.9125 504.9488 415.6796 505.7159 416.4467 506.483 417.6904 506.483 418.4575 505.7159 419.2246 504.9488 419.2246 503.7051 418.4575 502.938 417.6904 502.1709 416.4467 502.1709 415.6796 502.938" fill="#19b091"/>
<path transform="matrix(1,0,0,-1,-114.5,562.9334)" d="M440.7084 545.8468C439.9413 546.6139 439.9413 547.8576 440.7084 548.6247 441.4755 549.3918 442.7192 549.3918 443.4863 548.6247 444.2534 547.8576 444.2534 546.6139 443.4863 545.8468 442.7192 545.0797 441.4755 545.0797 440.7084 545.8468" fill="#648fff"/>
<path transform="matrix(1,0,0,-1,-114.5,562.9334)" d="M440.7084 459.8071C439.9413 460.5742 439.9413 461.8179 440.7084 462.585 441.4755 463.3521 442.7192 463.3521 443.4863 462.585 444.2534 461.8179 444.2534 460.5742 443.4863 459.8071 442.7192 459.04 441.4755 459.04 440.7084 459.8071" fill="#648fff"/>
<path transform="matrix(1,0,0,-1,-114.5,562.9334)" d="M490.3835 545.8468C489.6164 546.6139 489.6164 547.8576 490.3835 548.6247 491.1506 549.3918 492.3943 549.3918 493.1614 548.6247 493.9285 547.8576 493.9285 546.6139 493.1614 545.8468 492.3943 545.0797 491.1506 545.0797 490.3835 545.8468" fill="#dc267f"/>
<path transform="matrix(1,0,0,-1,-114.5,562.9334)" d="M490.3835 459.8071C489.6164 460.5742 489.6164 461.8179 490.3835 462.585 491.1506 463.3521 492.3943 463.3521 493.1614 462.585 493.9285 461.8179 493.9285 460.5742 493.1614 459.8071 492.3943 459.04 491.1506 459.04 490.3835 459.8071" fill="#dc267f"/>
<path transform="matrix(1,0,0,-1,-114.5,562.9334)" d="M640.4715 484.3232C639.7044 485.0903 639.7044 486.334 640.4715 487.1011 641.2386 487.8682 642.4824 487.8682 643.2495 487.1011 644.0166 486.334 644.0166 485.0903 643.2495 484.3232 642.4824 483.5561 641.2386 483.5561 640.4715 484.3232" fill="#ffb000"/>
<path transform="matrix(1,0,0,-1,-114.5,562.9334)" d="M616.8545 502.5425C616.0874 503.3096 616.0874 504.5533 616.8545 505.3204 617.6216 506.0875 618.8654 506.0875 619.6325 505.3204 620.3996 504.5533 620.3996 503.3096 619.6325 502.5425 618.8654 501.7754 617.6216 501.7754 616.8545 502.5425" fill="#19b091"/>
<path transform="matrix(1,0,0,-1,-114.5,562.9334)" d="M663.2383 497.5597C663.1553 497.7602 663.2505 497.99 663.451 498.073 663.6515 498.156 663.8813 498.0608 663.9643 497.8603L666.0823 492.7447C666.1653 492.5442 666.0701 492.3144 665.8697 492.2314 665.6692 492.1484 665.4394 492.2436 665.3564 492.4441ZM663.9677 491.8691C664.0507 491.6687 663.9555 491.4389 663.7551 491.3559 663.5546 491.2729 663.3248 491.3681 663.2418 491.5686L661.1237 496.6842C661.0407 496.8847 661.1359 497.1145 661.3364 497.1975 661.5369 497.2805 661.7667 497.1852 661.8497 496.9848ZM661.1237 496.6842C661.0407 496.8847 661.1359 497.1145 661.3364 497.1975 661.5369 497.2805 661.7667 497.1852 661.8497 496.9848L663.9677 491.8691C664.0507 491.6687 663.9555 491.4389 663.7551 491.3559 663.5546 491.2729 663.3248 491.3681 663.2418 491.5686Z"/>
<path transform="matrix(1,0,0,-1,-114.5,562.9334)" d="M626.1157 481.0618C626.0639 481.1868 626.1233 481.3301 626.2483 481.3819 626.3733 481.4337 626.5166 481.3743 626.5684 481.2493L627.8893 478.0589C627.9411 477.9339 627.8817 477.7906 627.7567 477.7388 627.6317 477.6871 627.4884 477.7465 627.4366 477.8715Z"/>
</g>
<g clip-path="url(#clip_5)">
<path transform="matrix(1,0,0,-1,-114.5,562.9334)" d="M626.5706 477.5129C626.6223 477.3879 626.5629 477.2446 626.4379 477.1928 626.3129 477.141 626.1696 477.2004 626.1178 477.3255L624.7969 480.5158C624.7451 480.6408 624.8045 480.7841 624.9295 480.8359 625.0546 480.8877 625.1979 480.8283 625.2496 480.7032ZM624.7969 480.5158C624.7451 480.6408 624.8045 480.7841 624.9295 480.8359 625.0546 480.8877 625.1979 480.8283 625.2496 480.7032L626.5706 477.5129C626.6223 477.3879 626.5629 477.2446 626.4379 477.1928 626.3129 477.141 626.1696 477.2004 626.1178 477.3255ZM599.4005 483.4768C599.2513 483.3193 599.0026 483.3126 598.8451 483.4619 598.6877 483.6111 598.681 483.8598 598.8302 484.0173L647.4433 535.3149C647.5925 535.4724 647.8412 535.4791 647.9987 535.3298 648.1562 535.1806 648.1628 534.9319 648.0136 534.7744ZM598.8711 483.4394C598.7012 483.5743 598.6728 483.8214 598.8077 483.9913 598.9426 484.1613 599.1898 484.1896 599.3597 484.0547L612.3824 473.7136C612.5523 473.5786 612.5806 473.3315 612.4457 473.1616 612.3108 472.9917 612.0637 472.9633 611.8937 473.0983ZM631.4447 521.6522C631.3023 521.7871 631.2963 522.0119 631.4312 522.1543 631.5661 522.2967 631.7909 522.3027 631.9332 522.1678L635.5663 518.7249C635.7087 518.5899 635.7147 518.3652 635.5798 518.2228 635.4449 518.0804 635.2201 518.0744 635.0777 518.2093ZM634.1431 517.2231C634.2855 517.0882 634.2915 516.8634 634.1566 516.721 634.0217 516.5787 633.7969 516.5726 633.6545 516.7075L630.0215 520.1505C629.8791 520.2854 629.8731 520.5102 630.008 520.6525 630.1429 520.7949 630.3677 520.8009 630.5101 520.666ZM632.72 515.7213C632.8623 515.5864 632.8684 515.3616 632.7334 515.2193 632.5985 515.0769 632.3737 515.0709 632.2314 515.2058L628.5983 518.6487C628.456 518.7836 628.4499 519.0084 628.5848 519.1508 628.7198 519.2931 628.9445 519.2992 629.0869 519.1643ZM609.2519 496.8832C609.1603 496.97 609.1564 497.1147 609.2432 497.2064 609.3301 497.298 609.4748 497.3019 609.5664 497.2151L611.9049 494.999C611.9965 494.9121 612.0004 494.7674 611.9135 494.6758 611.8267 494.5842 611.682 494.5803 611.5904 494.6671ZM610.9888 494.0323C611.0805 493.9455 611.0843 493.8008 610.9975 493.7092 610.9107 493.6175 610.766 493.6136 610.6743 493.7005L608.3359 495.9166C608.2442 496.0034 608.2403 496.1481 608.3272 496.2397 608.414 496.3314 608.5587 496.3353 608.6504 496.2484ZM610.0728 493.0657C610.1644 492.9789 610.1683 492.8342 610.0815 492.7425 609.9946 492.6509 609.8499 492.647 609.7583 492.7339L607.4198 494.9499C607.3282 495.0368 607.3243 495.1815 607.4111 495.2731 607.498 495.3647 607.6427 495.3686 607.7343 495.2818ZM604.8572 477.2636C604.7837 477.1711 604.6492 477.1557 604.5568 477.2291 604.4643 477.3025 604.4489 477.437 604.5223 477.5295L606.3962 479.8894C606.4697 479.9819 606.6042 479.9973 606.6967 479.9239 606.7891 479.8504 606.8046 479.7159 606.7311 479.6234ZM647.4841 534.737C647.3142 534.8719 647.2859 535.1191 647.4208 535.289 647.5557 535.4589 647.8028 535.4873 647.9728 535.3523L686.7956 504.5236C686.9656 504.3886 686.9939 504.1415 686.859 503.9716 686.7241 503.8017 686.4769 503.7733 686.307 503.9083ZM612.2883 473.0429C612.0879 472.9599 611.8581 473.0552 611.7751 473.2556 611.6921 473.4561 611.7873 473.6859 611.9878 473.7689L686.4011 504.5789C686.6015 504.6619 686.8313 504.5667 686.9143 504.3662 686.9973 504.1657 686.9021 503.9359 686.7016 503.8529Z"/>
</g>
<g clip-path="url(#clip_6)">
<path transform="matrix(1,0,0,-1,-114.5,562.9334)" d="M597.7264 482.3581C596.9593 483.1252 596.9593 484.3689 597.7264 485.136 598.4935 485.9031 599.7372 485.9031 600.5043 485.136 601.2714 484.3689 601.2714 483.1252 600.5043 482.3581 599.7372 481.591 598.4935 481.591 597.7264 482.3581M646.3395 533.6557C645.5724 534.4228 645.5724 535.6665 646.3395 536.4336 647.1066 537.2007 648.3503 537.2007 649.1174 536.4336 649.8845 535.6665 649.8845 534.4228 649.1174 533.6557 648.3503 532.8886 647.1066 532.8886 646.3395 533.6557" fill="#dc267f"/>
<path transform="matrix(1,0,0,-1,-114.5,562.9334)" d="M610.7491 472.0169C609.982 472.784 609.982 474.0278 610.7491 474.7949 611.5162 475.562 612.7599 475.562 613.527 474.7949 614.2941 474.0278 614.2941 472.784 613.527 472.0169 612.7599 471.2498 611.5162 471.2498 610.7491 472.0169" fill="#648fff"/>
<path transform="matrix(1,0,0,-1,-114.5,562.9334)" d="M685.1624 502.827C684.3953 503.5941 684.3953 504.8378 685.1624 505.6049 685.9295 506.372 687.1732 506.372 687.9403 505.6049 688.7074 504.8378 688.7074 503.5941 687.9403 502.827 687.1732 502.0599 685.9295 502.0599 685.1624 502.827" fill="#648fff"/>
</g>
<g clip-path="url(#clip_7)">
<path transform="matrix(1,0,0,-1,-114.5,562.9334)" d="M616.8545 502.5425C616.0874 503.3096 616.0874 504.5533 616.8545 505.3204 617.6216 506.0875 618.8654 506.0875 619.6325 505.3204 620.3996 504.5533 620.3996 503.3096 619.6325 502.5425 618.8654 501.7754 617.6216 501.7754 616.8545 502.5425" fill="#19b091"/>
<path transform="matrix(1,0,0,-1,-114.5,562.9334)" d="M640.4715 484.3232C639.7044 485.0903 639.7044 486.334 640.4715 487.1011 641.2386 487.8682 642.4824 487.8682 643.2495 487.1011 644.0166 486.334 644.0166 485.0903 643.2495 484.3232 642.4824 483.5561 641.2386 483.5561 640.4715 484.3232" fill="#ffb000"/>
</g>
<g clip-path="url(#clip_8)">
<g clip-path="url(#clip_9)">
<path transform="matrix(1,0,0,-1,-114.5,562.9334)" d="M395.3518 560.9797V557.9153H396.9232V560.9797ZM395.3518 556.383V553.3185H396.9232V556.383ZM395.3518 551.7863V548.7218H396.9232V551.7863ZM395.3518 547.1896V544.1251H396.9232V547.1896ZM395.3518 542.5928V539.5284H396.9232V542.5928ZM395.3518 537.9961V534.9316H396.9232V537.9961ZM395.3518 533.3994V530.3349H396.9232V533.3994ZM395.3518 528.8027V525.7382H396.9232V528.8027ZM395.3518 524.2059V521.1415H396.9232V524.2059ZM395.3518 519.6092V516.5447H396.9232V519.6092ZM395.3518 515.0125V511.948H396.9232V515.0125ZM395.3518 510.4158V507.3513H396.9232V510.4158ZM395.3518 505.819V502.7546H396.9232V505.819ZM395.3518 501.2223V498.1578H396.9232V501.2223ZM395.3518 496.6256V493.5611H396.9232V496.6256ZM395.3518 492.0289V488.9644H396.9232V492.0289ZM395.3518 487.4321V484.3677H396.9232V487.4321ZM395.3518 482.8354V479.7709H396.9232V482.8354ZM395.3518 478.2387V475.1742H396.9232V478.2387ZM395.3518 473.642V470.5775H396.9232V473.642ZM395.3518 469.0452V465.9808H396.9232V469.0452ZM395.3518 464.4485V461.384H396.9232V464.4485ZM395.3518 459.8518V456.7873H396.9232V459.8518ZM395.3518 455.2551V452.1906H396.9232V455.2551ZM395.3518 450.6583V447.5939H396.9232V450.6583Z" fill="#c7c3bd"/>
</g>
</g>
</g>
</g>
</g>
</svg>
