<svg xmlns="http://www.w3.org/2000/svg" xmlns:xlink="http://www.w3.org/1999/xlink" xmlns:inkscape="http://www.inkscape.org/namespaces/inkscape" version="1.1" width="248" height="247.47074" viewBox="0 0 248 247.47074">
<defs>
<clipPath id="clip_0">
<path transform="matrix(1,0,0,-1,-272.5,562.9334)" d="M272.5 315.46269H520.5V562.9334H272.5Z" clip-rule="evenodd"/>
</clipPath>
<clipPath id="clip_1">
<path transform="matrix(1,0,0,-1,-272.5,562.9334)" d="M0 0H792V603.4286H0Z"/>
</clipPath>
<clipPath id="clip_2">
<path transform="matrix(1,0,0,-1,-272.5,562.9334)" d="M0 0H792V603.4286H0Z"/>
</clipPath>
<clipPath id="clip_3">
<path transform="matrix(1,0,0,-1,-272.5,562.9334)" d="M0 0H792V603.4286H0Z"/>
</clipPath>
<clipPath id="clip_4">
<path transform="matrix(1,0,0,-1,-272.5,562.9334)" d="M395.3518 560.9797C395.3518 561.4137 395.7035 561.7655 396.1375 561.7655 396.5714 561.7655 396.9232 561.4137 396.9232 560.9797V317.2775C396.9232 316.8435 396.5714 316.4917 396.1375 316.4917 395.7035 316.4917 395.3518 316.8435 395.3518 317.2775Z"/>
</clipPath>
<clipPath id="clip_5">
<path transform="matrix(1,0,0,-1,-272.5,562.9334)" d="M0 0H792V603.4286H0Z"/>
</clipPath>
<clipPath id="clip_6">
<path transform="matrix(1,0,0,-1,-272.5,562.9334)" d="M0 0H792V603.4286H0Z"/>
</clipPath>
<clipPath id="clip_7">
<path transform="matrix(1,0,0,-1,-272.5,562.9334)" d="M0 0H792V603.4286H0Z"/>
</clipPath>
<clipPath id="clip_8">
<path transform="matrix(1,0,0,-1,-272.5,562.9334)" d="M0 0H792V603.4286H0Z"/>
</clipPath>
<clipPath id="clip_9">
<path transform="matrix(1,0,0,-1,-272.5,562.9334)" d="M0 0H792V603.4286H0Z"/>
</clipPath>
<clipPath id="clip_10">
<path transform="matrix(1,0,0,-1,-272.5,562.9334)" d="M0 0H792V603.4286H0Z"/>
</clipPath>
<clipPath id="clip_11">
<path transform="matrix(1,0,0,-1,-272.5,562.9334)" d="M0 0H792V603.4286H0Z"/>
</clipPath>
<clipPath id="clip_12">
<path transform="matrix(1,0,0,-1,-272.5,562.9334)" d="M0 0H792V603.4286H0Z"/>
</clipPath>
<clipPath id="clip_13">
<path transform="matrix(1,0,0,-1,-272.5,562.9334)" d="M0 0H792V603.4286H0Z"/>
</clipPath>
<clipPath id="clip_14">
<path transform="matrix(1,0,0,-1,-272.5,562.9334)" d="M0 0H792V603.4286H0Z"/>
</clipPath>
</defs>
<g clip-path="url(#clip_0)">
<g clip-path="url(#clip_1)">
<g clip-path="url(#clip_2)">
<g clip-path="url(#clip_3)">
<path transform="matrix(1,0,0,-1,-272.5,562.9334)" d="M300.5025 546.8429C300.2855 546.8429 300.1096 547.0188 300.1096 547.2358 300.1096 547.4528 300.2855 547.6286 300.5025 547.6286H350.1776C350.3945 547.6286 350.5704 547.4528 350.5704 547.2358 350.5704 547.0188 350.3945 546.8429 350.1776 546.8429ZM349.8373 547.0394C349.7289 547.2273 349.7932 547.4675 349.9811 547.576 350.169 547.6845 350.4093 547.6201 350.5178 547.4322L375.3553 504.4123C375.4638 504.2244 375.3994 503.9842 375.2115 503.8757 375.0236 503.7672 374.7834 503.8316 374.6749 504.0195ZM374.6749 504.4123C374.7834 504.6002 375.0236 504.6646 375.2115 504.5561 375.3994 504.4477 375.4638 504.2074 375.3553 504.0195L350.5178 460.9996C350.4093 460.8117 350.169 460.7473 349.9811 460.8558 349.7932 460.9643 349.7289 461.2046 349.8373 461.3925ZM300.5025 460.8032C300.2855 460.8032 300.1096 460.9791 300.1096 461.1961 300.1096 461.413 300.2855 461.5889 300.5025 461.5889H350.1776C350.3945 461.5889 350.5704 461.413 350.5704 461.1961 350.5704 460.9791 350.3945 460.8032 350.1776 460.8032ZM275.3247 504.0195C275.2163 504.2074 275.2806 504.4477 275.4685 504.5561 275.6564 504.6646 275.8967 504.6002 276.0052 504.4123L300.8427 461.3925C300.9512 461.2046 300.8868 460.9643 300.6989 460.8558 300.511 460.7473 300.2708 460.8117 300.1623 460.9996ZM442.0974 546.8429C441.8804 546.8429 441.7045 547.0188 441.7045 547.2358 441.7045 547.4528 441.8804 547.6286 442.0974 547.6286H491.7724C491.9894 547.6286 492.1653 547.4528 492.1653 547.2358 492.1653 547.0188 491.9894 546.8429 491.7724 546.8429ZM491.4322 547.0394C491.3237 547.2273 491.3881 547.4675 491.576 547.576 491.7639 547.6845 492.0042 547.6201 492.1127 547.4322L516.9502 504.4123C517.0587 504.2244 516.9943 503.9842 516.8064 503.8757 516.6185 503.7672 516.3782 503.8316 516.2698 504.0195ZM516.2698 504.4123C516.3782 504.6002 516.6185 504.6646 516.8064 504.5561 516.9943 504.4477 517.0587 504.2074 516.9502 504.0195L492.1127 460.9996C492.0042 460.8117 491.7639 460.7473 491.576 460.8558 491.3881 460.9643 491.3237 461.2046 491.4322 461.3925ZM442.0974 460.8032C441.8804 460.8032 441.7045 460.9791 441.7045 461.1961 441.7045 461.413 441.8804 461.5889 442.0974 461.5889H491.7724C491.9894 461.5889 492.1653 461.413 492.1653 461.1961 492.1653 460.9791 491.9894 460.8032 491.7724 460.8032ZM417.6001 504.0195C417.4916 503.8316 417.2513 503.7672 417.0634 503.8757 416.8755 503.9842 416.8111 504.2244 416.9196 504.4123L441.7572 547.4322C441.8656 547.6201 442.1059 547.6845 442.2938 547.576 442.4817 547.4675 442.5461 547.2273 442.4376 547.0394ZM416.9196 504.0195C416.8111 504.2074 416.8755 504.4477 417.0634 504.5561 417.2513 504.6646 417.4916 504.6002 417.6001 504.4123L442.4376 461.3925C442.5461 461.2046 442.4817 460.9643 442.2938 460.8558 442.1059 460.7473 441.8656 460.8117 441.7572 460.9996ZM300.5025 546.8429C300.2855 546.8429 300.1096 547.0188 300.1096 547.2358 300.1096 547.4528 300.2855 547.6286 300.5025 547.6286H350.1776C350.3945 547.6286 350.5704 547.4528 350.5704 547.2358 350.5704 547.0188 350.3945 546.8429 350.1776 546.8429ZM325.7329 544.4674C325.7329 544.2504 325.557 544.0745 325.34 544.0745 325.1231 544.0745 324.9472 544.2504 324.9472 544.4674V550.0042C324.9472 550.2211 325.1231 550.397 325.34 550.397 325.557 550.397 325.7329 550.2211 325.7329 550.0042ZM349.8373 547.0394C349.7289 547.2273 349.7932 547.4675 349.9811 547.576 350.169 547.6845 350.4093 547.6201 350.5178 547.4322L375.3553 504.4123C375.4638 504.2244 375.3994 503.9842 375.2115 503.8757 375.0236 503.7672 374.7834 503.8316 374.6749 504.0195ZM360.3953 524.0014C360.2074 523.8929 359.9671 523.9573 359.8586 524.1452 359.7501 524.3331 359.8145 524.5734 360.0024 524.6819L364.7974 527.4503C364.9853 527.5588 365.2256 527.4944 365.334 527.3065 365.4425 527.1186 365.3782 526.8783 365.1903 526.7698ZM374.6749 504.4123C374.7834 504.6002 375.0236 504.6646 375.2115 504.5561 375.3994 504.4477 375.4638 504.2074 375.3553 504.0195L350.5178 460.9996C350.4093 460.8117 350.169 460.7473 349.9811 460.8558 349.7932 460.9643 349.7289 461.2046 349.8373 461.3925ZM360.5746 484.741C360.3867 484.8495 360.3223 485.0897 360.4308 485.2776 360.5393 485.4655 360.7795 485.5299 360.9674 485.4214L365.7624 482.653C365.9503 482.5446 366.0147 482.3043 365.9062 482.1164 365.7977 481.9285 365.5575 481.8641 365.3696 481.9726ZM364.6181 480.671C364.806 480.5625 364.8704 480.3222 364.7619 480.1343 364.6534 479.9464 364.4131 479.8821 364.2252 479.9905L359.4302 482.7589C359.2423 482.8674 359.1779 483.1077 359.2864 483.2956 359.3949 483.4835 359.6352 483.5479 359.8231 483.4394ZM359.4302 482.7589C359.2423 482.8674 359.1779 483.1077 359.2864 483.2956 359.3949 483.4835 359.6352 483.5479 359.8231 483.4394L364.6181 480.671C364.806 480.5625 364.8704 480.3222 364.7619 480.1343 364.6534 479.9464 364.4131 479.8821 364.2252 479.9905ZM350.1776 461.5889C350.3945 461.5889 350.5704 461.413 350.5704 461.1961 350.5704 460.9791 350.3945 460.8032 350.1776 460.8032H300.5025C300.2855 460.8032 300.1096 460.9791 300.1096 461.1961 300.1096 461.413 300.2855 461.5889 300.5025 461.5889ZM326.0915 463.9644C326.0915 464.1814 326.2674 464.3573 326.4844 464.3573 326.7013 464.3573 326.8772 464.1814 326.8772 463.9644V458.4277C326.8772 458.2107 326.7013 458.0348 326.4844 458.0348 326.2674 458.0348 326.0915 458.2107 326.0915 458.4277ZM324.5885 458.4277C324.5885 458.2107 324.4127 458.0348 324.1957 458.0348 323.9787 458.0348 323.8028 458.2107 323.8028 458.4277V463.9644C323.8028 464.1814 323.9787 464.3573 324.1957 464.3573 324.4127 464.3573 324.5885 464.1814 324.5885 463.9644ZM323.8028 463.9644C323.8028 464.1814 323.9787 464.3573 324.1957 464.3573 324.4127 464.3573 324.5885 464.1814 324.5885 463.9644V458.4277C324.5885 458.2107 324.4127 458.0348 324.1957 458.0348 323.9787 458.0348 323.8028 458.2107 323.8028 458.4277ZM284.6365 482.8896C284.4492 482.7802 284.2086 482.8434 284.0992 483.0308 283.9899 483.2182 284.0531 483.4588 284.2405 483.5682L289.0225 486.359C289.2099 486.4683 289.4504 486.4051 289.5598 486.2177 289.6692 486.0303 289.6059 485.7897 289.4185 485.6804ZM290.1761 484.3823C290.3635 484.4917 290.604 484.4284 290.7134 484.241 290.8228 484.0536 290.7595 483.8131 290.5721 483.7037L285.7902 480.9129C285.6028 480.8035 285.3622 480.8668 285.2528 481.0542 285.1435 481.2415 285.2067 481.4821 285.3941 481.5915ZM291.3297 482.4056C291.5171 482.515 291.7577 482.4517 291.867 482.2643 291.9764 482.0769 291.9131 481.8364 291.7257 481.727L286.9438 478.9362C286.7564 478.8268 286.5158 478.8901 286.4064 479.0775 286.2971 479.2649 286.3603 479.5054 286.5477 479.6148ZM286.4329 528.6351C286.245 528.7436 286.1806 528.9838 286.2891 529.1717 286.3976 529.3596 286.6379 529.424 286.8258 529.3155L291.6208 526.5471C291.8087 526.4387 291.8731 526.1984 291.7646 526.0105 291.6561 525.8226 291.4158 525.7582 291.2279 525.8667ZM290.4764 524.5651C290.6643 524.4566 290.7287 524.2163 290.6202 524.0284 290.5117 523.8405 290.2715 523.7761 290.0836 523.8846L285.2886 526.653C285.1007 526.7615 285.0363 527.0018 285.1448 527.1897 285.2533 527.3776 285.4935 527.442 285.6814 527.3335ZM289.3321 522.583C289.52 522.4745 289.5844 522.2343 289.4759 522.0464 289.3674 521.8585 289.1271 521.7941 288.9392 521.9026L284.1442 524.671C283.9563 524.7794 283.892 525.0197 284.0004 525.2076 284.1089 525.3955 284.3492 525.4599 284.5371 525.3514ZM300.1623 547.4322C300.2708 547.6201 300.511 547.6845 300.6989 547.576 300.8868 547.4675 300.9512 547.2273 300.8427 547.0394L276.0052 504.0195C275.8967 503.8316 275.6564 503.7672 275.4685 503.8757 275.2806 503.9842 275.2163 504.2244 275.3247 504.4123ZM442.0974 546.8429C441.8804 546.8429 441.7045 547.0188 441.7045 547.2358 441.7045 547.4528 441.8804 547.6286 442.0974 547.6286H491.7724C491.9894 547.6286 492.1653 547.4528 492.1653 547.2358 492.1653 547.0188 491.9894 546.8429 491.7724 546.8429ZM467.3278 544.4674C467.3278 544.2504 467.1519 544.0745 466.9349 544.0745 466.7179 544.0745 466.5421 544.2504 466.5421 544.4674V550.0042C466.5421 550.2211 466.7179 550.397 466.9349 550.397 467.1519 550.397 467.3278 550.2211 467.3278 550.0042ZM442.0974 460.8032C441.8804 460.8032 441.7045 460.9791 441.7045 461.1961 441.7045 461.413 441.8804 461.5889 442.0974 461.5889H491.7724C491.9894 461.5889 492.1653 461.413 492.1653 461.1961 492.1653 460.9791 491.9894 460.8032 491.7724 460.8032ZM467.3278 458.4277C467.3278 458.2107 467.1519 458.0348 466.9349 458.0348 466.7179 458.0348 466.5421 458.2107 466.5421 458.4277V463.9644C466.5421 464.1814 466.7179 464.3573 466.9349 464.3573 467.1519 464.3573 467.3278 464.1814 467.3278 463.9644ZM491.4322 547.0394C491.3237 547.2273 491.3881 547.4675 491.576 547.576 491.7639 547.6845 492.0042 547.6201 492.1127 547.4322L516.9502 504.4123C517.0587 504.2244 516.9943 503.9842 516.8064 503.8757 516.6185 503.7672 516.3782 503.8316 516.2698 504.0195ZM501.418 524.9925C501.2301 524.884 500.9898 524.9484 500.8813 525.1363 500.7728 525.3242 500.8372 525.5644 501.0251 525.6729L505.8201 528.4413C506.008 528.5498 506.2483 528.4854 506.3568 528.2975 506.4652 528.1096 506.4009 527.8693 506.213 527.7609ZM506.9645 526.4592C507.1524 526.5677 507.3926 526.5033 507.5011 526.3154 507.6096 526.1275 507.5452 525.8873 507.3573 525.7788L502.5623 523.0104C502.3744 522.9019 502.1341 522.9663 502.0257 523.1542 501.9172 523.3421 501.9816 523.5824 502.1695 523.6909ZM502.5623 523.0104C502.3744 522.9019 502.1341 522.9663 502.0257 523.1542 501.9172 523.3421 501.9816 523.5824 502.1695 523.6909L506.9645 526.4592C507.1524 526.5677 507.3926 526.5033 507.5011 526.3154 507.6096 526.1275 507.5452 525.8873 507.3573 525.7788ZM516.2698 504.4123C516.3782 504.6002 516.6185 504.6646 516.8064 504.5561 516.9943 504.4477 517.0587 504.2074 516.9502 504.0195L492.1127 460.9996C492.0042 460.8117 491.7639 460.7473 491.576 460.8558 491.3881 460.9643 491.3237 461.2046 491.4322 461.3925ZM502.1695 484.741C501.9816 484.8495 501.9172 485.0897 502.0257 485.2776 502.1341 485.4655 502.3744 485.5299 502.5623 485.4214L507.3573 482.653C507.5452 482.5446 507.6096 482.3043 507.5011 482.1164 507.3926 481.9285 507.1524 481.8641 506.9645 481.9726ZM506.213 480.671C506.4009 480.5625 506.4652 480.3222 506.3568 480.1343 506.2483 479.9464 506.008 479.8821 505.8201 479.9905L501.0251 482.7589C500.8372 482.8674 500.7728 483.1077 500.8813 483.2956 500.9898 483.4835 501.2301 483.5479 501.418 483.4394ZM501.0251 482.7589C500.8372 482.8674 500.7728 483.1077 500.8813 483.2956 500.9898 483.4835 501.2301 483.5479 501.418 483.4394L506.213 480.671C506.4009 480.5625 506.4652 480.3222 506.3568 480.1343 506.2483 479.9464 506.008 479.8821 505.8201 479.9905ZM426.3332 482.9636C426.1453 482.8551 425.905 482.9195 425.7966 483.1074 425.6881 483.2953 425.7525 483.5356 425.9404 483.6441L430.7353 486.4125C430.9232 486.5209 431.1635 486.4566 431.272 486.2687 431.3805 486.0808 431.3161 485.8405 431.1282 485.732ZM431.8797 484.4304C432.0676 484.5389 432.3079 484.4745 432.4163 484.2866 432.5248 484.0987 432.4604 483.8584 432.2725 483.75L427.4776 480.9816C427.2897 480.8731 427.0494 480.9375 426.9409 481.1254 426.8324 481.3133 426.8968 481.5535 427.0847 481.662ZM433.024 482.4483C433.2119 482.5568 433.4522 482.4925 433.5607 482.3046 433.6692 482.1167 433.6048 481.8764 433.4169 481.7679L428.6219 478.9995C428.434 478.891 428.1937 478.9554 428.0852 479.1433 427.9768 479.3312 428.0411 479.5715 428.229 479.68ZM416.9196 504.0195C416.8111 504.2074 416.8755 504.4477 417.0634 504.5561 417.2513 504.6646 417.4916 504.6002 417.6001 504.4123L442.4376 461.3925C442.5461 461.2046 442.4817 460.9643 442.2938 460.8558 442.1059 460.7473 441.8656 460.8117 441.7572 460.9996ZM428.1469 528.8138C427.9595 528.9231 427.8961 529.1637 428.0055 529.3511 428.1148 529.5385 428.3553 529.6018 428.5428 529.4925L433.3254 526.7028C433.5128 526.5935 433.5761 526.3529 433.4668 526.1655 433.3575 525.9781 433.1169 525.9148 432.9295 526.0241ZM432.1722 524.7259C432.3596 524.6165 432.4229 524.376 432.3136 524.1886 432.2043 524.0011 431.9638 523.9378 431.7763 524.0472L426.9937 526.8369C426.8063 526.9462 426.743 527.1867 426.8523 527.3742 426.9616 527.5616 427.2022 527.6249 427.3896 527.5156ZM431.0191 522.7489C431.2065 522.6396 431.2698 522.399 431.1605 522.2116 431.0511 522.0242 430.8106 521.9609 430.6232 522.0702L425.8406 524.8599C425.6531 524.9692 425.5898 525.2098 425.6992 525.3972 425.8085 525.5846 426.049 525.6479 426.2364 525.5386ZM441.758 547.4337C441.8674 547.6211 442.1079 547.6845 442.2953 547.5751 442.4827 547.4658 442.5461 547.2253 442.4367 547.0378L417.4079 504.129C417.2986 503.9416 417.058 503.8783 416.8706 503.9876 416.6832 504.0969 416.6199 504.3375 416.7292 504.5249Z"/>
</g>
<g clip-path="url(#clip_4)">
<g clip-path="url(#clip_5)">
<path transform="matrix(1,0,0,-1,-272.5,562.9334)" d="M395.3518 560.9797V557.8949H396.9232V560.9797ZM395.3518 556.3525V553.2676H396.9232V556.3525ZM395.3518 551.7252V548.6404H396.9232V551.7252ZM395.3518 547.098V544.0131H396.9232V547.098ZM395.3518 542.4707V539.3859H396.9232V542.4707ZM395.3518 537.8435V534.7586H396.9232V537.8435ZM395.3518 533.2162V530.1314H396.9232V533.2162ZM395.3518 528.5889V525.5041H396.9232V528.5889ZM395.3518 523.9617V520.8768H396.9232V523.9617ZM395.3518 519.3344V516.2496H396.9232V519.3344ZM395.3518 514.7072V511.6223H396.9232V514.7072ZM395.3518 510.0799V506.9951H396.9232V510.0799ZM395.3518 505.4526V502.3678H396.9232V505.4526ZM395.3518 500.8254V497.7405H396.9232V500.8254ZM395.3518 496.1981V493.1133H396.9232V496.1981ZM395.3518 491.5709V488.486H396.9232V491.5709ZM395.3518 486.9436V483.8588H396.9232V486.9436ZM395.3518 482.3164V479.2315H396.9232V482.3164ZM395.3518 477.6891V474.6043H396.9232V477.6891ZM395.3518 473.0618V469.977H396.9232V473.0618ZM395.3518 468.4346V465.3497H396.9232V468.4346ZM395.3518 463.8073V460.7225H396.9232V463.8073ZM395.3518 459.1801V456.0952H396.9232V459.1801ZM395.3518 454.5528V451.468H396.9232V454.5528ZM395.3518 449.9255V446.8407H396.9232V449.9255ZM395.3518 445.2983V442.2134H396.9232V445.2983ZM395.3518 440.671V437.5862H396.9232V440.671ZM395.3518 436.0438V432.9589H396.9232V436.0438ZM395.3518 431.4165V428.3317H396.9232V431.4165ZM395.3518 426.7892V423.7044H396.9232V426.7892ZM395.3518 422.162V419.0771H396.9232V422.162ZM395.3518 417.5347V414.4499H396.9232V417.5347ZM395.3518 412.9075V409.8226H396.9232V412.9075ZM395.3518 408.2802V405.1954H396.9232V408.2802ZM395.3518 403.653V400.5681H396.9232V403.653ZM395.3518 399.0257V395.9409H396.9232V399.0257ZM395.3518 394.3984V391.3136H396.9232V394.3984ZM395.3518 389.7712V386.6863H396.9232V389.7712ZM395.3518 385.1439V382.0591H396.9232V385.1439ZM395.3518 380.5167V377.4318H396.9232V380.5167ZM395.3518 375.8894V372.8046H396.9232V375.8894ZM395.3518 371.2621V368.1773H396.9232V371.2621ZM395.3518 366.6349V363.55H396.9232V366.6349ZM395.3518 362.0076V358.9228H396.9232V362.0076ZM395.3518 357.3804V354.2955H396.9232V357.3804ZM395.3518 352.7531V349.6683H396.9232V352.7531ZM395.3518 348.1258V345.041H396.9232V348.1258ZM395.3518 343.4986V340.4138H396.9232V343.4986ZM395.3518 338.8713V335.7865H396.9232V338.8713ZM395.3518 334.2441V331.1592H396.9232V334.2441ZM395.3518 329.6168V326.532H396.9232V329.6168ZM395.3518 324.9896V321.9047H396.9232V324.9896ZM395.3518 320.3623V317.2775H396.9232V320.3623Z" fill="#c7c3bd"/>
</g>
</g>
<g clip-path="url(#clip_6)">
<path transform="matrix(1,0,0,-1,-272.5,562.9334)" d="M307.8819 410.6498 292.6356 334.4226 365.7522 364.6957ZM307.8671 411.6649 366.7637 364.8958C366.9983 364.7095 366.9464 364.3398 366.6696 364.2252L292.2564 333.4152C291.9661 333.295 291.6592 333.5472 291.7208 333.8552L307.2375 411.4342C307.2951 411.7223 307.637 411.8475 307.8671 411.6649"/>
<path transform="matrix(1,0,0,-1,-272.5,562.9334)" d="M348.7886 545.8468C348.0215 546.6139 348.0215 547.8576 348.7886 548.6247 349.5557 549.3918 350.7994 549.3918 351.5665 548.6247 352.3336 547.8576 352.3336 546.6139 351.5665 545.8468 350.7994 545.0797 349.5557 545.0797 348.7886 545.8468" fill="#dc267f"/>
<path transform="matrix(1,0,0,-1,-272.5,562.9334)" d="M348.7886 459.8071C348.0215 460.5742 348.0215 461.8179 348.7886 462.585 349.5557 463.3521 350.7994 463.3521 351.5665 462.585 352.3336 461.8179 352.3336 460.5742 351.5665 459.8071 350.7994 459.04 349.5557 459.04 348.7886 459.8071" fill="#ffb000"/>
<path transform="matrix(1,0,0,-1,-272.5,562.9334)" d="M274.7296 502.827C273.9625 503.5941 273.9625 504.8378 274.7296 505.6049 275.4967 506.372 276.7405 506.372 277.5076 505.6049 278.2747 504.8378 278.2747 503.5941 277.5076 502.827 276.7405 502.0599 275.4967 502.0599 274.7296 502.827" fill="#19b091"/>
<path transform="matrix(1,0,0,-1,-272.5,562.9334)" d="M299.1135 459.8071C298.3464 460.5742 298.3464 461.8179 299.1135 462.585 299.8806 463.3521 301.1244 463.3521 301.8915 462.585 302.6586 461.8179 302.6586 460.5742 301.8915 459.8071 301.1244 459.04 299.8806 459.04 299.1135 459.8071M299.1135 545.8468C298.3464 546.6139 298.3464 547.8576 299.1135 548.6247 299.8806 549.3918 301.1244 549.3918 301.8915 548.6247 302.6586 547.8576 302.6586 546.6139 301.8915 545.8468 301.1244 545.0797 299.8806 545.0797 299.1135 545.8468" fill="#648fff"/>
<path transform="matrix(1,0,0,-1,-272.5,562.9334)" d="M373.6261 502.827C372.859 503.5941 372.859 504.8378 373.6261 505.6049 374.3932 506.372 375.637 506.372 376.4041 505.6049 377.1712 504.8378 377.1712 503.5941 376.4041 502.827 375.637 502.0599 374.3932 502.0599 373.6261 502.827" fill="#648fff"/>
<path transform="matrix(1,0,0,-1,-272.5,562.9334)" d="M515.221 502.827C514.4539 503.5941 514.4539 504.8378 515.221 505.6049 515.9881 506.372 517.2318 506.372 517.9989 505.6049 518.766 504.8378 518.766 503.5941 517.9989 502.827 517.2318 502.0599 515.9881 502.0599 515.221 502.827" fill="#ffb000"/>
<path transform="matrix(1,0,0,-1,-272.5,562.9334)" d="M415.6796 502.938C414.9125 503.7051 414.9125 504.9488 415.6796 505.7159 416.4467 506.483 417.6904 506.483 418.4575 505.7159 419.2246 504.9488 419.2246 503.7051 418.4575 502.938 417.6904 502.1709 416.4467 502.1709 415.6796 502.938" fill="#19b091"/>
</g>
<g clip-path="url(#clip_7)">
<path transform="matrix(1,0,0,-1,-272.5,562.9334)" d="M306.2338 409.9682C305.4667 410.7353 305.4667 411.9791 306.2338 412.7462 307.0009 413.5133 308.2446 413.5133 309.0117 412.7462 309.7788 411.9791 309.7788 410.7353 309.0117 409.9682 308.2446 409.2011 307.0009 409.2011 306.2338 409.9682M290.7171 332.3892C289.95 333.1563 289.95 334.4 290.7171 335.1671 291.4842 335.9342 292.7279 335.9342 293.495 335.1671 294.2621 334.4 294.2621 333.1563 293.495 332.3892 292.7279 331.6221 291.4842 331.6221 290.7171 332.3892M365.1304 363.1992C364.3633 363.9663 364.3633 365.21 365.1304 365.9771 365.8975 366.7442 367.1412 366.7442 367.9083 365.9771 368.6754 365.21 368.6754 363.9663 367.9083 363.1992 367.1412 362.4321 365.8975 362.4321 365.1304 363.1992M440.7084 545.8468C439.9413 546.6139 439.9413 547.8576 440.7084 548.6247 441.4755 549.3918 442.7192 549.3918 443.4863 548.6247 444.2534 547.8576 444.2534 546.6139 443.4863 545.8468 442.7192 545.0797 441.4755 545.0797 440.7084 545.8468M440.7084 459.8071C439.9413 460.5742 439.9413 461.8179 440.7084 462.585 441.4755 463.3521 442.7192 463.3521 443.4863 462.585 444.2534 461.8179 444.2534 460.5742 443.4863 459.8071 442.7192 459.04 441.4755 459.04 440.7084 459.8071" fill="#648fff"/>
</g>
<g clip-path="url(#clip_8)">
<path transform="matrix(1,0,0,-1,-272.5,562.9334)" d="M320.4396 344.6955C319.6725 345.4626 319.6725 346.7063 320.4396 347.4734 321.2067 348.2405 322.4504 348.2405 323.2175 347.4734 323.9846 346.7063 323.9846 345.4626 323.2175 344.6955 322.4504 343.9284 321.2067 343.9284 320.4396 344.6955" fill="#ffb000"/>
<path transform="matrix(1,0,0,-1,-272.5,562.9334)" d="M326.3075 394.028C325.5404 394.7951 325.5404 396.0388 326.3075 396.8059 327.0746 397.573 328.3183 397.573 329.0854 396.8059 329.8525 396.0388 329.8525 394.7951 329.0854 394.028 328.3183 393.2609 327.0746 393.2609 326.3075 394.028M490.3835 545.8468C489.6164 546.6139 489.6164 547.8576 490.3835 548.6247 491.1506 549.3918 492.3943 549.3918 493.1614 548.6247 493.9285 547.8576 493.9285 546.6139 493.1614 545.8468 492.3943 545.0797 491.1506 545.0797 490.3835 545.8468M490.3835 459.8071C489.6164 460.5742 489.6164 461.8179 490.3835 462.585 491.1506 463.3521 492.3943 463.3521 493.1614 462.585 493.9285 461.8179 493.9285 460.5742 493.1614 459.8071 492.3943 459.04 491.1506 459.04 490.3835 459.8071" fill="#dc267f"/>
<path transform="matrix(1,0,0,-1,-272.5,562.9334)" d="M296.8226 362.9148C296.0555 363.6819 296.0555 364.9256 296.8226 365.6927 297.5897 366.4598 298.8334 366.4598 299.6005 365.6927 300.3676 364.9256 300.3676 363.6819 299.6005 362.9148 298.8334 362.1477 297.5897 362.1477 296.8226 362.9148" fill="#19b091"/>
<path transform="matrix(1,0,0,-1,-272.5,562.9334)" d="M300.9627 391.3531C300.7704 391.3916 300.6456 391.5787 300.6841 391.771 300.7226 391.9633 300.9097 392.0881 301.102 392.0496L306.0101 391.0679C306.2024 391.0295 306.3271 390.8424 306.2887 390.65 306.2502 390.4577 306.0631 390.333 305.8708 390.3714ZM305.6043 389.0391C305.7966 389.0007 305.9213 388.8136 305.8829 388.6212 305.8444 388.4289 305.6573 388.3042 305.465 388.3427L300.5569 389.3243C300.3646 389.3628 300.2399 389.5499 300.2783 389.7422 300.3168 389.9346 300.5039 390.0593 300.6962 390.0208ZM305.1985 387.0103C305.3908 386.9719 305.5156 386.7848 305.4771 386.5924 305.4386 386.4001 305.2515 386.2754 305.0592 386.3139L300.1511 387.2955C299.9588 387.334 299.8341 387.5211 299.8725 387.7134 299.911 387.9058 300.0981 388.0305 300.2904 387.992Z"/>
<path transform="matrix(1,0,0,-1,-272.5,562.9334)" d="M293.6979 350.294C293.5741 350.3188 293.4938 350.4392 293.5186 350.563 293.5434 350.6868 293.6638 350.7671 293.7876 350.7423L296.9467 350.1105C297.0705 350.0857 297.1508 349.9653 297.1261 349.8415 297.1013 349.7177 296.9809 349.6374 296.8571 349.6622Z"/>
<path transform="matrix(1,0,0,-1,-272.5,562.9334)" d="M296.6855 348.8046C296.8093 348.7799 296.8896 348.6594 296.8649 348.5356 296.8401 348.4118 296.7197 348.3315 296.5959 348.3563L293.4367 348.9882C293.3129 349.0129 293.2326 349.1334 293.2574 349.2572 293.2822 349.381 293.4026 349.4612 293.5264 349.4365Z"/>
<path transform="matrix(1,0,0,-1,-272.5,562.9334)" d="M296.4244 347.4987C296.5482 347.474 296.6284 347.3536 296.6037 347.2298 296.5789 347.106 296.4585 347.0257 296.3347 347.0504L293.1755 347.6823C293.0517 347.7071 292.9715 347.8275 292.9962 347.9513 293.021 348.0751 293.1414 348.1554 293.2652 348.1306Z"/>
<path transform="matrix(1,0,0,-1,-272.5,562.9334)" d="M345.7334 377.559C345.5985 377.3891 345.3513 377.3607 345.1814 377.4956 345.0115 377.6306 344.9831 377.8777 345.1181 378.0476L348.5612 382.3836C348.6961 382.5535 348.9433 382.5818 349.1132 382.4469 349.2831 382.312 349.3115 382.0649 349.1765 381.895Z"/>
<path transform="matrix(1,0,0,-1,-272.5,562.9334)" d="M316.3407 402.5104C316.2673 402.4179 316.1328 402.4025 316.0403 402.4759 315.9478 402.5494 315.9324 402.6839 316.0058 402.7763L317.8798 405.1362C317.9532 405.2287 318.0877 405.2441 318.1802 405.1707 318.2726 405.0973 318.2881 404.9628 318.2146 404.8703Z"/>
<path transform="matrix(1,0,0,-1,-272.5,562.9334)" d="M343.2063 357.932C343.1233 358.1324 343.2186 358.3622 343.419 358.4452 343.6195 358.5282 343.8493 358.433 343.9323 358.2325L346.0504 353.1169C346.1334 352.9164 346.0381 352.6866 345.8377 352.6036 345.6372 352.5206 345.4074 352.6159 345.3244 352.8163Z"/>
</g>
<g clip-path="url(#clip_9)">
<path transform="matrix(1,0,0,-1,-272.5,562.9334)" d="M343.9358 352.2414C344.0188 352.0409 343.9235 351.8111 343.7231 351.7281 343.5226 351.6451 343.2928 351.7403 343.2098 351.9408L341.0917 357.0564C341.0087 357.2569 341.104 357.4867 341.3044 357.5697 341.5049 357.6527 341.7347 357.5575 341.8177 357.357ZM341.0917 357.0564C341.0087 357.2569 341.104 357.4867 341.3044 357.5697 341.5049 357.6527 341.7347 357.5575 341.8177 357.357L343.9358 352.2414C344.0188 352.0409 343.9235 351.8111 343.7231 351.7281 343.5226 351.6451 343.2928 351.7403 343.2098 351.9408ZM306.0837 341.4341C306.0319 341.5591 306.0913 341.7024 306.2163 341.7542 306.3413 341.8059 306.4847 341.7465 306.5364 341.6215L307.8573 338.4312C307.9091 338.3062 307.8497 338.1628 307.7247 338.1111 307.5997 338.0593 307.4564 338.1187 307.4046 338.2437ZM306.5386 337.8852C306.5903 337.7601 306.531 337.6168 306.4059 337.5651 306.2809 337.5133 306.1376 337.5727 306.0859 337.6977L304.7649 340.888C304.7132 341.0131 304.7725 341.1564 304.8976 341.2081 305.0226 341.2599 305.1659 341.2005 305.2177 341.0755ZM304.7649 340.888C304.7132 341.0131 304.7725 341.1564 304.8976 341.2081 305.0226 341.2599 305.1659 341.2005 305.2177 341.0755L306.5386 337.8852C306.5903 337.7601 306.531 337.6168 306.4059 337.5651 306.2809 337.5133 306.1376 337.5727 306.0859 337.6977ZM289.4229 461.974C289.5764 462.1274 289.8251 462.1274 289.9785 461.974 290.1319 461.8206 290.1319 461.5718 289.9785 461.4184 273.2221 444.662 271.4529 427.9925 284.6309 411.2634 284.7652 411.093 284.7358 410.846 284.5654 410.7117 284.395 410.5774 284.1479 410.6068 284.0137 410.7772 270.579 427.8321 272.3955 444.9465 289.4229 461.974M286.9383 413.3591 289.7007 405.0033 281.7058 408.682ZM502.0215 461.4184C501.8681 461.5718 501.8681 461.8206 502.0215 461.974 502.1749 462.1274 502.4236 462.1274 502.5771 461.974 519.6045 444.9465 521.421 427.8321 507.9863 410.7772 507.8521 410.6068 507.605 410.5774 507.4346 410.7117 507.2642 410.846 507.2348 411.093 507.3691 411.2634 520.5471 427.9925 518.7779 444.662 502.0215 461.4184M510.2942 408.682 502.2993 405.0033 505.0617 413.3591ZM483.9098 395.9233C483.7749 395.7533 483.5278 395.725 483.3579 395.8599 483.188 395.9948 483.1596 396.2419 483.2945 396.4119L486.7377 400.7478C486.8726 400.9178 487.1197 400.9461 487.2896 400.8112 487.4595 400.6763 487.4879 400.4291 487.353 400.2592Z"/>
</g>
<g clip-path="url(#clip_10)">
<path transform="matrix(1,0,0,-1,-272.5,562.9334)" d="M428.8936 350.7535C428.1265 351.5206 428.1265 352.7643 428.8936 353.5314 429.6607 354.2985 430.9044 354.2985 431.6715 353.5314 432.4386 352.7643 432.4386 351.5206 431.6715 350.7535 430.9044 349.9864 429.6607 349.9864 428.8936 350.7535M503.3069 381.5635C502.5398 382.3306 502.5398 383.5743 503.3069 384.3414 504.074 385.1085 505.3177 385.1085 506.0848 384.3414 506.8519 383.5743 506.8519 382.3306 506.0848 381.5635 505.3177 380.7964 504.074 380.7964 503.3069 381.5635" fill="#648fff"/>
<path transform="matrix(1,0,0,-1,-272.5,562.9334)" d="M464.484 412.3922C463.7169 413.1593 463.7169 414.4031 464.484 415.1702 465.2511 415.9373 466.4948 415.9373 467.2619 415.1702 468.029 414.4031 468.029 413.1593 467.2619 412.3922 466.4948 411.6251 465.2511 411.6251 464.484 412.3922" fill="#dc267f"/>
</g>
<g clip-path="url(#clip_11)">
<path transform="matrix(1,0,0,-1,-272.5,562.9334)" d="M458.616 363.0597C457.8489 363.8268 457.8489 365.0705 458.616 365.8376 459.3831 366.6047 460.6268 366.6047 461.3939 365.8376 462.161 365.0705 462.161 363.8268 461.3939 363.0597 460.6268 362.2926 459.3831 362.2926 458.616 363.0597" fill="#ffb000"/>
<path transform="matrix(1,0,0,-1,-272.5,562.9334)" d="M434.999 381.279C434.2319 382.0461 434.2319 383.2899 434.999 384.057 435.7661 384.8241 437.0098 384.8241 437.7769 384.057 438.544 383.2899 438.544 382.0461 437.7769 381.279 437.0098 380.5119 435.7661 380.5119 434.999 381.279" fill="#19b091"/>
<path transform="matrix(1,0,0,-1,-272.5,562.9334)" d="M481.3828 376.2962C481.2998 376.4967 481.395 376.7265 481.5955 376.8095 481.796 376.8925 482.0258 376.7973 482.1088 376.5968L484.2268 371.4812C484.3098 371.2807 484.2146 371.0509 484.0141 370.9679 483.8137 370.8849 483.5839 370.9801 483.5009 371.1806ZM482.1122 370.6057C482.1952 370.4052 482.1 370.1754 481.8995 370.0924 481.6991 370.0094 481.4693 370.1046 481.3863 370.3051L479.2682 375.4207C479.1852 375.6212 479.2804 375.851 479.4809 375.934 479.6814 376.017 479.9112 375.9218 479.9942 375.7213ZM479.2682 375.4207C479.1852 375.6212 479.2804 375.851 479.4809 375.934 479.6814 376.017 479.9112 375.9218 479.9942 375.7213L482.1122 370.6057C482.1952 370.4052 482.1 370.1754 481.8995 370.0924 481.6991 370.0094 481.4693 370.1046 481.3863 370.3051Z"/>
<path transform="matrix(1,0,0,-1,-272.5,562.9334)" d="M444.2601 359.7983C444.2084 359.9234 444.2678 360.0667 444.3928 360.1184 444.5178 360.1702 444.6611 360.1108 444.7129 359.9858L446.0338 356.7954C446.0856 356.6704 446.0262 356.5271 445.9012 356.4753 445.7761 356.4236 445.6328 356.483 445.5811 356.608Z"/>
</g>
<g clip-path="url(#clip_12)">
<path transform="matrix(1,0,0,-1,-272.5,562.9334)" d="M444.715 356.2494C444.7668 356.1244 444.7074 355.9811 444.5824 355.9293 444.4574 355.8776 444.3141 355.937 444.2623 356.062L442.9414 359.2523C442.8896 359.3773 442.949 359.5206 443.074 359.5724 443.199 359.6242 443.3423 359.5648 443.3941 359.4398ZM442.9414 359.2523C442.8896 359.3773 442.949 359.5206 443.074 359.5724 443.199 359.6242 443.3423 359.5648 443.3941 359.4398L444.715 356.2494C444.7668 356.1244 444.7074 355.9811 444.5824 355.9293 444.4574 355.8776 444.3141 355.937 444.2623 356.062ZM417.545 362.2133C417.3958 362.0558 417.1471 362.0492 416.9896 362.1984 416.8321 362.3477 416.8255 362.5963 416.9747 362.7538L465.5878 414.0514C465.737 414.2089 465.9857 414.2156 466.1432 414.0664 466.3006 413.9171 466.3073 413.6685 466.1581 413.511ZM417.0155 362.1759C416.8456 362.3108 416.8173 362.558 416.9522 362.7279 417.0871 362.8978 417.3342 362.9261 417.5042 362.7912L430.5268 352.4501C430.6967 352.3152 430.7251 352.068 430.5902 351.8981 430.4553 351.7282 430.2081 351.6998 430.0382 351.8348ZM449.5891 400.3887C449.4468 400.5237 449.4407 400.7484 449.5756 400.8908 449.7106 401.0332 449.9353 401.0392 450.0777 400.9043L453.7108 397.4614C453.8531 397.3265 453.8592 397.1017 453.7243 396.9593 453.5893 396.8169 453.3646 396.8109 453.2222 396.9458ZM452.2876 395.9596C452.43 395.8247 452.436 395.5999 452.3011 395.4575 452.1662 395.3152 451.9414 395.3091 451.799 395.4441L448.166 398.887C448.0236 399.0219 448.0176 399.2467 448.1525 399.389 448.2874 399.5314 448.5122 399.5375 448.6545 399.4025ZM450.8644 394.4579C451.0068 394.3229 451.0128 394.0982 450.8779 393.9558 450.743 393.8134 450.5182 393.8074 450.3759 393.9423L446.7428 397.3852C446.6004 397.5201 446.5944 397.7449 446.7293 397.8873 446.8642 398.0297 447.089 398.0357 447.2314 397.9008ZM427.3964 375.6197C427.3048 375.7066 427.3009 375.8513 427.3877 375.9429 427.4746 376.0345 427.6192 376.0384 427.7109 375.9516L430.0493 373.7355C430.141 373.6486 430.1449 373.504 430.058 373.4123 429.9712 373.3207 429.8265 373.3168 429.7349 373.4036ZM429.1333 372.7689C429.2249 372.682 429.2288 372.5373 429.142 372.4457 429.0551 372.3541 428.9105 372.3502 428.8188 372.437L426.4804 374.6531C426.3887 374.7399 426.3848 374.8846 426.4717 374.9763 426.5585 375.0679 426.7032 375.0718 426.7948 374.9849ZM428.2173 371.8022C428.3089 371.7154 428.3128 371.5707 428.2259 371.4791 428.1391 371.3874 427.9944 371.3835 427.9028 371.4704L425.5643 373.6865C425.4727 373.7733 425.4688 373.918 425.5556 374.0096 425.6425 374.1013 425.7872 374.1052 425.8788 374.0183ZM423.0017 356.0001C422.9282 355.9076 422.7937 355.8922 422.7012 355.9656 422.6088 356.039 422.5933 356.1735 422.6668 356.266L424.5407 358.6259C424.6142 358.7184 424.7487 358.7338 424.8411 358.6604 424.9336 358.5869 424.949 358.4524 424.8756 358.36ZM465.6286 413.4735C465.4587 413.6085 465.4303 413.8556 465.5653 414.0255 465.7002 414.1954 465.9473 414.2238 466.1172 414.0889L504.9401 383.2601C505.11 383.1252 505.1384 382.878 505.0035 382.7081 504.8685 382.5382 504.6214 382.5099 504.4515 382.6448ZM430.4328 351.7795C430.2323 351.6965 430.0025 351.7917 429.9195 351.9921 429.8365 352.1926 429.9318 352.4224 430.1322 352.5054L504.5455 383.3154C504.746 383.3984 504.9758 383.3032 505.0588 383.1027 505.1418 382.9023 505.0466 382.6725 504.8461 382.5895Z"/>
</g>
<g clip-path="url(#clip_13)">
<path transform="matrix(1,0,0,-1,-272.5,562.9334)" d="M415.8709 361.0946C415.1038 361.8617 415.1038 363.1054 415.8709 363.8725 416.638 364.6396 417.8817 364.6396 418.6488 363.8725 419.4159 363.1054 419.4159 361.8617 418.6488 361.0946 417.8817 360.3275 416.638 360.3275 415.8709 361.0946M464.484 412.3922C463.7169 413.1593 463.7169 414.4031 464.484 415.1702 465.2511 415.9373 466.4948 415.9373 467.2619 415.1702 468.029 414.4031 468.029 413.1593 467.2619 412.3922 466.4948 411.6251 465.2511 411.6251 464.484 412.3922" fill="#dc267f"/>
<path transform="matrix(1,0,0,-1,-272.5,562.9334)" d="M428.8936 350.7535C428.1265 351.5206 428.1265 352.7643 428.8936 353.5314 429.6607 354.2985 430.9044 354.2985 431.6715 353.5314 432.4386 352.7643 432.4386 351.5206 431.6715 350.7535 430.9044 349.9864 429.6607 349.9864 428.8936 350.7535" fill="#648fff"/>
<path transform="matrix(1,0,0,-1,-272.5,562.9334)" d="M503.3069 381.5635C502.5398 382.3306 502.5398 383.5743 503.3069 384.3414 504.074 385.1085 505.3177 385.1085 506.0848 384.3414 506.8519 383.5743 506.8519 382.3306 506.0848 381.5635 505.3177 380.7964 504.074 380.7964 503.3069 381.5635" fill="#648fff"/>
</g>
<g clip-path="url(#clip_14)">
<path transform="matrix(1,0,0,-1,-272.5,562.9334)" d="M434.999 381.279C434.2319 382.0461 434.2319 383.2899 434.999 384.057 435.7661 384.8241 437.0098 384.8241 437.7769 384.057 438.544 383.2899 438.544 382.0461 437.7769 381.279 437.0098 380.5119 435.7661 380.5119 434.999 381.279" fill="#19b091"/>
<path transform="matrix(1,0,0,-1,-272.5,562.9334)" d="M458.616 363.0597C457.8489 363.8268 457.8489 365.0705 458.616 365.8376 459.3831 366.6047 460.6268 366.6047 461.3939 365.8376 462.161 365.0705 462.161 363.8268 461.3939 363.0597 460.6268 362.2926 459.3831 362.2926 458.616 363.0597" fill="#ffb000"/>
</g>
</g>
</g>
</g>
</svg>
