<svg xmlns="http://www.w3.org/2000/svg" xmlns:xlink="http://www.w3.org/1999/xlink" xmlns:inkscape="http://www.inkscape.org/namespaces/inkscape" version="1.1" width="562" height="108.966068" viewBox="0 0 562 108.966068">
<defs>
<clipPath id="clip_103">
<path transform="matrix(1,0,0,-1,-25,737.2705)" d="M25 628.30447H587V737.2705H25Z" clip-rule="evenodd"/>
</clipPath>
<clipPath id="clip_104">
<path transform="matrix(1,0,0,-1,-25,737.2705)" d="M0 0H612V803.25H0Z"/>
</clipPath>
<clipPath id="clip_105">
<path transform="matrix(1,0,0,-1,-25,737.2705)" d="M0 0H612V803.25H0Z"/>
</clipPath>
<clipPath id="clip_106">
<path transform="matrix(1,0,0,-1,-25,737.2705)" d="M0 0H612V803.25H0Z"/>
</clipPath>
<clipPath id="clip_107">
<path transform="matrix(1,0,0,-1,-25,737.2705)" d="M0 0H612V803.25H0Z"/>
</clipPath>
<clipPath id="clip_108">
<path transform="matrix(1,0,0,-1,-25,737.2705)" d="M0 0H612V803.25H0Z"/>
</clipPath>
<clipPath id="clip_109">
<path transform="matrix(1,0,0,-1,-25,737.2705)" d="M0 0H612V803.25H0Z"/>
</clipPath>
<clipPath id="clip_110">
<path transform="matrix(1,0,0,-1,-25,737.2705)" d="M0 0H612V803.25H0Z"/>
</clipPath>
<clipPath id="clip_111">
<path transform="matrix(1,0,0,-1,-25,737.2705)" d="M0 0H612V803.25H0Z"/>
</clipPath>
<clipPath id="clip_112">
<path transform="matrix(1,0,0,-1,-25,737.2705)" d="M0 0H612V803.25H0Z"/>
</clipPath>
<clipPath id="clip_113">
<path transform="matrix(1,0,0,-1,-25,737.2705)" d="M0 0H612V803.25H0Z"/>
</clipPath>
<clipPath id="clip_114">
<path transform="matrix(1,0,0,-1,-25,737.2705)" d="M0 0H612V803.25H0Z"/>
</clipPath>
<clipPath id="clip_115">
<path transform="matrix(1,0,0,-1,-25,737.2705)" d="M0 0H612V803.25H0Z"/>
</clipPath>
<clipPath id="clip_116">
<path transform="matrix(1,0,0,-1,-25,737.2705)" d="M0 0H612V803.25H0Z"/>
</clipPath>
<clipPath id="clip_117">
<path transform="matrix(1,0,0,-1,-25,737.2705)" d="M0 0H612V803.25H0Z"/>
</clipPath>
<clipPath id="clip_118">
<path transform="matrix(1,0,0,-1,-25,737.2705)" d="M0 0H612V803.25H0Z"/>
</clipPath>
<clipPath id="clip_119">
<path transform="matrix(1,0,0,-1,-25,737.2705)" d="M0 0H612V803.25H0Z"/>
</clipPath>
<clipPath id="clip_120">
<path transform="matrix(1,0,0,-1,-25,737.2705)" d="M29.83676 632.4038C29.41296 632.2851 28.9732 632.5325 28.85454 632.9563 28.73587 633.3801 28.98323 633.8199 29.40704 633.9385L206.5725 683.5449C206.9963 683.6635 207.436 683.4162 207.5547 682.9924 207.6734 682.5686 207.426 682.1288 207.0022 682.0101Z"/>
</clipPath>
<clipPath id="clip_121">
<path transform="matrix(1,0,0,-1,-25,737.2705)" d="M0 0H612V803.25H0Z"/>
</clipPath>
<clipPath id="clip_122">
<path transform="matrix(1,0,0,-1,-25,737.2705)" d="M0 0H612V803.25H0Z"/>
</clipPath>
<clipPath id="clip_123">
<path transform="matrix(1,0,0,-1,-25,737.2705)" d="M0 0H612V803.25H0Z"/>
</clipPath>
</defs>
<g clip-path="url(#clip_103)">
<g clip-path="url(#clip_104)">
<g clip-path="url(#clip_105)">
<g clip-path="url(#clip_106)">
<path transform="matrix(1,0,0,-1,-25,737.2705)" d="M228.0472 632.3743C227.6071 632.3743 227.2503 632.7311 227.2503 633.1712 227.2503 633.6113 227.6071 633.968 228.0472 633.968H369.7796C370.2197 633.968 370.5764 633.6113 370.5764 633.1712 370.5764 632.7311 370.2197 632.3743 369.7796 632.3743Z"/>
<path transform="matrix(1,0,0,-1,-25,737.2705)" d="M403.0934 680.6582C401.9229 681.8287 401.9229 683.7263 403.0934 684.8968 404.2638 686.0672 406.1615 686.0672 407.3319 684.8968 408.5024 683.7263 408.5024 681.8287 407.3319 680.6582 406.1615 679.4878 404.2638 679.4878 403.0934 680.6582" fill="#19b091"/>
</g>
<g clip-path="url(#clip_107)">
<path transform="matrix(1,0,0,-1,-25,737.2705)" d="M367.6603 631.0519C366.4898 632.2223 366.4898 634.12 367.6603 635.2904 368.8307 636.4609 370.7284 636.4609 371.8988 635.2904 373.0693 634.12 373.0693 632.2223 371.8988 631.0519 370.7284 629.8815 368.8307 629.8815 367.6603 631.0519M225.9279 631.0519C224.7575 632.2223 224.7575 634.12 225.9279 635.2904 227.0984 636.4609 228.996 636.4609 230.1665 635.2904 231.3369 634.12 231.3369 632.2223 230.1665 631.0519 228.996 629.8815 227.0984 629.8815 225.9279 631.0519" fill="#648fff"/>
</g>
<g clip-path="url(#clip_108)">
<path transform="matrix(1,0,0,-1,-25,737.2705)" d="M296.7941 631.0519C295.6237 632.2223 295.6237 634.12 296.7941 635.2904 297.9646 636.4609 299.8622 636.4609 301.0327 635.2904 302.2031 634.12 302.2031 632.2223 301.0327 631.0519 299.8622 629.8815 297.9646 629.8815 296.7941 631.0519" fill="#ffb000"/>
</g>
<g clip-path="url(#clip_109)">
<path transform="matrix(1,0,0,-1,-25,737.2705)" d="M228.2621 632.4038C227.8383 632.2851 227.3985 632.5325 227.2798 632.9563 227.1612 633.3801 227.4085 633.8199 227.8323 633.9385L404.9978 683.5449C405.4216 683.6635 405.8613 683.4162 405.98 682.9924 406.0987 682.5686 405.8513 682.1288 405.4275 682.0101Z"/>
</g>
<g clip-path="url(#clip_110)">
<path transform="matrix(1,0,0,-1,-25,737.2705)" d="M299.3784 632.5241C299.0211 632.2672 298.5231 632.3487 298.2663 632.7061 298.0094 633.0635 298.0909 633.5614 298.4483 633.8183L319.0485 648.6236C319.4058 648.8805 319.9038 648.799 320.1606 648.4416 320.4175 648.0842 320.336 647.5863 319.9786 647.3295Z" fill="#ffb000"/>
</g>
<g clip-path="url(#clip_111)">
<path transform="matrix(1,0,0,-1,-25,737.2705)" d="M317.3942 645.8573C316.2238 647.0277 316.2238 648.9254 317.3942 650.0958 318.5647 651.2663 320.4624 651.2663 321.6328 650.0958 322.8032 648.9254 322.8032 647.0277 321.6328 645.8573 320.4624 644.6868 318.5647 644.6868 317.3942 645.8573M370.1165 632.4491C369.7177 632.2629 369.2436 632.4354 369.0574 632.8342 368.8713 633.233 369.0438 633.7072 369.4426 633.8933L582.0411 733.1059C582.4399 733.292 582.9141 733.1196 583.1002 732.7208 583.2863 732.322 583.1139 731.8478 582.7151 731.6617ZM405.4275 682.0101C405.0037 681.8915 404.564 682.1388 404.4453 682.5626 404.3266 682.9864 404.574 683.4262 404.9978 683.5449L582.1632 733.1512C582.587 733.2698 583.0268 733.0225 583.1455 732.5987 583.2641 732.1749 583.0168 731.7351 582.593 731.6165ZM582.0411 733.1059C582.4399 733.292 582.9141 733.1196 583.1002 732.7208 583.2863 732.322 583.1139 731.8478 582.7151 731.6617L476.4158 682.0554C476.017 681.8693 475.5428 682.0417 475.3567 682.4405 475.1706 682.8393 475.343 683.3135 475.7418 683.4996ZM582.0411 733.1059C582.4399 733.292 582.9141 733.1196 583.1002 732.7208 583.2863 732.322 583.1139 731.8478 582.7151 731.6617L370.1165 632.4491C369.7177 632.2629 369.2436 632.4354 369.0574 632.8342 368.8713 633.233 369.0438 633.7072 369.4426 633.8933ZM29.6219 632.3743C29.1818 632.3743 28.82502 632.7311 28.82502 633.1712 28.82502 633.6113 29.1818 633.968 29.6219 633.968H171.3543C171.7944 633.968 172.1511 633.6113 172.1511 633.1712 172.1511 632.7311 171.7944 632.3743 171.3543 632.3743Z"/>
</g>
<g clip-path="url(#clip_112)">
<path transform="matrix(1,0,0,-1,-25,737.2705)" d="M404.7922 682.1006C404.4184 682.3328 404.3035 682.8241 404.5357 683.1979 404.7679 683.5718 405.2592 683.6866 405.6331 683.4544L436.0363 664.5717C436.4101 664.3395 436.525 663.8482 436.2928 663.4743 436.0606 663.1005 435.5693 662.9856 435.1954 663.2178Z" fill="#19b091"/>
<path transform="matrix(1,0,0,-1,-25,737.2705)" d="M473.9596 680.6582C472.7891 681.8287 472.7891 683.7263 473.9596 684.8968 475.13 686.0672 477.0277 686.0672 478.1981 684.8968 479.3685 683.7263 479.3685 681.8287 478.1981 680.6582 477.0277 679.4878 475.13 679.4878 473.9596 680.6582M473.9596 680.6582C472.7891 681.8287 472.7891 683.7263 473.9596 684.8968 475.13 686.0672 477.0277 686.0672 478.1981 684.8968 479.3685 683.7263 479.3685 681.8287 478.1981 680.6582 477.0277 679.4878 475.13 679.4878 473.9596 680.6582M484.9492 705.6214C485.1218 706.0263 485.5899 706.2146 485.9947 706.0421 486.3996 705.8695 486.5879 705.4014 486.4153 704.9965L476.8119 682.465C476.6393 682.0602 476.1712 681.8719 475.7664 682.0444 475.3615 682.217 475.1732 682.6851 475.3458 683.0899Z" fill="#dc267f"/>
<path transform="matrix(1,0,0,-1,-25,737.2705)" d="M502.4828 709.4539C502.1089 709.6861 501.9941 710.1774 502.2263 710.5513 502.4585 710.9251 502.9498 711.04 503.3236 710.8078L516.9622 702.3372C517.3361 702.105 517.451 701.6137 517.2188 701.2398 516.9866 700.8659 516.4952 700.7511 516.1214 700.9833Z" fill="#19b091"/>
<path transform="matrix(1,0,0,-1,-25,737.2705)" d="M320.2466 647.6641C320.074 647.2592 319.6059 647.0709 319.2011 647.2435 318.7962 647.416 318.6079 647.8841 318.7805 648.289L324.01 660.5585C324.1825 660.9633 324.6506 661.1516 325.0555 660.9791 325.4604 660.8065 325.6487 660.3384 325.4761 659.9336Z" fill="#dc267f"/>
<path transform="matrix(1,0,0,-1,-25,737.2705)" d="M169.235 631.0519C168.0645 632.2223 168.0645 634.12 169.235 635.2904 170.4054 636.4609 172.3031 636.4609 173.4735 635.2904 174.644 634.12 174.644 632.2223 173.4735 631.0519 172.3031 629.8815 170.4054 629.8815 169.235 631.0519M27.50263 631.0519C26.33218 632.2223 26.33218 634.12 27.50263 635.2904 28.67307 636.4609 30.57073 636.4609 31.74117 635.2904 32.91161 634.12 32.91161 632.2223 31.74117 631.0519 30.57073 629.8815 28.67307 629.8815 27.50263 631.0519" fill="#648fff"/>
</g>
<g clip-path="url(#clip_113)">
<path transform="matrix(1,0,0,-1,-25,737.2705)" d="M98.36881 631.0519C97.19836 632.2223 97.19836 634.12 98.36881 635.2904 99.53925 636.4609 101.4369 636.4609 102.6074 635.2904 103.7778 634.12 103.7778 632.2223 102.6074 631.0519 101.4369 629.8815 99.53925 629.8815 98.36881 631.0519" fill="#ffb000"/>
</g>
<g clip-path="url(#clip_114)">
<path transform="matrix(1,0,0,-1,-25,737.2705)" d="M29.95888 632.4491C29.56007 632.2629 29.0859 632.4354 28.89978 632.8342 28.71367 633.233 28.8861 633.7072 29.28491 633.8933L135.5842 683.4996C135.983 683.6857 136.4572 683.5133 136.6433 683.1145 136.8294 682.7157 136.657 682.2415 136.2582 682.0554ZM172.0027 632.708C171.7469 632.3499 171.2492 632.2669 170.8911 632.5227 170.533 632.7785 170.45 633.2762 170.7058 633.6343L241.572 732.847C241.8278 733.2051 242.3255 733.2881 242.6836 733.0323 243.0417 732.7765 243.1247 732.2788 242.8689 731.9206ZM29.95888 632.4491C29.56007 632.2629 29.0859 632.4354 28.89978 632.8342 28.71367 633.233 28.8861 633.7072 29.28491 633.8933L241.8835 733.1059C242.2823 733.292 242.7564 733.1196 242.9426 732.7208 243.1287 732.322 242.9562 731.8478 242.5574 731.6617ZM241.572 732.847C241.8278 733.2051 242.3255 733.2881 242.6836 733.0323 243.0417 732.7765 243.1247 732.2788 242.8689 731.9206L172.0027 632.708C171.7469 632.3499 171.2492 632.2669 170.8911 632.5227 170.533 632.7785 170.45 633.2762 170.7058 633.6343Z"/>
</g>
<g clip-path="url(#clip_115)">
<path transform="matrix(1,0,0,-1,-25,737.2705)" d="M204.6681 680.6582C203.4976 681.8287 203.4976 683.7263 204.6681 684.8968 205.8385 686.0672 207.7362 686.0672 208.9066 684.8968 210.0771 683.7263 210.0771 681.8287 208.9066 680.6582 207.7362 679.4878 205.8385 679.4878 204.6681 680.6582M121.5086 648.6535C121.8825 648.4213 121.9974 647.93 121.7652 647.5561 121.533 647.1822 121.0416 647.0674 120.6678 647.2996L95.03775 663.2178C94.66389 663.45 94.54905 663.9413 94.78124 664.3152 95.01344 664.6891 95.50475 664.8039 95.87862 664.5717ZM207.2078 683.4544C207.5816 683.2222 207.6965 682.7309 207.4643 682.3571 207.2321 681.9832 206.7408 681.8684 206.3669 682.1006L175.9637 700.9833C175.5899 701.2155 175.475 701.7068 175.7072 702.0807 175.9394 702.4545 176.4307 702.5694 176.8046 702.3372Z" fill="#19b091"/>
<path transform="matrix(1,0,0,-1,-25,737.2705)" d="M240.1012 730.2645C238.9307 731.435 238.9307 733.3327 240.1012 734.5031 241.2716 735.6735 243.1693 735.6735 244.3397 734.5031 245.5102 733.3327 245.5102 731.435 244.3397 730.2645 243.1693 729.0941 241.2716 729.0941 240.1012 730.2645" fill="#648fff"/>
</g>
<g clip-path="url(#clip_116)">
<path transform="matrix(1,0,0,-1,-25,737.2705)" d="M100.9531 632.5241C100.5958 632.2672 100.0978 632.3487 99.84099 632.7061 99.58414 633.0635 99.66564 633.5614 100.023 633.8183L120.6232 648.6236C120.9805 648.8805 121.4785 648.799 121.7353 648.4416 121.9922 648.0842 121.9107 647.5863 121.5533 647.3295Z" fill="#ffb000"/>
</g>
<g clip-path="url(#clip_117)">
<path transform="matrix(1,0,0,-1,-25,737.2705)" d="M121.8213 647.6641C121.6487 647.2592 121.1806 647.0709 120.7758 647.2435 120.3709 647.416 120.1826 647.8841 120.3551 648.289L135.1881 683.0899C135.3607 683.4948 135.8288 683.6831 136.2336 683.5106 136.6385 683.338 136.8268 682.8699 136.6542 682.465ZM133.8019 680.6582C132.6315 681.8287 132.6315 683.7263 133.8019 684.8968 134.9723 686.0672 136.87 686.0672 138.0404 684.8968 139.2109 683.7263 139.2109 681.8287 138.0404 680.6582 136.87 679.4878 134.9723 679.4878 133.8019 680.6582M133.8019 680.6582C132.6315 681.8287 132.6315 683.7263 133.8019 684.8968 134.9723 686.0672 136.87 686.0672 138.0404 684.8968 139.2109 683.7263 139.2109 681.8287 138.0404 680.6582 136.87 679.4878 134.9723 679.4878 133.8019 680.6582" fill="#dc267f"/>
</g>
<g clip-path="url(#clip_118)">
<path transform="matrix(1,0,0,-1,-25,737.2705)" d="M118.9689 645.8573C117.7985 647.0277 117.7985 648.9254 118.9689 650.0958 120.1394 651.2663 122.037 651.2663 123.2075 650.0958 124.3779 648.9254 124.3779 647.0277 123.2075 645.8573 122.037 644.6868 120.1394 644.6868 118.9689 645.8573"/>
</g>
<g clip-path="url(#clip_119)">
<path transform="matrix(1,0,0,-1,-25,737.2705)" d="M121.8213 647.6641C121.6487 647.2592 121.1806 647.0709 120.7758 647.2435 120.3709 647.416 120.1826 647.8841 120.3551 648.289L125.5847 660.5585C125.7572 660.9633 126.2253 661.1516 126.6302 660.9791 127.035 660.8065 127.2234 660.3384 127.0508 659.9336Z" fill="#dc267f"/>
</g>
<g clip-path="url(#clip_120)">
<g clip-path="url(#clip_121)">
<path transform="matrix(1,0,0,-1,-25,737.2705)" d="M29.83676 632.4038 32.89134 633.2591 32.46161 634.7938 29.40704 633.9385ZM34.41862 633.6867 37.4732 634.542 37.04348 636.0767 33.9889 635.2215ZM39.00049 634.9697 42.05507 635.8249 41.62534 637.3597 38.57077 636.5044ZM43.58235 636.2526 46.63693 637.1079 46.20721 638.6426 43.15263 637.7873ZM48.16422 637.5355 51.2188 638.3908 50.78907 639.9255 47.7345 639.0702ZM52.74608 638.8184 55.80066 639.6737 55.37094 641.2084 52.31636 640.3531ZM57.32795 640.1013 60.38253 640.9566 59.9528 642.4913 56.89823 641.6361ZM61.90981 641.3843 64.96439 642.2395 64.53467 643.7743 61.48009 642.919ZM66.49168 642.6672 69.54626 643.5225 69.11653 645.0572 66.06196 644.2019ZM71.07355 643.9501 74.12812 644.8054 73.6984 646.3401 70.64382 645.4848ZM75.65541 645.233 78.70999 646.0883 78.28026 647.623 75.22569 646.7678ZM80.23728 646.516 83.29185 647.3712 82.86213 648.906 79.80755 648.0507ZM84.81914 647.7989 87.87372 648.6542 87.44399 650.1889 84.38942 649.3336ZM89.40101 649.0818 92.45558 649.9371 92.02586 651.4718 88.97128 650.6165ZM93.98287 650.3647 97.03745 651.22 96.60772 652.7547 93.55315 651.8994ZM98.56474 651.6476 101.6193 652.5029 101.1896 654.0376 98.13501 653.1824ZM103.1466 652.9306 106.2012 653.7858 105.7715 655.3206 102.7169 654.4653ZM107.7285 654.2135 110.783 655.0688 110.3533 656.6035 107.2987 655.7482ZM112.3103 655.4964 115.3649 656.3517 114.9352 657.8864 111.8806 657.0311ZM116.8922 656.7793 119.9468 657.6346 119.5171 659.1693 116.4625 658.3141ZM121.4741 658.0623 124.5286 658.9175 124.0989 660.4523 121.0443 659.597ZM126.0559 659.3452 129.1105 660.2005 128.6808 661.7352 125.6262 660.8799ZM130.6378 660.6281 133.6924 661.4834 133.2626 663.0181 130.2081 662.1628ZM135.2197 661.911 138.2742 662.7663 137.8445 664.301 134.7899 663.4457ZM139.8015 663.1939 142.8561 664.0492 142.4264 665.5839 139.3718 664.7287ZM144.3834 664.4769 147.438 665.3321 147.0082 666.8669 143.9537 666.0116ZM148.9653 665.7598 152.0198 666.6151 151.5901 668.1498 148.5355 667.2945ZM153.5471 667.0427 156.6017 667.898 156.172 669.4327 153.1174 668.5774ZM158.129 668.3256 161.1836 669.1809 160.7538 670.7156 157.6993 669.8604ZM162.7108 669.6086 165.7654 670.4638 165.3357 671.9986 162.2811 671.1433ZM167.2927 670.8915 170.3473 671.7468 169.9176 673.2815 166.863 672.4262ZM171.8746 672.1744 174.9292 673.0297 174.4994 674.5644 171.4449 673.7091ZM176.4564 673.4573 179.511 674.3126 179.0813 675.8473 176.0267 674.992ZM181.0383 674.7402 184.0929 675.5955 183.6632 677.1302 180.6086 676.275ZM185.6202 676.0232 188.6747 676.8784 188.245 678.4132 185.1904 677.5579ZM190.202 677.3061 193.2566 678.1614 192.8269 679.6961 189.7723 678.8408ZM194.7839 678.589 197.8385 679.4443 197.4088 680.979 194.3542 680.1237ZM199.3658 679.8719 202.4203 680.7272 201.9906 682.2619 198.936 681.4067ZM203.9476 681.1549 207.0022 682.0101 206.5725 683.5449 203.5179 682.6896Z" fill="#969696"/>
</g>
</g>
<g clip-path="url(#clip_122)">
<path transform="matrix(1,0,0,-1,-25,737.2705)" d="M367.6603 631.0519C366.4898 632.2223 366.4898 634.12 367.6603 635.2904 368.8307 636.4609 370.7284 636.4609 371.8988 635.2904 373.0693 634.12 373.0693 632.2223 371.8988 631.0519 370.7284 629.8815 368.8307 629.8815 367.6603 631.0519M580.2588 730.2645C579.0884 731.435 579.0884 733.3327 580.2588 734.5031 581.4293 735.6735 583.3269 735.6735 584.4974 734.5031 585.6678 733.3327 585.6678 731.435 584.4974 730.2645 583.3269 729.0941 581.4293 729.0941 580.2588 730.2645" fill="#648fff"/>
<path transform="matrix(1,0,0,-1,-25,737.2705)" d="M319.934 648.6535C320.3078 648.4213 320.4227 647.93 320.1905 647.5561 319.9583 647.1822 319.467 647.0674 319.0931 647.2996L307.1017 654.7472C306.7278 654.9794 306.613 655.4707 306.8452 655.8446 307.0774 656.2184 307.5687 656.3333 307.9425 656.1011Z" fill="#19b091"/>
<path transform="matrix(1,0,0,-1,-25,737.2705)" d="M118.9689 645.8573C117.7985 647.0277 117.7985 648.9254 118.9689 650.0958 120.1394 651.2663 122.037 651.2663 123.2075 650.0958 124.3779 648.9254 124.3779 647.0277 123.2075 645.8573 122.037 644.6868 120.1394 644.6868 118.9689 645.8573"/>
</g>
<g clip-path="url(#clip_123)">
<path transform="matrix(1,0,0,-1,-25,737.2705)" d="M317.3942 645.8573C316.2238 647.0277 316.2238 648.9254 317.3942 650.0958 318.5647 651.2663 320.4624 651.2663 321.6328 650.0958 322.8032 648.9254 322.8032 647.0277 321.6328 645.8573 320.4624 644.6868 318.5647 644.6868 317.3942 645.8573"/>
</g>
</g>
</g>
</g>
</svg>
