<svg xmlns="http://www.w3.org/2000/svg" xmlns:xlink="http://www.w3.org/1999/xlink" xmlns:inkscape="http://www.inkscape.org/namespaces/inkscape" version="1.1" width="199" height="165.94837" viewBox="0 0 199 165.94837">
<defs>
<clipPath id="clip_45">
<path transform="matrix(1,0,0,-1,-34.5,780.757)" d="M34.5 614.80868H233.5V780.757H34.5Z" clip-rule="evenodd"/>
</clipPath>
<clipPath id="clip_46">
<path transform="matrix(1,0,0,-1,-34.5,780.757)" d="M0 0H612V803.25H0Z"/>
</clipPath>
<clipPath id="clip_47">
<path transform="matrix(1,0,0,-1,-34.5,780.757)" d="M0 0H612V803.25H0Z"/>
</clipPath>
<clipPath id="clip_48">
<path transform="matrix(1,0,0,-1,-34.5,780.757)" d="M0 0H612V803.25H0Z"/>
</clipPath>
<clipPath id="clip_49">
<path transform="matrix(1,0,0,-1,-34.5,780.757)" d="M0 0H612V803.25H0Z"/>
</clipPath>
<clipPath id="clip_50">
<path transform="matrix(1,0,0,-1,-34.5,780.757)" d="M39.77583 618.6799C39.4366 618.3995 38.93431 618.4472 38.65393 618.7864 38.37356 619.1257 38.42127 619.628 38.7605 619.9083L105.4319 675.0123C105.7712 675.2926 106.2735 675.2449 106.5538 674.9057 106.8342 674.5665 106.7865 674.0642 106.4473 673.7838Z"/>
</clipPath>
<clipPath id="clip_51">
<path transform="matrix(1,0,0,-1,-34.5,780.757)" d="M0 0H612V803.25H0Z"/>
</clipPath>
<clipPath id="clip_52">
<path transform="matrix(1,0,0,-1,-34.5,780.757)" d="M0 0H612V803.25H0Z"/>
</clipPath>
<clipPath id="clip_53">
<path transform="matrix(1,0,0,-1,-34.5,780.757)" d="M0 0H612V803.25H0Z"/>
</clipPath>
</defs>
<g clip-path="url(#clip_45)">
<g clip-path="url(#clip_46)">
<g clip-path="url(#clip_47)">
<g clip-path="url(#clip_48)">
<path transform="matrix(1,0,0,-1,-34.5,780.757)" d="M39.93121 618.8521C39.68708 618.4859 39.19233 618.3869 38.82614 618.6311 38.45995 618.8752 38.361 619.3699 38.60513 619.7361L95.29807 704.7755C95.5422 705.1417 96.03695 705.2407 96.40314 704.9966 96.76933 704.7524 96.86828 704.2577 96.62415 703.8915ZM95.20513 704.0815C95.06596 704.499 95.2916 704.9503 95.70912 705.0895 96.12664 705.2287 96.57792 705.003 96.71709 704.5855L125.0636 619.5461C125.2027 619.1286 124.9771 618.6773 124.5596 618.5381 124.1421 618.3989 123.6908 618.6246 123.5516 619.0421ZM39.26817 618.4972C38.82807 618.4972 38.47129 618.854 38.47129 619.2941 38.47129 619.7342 38.82807 620.091 39.26817 620.091H124.3076C124.7477 620.091 125.1045 619.7342 125.1045 619.2941 125.1045 618.854 124.7477 618.4972 124.3076 618.4972Z"/>
</g>
<g clip-path="url(#clip_49)">
<path transform="matrix(1,0,0,-1,-34.5,780.757)" d="M103.8203 672.2788C102.6499 673.4492 102.6499 675.3469 103.8203 676.5173 104.9908 677.6878 106.8884 677.6878 108.0589 676.5173 109.2293 675.3469 109.2293 673.4492 108.0589 672.2788 106.8884 671.1083 104.9908 671.1083 103.8203 672.2788" fill="#dc267f"/>
<path transform="matrix(1,0,0,-1,-34.5,780.757)" d="M79.6686 617.1748C78.49816 618.3453 78.49816 620.2429 79.6686 621.4134 80.83904 622.5838 82.73671 622.5838 83.90715 621.4134 85.07759 620.2429 85.07759 618.3453 83.90715 617.1748 82.73671 616.0044 80.83904 616.0044 79.6686 617.1748" fill="#ffb000"/>
<path transform="matrix(1,0,0,-1,-34.5,780.757)" d="M52.83315 640.7012C51.66271 641.8717 51.66271 643.7693 52.83315 644.9398 54.00359 646.1102 55.90125 646.1102 57.07169 644.9398 58.24214 643.7693 58.24214 641.8717 57.07169 640.7012 55.90125 639.5308 54.00359 639.5308 52.83315 640.7012" fill="#19b091"/>
<path transform="matrix(1,0,0,-1,-34.5,780.757)" d="M93.84184 702.2142C92.6714 703.3847 92.6714 705.2823 93.84184 706.4528 95.01228 707.6232 96.90994 707.6232 98.08038 706.4528 99.25083 705.2823 99.25083 703.3847 98.08038 702.2142 96.90994 701.0438 95.01228 701.0438 93.84184 702.2142" fill="#648fff"/>
<path transform="matrix(1,0,0,-1,-34.5,780.757)" d="M37.14889 617.1748C35.97845 618.3453 35.97845 620.2429 37.14889 621.4134 38.31934 622.5838 40.217 622.5838 41.38744 621.4134 42.55788 620.2429 42.55788 618.3453 41.38744 617.1748 40.217 616.0044 38.31934 616.0044 37.14889 617.1748" fill="#648fff"/>
<path transform="matrix(1,0,0,-1,-34.5,780.757)" d="M122.1883 617.1748C121.0179 618.3453 121.0179 620.2429 122.1883 621.4134 123.3588 622.5838 125.2564 622.5838 126.4269 621.4134 127.5973 620.2429 127.5973 618.3453 126.4269 617.1748 125.2564 616.0044 123.3588 616.0044 122.1883 617.1748" fill="#648fff"/>
</g>
<g clip-path="url(#clip_50)">
<g clip-path="url(#clip_51)">
<path transform="matrix(1,0,0,-1,-34.5,780.757)" d="M39.77583 618.6799 42.15696 620.6479 41.14162 621.8763 38.7605 619.9083ZM43.34752 621.6319 45.72864 623.5999 44.71331 624.8283 42.33219 622.8603ZM46.9192 624.5839 49.30032 626.5519 48.28499 627.7803 45.90387 625.8123ZM50.49089 627.5359 52.87201 629.5039 51.85668 630.7323 49.47555 628.7643ZM54.06257 630.4879 56.44369 632.4558 55.42836 633.6843 53.04724 631.7163ZM57.63425 633.4398 60.01538 635.4078 59.00005 636.6363 56.61892 634.6683ZM61.20594 636.3918 63.58706 638.3598 62.57173 639.5883 60.19061 637.6203ZM64.77762 639.3438 67.15875 641.3118 66.14341 642.5403 63.76229 640.5723ZM68.34931 642.2958 70.73043 644.2638 69.7151 645.4923 67.33398 643.5243ZM71.92099 645.2478 74.30211 647.2158 73.28678 648.4443 70.90566 646.4763ZM75.49267 648.1998 77.8738 650.1678 76.85847 651.3963 74.47734 649.4283ZM79.06436 651.1518 81.44548 653.1198 80.43015 654.3483 78.04903 652.3803ZM82.63604 654.1038 85.01717 656.0718 84.00183 657.3003 81.62071 655.3323ZM86.20773 657.0558 88.58885 659.0238 87.57352 660.2523 85.1924 658.2843ZM89.77941 660.0078 92.16053 661.9758 91.1452 663.2043 88.76408 661.2363ZM93.3511 662.9598 95.73222 664.9278 94.71689 666.1563 92.33576 664.1883ZM96.92278 665.9118 99.3039 667.8798 98.28857 669.1083 95.90745 667.1403ZM100.4945 668.8638 102.8756 670.8318 101.8603 672.0603 99.47913 670.0923ZM104.0661 671.8158 106.4473 673.7838 105.4319 675.0123 103.0508 673.0443Z" fill="#969696"/>
</g>
</g>
<g clip-path="url(#clip_52)">
<path transform="matrix(1,0,0,-1,-34.5,780.757)" d="M124.9706 618.8521C124.7265 618.4859 124.2317 618.3869 123.8656 618.6311 123.4994 618.8752 123.4004 619.3699 123.6445 619.7361L228.0025 776.273C228.2466 776.6392 228.7413 776.7381 229.1075 776.494 229.4737 776.2499 229.5727 775.7551 229.3285 775.389ZM39.77583 618.6799C39.4366 618.3995 38.93431 618.4472 38.65393 618.7864 38.37356 619.1257 38.42127 619.628 38.7605 619.9083L228.1578 776.4452C228.4971 776.7256 228.9994 776.6779 229.2797 776.3386 229.5601 775.9994 229.5124 775.4971 229.1732 775.2167Z"/>
</g>
<g clip-path="url(#clip_53)">
<path transform="matrix(1,0,0,-1,-34.5,780.757)" d="M37.14889 617.1748C35.97845 618.3453 35.97845 620.2429 37.14889 621.4134 38.31934 622.5838 40.217 622.5838 41.38744 621.4134 42.55788 620.2429 42.55788 618.3453 41.38744 617.1748 40.217 616.0044 38.31934 616.0044 37.14889 617.1748M122.1883 617.1748C121.0179 618.3453 121.0179 620.2429 122.1883 621.4134 123.3588 622.5838 125.2564 622.5838 126.4269 621.4134 127.5973 620.2429 127.5973 618.3453 126.4269 617.1748 125.2564 616.0044 123.3588 616.0044 122.1883 617.1748" fill="#648fff"/>
<path transform="matrix(1,0,0,-1,-34.5,780.757)" d="M197.5815 730.2645C196.411 731.435 196.411 733.3327 197.5815 734.5031 198.7519 735.6735 200.6496 735.6735 201.82 734.5031 202.9904 733.3327 202.9904 731.435 201.82 730.2645 200.6496 729.0941 198.7519 729.0941 197.5815 730.2645" fill="#19b091"/>
<path transform="matrix(1,0,0,-1,-34.5,780.757)" d="M226.5462 773.7117C225.3758 774.8822 225.3758 776.7798 226.5462 777.9503 227.7167 779.1207 229.6143 779.1207 230.7848 777.9503 231.9552 776.7798 231.9552 774.8822 230.7848 773.7117 229.6143 772.5413 227.7167 772.5413 226.5462 773.7117" fill="#648fff"/>
<path transform="matrix(1,0,0,-1,-34.5,780.757)" d="M103.8203 672.2788C102.6499 673.4492 102.6499 675.3469 103.8203 676.5173 104.9908 677.6878 106.8884 677.6878 108.0589 676.5173 109.2293 675.3469 109.2293 673.4492 108.0589 672.2788 106.8884 671.1083 104.9908 671.1083 103.8203 672.2788" fill="#dc267f"/>
</g>
</g>
</g>
</g>
</svg>
