<svg xmlns="http://www.w3.org/2000/svg" xmlns:xlink="http://www.w3.org/1999/xlink" xmlns:inkscape="http://www.inkscape.org/namespaces/inkscape" version="1.1" width="540.5" height="166.44824" viewBox="0 0 540.5 166.44824">
<defs>
<clipPath id="clip_0">
<path transform="matrix(1,0,0,-1,-34.5,780.757)" d="M34.5 614.3088H575V780.757H34.5Z" clip-rule="evenodd"/>
</clipPath>
<clipPath id="clip_1">
<path transform="matrix(1,0,0,-1,-34.5,780.757)" d="M0 0H612V803.25H0Z"/>
</clipPath>
<clipPath id="clip_2">
<path transform="matrix(1,0,0,-1,-34.5,780.757)" d="M0 0H612V803.25H0Z"/>
</clipPath>
<clipPath id="clip_3">
<path transform="matrix(1,0,0,-1,-34.5,780.757)" d="M0 0H612V803.25H0Z"/>
</clipPath>
<clipPath id="clip_4">
<path transform="matrix(1,0,0,-1,-34.5,780.757)" d="M0 0H612V803.25H0Z"/>
</clipPath>
<clipPath id="clip_5">
<path transform="matrix(1,0,0,-1,-34.5,780.757)" d="M39.77583 618.6799C39.4366 618.3995 38.93431 618.4472 38.65393 618.7864 38.37356 619.1257 38.42127 619.628 38.7605 619.9083L105.4319 675.0123C105.7712 675.2926 106.2735 675.2449 106.5538 674.9057 106.8342 674.5665 106.7865 674.0642 106.4473 673.7838Z"/>
</clipPath>
<clipPath id="clip_6">
<path transform="matrix(1,0,0,-1,-34.5,780.757)" d="M0 0H612V803.25H0Z"/>
</clipPath>
<clipPath id="clip_7">
<path transform="matrix(1,0,0,-1,-34.5,780.757)" d="M0 0H612V803.25H0Z"/>
</clipPath>
<clipPath id="clip_8">
<path transform="matrix(1,0,0,-1,-34.5,780.757)" d="M0 0H612V803.25H0Z"/>
</clipPath>
<clipPath id="clip_9">
<path transform="matrix(1,0,0,-1,-34.5,780.757)" d="M0 0H612V803.25H0Z"/>
</clipPath>
<clipPath id="clip_10">
<path transform="matrix(1,0,0,-1,-34.5,780.757)" d="M0 0H612V803.25H0Z"/>
</clipPath>
<clipPath id="clip_11">
<path transform="matrix(1,0,0,-1,-34.5,780.757)" d="M0 0H612V803.25H0Z"/>
</clipPath>
<clipPath id="clip_12">
<path transform="matrix(1,0,0,-1,-34.5,780.757)" d="M0 0H612V803.25H0Z"/>
</clipPath>
</defs>
<g clip-path="url(#clip_0)">
<g clip-path="url(#clip_1)">
<g clip-path="url(#clip_2)">
<text xml:space="preserve" transform="matrix(20.33223 0 -0 20.33223 340.261 149.73212)" font-size="1" font-family="cmr10"><tspan y="-.906" x="0">v</tspan></text>
<text xml:space="preserve" transform="matrix(20.33223 0 -0 20.33223 350.992 149.73212)" font-size="1" font-family="cmr10"><tspan y="-.906" x="0">s</tspan></text>
<text xml:space="preserve" transform="matrix(20.33223 0 -0 20.33223 359.0119 149.73212)" font-size="1" font-family="cmmi10" font-style="italic"><tspan y="-.906" x="0">.</tspan></text>
<g clip-path="url(#clip_3)">
<path transform="matrix(1,0,0,-1,-34.5,780.757)" d="M95.29807 704.7755C95.5422 705.1417 96.03695 705.2407 96.40314 704.9966 96.76933 704.7524 96.86828 704.2577 96.62415 703.8915L39.93121 618.8521C39.68708 618.4859 39.19233 618.3869 38.82614 618.6311 38.45995 618.8752 38.361 619.3699 38.60513 619.7361ZM95.20513 704.0815C95.06596 704.499 95.2916 704.9503 95.70912 705.0895 96.12664 705.2287 96.57792 705.003 96.71709 704.5855L125.0636 619.5461C125.2027 619.1286 124.9771 618.6773 124.5596 618.5381 124.1421 618.3989 123.6908 618.6246 123.5516 619.0421ZM39.26817 618.4972C38.82807 618.4972 38.47129 618.854 38.47129 619.2941 38.47129 619.7342 38.82807 620.091 39.26817 620.091H124.3076C124.7477 620.091 125.1045 619.7342 125.1045 619.2941 125.1045 618.854 124.7477 618.4972 124.3076 618.4972Z"/>
</g>
<g clip-path="url(#clip_4)">
<path transform="matrix(1,0,0,-1,-34.5,780.757)" d="M103.8203 672.2788C102.6499 673.4492 102.6499 675.3469 103.8203 676.5173 104.9908 677.6878 106.8884 677.6878 108.0589 676.5173 109.2293 675.3469 109.2293 673.4492 108.0589 672.2788 106.8884 671.1083 104.9908 671.1083 103.8203 672.2788" fill="#dc267f"/>
<path transform="matrix(1,0,0,-1,-34.5,780.757)" d="M79.6686 617.1748C78.49816 618.3453 78.49816 620.2429 79.6686 621.4134 80.83904 622.5838 82.73671 622.5838 83.90715 621.4134 85.07759 620.2429 85.07759 618.3453 83.90715 617.1748 82.73671 616.0044 80.83904 616.0044 79.6686 617.1748" fill="#ffb000"/>
<path transform="matrix(1,0,0,-1,-34.5,780.757)" d="M78.15759 678.6879C76.98714 679.8583 76.98714 681.756 78.15759 682.9264 79.32803 684.0969 81.22569 684.0969 82.39613 682.9264 83.56657 681.756 83.56657 679.8583 82.39613 678.6879 81.22569 677.5174 79.32803 677.5174 78.15759 678.6879" fill="#19b091"/>
<path transform="matrix(1,0,0,-1,-34.5,780.757)" d="M93.84184 702.2142C92.6714 703.3847 92.6714 705.2823 93.84184 706.4528 95.01228 707.6232 96.90994 707.6232 98.08038 706.4528 99.25083 705.2823 99.25083 703.3847 98.08038 702.2142 96.90994 701.0438 95.01228 701.0438 93.84184 702.2142" fill="#648fff"/>
</g>
<g clip-path="url(#clip_5)">
<g clip-path="url(#clip_6)">
<path transform="matrix(1,0,0,-1,-34.5,780.757)" d="M39.77583 618.6799 42.15696 620.6479 41.14162 621.8763 38.7605 619.9083ZM43.34752 621.6319 45.72864 623.5999 44.71331 624.8283 42.33219 622.8603ZM46.9192 624.5839 49.30032 626.5519 48.28499 627.7803 45.90387 625.8123ZM50.49089 627.5359 52.87201 629.5039 51.85668 630.7323 49.47555 628.7643ZM54.06257 630.4879 56.44369 632.4558 55.42836 633.6843 53.04724 631.7163ZM57.63425 633.4398 60.01538 635.4078 59.00005 636.6363 56.61892 634.6683ZM61.20594 636.3918 63.58706 638.3598 62.57173 639.5883 60.19061 637.6203ZM64.77762 639.3438 67.15875 641.3118 66.14341 642.5403 63.76229 640.5723ZM68.34931 642.2958 70.73043 644.2638 69.7151 645.4923 67.33398 643.5243ZM71.92099 645.2478 74.30211 647.2158 73.28678 648.4443 70.90566 646.4763ZM75.49267 648.1998 77.8738 650.1678 76.85847 651.3963 74.47734 649.4283ZM79.06436 651.1518 81.44548 653.1198 80.43015 654.3483 78.04903 652.3803ZM82.63604 654.1038 85.01717 656.0718 84.00183 657.3003 81.62071 655.3323ZM86.20773 657.0558 88.58885 659.0238 87.57352 660.2523 85.1924 658.2843ZM89.77941 660.0078 92.16053 661.9758 91.1452 663.2043 88.76408 661.2363ZM93.3511 662.9598 95.73222 664.9278 94.71689 666.1563 92.33576 664.1883ZM96.92278 665.9118 99.3039 667.8798 98.28857 669.1083 95.90745 667.1403ZM100.4945 668.8638 102.8756 670.8318 101.8603 672.0603 99.47913 670.0923ZM104.0661 671.8158 106.4473 673.7838 105.4319 675.0123 103.0508 673.0443Z" fill="#969696"/>
</g>
</g>
<g clip-path="url(#clip_7)">
<path transform="matrix(1,0,0,-1,-34.5,780.757)" d="M228.0025 776.273C228.2466 776.6392 228.7413 776.7381 229.1075 776.494 229.4737 776.2499 229.5727 775.7551 229.3285 775.389L124.9706 618.8521C124.7265 618.4859 124.2317 618.3869 123.8656 618.6311 123.4994 618.8752 123.4004 619.3699 123.6445 619.7361ZM39.77583 618.6799C39.4366 618.3995 38.93431 618.4472 38.65393 618.7864 38.37356 619.1257 38.42127 619.628 38.7605 619.9083L228.1578 776.4452C228.4971 776.7256 228.9994 776.6779 229.2797 776.3386 229.5601 775.9994 229.5124 775.4971 229.1732 775.2167Z" fill="#c7c3bd"/>
</g>
<g clip-path="url(#clip_8)">
<path transform="matrix(1,0,0,-1,-34.5,780.757)" d="M226.5462 773.7117C225.3758 774.8822 225.3758 776.7798 226.5462 777.9503 227.7167 779.1207 229.6143 779.1207 230.7848 777.9503 231.9552 776.7798 231.9552 774.8822 230.7848 773.7117 229.6143 772.5413 227.7167 772.5413 226.5462 773.7117" fill="#648fff"/>
<path transform="matrix(1,0,0,-1,-34.5,780.757)" d="M103.8203 672.2788C102.6499 673.4492 102.6499 675.3469 103.8203 676.5173 104.9908 677.6878 106.8884 677.6878 108.0589 676.5173 109.2293 675.3469 109.2293 673.4492 108.0589 672.2788 106.8884 671.1083 104.9908 671.1083 103.8203 672.2788" fill="#dc267f"/>
</g>
<g clip-path="url(#clip_9)">
<path transform="matrix(1,0,0,-1,-34.5,780.757)" d="M39.55195 618.5495C39.1407 618.3927 38.68026 618.5991 38.52353 619.0103 38.36681 619.4216 38.57314 619.882 38.98439 620.0387L196.7871 680.1776C197.1983 680.3343 197.6588 680.128 197.8155 679.7167 197.9722 679.3055 197.7659 678.845 197.3546 678.6883ZM124.8152 618.6799C124.476 618.3995 123.9737 618.4472 123.6933 618.7864 123.413 619.1257 123.4607 619.628 123.7999 619.9083L196.5632 680.0472C196.9024 680.3275 197.4047 680.2798 197.6851 679.9406 197.9655 679.6014 197.9177 679.0991 197.5785 678.8187ZM227.659 647.7988C227.91 648.0132 228.2873 647.9836 228.5016 647.7326 228.716 647.4816 228.6864 647.1043 228.4354 646.89 223.5964 642.7566 218.5495 642.7566 213.496 646.8814 213.2403 647.0901 213.2022 647.4666 213.411 647.7223 213.6197 647.978 213.9962 648.0161 214.2519 647.8074 218.8619 644.0446 223.2638 644.0446 227.659 647.7988M200.0889 646.89C199.8379 646.6756 199.4607 646.7053 199.2463 646.9562 199.0319 647.2072 199.0616 647.5845 199.3126 647.7988 204.1515 651.9322 209.1984 651.9322 214.2519 647.8074 214.5076 647.5987 214.5457 647.2222 214.337 646.9665 214.1283 646.7108 213.7518 646.6727 213.496 646.8814 208.886 650.6442 204.4841 650.6442 200.0889 646.89M228.4936 646.947C228.2741 646.7005 227.8964 646.6785 227.6498 646.898 227.4033 647.1175 227.3813 647.4952 227.6008 647.7418 229.9162 650.3428 232.7356 650.8238 235.885 649.1626 236.1769 649.0086 236.2888 648.6471 236.1348 648.3551 235.9808 648.0632 235.6193 647.9513 235.3273 648.1053 232.6599 649.5123 230.44 649.1336 228.4936 646.947M230.711 648.9536C230.4776 649.187 230.4776 649.5654 230.711 649.7988 230.9444 650.0322 231.3228 650.0322 231.5562 649.7988 231.7896 649.5654 231.7896 649.187 231.5562 648.9536 231.3228 648.7202 230.9444 648.7202 230.711 648.9536M230.6918 653.5043 240.1864 649.3762 230.6918 645.2481ZM326.5968 704.5895C326.8409 704.9556 327.3357 705.0546 327.7019 704.8105 328.0681 704.5663 328.167 704.0716 327.9229 703.7054L271.23 618.666C270.9858 618.2998 270.4911 618.2008 270.1249 618.445 269.7587 618.6891 269.6597 619.1839 269.9039 619.55ZM326.5039 703.8954C326.3647 704.313 326.5903 704.7642 327.0079 704.9034 327.4254 705.0426 327.8767 704.8169 328.0158 704.3994L356.3623 619.36C356.5015 618.9425 356.2758 618.4912 355.8583 618.352 355.4408 618.2129 354.9895 618.4385 354.8503 618.856ZM270.5669 618.3111C270.1268 618.3111 269.77 618.6679 269.77 619.108 269.77 619.5481 270.1268 619.9049 270.5669 619.9049H355.6063C356.0464 619.9049 356.4032 619.5481 356.4032 619.108 356.4032 618.6679 356.0464 618.3111 355.6063 618.3111ZM412.5831 618.2533C412.1718 618.0966 411.7114 618.3029 411.5546 618.7142 411.3979 619.1254 411.6042 619.5858 412.0155 619.7426L569.8182 679.8814C570.2294 680.0381 570.6899 679.8318 570.8466 679.4205 571.0033 679.0093 570.797 678.5489 570.3857 678.3921ZM497.8464 618.3837C497.5071 618.1033 497.0048 618.151 496.7245 618.4903 496.4441 618.8295 496.4918 619.3318 496.831 619.6122L569.5943 679.751C569.9335 680.0314 570.4358 679.9837 570.7162 679.6444 570.9966 679.3052 570.9488 678.8029 570.6096 678.5225ZM412.2993 618.2011C411.8592 618.2011 411.5024 618.5578 411.5024 618.9979 411.5024 619.438 411.8592 619.7948 412.2993 619.7948H497.3387C497.7788 619.7948 498.1356 619.438 498.1356 618.9979 498.1356 618.5578 497.7788 618.2011 497.3387 618.2011ZM489.0874 629.38C489.5025 629.5261 489.9575 629.3081 490.1037 628.893 490.2499 628.4779 490.0319 628.0228 489.6167 627.8767 488.9277 627.634 488.1991 627.5086 487.4545 627.5086 483.8601 627.5086 480.9462 630.4225 480.9462 634.0169 480.9462 637.6114 483.8601 640.5253 487.4545 640.5253 489.7921 640.5253 491.9145 639.2819 493.0741 637.3018 493.2965 636.9221 493.1689 636.4339 492.7891 636.2115 492.4094 635.9891 491.9212 636.1166 491.6988 636.4964 490.8223 637.993 489.2204 638.9315 487.4545 638.9315 484.7403 638.9315 482.54 636.7312 482.54 634.0169 482.54 631.3027 484.7403 629.1024 487.4545 629.1024 488.0182 629.1024 488.5679 629.197 489.0874 629.38M486.7392 628.2971C486.6607 628.3742 486.6595 628.5003 486.7366 628.5789 486.8137 628.6574 486.9398 628.6585 487.0183 628.5815 487.11 628.4914 487.2032 628.4086 487.2977 628.3329 487.3836 628.2642 487.3975 628.1388 487.3287 628.0529 487.26 627.967 487.1346 627.9531 487.0487 628.0219 486.9436 628.106 486.8404 628.1978 486.7392 628.2971M485.7441 630.8742 493.1834 629.9369 487.4241 625.1357Z"/>
</g>
<g clip-path="url(#clip_10)">
<path transform="matrix(1,0,0,-1,-34.5,780.757)" d="M168.8474 655.7386C167.677 656.909 167.677 658.8067 168.8474 659.9771 170.0179 661.1476 171.9155 661.1476 173.086 659.9771 174.2564 658.8067 174.2564 656.909 173.086 655.7386 171.9155 654.5682 170.0179 654.5682 168.8474 655.7386M168.8474 655.7386C167.677 656.909 167.677 658.8067 168.8474 659.9771 170.0179 661.1476 171.9155 661.1476 173.086 659.9771 174.2564 658.8067 174.2564 656.909 173.086 655.7386 171.9155 654.5682 170.0179 654.5682 168.8474 655.7386" fill="#dc267f"/>
<path transform="matrix(1,0,0,-1,-34.5,780.757)" d="M194.9516 677.3137C193.7811 678.4841 193.7811 680.3818 194.9516 681.5522 196.122 682.7226 198.0197 682.7226 199.1901 681.5522 200.3606 680.3818 200.3606 678.4841 199.1901 677.3137 198.0197 676.1432 196.122 676.1432 194.9516 677.3137" fill="#648fff"/>
<path transform="matrix(1,0,0,-1,-34.5,780.757)" d="M151.1531 660.622C149.9826 661.7924 149.9826 663.6901 151.1531 664.8605 152.3235 666.031 154.2212 666.031 155.3916 664.8605 156.5621 663.6901 156.5621 661.7924 155.3916 660.622 154.2212 659.4515 152.3235 659.4515 151.1531 660.622" fill="#19b091"/>
<path transform="matrix(1,0,0,-1,-34.5,780.757)" d="M122.1883 617.1748C121.0179 618.3453 121.0179 620.2429 122.1883 621.4134 123.3588 622.5838 125.2564 622.5838 126.4269 621.4134 127.5973 620.2429 127.5973 618.3453 126.4269 617.1748 125.2564 616.0044 123.3588 616.0044 122.1883 617.1748" fill="#648fff"/>
<path transform="matrix(1,0,0,-1,-34.5,780.757)" d="M335.1191 672.0927C333.9486 673.2631 333.9486 675.1608 335.1191 676.3312 336.2895 677.5017 338.1872 677.5017 339.3576 676.3312 340.5281 675.1608 340.5281 673.2631 339.3576 672.0927 338.1872 670.9222 336.2895 670.9222 335.1191 672.0927" fill="#dc267f"/>
<path transform="matrix(1,0,0,-1,-34.5,780.757)" d="M310.9673 616.9887C309.7969 618.1592 309.7969 620.0568 310.9673 621.2273 312.1378 622.3977 314.0354 622.3977 315.2059 621.2273 316.3763 620.0568 316.3763 618.1592 315.2059 616.9887 314.0354 615.8183 312.1378 615.8183 310.9673 616.9887" fill="#ffb000"/>
<path transform="matrix(1,0,0,-1,-34.5,780.757)" d="M309.4563 678.5018C308.2859 679.6722 308.2859 681.5699 309.4563 682.7403 310.6268 683.9108 312.5244 683.9108 313.6949 682.7403 314.8653 681.5699 314.8653 679.6722 313.6949 678.5018 312.5244 677.3313 310.6268 677.3313 309.4563 678.5018" fill="#19b091"/>
<path transform="matrix(1,0,0,-1,-34.5,780.757)" d="M567.9827 677.0175C566.8122 678.1879 566.8122 680.0856 567.9827 681.256 569.1531 682.4265 571.0508 682.4265 572.2212 681.256 573.3917 680.0856 573.3917 678.1879 572.2212 677.0175 571.0508 675.847 569.1531 675.847 567.9827 677.0175" fill="#648fff"/>
<path transform="matrix(1,0,0,-1,-34.5,780.757)" d="M353.4871 616.9887C352.3166 618.1592 352.3166 620.0568 353.4871 621.2273 354.6575 622.3977 356.5552 622.3977 357.7256 621.2273 358.896 620.0568 358.896 618.1592 357.7256 616.9887 356.5552 615.8183 354.6575 615.8183 353.4871 616.9887" fill="#648fff"/>
<path transform="matrix(1,0,0,-1,-34.5,780.757)" d="M452.6997 616.8787C451.5293 618.0491 451.5293 619.9468 452.6997 621.1172 453.8701 622.2876 455.7678 622.2876 456.9383 621.1172 458.1087 619.9468 458.1087 618.0491 456.9383 616.8787 455.7678 615.7082 453.8701 615.7082 452.6997 616.8787" fill="#ffb000"/>
</g>
<g clip-path="url(#clip_11)">
<path transform="matrix(1,0,0,-1,-34.5,780.757)" d="M122.1883 617.1748C121.0179 618.3453 121.0179 620.2429 122.1883 621.4134 123.3588 622.5838 125.2564 622.5838 126.4269 621.4134 127.5973 620.2429 127.5973 618.3453 126.4269 617.1748 125.2564 616.0044 123.3588 616.0044 122.1883 617.1748M37.14889 617.1748C35.97845 618.3453 35.97845 620.2429 37.14889 621.4134 38.31934 622.5838 40.217 622.5838 41.38744 621.4134 42.55788 620.2429 42.55788 618.3453 41.38744 617.1748 40.217 616.0044 38.31934 616.0044 37.14889 617.1748M37.14889 617.1748C35.97845 618.3453 35.97845 620.2429 37.14889 621.4134 38.31934 622.5838 40.217 622.5838 41.38744 621.4134 42.55788 620.2429 42.55788 618.3453 41.38744 617.1748 40.217 616.0044 38.31934 616.0044 37.14889 617.1748M325.1406 702.0282C323.9701 703.1986 323.9701 705.0963 325.1406 706.2667 326.311 707.4371 328.2087 707.4371 329.3791 706.2667 330.5496 705.0963 330.5496 703.1986 329.3791 702.0282 328.2087 700.8577 326.311 700.8577 325.1406 702.0282" fill="#648fff"/>
<path transform="matrix(1,0,0,-1,-34.5,780.757)" d="M335.1191 672.0927C333.9486 673.2631 333.9486 675.1608 335.1191 676.3312 336.2895 677.5017 338.1872 677.5017 339.3576 676.3312 340.5281 675.1608 340.5281 673.2631 339.3576 672.0927 338.1872 670.9222 336.2895 670.9222 335.1191 672.0927M541.8785 655.4424C540.7081 656.6129 540.7081 658.5105 541.8785 659.681 543.049 660.8514 544.9466 660.8514 546.1171 659.681 547.2875 658.5105 547.2875 656.6129 546.1171 655.4424 544.9466 654.272 543.049 654.272 541.8785 655.4424M541.8785 655.4424C540.7081 656.6129 540.7081 658.5105 541.8785 659.681 543.049 660.8514 544.9466 660.8514 546.1171 659.681 547.2875 658.5105 547.2875 656.6129 546.1171 655.4424 544.9466 654.272 543.049 654.272 541.8785 655.4424" fill="#dc267f"/>
<path transform="matrix(1,0,0,-1,-34.5,780.757)" d="M353.4871 616.9887C352.3166 618.1592 352.3166 620.0568 353.4871 621.2273 354.6575 622.3977 356.5552 622.3977 357.7256 621.2273 358.896 620.0568 358.896 618.1592 357.7256 616.9887 356.5552 615.8183 354.6575 615.8183 353.4871 616.9887" fill="#648fff"/>
</g>
<g clip-path="url(#clip_12)">
<path transform="matrix(1,0,0,-1,-34.5,780.757)" d="M524.1842 660.3258C523.0137 661.4963 523.0137 663.3939 524.1842 664.5644 525.3546 665.7348 527.2523 665.7348 528.4227 664.5644 529.5932 663.3939 529.5932 661.4963 528.4227 660.3258 527.2523 659.1554 525.3546 659.1554 524.1842 660.3258" fill="#19b091"/>
<path transform="matrix(1,0,0,-1,-34.5,780.757)" d="M268.4476 616.9887C267.2772 618.1592 267.2772 620.0568 268.4476 621.2273 269.6181 622.3977 271.5157 622.3977 272.6862 621.2273 273.8566 620.0568 273.8566 618.1592 272.6862 616.9887 271.5157 615.8183 269.6181 615.8183 268.4476 616.9887M268.4476 616.9887C267.2772 618.1592 267.2772 620.0568 268.4476 621.2273 269.6181 622.3977 271.5157 622.3977 272.6862 621.2273 273.8566 620.0568 273.8566 618.1592 272.6862 616.9887 271.5157 615.8183 269.6181 615.8183 268.4476 616.9887M495.2194 616.8787C494.049 618.0491 494.049 619.9468 495.2194 621.1172 496.3899 622.2876 498.2875 622.2876 499.458 621.1172 500.6284 619.9468 500.6284 618.0491 499.458 616.8787 498.2875 615.7082 496.3899 615.7082 495.2194 616.8787M495.2194 616.8787C494.049 618.0491 494.049 619.9468 495.2194 621.1172 496.3899 622.2876 498.2875 622.2876 499.458 621.1172 500.6284 619.9468 500.6284 618.0491 499.458 616.8787 498.2875 615.7082 496.3899 615.7082 495.2194 616.8787M410.18 616.8787C409.0096 618.0491 409.0096 619.9468 410.18 621.1172 411.3504 622.2876 413.2481 622.2876 414.4185 621.1172 415.589 619.9468 415.589 618.0491 414.4185 616.8787 413.2481 615.7082 411.3504 615.7082 410.18 616.8787M410.18 616.8787C409.0096 618.0491 409.0096 619.9468 410.18 621.1172 411.3504 622.2876 413.2481 622.2876 414.4185 621.1172 415.589 619.9468 415.589 618.0491 414.4185 616.8787 413.2481 615.7082 411.3504 615.7082 410.18 616.8787" fill="#648fff"/>
<path transform="matrix(1,0,0,-1,-34.5,780.757)" d="M318.8136 642.3966C319.2287 642.5428 319.6838 642.3247 319.83 641.9096 319.9761 641.4945 319.7581 641.0395 319.343 640.8933 318.654 640.6507 317.9254 640.5253 317.1807 640.5253 313.5863 640.5253 310.6724 643.4391 310.6724 647.0336 310.6724 650.628 313.5863 653.5419 317.1807 653.5419 319.5183 653.5419 321.6407 652.2985 322.8003 650.3185 323.0227 649.9387 322.8952 649.4505 322.5154 649.2281 322.1356 649.0057 321.6474 649.1333 321.425 649.513 320.5485 651.0096 318.9466 651.9481 317.1807 651.9481 314.4665 651.9481 312.2662 649.7478 312.2662 647.0336 312.2662 644.3193 314.4665 642.119 317.1807 642.119 317.7444 642.119 318.2941 642.2136 318.8136 642.3966M316.4654 641.3138C316.3869 641.3908 316.3858 641.517 316.4628 641.5955 316.5399 641.674 316.6661 641.6752 316.7446 641.5981 316.8363 641.508 316.9294 641.4252 317.0239 641.3496 317.1098 641.2808 317.1237 641.1555 317.055 641.0696 316.9862 640.9837 316.8609 640.9698 316.775 641.0385 316.6698 641.1227 316.5666 641.2144 316.4654 641.3138M315.4704 643.8909 322.9097 642.9535 317.1503 638.1523Z"/>
</g>
</g>
</g>
</g>
</svg>
