<svg xmlns="http://www.w3.org/2000/svg" xmlns:xlink="http://www.w3.org/1999/xlink" xmlns:inkscape="http://www.inkscape.org/namespaces/inkscape" version="1.1" width="328" height="125.46094" viewBox="0 0 328 125.46094">
<defs>
<clipPath id="clip_0">
<path transform="matrix(1,0,0,-1,-39,768.26089)" d="M39 642.7999H367V768.26089H39Z" clip-rule="evenodd"/>
</clipPath>
<clipPath id="clip_1">
<path transform="matrix(1,0,0,-1,-39,768.26089)" d="M0 0H612V803.25H0Z"/>
</clipPath>
<clipPath id="clip_2">
<path transform="matrix(1,0,0,-1,-39,768.26089)" d="M0 0H612V803.25H0Z"/>
</clipPath>
<clipPath id="clip_3">
<path transform="matrix(1,0,0,-1,-39,768.26089)" d="M0 0H612V803.25H0Z"/>
</clipPath>
<clipPath id="clip_4">
<path transform="matrix(1,0,0,-1,-39,768.26089)" d="M0 0H612V803.25H0Z"/>
</clipPath>
<clipPath id="clip_5">
<path transform="matrix(1,0,0,-1,-39,768.26089)" d="M0 0H612V803.25H0Z"/>
</clipPath>
<clipPath id="clip_6">
<path transform="matrix(1,0,0,-1,-39,768.26089)" d="M0 0H612V803.25H0Z"/>
</clipPath>
<clipPath id="clip_7">
<path transform="matrix(1,0,0,-1,-39,768.26089)" d="M0 0H612V803.25H0Z"/>
</clipPath>
<clipPath id="clip_8">
<path transform="matrix(1,0,0,-1,-39,768.26089)" d="M0 0H612V803.25H0Z"/>
</clipPath>
</defs>
<g clip-path="url(#clip_0)">
<g clip-path="url(#clip_1)">
<g clip-path="url(#clip_2)">
<text fill="#dc267f" xml:space="preserve" transform="matrix(14.40199 0 -0 14.40199 85.5605 105.086368)" font-size="1" font-family="cmmi10" font-style="italic"><tspan y="-.906" x="0">γ</tspan></text>
<text fill="#dc267f" xml:space="preserve" transform="matrix(10.0814 0 -0 10.0814 93.01691 102.92609)" font-size="1" font-family="cmmi10" font-style="italic"><tspan y="-.906" x="0">a</tspan></text>
<text fill="#19b091" xml:space="preserve" transform="matrix(13.55482 0 -0 13.55482 46.615358 103.08307)" font-size="1" font-family="cmmi10" font-style="italic"><tspan y="-.906" x="0">γ</tspan></text>
<text fill="#19b091" xml:space="preserve" transform="matrix(9.488372 0 -0 9.488372 53.63311 101.049869)" font-size="1" font-family="cmmi10" font-style="italic"><tspan y="-.906" x="0">c</tspan></text>
<g clip-path="url(#clip_3)">
<path transform="matrix(1,0,0,-1,-39,768.26089)" d="M44.48525 646.946C44.2652 646.5648 43.77784 646.4342 43.3967 646.6543 43.01556 646.8743 42.88497 647.3617 43.10502 647.7428L110.1604 763.8861C110.3804 764.2673 110.8678 764.3979 111.2489 764.1778 111.6301 763.9578 111.7607 763.4704 111.5406 763.0893ZM110.1604 763.0893C109.9403 763.4704 110.0709 763.9578 110.4521 764.1778 110.8332 764.3979 111.3206 764.2673 111.5406 763.8861L178.596 647.7428C178.816 647.3617 178.6854 646.8743 178.3043 646.6543 177.9232 646.4342 177.4358 646.5648 177.2158 646.946ZM43.79513 646.5475C43.35503 646.5475 42.99826 646.9043 42.99826 647.3444 42.99826 647.7845 43.35503 648.1413 43.79513 648.1413H177.9059C178.346 648.1413 178.7027 647.7845 178.7027 647.3444 178.7027 646.9043 178.346 646.5475 177.9059 646.5475ZM228.7373 646.946C228.5173 646.5648 228.0299 646.4342 227.6488 646.6543 227.2676 646.8743 227.137 647.3617 227.3571 647.7428L294.4125 763.8861C294.6325 764.2673 295.1199 764.3979 295.501 764.1778 295.8821 763.9578 296.0127 763.4704 295.7927 763.0893ZM294.4125 763.0893C294.1924 763.4704 294.323 763.9578 294.7041 764.1778 295.0853 764.3979 295.5726 764.2673 295.7927 763.8861L362.848 647.7428C363.0681 647.3617 362.9375 646.8743 362.5564 646.6543 362.1752 646.4342 361.6879 646.5648 361.4678 646.946ZM228.0472 646.5475C227.6071 646.5475 227.2503 646.9043 227.2503 647.3444 227.2503 647.7845 227.6071 648.1413 228.0472 648.1413H362.1579C362.598 648.1413 362.9548 647.7845 362.9548 647.3444 362.9548 646.9043 362.598 646.5475 362.1579 646.5475Z"/>
</g>
<g clip-path="url(#clip_4)">
<path transform="matrix(1,0,0,-1,-39,768.26089)" d="M110.6598 673.206C110.971 672.8948 110.971 672.3902 110.6598 672.079 110.3486 671.7678 109.8441 671.7678 109.5329 672.079L76.75934 704.8526C76.44814 705.1638 76.44814 705.6683 76.75934 705.9795 77.07054 706.2907 77.57509 706.2907 77.88629 705.9795ZM75.20354 703.2968C74.0331 704.4672 74.0331 706.3649 75.20354 707.5353 76.37399 708.7058 78.27165 708.7058 79.44209 707.5353 80.61253 706.3649 80.61253 704.4672 79.44209 703.2968 78.27165 702.1263 76.37399 702.1263 75.20354 703.2968M295.2397 686.8438C295.6733 686.7681 295.9633 686.3552 295.8876 685.9217 295.8118 685.4882 295.399 685.1981 294.9654 685.2739L254.358 692.3686C253.9244 692.4443 253.6344 692.8572 253.7101 693.2907 253.7859 693.7242 254.1987 694.0143 254.6323 693.9385Z" fill="#19b091"/>
<path transform="matrix(1,0,0,-1,-39,768.26089)" d="M108.7312 761.3684C107.5608 762.5389 107.5608 764.4365 108.7312 765.607 109.9017 766.7774 111.7993 766.7774 112.9698 765.607 114.1402 764.4365 114.1402 762.5389 112.9698 761.3684 111.7993 760.198 109.9017 760.198 108.7312 761.3684" fill="#648fff"/>
<path transform="matrix(1,0,0,-1,-39,768.26089)" d="M175.7866 645.2251C174.6161 646.3956 174.6161 648.2932 175.7866 649.4637 176.957 650.6341 178.8547 650.6341 180.0251 649.4637 181.1956 648.2932 181.1956 646.3956 180.0251 645.2251 178.8547 644.0547 176.957 644.0547 175.7866 645.2251" fill="#648fff"/>
<path transform="matrix(1,0,0,-1,-39,768.26089)" d="M41.67586 645.2251C40.50542 646.3956 40.50542 648.2932 41.67586 649.4637 42.8463 650.6341 44.74396 650.6341 45.91441 649.4637 47.08485 648.2932 47.08485 646.3956 45.91441 645.2251 44.74396 644.0547 42.8463 644.0547 41.67586 645.2251" fill="#648fff"/>
<path transform="matrix(1,0,0,-1,-39,768.26089)" d="M292.9833 761.3684C291.8129 762.5389 291.8129 764.4365 292.9833 765.607 294.1537 766.7774 296.0514 766.7774 297.2218 765.607 298.3923 764.4365 298.3923 762.5389 297.2218 761.3684 296.0514 760.198 294.1537 760.198 292.9833 761.3684" fill="#648fff"/>
<path transform="matrix(1,0,0,-1,-39,768.26089)" d="M360.0387 645.2251C358.8682 646.3956 358.8682 648.2932 360.0387 649.4637 361.2091 650.6341 363.1068 650.6341 364.2772 649.4637 365.4476 648.2932 365.4476 646.3956 364.2772 645.2251 363.1068 644.0547 361.2091 644.0547 360.0387 645.2251" fill="#648fff"/>
</g>
<g clip-path="url(#clip_5)">
<path transform="matrix(1,0,0,-1,-39,768.26089)" d="M111.6474 647.3444C111.6474 646.9043 111.2906 646.5475 110.8505 646.5475 110.4104 646.5475 110.0536 646.9043 110.0536 647.3444V671.9954C110.0536 672.4355 110.4104 672.7923 110.8505 672.7923 111.2906 672.7923 111.6474 672.4355 111.6474 671.9954ZM108.7312 645.2251C107.5608 646.3956 107.5608 648.2932 108.7312 649.4637 109.9017 650.6341 111.7993 650.6341 112.9698 649.4637 114.1402 648.2932 114.1402 646.3956 112.9698 645.2251 111.7993 644.0547 109.9017 644.0547 108.7312 645.2251M295.8994 647.3444C295.8994 646.9043 295.5427 646.5475 295.1026 646.5475 294.6625 646.5475 294.3057 646.9043 294.3057 647.3444V686.0588C294.3057 686.4989 294.6625 686.8557 295.1026 686.8557 295.5427 686.8557 295.8994 686.4989 295.8994 686.0588ZM292.9833 645.2251C291.8129 646.3956 291.8129 648.2932 292.9833 649.4637 294.1537 650.6341 296.0514 650.6341 297.2218 649.4637 298.3923 648.2932 298.3923 646.3956 297.2218 645.2251 296.0514 644.0547 294.1537 644.0547 292.9833 645.2251" fill="#ffb000"/>
</g>
<g clip-path="url(#clip_6)">
<path transform="matrix(1,0,0,-1,-39,768.26089)" d="M111.4131 671.431C111.1014 671.1203 110.5968 671.1211 110.2861 671.4328 109.9754 671.7445 109.9762 672.2491 110.2879 672.5598L143.8156 705.9804C144.1273 706.2911 144.6319 706.2903 144.9426 705.9786 145.2533 705.6669 145.2525 705.1624 144.9408 704.8517ZM142.2589 703.2968C141.0885 704.4672 141.0885 706.3649 142.2589 707.5353 143.4294 708.7058 145.327 708.7058 146.4975 707.5353 147.6679 706.3649 147.6679 704.4672 146.4975 703.2968 145.327 702.1263 143.4294 702.1263 142.2589 703.2968M142.2589 703.2968C141.0885 704.4672 141.0885 706.3649 142.2589 707.5353 143.4294 708.7058 145.327 708.7058 146.4975 707.5353 147.6679 706.3649 147.6679 704.4672 146.4975 703.2968 145.327 702.1263 143.4294 702.1263 142.2589 703.2968M295.375 686.8077C295.7886 686.6572 296.0019 686.2 295.8514 685.7864 295.701 685.3728 295.2437 685.1595 294.8301 685.31L257.8859 698.7496C257.4723 698.9 257.259 699.3572 257.4095 699.7708 257.5599 700.1844 258.0172 700.3977 258.4308 700.2473ZM326.511 703.2968C325.3405 704.4672 325.3405 706.3649 326.511 707.5353 327.6814 708.7058 329.5791 708.7058 330.7495 707.5353 331.92 706.3649 331.92 704.4672 330.7495 703.2968 329.5791 702.1263 327.6814 702.1263 326.511 703.2968M326.511 703.2968C325.3405 704.4672 325.3405 706.3649 326.511 707.5353 327.6814 708.7058 329.5791 708.7058 330.7495 707.5353 331.92 706.3649 331.92 704.4672 330.7495 703.2968 329.5791 702.1263 327.6814 702.1263 326.511 703.2968" fill="#dc267f"/>
<path transform="matrix(1,0,0,-1,-39,768.26089)" d="M225.9279 645.2251C224.7575 646.3956 224.7575 648.2932 225.9279 649.4637 227.0984 650.6341 228.996 650.6341 230.1665 649.4637 231.3369 648.2932 231.3369 646.3956 230.1665 645.2251 228.996 644.0547 227.0984 644.0547 225.9279 645.2251" fill="#648fff"/>
</g>
<g clip-path="url(#clip_7)">
<path transform="matrix(1,0,0,-1,-39,768.26089)" d="M292.9833 683.9396C291.8129 685.11 291.8129 687.0077 292.9833 688.1781 294.1537 689.3486 296.0514 689.3486 297.2218 688.1781 298.3923 687.0077 298.3923 685.11 297.2218 683.9396 296.0514 682.7691 294.1537 682.7691 292.9833 683.9396M292.9833 683.9396C291.8129 685.11 291.8129 687.0077 292.9833 688.1781 294.1537 689.3486 296.0514 689.3486 297.2218 688.1781 298.3923 687.0077 298.3923 685.11 297.2218 683.9396 296.0514 682.7691 294.1537 682.7691 292.9833 683.9396"/>
<path transform="matrix(1,0,0,-1,-39,768.26089)" d="M259.4556 703.2968C258.2852 704.4672 258.2852 706.3649 259.4556 707.5353 260.6261 708.7058 262.5237 708.7058 263.6942 707.5353 264.8646 706.3649 264.8646 704.4672 263.6942 703.2968 262.5237 702.1263 260.6261 702.1263 259.4556 703.2968M322.588 716.8002C323.0263 716.7603 323.3493 716.3727 323.3094 715.9344 323.2694 715.4961 322.8818 715.1731 322.4435 715.2131L270.3559 719.9568C269.9176 719.9967 269.5947 720.3844 269.6346 720.8227 269.6745 721.2609 270.0621 721.5839 270.5004 721.544ZM334.4507 696.3104C334.8868 696.2511 335.1922 695.8495 335.1329 695.4134 335.0736 694.9773 334.672 694.6719 334.2359 694.7312L261.4675 704.6264C261.0314 704.6857 260.726 705.0873 260.7853 705.5234 260.8446 705.9595 261.2462 706.265 261.6823 706.2057Z" fill="#19b091"/>
<path transform="matrix(1,0,0,-1,-39,768.26089)" d="M79.56 709.6704C79.24221 709.9749 79.23141 710.4793 79.53587 710.7971 79.84033 711.1149 80.34477 711.1257 80.66256 710.8212 100.8472 691.4831 120.8538 691.4831 141.0384 710.8212 141.3562 711.1257 141.8607 711.1149 142.1651 710.7971 142.4696 710.4793 142.4588 709.9749 142.141 709.6704 121.34 689.7417 100.361 689.7417 79.56 709.6704M73.43745 698.854C73.08157 699.113 73.00297 699.6114 73.26189 699.9672 73.52081 700.3231 74.01921 700.4017 74.37509 700.1428 98.7251 682.4267 122.9759 682.4267 147.3259 700.1428 147.6818 700.4017 148.1802 700.3231 148.4391 699.9672 148.698 699.6114 148.6194 699.113 148.2636 698.854 123.3546 680.7313 98.34641 680.7313 73.43745 698.854M113.6956 695.2646C113.4622 695.498 113.4622 695.8764 113.6956 696.1098 113.929 696.3432 114.3074 696.3432 114.5408 696.1098 114.7742 695.8764 114.7742 695.498 114.5408 695.2646 114.3074 695.0312 113.929 695.0312 113.6956 695.2646M114.9328 691.5591 105.4382 695.6872 114.9328 699.8153ZM108.8637 685.6603C108.6303 685.8937 108.6303 686.2721 108.8637 686.5055 109.0971 686.7389 109.4756 686.7389 109.709 686.5055 109.9424 686.2721 109.9424 685.8937 109.709 685.6603 109.4756 685.4269 109.0971 685.4269 108.8637 685.6603M106.2528 690.211 115.7474 686.0829 106.2528 681.9548Z" fill="#969696"/>
<path transform="matrix(1,0,0,-1,-39,768.26089)" d="M108.7312 669.8761C107.5608 671.0466 107.5608 672.9442 108.7312 674.1147 109.9017 675.2851 111.7993 675.2851 112.9698 674.1147 114.1402 672.9442 114.1402 671.0466 112.9698 669.8761 111.7993 668.7057 109.9017 668.7057 108.7312 669.8761"/>
</g>
<g clip-path="url(#clip_8)">
<path transform="matrix(1,0,0,-1,-39,768.26089)" d="M328.7115 706.2088C329.1493 706.1639 329.4679 705.7726 329.423 705.3348 329.3781 704.897 328.9868 704.5784 328.549 704.6233L265.2417 711.1153C264.8039 711.1602 264.4854 711.5515 264.5303 711.9893 264.5752 712.4271 264.9665 712.7456 265.4043 712.7007Z" fill="#dc267f"/>
</g>
</g>
</g>
</g>
</svg>
