<svg xmlns="http://www.w3.org/2000/svg" xmlns:xlink="http://www.w3.org/1999/xlink" xmlns:inkscape="http://www.inkscape.org/namespaces/inkscape" version="1.1" width="407" height="186.94184" viewBox="0 0 407 186.94184">
<defs>
<clipPath id="clip_0">
<path transform="matrix(1,0,0,-1,-140.5,781.7567)" d="M140.5 594.8149H547.5V781.7567H140.5Z" clip-rule="evenodd"/>
</clipPath>
<clipPath id="clip_1">
<path transform="matrix(1,0,0,-1,-140.5,781.7567)" d="M0 0H612V803.25H0Z"/>
</clipPath>
<clipPath id="clip_2">
<path transform="matrix(1,0,0,-1,-140.5,781.7567)" d="M0 0H612V803.25H0Z"/>
</clipPath>
<clipPath id="clip_3">
<path transform="matrix(1,0,0,-1,-140.5,781.7567)" d="M184.6803 690.7113H214.7211V618.1508H184.6803ZM185.7267 689.6649H213.6747V619.1972H185.7267ZM185.5275 690.0633C185.4175 690.0633 185.3283 689.9741 185.3283 689.8641V618.9979C185.3283 618.8879 185.4175 618.7987 185.5275 618.7987H213.874C213.984 618.7987 214.0732 618.8879 214.0732 618.9979V689.8641C214.0732 689.9741 213.984 690.0633 213.874 690.0633Z"/>
</clipPath>
<clipPath id="clip_4">
<path transform="matrix(1,0,0,-1,-140.5,781.7567)" d="M0 0H612V803.25H0Z"/>
</clipPath>
<clipPath id="clip_5">
<path transform="matrix(1,0,0,-1,-140.5,781.7567)" d="M0 0H612V803.25H0Z"/>
</clipPath>
<clipPath id="clip_6">
<path transform="matrix(1,0,0,-1,-140.5,781.7567)" d="M425.6253 719.0578H484.0126V660.6705H425.6253ZM483.3647 689.8641C483.3647 695.1074 481.951 700.0205 479.484 704.2431 474.5335 712.7169 465.341 718.4098 454.819 718.4098 449.5757 718.4098 444.6626 716.9961 440.44 714.5292 431.9662 709.5786 426.2733 700.3862 426.2733 689.8641 426.2733 684.6208 427.687 679.7078 430.1539 675.4852 435.1045 667.0113 444.2969 661.3184 454.819 661.3184 460.0623 661.3184 464.9753 662.7321 469.1979 665.199 477.6717 670.1496 483.3647 679.3421 483.3647 689.8641M482.9662 689.8641C482.9662 679.4888 477.3526 670.4246 468.9969 665.5431 464.8334 663.1106 459.9889 661.7169 454.819 661.7169 444.4436 661.7169 435.3795 667.3305 430.4979 675.6862 428.0655 679.8497 426.6717 684.6942 426.6717 689.8641 426.6717 700.2395 432.2854 709.3036 440.641 714.1851 444.8046 716.6176 449.649 718.0114 454.819 718.0114 465.1943 718.0114 474.2585 712.3977 479.14 704.0421 481.5724 699.8785 482.9662 695.0341 482.9662 689.8641"/>
</clipPath>
<clipPath id="clip_7">
<path transform="matrix(1,0,0,-1,-140.5,781.7567)" d="M0 0H612V803.25H0Z"/>
</clipPath>
<clipPath id="clip_8">
<path transform="matrix(1,0,0,-1,-140.5,781.7567)" d="M0 0H612V803.25H0Z"/>
</clipPath>
<clipPath id="clip_9">
<path transform="matrix(1,0,0,-1,-140.5,781.7567)" d="M184.6803 747.4042H214.7211V689.0169H184.6803ZM185.7267 746.3578H213.6747V690.0633H185.7267ZM185.5275 746.7563C185.4175 746.7563 185.3283 746.6671 185.3283 746.5571V689.8641C185.3283 689.7541 185.4175 689.6649 185.5275 689.6649H213.874C213.984 689.6649 214.0732 689.7541 214.0732 689.8641V746.5571C214.0732 746.6671 213.984 746.7563 213.874 746.7563Z"/>
</clipPath>
<clipPath id="clip_10">
<path transform="matrix(1,0,0,-1,-140.5,781.7567)" d="M0 0H612V803.25H0Z"/>
</clipPath>
<clipPath id="clip_11">
<path transform="matrix(1,0,0,-1,-140.5,781.7567)" d="M0 0H612V803.25H0Z"/>
</clipPath>
<clipPath id="clip_12">
<path transform="matrix(1,0,0,-1,-140.5,781.7567)" d="M198.5054 767.8169C198.5054 768.4771 199.0406 769.0122 199.7007 769.0122 200.3609 769.0122 200.896 768.4771 200.896 767.8169V753.6437C200.896 752.9835 200.3609 752.4484 199.7007 752.4484 199.0406 752.4484 198.5054 752.9835 198.5054 753.6437Z"/>
</clipPath>
<clipPath id="clip_13">
<path transform="matrix(1,0,0,-1,-140.5,781.7567)" d="M0 0H612V803.25H0Z"/>
</clipPath>
<clipPath id="clip_14">
<path transform="matrix(1,0,0,-1,-140.5,781.7567)" d="M200.896 597.7381C200.896 597.0779 200.3609 596.5428 199.7007 596.5428 199.0406 596.5428 198.5054 597.0779 198.5054 597.7381V611.9113C198.5054 612.5715 199.0406 613.1066 199.7007 613.1066 200.3609 613.1066 200.896 612.5715 200.896 611.9113Z"/>
</clipPath>
<clipPath id="clip_15">
<path transform="matrix(1,0,0,-1,-140.5,781.7567)" d="M0 0H612V803.25H0Z"/>
</clipPath>
<clipPath id="clip_16">
<path transform="matrix(1,0,0,-1,-140.5,781.7567)" d="M383.1056 761.5775H526.5323V618.1508H383.1056ZM525.8844 689.8641C525.8844 702.9173 522.3651 715.1485 516.2236 725.6607 503.899 746.7566 481.0141 760.9295 454.819 760.9295 441.7658 760.9295 429.5346 757.4102 419.0224 751.2688 397.9264 738.9441 383.7536 716.0592 383.7536 689.8641 383.7536 676.8109 387.2729 664.5797 393.4143 654.0675 405.739 632.9716 428.6239 618.7987 454.819 618.7987 467.8722 618.7987 480.1034 622.318 490.6156 628.4595 511.7115 640.7841 525.8844 663.669 525.8844 689.8641M525.4859 689.8641C525.4859 663.8157 511.3923 641.0591 490.4146 628.8035 479.9614 622.6966 467.7989 619.1972 454.819 619.1972 428.7706 619.1972 406.0139 633.2908 393.7584 654.2685 387.6514 664.7217 384.152 676.8842 384.152 689.8641 384.152 715.9125 398.2456 738.6692 419.2233 750.9247 429.6765 757.0317 441.8391 760.5311 454.819 760.5311 480.8674 760.5311 503.624 746.4375 515.8796 725.4598 521.9865 715.0066 525.4859 702.844 525.4859 689.8641"/>
</clipPath>
<clipPath id="clip_17">
<path transform="matrix(1,0,0,-1,-140.5,781.7567)" d="M0 0H612V803.25H0Z"/>
</clipPath>
<clipPath id="clip_18">
<path transform="matrix(1,0,0,-1,-140.5,781.7567)" d="M0 0H612V803.25H0Z"/>
</clipPath>
<clipPath id="clip_19">
<path transform="matrix(1,0,0,-1,-140.5,781.7567)" d="M363.4468 688.6688C362.7867 688.6688 362.2515 689.204 362.2515 689.8641 362.2515 690.5243 362.7867 691.0594 363.4468 691.0594H377.6201C378.2802 691.0594 378.8154 690.5243 378.8154 689.8641 378.8154 689.204 378.2802 688.6688 377.6201 688.6688Z"/>
</clipPath>
<clipPath id="clip_20">
<path transform="matrix(1,0,0,-1,-140.5,781.7567)" d="M0 0H612V803.25H0Z"/>
</clipPath>
<clipPath id="clip_21">
<path transform="matrix(1,0,0,-1,-140.5,781.7567)" d="M453.5243 778.8778C453.5243 779.5379 454.0595 780.0731 454.7196 780.0731 455.3798 780.0731 455.9149 779.5379 455.9149 778.8778V764.7045C455.9149 764.0444 455.3798 763.5092 454.7196 763.5092 454.0595 763.5092 453.5243 764.0444 453.5243 764.7045Z"/>
</clipPath>
<clipPath id="clip_22">
<path transform="matrix(1,0,0,-1,-140.5,781.7567)" d="M0 0H612V803.25H0Z"/>
</clipPath>
<clipPath id="clip_23">
<path transform="matrix(1,0,0,-1,-140.5,781.7567)" d="M453.5647 615.2968C453.5647 615.957 454.0998 616.4922 454.76 616.4922 455.4201 616.4922 455.9553 615.957 455.9553 615.2968V601.1236C455.9553 600.4635 455.4201 599.9283 454.76 599.9283 454.0998 599.9283 453.5647 600.4635 453.5647 601.1236Z"/>
</clipPath>
<clipPath id="clip_24">
<path transform="matrix(1,0,0,-1,-140.5,781.7567)" d="M0 0H612V803.25H0Z"/>
</clipPath>
<clipPath id="clip_25">
<path transform="matrix(1,0,0,-1,-140.5,781.7567)" d="M530.7147 688.7764C530.0546 688.7764 529.5194 689.3115 529.5194 689.9717 529.5194 690.6318 530.0546 691.167 530.7147 691.167H544.888C545.5481 691.167 546.0833 690.6318 546.0833 689.9717 546.0833 689.3115 545.5481 688.7764 544.888 688.7764Z"/>
</clipPath>
<clipPath id="clip_26">
<path transform="matrix(1,0,0,-1,-140.5,781.7567)" d="M0 0H612V803.25H0Z"/>
</clipPath>
<clipPath id="clip_27">
<path transform="matrix(1,0,0,-1,-140.5,781.7567)" d="M0 0H612V803.25H0Z"/>
</clipPath>
<clipPath id="clip_28">
<path transform="matrix(1,0,0,-1,-140.5,781.7567)" d="M0 0H612V803.25H0Z"/>
</clipPath>
<clipPath id="clip_29">
<path transform="matrix(1,0,0,-1,-140.5,781.7567)" d="M185.5275 677.96C185.1974 677.96 184.9298 678.2276 184.9298 678.5576 184.9298 678.8877 185.1974 679.1553 185.5275 679.1553H213.874C214.204 679.1553 214.4716 678.8877 214.4716 678.5576 214.4716 678.2276 214.204 677.96 213.874 677.96Z"/>
</clipPath>
<clipPath id="clip_30">
<path transform="matrix(1,0,0,-1,-140.5,781.7567)" d="M0 0H612V803.25H0Z"/>
</clipPath>
<clipPath id="clip_31">
<path transform="matrix(1,0,0,-1,-140.5,781.7567)" d="M469.293 689.8641C469.293 684.5291 466.4067 679.8682 462.1102 677.3581 459.969 676.1071 457.4777 675.3901 454.819 675.3901 449.484 675.3901 444.823 678.2764 442.3129 682.5729 441.062 684.7141 440.345 687.2053 440.345 689.8641 440.345 695.1991 443.2313 699.8601 447.5278 702.3702 449.669 703.6211 452.1602 704.3381 454.819 704.3381 460.154 704.3381 464.8149 701.4518 467.325 697.1553 468.5759 695.0141 469.293 692.5229 469.293 689.8641M468.0977 689.8641C468.0977 692.3029 467.4404 694.5882 466.2929 696.5523 463.99 700.4943 459.7138 703.1428 454.819 703.1428 452.3802 703.1428 450.0949 702.4855 448.1308 701.3381 444.1888 699.0351 441.5403 694.759 441.5403 689.8641 441.5403 687.4253 442.1975 685.14 443.345 683.1759 445.648 679.234 449.9241 676.5854 454.819 676.5854 457.2578 676.5854 459.5431 677.2427 461.5072 678.3901 465.4491 680.6931 468.0977 684.9692 468.0977 689.8641"/>
</clipPath>
<clipPath id="clip_32">
<path transform="matrix(1,0,0,-1,-140.5,781.7567)" d="M0 0H612V803.25H0Z"/>
</clipPath>
<clipPath id="clip_33">
<path transform="matrix(1,0,0,-1,-140.5,781.7567)" d="M0 0H612V803.25H0Z"/>
</clipPath>
<clipPath id="clip_34">
<path transform="matrix(1,0,0,-1,-140.5,781.7567)" d="M0 0H612V803.25H0Z"/>
</clipPath>
</defs>
<g>
<g clip-path="url(#clip_0)">
<g clip-path="url(#clip_1)">
<g clip-path="url(#clip_2)">
<g clip-path="url(#clip_3)">
<g clip-path="url(#clip_4)">
<g style="mix-blend-mode:darken">
<path transform="matrix(1,0,0,-1,-140.5,781.7567)" d="M185.5275 689.8641H213.874V618.9979H185.5275Z" fill="#7ba0ca" fill-opacity=".42"/>
</g>
</g>
</g>
<g clip-path="url(#clip_5)">
<g style="mix-blend-mode:darken">
<path transform="matrix(1,0,0,-1,-140.5,781.7567)" d="M185.7267 689.6649V619.1972H213.6747V689.6649ZM185.5275 690.0633H213.874C213.984 690.0633 214.0732 689.9741 214.0732 689.8641V618.9979C214.0732 618.8879 213.984 618.7987 213.874 618.7987H185.5275C185.4175 618.7987 185.3283 618.8879 185.3283 618.9979V689.8641C185.3283 689.9741 185.4175 690.0633 185.5275 690.0633" fill="#7ba0ca" fill-opacity=".42"/>
</g>
</g>
<g clip-path="url(#clip_6)">
<g clip-path="url(#clip_7)">
<g style="mix-blend-mode:darken">
<path transform="matrix(1,0,0,-1,-140.5,781.7567)" d="M483.1655 689.8641C483.1655 674.2088 470.4743 661.5176 454.819 661.5176 439.1637 661.5176 426.4725 674.2088 426.4725 689.8641 426.4725 705.5194 439.1637 718.2106 454.819 718.2106 470.4743 718.2106 483.1655 705.5194 483.1655 689.8641" fill="#7ba0ca" fill-opacity=".42"/>
</g>
</g>
</g>
<g clip-path="url(#clip_8)">
<g style="mix-blend-mode:darken">
<path transform="matrix(1,0,0,-1,-140.5,781.7567)" d="M483.3647 689.8641C483.3647 679.3421 477.6717 670.1496 469.1979 665.199 464.9753 662.7321 460.0623 661.3184 454.819 661.3184 444.2969 661.3184 435.1045 667.0113 430.1539 675.4852 427.687 679.7078 426.2733 684.6208 426.2733 689.8641 426.2733 700.3862 431.9662 709.5786 440.44 714.5292 444.6626 716.9961 449.5757 718.4098 454.819 718.4098 465.341 718.4098 474.5335 712.7169 479.484 704.2431 481.951 700.0205 483.3647 695.1074 483.3647 689.8641M482.9662 689.8641C482.9662 695.0341 481.5724 699.8785 479.14 704.0421 474.2585 712.3977 465.1943 718.0114 454.819 718.0114 449.649 718.0114 444.8046 716.6176 440.641 714.1851 432.2854 709.3036 426.6717 700.2395 426.6717 689.8641 426.6717 684.6942 428.0655 679.8497 430.4979 675.6862 435.3795 667.3305 444.4436 661.7169 454.819 661.7169 459.9889 661.7169 464.8334 663.1106 468.9969 665.5431 477.3526 670.4246 482.9662 679.4888 482.9662 689.8641" fill="#7ba0ca" fill-opacity=".42"/>
</g>
</g>
<g clip-path="url(#clip_9)">
<g clip-path="url(#clip_10)">
<g style="mix-blend-mode:darken">
<path transform="matrix(1,0,0,-1,-140.5,781.7567)" d="M185.5275 746.5571H213.874V689.8641H185.5275Z" fill="#efb9b4" fill-opacity=".42"/>
</g>
</g>
</g>
<g clip-path="url(#clip_11)">
<text xml:space="preserve" transform="matrix(11.86047 0 -0 11.86047 162.49481 46.765199)" font-size="1" font-family="cmr10"><tspan y="-.906" x="0">e</tspan></text>
<text xml:space="preserve" transform="matrix(11.86047 0 -0 11.86047 167.76612 46.765199)" font-size="1" font-family="cmr10"><tspan y="-.906" x="0">x</tspan></text>
<text xml:space="preserve" transform="matrix(11.86047 0 -0 11.86047 174.02579 46.765199)" font-size="1" font-family="cmr10"><tspan y="-.906" x="0">p</tspan></text>
<text xml:space="preserve" transform="matrix(9.318937 0 -0 9.318937 67.8513 93.588138)" font-size="1" font-family="cmr10"><tspan y="-.906" x="0">2</tspan></text>
<text xml:space="preserve" transform="matrix(9.318937 0 -0 9.318937 72.5107 93.588138)" font-size="1" font-family="cmmi10" font-style="italic"><tspan y="-.906" x="0">π</tspan></text>
<g style="mix-blend-mode:darken">
<path transform="matrix(1,0,0,-1,-140.5,781.7567)" d="M185.7267 746.3578V690.0633H213.6747V746.3578ZM185.5275 746.7563H213.874C213.984 746.7563 214.0732 746.6671 214.0732 746.5571V689.8641C214.0732 689.7541 213.984 689.6649 213.874 689.6649H185.5275C185.4175 689.6649 185.3283 689.7541 185.3283 689.8641V746.5571C185.3283 746.6671 185.4175 746.7563 185.5275 746.7563" fill="#efb9b4" fill-opacity=".42"/>
</g>
</g>
<g clip-path="url(#clip_12)">
<g clip-path="url(#clip_13)">
<g style="mix-blend-mode:darken">
<path transform="matrix(1,0,0,-1,-140.5,781.7567)" d="M198.5054 767.8169V767.8145C198.5054 767.1544 199.0406 766.6192 199.7007 766.6192 200.3609 766.6192 200.896 767.1544 200.896 767.8145V767.8169C200.896 768.4771 200.3609 769.0122 199.7007 769.0122 199.0406 769.0122 198.5054 768.4771 198.5054 767.8169M198.5054 763.0933V763.0909C198.5054 762.4308 199.0406 761.8956 199.7007 761.8956 200.3609 761.8956 200.896 762.4308 200.896 763.0909V763.0933C200.896 763.7534 200.3609 764.2886 199.7007 764.2886 199.0406 764.2886 198.5054 763.7534 198.5054 763.0933M198.5054 758.3697V758.3673C198.5054 757.7071 199.0406 757.172 199.7007 757.172 200.3609 757.172 200.896 757.7071 200.896 758.3673V758.3697C200.896 759.0298 200.3609 759.565 199.7007 759.565 199.0406 759.565 198.5054 759.0298 198.5054 758.3697M198.5054 753.646V753.6437C198.5054 752.9835 199.0406 752.4484 199.7007 752.4484 200.3609 752.4484 200.896 752.9835 200.896 753.6437V753.646C200.896 754.3062 200.3609 754.8413 199.7007 754.8413 199.0406 754.8413 198.5054 754.3062 198.5054 753.646" fill="#efb9b4" fill-opacity=".42"/>
</g>
</g>
</g>
<g clip-path="url(#clip_14)">
<g clip-path="url(#clip_15)">
<g style="mix-blend-mode:darken">
<path transform="matrix(1,0,0,-1,-140.5,781.7567)" d="M200.896 597.7381V597.7404C200.896 598.4006 200.3609 598.9358 199.7007 598.9358 199.0406 598.9358 198.5054 598.4006 198.5054 597.7404V597.7381C198.5054 597.0779 199.0406 596.5428 199.7007 596.5428 200.3609 596.5428 200.896 597.0779 200.896 597.7381M200.896 602.4617V602.4641C200.896 603.1242 200.3609 603.6594 199.7007 603.6594 199.0406 603.6594 198.5054 603.1242 198.5054 602.4641V602.4617C198.5054 601.8016 199.0406 601.2664 199.7007 601.2664 200.3609 601.2664 200.896 601.8016 200.896 602.4617M200.896 607.1853V607.1877C200.896 607.8478 200.3609 608.383 199.7007 608.383 199.0406 608.383 198.5054 607.8478 198.5054 607.1877V607.1853C198.5054 606.5252 199.0406 605.99 199.7007 605.99 200.3609 605.99 200.896 606.5252 200.896 607.1853M200.896 611.909V611.9113C200.896 612.5715 200.3609 613.1066 199.7007 613.1066 199.0406 613.1066 198.5054 612.5715 198.5054 611.9113V611.909C198.5054 611.2488 199.0406 610.7136 199.7007 610.7136 200.3609 610.7136 200.896 611.2488 200.896 611.909" fill="#7ba0ca" fill-opacity=".42"/>
</g>
</g>
</g>
<g clip-path="url(#clip_16)">
<g clip-path="url(#clip_17)">
<g style="mix-blend-mode:darken">
<path transform="matrix(1,0,0,-1,-140.5,781.7567)" d="M525.6852 689.8641C525.6852 650.7258 493.9573 618.9979 454.819 618.9979 415.6807 618.9979 383.9528 650.7258 383.9528 689.8641 383.9528 729.0024 415.6807 760.7303 454.819 760.7303 493.9573 760.7303 525.6852 729.0024 525.6852 689.8641M483.5027 689.9423C483.5027 695.1804 482.0903 700.0886 479.6259 704.3069 474.6802 712.7724 465.4969 718.4596 454.9853 718.4596 449.7472 718.4596 444.839 717.0473 440.6206 714.5829 432.1552 709.6372 426.468 700.4539 426.468 689.9423 426.468 684.7042 427.8803 679.796 430.3447 675.5776 435.2904 667.1122 444.4737 661.4249 454.9853 661.4249 460.2234 661.4249 465.1316 662.8373 469.35 665.3017 477.8154 670.2474 483.5027 679.4307 483.5027 689.9423" fill="#efb9b4" fill-opacity=".42" fill-rule="evenodd"/>
</g>
</g>
</g>
<g clip-path="url(#clip_18)">
<g style="mix-blend-mode:darken">
<path transform="matrix(1,0,0,-1,-140.5,781.7567)" d="M525.8844 689.8641C525.8844 663.669 511.7115 640.7841 490.6156 628.4595 480.1034 622.318 467.8722 618.7987 454.819 618.7987 428.6239 618.7987 405.739 632.9716 393.4143 654.0675 387.2729 664.5797 383.7536 676.8109 383.7536 689.8641 383.7536 716.0592 397.9264 738.9441 419.0224 751.2688 429.5346 757.4102 441.7658 760.9295 454.819 760.9295 481.0141 760.9295 503.899 746.7566 516.2236 725.6607 522.3651 715.1485 525.8844 702.9173 525.8844 689.8641M525.4859 689.8641C525.4859 702.844 521.9865 715.0066 515.8796 725.4598 503.624 746.4375 480.8674 760.5311 454.819 760.5311 441.8391 760.5311 429.6765 757.0317 419.2233 750.9247 398.2456 738.6692 384.152 715.9125 384.152 689.8641 384.152 676.8842 387.6514 664.7217 393.7584 654.2685 406.0139 633.2908 428.7706 619.1972 454.819 619.1972 467.7989 619.1972 479.9614 622.6966 490.4146 628.8035 511.3923 641.0591 525.4859 663.8157 525.4859 689.8641" fill="#efb9b4" fill-opacity=".42"/>
</g>
</g>
<g clip-path="url(#clip_19)">
<g clip-path="url(#clip_20)">
<g style="mix-blend-mode:darken">
<path transform="matrix(1,0,0,-1,-140.5,781.7567)" d="M363.4468 688.6688H363.4492C364.1093 688.6688 364.6445 689.204 364.6445 689.8641 364.6445 690.5243 364.1093 691.0594 363.4492 691.0594H363.4468C362.7867 691.0594 362.2515 690.5243 362.2515 689.8641 362.2515 689.204 362.7867 688.6688 363.4468 688.6688M368.1705 688.6688H368.1728C368.833 688.6688 369.3681 689.204 369.3681 689.8641 369.3681 690.5243 368.833 691.0594 368.1728 691.0594H368.1705C367.5103 691.0594 366.9751 690.5243 366.9751 689.8641 366.9751 689.204 367.5103 688.6688 368.1705 688.6688M372.8941 688.6688H372.8964C373.5566 688.6688 374.0918 689.204 374.0918 689.8641 374.0918 690.5243 373.5566 691.0594 372.8964 691.0594H372.8941C372.2339 691.0594 371.6988 690.5243 371.6988 689.8641 371.6988 689.204 372.2339 688.6688 372.8941 688.6688M377.6177 688.6688H377.6201C378.2802 688.6688 378.8154 689.204 378.8154 689.8641 378.8154 690.5243 378.2802 691.0594 377.6201 691.0594H377.6177C376.9576 691.0594 376.4224 690.5243 376.4224 689.8641 376.4224 689.204 376.9576 688.6688 377.6177 688.6688" fill="#efb9b4" fill-opacity=".42"/>
</g>
</g>
</g>
<g clip-path="url(#clip_21)">
<g clip-path="url(#clip_22)">
<g style="mix-blend-mode:darken">
<path transform="matrix(1,0,0,-1,-140.5,781.7567)" d="M453.5243 778.8778V778.8754C453.5243 778.2153 454.0595 777.6801 454.7196 777.6801 455.3798 777.6801 455.9149 778.2153 455.9149 778.8754V778.8778C455.9149 779.5379 455.3798 780.0731 454.7196 780.0731 454.0595 780.0731 453.5243 779.5379 453.5243 778.8778M453.5243 774.1542V774.1518C453.5243 773.4916 454.0595 772.9565 454.7196 772.9565 455.3798 772.9565 455.9149 773.4916 455.9149 774.1518V774.1542C455.9149 774.8143 455.3798 775.3495 454.7196 775.3495 454.0595 775.3495 453.5243 774.8143 453.5243 774.1542M453.5243 769.4305V769.4282C453.5243 768.768 454.0595 768.2329 454.7196 768.2329 455.3798 768.2329 455.9149 768.768 455.9149 769.4282V769.4305C455.9149 770.0907 455.3798 770.6258 454.7196 770.6258 454.0595 770.6258 453.5243 770.0907 453.5243 769.4305M453.5243 764.7069V764.7045C453.5243 764.0444 454.0595 763.5092 454.7196 763.5092 455.3798 763.5092 455.9149 764.0444 455.9149 764.7045V764.7069C455.9149 765.3671 455.3798 765.9022 454.7196 765.9022 454.0595 765.9022 453.5243 765.3671 453.5243 764.7069" fill="#efb9b4" fill-opacity=".42"/>
</g>
</g>
</g>
<g clip-path="url(#clip_23)">
<g clip-path="url(#clip_24)">
<g style="mix-blend-mode:darken">
<path transform="matrix(1,0,0,-1,-140.5,781.7567)" d="M453.5647 615.2968V615.2945C453.5647 614.6343 454.0998 614.0992 454.76 614.0992 455.4201 614.0992 455.9553 614.6343 455.9553 615.2945V615.2968C455.9553 615.957 455.4201 616.4922 454.76 616.4922 454.0998 616.4922 453.5647 615.957 453.5647 615.2968M453.5647 610.5732V610.5709C453.5647 609.9107 454.0998 609.3755 454.76 609.3755 455.4201 609.3755 455.9553 609.9107 455.9553 610.5709V610.5732C455.9553 611.2334 455.4201 611.7685 454.76 611.7685 454.0998 611.7685 453.5647 611.2334 453.5647 610.5732M453.5647 605.8496V605.8472C453.5647 605.1871 454.0998 604.6519 454.76 604.6519 455.4201 604.6519 455.9553 605.1871 455.9553 605.8472V605.8496C455.9553 606.5098 455.4201 607.0449 454.76 607.0449 454.0998 607.0449 453.5647 606.5098 453.5647 605.8496M453.5647 601.126V601.1236C453.5647 600.4635 454.0998 599.9283 454.76 599.9283 455.4201 599.9283 455.9553 600.4635 455.9553 601.1236V601.126C455.9553 601.7861 455.4201 602.3213 454.76 602.3213 454.0998 602.3213 453.5647 601.7861 453.5647 601.126" fill="#efb9b4" fill-opacity=".42"/>
</g>
</g>
</g>
<g clip-path="url(#clip_25)">
<g clip-path="url(#clip_26)">
<g style="mix-blend-mode:darken">
<path transform="matrix(1,0,0,-1,-140.5,781.7567)" d="M530.7147 688.7764H530.7171C531.3772 688.7764 531.9124 689.3115 531.9124 689.9717 531.9124 690.6318 531.3772 691.167 530.7171 691.167H530.7147C530.0546 691.167 529.5194 690.6318 529.5194 689.9717 529.5194 689.3115 530.0546 688.7764 530.7147 688.7764M535.4383 688.7764H535.4407C536.1009 688.7764 536.636 689.3115 536.636 689.9717 536.636 690.6318 536.1009 691.167 535.4407 691.167H535.4383C534.7782 691.167 534.243 690.6318 534.243 689.9717 534.243 689.3115 534.7782 688.7764 535.4383 688.7764M540.162 688.7764H540.1643C540.8245 688.7764 541.3596 689.3115 541.3596 689.9717 541.3596 690.6318 540.8245 691.167 540.1643 691.167H540.162C539.5018 691.167 538.9667 690.6318 538.9667 689.9717 538.9667 689.3115 539.5018 688.7764 540.162 688.7764M544.8856 688.7764H544.888C545.5481 688.7764 546.0833 689.3115 546.0833 689.9717 546.0833 690.6318 545.5481 691.167 544.888 691.167H544.8856C544.2254 691.167 543.6903 690.6318 543.6903 689.9717 543.6903 689.3115 544.2254 688.7764 544.8856 688.7764" fill="#efb9b4" fill-opacity=".42"/>
</g>
</g>
</g>
<g clip-path="url(#clip_27)">
<path transform="matrix(1,0,0,-1,-140.5,781.7567)" d="M483.7631 689.8641C483.7631 679.1953 477.9909 669.8746 469.3989 664.855 465.1173 662.3536 460.1356 660.92 454.819 660.92 444.1502 660.92 434.8295 666.6922 429.8099 675.2842 427.3085 679.5658 425.8748 684.5475 425.8748 689.8641 425.8748 700.5329 431.647 709.8536 440.239 714.8732 444.5207 717.3746 449.5024 718.8082 454.819 718.8082 465.4877 718.8082 474.8085 713.0361 479.8281 704.444 482.3295 700.1624 483.7631 695.1807 483.7631 689.8641M482.5678 689.8641C482.5678 694.9607 481.1939 699.7365 478.796 703.8411 473.9835 712.0785 465.0476 717.6129 454.819 717.6129 449.7223 717.6129 444.9466 716.2391 440.842 713.8411 432.6046 709.0287 427.0702 700.0928 427.0702 689.8641 427.0702 684.7675 428.444 679.9917 430.842 675.8871 435.6544 667.6497 444.5903 662.1153 454.819 662.1153 459.9156 662.1153 464.6914 663.4892 468.7959 665.8871 477.0334 670.6996 482.5678 679.6355 482.5678 689.8641" fill="#969696"/>
</g>
<g clip-path="url(#clip_28)">
<path transform="matrix(1,0,0,-1,-140.5,781.7567)" d="M454.3964 689.4415C454.163 689.6749 454.163 690.0533 454.3964 690.2867 454.6298 690.5201 455.0082 690.5201 455.2416 690.2867 455.475 690.0533 455.475 689.6749 455.2416 689.4415 455.0082 689.2081 454.6298 689.2081 454.3964 689.4415M143.0078 689.2665C142.6777 689.2665 142.4101 689.534 142.4101 689.8641 142.4101 690.1942 142.6777 690.4618 143.0078 690.4618H261.0723C261.4024 690.4618 261.67 690.1942 261.67 689.8641 261.67 689.534 261.4024 689.2665 261.0723 689.2665ZM261.0723 693.9922 270.5669 689.8641 261.0723 685.736ZM186.1252 618.9979C186.1252 618.6679 185.8576 618.4003 185.5275 618.4003 185.1974 618.4003 184.9298 618.6679 184.9298 618.9979V751.2357C184.9298 751.5658 185.1974 751.8333 185.5275 751.8333 185.8576 751.8333 186.1252 751.5658 186.1252 751.2357ZM181.3994 751.2357 185.5275 760.7303 189.6556 751.2357ZM241.6228 693.4074C241.6228 693.7375 241.8904 694.0051 242.2204 694.0051 242.5505 694.0051 242.8181 693.7375 242.8181 693.4074V686.3208C242.8181 685.9907 242.5505 685.7231 242.2204 685.7231 241.8904 685.7231 241.6228 685.9907 241.6228 686.3208ZM213.2763 693.4074C213.2763 693.7375 213.5439 694.0051 213.874 694.0051 214.204 694.0051 214.4716 693.7375 214.4716 693.4074V686.3208C214.4716 685.9907 214.204 685.7231 213.874 685.7231 213.5439 685.7231 213.2763 685.9907 213.2763 686.3208ZM156.5834 693.4074C156.5834 693.7375 156.8509 694.0051 157.181 694.0051 157.5111 694.0051 157.7787 693.7375 157.7787 693.4074V686.3208C157.7787 685.9907 157.5111 685.7231 157.181 685.7231 156.8509 685.7231 156.5834 685.9907 156.5834 686.3208ZM452.3957 691.4421C452.1623 691.6755 452.1623 692.054 452.3957 692.2874 452.6291 692.5208 453.0076 692.5208 453.2409 692.2874L457.2422 688.2861C457.4756 688.0527 457.4756 687.6743 457.2422 687.4409 457.0088 687.2075 456.6304 687.2075 456.397 687.4409ZM453.2409 687.4409C453.0076 687.2075 452.6291 687.2075 452.3957 687.4409 452.1623 687.6743 452.1623 688.0527 452.3957 688.2861L456.397 692.2874C456.6304 692.5208 457.0088 692.5208 457.2422 692.2874 457.4756 692.054 457.4756 691.6755 457.2422 691.4421Z"/>
</g>
<g clip-path="url(#clip_29)">
<g clip-path="url(#clip_30)">
<path transform="matrix(1,0,0,-1,-140.5,781.7567)" d="M185.5275 677.96H187.708V679.1553H185.5275ZM188.7982 677.96H190.9787V679.1553H188.7982ZM192.069 677.96H194.2495V679.1553H192.069ZM195.3397 677.96H197.5202V679.1553H195.3397ZM198.6105 677.96H200.791V679.1553H198.6105ZM201.8812 677.96H204.0617V679.1553H201.8812ZM205.152 677.96H207.3325V679.1553H205.152ZM208.4227 677.96H210.6032V679.1553H208.4227ZM211.6935 677.96H213.874V679.1553H211.6935Z" fill="#19b091"/>
</g>
</g>
<g clip-path="url(#clip_31)">
<g clip-path="url(#clip_32)">
<path transform="matrix(1,0,0,-1,-140.5,781.7567)" d="M468.0977 689.8641C468.0977 689.0844 468.0305 688.3134 467.8981 687.5571L469.0755 687.3509C469.2199 688.1753 469.293 689.0152 469.293 689.8641ZM467.6484 686.426C467.4485 685.6778 467.1834 684.9506 466.8568 684.2514L467.9398 683.7456C468.296 684.5081 468.5851 685.3013 468.8032 686.1174ZM466.3211 683.2243C465.934 682.5552 465.4889 681.921 464.9916 681.3289L465.9069 680.5601C466.4488 681.2052 466.9338 681.8964 467.3557 682.6257ZM464.2084 680.4746C463.6616 679.9278 463.0683 679.4294 462.4354 678.9854L463.1218 678.0069C463.8114 678.4906 464.4579 679.0337 465.0537 679.6294ZM461.4588 678.362C460.7901 677.9751 460.0887 677.6473 459.3617 677.3826L459.7706 676.2594C460.5634 676.548 461.3284 676.9056 462.0574 677.3274ZM458.2571 677.0346C457.5138 676.836 456.7518 676.7021 455.9772 676.6352L456.08 675.4443C456.9243 675.5172 457.7552 675.6632 458.5657 675.8799ZM454.819 676.5854C454.0392 676.5854 453.2683 676.6525 452.5119 676.785L452.3057 675.6076C453.1301 675.4632 453.97 675.3901 454.819 675.3901ZM451.3809 677.0346C450.6327 677.2346 449.9055 677.4997 449.2063 677.8263L448.7005 676.7433C449.463 676.3871 450.2562 676.098 451.0723 675.8799ZM448.1792 678.362C447.5101 678.7491 446.8758 679.1942 446.2837 679.6915L445.5149 678.7762C446.1601 678.2343 446.8513 677.7493 447.5806 677.3274ZM445.4295 680.4746C444.8827 681.0214 444.3842 681.6148 443.9403 682.2477L442.9617 681.5613C443.4455 680.8717 443.9886 680.2252 444.5843 679.6294ZM443.3169 683.2243C442.93 683.893 442.6021 684.5944 442.3375 685.3214L441.2143 684.9125C441.5029 684.1196 441.8604 683.3547 442.2822 682.6257ZM441.9895 686.426C441.7909 687.1693 441.6569 687.9313 441.59 688.7059L440.3992 688.6031C440.4721 687.7588 440.6181 686.9279 440.8347 686.1174ZM441.5403 689.8641C441.5403 690.6438 441.6074 691.4148 441.7399 692.1712L440.5625 692.3773C440.4181 691.553 440.345 690.713 440.345 689.8641ZM441.9895 693.3022C442.1895 694.0504 442.4545 694.7776 442.7811 695.4768L441.6981 695.9826C441.342 695.2201 441.0529 694.4269 440.8347 693.6108ZM443.3169 696.5039C443.704 697.173 444.149 697.8073 444.6464 698.3994L443.7311 699.1682C443.1892 698.523 442.7042 697.8318 442.2822 697.1025ZM445.4295 699.2536C445.9763 699.8004 446.5697 700.2989 447.2026 700.7428L446.5161 701.7214C445.8265 701.2376 445.18 700.6945 444.5843 700.0988ZM448.1792 701.3662C448.8478 701.7531 449.5493 702.081 450.2762 702.3456L449.8673 703.4688C449.0745 703.1802 448.3096 702.8226 447.5806 702.4009ZM451.3809 702.6936C452.1241 702.8922 452.8862 703.0262 453.6608 703.093L453.558 704.2839C452.7137 704.211 451.8828 704.065 451.0723 703.8484ZM454.819 703.1428C455.5987 703.1428 456.3696 703.0757 457.126 702.9432L457.3322 704.1206C456.5078 704.265 455.6679 704.3381 454.819 704.3381ZM458.2571 702.6936C459.0053 702.4936 459.7325 702.2285 460.4316 701.902L460.9375 702.985C460.175 703.3411 459.3818 703.6302 458.5657 703.8484ZM461.4588 701.3662C462.1279 700.9791 462.7621 700.5341 463.3542 700.0367L464.123 700.952C463.4779 701.4939 462.7867 701.9789 462.0574 702.4009ZM464.2084 699.2536C464.7552 698.7068 465.2537 698.1134 465.6977 697.4805L466.6762 698.1669C466.1925 698.8566 465.6494 699.5031 465.0537 700.0988ZM466.3211 696.5039C466.708 695.8353 467.0358 695.1338 467.3005 694.4069L468.4237 694.8158C468.1351 695.6086 467.7775 696.3735 467.3557 697.1025ZM467.6484 693.3022C467.8471 692.559 467.981 691.7969 468.0479 691.0223L469.2388 691.1251C469.1659 691.9694 469.0199 692.8003 468.8032 693.6108Z" fill="#19b091"/>
</g>
</g>
<g clip-path="url(#clip_33)">
<path transform="matrix(1,0,0,-1,-140.5,781.7567)" d="M185.5275 689.2665C185.1974 689.2665 184.9298 689.534 184.9298 689.8641 184.9298 690.1942 185.1974 690.4618 185.5275 690.4618H213.874C214.204 690.4618 214.4716 690.1942 214.4716 689.8641 214.4716 689.534 214.204 689.2665 213.874 689.2665Z" fill="#969696"/>
<path transform="matrix(1,0,0,-1,-140.5,781.7567)" d="M285.0219 731.8568C284.7309 731.7011 284.3687 731.8109 284.2131 732.102 284.0575 732.3931 284.1673 732.7552 284.4583 732.9109 299.6768 741.0478 315.8106 742.2464 332.8193 736.5079 333.132 736.4024 333.3 736.0633 333.1945 735.7505 333.089 735.4378 332.7499 735.2698 332.4371 735.3753 315.7376 741.0096 299.9461 739.8364 285.0219 731.8568M334.1765 739.7683 341.4331 732.3838 331.0834 732.1134Z"/>
</g>
<g clip-path="url(#clip_34)">
<path transform="matrix(1,0,0,-1,-140.5,781.7567)" d="M200.0992 678.5576C200.0992 678.3376 199.9208 678.1592 199.7007 678.1592 199.4807 678.1592 199.3023 678.3376 199.3023 678.5576V695.8519C199.3023 696.0719 199.4807 696.2503 199.7007 696.2503 199.9208 696.2503 200.0992 696.0719 200.0992 695.8519ZM196.1418 695.8519 199.7007 704.0373 203.2596 695.8519ZM440.6457 690.2625C440.8658 690.2625 441.0442 690.0842 441.0442 689.8641 441.0442 689.6441 440.8658 689.4657 440.6457 689.4657H423.3515C423.1315 689.4657 422.9531 689.6441 422.9531 689.8641 422.9531 690.0842 423.1315 690.2625 423.3515 690.2625ZM423.3515 686.3052 415.166 689.8641 423.3515 693.423Z" fill="#19b091"/>
</g>
</g>
</g>
</g>
</g>
</svg>
