
<svg xmlns="http://www.w3.org/2000/svg" xmlns:xlink="http://www.w3.org/1999/xlink" xmlns:inkscape="http://www.inkscape.org/namespaces/inkscape" version="1.1" width="146.5" height="247.92285" viewBox="0 0 146.5 247.92285">
<defs>
<clipPath id="clip_0">
<path transform="matrix(1,0,0,-1,-77.5,748.76699)" d="M77.5 500.84413H224V748.76699H77.5Z" clip-rule="evenodd"/>
</clipPath>
<clipPath id="clip_1">
<path transform="matrix(1,0,0,-1,-77.5,748.76699)" d="M0 0H612V803.25H0Z"/>
</clipPath>
<clipPath id="clip_2">
<path transform="matrix(1,0,0,-1,-77.5,748.76699)" d="M0 0H612V803.25H0Z"/>
</clipPath>
<clipPath id="clip_3">
<path transform="matrix(1,0,0,-1,-77.5,748.76699)" d="M168.4603 704.4025H187.466V682.4554H168.4603ZM181.1677 683.1076C181.2731 683.2375 181.377 683.3678 181.4796 683.4983 176.2446 684.8318 172.2133 687.2237 170.4668 690.1448 169.8649 691.1514 169.5392 692.2204 169.5392 693.329 169.5392 696.1019 171.567 698.6162 174.8573 700.5388 176.944 701.7581 179.5412 702.7392 182.4766 703.395 182.2504 703.509 182.0171 703.6131 181.7772 703.7072 179.035 703.0432 176.603 702.0957 174.6235 700.939 171.1505 698.9097 169.0757 696.2367 169.0757 693.329 169.0757 692.1382 169.4221 690.9887 170.069 689.9069 171.8369 686.9501 175.8868 684.4944 181.1677 683.1076"/>
</clipPath>
<clipPath id="clip_4">
<path transform="matrix(1,0,0,-1,-77.5,748.76699)" d="M0 0H612V803.25H0Z"/>
</clipPath>
<clipPath id="clip_5">
<path transform="matrix(1,0,0,-1,-77.5,748.76699)" d="M0 0H612V803.25H0Z"/>
</clipPath>
<clipPath id="clip_6">
<path transform="matrix(1,0,0,-1,-77.5,748.76699)" d="M111.8869 704.4025H130.8926V682.4554H111.8869ZM124.5943 683.1076C124.6996 683.2375 124.8036 683.3678 124.9062 683.4983 119.6712 684.8318 115.6399 687.2237 113.8934 690.1448 113.2915 691.1514 112.9658 692.2204 112.9658 693.329 112.9658 696.1019 114.9936 698.6162 118.2839 700.5388 120.3706 701.7581 122.9678 702.7392 125.9032 703.395 125.6769 703.509 125.4437 703.6131 125.2038 703.7072 122.4616 703.0432 120.0296 702.0957 118.0501 700.939 114.5771 698.9097 112.5023 696.2367 112.5023 693.329 112.5023 692.1382 112.8487 690.9887 113.4956 689.9069 115.2634 686.9501 119.3133 684.4944 124.5943 683.1076"/>
</clipPath>
<clipPath id="clip_7">
<path transform="matrix(1,0,0,-1,-77.5,748.76699)" d="M0 0H612V803.25H0Z"/>
</clipPath>
<clipPath id="clip_8">
<path transform="matrix(1,0,0,-1,-77.5,748.76699)" d="M0 0H612V803.25H0Z"/>
</clipPath>
<clipPath id="clip_9">
<path transform="matrix(1,0,0,-1,-77.5,748.76699)" d="M124.8886 535.6729H143.8943V513.7258H124.8886ZM137.596 514.378C137.7014 514.5079 137.8054 514.6381 137.9079 514.7687 132.673 516.1022 128.6417 518.4941 126.8952 521.4152 126.2933 522.4218 125.9676 523.4908 125.9676 524.5994 125.9676 527.3723 127.9954 529.8866 131.2857 531.8092 133.3724 533.0284 135.9696 534.0096 138.905 534.6654 138.6787 534.7794 138.4454 534.8835 138.2055 534.9776 135.4634 534.3136 133.0314 533.3661 131.0518 532.2094 127.5789 530.1801 125.5041 527.5071 125.5041 524.5994 125.5041 523.4086 125.8505 522.2591 126.4973 521.1773 128.2652 518.2205 132.3151 515.7648 137.596 514.378"/>
</clipPath>
<clipPath id="clip_10">
<path transform="matrix(1,0,0,-1,-77.5,748.76699)" d="M0 0H612V803.25H0Z"/>
</clipPath>
<clipPath id="clip_11">
<path transform="matrix(1,0,0,-1,-77.5,748.76699)" d="M0 0H612V803.25H0Z"/>
</clipPath>
<clipPath id="clip_12">
<path transform="matrix(1,0,0,-1,-77.5,748.76699)" d="M0 0H612V803.25H0Z"/>
</clipPath>
</defs>
<g>
<g clip-path="url(#clip_0)">
<g clip-path="url(#clip_1)">
<g clip-path="url(#clip_2)">
<text xml:space="preserve" transform="matrix(15.24917 0 -0 15.24917 61.467103 190.75586)" font-size="1" font-family="cmr10"><tspan y="-.906" x="0">e</tspan></text>
<text xml:space="preserve" transform="matrix(15.24917 0 -0 15.24917 68.24451 190.75586)" font-size="1" font-family="cmr10"><tspan y="-.906" x="0">x</tspan></text>
<text xml:space="preserve" transform="matrix(15.24917 0 -0 15.24917 76.2928 190.75586)" font-size="1" font-family="cmr10"><tspan y="-.906" x="0">p</tspan></text>
<g clip-path="url(#clip_3)">
<g clip-path="url(#clip_4)">
<g style="mix-blend-mode:darken">
<path transform="matrix(1,0,0,-1,-77.5,748.76699)" d="M181.3246 683.3025C174.1978 685.146 169.3075 688.9435 169.3075 693.329 169.3075 697.8797 174.5731 701.7972 182.1392 703.5553 183.0978 703.1264 183.941 702.5293 184.6368 701.7565 185.9844 700.2597 186.6188 698.2815 186.6188 696.0472 186.6188 693.404 185.7329 690.4046 184.0798 687.4048 183.3199 686.0259 182.3979 684.647 181.3246 683.3025" fill="#f2a766" fill-opacity=".42" fill-rule="evenodd"/>
</g>
</g>
</g>
<g clip-path="url(#clip_5)">
<g style="mix-blend-mode:darken">
<path transform="matrix(1,0,0,-1,-77.5,748.76699)" d="M181.1677 683.1076C175.8868 684.4944 171.8369 686.9501 170.069 689.9069 169.4221 690.9887 169.0757 692.1382 169.0757 693.329 169.0757 696.2367 171.1505 698.9097 174.6235 700.939 176.603 702.0957 179.035 703.0432 181.7772 703.7072 182.0171 703.6131 182.2504 703.509 182.4766 703.395 179.5412 702.7392 176.944 701.7581 174.8573 700.5388 171.567 698.6162 169.5392 696.1019 169.5392 693.329 169.5392 692.2204 169.8649 691.1514 170.4668 690.1448 172.2133 687.2237 176.2446 684.8318 181.4796 683.4983 181.377 683.3678 181.2731 683.2375 181.1677 683.1076" fill="#f2a766" fill-opacity=".42"/>
</g>
</g>
<g clip-path="url(#clip_6)">
<g clip-path="url(#clip_7)">
<g style="mix-blend-mode:darken">
<path transform="matrix(1,0,0,-1,-77.5,748.76699)" d="M124.7511 683.3025C117.6244 685.146 112.734 688.9435 112.734 693.329 112.734 697.8797 117.9997 701.7972 125.5658 703.5553 126.5244 703.1264 127.3675 702.5293 128.0634 701.7565 129.411 700.2597 130.0454 698.2815 130.0454 696.0472 130.0454 693.404 129.1595 690.4046 127.5064 687.4048 126.7465 686.0259 125.8245 684.647 124.7511 683.3025" fill="#f2a766" fill-opacity=".42" fill-rule="evenodd"/>
</g>
</g>
</g>
<g clip-path="url(#clip_8)">
<g style="mix-blend-mode:darken">
<path transform="matrix(1,0,0,-1,-77.5,748.76699)" d="M124.5943 683.1076C119.3133 684.4944 115.2634 686.9501 113.4956 689.9069 112.8487 690.9887 112.5023 692.1382 112.5023 693.329 112.5023 696.2367 114.5771 698.9097 118.0501 700.939 120.0296 702.0957 122.4616 703.0432 125.2038 703.7072 125.4437 703.6131 125.6769 703.509 125.9032 703.395 122.9678 702.7392 120.3706 701.7581 118.2839 700.5388 114.9936 698.6162 112.9658 696.1019 112.9658 693.329 112.9658 692.2204 113.2915 691.1514 113.8934 690.1448 115.6399 687.2237 119.6712 684.8318 124.9062 683.4983 124.8036 683.3678 124.6996 683.2375 124.5943 683.1076" fill="#f2a766" fill-opacity=".42"/>
</g>
</g>
<g clip-path="url(#clip_9)">
<g clip-path="url(#clip_10)">
<g style="mix-blend-mode:darken">
<path transform="matrix(1,0,0,-1,-77.5,748.76699)" d="M137.7529 514.5729C130.6262 516.4164 125.7358 520.2139 125.7358 524.5994 125.7358 529.1501 131.0015 533.0676 138.5675 534.8257 139.5262 534.3968 140.3693 533.7997 141.0651 533.0269 142.4128 531.5301 143.0472 529.5519 143.0472 527.3176 143.0472 524.6744 142.1613 521.675 140.5082 518.6752 139.7483 517.2963 138.8263 515.9174 137.7529 514.5729" fill="#f2a766" fill-opacity=".42" fill-rule="evenodd"/>
</g>
</g>
</g>
<g clip-path="url(#clip_11)">
<g style="mix-blend-mode:darken">
<path transform="matrix(1,0,0,-1,-77.5,748.76699)" d="M137.596 514.378C132.3151 515.7648 128.2652 518.2205 126.4973 521.1773 125.8505 522.2591 125.5041 523.4086 125.5041 524.5994 125.5041 527.5071 127.5789 530.1801 131.0518 532.2094 133.0314 533.3661 135.4634 534.3136 138.2055 534.9776 138.4454 534.8835 138.6787 534.7794 138.905 534.6654 135.9696 534.0096 133.3724 533.0284 131.2857 531.8092 127.9954 529.8866 125.9676 527.3723 125.9676 524.5994 125.9676 523.4908 126.2933 522.4218 126.8952 521.4152 128.6417 518.4941 132.673 516.1022 137.9079 514.7687 137.8054 514.6381 137.7014 514.5079 137.596 514.378" fill="#f2a766" fill-opacity=".42"/>
</g>
</g>
<g clip-path="url(#clip_12)">
<path transform="matrix(1,0,0,-1,-77.5,748.76699)" d="M192.4743 693.4074C192.4743 693.7375 192.7419 694.0051 193.072 694.0051 193.402 694.0051 193.6696 693.7375 193.6696 693.4074V686.3208C193.6696 685.9907 193.402 685.7231 193.072 685.7231 192.7419 685.7231 192.4743 685.9907 192.4743 686.3208ZM107.4349 693.4074C107.4349 693.7375 107.7025 694.0051 108.0326 694.0051 108.3626 694.0051 108.6302 693.7375 108.6302 693.4074V686.3208C108.6302 685.9907 108.3626 685.7231 108.0326 685.7231 107.7025 685.7231 107.4349 685.9907 107.4349 686.3208ZM192.4743 746.5571C192.4743 746.8871 192.7419 747.1547 193.072 747.1547 193.402 747.1547 193.6696 746.8871 193.6696 746.5571V618.9979C193.6696 618.6679 193.402 618.4003 193.072 618.4003 192.7419 618.4003 192.4743 618.6679 192.4743 618.9979ZM192.5938 746.4375C192.5938 746.7676 192.8614 747.0352 193.1915 747.0352 193.5216 747.0352 193.7892 746.7676 193.7892 746.4375V618.8784C193.7892 618.5483 193.5216 618.2807 193.1915 618.2807 192.8614 618.2807 192.5938 618.5483 192.5938 618.8784ZM107.4349 746.5571C107.4349 746.8871 107.7025 747.1547 108.0326 747.1547 108.3626 747.1547 108.6302 746.8871 108.6302 746.5571V618.9979C108.6302 618.6679 108.3626 618.4003 108.0326 618.4003 107.7025 618.4003 107.4349 618.6679 107.4349 618.9979ZM79.08842 746.5571C79.08842 746.8871 79.356 747.1547 79.68608 747.1547 80.01616 747.1547 80.28374 746.8871 80.28374 746.5571V618.9979C80.28374 618.6679 80.01616 618.4003 79.68608 618.4003 79.356 618.4003 79.08842 618.6679 79.08842 618.9979ZM164.0083 746.6766C164.0083 747.0067 164.2759 747.2742 164.606 747.2742 164.936 747.2742 165.2036 747.0067 165.2036 746.6766V619.1175C165.2036 618.7874 164.936 618.5198 164.606 618.5198 164.2759 618.5198 164.0083 618.7874 164.0083 619.1175ZM164.1278 746.5571C164.1278 746.8871 164.3954 747.1547 164.7255 747.1547 165.0556 747.1547 165.3232 746.8871 165.3232 746.5571V618.9979C165.3232 618.6679 165.0556 618.4003 164.7255 618.4003 164.3954 618.4003 164.1278 618.6679 164.1278 618.9979ZM135.7814 746.5571C135.7814 746.8871 136.0489 747.1547 136.379 747.1547 136.7091 747.1547 136.9767 746.8871 136.9767 746.5571V618.9979C136.9767 618.6679 136.7091 618.4003 136.379 618.4003 136.0489 618.4003 135.7814 618.6679 135.7814 618.9979ZM135.9009 746.4375C135.9009 746.7676 136.1685 747.0352 136.4986 747.0352 136.8286 747.0352 137.0962 746.7676 137.0962 746.4375V618.8784C137.0962 618.5483 136.8286 618.2807 136.4986 618.2807 136.1685 618.2807 135.9009 618.5483 135.9009 618.8784ZM141.449 533.4794C142.8835 531.8471 143.5768 529.7203 143.5768 527.3171 143.5768 524.5811 142.6724 521.4796 140.9608 518.3796 139.3291 515.4242 136.9642 512.4676 133.9686 509.8351 131.8216 507.9484 129.5511 506.4043 127.2809 505.2251 123.7542 503.3934 120.2264 502.4435 117.1538 502.4435 114.0063 502.4435 111.3329 503.437 109.5591 505.4555 108.1246 507.0878 107.4313 509.2146 107.4313 511.6178 107.4313 514.3538 108.3357 517.4553 110.0473 520.5553 111.679 523.5107 114.0439 526.4674 117.0395 529.0998 119.1865 530.9865 121.457 532.5306 123.7272 533.7098 127.2539 535.5416 130.7817 536.4914 133.8543 536.4914 137.0019 536.4914 139.6752 535.498 141.449 533.4794M140.5512 532.6904C138.987 534.4703 136.6134 535.2961 133.8543 535.2961 130.9466 535.2961 127.613 534.3811 124.2781 532.649 122.0885 531.5117 119.8993 530.0216 117.8285 528.2019 114.9445 525.6676 112.6648 522.8232 111.0937 519.9776 109.4927 517.078 108.6266 514.1799 108.6266 511.6178 108.6266 509.5289 109.2062 507.6678 110.457 506.2445 112.0211 504.4646 114.3947 503.6388 117.1538 503.6388 120.0615 503.6388 123.3951 504.5538 126.73 506.2859 128.9196 507.4232 131.1089 508.9133 133.1796 510.733 136.0636 513.2674 138.3433 516.1117 139.9144 518.9574 141.5154 521.857 142.3815 524.7551 142.3815 527.3171 142.3815 529.4061 141.8019 531.2671 140.5512 532.6904M130.1664 525.478C129.8552 525.7892 129.8552 526.2937 130.1664 526.6049 130.4776 526.9161 130.9821 526.9161 131.2933 526.6049 131.6045 526.2937 131.6045 525.7892 131.2933 525.478 130.9821 525.1668 130.4776 525.1668 130.1664 525.478M169.6965 524.6778C169.6965 521.6569 167.5822 518.8508 163.956 516.7319 159.8872 514.3545 153.9313 512.8427 147.2899 512.8427 137.1926 512.8427 128.7409 516.3576 125.9317 521.0561 125.2471 522.201 124.8832 523.4181 124.8832 524.6778 124.8832 527.6987 126.9976 530.5049 130.6238 532.6237 134.6925 535.0011 140.6485 536.5129 147.2899 536.5129 157.3871 536.5129 165.8388 532.9981 168.6481 528.2996 169.3327 527.1546 169.6965 525.9375 169.6965 524.6778M168.4549 524.6778C168.4549 525.7174 168.1466 526.7189 167.5824 527.6624 164.9133 532.1265 156.7897 535.2713 147.2899 535.2713 140.9029 535.2713 135.166 533.8397 131.2502 531.5517 128.1132 529.7187 126.1249 527.3375 126.1249 524.6778 126.1249 523.6382 126.4332 522.6368 126.9973 521.6932 129.6664 517.2292 137.7901 514.0843 147.2899 514.0843 153.6769 514.0843 159.4137 515.5159 163.3296 517.804 166.4666 519.6369 168.4549 522.0181 168.4549 524.6778M158.5128 525.478C158.2016 525.7892 158.2016 526.2937 158.5128 526.6049 158.824 526.9161 159.3286 526.9161 159.6398 526.6049 159.951 526.2937 159.951 525.7892 159.6398 525.478 159.3286 525.1668 158.824 525.1668 158.5128 525.478M115.9931 511.3047C115.6819 511.6159 115.6819 512.1205 115.9931 512.4317 116.3043 512.7429 116.8089 512.7429 117.1201 512.4317 117.4313 512.1205 117.4313 511.6159 117.1201 511.3047 116.8089 510.9935 116.3043 510.9935 115.9931 511.3047M133.3881 589.465C133.3881 589.795 133.6557 590.0626 133.9857 590.0626 134.3158 590.0626 134.5834 589.795 134.5834 589.465V566.0898C134.5834 565.7597 134.3158 565.4921 133.9857 565.4921 133.6557 565.4921 133.3881 565.7597 133.3881 566.0898ZM138.1138 566.0898 133.9857 556.5952 129.8576 566.0898ZM173.738 694.2076C173.4268 694.5188 173.4268 695.0233 173.738 695.3345 174.0492 695.6457 174.5538 695.6457 174.865 695.3345 175.1762 695.0233 175.1762 694.5188 174.865 694.2076 174.5538 693.8964 174.0492 693.8964 173.738 694.2076M213.2681 693.4074C213.2681 690.3865 211.1538 687.5804 207.5276 685.4615 203.4589 683.0841 197.5029 681.5723 190.8615 681.5723 180.7642 681.5723 172.3126 685.0872 169.5033 689.7857 168.8187 690.9306 168.4549 692.1477 168.4549 693.4074 168.4549 696.4283 170.5692 699.2345 174.1954 701.3533 178.2642 703.7307 184.2201 705.2425 190.8615 705.2425 200.9588 705.2425 209.4105 701.7277 212.2197 697.0292 212.9043 695.8842 213.2681 694.6671 213.2681 693.4074M212.0265 693.4074C212.0265 694.447 211.7182 695.4485 211.1541 696.392 208.485 700.8561 200.3613 704.0009 190.8615 704.0009 184.4745 704.0009 178.7376 702.5693 174.8218 700.2813 171.6848 698.4483 169.6965 696.0671 169.6965 693.4074 169.6965 692.3678 170.0048 691.3664 170.569 690.4228 173.2381 685.9588 181.3617 682.8139 190.8615 682.8139 197.2485 682.8139 202.9854 684.2455 206.9012 686.5336 210.0382 688.3665 212.0265 690.7477 212.0265 693.4074M202.0845 694.2076C201.7733 694.5188 201.7733 695.0233 202.0845 695.3345 202.3957 695.6457 202.9002 695.6457 203.2114 695.3345 203.5226 695.0233 203.5226 694.5188 203.2114 694.2076 202.9002 693.8964 202.3957 693.8964 202.0845 694.2076M107.4349 746.5571C107.4349 746.8871 107.7025 747.1547 108.0326 747.1547 108.3626 747.1547 108.6302 746.8871 108.6302 746.5571V618.9979C108.6302 618.6679 108.3626 618.4003 108.0326 618.4003 107.7025 618.4003 107.4349 618.6679 107.4349 618.9979ZM117.1646 694.088C116.8534 694.3992 116.8534 694.9038 117.1646 695.215 117.4758 695.5262 117.9803 695.5262 118.2915 695.215 118.6027 694.9038 118.6027 694.3992 118.2915 694.088 117.9803 693.7768 117.4758 693.7768 117.1646 694.088M128.4473 702.0895C129.8817 700.4572 130.575 698.3304 130.575 695.9272 130.575 693.1912 129.6706 690.0897 127.9591 686.9897 126.3273 684.0343 123.9625 681.0776 120.9669 678.4452 118.8198 676.5585 116.5493 675.0144 114.2792 673.8352 110.7525 672.0034 107.2246 671.0536 104.1521 671.0536 101.0045 671.0536 98.33113 672.047 96.5573 674.0656 95.12288 675.6979 94.42953 677.8247 94.42953 680.2279 94.42953 682.9639 95.33392 686.0654 97.04552 689.1654 98.67727 692.1208 101.0421 695.0774 104.0377 697.7099 106.1847 699.5966 108.4552 701.1407 110.7254 702.3199 114.2521 704.1516 117.78 705.1015 120.8525 705.1015 124.0001 705.1015 126.6734 704.108 128.4473 702.0895M127.5494 701.3005C125.9853 703.0804 123.6117 703.9062 120.8525 703.9062 117.9448 703.9062 114.6112 702.9912 111.2764 701.2591 109.0868 700.1218 106.8975 698.6317 104.8267 696.812 101.9428 694.2776 99.66307 691.4333 98.09193 688.5876 96.49098 685.688 95.62484 682.7899 95.62484 680.2279 95.62484 678.1389 96.20443 676.2779 97.45518 674.8546 99.0193 673.0747 101.3929 672.2489 104.1521 672.2489 107.0597 672.2489 110.3934 673.1639 113.7282 674.896 115.9178 676.0333 118.1071 677.5234 120.1778 679.3431 123.0618 681.8774 125.3415 684.7218 126.9126 687.5674 128.5136 690.467 129.3797 693.3651 129.3797 695.9272 129.3797 698.0161 128.8001 699.8771 127.5494 701.3005M117.1646 694.088C116.8534 694.3992 116.8534 694.9038 117.1646 695.215 117.4758 695.5262 117.9803 695.5262 118.2915 695.215 118.6027 694.9038 118.6027 694.3992 118.2915 694.088 117.9803 693.7768 117.4758 693.7768 117.1646 694.088M102.9914 679.9148C102.6802 680.226 102.6802 680.7306 102.9914 681.0418 103.3026 681.353 103.8071 681.353 104.1183 681.0418 104.4295 680.7306 104.4295 680.226 104.1183 679.9148 103.8071 679.6036 103.3026 679.6036 102.9914 679.9148M103.2497 680.2618C103.2019 680.5884 103.4278 680.8919 103.7544 680.9398 104.081 680.9876 104.3846 680.7617 104.4324 680.4351 104.4406 680.3794 104.3183 680.6199 104.3499 680.5915L104.4433 680.5729 104.8516 680.525 106.0999 680.4896 106.3649 680.5256 106.8222 680.7034 107.2294 680.948 107.4123 681.0831 107.5632 681.2002 107.9985 681.6159 108.2568 681.8379 108.5083 682.023 108.8632 682.2631 109.2733 682.572 109.518 682.8383C109.7526 683.2358 109.8839 683.9306 109.9488 684.6465L110.2626 686.93 110.4991 688.6903 110.7573 689.7823 110.8892 690.1121 111.2662 690.7924 111.9737 691.8036 112.3427 692.2075 112.5182 692.3722 113.3461 692.9983 113.8998 693.3366 114.2648 693.5003 114.505 693.589 115.517 693.9679 116.0394 694.1526C116.4768 694.2945 116.7592 694.357 117.0073 694.5411 117.2723 694.7379 117.6466 694.6825 117.8434 694.4175 118.0401 694.1525 117.9848 693.7781 117.7197 693.5814 117.2533 693.2351 116.7882 693.1388 116.4099 693.0162L115.9126 692.84 114.9171 692.4669 114.7233 692.3965 114.4282 692.2645 114.0491 692.0315 113.3067 691.4738 113.1891 691.3635 112.8972 691.0446 112.2826 690.1633 111.9766 689.6156 111.8805 689.3734 111.6836 688.5298 111.4431 686.7424 111.1392 684.5386C111.0681 683.7534 110.9531 682.9182 110.5466 682.2296 110.4188 682.014 110.2457 681.8286 110.0435 681.658L109.5429 681.2799 109.1943 681.0441 109.0098 680.9096 108.8151 680.743 108.3408 680.2923 108.1466 680.1399 107.8981 679.9573 107.3916 679.6524C107.1528 679.5221 106.8943 679.4131 106.601 679.3539L106.1799 679.297C105.6908 679.263 105.2335 679.2992 104.7655 679.3328 104.5302 679.3499 104.267 679.3671 103.9897 679.4583 103.7019 679.553 103.3142 679.8215 103.2497 680.2618M201.4023 695.0758C201.7291 695.0295 201.9566 694.727 201.9103 694.4002 201.864 694.0734 201.5615 693.846 201.2347 693.8923 200.8021 693.9535 200.5817 694.1314 200.3936 694.1802L200.062 694.2055 199.9122 694.1611C199.655 694.0521 199.2892 693.7092 198.7757 693.3236L197.7926 692.6762C196.9897 692.1887 196.4068 691.7184 195.8761 691.1992 195.2814 690.6174 194.5656 690.1481 193.8784 689.8248 193.4217 689.61 193.0268 689.3919 192.5445 689.2366 191.9575 689.048 191.3518 689.0657 190.788 689.145L190.0446 689.3031C189.3415 689.5213 188.8747 689.9561 188.5486 690.3406L187.8983 691.2591 187.5908 691.7377 187.4927 691.8891 187.3766 692.0676 187.1801 692.2998 187.0428 692.4368 186.868 692.593 186.5849 692.7943 186.2592 693.0048 185.9952 693.1644 185.8032 693.2859 185.5151 693.4694 184.4096 694.3011 184.0887 694.5745 183.4513 694.947 183.3028 695.0317C182.8307 695.2522 182.2194 695.3192 181.6391 695.331L180.386 695.3996 179.8712 695.3504 179.4835 695.2741 178.7879 695.1095 178.4353 695.0383 177.7032 694.7889 177.2415 694.7191C176.7221 694.6758 176.1938 694.5534 175.4932 694.4205 175.1689 694.359 174.8561 694.572 174.7946 694.8963 174.7331 695.2206 174.9461 695.5334 175.2704 695.5949 175.9494 695.7237 176.5167 695.8581 177.142 695.9102L177.3631 695.9348 178.1772 696.2054 178.5071 696.2714 179.2492 696.4463 179.673 696.5292 180.3708 696.5948 181.6636 696.526C182.3183 696.5127 183.0877 696.4514 183.8061 696.1159L183.9794 696.0192C184.2398 695.8924 184.5477 695.7409 184.8397 695.5044L185.1781 695.2166 186.1633 694.4737 186.4511 694.2904 186.6129 694.1877 186.8778 694.0276 187.2546 693.7844 187.6163 693.5251 187.8439 693.3238 188.078 693.0887 188.3341 692.783 188.4896 692.5486 188.597 692.3829 188.9016 691.9088 189.4598 691.1143C189.7203 690.8071 189.9629 690.58 190.3981 690.445L190.9553 690.3286C191.4129 690.2642 191.842 690.2664 192.1785 690.3745L193.3696 690.9064C193.9386 691.1741 194.5606 691.5845 195.0402 692.0536 195.6265 692.6272 196.2953 693.1654 197.1719 693.6977L198.0578 694.2793C198.5042 694.6145 198.8855 695.0242 199.4461 695.2618L199.9796 695.3979 200.6919 695.3376C201.1062 695.2302 201.3346 695.0854 201.4023 695.0758M102.4279 679.3513C101.8055 679.9737 101.8055 680.9828 102.4279 681.6052 103.0503 682.2276 104.0594 682.2276 104.6818 681.6052 105.3042 680.9828 105.3042 679.9737 104.6818 679.3513 104.0594 678.7289 103.0503 678.7289 102.4279 679.3513M201.521 693.6441C200.8986 694.2665 200.8986 695.2756 201.521 695.898 202.1434 696.5204 203.1525 696.5204 203.7749 695.898 204.3973 695.2756 204.3973 694.2665 203.7749 693.6441 203.1525 693.0217 202.1434 693.0217 201.521 693.6441M173.1745 693.6441C172.5521 694.2665 172.5521 695.2756 173.1745 695.898 173.7969 696.5204 174.806 696.5204 175.4284 695.898 176.0508 695.2756 176.0508 694.2665 175.4284 693.6441 174.806 693.0217 173.7969 693.0217 173.1745 693.6441M116.6011 693.5246C115.9787 694.147 115.9787 695.1561 116.6011 695.7785 117.2235 696.4009 118.2326 696.4009 118.855 695.7785 119.4774 695.1561 119.4774 694.147 118.855 693.5246 118.2326 692.9022 117.2235 692.9022 116.6011 693.5246M129.6029 524.9145C128.9805 525.5369 128.9805 526.546 129.6029 527.1684 130.2253 527.7908 131.2344 527.7908 131.8568 527.1684 132.4792 526.546 132.4792 525.5369 131.8568 524.9145 131.2344 524.2921 130.2253 524.2921 129.6029 524.9145M157.9494 524.9145C157.327 525.5369 157.327 526.546 157.9494 527.1684 158.5718 527.7908 159.5809 527.7908 160.2033 527.1684 160.8257 526.546 160.8257 525.5369 160.2033 524.9145 159.5809 524.2921 158.5718 524.2921 157.9494 524.9145M115.4297 510.7413C114.8073 511.3637 114.8073 512.3728 115.4297 512.9952 116.052 513.6176 117.0612 513.6176 117.6836 512.9952 118.306 512.3728 118.306 511.3637 117.6836 510.7413 117.0612 510.1189 116.052 510.1189 115.4297 510.7413M221.0598 746.318C221.0598 746.6481 221.3274 746.9156 221.6575 746.9156 221.9876 746.9156 222.2552 746.6481 222.2552 746.318V618.7589C222.2552 618.4288 221.9876 618.1612 221.6575 618.1612 221.3274 618.1612 221.0598 618.4288 221.0598 618.7589ZM221.1794 746.1985C221.1794 746.5285 221.447 746.7961 221.777 746.7961 222.1071 746.7961 222.3747 746.5285 222.3747 746.1985V618.6393C222.3747 618.3093 222.1071 618.0417 221.777 618.0417 221.447 618.0417 221.1794 618.3093 221.1794 618.6393ZM192.5938 746.4375C192.5938 746.7676 192.8614 747.0352 193.1915 747.0352 193.5216 747.0352 193.7892 746.7676 193.7892 746.4375V618.8784C193.7892 618.5483 193.5216 618.2807 193.1915 618.2807 192.8614 618.2807 192.5938 618.5483 192.5938 618.8784Z"/>
</g>
</g>
</g>
</g>
</g>
</svg>
