<svg xmlns="http://www.w3.org/2000/svg" xmlns:xlink="http://www.w3.org/1999/xlink" xmlns:inkscape="http://www.inkscape.org/namespaces/inkscape" version="1.1" width="274.5" height="121.9621" viewBox="0 0 274.5 121.9621">
<defs>
<clipPath id="clip_8">
<path transform="matrix(1,0,0,-1,-154.5,777.2581)" d="M154.5 655.296H429V777.2581H154.5Z" clip-rule="evenodd"/>
</clipPath>
<clipPath id="clip_9">
<path transform="matrix(1,0,0,-1,-154.5,777.2581)" d="M0 0H612V803.25H0Z"/>
</clipPath>
<clipPath id="clip_10">
<path transform="matrix(1,0,0,-1,-154.5,777.2581)" d="M0 0H612V803.25H0Z"/>
</clipPath>
<clipPath id="clip_11">
<path transform="matrix(1,0,0,-1,-154.5,777.2581)" d="M0 0H612V803.25H0Z"/>
</clipPath>
<clipPath id="clip_12">
<path transform="matrix(1,0,0,-1,-154.5,777.2581)" d="M0 0H612V803.25H0Z"/>
</clipPath>
<clipPath id="clip_13">
<path transform="matrix(1,0,0,-1,-154.5,777.2581)" d="M0 0H612V803.25H0Z"/>
</clipPath>
<clipPath id="clip_14">
<path transform="matrix(1,0,0,-1,-154.5,777.2581)" d="M0 0H612V803.25H0Z"/>
</clipPath>
<clipPath id="clip_15">
<path transform="matrix(1,0,0,-1,-154.5,777.2581)" d="M0 0H612V803.25H0Z"/>
</clipPath>
<clipPath id="clip_16">
<path transform="matrix(1,0,0,-1,-154.5,777.2581)" d="M0 0H612V803.25H0Z"/>
</clipPath>
<clipPath id="clip_17">
<path transform="matrix(1,0,0,-1,-154.5,777.2581)" d="M198.9039 765.8559C198.9039 766.296 199.2606 766.6528 199.7007 766.6528 200.1408 766.6528 200.4976 766.296 200.4976 765.8559V758.7693C200.4976 758.3292 200.1408 757.9724 199.7007 757.9724 199.2606 757.9724 198.9039 758.3292 198.9039 758.7693Z"/>
</clipPath>
<clipPath id="clip_18">
<path transform="matrix(1,0,0,-1,-154.5,777.2581)" d="M0 0H612V803.25H0Z"/>
</clipPath>
<clipPath id="clip_19">
<path transform="matrix(1,0,0,-1,-154.5,777.2581)" d="M326.463 673.7299C326.463 674.17 326.8198 674.5267 327.2599 674.5267 327.7 674.5267 328.0567 674.17 328.0567 673.7299V666.6433C328.0567 666.2031 327.7 665.8464 327.2599 665.8464 326.8198 665.8464 326.463 666.2031 326.463 666.6433Z"/>
</clipPath>
<clipPath id="clip_20">
<path transform="matrix(1,0,0,-1,-154.5,777.2581)" d="M0 0H612V803.25H0Z"/>
</clipPath>
<clipPath id="clip_21">
<path transform="matrix(1,0,0,-1,-154.5,777.2581)" d="M0 0H612V803.25H0Z"/>
</clipPath>
<clipPath id="clip_22">
<path transform="matrix(1,0,0,-1,-154.5,777.2581)" d="M255.5968 765.8559C255.5968 766.296 255.9536 766.6528 256.3937 766.6528 256.8338 766.6528 257.1905 766.296 257.1905 765.8559V758.7693C257.1905 758.3292 256.8338 757.9724 256.3937 757.9724 255.9536 757.9724 255.5968 758.3292 255.5968 758.7693Z"/>
</clipPath>
<clipPath id="clip_23">
<path transform="matrix(1,0,0,-1,-154.5,777.2581)" d="M0 0H612V803.25H0Z"/>
</clipPath>
<clipPath id="clip_24">
<path transform="matrix(1,0,0,-1,-154.5,777.2581)" d="M0 0H612V803.25H0Z"/>
</clipPath>
<clipPath id="clip_25">
<path transform="matrix(1,0,0,-1,-154.5,777.2581)" d="M332.9445 765.8559C332.9445 766.296 333.3013 766.6528 333.7414 766.6528 334.1815 766.6528 334.5383 766.296 334.5383 765.8559V758.7693C334.5383 758.3292 334.1815 757.9724 333.7414 757.9724 333.3013 757.9724 332.9445 758.3292 332.9445 758.7693Z"/>
</clipPath>
<clipPath id="clip_26">
<path transform="matrix(1,0,0,-1,-154.5,777.2581)" d="M0 0H612V803.25H0Z"/>
</clipPath>
<clipPath id="clip_27">
<path transform="matrix(1,0,0,-1,-154.5,777.2581)" d="M0 0H612V803.25H0Z"/>
</clipPath>
<clipPath id="clip_28">
<path transform="matrix(1,0,0,-1,-154.5,777.2581)" d="M411.5024 765.8559C411.5024 766.296 411.8592 766.6528 412.2993 766.6528 412.7394 766.6528 413.0961 766.296 413.0961 765.8559V758.7693C413.0961 758.3292 412.7394 757.9724 412.2993 757.9724 411.8592 757.9724 411.5024 758.3292 411.5024 758.7693Z"/>
</clipPath>
<clipPath id="clip_29">
<path transform="matrix(1,0,0,-1,-154.5,777.2581)" d="M0 0H612V803.25H0Z"/>
</clipPath>
<clipPath id="clip_30">
<path transform="matrix(1,0,0,-1,-154.5,777.2581)" d="M0 0H612V803.25H0Z"/>
</clipPath>
<clipPath id="clip_31">
<path transform="matrix(1,0,0,-1,-154.5,777.2581)" d="M218.9495 676.8393C218.9495 677.2794 219.3062 677.6361 219.7463 677.6361 220.1864 677.6361 220.5432 677.2794 220.5432 676.8393V669.7527C220.5432 669.3125 220.1864 668.9558 219.7463 668.9558 219.3062 668.9558 218.9495 669.3125 218.9495 669.7527Z"/>
</clipPath>
<clipPath id="clip_32">
<path transform="matrix(1,0,0,-1,-154.5,777.2581)" d="M0 0H612V803.25H0Z"/>
</clipPath>
<clipPath id="clip_33">
<path transform="matrix(1,0,0,-1,-154.5,777.2581)" d="M0 0H612V803.25H0Z"/>
</clipPath>
<clipPath id="clip_34">
<path transform="matrix(1,0,0,-1,-154.5,777.2581)" d="M383.1559 673.7299C383.1559 674.17 383.5127 674.5267 383.9528 674.5267 384.3929 674.5267 384.7497 674.17 384.7497 673.7299V666.6433C384.7497 666.2031 384.3929 665.8464 383.9528 665.8464 383.5127 665.8464 383.1559 666.2031 383.1559 666.6433Z"/>
</clipPath>
<clipPath id="clip_35">
<path transform="matrix(1,0,0,-1,-154.5,777.2581)" d="M0 0H612V803.25H0Z"/>
</clipPath>
<clipPath id="clip_36">
<path transform="matrix(1,0,0,-1,-154.5,777.2581)" d="M0 0H612V803.25H0Z"/>
</clipPath>
<clipPath id="clip_37">
<path transform="matrix(1,0,0,-1,-154.5,777.2581)" d="M411.5024 673.7299C411.5024 674.17 411.8592 674.5267 412.2993 674.5267 412.7394 674.5267 413.0961 674.17 413.0961 673.7299V666.6433C413.0961 666.2031 412.7394 665.8464 412.2993 665.8464 411.8592 665.8464 411.5024 666.2031 411.5024 666.6433Z"/>
</clipPath>
<clipPath id="clip_38">
<path transform="matrix(1,0,0,-1,-154.5,777.2581)" d="M0 0H612V803.25H0Z"/>
</clipPath>
<clipPath id="clip_39">
<path transform="matrix(1,0,0,-1,-154.5,777.2581)" d="M0 0H612V803.25H0Z"/>
</clipPath>
<clipPath id="clip_40">
<path transform="matrix(1,0,0,-1,-154.5,777.2581)" d="M0 0H612V803.25H0Z"/>
</clipPath>
</defs>
<g clip-path="url(#clip_8)">
<g clip-path="url(#clip_9)">
<g clip-path="url(#clip_10)">
<g clip-path="url(#clip_11)">
<path transform="matrix(1,0,0,-1,-154.5,777.2581)" d="M216.3645 657.9783C216.4078 658.1014 216.5427 658.1661 216.6658 658.1228 216.7779 658.0834 216.8433 657.9668 216.8185 657.8506 216.816 657.8387 216.8883 657.907 216.8312 657.6746 216.7669 657.4133 216.5639 657.4144 216.3388 657.3634 216.1937 657.3305 216.0495 657.4215 216.0167 657.5665 215.9838 657.7115 216.0748 657.8557 216.2198 657.8886 216.224 657.8895 216.2281 657.8904 216.2324 657.8911 216.6049 657.957 216.2607 657.6827 216.3645 657.9783" fill="#19b091"/>
<path transform="matrix(1,0,0,-1,-154.5,777.2581)" d="M157.181 715.4527C156.7409 715.4527 156.3841 715.8095 156.3841 716.2496 156.3841 716.6897 156.7409 717.0465 157.181 717.0465H426.4725C426.9126 717.0465 427.2694 716.6897 427.2694 716.2496 427.2694 715.8095 426.9126 715.4527 426.4725 715.4527ZM157.181 717.4137C156.7409 717.4137 156.3841 717.7705 156.3841 718.2106 156.3841 718.6507 156.7409 719.0075 157.181 719.0075H426.4725C426.9126 719.0075 427.2694 718.6507 427.2694 718.2106 427.2694 717.7705 426.9126 717.4137 426.4725 717.4137ZM157.181 713.4917C156.7409 713.4917 156.3841 713.8485 156.3841 714.2886 156.3841 714.7287 156.7409 715.0854 157.181 715.0854H426.4725C426.9126 715.0854 427.2694 714.7287 427.2694 714.2886 427.2694 713.8485 426.9126 713.4917 426.4725 713.4917Z"/>
</g>
<g clip-path="url(#clip_12)">
<path transform="matrix(1,0,0,-1,-154.5,777.2581)" d="M157.181 717.4137C156.7409 717.4137 156.3841 717.7705 156.3841 718.2106 156.3841 718.6507 156.7409 719.0075 157.181 719.0075H242.2204C242.6605 719.0075 243.0173 718.6507 243.0173 718.2106 243.0173 717.7705 242.6605 717.4137 242.2204 717.4137ZM200.8049 725.2972C200.8049 724.8571 200.4481 724.5003 200.008 724.5003 199.5679 724.5003 199.2112 724.8571 199.2112 725.2972V742.8399C199.2112 743.28 199.5679 743.6368 200.008 743.6368 200.4481 743.6368 200.8049 743.28 200.8049 742.8399ZM195.3107 742.8399 200.008 753.6437 204.7053 742.8399Z" fill="#dc267f"/>
<path transform="matrix(1,0,0,-1,-154.5,777.2581)" d="M270.5669 717.4137C270.1268 717.4137 269.77 717.7705 269.77 718.2106 269.77 718.6507 270.1268 719.0075 270.5669 719.0075H398.126C398.5661 719.0075 398.9229 718.6507 398.9229 718.2106 398.9229 717.7705 398.5661 717.4137 398.126 717.4137Z" fill="#19b091"/>
<path transform="matrix(1,0,0,-1,-154.5,777.2581)" d="M157.181 713.4917C156.7409 713.4917 156.3841 713.8485 156.3841 714.2886 156.3841 714.7287 156.7409 715.0854 157.181 715.0854H284.7401C285.1802 715.0854 285.537 714.7287 285.537 714.2886 285.537 713.8485 285.1802 713.4917 284.7401 713.4917Z" fill="#19b091"/>
<path transform="matrix(1,0,0,-1,-154.5,777.2581)" d="M398.126 713.4917C397.6859 713.4917 397.3292 713.8485 397.3292 714.2886 397.3292 714.7287 397.6859 715.0854 398.126 715.0854H426.4725C426.9126 715.0854 427.2694 714.7287 427.2694 714.2886 427.2694 713.8485 426.9126 713.4917 426.4725 713.4917Z" fill="#648fff"/>
</g>
<g clip-path="url(#clip_13)">
<path transform="matrix(1,0,0,-1,-154.5,777.2581)" d="M242.2204 717.4137C241.7803 717.4137 241.4236 717.7705 241.4236 718.2106 241.4236 718.6507 241.7803 719.0075 242.2204 719.0075H270.5669C271.007 719.0075 271.3638 718.6507 271.3638 718.2106 271.3638 717.7705 271.007 717.4137 270.5669 717.4137Z" fill="#648fff"/>
<path transform="matrix(1,0,0,-1,-154.5,777.2581)" d="M398.126 717.4137C397.6859 717.4137 397.3292 717.7705 397.3292 718.2106 397.3292 718.6507 397.6859 719.0075 398.126 719.0075H426.4725C426.9126 719.0075 427.2694 718.6507 427.2694 718.2106 427.2694 717.7705 426.9126 717.4137 426.4725 717.4137Z" fill="#ffb000"/>
<path transform="matrix(1,0,0,-1,-154.5,777.2581)" d="M156.3841 732.3838C156.3841 732.8239 156.7409 733.1807 157.181 733.1807 157.6211 733.1807 157.9779 732.8239 157.9779 732.3838V718.2106C157.9779 717.7705 157.6211 717.4137 157.181 717.4137 156.7409 717.4137 156.3841 717.7705 156.3841 718.2106Z"/>
<path transform="matrix(1,0,0,-1,-154.5,777.2581)" d="M284.7401 713.4917C284.3 713.4917 283.9433 713.8485 283.9433 714.2886 283.9433 714.7287 284.3 715.0854 284.7401 715.0854H369.7796C370.2197 715.0854 370.5764 714.7287 370.5764 714.2886 370.5764 713.8485 370.2197 713.4917 369.7796 713.4917ZM327.9198 678.8555C327.9198 678.4154 327.563 678.0586 327.1229 678.0586 326.6828 678.0586 326.3261 678.4154 326.3261 678.8555V696.3982C326.3261 696.8383 326.6828 697.1951 327.1229 697.1951 327.563 697.1951 327.9198 696.8383 327.9198 696.3982Z" fill="#dc267f"/>
</g>
<g clip-path="url(#clip_14)">
<path transform="matrix(1,0,0,-1,-154.5,777.2581)" d="M241.4236 732.3838C241.4236 732.8239 241.7803 733.1807 242.2204 733.1807 242.6605 733.1807 243.0173 732.8239 243.0173 732.3838V718.2106C243.0173 717.7705 242.6605 717.4137 242.2204 717.4137 241.7803 717.4137 241.4236 717.7705 241.4236 718.2106ZM269.77 732.3838C269.77 732.8239 270.1268 733.1807 270.5669 733.1807 271.007 733.1807 271.3638 732.8239 271.3638 732.3838V718.2106C271.3638 717.7705 271.007 717.4137 270.5669 717.4137 270.1268 717.4137 269.77 717.7705 269.77 718.2106ZM397.3292 732.3838C397.3292 732.8239 397.6859 733.1807 398.126 733.1807 398.5661 733.1807 398.9229 732.8239 398.9229 732.3838V718.2106C398.9229 717.7705 398.5661 717.4137 398.126 717.4137 397.6859 717.4137 397.3292 717.7705 397.3292 718.2106ZM425.6756 732.3838C425.6756 732.8239 426.0324 733.1807 426.4725 733.1807 426.9126 733.1807 427.2694 732.8239 427.2694 732.3838V718.2106C427.2694 717.7705 426.9126 717.4137 426.4725 717.4137 426.0324 717.4137 425.6756 717.7705 425.6756 718.2106Z"/>
<path transform="matrix(1,0,0,-1,-154.5,777.2581)" d="M369.7796 713.4917C369.3395 713.4917 368.9827 713.8485 368.9827 714.2886 368.9827 714.7287 369.3395 715.0854 369.7796 715.0854H398.126C398.5661 715.0854 398.9229 714.7287 398.9229 714.2886 398.9229 713.8485 398.5661 713.4917 398.126 713.4917Z" fill="#ffb000"/>
</g>
<g clip-path="url(#clip_15)">
<path transform="matrix(1,0,0,-1,-154.5,777.2581)" d="M368.9827 714.2886C368.9827 714.7287 369.3395 715.0854 369.7796 715.0854 370.2197 715.0854 370.5764 714.7287 370.5764 714.2886V700.1153C370.5764 699.6752 370.2197 699.3185 369.7796 699.3185 369.3395 699.3185 368.9827 699.6752 368.9827 700.1153ZM397.3292 714.2886C397.3292 714.7287 397.6859 715.0854 398.126 715.0854 398.5661 715.0854 398.9229 714.7287 398.9229 714.2886V700.1153C398.9229 699.6752 398.5661 699.3185 398.126 699.3185 397.6859 699.3185 397.3292 699.6752 397.3292 700.1153ZM425.6756 714.2886C425.6756 714.7287 426.0324 715.0854 426.4725 715.0854 426.9126 715.0854 427.2694 714.7287 427.2694 714.2886V700.1153C427.2694 699.6752 426.9126 699.3185 426.4725 699.3185 426.0324 699.3185 425.6756 699.6752 425.6756 700.1153ZM283.9433 714.2886C283.9433 714.7287 284.3 715.0854 284.7401 715.0854 285.1802 715.0854 285.537 714.7287 285.537 714.2886V700.1153C285.537 699.6752 285.1802 699.3185 284.7401 699.3185 284.3 699.3185 283.9433 699.6752 283.9433 700.1153ZM156.3841 714.2886C156.3841 714.7287 156.7409 715.0854 157.181 715.0854 157.6211 715.0854 157.9779 714.7287 157.9779 714.2886V700.1153C157.9779 699.6752 157.6211 699.3185 157.181 699.3185 156.7409 699.3185 156.3841 699.6752 156.3841 700.1153ZM157.9779 710.3512C157.9779 709.9111 157.6211 709.5543 157.181 709.5543 156.7409 709.5543 156.3841 709.9111 156.3841 710.3512V721.962C156.3841 722.4021 156.7409 722.7589 157.181 722.7589 157.6211 722.7589 157.9779 722.4021 157.9779 721.962ZM425.6756 721.9222C425.6756 722.3623 426.0324 722.7191 426.4725 722.7191 426.9126 722.7191 427.2694 722.3623 427.2694 721.9222V710.3114C427.2694 709.8712 426.9126 709.5145 426.4725 709.5145 426.0324 709.5145 425.6756 709.8712 425.6756 710.3114Z"/>
</g>
<g clip-path="url(#clip_16)">
<path transform="matrix(1,0,0,-1,-154.5,777.2581)" d="M322.4256 696.3982 327.1229 707.202 331.8202 696.3982Z" fill="#dc267f"/>
</g>
<g clip-path="url(#clip_17)">
<g clip-path="url(#clip_18)">
<path transform="matrix(1,0,0,-1,-154.5,777.2581)" d="M198.9039 765.8559V765.8541C198.9039 765.414 199.2606 765.0573 199.7007 765.0573 200.1408 765.0573 200.4976 765.414 200.4976 765.8541V765.8559C200.4976 766.296 200.1408 766.6528 199.7007 766.6528 199.2606 766.6528 198.9039 766.296 198.9039 765.8559M198.9039 762.3135V762.3117C198.9039 761.8716 199.2606 761.5148 199.7007 761.5148 200.1408 761.5148 200.4976 761.8716 200.4976 762.3117V762.3135C200.4976 762.7536 200.1408 763.1104 199.7007 763.1104 199.2606 763.1104 198.9039 762.7536 198.9039 762.3135M198.9039 758.7711V758.7693C198.9039 758.3292 199.2606 757.9724 199.7007 757.9724 200.1408 757.9724 200.4976 758.3292 200.4976 758.7693V758.7711C200.4976 759.2112 200.1408 759.5679 199.7007 759.5679 199.2606 759.5679 198.9039 759.2112 198.9039 758.7711" fill="#dc267f"/>
</g>
</g>
<g clip-path="url(#clip_19)">
<g clip-path="url(#clip_20)">
<path transform="matrix(1,0,0,-1,-154.5,777.2581)" d="M326.463 673.7299V673.7281C326.463 673.288 326.8198 672.9312 327.2599 672.9312 327.7 672.9312 328.0567 673.288 328.0567 673.7281V673.7299C328.0567 674.17 327.7 674.5267 327.2599 674.5267 326.8198 674.5267 326.463 674.17 326.463 673.7299M326.463 670.1874V670.1857C326.463 669.7456 326.8198 669.3888 327.2599 669.3888 327.7 669.3888 328.0567 669.7456 328.0567 670.1857V670.1874C328.0567 670.6275 327.7 670.9843 327.2599 670.9843 326.8198 670.9843 326.463 670.6275 326.463 670.1874M326.463 666.645V666.6433C326.463 666.2031 326.8198 665.8464 327.2599 665.8464 327.7 665.8464 328.0567 666.2031 328.0567 666.6433V666.645C328.0567 667.0851 327.7 667.4419 327.2599 667.4419 326.8198 667.4419 326.463 667.0851 326.463 666.645" fill="#dc267f"/>
</g>
</g>
<g clip-path="url(#clip_21)">
<path transform="matrix(1,0,0,-1,-154.5,777.2581)" d="M257.4978 725.2972C257.4978 724.8571 257.1411 724.5003 256.701 724.5003 256.2609 724.5003 255.9041 724.8571 255.9041 725.2972V742.8399C255.9041 743.28 256.2609 743.6368 256.701 743.6368 257.1411 743.6368 257.4978 743.28 257.4978 742.8399ZM252.0037 742.8399 256.701 753.6437 261.3983 742.8399Z" fill="#648fff"/>
</g>
<g clip-path="url(#clip_22)">
<g clip-path="url(#clip_23)">
<path transform="matrix(1,0,0,-1,-154.5,777.2581)" d="M255.5968 765.8559V765.8541C255.5968 765.414 255.9536 765.0573 256.3937 765.0573 256.8338 765.0573 257.1905 765.414 257.1905 765.8541V765.8559C257.1905 766.296 256.8338 766.6528 256.3937 766.6528 255.9536 766.6528 255.5968 766.296 255.5968 765.8559M255.5968 762.3135V762.3117C255.5968 761.8716 255.9536 761.5148 256.3937 761.5148 256.8338 761.5148 257.1905 761.8716 257.1905 762.3117V762.3135C257.1905 762.7536 256.8338 763.1104 256.3937 763.1104 255.9536 763.1104 255.5968 762.7536 255.5968 762.3135M255.5968 758.7711V758.7693C255.5968 758.3292 255.9536 757.9724 256.3937 757.9724 256.8338 757.9724 257.1905 758.3292 257.1905 758.7693V758.7711C257.1905 759.2112 256.8338 759.5679 256.3937 759.5679 255.9536 759.5679 255.5968 759.2112 255.5968 758.7711" fill="#648fff"/>
</g>
</g>
<g clip-path="url(#clip_24)">
<path transform="matrix(1,0,0,-1,-154.5,777.2581)" d="M334.8456 725.2972C334.8456 724.8571 334.4888 724.5003 334.0487 724.5003 333.6086 724.5003 333.2518 724.8571 333.2518 725.2972V742.8399C333.2518 743.28 333.6086 743.6368 334.0487 743.6368 334.4888 743.6368 334.8456 743.28 334.8456 742.8399ZM329.3514 742.8399 334.0487 753.6437 338.746 742.8399Z" fill="#19b091"/>
</g>
<g clip-path="url(#clip_25)">
<g clip-path="url(#clip_26)">
<path transform="matrix(1,0,0,-1,-154.5,777.2581)" d="M332.9445 765.8559V765.8541C332.9445 765.414 333.3013 765.0573 333.7414 765.0573 334.1815 765.0573 334.5383 765.414 334.5383 765.8541V765.8559C334.5383 766.296 334.1815 766.6528 333.7414 766.6528 333.3013 766.6528 332.9445 766.296 332.9445 765.8559M332.9445 762.3135V762.3117C332.9445 761.8716 333.3013 761.5148 333.7414 761.5148 334.1815 761.5148 334.5383 761.8716 334.5383 762.3117V762.3135C334.5383 762.7536 334.1815 763.1104 333.7414 763.1104 333.3013 763.1104 332.9445 762.7536 332.9445 762.3135M332.9445 758.7711V758.7693C332.9445 758.3292 333.3013 757.9724 333.7414 757.9724 334.1815 757.9724 334.5383 758.3292 334.5383 758.7693V758.7711C334.5383 759.2112 334.1815 759.5679 333.7414 759.5679 333.3013 759.5679 332.9445 759.2112 332.9445 758.7711" fill="#19b091"/>
</g>
</g>
<g clip-path="url(#clip_27)">
<path transform="matrix(1,0,0,-1,-154.5,777.2581)" d="M413.4034 725.2972C413.4034 724.8571 413.0467 724.5003 412.6066 724.5003 412.1665 724.5003 411.8097 724.8571 411.8097 725.2972V742.8399C411.8097 743.28 412.1665 743.6368 412.6066 743.6368 413.0467 743.6368 413.4034 743.28 413.4034 742.8399ZM407.9093 742.8399 412.6066 753.6437 417.3039 742.8399Z" fill="#ffb000"/>
</g>
<g clip-path="url(#clip_28)">
<g clip-path="url(#clip_29)">
<path transform="matrix(1,0,0,-1,-154.5,777.2581)" d="M411.5024 765.8559V765.8541C411.5024 765.414 411.8592 765.0573 412.2993 765.0573 412.7394 765.0573 413.0961 765.414 413.0961 765.8541V765.8559C413.0961 766.296 412.7394 766.6528 412.2993 766.6528 411.8592 766.6528 411.5024 766.296 411.5024 765.8559M411.5024 762.3135V762.3117C411.5024 761.8716 411.8592 761.5148 412.2993 761.5148 412.7394 761.5148 413.0961 761.8716 413.0961 762.3117V762.3135C413.0961 762.7536 412.7394 763.1104 412.2993 763.1104 411.8592 763.1104 411.5024 762.7536 411.5024 762.3135M411.5024 758.7711V758.7693C411.5024 758.3292 411.8592 757.9724 412.2993 757.9724 412.7394 757.9724 413.0961 758.3292 413.0961 758.7693V758.7711C413.0961 759.2112 412.7394 759.5679 412.2993 759.5679 411.8592 759.5679 411.5024 759.2112 411.5024 758.7711" fill="#ffb000"/>
</g>
</g>
<g clip-path="url(#clip_30)">
<path transform="matrix(1,0,0,-1,-154.5,777.2581)" d="M220.4063 681.9649C220.4063 681.5248 220.0495 681.168 219.6094 681.168 219.1693 681.168 218.8125 681.5248 218.8125 681.9649V699.5076C218.8125 699.9477 219.1693 700.3045 219.6094 700.3045 220.0495 700.3045 220.4063 699.9477 220.4063 699.5076ZM214.9121 699.5076 219.6094 710.3114 224.3067 699.5076Z" fill="#19b091"/>
</g>
<g clip-path="url(#clip_31)">
<g clip-path="url(#clip_32)">
<path transform="matrix(1,0,0,-1,-154.5,777.2581)" d="M218.9495 676.8393V676.8375C218.9495 676.3974 219.3062 676.0406 219.7463 676.0406 220.1864 676.0406 220.5432 676.3974 220.5432 676.8375V676.8393C220.5432 677.2794 220.1864 677.6361 219.7463 677.6361 219.3062 677.6361 218.9495 677.2794 218.9495 676.8393M218.9495 673.2968V673.2951C218.9495 672.855 219.3062 672.4982 219.7463 672.4982 220.1864 672.4982 220.5432 672.855 220.5432 673.2951V673.2968C220.5432 673.7369 220.1864 674.0937 219.7463 674.0937 219.3062 674.0937 218.9495 673.7369 218.9495 673.2968M218.9495 669.7544V669.7527C218.9495 669.3125 219.3062 668.9558 219.7463 668.9558 220.1864 668.9558 220.5432 669.3125 220.5432 669.7527V669.7544C220.5432 670.1945 220.1864 670.5513 219.7463 670.5513 219.3062 670.5513 218.9495 670.1945 218.9495 669.7544" fill="#19b091"/>
</g>
</g>
<g clip-path="url(#clip_33)">
<path transform="matrix(1,0,0,-1,-154.5,777.2581)" d="M384.6127 678.8555C384.6127 678.4154 384.256 678.0586 383.8159 678.0586 383.3758 678.0586 383.019 678.4154 383.019 678.8555V696.3982C383.019 696.8383 383.3758 697.1951 383.8159 697.1951 384.256 697.1951 384.6127 696.8383 384.6127 696.3982ZM379.1186 696.3982 383.8159 707.202 388.5132 696.3982Z" fill="#ffb000"/>
</g>
<g clip-path="url(#clip_34)">
<g clip-path="url(#clip_35)">
<path transform="matrix(1,0,0,-1,-154.5,777.2581)" d="M383.1559 673.7299V673.7281C383.1559 673.288 383.5127 672.9312 383.9528 672.9312 384.3929 672.9312 384.7497 673.288 384.7497 673.7281V673.7299C384.7497 674.17 384.3929 674.5267 383.9528 674.5267 383.5127 674.5267 383.1559 674.17 383.1559 673.7299M383.1559 670.1874V670.1857C383.1559 669.7456 383.5127 669.3888 383.9528 669.3888 384.3929 669.3888 384.7497 669.7456 384.7497 670.1857V670.1874C384.7497 670.6275 384.3929 670.9843 383.9528 670.9843 383.5127 670.9843 383.1559 670.6275 383.1559 670.1874M383.1559 666.645V666.6433C383.1559 666.2031 383.5127 665.8464 383.9528 665.8464 384.3929 665.8464 384.7497 666.2031 384.7497 666.6433V666.645C384.7497 667.0851 384.3929 667.4419 383.9528 667.4419 383.5127 667.4419 383.1559 667.0851 383.1559 666.645" fill="#ffb000"/>
</g>
</g>
<g clip-path="url(#clip_36)">
<path transform="matrix(1,0,0,-1,-154.5,777.2581)" d="M412.9592 678.8555C412.9592 678.4154 412.6024 678.0586 412.1623 678.0586 411.7222 678.0586 411.3655 678.4154 411.3655 678.8555V696.3982C411.3655 696.8383 411.7222 697.1951 412.1623 697.1951 412.6024 697.1951 412.9592 696.8383 412.9592 696.3982ZM407.4651 696.3982 412.1623 707.202 416.8596 696.3982Z" fill="#648fff"/>
</g>
<g clip-path="url(#clip_37)">
<g clip-path="url(#clip_38)">
<path transform="matrix(1,0,0,-1,-154.5,777.2581)" d="M411.5024 673.7299V673.7281C411.5024 673.288 411.8592 672.9312 412.2993 672.9312 412.7394 672.9312 413.0961 673.288 413.0961 673.7281V673.7299C413.0961 674.17 412.7394 674.5267 412.2993 674.5267 411.8592 674.5267 411.5024 674.17 411.5024 673.7299M411.5024 670.1874V670.1857C411.5024 669.7456 411.8592 669.3888 412.2993 669.3888 412.7394 669.3888 413.0961 669.7456 413.0961 670.1857V670.1874C413.0961 670.6275 412.7394 670.9843 412.2993 670.9843 411.8592 670.9843 411.5024 670.6275 411.5024 670.1874M411.5024 666.645V666.6433C411.5024 666.2031 411.8592 665.8464 412.2993 665.8464 412.7394 665.8464 413.0961 666.2031 413.0961 666.6433V666.645C413.0961 667.0851 412.7394 667.4419 412.2993 667.4419 411.8592 667.4419 411.5024 667.0851 411.5024 666.645" fill="#648fff"/>
</g>
</g>
<g clip-path="url(#clip_39)">
<path transform="matrix(1,0,0,-1,-154.5,777.2581)" d="M157.181 717.4137C156.7409 717.4137 156.3841 717.7705 156.3841 718.2106 156.3841 718.6507 156.7409 719.0075 157.181 719.0075H242.2204C242.6605 719.0075 243.0173 718.6507 243.0173 718.2106 243.0173 717.7705 242.6605 717.4137 242.2204 717.4137Z" fill="#dc267f"/>
<path transform="matrix(1,0,0,-1,-154.5,777.2581)" d="M157.181 713.4917C156.7409 713.4917 156.3841 713.8485 156.3841 714.2886 156.3841 714.7287 156.7409 715.0854 157.181 715.0854H284.7401C285.1802 715.0854 285.537 714.7287 285.537 714.2886 285.537 713.8485 285.1802 713.4917 284.7401 713.4917Z" fill="#19b091"/>
<path transform="matrix(1,0,0,-1,-154.5,777.2581)" d="M156.7826 774.9035C156.7826 775.1236 156.961 775.302 157.181 775.302 157.4011 775.302 157.5795 775.1236 157.5795 774.9035V732.3838C157.5795 732.1638 157.4011 731.9854 157.181 731.9854 156.961 731.9854 156.7826 732.1638 156.7826 732.3838ZM157.181 774.5051C156.961 774.5051 156.7826 774.6835 156.7826 774.9035 156.7826 775.1236 156.961 775.302 157.181 775.302H426.4725C426.6926 775.302 426.8709 775.1236 426.8709 774.9035 426.8709 774.6835 426.6926 774.5051 426.4725 774.5051Z"/>
</g>
<g clip-path="url(#clip_40)">
<path transform="matrix(1,0,0,-1,-154.5,777.2581)" d="M426.8709 716.2496C426.8709 716.0295 426.6926 715.8511 426.4725 715.8511 426.2525 715.8511 426.0741 716.0295 426.0741 716.2496V774.9035C426.0741 775.1236 426.2525 775.302 426.4725 775.302 426.6926 775.302 426.8709 775.1236 426.8709 774.9035ZM426.8709 657.5956C426.8709 657.3756 426.6926 657.1972 426.4725 657.1972 426.2525 657.1972 426.0741 657.3756 426.0741 657.5956V716.2496C426.0741 716.4696 426.2525 716.648 426.4725 716.648 426.6926 716.648 426.8709 716.4696 426.8709 716.2496ZM157.181 657.1972C156.961 657.1972 156.7826 657.3756 156.7826 657.5956 156.7826 657.8157 156.961 657.9941 157.181 657.9941H426.4725C426.6926 657.9941 426.8709 657.8157 426.8709 657.5956 426.8709 657.3756 426.6926 657.1972 426.4725 657.1972ZM157.5795 657.5956C157.5795 657.3756 157.4011 657.1972 157.181 657.1972 156.961 657.1972 156.7826 657.3756 156.7826 657.5956V716.2496C156.7826 716.4696 156.961 716.648 157.181 716.648 157.4011 716.648 157.5795 716.4696 157.5795 716.2496Z"/>
</g>
</g>
</g>
</g>
</svg>
