<svg xmlns="http://www.w3.org/2000/svg" xmlns:xlink="http://www.w3.org/1999/xlink" xmlns:inkscape="http://www.inkscape.org/namespaces/inkscape" version="1.1" width="234" height="141.45597" viewBox="0 0 234 141.45597">
<defs>
<clipPath id="clip_0">
<path transform="matrix(1,0,0,-1,-185.5,490.34739)" d="M185.5 348.89143H419.5V490.34739H185.5Z" clip-rule="evenodd"/>
</clipPath>
<clipPath id="clip_1">
<path transform="matrix(1,0,0,-1,-185.5,490.34739)" d="M0 0H612V803.25H0Z"/>
</clipPath>
<clipPath id="clip_2">
<path transform="matrix(1,0,0,-1,-185.5,490.34739)" d="M0 0H612V803.25H0Z"/>
</clipPath>
<clipPath id="clip_3">
<path transform="matrix(1,0,0,-1,-185.5,490.34739)" d="M0 0H612V803.25H0Z"/>
</clipPath>
<clipPath id="clip_4">
<path transform="matrix(1,0,0,-1,-185.5,490.34739)" d="M219.0366 411.5837C219.1842 411.2885 219.0646 410.9295 218.7693 410.7819 218.4741 410.6343 218.1151 410.7539 217.9675 411.0492L213.3394 420.3053C213.1918 420.6006 213.3115 420.9596 213.6067 421.1072 213.9019 421.2548 214.2609 421.1351 214.4085 420.8399Z"/>
</clipPath>
<clipPath id="clip_5">
<path transform="matrix(1,0,0,-1,-185.5,490.34739)" d="M0 0H612V803.25H0Z"/>
</clipPath>
<clipPath id="clip_6">
<path transform="matrix(1,0,0,-1,-185.5,490.34739)" d="M0 0H612V803.25H0Z"/>
</clipPath>
<clipPath id="clip_7">
<path transform="matrix(1,0,0,-1,-185.5,490.34739)" d="M222.5436 487.6202C222.396 487.9154 222.5157 488.2744 222.8109 488.422 223.1061 488.5696 223.4651 488.45 223.6127 488.1547L228.2408 478.8985C228.3884 478.6033 228.2688 478.2443 227.9735 478.0967 227.6783 477.9491 227.3193 478.0688 227.1717 478.364Z"/>
</clipPath>
<clipPath id="clip_8">
<path transform="matrix(1,0,0,-1,-185.5,490.34739)" d="M0 0H612V803.25H0Z"/>
</clipPath>
<clipPath id="clip_9">
<path transform="matrix(1,0,0,-1,-185.5,490.34739)" d="M0 0H612V803.25H0Z"/>
</clipPath>
<clipPath id="clip_10">
<path transform="matrix(1,0,0,-1,-185.5,490.34739)" d="M370.0468 448.3845C369.7516 448.2369 369.3926 448.3566 369.245 448.6518 369.0974 448.947 369.2171 449.306 369.5123 449.4537L403.8016 466.5983C404.0968 466.7459 404.4558 466.6263 404.6034 466.331 404.751 466.0358 404.6314 465.6768 404.3361 465.5292Z"/>
</clipPath>
<clipPath id="clip_11">
<path transform="matrix(1,0,0,-1,-185.5,490.34739)" d="M0 0H612V803.25H0Z"/>
</clipPath>
<clipPath id="clip_12">
<path transform="matrix(1,0,0,-1,-185.5,490.34739)" d="M0 0H612V803.25H0Z"/>
</clipPath>
<clipPath id="clip_13">
<path transform="matrix(1,0,0,-1,-185.5,490.34739)" d="M369.245 448.6518C369.0974 448.947 369.2171 449.306 369.5123 449.4537 369.8075 449.6013 370.1665 449.4816 370.3141 449.1864L407.9168 373.9811C408.0644 373.6859 407.9447 373.3269 407.6495 373.1792 407.3543 373.0316 406.9953 373.1513 406.8477 373.4465Z"/>
</clipPath>
<clipPath id="clip_14">
<path transform="matrix(1,0,0,-1,-185.5,490.34739)" d="M0 0H612V803.25H0Z"/>
</clipPath>
<clipPath id="clip_15">
<path transform="matrix(1,0,0,-1,-185.5,490.34739)" d="M0 0H612V803.25H0Z"/>
</clipPath>
<clipPath id="clip_16">
<path transform="matrix(1,0,0,-1,-185.5,490.34739)" d="M373.3602 356.0346C373.065 355.887 372.706 356.0066 372.5584 356.3019 372.4107 356.5971 372.5304 356.9561 372.8256 357.1037L407.1149 374.2484C407.4102 374.396 407.7692 374.2763 407.9168 373.9811 408.0644 373.6859 407.9447 373.3269 407.6495 373.1792Z"/>
</clipPath>
<clipPath id="clip_17">
<path transform="matrix(1,0,0,-1,-185.5,490.34739)" d="M0 0H612V803.25H0Z"/>
</clipPath>
<clipPath id="clip_18">
<path transform="matrix(1,0,0,-1,-185.5,490.34739)" d="M0 0H612V803.25H0Z"/>
</clipPath>
</defs>
<g clip-path="url(#clip_0)">
<g clip-path="url(#clip_1)">
<g clip-path="url(#clip_2)">
<text xml:space="preserve" transform="matrix(13.55482 0 -0 13.55482 1.3961945 59.24118)" font-size="1" font-family="cmmi10" font-style="italic"><tspan y="-.906" x="0">x</tspan></text>
<text xml:space="preserve" transform="matrix(13.55482 0 -0 13.55482 171.96451 59.65439)" font-size="1" font-family="cmmi10" font-style="italic"><tspan y="-.906" x="0">x</tspan></text>
<text xml:space="preserve" transform="matrix(13.55482 0 -0 13.55482 175.2778 152.0044)" font-size="1" font-family="cmmi10" font-style="italic"><tspan y="-.906" x="0">x</tspan></text>
<text xml:space="preserve" transform="matrix(13.55482 0 -0 13.55482 47.0307 45.78778)" font-size="1" font-family="cmmi10" font-style="italic"><tspan y="-.906" x="0">x</tspan></text>
<text xml:space="preserve" transform="matrix(9.488372 0 -0 9.488372 54.777696 36.124696)" font-size="1" font-family="cmsy10" font-style="italic"><tspan y="-.606" x="-0.2">'</tspan></text>
<text xml:space="preserve" transform="matrix(13.55482 0 -0 13.55482 216.60669 47.30948)" font-size="1" font-family="cmmi10" font-style="italic"><tspan y="-.906" x="0">x</tspan></text>
<text xml:space="preserve" transform="matrix(9.488372 0 -0 9.488372 224.3537 37.646394)" font-size="1" font-family="cmsy10" font-style="italic"><tspan y="-.606" x="-0.2">'</tspan></text>
<text xml:space="preserve" transform="matrix(13.55482 0 -0 13.55482 222.14081 141.6847)" font-size="1" font-family="cmmi10" font-style="italic"><tspan y="-.906" x="0">x</tspan></text>
<text xml:space="preserve" transform="matrix(9.488372 0 -0 9.488372 229.8877 132.02158)" font-size="1" font-family="cmsy10" font-style="italic"><tspan y="-.606" x="-0.2">'</tspan></text>
<text xml:space="preserve" transform="matrix(12.70764 0 -0 12.70764 10.475494 77.11139)" font-size="1" font-family="cmmi10" font-style="italic"><tspan y="-.906" x="0">v</tspan></text>
<text xml:space="preserve" transform="matrix(8.895349 0 -0 8.895349 16.635193 75.20529)" font-size="1" font-family="cmr10"><tspan y="-.906" x="0">2</tspan></text>
<text xml:space="preserve" transform="matrix(12.70764 0 -0 12.70764 26.629303 38.40628)" font-size="1" font-family="cmmi10" font-style="italic"><tspan y="-.906" x="0">v</tspan></text>
<text xml:space="preserve" transform="matrix(8.895349 0 -0 8.895349 32.788896 36.500185)" font-size="1" font-family="cmr10"><tspan y="-.906" x="0">1</tspan></text>
<text xml:space="preserve" transform="matrix(13.55482 0 -0 13.55482 204.6246 90.93347)" font-size="1" font-family="cmmi10" font-style="italic"><tspan y="-.906" x="0">s</tspan></text>
<text xml:space="preserve" transform="matrix(9.488372 0 -0 9.488372 210.9784 88.90027)" font-size="1" font-family="cmr10"><tspan y="-.906" x="0">2</tspan></text>
<text xml:space="preserve" transform="matrix(12.70764 0 -0 12.70764 192.69519 37.190279)" font-size="1" font-family="cmmi10" font-style="italic"><tspan y="-.906" x="0">s</tspan></text>
<text xml:space="preserve" transform="matrix(8.895349 0 -0 8.895349 198.65189 35.28418)" font-size="1" font-family="cmr10"><tspan y="-.906" x="0">1</tspan></text>
<text xml:space="preserve" transform="matrix(12.70764 0 -0 12.70764 172.2514 102.174777)" font-size="1" font-family="cmmi10" font-style="italic"><tspan y="-.906" x="0">e</tspan></text>
<text xml:space="preserve" transform="matrix(8.895349 0 -0 8.895349 178.16849 100.26868)" font-size="1" font-family="cmr10"><tspan y="-.906" x="0">1</tspan></text>
<g clip-path="url(#clip_3)">
<path transform="matrix(1,0,0,-1,-185.5,490.34739)" d="M198.5738 447.7921C197.9514 448.4145 197.9514 449.4237 198.5738 450.0461 199.1962 450.6684 200.2053 450.6684 200.8277 450.0461 201.4501 449.4237 201.4501 448.4145 200.8277 447.7921 200.2053 447.1698 199.1962 447.1698 198.5738 447.7921M199.968 448.3845C199.6728 448.2369 199.3138 448.3566 199.1662 448.6518 199.0186 448.947 199.1382 449.306 199.4334 449.4537L227.7799 463.6269C228.0752 463.7745 228.4341 463.6548 228.5818 463.3596 228.7294 463.0644 228.6097 462.7054 228.3145 462.5578ZM199.1662 448.6518C199.0186 448.947 199.1382 449.306 199.4334 449.4537 199.7287 449.6013 200.0877 449.4816 200.2353 449.1864L214.4085 420.8399C214.5561 420.5447 214.4365 420.1857 214.1412 420.0381 213.846 419.8905 213.487 420.0101 213.3394 420.3053Z"/>
</g>
<g clip-path="url(#clip_4)">
<g clip-path="url(#clip_5)">
<path transform="matrix(1,0,0,-1,-185.5,490.34739)" d="M219.0366 411.5837 219.036 411.5849C218.8884 411.8801 218.5294 411.9998 218.2342 411.8522 217.939 411.7046 217.8193 411.3456 217.9669 411.0503L217.9675 411.0492C218.1151 410.7539 218.4741 410.6343 218.7693 410.7819 219.0646 410.9295 219.1842 411.2885 219.0366 411.5837M217.8797 413.8975 217.8792 413.8986C217.7315 414.1939 217.3725 414.3135 217.0773 414.1659 216.7821 414.0183 216.6624 413.6593 216.81 413.3641L216.8106 413.3629C216.9582 413.0677 217.3172 412.948 217.6125 413.0956 217.9077 413.2433 218.0274 413.6023 217.8797 413.8975M216.7229 416.2112 216.7223 416.2124C216.5747 416.5076 216.2157 416.6273 215.9204 416.4797 215.6252 416.3321 215.5055 415.9731 215.6532 415.6778L215.6537 415.6767C215.8014 415.3815 216.1603 415.2618 216.4556 415.4094 216.7508 415.557 216.8705 415.916 216.7229 416.2112M215.566 418.525 215.5654 418.5262C215.4178 418.8214 215.0588 418.941 214.7636 418.7934 214.4683 418.6458 214.3487 418.2868 214.4963 417.9916L214.4969 417.9904C214.6445 417.6952 215.0035 417.5755 215.2987 417.7232 215.5939 417.8708 215.7136 418.2298 215.566 418.525M214.4091 420.8388 214.4085 420.8399C214.2609 421.1351 213.9019 421.2548 213.6067 421.1072 213.3115 420.9596 213.1918 420.6006 213.3394 420.3053L213.34 420.3042C213.4876 420.009 213.8466 419.8893 214.1418 420.0369 214.4371 420.1845 214.5567 420.5435 214.4091 420.8388"/>
</g>
</g>
<g clip-path="url(#clip_6)">
<path transform="matrix(1,0,0,-1,-185.5,490.34739)" d="M228.3145 462.5578C228.0193 462.4102 227.6603 462.5298 227.5126 462.8251 227.365 463.1203 227.4847 463.4793 227.7799 463.6269L256.1264 477.8001C256.4216 477.9477 256.7806 477.8281 256.9282 477.5329 257.0758 477.2376 256.9562 476.8786 256.661 476.731ZM234.5246 466.331C234.6722 466.0358 234.5525 465.6768 234.2573 465.5292 233.9621 465.3816 233.6031 465.5012 233.4555 465.7965L227.1717 478.364C227.0241 478.6592 227.1438 479.0182 227.439 479.1658 227.7342 479.3134 228.0932 479.1938 228.2408 478.8985Z"/>
</g>
<g clip-path="url(#clip_7)">
<g clip-path="url(#clip_8)">
<path transform="matrix(1,0,0,-1,-185.5,490.34739)" d="M222.5436 487.6202 222.5442 487.619C222.6918 487.3238 223.0508 487.2041 223.346 487.3517 223.6413 487.4993 223.7609 487.8583 223.6133 488.1536L223.6127 488.1547C223.4651 488.45 223.1061 488.5696 222.8109 488.422 222.5157 488.2744 222.396 487.9154 222.5436 487.6202M223.7005 485.3064 223.7011 485.3053C223.8487 485.01 224.2077 484.8904 224.5029 485.038 224.7981 485.1856 224.9178 485.5446 224.7702 485.8398L224.7696 485.841C224.622 486.1362 224.263 486.2559 223.9678 486.1082 223.6725 485.9606 223.5529 485.6016 223.7005 485.3064M224.8574 482.9927 224.8579 482.9915C225.0056 482.6963 225.3646 482.5766 225.6598 482.7242 225.955 482.8718 226.0747 483.2308 225.9271 483.5261L225.9265 483.5272C225.7789 483.8224 225.4199 483.9421 225.1246 483.7945 224.8294 483.6469 224.7098 483.2879 224.8574 482.9927M226.0142 480.6789 226.0148 480.6777C226.1624 480.3825 226.5214 480.2628 226.8167 480.4105 227.1119 480.5581 227.2316 480.9171 227.0839 481.2123L227.0834 481.2135C226.9357 481.5087 226.5768 481.6284 226.2815 481.4807 225.9863 481.3331 225.8666 480.9741 226.0142 480.6789M227.1711 478.3651 227.1717 478.364C227.3193 478.0688 227.6783 477.9491 227.9735 478.0967 228.2688 478.2443 228.3884 478.6033 228.2408 478.8985L228.2402 478.8997C228.0926 479.1949 227.7336 479.3146 227.4384 479.167 227.1432 479.0194 227.0235 478.6604 227.1711 478.3651"/>
</g>
</g>
<g clip-path="url(#clip_9)">
<path transform="matrix(1,0,0,-1,-185.5,490.34739)" d="M251.852 478.334C251.5568 478.1864 251.1978 478.306 251.0502 478.6013 250.9026 478.8965 251.0223 479.2555 251.3175 479.4031L254.5234 481.0061C254.8187 481.1537 255.1776 481.034 255.3253 480.7388 255.4729 480.4436 255.3532 480.0846 255.058 479.937ZM254.2561 480.2042C254.1085 480.4995 254.2282 480.8585 254.5234 481.0061 254.8187 481.1537 255.1776 481.034 255.3253 480.7388L258.5312 474.3269C258.6788 474.0317 258.5592 473.6727 258.2639 473.5251 257.9687 473.3775 257.6097 473.4971 257.4621 473.7923ZM255.058 471.9221C254.7628 471.7745 254.4038 471.8941 254.2561 472.1894 254.1085 472.4846 254.2282 472.8436 254.5234 472.9912L257.7294 474.5942C258.0246 474.7418 258.3836 474.6221 258.5312 474.3269 258.6788 474.0317 258.5592 473.6727 258.2639 473.5251ZM199.7898 448.7409C199.6914 448.6917 199.5717 448.7316 199.5225 448.83 199.4733 448.9284 199.5132 449.0481 199.6116 449.0973L216.5634 457.5732C216.6618 457.6224 216.7815 457.5825 216.8307 457.4841 216.8799 457.3857 216.84 457.266 216.7416 457.2168ZM215.3168 460.0697 222.8042 460.4708 217.9909 454.7216ZM199.5225 448.83C199.4733 448.9284 199.5132 449.0481 199.6116 449.0973 199.71 449.1465 199.8297 449.1066 199.8789 449.0082L208.3548 432.0564C208.404 431.958 208.3641 431.8383 208.2657 431.7891 208.1673 431.7399 208.0476 431.7798 207.9984 431.8782ZM210.8514 433.303 211.2525 425.8156 205.5032 430.6289ZM232.8631 464.9368C232.2407 465.5592 232.2407 466.5683 232.8631 467.1907 233.4855 467.8131 234.4946 467.8131 235.117 467.1907 235.7394 466.5683 235.7394 465.5592 235.117 464.9368 234.4946 464.3144 233.4855 464.3144 232.8631 464.9368M368.6526 447.7921C368.0302 448.4145 368.0302 449.4237 368.6526 450.0461 369.275 450.6684 370.2841 450.6684 370.9065 450.0461 371.5289 449.4237 371.5289 448.4145 370.9065 447.7921 370.2841 447.1698 369.275 447.1698 368.6526 447.7921"/>
</g>
<g clip-path="url(#clip_10)">
<g clip-path="url(#clip_11)">
<path transform="matrix(1,0,0,-1,-185.5,490.34739)" d="M370.0468 448.3845 372.0062 449.3642 371.4717 450.4334 369.5123 449.4537ZM372.9859 449.8541 374.9453 450.8338 374.4108 451.9029 372.4514 450.9232ZM375.925 451.3236 377.8844 452.3033 377.3498 453.3724 375.3904 452.3927ZM378.8641 452.7932 380.8235 453.7729 380.2889 454.842 378.3295 453.8623ZM381.8032 454.2627 383.7626 455.2424 383.228 456.3115 381.2686 455.3318ZM384.7423 455.7322 386.7016 456.7119 386.1671 457.7811 384.2077 456.8014ZM387.6813 457.2018 389.6407 458.1815 389.1062 459.2506 387.1468 458.2709ZM390.6204 458.6713 392.5798 459.651 392.0452 460.7201 390.0859 459.7404ZM393.5595 460.1409 395.5189 461.1206 394.9843 462.1897 393.0249 461.21ZM396.4986 461.6104 398.458 462.5901 397.9234 463.6592 395.964 462.6795ZM399.4377 463.08 401.3971 464.0596 400.8625 465.1288 398.9031 464.1491ZM402.3767 464.5495 404.3361 465.5292 403.8016 466.5983 401.8422 465.6186Z"/>
</g>
</g>
<g clip-path="url(#clip_12)">
<path transform="matrix(1,0,0,-1,-185.5,490.34739)" d="M402.9419 464.9368C402.3195 465.5592 402.3195 466.5683 402.9419 467.1907 403.5643 467.8131 404.5734 467.8131 405.1958 467.1907 405.8182 466.5683 405.8182 465.5592 405.1958 464.9368 404.5734 464.3144 403.5643 464.3144 402.9419 464.9368"/>
</g>
<g clip-path="url(#clip_13)">
<g clip-path="url(#clip_14)">
<path transform="matrix(1,0,0,-1,-185.5,490.34739)" d="M369.245 448.6518 370.3042 446.5334 371.3734 447.0679 370.3141 449.1864ZM370.8338 445.4741 371.8931 443.3557 372.9622 443.8902 371.903 446.0087ZM372.4227 442.2964 373.4819 440.178 374.551 440.7125 373.4918 442.831ZM374.0115 439.1188 375.0708 437.0003 376.1399 437.5349 375.0807 439.6533ZM375.6004 435.9411 376.6596 433.8226 377.7287 434.3572 376.6695 436.4756ZM377.1892 432.7634 378.2485 430.6449 379.3176 431.1795 378.2583 433.2979ZM378.7781 429.5857 379.8373 427.4672 380.9064 428.0018 379.8472 430.1202ZM380.3669 426.408 381.4261 424.2895 382.4953 424.8241 381.436 426.9426ZM381.9558 423.2303 383.015 421.1119 384.0841 421.6464 383.0249 423.7649ZM383.5446 420.0526 384.6038 417.9342 385.673 418.4687 384.6137 420.5872ZM385.1334 416.8749 386.1927 414.7565 387.2618 415.291 386.2026 417.4095ZM386.7223 413.6972 387.7815 411.5788 388.8506 412.1133 387.7914 414.2318ZM388.3111 410.5196 389.3704 408.4011 390.4395 408.9357 389.3803 411.0541ZM389.9 407.3419 390.9592 405.2234 392.0283 405.758 390.9691 407.8764ZM391.4888 404.1642 392.5481 402.0457 393.6172 402.5803 392.5579 404.6987ZM393.0777 400.9865 394.1369 398.868 395.206 399.4026 394.1468 401.5211ZM394.6665 397.8088 395.7257 395.6903 396.7949 396.2249 395.7356 398.3434ZM396.2554 394.6311 397.3146 392.5127 398.3837 393.0472 397.3245 395.1657ZM397.8442 391.4534 398.9034 389.335 399.9725 389.8695 398.9133 391.988ZM399.433 388.2757 400.4923 386.1573 401.5614 386.6918 400.5022 388.8103ZM401.0219 385.098 402.0811 382.9796 403.1502 383.5141 402.091 385.6326ZM402.6107 381.9204 403.67 379.8019 404.7391 380.3365 403.6799 382.4549ZM404.1996 378.7427 405.2588 376.6242 406.3279 377.1588 405.2687 379.2772ZM405.7884 375.565 406.8477 373.4465 407.9168 373.9811 406.8575 376.0995Z"/>
</g>
</g>
<g clip-path="url(#clip_15)">
<path transform="matrix(1,0,0,-1,-185.5,490.34739)" d="M406.2553 372.5869C405.6329 373.2092 405.6329 374.2184 406.2553 374.8408 406.8777 375.4632 407.8868 375.4632 408.5092 374.8408 409.1316 374.2184 409.1316 373.2092 408.5092 372.5869 407.8868 371.9645 406.8777 371.9645 406.2553 372.5869M371.966 355.4422C371.3436 356.0646 371.3436 357.0737 371.966 357.6961 372.5884 358.3185 373.5975 358.3185 374.2199 357.6961 374.8423 357.0737 374.8423 356.0646 374.2199 355.4422 373.5975 354.8198 372.5884 354.8198 371.966 355.4422M369.1823 448.8977C369.1705 449.2275 369.4283 449.5045 369.7581 449.5164 370.088 449.5282 370.365 449.2704 370.3768 448.9405L373.6902 356.5906C373.702 356.2607 373.4442 355.9837 373.1143 355.9719 372.7845 355.9601 372.5075 356.2179 372.4956 356.5477Z"/>
</g>
<g clip-path="url(#clip_16)">
<g clip-path="url(#clip_17)">
<path transform="matrix(1,0,0,-1,-185.5,490.34739)" d="M373.3602 356.0346 375.3196 357.0143 374.785 358.0834 372.8256 357.1037ZM376.2993 357.5041 378.2587 358.4838 377.7241 359.553 375.7647 358.5733ZM379.2384 358.9737 381.1978 359.9534 380.6632 361.0225 378.7038 360.0428ZM382.1774 360.4432 384.1368 361.4229 383.6023 362.492 381.6429 361.5123ZM385.1165 361.9128 387.0759 362.8925 386.5414 363.9616 384.582 362.9819ZM388.0556 363.3823 390.015 364.362 389.4804 365.4311 387.5211 364.4514ZM390.9947 364.8518 392.9541 365.8315 392.4195 366.9007 390.4601 365.921ZM393.9338 366.3214 395.8932 367.3011 395.3586 368.3702 393.3992 367.3905ZM396.8729 367.7909 398.8322 368.7706 398.2977 369.8397 396.3383 368.86ZM399.8119 369.2605 401.7713 370.2402 401.2368 371.3093 399.2774 370.3296ZM402.751 370.73 404.7104 371.7097 404.1758 372.7788 402.2165 371.7991ZM405.6901 372.1995 407.6495 373.1792 407.1149 374.2484 405.1555 373.2687Z"/>
</g>
</g>
<g clip-path="url(#clip_18)">
<path transform="matrix(1,0,0,-1,-185.5,490.34739)" d="M369.8687 448.7409C369.7702 448.6917 369.6506 448.7316 369.6014 448.83 369.5522 448.9284 369.5921 449.0481 369.6905 449.0973L386.6423 457.5732C386.7407 457.6224 386.8603 457.5825 386.9095 457.4841 386.9587 457.3857 386.9189 457.266 386.8204 457.2168ZM385.3957 460.0697 392.8831 460.4708 388.0697 454.7216ZM369.6014 448.83C369.5522 448.9284 369.5921 449.0481 369.6905 449.0973 369.7889 449.1465 369.9085 449.1066 369.9577 449.0082L378.4336 432.0564C378.4828 431.958 378.443 431.8383 378.3446 431.7891 378.2461 431.7399 378.1265 431.7798 378.0773 431.8782ZM380.9302 433.303 381.3313 425.8156 375.5821 430.6289Z"/>
</g>
</g>
</g>
</g>
</svg>
